<svg width="14" height="15" viewBox="0 0 14 15" fill="none" xmlns="http://www.w3.org/2000/svg">
<path d="M6.64604 0.235718C6.12649 0.235718 5.60729 0.357237 5.1321 0.60054C5.13164 0.600767 5.13119 0.600994 5.13073 0.601223L1.04323 2.70544C0.403682 3.03481 0 3.69649 0 4.41614V10.0552C0 10.7746 0.403222 11.4361 1.04323 11.7652L5.13073 13.8701C5.13096 13.8703 5.13119 13.8705 5.13142 13.8708C6.08179 14.3574 7.20961 14.3574 8.15999 13.8708C8.16044 13.8705 8.1609 13.8703 8.16135 13.8701L12.2489 11.7652C12.8884 11.4358 13.2914 10.7746 13.2914 10.0552V4.41614C13.2914 3.69688 12.8886 3.03533 12.2489 2.70612H12.2482L8.16135 0.601223C8.16112 0.600995 8.1609 0.600767 8.16067 0.60054C7.6855 0.357236 7.1656 0.235718 6.64604 0.235718ZM6.64604 1.28509C7.00132 1.28509 7.35695 1.36849 7.68244 1.53514L11.7679 3.63867C11.7681 3.6389 11.7684 3.63913 11.7686 3.63936C12.0604 3.78944 12.242 4.0876 12.242 4.41614V10.0552C12.242 10.3837 12.0602 10.6821 11.7679 10.8326L7.68175 12.9362C7.03124 13.2692 6.2617 13.2694 5.61101 12.9368L5.60965 12.9362L1.52351 10.8326C1.52351 10.8324 1.52351 10.8322 1.52351 10.8319C1.23165 10.6819 1.04938 10.3837 1.04938 10.0552V4.41614C1.04938 4.08712 1.23121 3.78921 1.52351 3.63867L5.61033 1.53514C5.93582 1.36849 6.29077 1.28509 6.64604 1.28509ZM2.2634 3.90921C2.14571 3.91022 2.03178 3.95076 1.93991 4.02431C1.84804 4.09787 1.78357 4.20017 1.75685 4.31479C1.73012 4.4294 1.74271 4.54967 1.79257 4.65627C1.84244 4.76288 1.92669 4.84962 2.0318 4.90257L5.12117 6.50806C5.43818 6.67269 5.77753 6.76213 6.12136 6.81754V11.9578C6.12037 12.0274 6.13322 12.0964 6.15914 12.1609C6.18507 12.2254 6.22356 12.2842 6.27238 12.3337C6.3212 12.3832 6.37937 12.4225 6.44352 12.4493C6.50767 12.4762 6.57651 12.49 6.64604 12.49C6.71558 12.49 6.78442 12.4762 6.84857 12.4493C6.91271 12.4225 6.97088 12.3832 7.0197 12.3337C7.06852 12.2842 7.10702 12.2254 7.13294 12.1609C7.15887 12.0964 7.17171 12.0274 7.17073 11.9578V6.81754C7.51456 6.76213 7.85322 6.67269 8.17023 6.50806C8.17046 6.50806 8.17069 6.50806 8.17092 6.50806L11.2603 4.90325C11.3839 4.83911 11.4769 4.7285 11.5189 4.59577C11.5609 4.46304 11.5485 4.31904 11.4844 4.19547C11.4202 4.0719 11.3096 3.97886 11.1769 3.93684C11.0442 3.89482 10.9002 3.90724 10.7766 3.97138L7.68654 5.57687C7.36225 5.74517 7.00821 5.82832 6.65424 5.82965C6.6481 5.82932 6.64195 5.82909 6.6358 5.82897C6.28233 5.82729 5.92866 5.74503 5.60487 5.57687L2.51549 3.97207C2.43806 3.93032 2.35137 3.9087 2.2634 3.90921ZM11.0102 6.87835C10.8712 6.88052 10.7387 6.93779 10.6419 7.03757C10.545 7.13736 10.4918 7.27151 10.4938 7.41055V9.30776C10.4938 9.31515 10.492 9.3188 10.4856 9.3221C10.4853 9.3221 10.4851 9.3221 10.4849 9.3221L9.029 10.0716C8.96771 10.1031 8.91323 10.1465 8.86869 10.1991C8.82414 10.2517 8.7904 10.3126 8.76939 10.3783C8.74839 10.4439 8.74052 10.5131 8.74624 10.5818C8.75196 10.6505 8.77117 10.7174 8.80275 10.7787C8.83434 10.84 8.87769 10.8945 8.93032 10.939C8.98296 10.9835 9.04385 11.0173 9.10953 11.0382C9.1752 11.0592 9.24437 11.0671 9.31307 11.0614C9.38178 11.0556 9.44868 11.0364 9.50996 11.0048L10.9652 10.2547C11.319 10.0726 11.5431 9.70542 11.5431 9.30776V7.41055C11.5441 7.34032 11.531 7.27061 11.5046 7.20554C11.4782 7.14047 11.4389 7.08137 11.3892 7.03174C11.3396 6.9821 11.2804 6.94296 11.2153 6.91661C11.1502 6.89026 11.0805 6.87725 11.0102 6.87835Z" fill="black"/>
</svg>
