<svg width="14" height="15" viewBox="0 0 14 15" fill="none" xmlns="http://www.w3.org/2000/svg">
<path d="M6.64592 0.173557C6.12637 0.173557 5.60717 0.295077 5.13198 0.538379C5.13152 0.538606 5.13107 0.538834 5.13061 0.539062L1.0431 2.64328C0.40356 2.97265 -0.00012207 3.63433 -0.00012207 4.35398V9.993C-0.00012207 10.7124 0.4031 11.3739 1.0431 11.703L5.13061 13.8079C5.13084 13.8081 5.13107 13.8084 5.1313 13.8086C6.08167 14.2952 7.20949 14.2952 8.15986 13.8086C8.16032 13.8084 8.16077 13.8081 8.16123 13.8079L12.2487 11.703C12.8883 11.3736 13.2913 10.7124 13.2913 9.993V4.35398C13.2913 3.63472 12.8885 2.97317 12.2487 2.64396H12.2481L8.16123 0.539062C8.161 0.538834 8.16077 0.538607 8.16055 0.538379C7.68538 0.295076 7.16547 0.173557 6.64592 0.173557ZM6.64592 1.22293C7.0012 1.22293 7.35683 1.30633 7.68232 1.47298L11.7678 3.57651C11.768 3.57674 11.7682 3.57697 11.7685 3.57719C12.0603 3.72728 12.2419 4.02543 12.2419 4.35398V9.993C12.2419 10.3215 12.0601 10.6199 11.7678 10.7705L7.68163 12.874C7.03111 13.2071 6.26158 13.2073 5.61089 12.8747L5.60953 12.874L1.52338 10.7705C1.52339 10.7702 1.52339 10.77 1.52338 10.7698C1.23153 10.6197 1.04925 10.3215 1.04925 9.993V4.35398C1.04925 4.02495 1.23108 3.72705 1.52338 3.57651L5.61021 1.47298C5.9357 1.30633 6.29064 1.22293 6.64592 1.22293ZM2.26328 3.84705C2.14559 3.84806 2.03166 3.8886 1.93979 3.96215C1.84792 4.03571 1.78345 4.13801 1.75672 4.25263C1.73 4.36724 1.74259 4.48751 1.79245 4.59411C1.84232 4.70072 1.92657 4.78746 2.03168 4.84041L5.12105 6.4459C5.43806 6.61053 5.7774 6.69997 6.12123 6.75538V11.8957C6.12025 11.9652 6.1331 12.0342 6.15902 12.0988C6.18495 12.1633 6.22344 12.222 6.27226 12.2715C6.32108 12.321 6.37925 12.3603 6.4434 12.3872C6.50755 12.414 6.57639 12.4278 6.64592 12.4278C6.71546 12.4278 6.7843 12.414 6.84844 12.3872C6.91259 12.3603 6.97076 12.321 7.01958 12.2715C7.0684 12.222 7.10689 12.1633 7.13282 12.0988C7.15875 12.0342 7.17159 11.9652 7.17061 11.8957V6.75538C7.51444 6.69997 7.8531 6.61053 8.17011 6.4459C8.17034 6.4459 8.17057 6.4459 8.17079 6.4459L11.2602 4.84109C11.3837 4.77695 11.4768 4.66634 11.5188 4.53361C11.5608 4.40087 11.5484 4.25688 11.4843 4.13331C11.4201 4.00974 11.3095 3.9167 11.1768 3.87468C11.044 3.83266 10.9 3.84508 10.7765 3.90922L7.68641 5.51471C7.36213 5.68301 7.00808 5.76616 6.65412 5.76749C6.64797 5.76716 6.64183 5.76693 6.63567 5.76681C6.2822 5.76513 5.92854 5.68287 5.60474 5.51471L2.51537 3.90991C2.43794 3.86815 2.35125 3.84654 2.26328 3.84705V3.84705ZM11.0101 6.81618C10.8711 6.81836 10.7386 6.87563 10.6418 6.97541C10.5449 7.0752 10.4916 7.20935 10.4936 7.34839V9.2456C10.4936 9.25299 10.4918 9.25664 10.4854 9.25994C10.4852 9.25994 10.485 9.25994 10.4847 9.25994L9.02888 10.0094C8.96758 10.041 8.91311 10.0843 8.86857 10.1369C8.82402 10.1896 8.79028 10.2504 8.76927 10.3161C8.74826 10.3818 8.7404 10.4509 8.74612 10.5197C8.75184 10.5884 8.77105 10.6553 8.80263 10.7166C8.83422 10.7778 8.87757 10.8323 8.9302 10.8768C8.98284 10.9214 9.04373 10.9551 9.10941 10.9761C9.17508 10.9971 9.24424 11.0049 9.31295 10.9992C9.38166 10.9935 9.44856 10.9742 9.50984 10.9426L10.965 10.1925C11.3189 10.0104 11.543 9.64326 11.543 9.2456V7.34839C11.544 7.27816 11.5309 7.20845 11.5045 7.14338C11.478 7.07831 11.4388 7.01921 11.3891 6.96958C11.3394 6.91994 11.2803 6.88079 11.2152 6.85445C11.1501 6.8281 11.0803 6.81509 11.0101 6.81618V6.81618Z" fill="black"/>
</svg>
