<svg width="14" height="16" viewBox="0 0 14 16" fill="none" xmlns="http://www.w3.org/2000/svg">
<path d="M6.01358 0.773655C5.61122 0.773655 5.20935 0.904526 4.87688 1.16648L0.191069 4.85848C0.10936 4.92297 0.0497566 5.0113 0.0205337 5.1112C-0.00868915 5.21111 -0.00608138 5.31763 0.0279948 5.41598C0.062071 5.51434 0.125925 5.59964 0.210691 5.66006C0.295457 5.72047 0.396929 5.75299 0.50102 5.7531H11.5261C11.6302 5.75299 11.7317 5.72047 11.8165 5.66006C11.9012 5.59964 11.9651 5.51434 11.9992 5.41598C12.0332 5.31763 12.0359 5.21111 12.0066 5.1112C11.9774 5.0113 11.9178 4.92297 11.8361 4.85848L7.15094 1.16648C6.81846 0.904526 6.41594 0.773655 6.01358 0.773655ZM6.01358 1.77333C6.19572 1.77333 6.37775 1.83383 6.53038 1.95408L10.0808 4.75082H1.94637L5.49678 1.95408C5.64941 1.83383 5.83144 1.77333 6.01358 1.77333ZM6.01358 2.74625C5.83637 2.74625 5.66641 2.81665 5.5411 2.94196C5.41579 3.06727 5.34539 3.23722 5.34539 3.41444C5.34539 3.59165 5.41579 3.76161 5.5411 3.88692C5.66641 4.01223 5.83637 4.08263 6.01358 4.08263C6.1908 4.08263 6.36075 4.01223 6.48606 3.88692C6.61137 3.76161 6.68177 3.59165 6.68177 3.41444C6.68177 3.23722 6.61137 3.06727 6.48606 2.94196C6.36075 2.81665 6.1908 2.74625 6.01358 2.74625ZM1.16921 6.42129V10.805C0.50116 10.9578 -0.00012207 11.5545 -0.00012207 12.2679C-0.00012207 13.0965 0.674749 13.7714 1.5033 13.7714H5.0113V12.7691H1.5033C1.22601 12.7691 1.00216 12.5452 1.00216 12.2679C1.00216 11.9906 1.22601 11.7668 1.5033 11.7668H5.0113V10.7645H4.34311V6.42129H3.34082V10.7645H2.17149V6.42129H1.16921ZM5.51244 6.42129V8.97398C5.69953 8.837 5.9334 8.75995 6.18063 8.75995H6.51472V6.42129H5.51244ZM7.68405 6.42129V8.75995H8.68634V6.42129H7.68405ZM9.85567 6.42129V8.75995H10.858V6.42129H9.85567ZM6.51472 9.42814C6.05915 9.42814 5.67949 9.80781 5.67949 10.2634V13.9384C5.67949 14.394 6.05915 14.7737 6.51472 14.7737H12.5284C12.984 14.7737 13.3637 14.394 13.3637 13.9384V10.2634C13.3637 9.80781 12.984 9.42814 12.5284 9.42814H6.51472ZM6.68177 10.4304H12.3614V11.0986H6.68177V10.4304ZM6.68177 12.1009H12.3614V13.7714H6.68177V12.1009Z" fill="black"/>
</svg>
