<svg width="14" height="16" viewBox="0 0 14 16" fill="none" xmlns="http://www.w3.org/2000/svg">
<path d="M6.0137 0.835815C5.61134 0.835815 5.20948 0.966686 4.877 1.22864L0.191191 4.92064C0.109482 4.98513 0.0498787 5.07346 0.0206558 5.17336C-0.00856708 5.27327 -0.00595931 5.37979 0.0281169 5.47815C0.0621931 5.5765 0.126047 5.6618 0.210813 5.72222C0.295579 5.78263 0.397052 5.81515 0.501142 5.81526H11.5263C11.6304 5.81515 11.7318 5.78263 11.8166 5.72222C11.9014 5.6618 11.9652 5.5765 11.9993 5.47814C12.0334 5.37979 12.036 5.27327 12.0067 5.17336C11.9775 5.07346 11.9179 4.98513 11.8362 4.92064L7.15106 1.22864C6.81858 0.966686 6.41606 0.835815 6.0137 0.835815ZM6.0137 1.83549C6.19584 1.83549 6.37788 1.89599 6.53051 2.01624L10.0809 4.81298H1.94649L5.4969 2.01624C5.64953 1.89599 5.83156 1.83549 6.0137 1.83549ZM6.0137 2.80841C5.83649 2.80841 5.66653 2.87881 5.54122 3.00412C5.41591 3.12943 5.34551 3.29938 5.34551 3.4766C5.34551 3.65381 5.41591 3.82377 5.54122 3.94908C5.66653 4.07439 5.83649 4.14479 6.0137 4.14479C6.19092 4.14479 6.36087 4.07439 6.48618 3.94908C6.61149 3.82377 6.68189 3.65381 6.68189 3.4766C6.68189 3.29938 6.61149 3.12943 6.48618 3.00412C6.36087 2.87881 6.19092 2.80841 6.0137 2.80841ZM1.16933 6.48345V10.8671C0.501282 11.0199 0 11.6166 0 12.3301C0 13.1587 0.674871 13.8335 1.50343 13.8335H5.01142V12.8312H1.50343C1.22613 12.8312 1.00228 12.6074 1.00228 12.3301C1.00228 12.0528 1.22613 11.829 1.50343 11.829H5.01142V10.8267H4.34323V6.48345H3.34095V10.8267H2.17161V6.48345H1.16933ZM5.51256 6.48345V9.03614C5.69965 8.89916 5.93352 8.82211 6.18075 8.82211H6.51484V6.48345H5.51256ZM7.68418 6.48345V8.82211H8.68646V6.48345H7.68418ZM9.85579 6.48345V8.82211H10.8581V6.48345H9.85579ZM6.51484 9.4903C6.05928 9.4903 5.67961 9.86997 5.67961 10.3255V14.0006C5.67961 14.4561 6.05928 14.8358 6.51484 14.8358H12.5285C12.9841 14.8358 13.3638 14.4561 13.3638 14.0006V10.3255C13.3638 9.86997 12.9841 9.4903 12.5285 9.4903H6.51484ZM6.68189 10.4926H12.3615V11.1608H6.68189V10.4926ZM6.68189 12.1631H12.3615V13.8335H6.68189V12.1631Z" fill="black"/>
</svg>
