<svg width="14" height="16" viewBox="0 0 14 16" fill="none" xmlns="http://www.w3.org/2000/svg">
<path d="M10.6809 0.836131C10.5265 0.838543 10.3793 0.902137 10.2718 1.01295C10.1643 1.12376 10.1051 1.27272 10.1073 1.42711V9.73119L8.38293 8.0068C8.32925 7.95089 8.26494 7.90625 8.19379 7.87549C8.12263 7.84474 8.04605 7.82849 7.96854 7.8277C7.89103 7.82692 7.81413 7.8416 7.74237 7.8709C7.6706 7.9002 7.6054 7.94353 7.55059 7.99834C7.49577 8.05315 7.45245 8.11835 7.42315 8.19012C7.39385 8.26189 7.37916 8.33878 7.37995 8.41629C7.38074 8.49381 7.39699 8.57038 7.42774 8.64154C7.45849 8.7127 7.50313 8.777 7.55905 8.83069L10.278 11.5497C10.3873 11.6589 10.5355 11.7202 10.69 11.7202C10.8445 11.7202 10.9926 11.6589 11.1019 11.5497L13.8209 8.83069C13.8768 8.777 13.9214 8.7127 13.9522 8.64154C13.9829 8.57038 13.9992 8.49381 14 8.41629C14.0008 8.33878 13.9861 8.26189 13.9568 8.19012C13.9275 8.11835 13.8841 8.05315 13.8293 7.99834C13.7745 7.94353 13.7093 7.9002 13.6376 7.8709C13.5658 7.8416 13.4889 7.82692 13.4114 7.8277C13.3339 7.82849 13.2573 7.84474 13.1861 7.87549C13.115 7.90625 13.0507 7.95089 12.997 8.0068L11.2726 9.73119V1.42711C11.2737 1.34913 11.2592 1.27172 11.2298 1.19946C11.2005 1.1272 11.1569 1.06157 11.1017 1.00646C11.0465 0.951351 10.9809 0.907877 10.9086 0.878619C10.8363 0.84936 10.7588 0.834912 10.6809 0.836131ZM0.590934 1.2329C0.513728 1.23181 0.437075 1.24607 0.365429 1.27486C0.293783 1.30365 0.228574 1.34639 0.173591 1.40061C0.118608 1.45482 0.0749472 1.51942 0.0451467 1.59065C0.0153462 1.66188 0 1.73832 0 1.81554C0 1.89275 0.0153462 1.96919 0.0451467 2.04043C0.0749472 2.11166 0.118608 2.17626 0.173591 2.23047C0.228574 2.28468 0.293783 2.32742 0.365429 2.35621C0.437075 2.385 0.513728 2.39926 0.590934 2.39817H1.75621C1.83341 2.39926 1.91007 2.385 1.98171 2.35621C2.05336 2.32742 2.11857 2.28468 2.17355 2.23047C2.22853 2.17626 2.27219 2.11166 2.30199 2.04043C2.33179 1.96919 2.34714 1.89275 2.34714 1.81554C2.34714 1.73832 2.33179 1.66188 2.30199 1.59065C2.27219 1.51942 2.22853 1.45482 2.17355 1.40061C2.11857 1.34639 2.05336 1.30365 1.98171 1.27486C1.91007 1.24607 1.83341 1.23181 1.75621 1.2329H0.590934ZM0.590934 4.34029C0.513728 4.3392 0.437075 4.35346 0.365429 4.38225C0.293783 4.41104 0.228574 4.45379 0.173591 4.508C0.118608 4.56221 0.0749472 4.62681 0.0451467 4.69804C0.0153462 4.76927 0 4.84572 0 4.92293C0 5.00014 0.0153462 5.07659 0.0451467 5.14782C0.0749472 5.21905 0.118608 5.28365 0.173591 5.33786C0.228574 5.39207 0.293783 5.43481 0.365429 5.4636C0.437075 5.49239 0.513728 5.50666 0.590934 5.50556H3.3099C3.38711 5.50666 3.46376 5.49239 3.53541 5.4636C3.60705 5.43481 3.67226 5.39207 3.72725 5.33786C3.78223 5.28365 3.82589 5.21905 3.85569 5.14782C3.88549 5.07659 3.90084 5.00014 3.90084 4.92293C3.90084 4.84572 3.88549 4.76927 3.85569 4.69804C3.82589 4.62681 3.78223 4.56221 3.72725 4.508C3.67226 4.45379 3.60705 4.41104 3.53541 4.38225C3.46376 4.35346 3.38711 4.3392 3.3099 4.34029H0.590934ZM0.590934 7.44769C0.513728 7.44659 0.437075 7.46086 0.365429 7.48965C0.293783 7.51844 0.228574 7.56118 0.173591 7.61539C0.118608 7.6696 0.0749472 7.7342 0.0451467 7.80543C0.0153462 7.87666 0 7.95311 0 8.03032C0 8.10754 0.0153462 8.18398 0.0451467 8.25521C0.0749472 8.32644 0.118608 8.39104 0.173591 8.44525C0.228574 8.49946 0.293783 8.54221 0.365429 8.571C0.437075 8.59979 0.513728 8.61405 0.590934 8.61296H4.8636C4.94081 8.61405 5.01746 8.59979 5.0891 8.571C5.16075 8.54221 5.22596 8.49946 5.28094 8.44525C5.33593 8.39104 5.37959 8.32644 5.40939 8.25521C5.43919 8.18398 5.45453 8.10754 5.45453 8.03032C5.45453 7.95311 5.43919 7.87666 5.40939 7.80543C5.37959 7.7342 5.33593 7.6696 5.28094 7.61539C5.22596 7.56118 5.16075 7.51844 5.0891 7.48965C5.01746 7.46086 4.94081 7.44659 4.8636 7.44769H0.590934ZM0.590934 10.5551C0.513728 10.554 0.437075 10.5683 0.365429 10.597C0.293783 10.6258 0.228574 10.6686 0.173591 10.7228C0.118608 10.777 0.0749472 10.8416 0.0451467 10.9128C0.0153462 10.9841 0 11.0605 0 11.1377C0 11.2149 0.0153462 11.2914 0.0451467 11.3626C0.0749472 11.4338 0.118608 11.4984 0.173591 11.5526C0.228574 11.6069 0.293783 11.6496 0.365429 11.6784C0.437075 11.7072 0.513728 11.7214 0.590934 11.7204H6.4173C6.4945 11.7214 6.57116 11.7072 6.6428 11.6784C6.71445 11.6496 6.77966 11.6069 6.83464 11.5526C6.88962 11.4984 6.93328 11.4338 6.96308 11.3626C6.99288 11.2914 7.00823 11.2149 7.00823 11.1377C7.00823 11.0605 6.99288 10.9841 6.96308 10.9128C6.93328 10.8416 6.88962 10.777 6.83464 10.7228C6.77966 10.6686 6.71445 10.6258 6.6428 10.597C6.57116 10.5683 6.4945 10.554 6.4173 10.5551H0.590934ZM0.590934 13.6625C0.513728 13.6614 0.437075 13.6756 0.365429 13.7044C0.293783 13.7332 0.228574 13.776 0.173591 13.8302C0.118608 13.8844 0.0749472 13.949 0.0451467 14.0202C0.0153462 14.0914 0 14.1679 0 14.2451C0 14.3223 0.0153462 14.3988 0.0451467 14.47C0.0749472 14.5412 0.118608 14.6058 0.173591 14.66C0.228574 14.7142 0.293783 14.757 0.365429 14.7858C0.437075 14.8146 0.513728 14.8288 0.590934 14.8277H7.97099C8.0482 14.8288 8.12485 14.8146 8.1965 14.7858C8.26814 14.757 8.33335 14.7142 8.38834 14.66C8.44332 14.6058 8.48698 14.5412 8.51678 14.47C8.54658 14.3988 8.56193 14.3223 8.56193 14.2451C8.56193 14.1679 8.54658 14.0914 8.51678 14.0202C8.48698 13.949 8.44332 13.8844 8.38834 13.8302C8.33335 13.776 8.26814 13.7332 8.1965 13.7044C8.12485 13.6756 8.0482 13.6614 7.97099 13.6625H0.590934Z" fill="black"/>
</svg>
