<svg width="14" height="16" viewBox="0 0 14 16" fill="none" xmlns="http://www.w3.org/2000/svg">
<path d="M10.6809 0.773604C10.5265 0.776016 10.3793 0.839611 10.2718 0.95042C10.1643 1.06123 10.1051 1.21019 10.1073 1.36459V9.66867L8.38293 7.94428C8.32925 7.88836 8.26494 7.84372 8.19379 7.81297C8.12263 7.78221 8.04605 7.76597 7.96854 7.76518C7.89103 7.76439 7.81413 7.77908 7.74237 7.80838C7.6706 7.83768 7.6054 7.881 7.55059 7.93581C7.49577 7.99063 7.45245 8.05583 7.42315 8.12759C7.39385 8.19936 7.37916 8.27625 7.37995 8.35377C7.38074 8.43128 7.39699 8.50786 7.42774 8.57901C7.45849 8.65017 7.50313 8.71447 7.55905 8.76816L10.278 11.4871C10.3873 11.5964 10.5355 11.6577 10.69 11.6577C10.8445 11.6577 10.9926 11.5964 11.1019 11.4871L13.8209 8.76816C13.8768 8.71447 13.9214 8.65017 13.9522 8.57901C13.9829 8.50786 13.9992 8.43128 14 8.35377C14.0008 8.27625 13.9861 8.19936 13.9568 8.12759C13.9275 8.05583 13.8841 7.99063 13.8293 7.93581C13.7745 7.881 13.7093 7.83768 13.6376 7.80838C13.5658 7.77908 13.4889 7.76439 13.4114 7.76518C13.3339 7.76597 13.2573 7.78221 13.1861 7.81297C13.115 7.84372 13.0507 7.88836 12.997 7.94428L11.2726 9.66867V1.36459C11.2737 1.2866 11.2592 1.20919 11.2298 1.13693C11.2005 1.06468 11.1569 0.999048 11.1017 0.943936C11.0465 0.888824 10.9809 0.84535 10.9086 0.816092C10.8363 0.786833 10.7588 0.772385 10.6809 0.773604ZM0.590934 1.17037C0.513728 1.16928 0.437075 1.18354 0.365429 1.21234C0.293783 1.24113 0.228574 1.28387 0.173591 1.33808C0.118608 1.39229 0.0749472 1.45689 0.0451467 1.52812C0.0153462 1.59935 0 1.6758 0 1.75301C0 1.83022 0.0153462 1.90667 0.0451467 1.9779C0.0749472 2.04913 0.118608 2.11373 0.173591 2.16794C0.228574 2.22215 0.293783 2.26489 0.365429 2.29368C0.437075 2.32247 0.513728 2.33674 0.590934 2.33565H1.75621C1.83341 2.33674 1.91007 2.32247 1.98171 2.29368C2.05336 2.26489 2.11857 2.22215 2.17355 2.16794C2.22853 2.11373 2.27219 2.04913 2.30199 1.9779C2.33179 1.90667 2.34714 1.83022 2.34714 1.75301C2.34714 1.6758 2.33179 1.59935 2.30199 1.52812C2.27219 1.45689 2.22853 1.39229 2.17355 1.33808C2.11857 1.28387 2.05336 1.24113 1.98171 1.21234C1.91007 1.18354 1.83341 1.16928 1.75621 1.17037H0.590934ZM0.590934 4.27777C0.513728 4.27667 0.437075 4.29094 0.365429 4.31973C0.293783 4.34852 0.228574 4.39126 0.173591 4.44547C0.118608 4.49968 0.0749472 4.56428 0.0451467 4.63551C0.0153462 4.70674 0 4.78319 0 4.8604C0 4.93762 0.0153462 5.01406 0.0451467 5.08529C0.0749472 5.15652 0.118608 5.22112 0.173591 5.27533C0.228574 5.32954 0.293783 5.37229 0.365429 5.40108C0.437075 5.42987 0.513728 5.44413 0.590934 5.44304H3.3099C3.38711 5.44413 3.46376 5.42987 3.53541 5.40108C3.60705 5.37229 3.67226 5.32954 3.72725 5.27533C3.78223 5.22112 3.82589 5.15652 3.85569 5.08529C3.88549 5.01406 3.90084 4.93762 3.90084 4.8604C3.90084 4.78319 3.88549 4.70674 3.85569 4.63551C3.82589 4.56428 3.78223 4.49968 3.72725 4.44547C3.67226 4.39126 3.60705 4.34852 3.53541 4.31973C3.46376 4.29094 3.38711 4.27667 3.3099 4.27777H0.590934ZM0.590934 7.38516C0.513728 7.38407 0.437075 7.39833 0.365429 7.42712C0.293783 7.45591 0.228574 7.49865 0.173591 7.55287C0.118608 7.60708 0.0749472 7.67167 0.0451467 7.74291C0.0153462 7.81414 0 7.89058 0 7.96779C0 8.04501 0.0153462 8.12145 0.0451467 8.19268C0.0749472 8.26392 0.118608 8.32851 0.173591 8.38272C0.228574 8.43694 0.293783 8.47968 0.365429 8.50847C0.437075 8.53726 0.513728 8.55152 0.590934 8.55043H4.8636C4.94081 8.55152 5.01746 8.53726 5.0891 8.50847C5.16075 8.47968 5.22596 8.43694 5.28094 8.38272C5.33593 8.32851 5.37959 8.26392 5.40939 8.19268C5.43919 8.12145 5.45453 8.04501 5.45453 7.96779C5.45453 7.89058 5.43919 7.81414 5.40939 7.74291C5.37959 7.67167 5.33593 7.60708 5.28094 7.55287C5.22596 7.49865 5.16075 7.45591 5.0891 7.42712C5.01746 7.39833 4.94081 7.38407 4.8636 7.38516H0.590934ZM0.590934 10.4926C0.513728 10.4915 0.437075 10.5057 0.365429 10.5345C0.293783 10.5633 0.228574 10.606 0.173591 10.6603C0.118608 10.7145 0.0749472 10.7791 0.0451467 10.8503C0.0153462 10.9215 0 10.998 0 11.0752C0 11.1524 0.0153462 11.2288 0.0451467 11.3001C0.0749472 11.3713 0.118608 11.4359 0.173591 11.4901C0.228574 11.5443 0.293783 11.5871 0.365429 11.6159C0.437075 11.6447 0.513728 11.6589 0.590934 11.6578H6.4173C6.4945 11.6589 6.57115 11.6447 6.6428 11.6159C6.71445 11.5871 6.77966 11.5443 6.83464 11.4901C6.88962 11.4359 6.93328 11.3713 6.96308 11.3001C6.99288 11.2288 7.00823 11.1524 7.00823 11.0752C7.00823 10.998 6.99288 10.9215 6.96308 10.8503C6.93328 10.7791 6.88962 10.7145 6.83464 10.6603C6.77966 10.606 6.71445 10.5633 6.6428 10.5345C6.57115 10.5057 6.4945 10.4915 6.4173 10.4926H0.590934ZM0.590934 13.5999C0.513728 13.5989 0.437075 13.6131 0.365429 13.6419C0.293783 13.6707 0.228574 13.7134 0.173591 13.7676C0.118608 13.8219 0.0749472 13.8865 0.0451467 13.9577C0.0153462 14.0289 0 14.1054 0 14.1826C0 14.2598 0.0153462 14.3362 0.0451467 14.4075C0.0749472 14.4787 0.118608 14.5433 0.173591 14.5975C0.228574 14.6517 0.293783 14.6945 0.365429 14.7233C0.437075 14.752 0.513728 14.7663 0.590934 14.7652H7.97099C8.0482 14.7663 8.12485 14.752 8.1965 14.7233C8.26814 14.6945 8.33335 14.6517 8.38834 14.5975C8.44332 14.5433 8.48698 14.4787 8.51678 14.4075C8.54658 14.3362 8.56193 14.2598 8.56193 14.1826C8.56193 14.1054 8.54658 14.0289 8.51678 13.9577C8.48698 13.8865 8.44332 13.8219 8.38834 13.7676C8.33335 13.7134 8.26814 13.6707 8.1965 13.6419C8.12485 13.6131 8.0482 13.5989 7.97099 13.5999H0.590934Z" fill="black"/>
</svg>
