<svg width="14" height="15" viewBox="0 0 14 15" fill="none" xmlns="http://www.w3.org/2000/svg">
<g clip-path="url(#clip0_288_4106)">
<path d="M7 0.173553C3.1403 0.173553 0 3.31386 0 7.17355C0 11.0333 3.1403 14.1736 7 14.1736C7.86396 14.1736 8.694 14.0166 9.45957 13.7292C9.52489 13.7056 9.58486 13.6692 9.63601 13.6222C9.68716 13.5752 9.72848 13.5185 9.75756 13.4554C9.78665 13.3923 9.80293 13.3241 9.80546 13.2547C9.80799 13.1852 9.79671 13.116 9.77229 13.051C9.74787 12.9859 9.71078 12.9264 9.66319 12.8758C9.61559 12.8252 9.55842 12.7845 9.495 12.7562C9.43158 12.7279 9.36316 12.7124 9.29372 12.7107C9.22427 12.7089 9.15517 12.721 9.09043 12.7462C8.4406 12.9901 7.73694 13.1236 7 13.1236C3.7078 13.1236 1.05 10.4658 1.05 7.17355C1.05 3.88135 3.7078 1.22355 7 1.22355C10.2922 1.22355 12.95 3.88135 12.95 7.17355V8.04855C12.95 8.92478 12.2512 9.62355 11.375 9.62355C10.4988 9.62355 9.8 8.92478 9.8 8.04855V7.17355V4.19855C9.80098 4.12898 9.78813 4.05991 9.76219 3.99536C9.73625 3.9308 9.69773 3.87204 9.64888 3.82249C9.60004 3.77295 9.54183 3.73361 9.47764 3.70676C9.41346 3.6799 9.34458 3.66608 9.275 3.66608C9.20542 3.66608 9.13654 3.6799 9.07236 3.70676C9.00817 3.73361 8.94996 3.77295 8.90112 3.82249C8.85227 3.87204 8.81375 3.9308 8.78781 3.99536C8.76187 4.05991 8.74902 4.12898 8.75 4.19855V4.5718C8.19683 4.01808 7.46602 3.67355 6.65 3.67355C4.87973 3.67355 3.5 5.2819 3.5 7.17355C3.5 9.06521 4.87973 10.6736 6.65 10.6736C7.65533 10.6736 8.5339 10.1544 9.10615 9.35969C9.56182 10.1427 10.4087 10.6736 11.375 10.6736C12.8186 10.6736 14 9.49213 14 8.04855V7.17355C14 3.31386 10.8597 0.173553 7 0.173553ZM6.65 4.72355C7.77493 4.72355 8.75 5.78431 8.75 7.17355C8.75 8.5628 7.77493 9.62355 6.65 9.62355C5.52507 9.62355 4.55 8.5628 4.55 7.17355C4.55 5.78431 5.52507 4.72355 6.65 4.72355Z" fill="black"/>
</g>
<defs>
<clipPath id="clip0_288_4106">
<rect width="14" height="14" fill="white" transform="translate(0 0.173553)"/>
</clipPath>
</defs>
</svg>
