<svg width="14" height="15" viewBox="0 0 14 15" fill="none" xmlns="http://www.w3.org/2000/svg">
<path d="M10.087 0C9.08354 0 8.08018 0.380798 7.31767 1.14331L0.163511 8.29746C0.112471 8.34647 0.0717208 8.40517 0.0436488 8.47012C0.0155768 8.53507 0.000746882 8.60497 2.74919e-05 8.67573C-0.000691898 8.74648 0.0127138 8.81667 0.0394593 8.88218C0.0662049 8.94769 0.105753 9.0072 0.155787 9.05724C0.205821 9.10727 0.265335 9.14682 0.330844 9.17356C0.396354 9.20031 0.466541 9.21372 0.537296 9.213C0.608051 9.21228 0.677952 9.19745 0.742904 9.16938C0.807856 9.1413 0.866554 9.10055 0.91556 9.04951L8.06972 1.89536C9.18827 0.776799 10.9856 0.776799 12.1042 1.89536C13.2227 3.01391 13.2227 4.81127 12.1042 5.92983L5.35237 12.6816C4.77242 13.2616 3.84791 13.2616 3.26796 12.6816C2.68801 12.1017 2.68801 11.1772 3.26796 10.5972L8.71581 5.14939C8.76685 5.10038 8.8076 5.04168 8.83568 4.97673C8.86375 4.91178 8.87858 4.84188 8.8793 4.77112C8.88002 4.70037 8.86661 4.63018 8.83986 4.56467C8.81312 4.49916 8.77357 4.43965 8.72354 4.38961C8.6735 4.33958 8.61399 4.30003 8.54848 4.27329C8.48297 4.24654 8.41278 4.23314 8.34203 4.23385C8.27127 4.23457 8.20137 4.2494 8.13642 4.27748C8.07147 4.30555 8.01277 4.3463 7.96377 4.39734L2.51591 9.84519C1.52943 10.8317 1.52943 12.4472 2.51591 13.4337C3.5024 14.4202 5.11793 14.4202 6.10442 13.4337L12.8562 6.68188C14.3813 5.15686 14.3813 2.66833 12.8562 1.14331C12.0937 0.380798 11.0904 0 10.087 0Z" fill="black"/>
</svg>
