<svg width="14" height="15" viewBox="0 0 14 15" fill="none" xmlns="http://www.w3.org/2000/svg">
<g clip-path="url(#clip0_1830_10116)">
<path d="M0.477273 0.733551C0.350696 0.733564 0.229307 0.783214 0.139804 0.871582C0.0503007 0.95995 1.26558e-05 1.0798 0 1.20477V13.1423C1.26558e-05 13.2673 0.0503007 13.3872 0.139804 13.4755C0.229307 13.5639 0.350696 13.6135 0.477273 13.6136H2.38636C2.51294 13.6135 2.63433 13.5639 2.72383 13.4755C2.81334 13.3872 2.86362 13.2673 2.86364 13.1423V3.87501H4.22958C4.29987 4.07132 4.40185 4.25521 4.55398 4.40514C4.58657 4.43729 4.63116 4.45132 4.66646 4.47999C4.66509 4.51368 4.66738 4.54741 4.6733 4.58062L5.88201 11.7422C5.88385 11.8326 5.91201 11.9206 5.96315 11.9957C6.01428 12.0708 6.08621 12.1297 6.17037 12.1655C6.18218 12.1707 6.19421 12.1754 6.20641 12.1796C6.21217 12.1816 6.21797 12.1834 6.22381 12.1852C6.22958 12.1869 6.23538 12.1885 6.24121 12.1901C6.25251 12.1929 6.26391 12.1954 6.27539 12.1974C6.27622 12.1976 6.27705 12.1978 6.27788 12.1981C6.2787 12.1981 6.27953 12.1981 6.28036 12.1981C6.36756 12.2135 6.4574 12.2047 6.53983 12.1727C6.62226 12.1406 6.69401 12.0865 6.74707 12.0164L7.98686 10.7924L9.37704 12.1649C9.42045 12.2246 9.47739 12.2734 9.54332 12.3075C9.60925 12.3416 9.68233 12.36 9.75675 12.3613C9.83513 12.364 9.91299 12.3476 9.98345 12.3136C10.0539 12.2796 10.1148 12.2289 10.1607 12.1661L11.4253 10.9175L11.3017 11.6514C11.2914 11.7124 11.2934 11.7749 11.3075 11.8353C11.3217 11.8956 11.3478 11.9526 11.3842 12.0029C11.4207 12.0533 11.4669 12.0961 11.5201 12.1289C11.5733 12.1616 11.6325 12.1837 11.6944 12.1939C11.7563 12.204 11.8196 12.202 11.8807 12.188C11.9418 12.174 11.9995 12.1483 12.0505 12.1123C12.1015 12.0763 12.1448 12.0307 12.178 11.9781C12.2112 11.9256 12.2335 11.8671 12.2438 11.806L13.4631 4.58062C13.469 4.54721 13.4713 4.51327 13.4699 4.47938C13.5051 4.45073 13.5499 4.43725 13.5824 4.40514C13.8496 4.14131 14 3.78291 14 3.40932V3.39827C14 3.02508 13.8497 2.66651 13.5818 2.40245C13.3144 2.1387 12.9511 1.99014 12.5732 1.99014H5.56259C5.1846 1.99014 4.82093 2.13827 4.55336 2.40245C4.40163 2.55225 4.29991 2.73635 4.22958 2.93258H2.86364V1.20477C2.86362 1.0798 2.81334 0.95995 2.72383 0.871582C2.63433 0.783214 2.51294 0.733564 2.38636 0.733551H0.477273ZM0.954545 1.67599H1.90909V3.32649C1.90067 3.37707 1.90067 3.42868 1.90909 3.47926V12.6711H0.954545V1.67599ZM5.56259 2.93258H12.5732C12.699 2.93258 12.8179 2.98154 12.9069 3.0694H12.9075C12.9959 3.15656 13.0455 3.27449 13.0455 3.39827V3.40932C13.0455 3.5327 12.9954 3.6508 12.9069 3.73819C12.8181 3.82585 12.6985 3.87501 12.5732 3.87501H5.56259C5.43674 3.87501 5.31786 3.82605 5.22887 3.73819H5.22825C5.14392 3.65507 5.10087 3.54214 5.0965 3.42466C5.09733 3.41076 5.09754 3.39684 5.09712 3.38293C5.10156 3.26584 5.14452 3.15268 5.22887 3.0694C5.31766 2.98174 5.43721 2.93258 5.56259 2.93258ZM5.68066 4.81745H5.83292C5.84365 4.83031 5.85505 4.8426 5.8671 4.85427L7.27468 6.244L6.12935 7.47359L5.68066 4.81745ZM7.1796 4.81745H8.60458L7.92161 5.55005L7.1796 4.81745ZM11.1749 4.81745H12.4557L12.4085 5.09479C12.4021 5.10055 12.3959 5.10648 12.3898 5.11258L11.9318 5.56478L11.1749 4.81745ZM9.86488 4.85672L11.2569 6.23111L9.93448 7.53678L8.59712 6.217L9.86488 4.85672ZM11.9318 6.89745L12.0797 7.04347L11.7019 9.28238L10.6094 8.20312L11.9318 6.89745ZM7.9502 6.91094L9.25959 8.20312L7.98686 9.4597L6.73091 8.21907L7.9502 6.91094ZM9.93448 8.86945L11.0419 9.96283L9.76918 11.2194L8.66175 10.126L9.93448 8.86945ZM6.43013 9.25538L7.31197 10.126L6.68244 10.7476L6.43013 9.25538Z" fill="black"/>
</g>
<defs>
<clipPath id="clip0_1830_10116">
<rect width="14" height="14" fill="white" transform="translate(0 0.173553)"/>
</clipPath>
</defs>
</svg>
