<svg width="14" height="16" viewBox="0 0 14 16" fill="none" xmlns="http://www.w3.org/2000/svg">
<path d="M7.19688 0.84202C4.29507 0.978698 2.0716 3.47184 2.0716 6.35713V8.96605L1.12016 10.8801C1.11849 10.8836 1.11685 10.8871 1.11525 10.8907C0.732488 11.7046 1.3521 12.6821 2.25179 12.6821H5.30242C5.30242 13.8652 6.27315 14.8359 7.4563 14.8359C8.63945 14.8359 9.61018 13.8652 9.61018 12.6821H12.6601C13.5598 12.6821 14.1802 11.7049 13.7974 10.8907C13.7958 10.8871 13.7941 10.8836 13.7924 10.8801L12.841 8.96605V6.22041C12.841 3.16686 10.2791 0.696916 7.19688 0.84202ZM7.24736 1.91756C9.73153 1.80061 11.7641 3.76578 11.7641 6.22041V9.09225C11.764 9.17544 11.7832 9.25752 11.8202 9.33204L12.8228 11.3499C12.8873 11.4881 12.8127 11.6051 12.6601 11.6051H2.25179C2.09925 11.6051 2.02526 11.4883 2.08983 11.3499V11.3492L3.09245 9.33204C3.12942 9.25752 3.14861 9.17544 3.14854 9.09225V6.35713C3.14854 4.02357 4.93606 2.02642 7.24736 1.91756ZM6.37936 12.6821H8.53324C8.53324 13.283 8.05728 13.759 7.4563 13.759C6.85532 13.759 6.37936 13.283 6.37936 12.6821Z" fill="black"/>
</svg>
