<svg width="14" height="16" viewBox="0 0 14 16" fill="none" xmlns="http://www.w3.org/2000/svg">
<path d="M7.19688 0.779642C4.29507 0.91632 2.0716 3.40946 2.0716 6.29476V8.90367L1.12016 10.8178C1.11849 10.8213 1.11685 10.8248 1.11525 10.8283C0.732488 11.6423 1.3521 12.6197 2.25179 12.6197H5.30242C5.30242 13.8028 6.27315 14.7736 7.4563 14.7736C8.63945 14.7736 9.61018 13.8028 9.61018 12.6197H12.6601C13.5598 12.6197 14.1802 11.6425 13.7974 10.8283C13.7958 10.8248 13.7941 10.8213 13.7924 10.8178L12.841 8.90367V6.15803C12.841 3.10448 10.2791 0.634538 7.19688 0.779642ZM7.24736 1.85518C9.73153 1.73823 11.7641 3.7034 11.7641 6.15803V9.02988C11.764 9.11306 11.7832 9.19514 11.8202 9.26966L12.8228 11.2875C12.8873 11.4257 12.8127 11.5427 12.6601 11.5427H2.25179C2.09925 11.5427 2.02526 11.4259 2.08983 11.2875V11.2868L3.09245 9.26966C3.12942 9.19514 3.14861 9.11306 3.14854 9.02988V6.29476C3.14854 3.96119 4.93606 1.96405 7.24736 1.85518ZM6.37936 12.6197H8.53324C8.53324 13.2207 8.05728 13.6966 7.4563 13.6966C6.85532 13.6966 6.37936 13.2207 6.37936 12.6197Z" fill="black"/>
</svg>
