<svg width="14" height="15" viewBox="0 0 14 15" fill="none" xmlns="http://www.w3.org/2000/svg">
<g clip-path="url(#clip0_968_10058)">
<path d="M0.516847 1.9859C0.377729 1.98808 0.245161 2.04538 0.148263 2.14523C0.0513641 2.24507 -0.00194161 2.3793 5.40836e-05 2.51842V11.9683C-0.000929784 12.0379 0.0119227 12.107 0.0378647 12.1715C0.0638067 12.2361 0.102321 12.2949 0.151169 12.3444C0.200017 12.3939 0.258224 12.4333 0.322409 12.4601C0.386593 12.487 0.455475 12.5008 0.52505 12.5008C0.594625 12.5008 0.663507 12.487 0.727691 12.4601C0.791876 12.4333 0.850083 12.3939 0.898931 12.3444C0.947779 12.2949 0.986293 12.2361 1.01224 12.1715C1.03818 12.107 1.05103 12.0379 1.05005 11.9683V2.51842C1.05105 2.44815 1.03795 2.3784 1.0115 2.31329C0.985051 2.24818 0.945802 2.18904 0.896079 2.13938C0.846355 2.08973 0.787168 2.05055 0.722026 2.02419C0.656884 1.99782 0.587113 1.98481 0.516847 1.9859ZM13.4667 1.9859C13.3276 1.98808 13.1951 2.04538 13.0982 2.14523C13.0013 2.24507 12.948 2.3793 12.95 2.51842V11.9683C12.949 12.0379 12.9618 12.107 12.9878 12.1715C13.0137 12.2361 13.0522 12.2949 13.1011 12.3444C13.1499 12.3939 13.2081 12.4333 13.2723 12.4601C13.3365 12.487 13.4054 12.5008 13.4749 12.5008C13.5445 12.5008 13.6134 12.487 13.6776 12.4601C13.7418 12.4333 13.8 12.3939 13.8488 12.3444C13.8977 12.2949 13.9362 12.2361 13.9621 12.1715C13.9881 12.107 14.0009 12.0379 13.9999 11.9683V2.51842C14.001 2.44815 13.9878 2.3784 13.9614 2.31329C13.935 2.24818 13.8957 2.18904 13.846 2.13938C13.7963 2.08973 13.7371 2.05055 13.6719 2.02419C13.6068 1.99782 13.537 1.98481 13.4667 1.9859ZM2.62503 1.99342C2.4858 1.99342 2.35226 2.04874 2.25381 2.14719C2.15535 2.24565 2.10004 2.37918 2.10004 2.51842C2.10004 2.65766 2.15535 2.79119 2.25381 2.88965C2.35226 2.9881 2.4858 3.04342 2.62503 3.04342C2.76427 3.04342 2.89781 2.9881 2.99626 2.88965C3.09472 2.79119 3.15003 2.65766 3.15003 2.51842C3.15003 2.37918 3.09472 2.24565 2.99626 2.14719C2.89781 2.04874 2.76427 1.99342 2.62503 1.99342ZM4.37502 1.99342C4.23578 1.99342 4.10225 2.04874 4.00379 2.14719C3.90534 2.24565 3.85002 2.37918 3.85002 2.51842C3.85002 2.65766 3.90534 2.79119 4.00379 2.88965C4.10225 2.9881 4.23578 3.04342 4.37502 3.04342C4.51426 3.04342 4.64779 2.9881 4.74625 2.88965C4.8447 2.79119 4.90002 2.65766 4.90002 2.51842C4.90002 2.37918 4.8447 2.24565 4.74625 2.14719C4.64779 2.04874 4.51426 1.99342 4.37502 1.99342ZM6.12501 1.99342C5.98577 1.99342 5.85223 2.04874 5.75378 2.14719C5.65532 2.24565 5.60001 2.37918 5.60001 2.51842C5.60001 2.65766 5.65532 2.79119 5.75378 2.88965C5.85223 2.9881 5.98577 3.04342 6.12501 3.04342C6.26424 3.04342 6.39778 2.9881 6.49623 2.88965C6.59469 2.79119 6.65 2.65766 6.65 2.51842C6.65 2.37918 6.59469 2.24565 6.49623 2.14719C6.39778 2.04874 6.26424 1.99342 6.12501 1.99342ZM7.87499 1.99342C7.73576 1.99342 7.60222 2.04874 7.50377 2.14719C7.40531 2.24565 7.35 2.37918 7.35 2.51842C7.35 2.65766 7.40531 2.79119 7.50377 2.88965C7.60222 2.9881 7.73576 3.04342 7.87499 3.04342C8.01423 3.04342 8.14777 2.9881 8.24622 2.88965C8.34468 2.79119 8.39999 2.65766 8.39999 2.51842C8.39999 2.37918 8.34468 2.24565 8.24622 2.14719C8.14777 2.04874 8.01423 1.99342 7.87499 1.99342ZM9.62498 1.99342C9.48574 1.99342 9.35221 2.04874 9.25375 2.14719C9.1553 2.24565 9.09998 2.37918 9.09998 2.51842C9.09998 2.65766 9.1553 2.79119 9.25375 2.88965C9.35221 2.9881 9.48574 3.04342 9.62498 3.04342C9.76422 3.04342 9.89775 2.9881 9.99621 2.88965C10.0947 2.79119 10.15 2.65766 10.15 2.51842C10.15 2.37918 10.0947 2.24565 9.99621 2.14719C9.89775 2.04874 9.76422 1.99342 9.62498 1.99342ZM11.375 1.99342C11.2357 1.99342 11.1022 2.04874 11.0037 2.14719C10.9053 2.24565 10.85 2.37918 10.85 2.51842C10.85 2.65766 10.9053 2.79119 11.0037 2.88965C11.1022 2.9881 11.2357 3.04342 11.375 3.04342C11.5142 3.04342 11.6477 2.9881 11.7462 2.88965C11.8447 2.79119 11.9 2.65766 11.9 2.51842C11.9 2.37918 11.8447 2.24565 11.7462 2.14719C11.6477 2.04874 11.5142 1.99342 11.375 1.99342ZM4.19524 4.78588C4.05659 4.78916 3.92487 4.84715 3.82883 4.94721L1.90385 6.87219C1.80543 6.97065 1.75014 7.10417 1.75014 7.24338C1.75014 7.3826 1.80543 7.51611 1.90385 7.61457L3.82883 9.53956C3.87721 9.58994 3.93515 9.63017 3.99927 9.65788C4.06339 9.68559 4.13239 9.70023 4.20223 9.70094C4.27208 9.70165 4.34136 9.68841 4.40603 9.66201C4.4707 9.63561 4.52944 9.59657 4.57884 9.54718C4.62823 9.49779 4.66726 9.43904 4.69367 9.37438C4.72007 9.30971 4.7333 9.24042 4.73259 9.17058C4.73188 9.10073 4.71724 9.03173 4.68953 8.96762C4.66182 8.9035 4.62159 8.84556 4.57121 8.79718L3.54241 7.76838H10.4576L9.42879 8.79718C9.3784 8.84556 9.33818 8.9035 9.31047 8.96762C9.28276 9.03173 9.26812 9.10073 9.26741 9.17058C9.2667 9.24042 9.27993 9.30971 9.30633 9.37438C9.33274 9.43904 9.37177 9.49779 9.42116 9.54718C9.47056 9.59657 9.5293 9.63561 9.59397 9.66201C9.65864 9.68841 9.72792 9.70165 9.79777 9.70094C9.86761 9.70023 9.93661 9.68559 10.0007 9.65788C10.0648 9.63017 10.1228 9.58994 10.1712 9.53956L12.0962 7.61457C12.1946 7.51611 12.2499 7.3826 12.2499 7.24338C12.2499 7.10417 12.1946 6.97065 12.0962 6.87219L10.1712 4.94721C10.1222 4.89681 10.0637 4.85675 9.99898 4.82939C9.93428 4.80203 9.86475 4.78794 9.79451 4.78793C9.69003 4.78796 9.58793 4.81916 9.50128 4.87753C9.41463 4.93591 9.34736 5.01881 9.30809 5.11563C9.26882 5.21245 9.25933 5.31879 9.28083 5.42103C9.30233 5.52328 9.35385 5.61678 9.42879 5.68959L10.4576 6.71839H3.54241L4.57121 5.68959C4.64755 5.61631 4.69998 5.52168 4.7216 5.41809C4.74323 5.31451 4.73305 5.2068 4.69241 5.1091C4.65176 5.0114 4.58254 4.92826 4.49382 4.87059C4.4051 4.81291 4.30103 4.78338 4.19524 4.78588ZM2.62503 11.4434C2.4858 11.4434 2.35226 11.4987 2.25381 11.5971C2.15535 11.6956 2.10004 11.8291 2.10004 11.9683C2.10004 12.1076 2.15535 12.2411 2.25381 12.3396C2.35226 12.438 2.4858 12.4933 2.62503 12.4933C2.76427 12.4933 2.89781 12.438 2.99626 12.3396C3.09472 12.2411 3.15003 12.1076 3.15003 11.9683C3.15003 11.8291 3.09472 11.6956 2.99626 11.5971C2.89781 11.4987 2.76427 11.4434 2.62503 11.4434ZM4.37502 11.4434C4.23578 11.4434 4.10225 11.4987 4.00379 11.5971C3.90534 11.6956 3.85002 11.8291 3.85002 11.9683C3.85002 12.1076 3.90534 12.2411 4.00379 12.3396C4.10225 12.438 4.23578 12.4933 4.37502 12.4933C4.51426 12.4933 4.64779 12.438 4.74625 12.3396C4.8447 12.2411 4.90002 12.1076 4.90002 11.9683C4.90002 11.8291 4.8447 11.6956 4.74625 11.5971C4.64779 11.4987 4.51426 11.4434 4.37502 11.4434ZM6.12501 11.4434C5.98577 11.4434 5.85223 11.4987 5.75378 11.5971C5.65532 11.6956 5.60001 11.8291 5.60001 11.9683C5.60001 12.1076 5.65532 12.2411 5.75378 12.3396C5.85223 12.438 5.98577 12.4933 6.12501 12.4933C6.26424 12.4933 6.39778 12.438 6.49623 12.3396C6.59469 12.2411 6.65 12.1076 6.65 11.9683C6.65 11.8291 6.59469 11.6956 6.49623 11.5971C6.39778 11.4987 6.26424 11.4434 6.12501 11.4434ZM7.87499 11.4434C7.73576 11.4434 7.60222 11.4987 7.50377 11.5971C7.40531 11.6956 7.35 11.8291 7.35 11.9683C7.35 12.1076 7.40531 12.2411 7.50377 12.3396C7.60222 12.438 7.73576 12.4933 7.87499 12.4933C8.01423 12.4933 8.14777 12.438 8.24622 12.3396C8.34468 12.2411 8.39999 12.1076 8.39999 11.9683C8.39999 11.8291 8.34468 11.6956 8.24622 11.5971C8.14777 11.4987 8.01423 11.4434 7.87499 11.4434ZM9.62498 11.4434C9.48574 11.4434 9.35221 11.4987 9.25375 11.5971C9.1553 11.6956 9.09998 11.8291 9.09998 11.9683C9.09998 12.1076 9.1553 12.2411 9.25375 12.3396C9.35221 12.438 9.48574 12.4933 9.62498 12.4933C9.76422 12.4933 9.89775 12.438 9.99621 12.3396C10.0947 12.2411 10.15 12.1076 10.15 11.9683C10.15 11.8291 10.0947 11.6956 9.99621 11.5971C9.89775 11.4987 9.76422 11.4434 9.62498 11.4434ZM11.375 11.4434C11.2357 11.4434 11.1022 11.4987 11.0037 11.5971C10.9053 11.6956 10.85 11.8291 10.85 11.9683C10.85 12.1076 10.9053 12.2411 11.0037 12.3396C11.1022 12.438 11.2357 12.4933 11.375 12.4933C11.5142 12.4933 11.6477 12.438 11.7462 12.3396C11.8447 12.2411 11.9 12.1076 11.9 11.9683C11.9 11.8291 11.8447 11.6956 11.7462 11.5971C11.6477 11.4987 11.5142 11.4434 11.375 11.4434Z" fill="black"/>
</g>
<defs>
<clipPath id="clip0_968_10058">
<rect width="14" height="14" fill="white" transform="translate(0 0.23584)"/>
</clipPath>
</defs>
</svg>
