<svg width="14" height="15" viewBox="0 0 14 15" fill="none" xmlns="http://www.w3.org/2000/svg">
<g clip-path="url(#clip0_285_4106)">
<path d="M2.76511 0.173661C2.57685 0.171233 2.39034 0.21006 2.21868 0.287413C2.04702 0.364767 1.89438 0.47877 1.77149 0.621414C1.6486 0.764058 1.55843 0.931881 1.50732 1.11309C1.45621 1.29431 1.44541 1.48451 1.47566 1.67035V12.6732C1.44482 12.8593 1.45519 13.0499 1.50603 13.2315C1.55687 13.4132 1.64694 13.5815 1.7699 13.7245C1.89286 13.8676 2.0457 13.9819 2.21766 14.0595C2.38961 14.1371 2.57649 14.176 2.76511 14.1734H8.29134C10.616 14.1734 12.5281 12.2613 12.5281 9.93666C12.5281 8.49111 11.7431 7.26814 10.6249 6.5022C11.0892 5.84319 11.4229 5.08601 11.4229 4.22623C11.4229 2.00333 9.5932 0.173661 7.37031 0.173661H2.76511ZM4.05457 2.75257H7.37031C8.19936 2.75257 8.84397 3.39718 8.84397 4.22623C8.84397 5.05528 8.19936 5.69989 7.37031 5.69989H4.23878C4.17716 5.69956 4.1156 5.70365 4.05457 5.71212V2.75257ZM4.05457 8.26656C4.08585 8.27108 4.1173 8.27444 4.14883 8.27664C4.17878 8.2784 4.20878 8.27912 4.23878 8.2788H7.37031H8.29134C9.22203 8.2788 9.94921 9.00598 9.94921 9.93666C9.94921 10.8674 9.22203 11.5945 8.29134 11.5945H4.05457V8.26656Z" fill="black"/>
</g>
<defs>
<clipPath id="clip0_285_4106">
<rect width="14" height="14" fill="white" transform="translate(0 0.173553)"/>
</clipPath>
</defs>
</svg>
