<svg width="14" height="15" viewBox="0 0 14 15" fill="none" xmlns="http://www.w3.org/2000/svg">
<path d="M2.275 0.686754C2.13577 0.686768 2.00224 0.742085 1.90378 0.840539C1.80533 0.938992 1.75001 1.07252 1.75 1.21175V1.73675H0.525C0.385766 1.73677 0.252238 1.79208 0.153784 1.89054C0.0553308 1.98899 1.39214e-05 2.12252 0 2.26175V13.1118C1.39214e-05 13.251 0.0553308 13.3845 0.153784 13.483C0.252238 13.5814 0.385766 13.6367 0.525 13.6368H13.475C13.6142 13.6367 13.7478 13.5814 13.8462 13.483C13.9447 13.3845 14 13.251 14 13.1118V2.26175C14 2.12252 13.9447 1.98899 13.8462 1.89054C13.7478 1.79208 13.6142 1.73677 13.475 1.73675H12.25V1.21175C12.25 1.07252 12.1947 0.938992 12.0962 0.840539C11.9978 0.742085 11.8642 0.686768 11.725 0.686754H9.1C8.22069 0.686754 7.47702 1.15328 7 1.8222C6.52297 1.15328 5.77931 0.686754 4.9 0.686754H2.275ZM2.8 1.73675H4.9C5.77622 1.73675 6.475 2.43553 6.475 3.31175V11.372C6.03469 11.0398 5.49119 10.8368 4.9 10.8368H2.8V2.34789C2.80926 2.29153 2.80926 2.23403 2.8 2.17767V1.73675ZM9.1 1.73675H11.2V2.17562C11.1907 2.23198 11.1907 2.28948 11.2 2.34584V10.8368H9.1C8.50881 10.8368 7.96531 11.0398 7.525 11.372V3.31175C7.525 2.43553 8.22377 1.73675 9.1 1.73675ZM1.05 2.78675H1.75V11.3618C1.75001 11.501 1.80533 11.6345 1.90378 11.733C2.00224 11.8314 2.13577 11.8867 2.275 11.8868H4.9C5.44968 11.8868 5.92786 12.1656 6.20908 12.5868H1.05V2.78675ZM12.25 2.78675H12.95V12.5868H7.79092C8.07214 12.1656 8.55032 11.8868 9.1 11.8868H11.725C11.8642 11.8867 11.9978 11.8314 12.0962 11.733C12.1947 11.6345 12.25 11.501 12.25 11.3618V2.78675ZM4.025 3.13675C3.95543 3.13577 3.88636 3.14862 3.8218 3.17457C3.75724 3.20051 3.69849 3.23902 3.64894 3.28787C3.5994 3.33672 3.56006 3.39493 3.5332 3.45911C3.50635 3.5233 3.49252 3.59218 3.49252 3.66175C3.49252 3.73133 3.50635 3.80021 3.5332 3.8644C3.56006 3.92858 3.5994 3.98679 3.64894 4.03564C3.69849 4.08449 3.75724 4.123 3.8218 4.14894C3.88636 4.17489 3.95543 4.18774 4.025 4.18675H5.075C5.14457 4.18774 5.21364 4.17489 5.2782 4.14894C5.34276 4.123 5.40151 4.08449 5.45106 4.03564C5.5006 3.98679 5.53994 3.92858 5.5668 3.8644C5.59365 3.80021 5.60748 3.73133 5.60748 3.66175C5.60748 3.59218 5.59365 3.5233 5.5668 3.45911C5.53994 3.39493 5.5006 3.33672 5.45106 3.28787C5.40151 3.23902 5.34276 3.20051 5.2782 3.17457C5.21364 3.14862 5.14457 3.13577 5.075 3.13675H4.025ZM8.925 3.13675C8.85543 3.13577 8.78636 3.14862 8.7218 3.17457C8.65724 3.20051 8.59848 3.23902 8.54894 3.28787C8.4994 3.33672 8.46006 3.39493 8.4332 3.45911C8.40635 3.5233 8.39252 3.59218 8.39252 3.66175C8.39252 3.73133 8.40635 3.80021 8.4332 3.8644C8.46006 3.92858 8.4994 3.98679 8.54894 4.03564C8.59848 4.08449 8.65724 4.123 8.7218 4.14894C8.78636 4.17489 8.85543 4.18774 8.925 4.18675H9.975C10.0446 4.18774 10.1136 4.17489 10.1782 4.14894C10.2428 4.123 10.3015 4.08449 10.3511 4.03564C10.4006 3.98679 10.4399 3.92858 10.4668 3.8644C10.4936 3.80021 10.5075 3.73133 10.5075 3.66175C10.5075 3.59218 10.4936 3.5233 10.4668 3.45911C10.4399 3.39493 10.4006 3.33672 10.3511 3.28787C10.3015 3.23902 10.2428 3.20051 10.1782 3.17457C10.1136 3.14862 10.0446 3.13577 9.975 3.13675H8.925ZM4.025 4.88675C3.95543 4.88577 3.88636 4.89862 3.8218 4.92457C3.75724 4.95051 3.69849 4.98902 3.64894 5.03787C3.5994 5.08672 3.56006 5.14493 3.5332 5.20911C3.50635 5.2733 3.49252 5.34218 3.49252 5.41175C3.49252 5.48133 3.50635 5.55021 3.5332 5.6144C3.56006 5.67858 3.5994 5.73679 3.64894 5.78564C3.69849 5.83449 3.75724 5.873 3.8218 5.89894C3.88636 5.92489 3.95543 5.93774 4.025 5.93675H5.075C5.14457 5.93774 5.21364 5.92489 5.2782 5.89894C5.34276 5.873 5.40151 5.83449 5.45106 5.78564C5.5006 5.73679 5.53994 5.67858 5.5668 5.6144C5.59365 5.55021 5.60748 5.48133 5.60748 5.41175C5.60748 5.34218 5.59365 5.2733 5.5668 5.20911C5.53994 5.14493 5.5006 5.08672 5.45106 5.03787C5.40151 4.98902 5.34276 4.95051 5.2782 4.92457C5.21364 4.89862 5.14457 4.88577 5.075 4.88675H4.025ZM8.925 4.88675C8.85543 4.88577 8.78636 4.89862 8.7218 4.92457C8.65724 4.95051 8.59848 4.98902 8.54894 5.03787C8.4994 5.08672 8.46006 5.14493 8.4332 5.20911C8.40635 5.2733 8.39252 5.34218 8.39252 5.41175C8.39252 5.48133 8.40635 5.55021 8.4332 5.6144C8.46006 5.67858 8.4994 5.73679 8.54894 5.78564C8.59848 5.83449 8.65724 5.873 8.7218 5.89894C8.78636 5.92489 8.85543 5.93774 8.925 5.93675H9.975C10.0446 5.93774 10.1136 5.92489 10.1782 5.89894C10.2428 5.873 10.3015 5.83449 10.3511 5.78564C10.4006 5.73679 10.4399 5.67858 10.4668 5.6144C10.4936 5.55021 10.5075 5.48133 10.5075 5.41175C10.5075 5.34218 10.4936 5.2733 10.4668 5.20911C10.4399 5.14493 10.4006 5.08672 10.3511 5.03787C10.3015 4.98902 10.2428 4.95051 10.1782 4.92457C10.1136 4.89862 10.0446 4.88577 9.975 4.88675H8.925ZM4.025 6.63675C3.95543 6.63577 3.88636 6.64862 3.8218 6.67457C3.75724 6.70051 3.69849 6.73902 3.64894 6.78787C3.5994 6.83672 3.56006 6.89493 3.5332 6.95911C3.50635 7.0233 3.49252 7.09218 3.49252 7.16175C3.49252 7.23133 3.50635 7.30021 3.5332 7.3644C3.56006 7.42858 3.5994 7.48679 3.64894 7.53564C3.69849 7.58449 3.75724 7.623 3.8218 7.64894C3.88636 7.67489 3.95543 7.68774 4.025 7.68675H5.075C5.14457 7.68774 5.21364 7.67489 5.2782 7.64894C5.34276 7.623 5.40151 7.58449 5.45106 7.53564C5.5006 7.48679 5.53994 7.42858 5.5668 7.3644C5.59365 7.30021 5.60748 7.23133 5.60748 7.16175C5.60748 7.09218 5.59365 7.0233 5.5668 6.95911C5.53994 6.89493 5.5006 6.83672 5.45106 6.78787C5.40151 6.73902 5.34276 6.70051 5.2782 6.67457C5.21364 6.64862 5.14457 6.63577 5.075 6.63675H4.025ZM8.925 6.63675C8.85543 6.63577 8.78636 6.64862 8.7218 6.67457C8.65724 6.70051 8.59848 6.73902 8.54894 6.78787C8.4994 6.83672 8.46006 6.89493 8.4332 6.95911C8.40635 7.0233 8.39252 7.09218 8.39252 7.16175C8.39252 7.23133 8.40635 7.30021 8.4332 7.3644C8.46006 7.42858 8.4994 7.48679 8.54894 7.53564C8.59848 7.58449 8.65724 7.623 8.7218 7.64894C8.78636 7.67489 8.85543 7.68774 8.925 7.68675H9.975C10.0446 7.68774 10.1136 7.67489 10.1782 7.64894C10.2428 7.623 10.3015 7.58449 10.3511 7.53564C10.4006 7.48679 10.4399 7.42858 10.4668 7.3644C10.4936 7.30021 10.5075 7.23133 10.5075 7.16175C10.5075 7.09218 10.4936 7.0233 10.4668 6.95911C10.4399 6.89493 10.4006 6.83672 10.3511 6.78787C10.3015 6.73902 10.2428 6.70051 10.1782 6.67457C10.1136 6.64862 10.0446 6.63577 9.975 6.63675H8.925ZM4.025 8.38675C3.95543 8.38577 3.88636 8.39862 3.8218 8.42457C3.75724 8.45051 3.69849 8.48902 3.64894 8.53787C3.5994 8.58672 3.56006 8.64493 3.5332 8.70911C3.50635 8.7733 3.49252 8.84218 3.49252 8.91175C3.49252 8.98133 3.50635 9.05021 3.5332 9.1144C3.56006 9.17858 3.5994 9.23679 3.64894 9.28564C3.69849 9.33449 3.75724 9.373 3.8218 9.39894C3.88636 9.42488 3.95543 9.43774 4.025 9.43675H5.075C5.14457 9.43774 5.21364 9.42488 5.2782 9.39894C5.34276 9.373 5.40151 9.33449 5.45106 9.28564C5.5006 9.23679 5.53994 9.17858 5.5668 9.1144C5.59365 9.05021 5.60748 8.98133 5.60748 8.91175C5.60748 8.84218 5.59365 8.7733 5.5668 8.70911C5.53994 8.64493 5.5006 8.58672 5.45106 8.53787C5.40151 8.48902 5.34276 8.45051 5.2782 8.42457C5.21364 8.39862 5.14457 8.38577 5.075 8.38675H4.025ZM8.925 8.38675C8.85543 8.38577 8.78636 8.39862 8.7218 8.42457C8.65724 8.45051 8.59848 8.48902 8.54894 8.53787C8.4994 8.58672 8.46006 8.64493 8.4332 8.70911C8.40635 8.7733 8.39252 8.84218 8.39252 8.91175C8.39252 8.98133 8.40635 9.05021 8.4332 9.1144C8.46006 9.17858 8.4994 9.23679 8.54894 9.28564C8.59848 9.33449 8.65724 9.373 8.7218 9.39894C8.78636 9.42488 8.85543 9.43774 8.925 9.43675H9.975C10.0446 9.43774 10.1136 9.42488 10.1782 9.39894C10.2428 9.373 10.3015 9.33449 10.3511 9.28564C10.4006 9.23679 10.4399 9.17858 10.4668 9.1144C10.4936 9.05021 10.5075 8.98133 10.5075 8.91175C10.5075 8.84218 10.4936 8.7733 10.4668 8.70911C10.4399 8.64493 10.4006 8.58672 10.3511 8.53787C10.3015 8.48902 10.2428 8.45051 10.1782 8.42457C10.1136 8.39862 10.0446 8.38577 9.975 8.38675H8.925Z" fill="black"/>
</svg>
