<svg width="14" height="15" viewBox="0 0 14 15" fill="none" xmlns="http://www.w3.org/2000/svg">
<path d="M2.275 0.83606C2.13577 0.836073 2.00224 0.89139 1.90378 0.989844C1.80533 1.0883 1.75001 1.22183 1.75 1.36106V1.88606H0.525C0.385766 1.88607 0.252238 1.94139 0.153784 2.03984C0.0553308 2.1383 1.39214e-05 2.27183 0 2.41106V13.2611C1.39214e-05 13.4003 0.0553308 13.5338 0.153784 13.6323C0.252238 13.7307 0.385766 13.786 0.525 13.7861H13.475C13.6142 13.786 13.7478 13.7307 13.8462 13.6323C13.9447 13.5338 14 13.4003 14 13.2611V2.41106C14 2.27183 13.9447 2.1383 13.8462 2.03984C13.7478 1.94139 13.6142 1.88607 13.475 1.88606H12.25V1.36106C12.25 1.22183 12.1947 1.0883 12.0962 0.989844C11.9978 0.89139 11.8642 0.836073 11.725 0.83606H9.1C8.22069 0.83606 7.47702 1.30259 7 1.97151C6.52297 1.30259 5.77931 0.83606 4.9 0.83606H2.275ZM2.8 1.88606H4.9C5.77622 1.88606 6.475 2.58483 6.475 3.46106V11.5213C6.03469 11.1891 5.49119 10.9861 4.9 10.9861H2.8V2.49719C2.80926 2.44083 2.80926 2.38334 2.8 2.32698V1.88606ZM9.1 1.88606H11.2V2.32493C11.1907 2.38129 11.1907 2.43878 11.2 2.49514V10.9861H9.1C8.50881 10.9861 7.96531 11.1891 7.525 11.5213V3.46106C7.525 2.58483 8.22377 1.88606 9.1 1.88606ZM1.05 2.93606H1.75V11.5111C1.75001 11.6503 1.80533 11.7838 1.90378 11.8823C2.00224 11.9807 2.13577 12.036 2.275 12.0361H4.9C5.44968 12.0361 5.92786 12.3149 6.20908 12.7361H1.05V2.93606ZM12.25 2.93606H12.95V12.7361H7.79092C8.07214 12.3149 8.55032 12.0361 9.1 12.0361H11.725C11.8642 12.036 11.9978 11.9807 12.0962 11.8823C12.1947 11.7838 12.25 11.6503 12.25 11.5111V2.93606ZM4.025 3.28606C3.95543 3.28508 3.88636 3.29793 3.8218 3.32387C3.75724 3.34981 3.69849 3.38833 3.64894 3.43718C3.5994 3.48602 3.56006 3.54423 3.5332 3.60842C3.50635 3.6726 3.49252 3.74148 3.49252 3.81106C3.49252 3.88064 3.50635 3.94952 3.5332 4.0137C3.56006 4.07789 3.5994 4.1361 3.64894 4.18494C3.69849 4.23379 3.75724 4.27231 3.8218 4.29825C3.88636 4.32419 3.95543 4.33704 4.025 4.33606H5.075C5.14457 4.33704 5.21364 4.32419 5.2782 4.29825C5.34276 4.27231 5.40151 4.23379 5.45106 4.18494C5.5006 4.1361 5.53994 4.07789 5.5668 4.0137C5.59365 3.94952 5.60748 3.88064 5.60748 3.81106C5.60748 3.74148 5.59365 3.6726 5.5668 3.60842C5.53994 3.54423 5.5006 3.48602 5.45106 3.43718C5.40151 3.38833 5.34276 3.34981 5.2782 3.32387C5.21364 3.29793 5.14457 3.28508 5.075 3.28606H4.025ZM8.925 3.28606C8.85543 3.28508 8.78636 3.29793 8.7218 3.32387C8.65724 3.34981 8.59848 3.38833 8.54894 3.43718C8.4994 3.48602 8.46006 3.54423 8.4332 3.60842C8.40635 3.6726 8.39252 3.74148 8.39252 3.81106C8.39252 3.88064 8.40635 3.94952 8.4332 4.0137C8.46006 4.07789 8.4994 4.1361 8.54894 4.18494C8.59848 4.23379 8.65724 4.27231 8.7218 4.29825C8.78636 4.32419 8.85543 4.33704 8.925 4.33606H9.975C10.0446 4.33704 10.1136 4.32419 10.1782 4.29825C10.2428 4.27231 10.3015 4.23379 10.3511 4.18494C10.4006 4.1361 10.4399 4.07789 10.4668 4.0137C10.4936 3.94952 10.5075 3.88064 10.5075 3.81106C10.5075 3.74148 10.4936 3.6726 10.4668 3.60842C10.4399 3.54423 10.4006 3.48602 10.3511 3.43718C10.3015 3.38833 10.2428 3.34981 10.1782 3.32387C10.1136 3.29793 10.0446 3.28508 9.975 3.28606H8.925ZM4.025 5.03606C3.95543 5.03508 3.88636 5.04793 3.8218 5.07387C3.75724 5.09981 3.69849 5.13833 3.64894 5.18718C3.5994 5.23602 3.56006 5.29423 3.5332 5.35842C3.50635 5.4226 3.49252 5.49148 3.49252 5.56106C3.49252 5.63064 3.50635 5.69952 3.5332 5.7637C3.56006 5.82789 3.5994 5.8861 3.64894 5.93494C3.69849 5.98379 3.75724 6.02231 3.8218 6.04825C3.88636 6.07419 3.95543 6.08704 4.025 6.08606H5.075C5.14457 6.08704 5.21364 6.07419 5.2782 6.04825C5.34276 6.02231 5.40151 5.98379 5.45106 5.93494C5.5006 5.8861 5.53994 5.82789 5.5668 5.7637C5.59365 5.69952 5.60748 5.63064 5.60748 5.56106C5.60748 5.49148 5.59365 5.4226 5.5668 5.35842C5.53994 5.29423 5.5006 5.23602 5.45106 5.18718C5.40151 5.13833 5.34276 5.09981 5.2782 5.07387C5.21364 5.04793 5.14457 5.03508 5.075 5.03606H4.025ZM8.925 5.03606C8.85543 5.03508 8.78636 5.04793 8.7218 5.07387C8.65724 5.09981 8.59848 5.13833 8.54894 5.18718C8.4994 5.23602 8.46006 5.29423 8.4332 5.35842C8.40635 5.4226 8.39252 5.49148 8.39252 5.56106C8.39252 5.63064 8.40635 5.69952 8.4332 5.7637C8.46006 5.82789 8.4994 5.8861 8.54894 5.93494C8.59848 5.98379 8.65724 6.02231 8.7218 6.04825C8.78636 6.07419 8.85543 6.08704 8.925 6.08606H9.975C10.0446 6.08704 10.1136 6.07419 10.1782 6.04825C10.2428 6.02231 10.3015 5.98379 10.3511 5.93494C10.4006 5.8861 10.4399 5.82789 10.4668 5.7637C10.4936 5.69952 10.5075 5.63064 10.5075 5.56106C10.5075 5.49148 10.4936 5.4226 10.4668 5.35842C10.4399 5.29423 10.4006 5.23602 10.3511 5.18718C10.3015 5.13833 10.2428 5.09981 10.1782 5.07387C10.1136 5.04793 10.0446 5.03508 9.975 5.03606H8.925ZM4.025 6.78606C3.95543 6.78508 3.88636 6.79793 3.8218 6.82387C3.75724 6.84981 3.69849 6.88833 3.64894 6.93718C3.5994 6.98602 3.56006 7.04423 3.5332 7.10842C3.50635 7.1726 3.49252 7.24148 3.49252 7.31106C3.49252 7.38064 3.50635 7.44952 3.5332 7.5137C3.56006 7.57789 3.5994 7.6361 3.64894 7.68494C3.69849 7.73379 3.75724 7.77231 3.8218 7.79825C3.88636 7.82419 3.95543 7.83704 4.025 7.83606H5.075C5.14457 7.83704 5.21364 7.82419 5.2782 7.79825C5.34276 7.77231 5.40151 7.73379 5.45106 7.68494C5.5006 7.6361 5.53994 7.57789 5.5668 7.5137C5.59365 7.44952 5.60748 7.38064 5.60748 7.31106C5.60748 7.24148 5.59365 7.1726 5.5668 7.10842C5.53994 7.04423 5.5006 6.98602 5.45106 6.93718C5.40151 6.88833 5.34276 6.84981 5.2782 6.82387C5.21364 6.79793 5.14457 6.78508 5.075 6.78606H4.025ZM8.925 6.78606C8.85543 6.78508 8.78636 6.79793 8.7218 6.82387C8.65724 6.84981 8.59848 6.88833 8.54894 6.93718C8.4994 6.98602 8.46006 7.04423 8.4332 7.10842C8.40635 7.1726 8.39252 7.24148 8.39252 7.31106C8.39252 7.38064 8.40635 7.44952 8.4332 7.5137C8.46006 7.57789 8.4994 7.6361 8.54894 7.68494C8.59848 7.73379 8.65724 7.77231 8.7218 7.79825C8.78636 7.82419 8.85543 7.83704 8.925 7.83606H9.975C10.0446 7.83704 10.1136 7.82419 10.1782 7.79825C10.2428 7.77231 10.3015 7.73379 10.3511 7.68494C10.4006 7.6361 10.4399 7.57789 10.4668 7.5137C10.4936 7.44952 10.5075 7.38064 10.5075 7.31106C10.5075 7.24148 10.4936 7.1726 10.4668 7.10842C10.4399 7.04423 10.4006 6.98602 10.3511 6.93718C10.3015 6.88833 10.2428 6.84981 10.1782 6.82387C10.1136 6.79793 10.0446 6.78508 9.975 6.78606H8.925ZM4.025 8.53606C3.95543 8.53508 3.88636 8.54793 3.8218 8.57387C3.75724 8.59981 3.69849 8.63833 3.64894 8.68718C3.5994 8.73602 3.56006 8.79423 3.5332 8.85842C3.50635 8.9226 3.49252 8.99148 3.49252 9.06106C3.49252 9.13064 3.50635 9.19952 3.5332 9.2637C3.56006 9.32789 3.5994 9.3861 3.64894 9.43494C3.69849 9.48379 3.75724 9.52231 3.8218 9.54825C3.88636 9.57419 3.95543 9.58704 4.025 9.58606H5.075C5.14457 9.58704 5.21364 9.57419 5.2782 9.54825C5.34276 9.52231 5.40151 9.48379 5.45106 9.43494C5.5006 9.3861 5.53994 9.32789 5.5668 9.2637C5.59365 9.19952 5.60748 9.13064 5.60748 9.06106C5.60748 8.99148 5.59365 8.9226 5.5668 8.85842C5.53994 8.79423 5.5006 8.73602 5.45106 8.68718C5.40151 8.63833 5.34276 8.59981 5.2782 8.57387C5.21364 8.54793 5.14457 8.53508 5.075 8.53606H4.025ZM8.925 8.53606C8.85543 8.53508 8.78636 8.54793 8.7218 8.57387C8.65724 8.59981 8.59848 8.63833 8.54894 8.68718C8.4994 8.73602 8.46006 8.79423 8.4332 8.85842C8.40635 8.9226 8.39252 8.99148 8.39252 9.06106C8.39252 9.13064 8.40635 9.19952 8.4332 9.2637C8.46006 9.32789 8.4994 9.3861 8.54894 9.43494C8.59848 9.48379 8.65724 9.52231 8.7218 9.54825C8.78636 9.57419 8.85543 9.58704 8.925 9.58606H9.975C10.0446 9.58704 10.1136 9.57419 10.1782 9.54825C10.2428 9.52231 10.3015 9.48379 10.3511 9.43494C10.4006 9.3861 10.4399 9.32789 10.4668 9.2637C10.4936 9.19952 10.5075 9.13064 10.5075 9.06106C10.5075 8.99148 10.4936 8.9226 10.4668 8.85842C10.4399 8.79423 10.4006 8.73602 10.3511 8.68718C10.3015 8.63833 10.2428 8.59981 10.1782 8.57387C10.1136 8.54793 10.0446 8.53508 9.975 8.53606H8.925Z" fill="black"/>
</svg>
