<svg width="14" height="15" viewBox="0 0 14 15" fill="none" xmlns="http://www.w3.org/2000/svg">
<path d="M3.675 1.06226C3.53577 1.06227 3.40224 1.11759 3.30378 1.21604C3.20533 1.31449 3.15001 1.44802 3.15 1.58726V6.13726C3.15 6.45694 3.24922 6.74592 3.38926 7.01226H0.525C0.385766 7.01227 0.252238 7.06759 0.153784 7.16604C0.0553308 7.26449 1.39214e-05 7.39802 0 7.53726V12.0873C0 13.1442 0.868079 14.0123 1.925 14.0123H5.6C6.15469 14.0123 6.64752 13.7654 7 13.3854C7.35248 13.7654 7.84531 14.0123 8.4 14.0123H12.075C13.1319 14.0123 14 13.1442 14 12.0873V7.53726C14 7.39802 13.9447 7.26449 13.8462 7.16604C13.7478 7.06759 13.6142 7.01227 13.475 7.01226H10.2607C10.4008 6.74592 10.5 6.45694 10.5 6.13726V1.58726C10.5 1.44802 10.4447 1.31449 10.3462 1.21604C10.2478 1.11759 10.1142 1.06227 9.975 1.06226H3.675ZM4.2 2.11226H9.45V6.13726C9.45 6.62664 9.06438 7.01226 8.575 7.01226H7H5.075C4.58562 7.01226 4.2 6.62664 4.2 6.13726V2.11226ZM6.125 3.16226C6.05543 3.16127 5.98636 3.17412 5.9218 3.20007C5.85724 3.22601 5.79849 3.26452 5.74894 3.31337C5.6994 3.36222 5.66006 3.42043 5.6332 3.48461C5.60635 3.5488 5.59252 3.61768 5.59252 3.68726C5.59252 3.75683 5.60635 3.82571 5.6332 3.8899C5.66006 3.95408 5.6994 4.01229 5.74894 4.06114C5.79849 4.10999 5.85724 4.1485 5.9218 4.17444C5.98636 4.20039 6.05543 4.21324 6.125 4.21226H7.525C7.59457 4.21324 7.66364 4.20039 7.7282 4.17444C7.79276 4.1485 7.85151 4.10999 7.90106 4.06114C7.9506 4.01229 7.98994 3.95408 8.0168 3.8899C8.04365 3.82571 8.05748 3.75683 8.05748 3.68726C8.05748 3.61768 8.04365 3.5488 8.0168 3.48461C7.98994 3.42043 7.9506 3.36222 7.90106 3.31337C7.85151 3.26452 7.79276 3.22601 7.7282 3.20007C7.66364 3.17412 7.59457 3.16127 7.525 3.16226H6.125ZM1.05 8.06226H5.075H6.475V12.0873C6.475 12.5766 6.08938 12.9623 5.6 12.9623H1.925C1.43562 12.9623 1.05 12.5766 1.05 12.0873V8.06226ZM7.525 8.06226H8.575H12.95V12.0873C12.95 12.5766 12.5644 12.9623 12.075 12.9623H8.4C7.91062 12.9623 7.525 12.5766 7.525 12.0873V8.06226ZM2.975 9.11226C2.90543 9.11127 2.83636 9.12412 2.7718 9.15007C2.70724 9.17601 2.64849 9.21452 2.59894 9.26337C2.5494 9.31222 2.51006 9.37043 2.4832 9.43461C2.45635 9.4988 2.44252 9.56768 2.44252 9.63726C2.44252 9.70683 2.45635 9.77571 2.4832 9.8399C2.51006 9.90408 2.5494 9.96229 2.59894 10.0111C2.64849 10.06 2.70724 10.0985 2.7718 10.1244C2.83636 10.1504 2.90543 10.1632 2.975 10.1623H4.375C4.44457 10.1632 4.51364 10.1504 4.5782 10.1244C4.64276 10.0985 4.70151 10.06 4.75106 10.0111C4.8006 9.96229 4.83994 9.90408 4.8668 9.8399C4.89365 9.77571 4.90748 9.70683 4.90748 9.63726C4.90748 9.56768 4.89365 9.4988 4.8668 9.43461C4.83994 9.37043 4.8006 9.31222 4.75106 9.26337C4.70151 9.21452 4.64276 9.17601 4.5782 9.15007C4.51364 9.12412 4.44457 9.11127 4.375 9.11226H2.975ZM9.625 9.11226C9.55543 9.11127 9.48636 9.12412 9.4218 9.15007C9.35724 9.17601 9.29848 9.21452 9.24894 9.26337C9.1994 9.31222 9.16006 9.37043 9.1332 9.43461C9.10635 9.4988 9.09252 9.56768 9.09252 9.63726C9.09252 9.70683 9.10635 9.77571 9.1332 9.8399C9.16006 9.90408 9.1994 9.96229 9.24894 10.0111C9.29848 10.06 9.35724 10.0985 9.4218 10.1244C9.48636 10.1504 9.55543 10.1632 9.625 10.1623H11.025C11.0946 10.1632 11.1636 10.1504 11.2282 10.1244C11.2928 10.0985 11.3515 10.06 11.4011 10.0111C11.4506 9.96229 11.4899 9.90408 11.5168 9.8399C11.5436 9.77571 11.5575 9.70683 11.5575 9.63726C11.5575 9.56768 11.5436 9.4988 11.5168 9.43461C11.4899 9.37043 11.4506 9.31222 11.4011 9.26337C11.3515 9.21452 11.2928 9.17601 11.2282 9.15007C11.1636 9.12412 11.0946 9.11127 11.025 9.11226H9.625Z" fill="black"/>
</svg>
