<svg width="14" height="15" viewBox="0 0 14 15" fill="none" xmlns="http://www.w3.org/2000/svg">
<path d="M3.675 1C3.53577 1.00001 3.40224 1.05533 3.30378 1.15378C3.20533 1.25224 3.15001 1.38577 3.15 1.525V6.075C3.15 6.39468 3.24922 6.68367 3.38926 6.95H0.525C0.385766 6.95001 0.252238 7.00533 0.153784 7.10378C0.0553308 7.20224 1.39214e-05 7.33577 0 7.475V12.025C0 13.0819 0.868079 13.95 1.925 13.95H5.6C6.15469 13.95 6.64752 13.7032 7 13.3231C7.35248 13.7032 7.84531 13.95 8.4 13.95H12.075C13.1319 13.95 14 13.0819 14 12.025V7.475C14 7.33577 13.9447 7.20224 13.8462 7.10378C13.7478 7.00533 13.6142 6.95001 13.475 6.95H10.2607C10.4008 6.68367 10.5 6.39468 10.5 6.075V1.525C10.5 1.38577 10.4447 1.25224 10.3462 1.15378C10.2478 1.05533 10.1142 1.00001 9.975 1H3.675ZM4.2 2.05H9.45V6.075C9.45 6.56438 9.06438 6.95 8.575 6.95H7H5.075C4.58562 6.95 4.2 6.56438 4.2 6.075V2.05ZM6.125 3.1C6.05543 3.09902 5.98636 3.11187 5.9218 3.13781C5.85724 3.16375 5.79849 3.20227 5.74894 3.25112C5.6994 3.29996 5.66006 3.35817 5.6332 3.42236C5.60635 3.48654 5.59252 3.55542 5.59252 3.625C5.59252 3.69458 5.60635 3.76346 5.6332 3.82764C5.66006 3.89183 5.6994 3.95004 5.74894 3.99888C5.79849 4.04773 5.85724 4.08625 5.9218 4.11219C5.98636 4.13813 6.05543 4.15098 6.125 4.15H7.525C7.59457 4.15098 7.66364 4.13813 7.7282 4.11219C7.79276 4.08625 7.85151 4.04773 7.90106 3.99888C7.9506 3.95004 7.98994 3.89183 8.0168 3.82764C8.04365 3.76346 8.05748 3.69458 8.05748 3.625C8.05748 3.55542 8.04365 3.48654 8.0168 3.42236C7.98994 3.35817 7.9506 3.29996 7.90106 3.25112C7.85151 3.20227 7.79276 3.16375 7.7282 3.13781C7.66364 3.11187 7.59457 3.09902 7.525 3.1H6.125ZM1.05 8H5.075H6.475V12.025C6.475 12.5144 6.08938 12.9 5.6 12.9H1.925C1.43562 12.9 1.05 12.5144 1.05 12.025V8ZM7.525 8H8.575H12.95V12.025C12.95 12.5144 12.5644 12.9 12.075 12.9H8.4C7.91062 12.9 7.525 12.5144 7.525 12.025V8ZM2.975 9.05C2.90543 9.04902 2.83636 9.06187 2.7718 9.08781C2.70724 9.11375 2.64849 9.15227 2.59894 9.20112C2.5494 9.24996 2.51006 9.30817 2.4832 9.37236C2.45635 9.43654 2.44252 9.50542 2.44252 9.575C2.44252 9.64458 2.45635 9.71346 2.4832 9.77764C2.51006 9.84183 2.5494 9.90003 2.59894 9.94888C2.64849 9.99773 2.70724 10.0362 2.7718 10.0622C2.83636 10.0881 2.90543 10.101 2.975 10.1H4.375C4.44457 10.101 4.51364 10.0881 4.5782 10.0622C4.64276 10.0362 4.70151 9.99773 4.75106 9.94888C4.8006 9.90003 4.83994 9.84183 4.8668 9.77764C4.89365 9.71346 4.90748 9.64458 4.90748 9.575C4.90748 9.50542 4.89365 9.43654 4.8668 9.37236C4.83994 9.30817 4.8006 9.24996 4.75106 9.20112C4.70151 9.15227 4.64276 9.11375 4.5782 9.08781C4.51364 9.06187 4.44457 9.04902 4.375 9.05H2.975ZM9.625 9.05C9.55543 9.04902 9.48636 9.06187 9.4218 9.08781C9.35724 9.11375 9.29848 9.15227 9.24894 9.20112C9.1994 9.24996 9.16006 9.30817 9.1332 9.37236C9.10635 9.43654 9.09252 9.50542 9.09252 9.575C9.09252 9.64458 9.10635 9.71346 9.1332 9.77764C9.16006 9.84183 9.1994 9.90003 9.24894 9.94888C9.29848 9.99773 9.35724 10.0362 9.4218 10.0622C9.48636 10.0881 9.55543 10.101 9.625 10.1H11.025C11.0946 10.101 11.1636 10.0881 11.2282 10.0622C11.2928 10.0362 11.3515 9.99773 11.4011 9.94888C11.4506 9.90003 11.4899 9.84183 11.5168 9.77764C11.5436 9.71346 11.5575 9.64458 11.5575 9.575C11.5575 9.50542 11.5436 9.43654 11.5168 9.37236C11.4899 9.30817 11.4506 9.24996 11.4011 9.20112C11.3515 9.15227 11.2928 9.11375 11.2282 9.08781C11.1636 9.06187 11.0946 9.04902 11.025 9.05H9.625Z" fill="black"/>
</svg>
