<svg width="14" height="15" viewBox="0 0 14 15" fill="none" xmlns="http://www.w3.org/2000/svg">
<path d="M5.075 0.773533C4.40477 0.773533 3.85 1.3283 3.85 1.99853V2.87353H1.225C0.554766 2.87353 0 3.4283 0 4.09853V12.4985C0 13.1688 0.554766 13.7235 1.225 13.7235H12.775C13.4452 13.7235 14 13.1688 14 12.4985V4.09853C14 3.4283 13.4452 2.87353 12.775 2.87353H10.15V1.99853C10.15 1.3283 9.59523 0.773533 8.925 0.773533H5.075ZM5.075 1.82353H8.925C9.02827 1.82353 9.1 1.89527 9.1 1.99853V2.87353H4.9V1.99853C4.9 1.89527 4.97173 1.82353 5.075 1.82353ZM1.225 3.92353H12.775C12.8783 3.92353 12.95 3.99527 12.95 4.09853V8.82353H8.05V8.64853C8.05 8.35873 7.8148 8.12353 7.525 8.12353H6.475C6.1852 8.12353 5.95 8.35873 5.95 8.64853V8.82353H1.05V4.09853C1.05 3.99527 1.12173 3.92353 1.225 3.92353ZM1.05 9.87353H5.95V10.0485C5.95 10.3383 6.1852 10.5735 6.475 10.5735H7.525C7.8148 10.5735 8.05 10.3383 8.05 10.0485V9.87353H12.95V12.4985C12.95 12.6018 12.8783 12.6735 12.775 12.6735H1.225C1.12173 12.6735 1.05 12.6018 1.05 12.4985V9.87353Z" fill="black"/>
</svg>
