<svg width="14" height="15" viewBox="0 0 14 15" fill="none" xmlns="http://www.w3.org/2000/svg">
<path d="M5.075 0.83606C4.40477 0.83606 3.85 1.39083 3.85 2.06106V2.93606H1.225C0.554766 2.93606 0 3.49083 0 4.16106V12.5611C0 13.2313 0.554766 13.7861 1.225 13.7861H12.775C13.4452 13.7861 14 13.2313 14 12.5611V4.16106C14 3.49083 13.4452 2.93606 12.775 2.93606H10.15V2.06106C10.15 1.39083 9.59523 0.83606 8.925 0.83606H5.075ZM5.075 1.88606H8.925C9.02827 1.88606 9.1 1.95779 9.1 2.06106V2.93606H4.9V2.06106C4.9 1.95779 4.97173 1.88606 5.075 1.88606ZM1.225 3.98606H12.775C12.8783 3.98606 12.95 4.05779 12.95 4.16106V8.88606H8.05V8.71106C8.05 8.42126 7.8148 8.18606 7.525 8.18606H6.475C6.1852 8.18606 5.95 8.42126 5.95 8.71106V8.88606H1.05V4.16106C1.05 4.05779 1.12173 3.98606 1.225 3.98606ZM1.05 9.93606H5.95V10.1111C5.95 10.4009 6.1852 10.6361 6.475 10.6361H7.525C7.8148 10.6361 8.05 10.4009 8.05 10.1111V9.93606H12.95V12.5611C12.95 12.6643 12.8783 12.7361 12.775 12.7361H1.225C1.12173 12.7361 1.05 12.6643 1.05 12.5611V9.93606Z" fill="black"/>
</svg>
