<svg width="14" height="15" viewBox="0 0 14 15" fill="none" xmlns="http://www.w3.org/2000/svg">
<g clip-path="url(#clip0_621_11)">
<path d="M7.37114 0.17357C7.34279 0.173338 7.31447 0.175514 7.28649 0.180075H3.94302C3.55314 0.180075 3.20979 0.456378 3.12782 0.83766L2.04958 5.85379C2.04763 5.86198 2.04589 5.87022 2.04437 5.8785C1.83925 7.13008 2.36119 8.31982 3.28279 9.15537C4.09707 9.89364 5.23139 10.3569 6.49994 10.4601V12.749L4.07975 13.1757C3.95696 13.1978 3.84686 13.2649 3.77108 13.3639C3.69529 13.4629 3.65928 13.5866 3.67013 13.7108C3.68098 13.835 3.73789 13.9506 3.8297 14.035C3.92151 14.1194 4.04158 14.1664 4.16635 14.1669H6.91796C6.97164 14.1758 7.0264 14.1758 7.08009 14.1669H9.83365C9.95842 14.1664 10.0785 14.1194 10.1703 14.035C10.2621 13.9506 10.319 13.835 10.3299 13.7108C10.3407 13.5866 10.3047 13.4629 10.2289 13.3639C10.1531 13.2649 10.043 13.1978 9.92025 13.1757L7.50006 12.749V10.4601C8.76861 10.3569 9.90293 9.89364 10.7172 9.15537C11.6388 8.31982 12.1608 7.13008 11.9556 5.8785C11.9541 5.87022 11.9524 5.86198 11.9504 5.85379L10.8722 0.83766C10.7904 0.457054 10.4467 0.180075 10.057 0.180075H7.44015C7.41733 0.176314 7.39426 0.174141 7.37114 0.17357ZM4.0778 1.17914H6.58133L5.37872 3.80168C5.34382 3.87777 5.32862 3.96141 5.33452 4.0449C5.34041 4.1284 5.36721 4.20907 5.41245 4.27952C5.4577 4.34998 5.51994 4.40794 5.59346 4.4481C5.66697 4.48825 5.74941 4.50931 5.8332 4.50934H7.38741L6.64254 6.13282C6.61516 6.19249 6.59982 6.25695 6.59739 6.32254C6.59495 6.38813 6.60548 6.45356 6.62836 6.51508C6.65124 6.57661 6.68603 6.63303 6.73074 6.68112C6.77546 6.72921 6.82921 6.76803 6.88895 6.79537C6.94868 6.82271 7.01322 6.83802 7.07888 6.84044C7.14453 6.84286 7.21003 6.83233 7.27161 6.80946C7.3332 6.78659 7.38967 6.75183 7.4378 6.70715C7.48594 6.66248 7.52479 6.60877 7.55215 6.5491L8.62128 4.21795C8.65618 4.14186 8.67138 4.05822 8.66548 3.97472C8.65959 3.89123 8.63279 3.81055 8.58755 3.7401C8.5423 3.66965 8.48006 3.61169 8.40655 3.57153C8.33303 3.53137 8.25059 3.51031 8.1668 3.51028H6.61259L7.68237 1.17914H9.9222L10.9685 6.04306C11.1134 6.93421 10.7625 7.76559 10.0453 8.41583C9.32718 9.06688 8.24136 9.50465 7 9.50465C5.75864 9.50465 4.67282 9.06688 3.95474 8.41583C3.23754 7.76559 2.88661 6.93421 3.03146 6.04306L4.0778 1.17914Z" fill="black"/>
</g>
<defs>
<clipPath id="clip0_621_11">
<rect width="14" height="14" fill="white" transform="translate(0 0.173553)"/>
</clipPath>
</defs>
</svg>
