<svg width="14" height="15" viewBox="0 0 14 15" fill="none" xmlns="http://www.w3.org/2000/svg">
<path d="M4.61426 0.686907C4.52327 0.685879 4.43389 0.71088 4.35663 0.758964C4.27938 0.807047 4.21749 0.87621 4.17824 0.958303C4.13899 1.0404 4.12402 1.132 4.1351 1.22231C4.14618 1.31263 4.18284 1.3979 4.24077 1.46807L5.51349 3.05898C5.55267 3.10794 5.6011 3.14871 5.65603 3.17896C5.71096 3.20921 5.77131 3.22834 5.83363 3.23527C5.89596 3.24219 5.95903 3.23677 6.01926 3.21932C6.07949 3.20187 6.13569 3.17272 6.18466 3.13355C6.23362 3.09438 6.2744 3.04594 6.30464 2.99102C6.33489 2.93609 6.35402 2.87574 6.36095 2.81341C6.36787 2.75109 6.36245 2.68801 6.345 2.62778C6.32755 2.56755 6.29841 2.51135 6.25923 2.46239L4.98651 0.871477C4.94238 0.814646 4.88598 0.768525 4.82152 0.736563C4.75706 0.704602 4.6862 0.687627 4.61426 0.686907ZM9.37145 0.687528C9.30199 0.690274 9.23396 0.708159 9.17214 0.739932C9.11031 0.771705 9.05617 0.8166 9.01349 0.871477L7.74077 2.46239C7.66165 2.56128 7.62507 2.68755 7.63905 2.81341C7.65304 2.93928 7.71645 3.05444 7.81534 3.13355C7.91423 3.21266 8.0405 3.24925 8.16637 3.23527C8.29224 3.22128 8.40739 3.15787 8.48651 3.05898L9.75923 1.46807C9.81786 1.39695 9.85464 1.31039 9.86514 1.21882C9.87564 1.12726 9.8594 1.03462 9.8184 0.952077C9.77739 0.869539 9.71336 0.800637 9.63405 0.753692C9.55474 0.706748 9.46354 0.683768 9.37145 0.687528ZM3.18182 3.87432C1.43028 3.87432 0 5.3046 0 7.05614C0 8.80767 1.43028 10.238 3.18182 10.238H4.93182C4.99506 10.2388 5.05785 10.2272 5.11654 10.2036C5.17523 10.18 5.22865 10.145 5.27369 10.1006C5.31873 10.0562 5.3545 10.0033 5.37891 9.9449C5.40332 9.88655 5.41589 9.82393 5.41589 9.76068C5.41589 9.69743 5.40332 9.63481 5.37891 9.57646C5.3545 9.51811 5.31873 9.46519 5.27369 9.42079C5.22865 9.37638 5.17523 9.34137 5.11654 9.31778C5.05785 9.2942 4.99506 9.28251 4.93182 9.28341H3.18182C1.94626 9.28341 0.954545 8.29169 0.954545 7.05614C0.954545 5.82058 1.94626 4.82886 3.18182 4.82886H4.93182C4.99506 4.82976 5.05785 4.81807 5.11654 4.79449C5.17523 4.77091 5.22865 4.73589 5.27369 4.69148C5.31873 4.64708 5.3545 4.59416 5.37891 4.53581C5.40332 4.47746 5.41589 4.41484 5.41589 4.35159C5.41589 4.28834 5.40332 4.22572 5.37891 4.16737C5.3545 4.10902 5.31873 4.0561 5.27369 4.0117C5.22865 3.96729 5.17523 3.93228 5.11654 3.90869C5.05785 3.88511 4.99506 3.87342 4.93182 3.87432H3.18182ZM9.06818 3.87432C9.00494 3.87342 8.94215 3.88511 8.88346 3.90869C8.82477 3.93228 8.77135 3.96729 8.72631 4.0117C8.68127 4.0561 8.6455 4.10902 8.62109 4.16737C8.59668 4.22572 8.58411 4.28834 8.58411 4.35159C8.58411 4.41484 8.59668 4.47746 8.62109 4.53581C8.6455 4.59416 8.68127 4.64708 8.72631 4.69148C8.77135 4.73589 8.82477 4.77091 8.88346 4.79449C8.94215 4.81807 9.00494 4.82976 9.06818 4.82886H10.8182C12.0537 4.82886 13.0455 5.82058 13.0455 7.05614C13.0455 8.29169 12.0537 9.28341 10.8182 9.28341H9.06818C9.00494 9.28251 8.94215 9.2942 8.88346 9.31778C8.82477 9.34137 8.77135 9.37638 8.72631 9.42079C8.68127 9.46519 8.6455 9.51811 8.62109 9.57646C8.59668 9.63481 8.58411 9.69743 8.58411 9.76068C8.58411 9.82393 8.59668 9.88655 8.62109 9.9449C8.6455 10.0033 8.68127 10.0562 8.72631 10.1006C8.77135 10.145 8.82477 10.18 8.88346 10.2036C8.94215 10.2272 9.00494 10.2388 9.06818 10.238H10.8182C12.5697 10.238 14 8.80767 14 7.05614C14 5.3046 12.5697 3.87432 10.8182 3.87432H9.06818ZM8.11426 10.8687C8.02327 10.8677 7.93389 10.8927 7.85663 10.9408C7.77938 10.9889 7.71749 11.058 7.67824 11.1401C7.63899 11.2222 7.62402 11.3138 7.6351 11.4041C7.64618 11.4944 7.68284 11.5797 7.74077 11.6499L9.01349 13.2408C9.05267 13.2898 9.1011 13.3305 9.15603 13.3608C9.21096 13.391 9.27131 13.4102 9.33363 13.4171C9.39596 13.424 9.45903 13.4186 9.51926 13.4011C9.57949 13.3837 9.63569 13.3545 9.68466 13.3154C9.73362 13.2762 9.7744 13.2278 9.80464 13.1728C9.83489 13.1179 9.85402 13.0576 9.86095 12.9952C9.86787 12.9329 9.86245 12.8698 9.845 12.8096C9.82755 12.7494 9.79841 12.6932 9.75923 12.6442L8.48651 11.0533C8.44238 10.9965 8.38598 10.9503 8.32152 10.9184C8.25706 10.8864 8.1862 10.8694 8.11426 10.8687ZM5.87145 10.8693C5.80199 10.8721 5.73397 10.89 5.67214 10.9218C5.61031 10.9535 5.55617 10.9984 5.51349 11.0533L4.24077 12.6442C4.16165 12.7431 4.12507 12.8694 4.13905 12.9952C4.15304 13.1211 4.21645 13.2363 4.31534 13.3154C4.41423 13.3945 4.5405 13.4311 4.66637 13.4171C4.79224 13.4031 4.90739 13.3397 4.98651 13.2408L6.25923 11.6499C6.31786 11.5788 6.35464 11.4922 6.36514 11.4006C6.37564 11.3091 6.3594 11.2164 6.3184 11.1339C6.27739 11.0514 6.21336 10.9825 6.13405 10.9355C6.05474 10.8886 5.96354 10.8656 5.87145 10.8693Z" fill="black"/>
</svg>
