<svg width="14" height="15" viewBox="0 0 14 15" fill="none" xmlns="http://www.w3.org/2000/svg">
<path d="M5.41849 0.773624C5.27952 0.775795 5.14709 0.833037 5.05029 0.932778C4.9535 1.03252 4.90025 1.1666 4.90224 1.30558V1.83001C4.90224 2.2721 5.0419 2.6835 5.2785 3.02298C4.3024 3.35941 3.58423 4.25709 3.51261 5.32628H3.32892C2.45363 5.32628 1.7556 4.62825 1.7556 3.75296V2.70408C1.75661 2.63389 1.74351 2.56421 1.7171 2.49917C1.69068 2.43413 1.65147 2.37506 1.6018 2.32545C1.55213 2.27584 1.493 2.23671 1.42793 2.21037C1.36286 2.18404 1.29316 2.17103 1.22297 2.17213C1.084 2.1743 0.95157 2.23154 0.854774 2.33128C0.757978 2.43103 0.704729 2.56511 0.706722 2.70408V3.75296C0.706722 5.195 1.88689 6.37516 3.32892 6.37516H3.50374V7.59885H0.531909C0.462415 7.59787 0.393418 7.61071 0.328928 7.63662C0.264439 7.66254 0.205743 7.70101 0.156252 7.74981C0.106761 7.7986 0.0674612 7.85675 0.0406373 7.92087C0.0138134 7.98498 0 8.05379 0 8.12329C0 8.19279 0.0138134 8.2616 0.0406373 8.32572C0.0674612 8.38984 0.106761 8.44798 0.156252 8.49678C0.205743 8.54557 0.264439 8.58405 0.328928 8.60996C0.393418 8.63588 0.462415 8.64872 0.531909 8.64773H3.50374V9.76968C3.50374 9.80387 3.50756 9.8374 3.50852 9.87143H3.32892C1.88689 9.87143 0.706722 11.0516 0.706722 12.4936V13.5425C0.70574 13.612 0.718579 13.681 0.744493 13.7455C0.770408 13.81 0.808881 13.8687 0.857677 13.9182C0.906473 13.9677 0.964619 14.007 1.02874 14.0338C1.09285 14.0606 1.16166 14.0744 1.23116 14.0744C1.30066 14.0744 1.36947 14.0606 1.43359 14.0338C1.49771 14.007 1.55585 13.9677 1.60465 13.9182C1.65344 13.8687 1.69192 13.81 1.71783 13.7455C1.74375 13.681 1.75659 13.612 1.7556 13.5425V12.4936C1.7556 11.6183 2.45363 10.9203 3.32892 10.9203H3.69357C4.13309 12.2456 5.30509 13.2653 6.76851 13.3602C8.42362 13.4672 9.8624 12.4048 10.3331 10.9203H10.6711C11.5464 10.9203 12.2444 11.6183 12.2444 12.4936V13.5425C12.2434 13.612 12.2563 13.681 12.2822 13.7455C12.3081 13.81 12.3466 13.8687 12.3954 13.9182C12.4441 13.9677 12.5023 14.007 12.5664 14.0338C12.6305 14.0606 12.6993 14.0744 12.7688 14.0744C12.8383 14.0744 12.9071 14.0606 12.9713 14.0338C13.0354 14.007 13.0935 13.9677 13.1423 13.9182C13.1911 13.8687 13.2296 13.81 13.2555 13.7455C13.2814 13.681 13.2943 13.612 13.2933 13.5425V12.4936C13.2933 11.0516 12.1131 9.87143 10.6711 9.87143H10.4963V8.64773H13.4681C13.5376 8.64872 13.6066 8.63588 13.6711 8.60996C13.7356 8.58405 13.7943 8.54557 13.8437 8.49678C13.8932 8.44798 13.9325 8.38984 13.9594 8.32572C13.9862 8.2616 14 8.19279 14 8.12329C14 8.05379 13.9862 7.98498 13.9594 7.92087C13.9325 7.85675 13.8932 7.7986 13.8437 7.74981C13.7943 7.70101 13.7356 7.66254 13.6711 7.63662C13.6066 7.61071 13.5376 7.59787 13.4681 7.59885H10.4963V6.37516H10.6711C12.1131 6.37516 13.2933 5.195 13.2933 3.75296V2.70408C13.2943 2.63389 13.2812 2.56421 13.2548 2.49917C13.2284 2.43413 13.1891 2.37506 13.1395 2.32545C13.0898 2.27584 13.0307 2.23671 12.9656 2.21037C12.9005 2.18404 12.8308 2.17103 12.7606 2.17213C12.6217 2.1743 12.4892 2.23154 12.3924 2.33128C12.2957 2.43103 12.2424 2.56511 12.2444 2.70408V3.75296C12.2444 4.62825 11.5464 5.32628 10.6711 5.32628H10.4874C10.4158 4.25709 9.6976 3.35941 8.7215 3.02298C8.9581 2.6835 9.09776 2.2721 9.09776 1.83001V1.30558C9.09874 1.23608 9.0859 1.16708 9.05999 1.10259C9.03407 1.0381 8.9956 0.979409 8.94681 0.929918C8.89801 0.880426 8.83986 0.841127 8.77575 0.814303C8.71163 0.787479 8.64282 0.773666 8.57332 0.773666C8.50382 0.773666 8.43501 0.787479 8.37089 0.814303C8.30678 0.841127 8.24863 0.880426 8.19984 0.929918C8.15104 0.979409 8.11257 1.0381 8.08665 1.10259C8.06074 1.16708 8.0479 1.23608 8.04888 1.30558V1.83001C8.04888 2.41534 7.58532 2.87889 7 2.87889C6.41468 2.87889 5.95112 2.41534 5.95112 1.83001V1.30558C5.95213 1.23538 5.93903 1.1657 5.91261 1.10066C5.88619 1.03562 5.84699 0.976549 5.79732 0.926942C5.74765 0.877335 5.68852 0.838204 5.62345 0.811868C5.55838 0.785532 5.48868 0.772527 5.41849 0.773624ZM6.12593 3.92777H7H7.87407C8.74936 3.92777 9.44739 4.6258 9.44739 5.50109V5.76468C9.43814 5.82098 9.43814 5.87841 9.44739 5.93471V8.03725C9.43814 8.09355 9.43814 8.15098 9.44739 8.20729V9.87143C9.44739 11.2836 8.27336 12.4062 6.83611 12.3133C5.54345 12.2295 4.55261 11.0886 4.55261 9.76968V8.20933C4.56186 8.15303 4.56186 8.0956 4.55261 8.0393V5.93676C4.56186 5.88046 4.56186 5.82303 4.55261 5.76673V5.50109C4.55261 4.6258 5.25064 3.92777 6.12593 3.92777Z" fill="black"/>
</svg>
