<svg width="14" height="15" viewBox="0 0 14 15" fill="none" xmlns="http://www.w3.org/2000/svg">
<path d="M5.41849 0.686818C5.27952 0.688989 5.14709 0.746232 5.05029 0.845973C4.9535 0.945713 4.90025 1.0798 4.90224 1.21877V1.74321C4.90224 2.18529 5.0419 2.59669 5.2785 2.93617C4.3024 3.27261 3.58423 4.17028 3.51261 5.23948H3.32892C2.45363 5.23948 1.7556 4.54145 1.7556 3.66616V2.61728C1.75661 2.54708 1.74351 2.4774 1.7171 2.41236C1.69068 2.34732 1.65147 2.28825 1.6018 2.23864C1.55213 2.18904 1.493 2.1499 1.42793 2.12357C1.36286 2.09723 1.29316 2.08423 1.22297 2.08532C1.084 2.0875 0.95157 2.14474 0.854774 2.24448C0.757978 2.34422 0.704729 2.4783 0.706722 2.61728V3.66616C0.706722 5.10819 1.88689 6.28835 3.32892 6.28835H3.50374V7.51205H0.531909C0.462415 7.51107 0.393418 7.5239 0.328928 7.54982C0.264439 7.57573 0.205743 7.61421 0.156252 7.663C0.106761 7.7118 0.0674612 7.76994 0.0406373 7.83406C0.0138134 7.89818 0 7.96699 0 8.03649C0 8.10599 0.0138134 8.1748 0.0406373 8.23891C0.0674612 8.30303 0.106761 8.36118 0.156252 8.40997C0.205743 8.45877 0.264439 8.49724 0.328928 8.52316C0.393418 8.54907 0.462415 8.56191 0.531909 8.56093H3.50374V9.68287C3.50374 9.71706 3.50756 9.7506 3.50852 9.78462H3.32892C1.88689 9.78462 0.706722 10.9648 0.706722 12.4068V13.4557C0.70574 13.5252 0.718579 13.5942 0.744493 13.6587C0.770408 13.7232 0.808881 13.7819 0.857677 13.8314C0.906473 13.8808 0.964619 13.9201 1.02874 13.947C1.09285 13.9738 1.16166 13.9876 1.23116 13.9876C1.30066 13.9876 1.36947 13.9738 1.43359 13.947C1.49771 13.9201 1.55585 13.8808 1.60465 13.8314C1.65344 13.7819 1.69192 13.7232 1.71783 13.6587C1.74375 13.5942 1.75659 13.5252 1.7556 13.4557V12.4068C1.7556 11.5315 2.45363 10.8335 3.32892 10.8335H3.69357C4.13309 12.1588 5.30509 13.1785 6.76851 13.2734C8.42362 13.3804 9.8624 12.318 10.3331 10.8335H10.6711C11.5464 10.8335 12.2444 11.5315 12.2444 12.4068V13.4557C12.2434 13.5252 12.2563 13.5942 12.2822 13.6587C12.3081 13.7232 12.3466 13.7819 12.3954 13.8314C12.4441 13.8808 12.5023 13.9201 12.5664 13.947C12.6305 13.9738 12.6993 13.9876 12.7688 13.9876C12.8383 13.9876 12.9071 13.9738 12.9713 13.947C13.0354 13.9201 13.0935 13.8808 13.1423 13.8314C13.1911 13.7819 13.2296 13.7232 13.2555 13.6587C13.2814 13.5942 13.2943 13.5252 13.2933 13.4557V12.4068C13.2933 10.9648 12.1131 9.78462 10.6711 9.78462H10.4963V8.56093H13.4681C13.5376 8.56191 13.6066 8.54907 13.6711 8.52316C13.7356 8.49724 13.7943 8.45877 13.8437 8.40997C13.8932 8.36118 13.9325 8.30303 13.9594 8.23891C13.9862 8.1748 14 8.10599 14 8.03649C14 7.96699 13.9862 7.89818 13.9594 7.83406C13.9325 7.76994 13.8932 7.7118 13.8437 7.663C13.7943 7.61421 13.7356 7.57573 13.6711 7.54982C13.6066 7.5239 13.5376 7.51107 13.4681 7.51205H10.4963V6.28835H10.6711C12.1131 6.28835 13.2933 5.10819 13.2933 3.66616V2.61728C13.2943 2.54708 13.2812 2.4774 13.2548 2.41236C13.2284 2.34732 13.1891 2.28825 13.1395 2.23864C13.0898 2.18904 13.0307 2.1499 12.9656 2.12357C12.9005 2.09723 12.8308 2.08423 12.7606 2.08532C12.6217 2.0875 12.4892 2.14474 12.3924 2.24448C12.2957 2.34422 12.2424 2.4783 12.2444 2.61728V3.66616C12.2444 4.54145 11.5464 5.23948 10.6711 5.23948H10.4874C10.4158 4.17028 9.6976 3.27261 8.7215 2.93617C8.9581 2.59669 9.09776 2.18529 9.09776 1.74321V1.21877C9.09874 1.14928 9.0859 1.08028 9.05999 1.01579C9.03407 0.951299 8.9956 0.892604 8.94681 0.843112C8.89801 0.793621 8.83986 0.754322 8.77575 0.727498C8.71163 0.700674 8.64282 0.68686 8.57332 0.68686C8.50382 0.68686 8.43501 0.700674 8.37089 0.727498C8.30678 0.754322 8.24863 0.793621 8.19984 0.843112C8.15104 0.892604 8.11257 0.951299 8.08665 1.01579C8.06074 1.08028 8.0479 1.14928 8.04888 1.21877V1.74321C8.04888 2.32853 7.58532 2.79209 7 2.79209C6.41468 2.79209 5.95112 2.32853 5.95112 1.74321V1.21877C5.95213 1.14858 5.93903 1.0789 5.91261 1.01386C5.88619 0.948818 5.84699 0.889744 5.79732 0.840137C5.74765 0.790529 5.68852 0.751398 5.62345 0.725062C5.55838 0.698726 5.48868 0.685721 5.41849 0.686818ZM6.12593 3.84097H7H7.87407C8.74936 3.84097 9.44739 4.539 9.44739 5.41429V5.67787C9.43814 5.73417 9.43814 5.79161 9.44739 5.84791V7.95045C9.43814 8.00675 9.43814 8.06418 9.44739 8.12048V9.78462C9.44739 11.1968 8.27336 12.3194 6.83611 12.2265C5.54345 12.1427 4.55261 11.0018 4.55261 9.68287V8.12253C4.56186 8.06623 4.56186 8.0088 4.55261 7.9525V5.84996C4.56186 5.79366 4.56186 5.73622 4.55261 5.67992V5.41429C4.55261 4.539 5.25064 3.84097 6.12593 3.84097Z" fill="black"/>
</svg>
