<svg width="14" height="15" viewBox="0 0 14 15" fill="none" xmlns="http://www.w3.org/2000/svg">
<path d="M1.42436 0.77356C1.40123 0.774164 1.37818 0.776449 1.35538 0.780396H0.795455C0.73221 0.779502 0.669419 0.791186 0.610729 0.81477C0.55204 0.838354 0.498623 0.873367 0.453583 0.917774C0.408543 0.962182 0.372778 1.0151 0.348367 1.07345C0.323955 1.1318 0.311384 1.19442 0.311384 1.25767C0.311384 1.32092 0.323955 1.38354 0.348367 1.44189C0.372778 1.50024 0.408543 1.55316 0.453583 1.59756C0.498623 1.64197 0.55204 1.67698 0.610729 1.70057C0.669419 1.72415 0.73221 1.73584 0.795455 1.73494H0.954545V7.81271C0.422067 7.89405 0 8.3409 0 8.89403V12.394C1.26558e-05 12.5206 0.0503007 12.642 0.139804 12.7315C0.229307 12.821 0.350696 12.8713 0.477273 12.8713H9.38636C9.51294 12.8713 9.63433 12.821 9.72383 12.7315C9.81334 12.642 9.86362 12.5206 9.86364 12.394V8.89403C9.86364 8.3409 9.44157 7.89405 8.90909 7.81271V1.73494H9.06818C9.13143 1.73584 9.19422 1.72415 9.25291 1.70057C9.3116 1.67698 9.36501 1.64197 9.41005 1.59756C9.45509 1.55316 9.49086 1.50024 9.51527 1.44189C9.53968 1.38354 9.55225 1.32092 9.55225 1.25767C9.55225 1.19442 9.53968 1.1318 9.51527 1.07345C9.49086 1.0151 9.45509 0.962182 9.41005 0.917774C9.36501 0.873367 9.3116 0.838354 9.25291 0.81477C9.19422 0.791186 9.13143 0.779502 9.06818 0.780396H8.51012C8.45888 0.77198 8.40662 0.77198 8.35538 0.780396H1.51012C1.4818 0.775541 1.45309 0.773253 1.42436 0.77356V0.77356ZM1.90909 1.73494H7.95455V8.25767C7.95456 8.38425 8.00485 8.50563 8.09435 8.59514C8.18385 8.68464 8.30524 8.73493 8.43182 8.73494H8.75C8.84388 8.73494 8.90909 8.80015 8.90909 8.89403V11.9168H5.72727V10.0077C5.72727 9.83203 5.58473 9.68949 5.40909 9.68949H4.45455C4.27891 9.68949 4.13636 9.83203 4.13636 10.0077V11.9168H0.954545V8.89403C0.954545 8.80015 1.01976 8.73494 1.11364 8.73494H1.43182C1.55839 8.73493 1.67978 8.68464 1.76929 8.59514C1.85879 8.50563 1.90908 8.38425 1.90909 8.25767V1.73494ZM3.5 3.00767C3.32436 3.00767 3.18182 3.15021 3.18182 3.32585V3.96221C3.18182 4.13785 3.32436 4.2804 3.5 4.2804H4.13636C4.312 4.2804 4.45455 4.13785 4.45455 3.96221V3.32585C4.45455 3.15021 4.312 3.00767 4.13636 3.00767H3.5ZM5.72727 3.00767C5.55164 3.00767 5.40909 3.15021 5.40909 3.32585V3.96221C5.40909 4.13785 5.55164 4.2804 5.72727 4.2804H6.36364C6.53927 4.2804 6.68182 4.13785 6.68182 3.96221V3.32585C6.68182 3.15021 6.53927 3.00767 6.36364 3.00767H5.72727ZM9.54545 3.00767V3.96221H12.25C12.6891 3.96221 13.0455 4.31858 13.0455 4.75767V11.9168H10.5V12.5531C10.5 12.6654 10.4772 12.7714 10.4416 12.8713H13.5227C13.7868 12.8713 14 12.6581 14 12.394V4.75767C14 3.79358 13.2141 3.00767 12.25 3.00767H9.54545ZM3.5 5.23494C3.32436 5.23494 3.18182 5.37749 3.18182 5.55312V6.18949C3.18182 6.36512 3.32436 6.50767 3.5 6.50767H4.13636C4.312 6.50767 4.45455 6.36512 4.45455 6.18949V5.55312C4.45455 5.37749 4.312 5.23494 4.13636 5.23494H3.5ZM5.72727 5.23494C5.55164 5.23494 5.40909 5.37749 5.40909 5.55312V6.18949C5.40909 6.36512 5.55164 6.50767 5.72727 6.50767H6.36364C6.53927 6.50767 6.68182 6.36512 6.68182 6.18949V5.55312C6.68182 5.37749 6.53927 5.23494 6.36364 5.23494H5.72727ZM11.1364 5.23494C10.9607 5.23494 10.8182 5.37749 10.8182 5.55312V6.18949C10.8182 6.36512 10.9607 6.50767 11.1364 6.50767H11.7727C11.9484 6.50767 12.0909 6.36512 12.0909 6.18949V5.55312C12.0909 5.37749 11.9484 5.23494 11.7727 5.23494H11.1364ZM3.5 7.46221C3.32436 7.46221 3.18182 7.60476 3.18182 7.7804V8.41676C3.18182 8.5924 3.32436 8.73494 3.5 8.73494H4.13636C4.312 8.73494 4.45455 8.5924 4.45455 8.41676V7.7804C4.45455 7.60476 4.312 7.46221 4.13636 7.46221H3.5ZM5.72727 7.46221C5.55164 7.46221 5.40909 7.60476 5.40909 7.7804V8.41676C5.40909 8.5924 5.55164 8.73494 5.72727 8.73494H6.36364C6.53927 8.73494 6.68182 8.5924 6.68182 8.41676V7.7804C6.68182 7.60476 6.53927 7.46221 6.36364 7.46221H5.72727ZM11.1364 7.46221C10.9607 7.46221 10.8182 7.60476 10.8182 7.7804V8.41676C10.8182 8.5924 10.9607 8.73494 11.1364 8.73494H11.7727C11.9484 8.73494 12.0909 8.5924 12.0909 8.41676V7.7804C12.0909 7.60476 11.9484 7.46221 11.7727 7.46221H11.1364ZM2.22727 9.68949C2.05164 9.68949 1.90909 9.83203 1.90909 10.0077V10.644C1.90909 10.8197 2.05164 10.9622 2.22727 10.9622H2.86364C3.03927 10.9622 3.18182 10.8197 3.18182 10.644V10.0077C3.18182 9.83203 3.03927 9.68949 2.86364 9.68949H2.22727ZM7 9.68949C6.82436 9.68949 6.68182 9.83203 6.68182 10.0077V10.644C6.68182 10.8197 6.82436 10.9622 7 10.9622H7.63636C7.812 10.9622 7.95455 10.8197 7.95455 10.644V10.0077C7.95455 9.83203 7.812 9.68949 7.63636 9.68949H7ZM11.1364 9.68949C10.9607 9.68949 10.8182 9.83203 10.8182 10.0077V10.644C10.8182 10.8197 10.9607 10.9622 11.1364 10.9622H11.7727C11.9484 10.9622 12.0909 10.8197 12.0909 10.644V10.0077C12.0909 9.83203 11.9484 9.68949 11.7727 9.68949H11.1364Z" fill="black"/>
</svg>
