<svg width="14" height="15" viewBox="0 0 14 15" fill="none" xmlns="http://www.w3.org/2000/svg">
<path d="M1.42436 0.836087C1.40123 0.836691 1.37818 0.838975 1.35538 0.842923H0.795455C0.73221 0.842028 0.669419 0.853713 0.610729 0.877296C0.55204 0.90088 0.498623 0.935893 0.453583 0.980301C0.408543 1.02471 0.372778 1.07762 0.348367 1.13597C0.323955 1.19432 0.311384 1.25694 0.311384 1.3202C0.311384 1.38345 0.323955 1.44607 0.348367 1.50442C0.372778 1.56277 0.408543 1.61568 0.453583 1.66009C0.498623 1.7045 0.55204 1.73951 0.610729 1.76309C0.669419 1.78668 0.73221 1.79836 0.795455 1.79747H0.954545V7.87524C0.422067 7.95658 0 8.40343 0 8.95656V12.4566C1.26558e-05 12.5831 0.0503007 12.7045 0.139804 12.794C0.229307 12.8835 0.350696 12.9338 0.477273 12.9338H9.38636C9.51294 12.9338 9.63433 12.8835 9.72383 12.794C9.81334 12.7045 9.86362 12.5831 9.86364 12.4566V8.95656C9.86364 8.40343 9.44157 7.95658 8.90909 7.87524V1.79747H9.06818C9.13143 1.79836 9.19422 1.78668 9.25291 1.76309C9.3116 1.73951 9.36501 1.7045 9.41005 1.66009C9.45509 1.61568 9.49086 1.56277 9.51527 1.50442C9.53968 1.44607 9.55225 1.38345 9.55225 1.3202C9.55225 1.25694 9.53968 1.19432 9.51527 1.13597C9.49086 1.07762 9.45509 1.02471 9.41005 0.980301C9.36501 0.935893 9.3116 0.90088 9.25291 0.877296C9.19422 0.853713 9.13143 0.842028 9.06818 0.842923H8.51012C8.45888 0.834506 8.40662 0.834506 8.35538 0.842923H1.51012C1.4818 0.838067 1.45309 0.835779 1.42436 0.836087ZM1.90909 1.79747H7.95455V8.3202C7.95456 8.44677 8.00485 8.56816 8.09435 8.65766C8.18385 8.74717 8.30524 8.79746 8.43182 8.79747H8.75C8.84388 8.79747 8.90909 8.86268 8.90909 8.95656V11.9793H5.72727V10.0702C5.72727 9.89456 5.58473 9.75201 5.40909 9.75201H4.45455C4.27891 9.75201 4.13636 9.89456 4.13636 10.0702V11.9793H0.954545V8.95656C0.954545 8.86268 1.01976 8.79747 1.11364 8.79747H1.43182C1.55839 8.79746 1.67978 8.74717 1.76929 8.65766C1.85879 8.56816 1.90908 8.44677 1.90909 8.3202V1.79747ZM3.5 3.0702C3.32436 3.0702 3.18182 3.21274 3.18182 3.38838V4.02474C3.18182 4.20038 3.32436 4.34292 3.5 4.34292H4.13636C4.312 4.34292 4.45455 4.20038 4.45455 4.02474V3.38838C4.45455 3.21274 4.312 3.0702 4.13636 3.0702H3.5ZM5.72727 3.0702C5.55164 3.0702 5.40909 3.21274 5.40909 3.38838V4.02474C5.40909 4.20038 5.55164 4.34292 5.72727 4.34292H6.36364C6.53927 4.34292 6.68182 4.20038 6.68182 4.02474V3.38838C6.68182 3.21274 6.53927 3.0702 6.36364 3.0702H5.72727ZM9.54545 3.0702V4.02474H12.25C12.6891 4.02474 13.0455 4.3811 13.0455 4.8202V11.9793H10.5V12.6157C10.5 12.728 10.4772 12.8339 10.4416 12.9338H13.5227C13.7868 12.9338 14 12.7207 14 12.4566V4.8202C14 3.8561 13.2141 3.0702 12.25 3.0702H9.54545ZM3.5 5.29747C3.32436 5.29747 3.18182 5.44001 3.18182 5.61565V6.25201C3.18182 6.42765 3.32436 6.5702 3.5 6.5702H4.13636C4.312 6.5702 4.45455 6.42765 4.45455 6.25201V5.61565C4.45455 5.44001 4.312 5.29747 4.13636 5.29747H3.5ZM5.72727 5.29747C5.55164 5.29747 5.40909 5.44001 5.40909 5.61565V6.25201C5.40909 6.42765 5.55164 6.5702 5.72727 6.5702H6.36364C6.53927 6.5702 6.68182 6.42765 6.68182 6.25201V5.61565C6.68182 5.44001 6.53927 5.29747 6.36364 5.29747H5.72727ZM11.1364 5.29747C10.9607 5.29747 10.8182 5.44001 10.8182 5.61565V6.25201C10.8182 6.42765 10.9607 6.5702 11.1364 6.5702H11.7727C11.9484 6.5702 12.0909 6.42765 12.0909 6.25201V5.61565C12.0909 5.44001 11.9484 5.29747 11.7727 5.29747H11.1364ZM3.5 7.52474C3.32436 7.52474 3.18182 7.66729 3.18182 7.84292V8.47929C3.18182 8.65492 3.32436 8.79747 3.5 8.79747H4.13636C4.312 8.79747 4.45455 8.65492 4.45455 8.47929V7.84292C4.45455 7.66729 4.312 7.52474 4.13636 7.52474H3.5ZM5.72727 7.52474C5.55164 7.52474 5.40909 7.66729 5.40909 7.84292V8.47929C5.40909 8.65492 5.55164 8.79747 5.72727 8.79747H6.36364C6.53927 8.79747 6.68182 8.65492 6.68182 8.47929V7.84292C6.68182 7.66729 6.53927 7.52474 6.36364 7.52474H5.72727ZM11.1364 7.52474C10.9607 7.52474 10.8182 7.66729 10.8182 7.84292V8.47929C10.8182 8.65492 10.9607 8.79747 11.1364 8.79747H11.7727C11.9484 8.79747 12.0909 8.65492 12.0909 8.47929V7.84292C12.0909 7.66729 11.9484 7.52474 11.7727 7.52474H11.1364ZM2.22727 9.75201C2.05164 9.75201 1.90909 9.89456 1.90909 10.0702V10.7066C1.90909 10.8822 2.05164 11.0247 2.22727 11.0247H2.86364C3.03927 11.0247 3.18182 10.8822 3.18182 10.7066V10.0702C3.18182 9.89456 3.03927 9.75201 2.86364 9.75201H2.22727ZM7 9.75201C6.82436 9.75201 6.68182 9.89456 6.68182 10.0702V10.7066C6.68182 10.8822 6.82436 11.0247 7 11.0247H7.63636C7.812 11.0247 7.95455 10.8822 7.95455 10.7066V10.0702C7.95455 9.89456 7.812 9.75201 7.63636 9.75201H7ZM11.1364 9.75201C10.9607 9.75201 10.8182 9.89456 10.8182 10.0702V10.7066C10.8182 10.8822 10.9607 11.0247 11.1364 11.0247H11.7727C11.9484 11.0247 12.0909 10.8822 12.0909 10.7066V10.0702C12.0909 9.89456 11.9484 9.75201 11.7727 9.75201H11.1364Z" fill="black"/>
</svg>
