<svg width="14" height="15" viewBox="0 0 14 15" fill="none" xmlns="http://www.w3.org/2000/svg">
<path d="M0.874533 2.79855C0.642592 2.79855 0.420152 2.89069 0.256145 3.0547C0.092138 3.2187 0 3.44115 0 3.67309C0 3.90503 0.092138 4.12747 0.256145 4.29147C0.420152 4.45548 0.642592 4.54762 0.874533 4.54762C1.10647 4.54762 1.32891 4.45548 1.49292 4.29147C1.65693 4.12747 1.74907 3.90503 1.74907 3.67309C1.74907 3.44115 1.65693 3.2187 1.49292 3.0547C1.32891 2.89069 1.10647 2.79855 0.874533 2.79855ZM3.32323 3.14837C3.25369 3.14738 3.18466 3.16023 3.12014 3.18616C3.05561 3.21209 2.99689 3.25058 2.94737 3.2994C2.89785 3.34822 2.85853 3.4064 2.83169 3.47055C2.80485 3.5347 2.79103 3.60355 2.79103 3.67309C2.79103 3.74262 2.80485 3.81147 2.83169 3.87562C2.85853 3.93977 2.89785 3.99795 2.94737 4.04677C2.99689 4.09559 3.05561 4.13409 3.12014 4.16002C3.18466 4.18594 3.25369 4.19879 3.32323 4.19781H13.4678C13.5373 4.19879 13.6064 4.18594 13.6709 4.16002C13.7354 4.13409 13.7941 4.09559 13.8437 4.04677C13.8932 3.99795 13.9325 3.93977 13.9593 3.87562C13.9862 3.81147 14 3.74262 14 3.67309C14 3.60355 13.9862 3.5347 13.9593 3.47055C13.9325 3.4064 13.8932 3.34822 13.8437 3.2994C13.7941 3.25058 13.7354 3.21209 13.6709 3.18616C13.6064 3.16023 13.5373 3.14738 13.4678 3.14837H3.32323ZM0.874533 6.29669C0.642592 6.29669 0.420152 6.38882 0.256145 6.55283C0.092138 6.71684 0 6.93928 0 7.17122C0 7.40316 0.092138 7.6256 0.256145 7.78961C0.420152 7.95361 0.642592 8.04575 0.874533 8.04575C1.10647 8.04575 1.32891 7.95361 1.49292 7.78961C1.65693 7.6256 1.74907 7.40316 1.74907 7.17122C1.74907 6.93928 1.65693 6.71684 1.49292 6.55283C1.32891 6.38882 1.10647 6.29669 0.874533 6.29669ZM3.32323 6.6465C3.25369 6.64551 3.18466 6.65836 3.12014 6.68429C3.05561 6.71022 2.99689 6.74871 2.94737 6.79753C2.89785 6.84636 2.85853 6.90453 2.83169 6.96868C2.80485 7.03283 2.79103 7.10168 2.79103 7.17122C2.79103 7.24076 2.80485 7.3096 2.83169 7.37375C2.85853 7.4379 2.89785 7.49608 2.94737 7.5449C2.99689 7.59372 3.05561 7.63222 3.12014 7.65815C3.18466 7.68407 3.25369 7.69692 3.32323 7.69594H13.4678C13.5373 7.69692 13.6064 7.68407 13.6709 7.65815C13.7354 7.63222 13.7941 7.59372 13.8437 7.5449C13.8932 7.49608 13.9325 7.4379 13.9593 7.37375C13.9862 7.3096 14 7.24076 14 7.17122C14 7.10168 13.9862 7.03283 13.9593 6.96868C13.9325 6.90453 13.8932 6.84636 13.8437 6.79753C13.7941 6.74871 13.7354 6.71022 13.6709 6.68429C13.6064 6.65836 13.5373 6.64551 13.4678 6.6465H3.32323ZM0.874533 9.79482C0.642592 9.79482 0.420152 9.88695 0.256145 10.051C0.092138 10.215 0 10.4374 0 10.6693C0 10.9013 0.092138 11.1237 0.256145 11.2877C0.420152 11.4517 0.642592 11.5439 0.874533 11.5439C1.10647 11.5439 1.32891 11.4517 1.49292 11.2877C1.65693 11.1237 1.74907 10.9013 1.74907 10.6693C1.74907 10.4374 1.65693 10.215 1.49292 10.051C1.32891 9.88695 1.10647 9.79482 0.874533 9.79482ZM3.32323 10.1446C3.25369 10.1436 3.18466 10.1565 3.12014 10.1824C3.05561 10.2083 2.99689 10.2468 2.94737 10.2957C2.89785 10.3445 2.85853 10.4027 2.83169 10.4668C2.80485 10.531 2.79103 10.5998 2.79103 10.6693C2.79103 10.7389 2.80485 10.8077 2.83169 10.8719C2.85853 10.936 2.89785 10.9942 2.94737 11.043C2.99689 11.0919 3.05561 11.1304 3.12014 11.1563C3.18466 11.1822 3.25369 11.1951 3.32323 11.1941H13.4678C13.5373 11.1951 13.6064 11.1822 13.6709 11.1563C13.7354 11.1304 13.7941 11.0919 13.8437 11.043C13.8932 10.9942 13.9325 10.936 13.9593 10.8719C13.9862 10.8077 14 10.7389 14 10.6693C14 10.5998 13.9862 10.531 13.9593 10.4668C13.9325 10.4027 13.8932 10.3445 13.8437 10.2957C13.7941 10.2468 13.7354 10.2083 13.6709 10.1824C13.6064 10.1565 13.5373 10.1436 13.4678 10.1446H3.32323Z" fill="black"/>
</svg>
