<svg width="14" height="15" viewBox="0 0 14 15" fill="none" xmlns="http://www.w3.org/2000/svg">
<path d="M0.531909 1.83575C0.462415 1.83476 0.393418 1.8476 0.328928 1.87352C0.264439 1.89943 0.205743 1.9379 0.156252 1.9867C0.106761 2.0355 0.0674612 2.09364 0.0406373 2.15776C0.0138134 2.22188 0 2.29068 0 2.36019C0 2.42969 0.0138134 2.4985 0.0406373 2.56261C0.0674612 2.62673 0.106761 2.68487 0.156252 2.73367C0.205743 2.78247 0.264439 2.82094 0.328928 2.84685C0.393418 2.87277 0.462415 2.88561 0.531909 2.88463H13.4681C13.5376 2.88561 13.6066 2.87277 13.6711 2.84685C13.7356 2.82094 13.7943 2.78247 13.8437 2.73367C13.8932 2.68487 13.9325 2.62673 13.9594 2.56261C13.9862 2.4985 14 2.42969 14 2.36019C14 2.29068 13.9862 2.22188 13.9594 2.15776C13.9325 2.09364 13.8932 2.0355 13.8437 1.9867C13.7943 1.9379 13.7356 1.89943 13.6711 1.87352C13.6066 1.8476 13.5376 1.83476 13.4681 1.83575H0.531909ZM0.531909 6.5557C0.462415 6.55472 0.393418 6.56756 0.328928 6.59347C0.264439 6.61939 0.205743 6.65786 0.156252 6.70666C0.106761 6.75546 0.0674612 6.8136 0.0406373 6.87772C0.0138134 6.94183 0 7.01064 0 7.08014C0 7.14965 0.0138134 7.21845 0.0406373 7.28257C0.0674612 7.34669 0.106761 7.40483 0.156252 7.45363C0.205743 7.50243 0.264439 7.5409 0.328928 7.56681C0.393418 7.59273 0.462415 7.60557 0.531909 7.60458H13.4681C13.5376 7.60557 13.6066 7.59273 13.6711 7.56681C13.7356 7.5409 13.7943 7.50243 13.8437 7.45363C13.8932 7.40483 13.9325 7.34669 13.9594 7.28257C13.9862 7.21845 14 7.14965 14 7.08014C14 7.01064 13.9862 6.94183 13.9594 6.87772C13.9325 6.8136 13.8932 6.75546 13.8437 6.70666C13.7943 6.65786 13.7356 6.61939 13.6711 6.59347C13.6066 6.56756 13.5376 6.55472 13.4681 6.5557H0.531909ZM0.531909 11.2757C0.462415 11.2747 0.393418 11.2875 0.328928 11.3134C0.264439 11.3393 0.205743 11.3778 0.156252 11.4266C0.106761 11.4754 0.0674612 11.5336 0.0406373 11.5977C0.0138134 11.6618 0 11.7306 0 11.8001C0 11.8696 0.0138134 11.9384 0.0406373 12.0025C0.0674612 12.0666 0.106761 12.1248 0.156252 12.1736C0.205743 12.2224 0.264439 12.2609 0.328928 12.2868C0.393418 12.3127 0.462415 12.3255 0.531909 12.3245H13.4681C13.5376 12.3255 13.6066 12.3127 13.6711 12.2868C13.7356 12.2609 13.7943 12.2224 13.8437 12.1736C13.8932 12.1248 13.9325 12.0666 13.9594 12.0025C13.9862 11.9384 14 11.8696 14 11.8001C14 11.7306 13.9862 11.6618 13.9594 11.5977C13.9325 11.5336 13.8932 11.4754 13.8437 11.4266C13.7943 11.3778 13.7356 11.3393 13.6711 11.3134C13.6066 11.2875 13.5376 11.2747 13.4681 11.2757H0.531909Z" fill="black"/>
</svg>
