<svg width="14" height="15" viewBox="0 0 14 15" fill="none" xmlns="http://www.w3.org/2000/svg">
<path d="M0.531787 1.77359C0.462293 1.7726 0.393296 1.78544 0.328806 1.81136C0.264317 1.83727 0.205621 1.87574 0.15613 1.92454C0.106639 1.97334 0.0673391 2.03148 0.0405152 2.0956C0.0136913 2.15972 -0.00012207 2.22852 -0.00012207 2.29803C-0.00012207 2.36753 0.0136913 2.43633 0.0405152 2.50045C0.0673391 2.56457 0.106639 2.62271 0.15613 2.67151C0.205621 2.72031 0.264317 2.75878 0.328806 2.78469C0.393296 2.81061 0.462293 2.82345 0.531787 2.82246H13.468C13.5375 2.82345 13.6065 2.81061 13.671 2.78469C13.7354 2.75878 13.7941 2.72031 13.8436 2.67151C13.8931 2.62271 13.9324 2.56457 13.9592 2.50045C13.9861 2.43633 13.9999 2.36753 13.9999 2.29803C13.9999 2.22852 13.9861 2.15972 13.9592 2.0956C13.9324 2.03148 13.8931 1.97334 13.8436 1.92454C13.7941 1.87574 13.7354 1.83727 13.671 1.81136C13.6065 1.78544 13.5375 1.7726 13.468 1.77359H0.531787ZM0.531787 6.49354C0.462293 6.49256 0.393296 6.5054 0.328806 6.53131C0.264317 6.55723 0.205621 6.5957 0.15613 6.6445C0.106639 6.69329 0.0673391 6.75144 0.0405152 6.81556C0.0136913 6.87967 -0.00012207 6.94848 -0.00012207 7.01798C-0.00012207 7.08748 0.0136913 7.15629 0.0405152 7.22041C0.0673391 7.28453 0.106639 7.34267 0.15613 7.39147C0.205621 7.44026 0.264317 7.47874 0.328806 7.50465C0.393296 7.53057 0.462293 7.54341 0.531787 7.54242H13.468C13.5375 7.54341 13.6065 7.53057 13.671 7.50465C13.7354 7.47874 13.7941 7.44026 13.8436 7.39147C13.8931 7.34267 13.9324 7.28453 13.9592 7.22041C13.9861 7.15629 13.9999 7.08748 13.9999 7.01798C13.9999 6.94848 13.9861 6.87967 13.9592 6.81556C13.9324 6.75144 13.8931 6.69329 13.8436 6.6445C13.7941 6.5957 13.7354 6.55723 13.671 6.53131C13.6065 6.5054 13.5375 6.49256 13.468 6.49354H0.531787ZM0.531787 11.2135C0.462293 11.2125 0.393296 11.2254 0.328806 11.2513C0.264317 11.2772 0.205621 11.3157 0.15613 11.3645C0.106639 11.4133 0.0673391 11.4714 0.0405152 11.5355C0.0136913 11.5996 -0.00012207 11.6684 -0.00012207 11.7379C-0.00012207 11.8074 0.0136913 11.8763 0.0405152 11.9404C0.0673391 12.0045 0.106639 12.0626 0.15613 12.1114C0.205621 12.1602 0.264317 12.1987 0.328806 12.2246C0.393296 12.2505 0.462293 12.2634 0.531787 12.2624H13.468C13.5375 12.2634 13.6065 12.2505 13.671 12.2246C13.7354 12.1987 13.7941 12.1602 13.8436 12.1114C13.8931 12.0626 13.9324 12.0045 13.9592 11.9404C13.9861 11.8763 13.9999 11.8074 13.9999 11.7379C13.9999 11.6684 13.9861 11.5996 13.9592 11.5355C13.9324 11.4714 13.8931 11.4133 13.8436 11.3645C13.7941 11.3157 13.7354 11.2772 13.671 11.2513C13.6065 11.2254 13.5375 11.2125 13.468 11.2135H0.531787Z" fill="black"/>
</svg>
