<svg width="14" height="15" viewBox="0 0 14 15" fill="none" xmlns="http://www.w3.org/2000/svg">
<path d="M2.52778 -0.313215C1.13869 -0.313215 0 0.825476 0 2.21456V11.159C0 12.5481 1.13869 13.6868 2.52778 13.6868H11.4722C12.8613 13.6868 14 12.5481 14 11.159V2.21456C14 0.825476 12.8613 -0.313215 11.4722 -0.313215H2.52778ZM2.52778 0.853451H11.4722C12.2306 0.853451 12.8333 1.45621 12.8333 2.21456V2.7979H1.16667V2.21456C1.16667 1.45621 1.76942 0.853451 2.52778 0.853451ZM1.16667 3.96456H12.8333V11.159C12.8333 11.9174 12.2306 12.5201 11.4722 12.5201H2.52778C1.76942 12.5201 1.16667 11.9174 1.16667 11.159V3.96456ZM3.69444 5.52012C3.4366 5.52012 3.18931 5.62255 3.00698 5.80488C2.82465 5.9872 2.72222 6.23449 2.72222 6.49234C2.72222 6.75019 2.82465 6.99748 3.00698 7.17981C3.18931 7.36213 3.4366 7.46456 3.69444 7.46456C3.95229 7.46456 4.19958 7.36213 4.38191 7.17981C4.56424 6.99748 4.66667 6.75019 4.66667 6.49234C4.66667 6.23449 4.56424 5.9872 4.38191 5.80488C4.19958 5.62255 3.95229 5.52012 3.69444 5.52012ZM7 5.52012C6.74215 5.52012 6.49486 5.62255 6.31254 5.80488C6.13021 5.9872 6.02778 6.23449 6.02778 6.49234C6.02778 6.75019 6.13021 6.99748 6.31254 7.17981C6.49486 7.36213 6.74215 7.46456 7 7.46456C7.25785 7.46456 7.50514 7.36213 7.68747 7.17981C7.86979 6.99748 7.97222 6.75019 7.97222 6.49234C7.97222 6.23449 7.86979 5.9872 7.68747 5.80488C7.50514 5.62255 7.25785 5.52012 7 5.52012ZM10.3056 5.52012C10.0477 5.52012 9.80042 5.62255 9.61809 5.80488C9.43576 5.9872 9.33333 6.23449 9.33333 6.49234C9.33333 6.75019 9.43576 6.99748 9.61809 7.17981C9.80042 7.36213 10.0477 7.46456 10.3056 7.46456C10.5634 7.46456 10.8107 7.36213 10.993 7.17981C11.1753 6.99748 11.2778 6.75019 11.2778 6.49234C11.2778 6.23449 11.1753 5.9872 10.993 5.80488C10.8107 5.62255 10.5634 5.52012 10.3056 5.52012ZM3.69444 9.02012C3.4366 9.02012 3.18931 9.12255 3.00698 9.30488C2.82465 9.4872 2.72222 9.73449 2.72222 9.99234C2.72222 10.2502 2.82465 10.4975 3.00698 10.6798C3.18931 10.8621 3.4366 10.9646 3.69444 10.9646C3.95229 10.9646 4.19958 10.8621 4.38191 10.6798C4.56424 10.4975 4.66667 10.2502 4.66667 9.99234C4.66667 9.73449 4.56424 9.4872 4.38191 9.30488C4.19958 9.12255 3.95229 9.02012 3.69444 9.02012ZM7 9.02012C6.74215 9.02012 6.49486 9.12255 6.31254 9.30488C6.13021 9.4872 6.02778 9.73449 6.02778 9.99234C6.02778 10.2502 6.13021 10.4975 6.31254 10.6798C6.49486 10.8621 6.74215 10.9646 7 10.9646C7.25785 10.9646 7.50514 10.8621 7.68747 10.6798C7.86979 10.4975 7.97222 10.2502 7.97222 9.99234C7.97222 9.73449 7.86979 9.4872 7.68747 9.30488C7.50514 9.12255 7.25785 9.02012 7 9.02012Z" fill="black"/>
</svg>
