<svg width="14" height="15" viewBox="0 0 14 15" fill="none" xmlns="http://www.w3.org/2000/svg">
<g clip-path="url(#clip0_1941_10097)">
<path d="M2.275 0.173553C1.0206 0.173553 0 1.19415 0 2.44855V10.4986C0 11.753 1.0206 12.7736 2.275 12.7736H6.31982C6.11192 12.4491 5.94292 12.0974 5.82217 11.7236H2.275C1.5995 11.7236 1.05 11.1741 1.05 10.4986V4.01808H11.55V5.99572C11.9238 6.11647 12.2755 6.28581 12.6 6.49406V2.44855C12.6 1.19415 11.5794 0.173553 10.325 0.173553H2.275ZM2.275 1.22355H10.325C11.0005 1.22355 11.55 1.77305 11.55 2.44855V2.96808H1.05V2.44855C1.05 1.77305 1.5995 1.22355 2.275 1.22355ZM3.325 5.42355C3.09294 5.42355 2.87038 5.51574 2.70628 5.67983C2.54219 5.84393 2.45 6.06649 2.45 6.29855C2.45 6.53062 2.54219 6.75318 2.70628 6.91727C2.87038 7.08137 3.09294 7.17355 3.325 7.17355C3.55706 7.17355 3.77962 7.08137 3.94372 6.91727C4.10781 6.75318 4.2 6.53062 4.2 6.29855C4.2 6.06649 4.10781 5.84393 3.94372 5.67983C3.77962 5.51574 3.55706 5.42355 3.325 5.42355ZM6.3 5.42355C6.06794 5.42355 5.84538 5.51574 5.68128 5.67983C5.51719 5.84393 5.425 6.06649 5.425 6.29855C5.425 6.53062 5.51719 6.75318 5.68128 6.91727C5.84538 7.08137 6.06794 7.17355 6.3 7.17355C6.53206 7.17355 6.75462 7.08137 6.91872 6.91727C7.08281 6.75318 7.175 6.53062 7.175 6.29855C7.175 6.06649 7.08281 5.84393 6.91872 5.67983C6.75462 5.51574 6.53206 5.42355 6.3 5.42355ZM10.15 6.47355C8.02375 6.47355 6.3 8.1973 6.3 10.3236C6.3 12.4498 8.02375 14.1736 10.15 14.1736C12.2762 14.1736 14 12.4498 14 10.3236C14 8.1973 12.2762 6.47355 10.15 6.47355ZM8.4 8.22355C8.48951 8.22355 8.57904 8.25767 8.64746 8.32609L10.15 9.82863L11.6525 8.32609C11.7894 8.18924 12.0106 8.18924 12.1475 8.32609C12.2843 8.46294 12.2843 8.68416 12.1475 8.82101L10.6449 10.3236L12.1475 11.8261C12.2843 11.9629 12.2843 12.1842 12.1475 12.321C12.0792 12.3893 11.9896 12.4236 11.9 12.4236C11.8104 12.4236 11.7208 12.3893 11.6525 12.321L10.15 10.8185L8.64746 12.321C8.57921 12.3893 8.4896 12.4236 8.4 12.4236C8.3104 12.4236 8.22079 12.3893 8.15254 12.321C8.01569 12.1842 8.01569 11.9629 8.15254 11.8261L9.65508 10.3236L8.15254 8.82101C8.01569 8.68416 8.01569 8.46294 8.15254 8.32609C8.22096 8.25767 8.31049 8.22355 8.4 8.22355ZM3.325 8.57355C3.09294 8.57355 2.87038 8.66574 2.70628 8.82983C2.54219 8.99393 2.45 9.21649 2.45 9.44855C2.45 9.68062 2.54219 9.90318 2.70628 10.0673C2.87038 10.2314 3.09294 10.3236 3.325 10.3236C3.55706 10.3236 3.77962 10.2314 3.94372 10.0673C4.10781 9.90318 4.2 9.68062 4.2 9.44855C4.2 9.21649 4.10781 8.99393 3.94372 8.82983C3.77962 8.66574 3.55706 8.57355 3.325 8.57355Z" fill="black"/>
</g>
<defs>
<clipPath id="clip0_1941_10097">
<rect width="14" height="14" fill="white" transform="translate(0 0.173553)"/>
</clipPath>
</defs>
</svg>
