<svg width="14" height="16" viewBox="0 0 14 16" fill="none" xmlns="http://www.w3.org/2000/svg">
<path d="M2.52778 0.77356C1.13869 0.77356 0 1.91225 0 3.30134V12.2458C0 13.6349 1.13869 14.7736 2.52778 14.7736H11.4722C12.8613 14.7736 14 13.6349 14 12.2458V3.30134C14 1.91225 12.8613 0.77356 11.4722 0.77356H2.52778ZM2.52778 1.94023H11.4722C12.2306 1.94023 12.8333 2.54298 12.8333 3.30134V3.88467H1.16667V3.30134C1.16667 2.54298 1.76942 1.94023 2.52778 1.94023ZM1.16667 5.05134H12.8333V12.2458C12.8333 13.0041 12.2306 13.6069 11.4722 13.6069H2.52778C1.76942 13.6069 1.16667 13.0041 1.16667 12.2458V5.05134ZM3.69444 6.60689C3.4366 6.60689 3.18931 6.70932 3.00698 6.89165C2.82465 7.07398 2.72222 7.32127 2.72222 7.57912C2.72222 7.83696 2.82465 8.08425 3.00698 8.26658C3.18931 8.44891 3.4366 8.55134 3.69444 8.55134C3.95229 8.55134 4.19958 8.44891 4.38191 8.26658C4.56424 8.08425 4.66667 7.83696 4.66667 7.57912C4.66667 7.32127 4.56424 7.07398 4.38191 6.89165C4.19958 6.70932 3.95229 6.60689 3.69444 6.60689ZM7 6.60689C6.74215 6.60689 6.49486 6.70932 6.31254 6.89165C6.13021 7.07398 6.02778 7.32127 6.02778 7.57912C6.02778 7.83696 6.13021 8.08425 6.31254 8.26658C6.49486 8.44891 6.74215 8.55134 7 8.55134C7.25785 8.55134 7.50514 8.44891 7.68747 8.26658C7.86979 8.08425 7.97222 7.83696 7.97222 7.57912C7.97222 7.32127 7.86979 7.07398 7.68747 6.89165C7.50514 6.70932 7.25785 6.60689 7 6.60689ZM10.3056 6.60689C10.0477 6.60689 9.80042 6.70932 9.61809 6.89165C9.43576 7.07398 9.33333 7.32127 9.33333 7.57912C9.33333 7.83696 9.43576 8.08425 9.61809 8.26658C9.80042 8.44891 10.0477 8.55134 10.3056 8.55134C10.5634 8.55134 10.8107 8.44891 10.993 8.26658C11.1753 8.08425 11.2778 7.83696 11.2778 7.57912C11.2778 7.32127 11.1753 7.07398 10.993 6.89165C10.8107 6.70932 10.5634 6.60689 10.3056 6.60689ZM3.69444 10.1069C3.4366 10.1069 3.18931 10.2093 3.00698 10.3917C2.82465 10.574 2.72222 10.8213 2.72222 11.0791C2.72222 11.337 2.82465 11.5843 3.00698 11.7666C3.18931 11.9489 3.4366 12.0513 3.69444 12.0513C3.95229 12.0513 4.19958 11.9489 4.38191 11.7666C4.56424 11.5843 4.66667 11.337 4.66667 11.0791C4.66667 10.8213 4.56424 10.574 4.38191 10.3917C4.19958 10.2093 3.95229 10.1069 3.69444 10.1069ZM7 10.1069C6.74215 10.1069 6.49486 10.2093 6.31254 10.3917C6.13021 10.574 6.02778 10.8213 6.02778 11.0791C6.02778 11.337 6.13021 11.5843 6.31254 11.7666C6.49486 11.9489 6.74215 12.0513 7 12.0513C7.25785 12.0513 7.50514 11.9489 7.68747 11.7666C7.86979 11.5843 7.97222 11.337 7.97222 11.0791C7.97222 10.8213 7.86979 10.574 7.68747 10.3917C7.50514 10.2093 7.25785 10.1069 7 10.1069Z" fill="black"/>
</svg>
