<svg width="14" height="15" viewBox="0 0 14 15" fill="none" xmlns="http://www.w3.org/2000/svg">
<g clip-path="url(#clip0_376_3288)">
<path d="M7 0.173553C3.14022 0.173553 0 3.31378 0 7.17355C0 11.0333 3.14022 14.1736 7 14.1736C10.8598 14.1736 14 11.0333 14 7.17355C14 3.31378 10.8598 0.173553 7 0.173553ZM7 1.22355C8.45598 1.22355 9.77006 1.76377 10.8028 2.62834L2.45479 10.9757C1.59042 9.94298 1.05 8.62934 1.05 7.17355C1.05 3.88124 3.70768 1.22355 7 1.22355ZM11.5452 3.37072C12.4098 4.4035 12.95 5.71757 12.95 7.17355C12.95 10.4659 10.2923 13.1236 7 13.1236C5.54421 13.1236 4.23057 12.5831 3.19785 11.7188L11.5452 3.37072Z" fill="black"/>
</g>
<defs>
<clipPath id="clip0_376_3288">
<rect width="14" height="14" fill="white" transform="translate(0 0.173553)"/>
</clipPath>
</defs>
</svg>
