<svg width="14" height="15" viewBox="0 0 14 15" fill="none" xmlns="http://www.w3.org/2000/svg">
<g clip-path="url(#clip0_376_3288)">
<path d="M7 0.23584C3.14022 0.23584 0 3.37607 0 7.23584C0 11.0956 3.14022 14.2358 7 14.2358C10.8598 14.2358 14 11.0956 14 7.23584C14 3.37607 10.8598 0.23584 7 0.23584ZM7 1.28584C8.45598 1.28584 9.77006 1.82606 10.8028 2.69062L2.45479 11.038C1.59042 10.0053 1.05 8.69163 1.05 7.23584C1.05 3.94353 3.70768 1.28584 7 1.28584ZM11.5452 3.43301C12.4098 4.46578 12.95 5.77986 12.95 7.23584C12.95 10.5282 10.2923 13.1858 7 13.1858C5.54421 13.1858 4.23057 12.6454 3.19785 11.7811L11.5452 3.43301Z" fill="black"/>
</g>
<defs>
<clipPath id="clip0_376_3288">
<rect width="14" height="14" fill="white" transform="translate(0 0.23584)"/>
</clipPath>
</defs>
</svg>
