<svg width="14" height="15" viewBox="0 0 14 15" fill="none" xmlns="http://www.w3.org/2000/svg">
<path d="M1.83333 2.06939C0.826742 2.06939 0 2.89613 0 3.90272V8.90272C0 9.90931 0.826742 10.7361 1.83333 10.7361H10.5C11.5066 10.7361 12.3333 9.90931 12.3333 8.90272V3.90272C12.3333 2.89613 11.5066 2.06939 10.5 2.06939H1.83333ZM1.83333 3.06939H10.5C10.9661 3.06939 11.3333 3.43665 11.3333 3.90272V4.40272H1V3.90272C1 3.43665 1.36726 3.06939 1.83333 3.06939ZM13 3.74582V8.90272C13 10.2827 11.88 11.4027 10.5 11.4027H2.00977C2.39643 12.0027 3.07 12.4027 3.83333 12.4027H10.5C12.43 12.4027 14 10.8327 14 8.90272V5.56939C14 4.80606 13.6 4.13249 13 3.74582ZM1 5.40272H11.3333V8.90272C11.3333 9.3688 10.9661 9.73606 10.5 9.73606H1.83333C1.36726 9.73606 1 9.3688 1 8.90272V5.40272ZM8.16667 7.73606C8.10041 7.73512 8.03463 7.74736 7.97315 7.77207C7.91166 7.79677 7.8557 7.83345 7.80852 7.87998C7.76133 7.9265 7.72386 7.98193 7.69829 8.04306C7.67272 8.10419 7.65955 8.16979 7.65955 8.23606C7.65955 8.30232 7.67272 8.36792 7.69829 8.42905C7.72386 8.49018 7.76133 8.54561 7.80852 8.59214C7.8557 8.63866 7.91166 8.67534 7.97315 8.70005C8.03463 8.72475 8.10041 8.73699 8.16667 8.73606H9.83333C9.89959 8.73699 9.96537 8.72475 10.0269 8.70005C10.0883 8.67534 10.1443 8.63866 10.1915 8.59214C10.2387 8.54561 10.2761 8.49018 10.3017 8.42905C10.3273 8.36792 10.3405 8.30232 10.3405 8.23606C10.3405 8.16979 10.3273 8.10419 10.3017 8.04306C10.2761 7.98193 10.2387 7.9265 10.1915 7.87998C10.1443 7.83345 10.0883 7.79677 10.0269 7.77207C9.96537 7.74736 9.89959 7.73512 9.83333 7.73606H8.16667Z" fill="black"/>
</svg>
