<svg width="14" height="15" viewBox="0 0 14 15" fill="none" xmlns="http://www.w3.org/2000/svg">
<path d="M0.483844 1.83599C0.420629 1.83509 0.357867 1.84677 0.299205 1.87034C0.240543 1.89392 0.187151 1.92891 0.142132 1.9733C0.0971133 2.01769 0.0613651 2.07058 0.0369651 2.1289C0.0125651 2.18722 0 2.24981 0 2.31303C0 2.37626 0.0125651 2.43885 0.0369651 2.49717C0.0613651 2.55549 0.0971133 2.60838 0.142132 2.65277C0.187151 2.69716 0.240543 2.73215 0.299205 2.75573C0.357867 2.7793 0.420629 2.79098 0.483844 2.79008H1.3603C1.5918 2.79008 1.78479 2.95003 1.82865 3.17769L1.92369 3.67461L2.94922 9.06068C3.13467 10.0324 3.99084 10.7409 4.98041 10.7409H10.9348C11.9244 10.7409 12.7809 10.0327 12.966 9.06068L13.9915 3.67461C14.0047 3.60565 14.0025 3.53464 13.985 3.46664C13.9676 3.39863 13.9353 3.33532 13.8906 3.28121C13.8459 3.22711 13.7897 3.18354 13.7262 3.15362C13.6627 3.1237 13.5934 3.10816 13.5232 3.10812H2.78648L2.76598 2.99941C2.63777 2.32752 2.04442 1.83599 1.3603 1.83599H0.483844ZM2.96848 4.06222H12.9468L12.0287 8.8824C11.9282 9.41022 11.4725 9.78681 10.9348 9.78681H4.98041C4.44298 9.78681 3.98754 9.4102 3.88655 8.8824V8.88178L2.96848 4.06222ZM5.73139 11.377C5.47835 11.377 5.23567 11.4775 5.05674 11.6564C4.87781 11.8354 4.77729 12.078 4.77729 12.3311C4.77729 12.5841 4.87781 12.8268 5.05674 13.0057C5.23567 13.1847 5.47835 13.2852 5.73139 13.2852C5.98443 13.2852 6.22711 13.1847 6.40604 13.0057C6.58497 12.8268 6.68549 12.5841 6.68549 12.3311C6.68549 12.078 6.58497 11.8354 6.40604 11.6564C6.22711 11.4775 5.98443 11.377 5.73139 11.377ZM10.1838 11.377C9.93081 11.377 9.68813 11.4775 9.5092 11.6564C9.33027 11.8354 9.22975 12.078 9.22975 12.3311C9.22975 12.5841 9.33027 12.8268 9.5092 13.0057C9.68813 13.1847 9.93081 13.2852 10.1838 13.2852C10.4369 13.2852 10.6796 13.1847 10.8585 13.0057C11.0374 12.8268 11.1379 12.5841 11.1379 12.3311C11.1379 12.078 11.0374 11.8354 10.8585 11.6564C10.6796 11.4775 10.4369 11.377 10.1838 11.377Z" fill="black"/>
</svg>
