<svg width="14" height="15" viewBox="0 0 14 15" fill="none" xmlns="http://www.w3.org/2000/svg">
<path d="M0.483844 1.7737C0.420629 1.7728 0.357867 1.78448 0.299205 1.80806C0.240543 1.83163 0.187151 1.86663 0.142132 1.91101C0.0971133 1.9554 0.0613651 2.00829 0.0369651 2.06661C0.0125651 2.12494 0 2.18753 0 2.25075C0 2.31397 0.0125651 2.37656 0.0369651 2.43488C0.0613651 2.49321 0.0971133 2.5461 0.142132 2.59048C0.187151 2.63487 0.240543 2.66987 0.299205 2.69344C0.357867 2.71701 0.420629 2.72869 0.483844 2.7278H1.3603C1.5918 2.7278 1.78479 2.88774 1.82865 3.1154L1.92369 3.61233L2.94922 8.99839C3.13467 9.97015 3.99084 10.6786 4.98041 10.6786H10.9348C11.9244 10.6786 12.7809 9.97042 12.966 8.99839L13.9915 3.61233C14.0047 3.54337 14.0025 3.47235 13.985 3.40435C13.9676 3.33635 13.9353 3.27304 13.8906 3.21893C13.8459 3.16482 13.7897 3.12125 13.7262 3.09133C13.6627 3.06141 13.5934 3.04587 13.5232 3.04583H2.78648L2.76598 2.93713C2.63777 2.26523 2.04442 1.7737 1.3603 1.7737H0.483844ZM2.96848 3.99993H12.9468L12.0287 8.82012C11.9282 9.34793 11.4725 9.72452 10.9348 9.72452H4.98041C4.44298 9.72452 3.98754 9.34791 3.88655 8.82012V8.8195L2.96848 3.99993ZM5.73139 11.3147C5.47835 11.3147 5.23567 11.4152 5.05674 11.5941C4.87781 11.7731 4.77729 12.0157 4.77729 12.2688C4.77729 12.5218 4.87781 12.7645 5.05674 12.9434C5.23567 13.1224 5.47835 13.2229 5.73139 13.2229C5.98443 13.2229 6.22711 13.1224 6.40604 12.9434C6.58497 12.7645 6.68549 12.5218 6.68549 12.2688C6.68549 12.0157 6.58497 11.7731 6.40604 11.5941C6.22711 11.4152 5.98443 11.3147 5.73139 11.3147ZM10.1838 11.3147C9.93081 11.3147 9.68813 11.4152 9.5092 11.5941C9.33027 11.7731 9.22975 12.0157 9.22975 12.2688C9.22975 12.5218 9.33027 12.7645 9.5092 12.9434C9.68813 13.1224 9.93081 13.2229 10.1838 13.2229C10.4369 13.2229 10.6796 13.1224 10.8585 12.9434C11.0374 12.7645 11.1379 12.5218 11.1379 12.2688C11.1379 12.0157 11.0374 11.7731 10.8585 11.5941C10.6796 11.4152 10.4369 11.3147 10.1838 11.3147Z" fill="black"/>
</svg>
