<svg width="14" height="15" viewBox="0 0 14 15" fill="none" xmlns="http://www.w3.org/2000/svg">
<g clip-path="url(#clip0_6_12)">
<path d="M2.9845 0.173815C2.91476 0.172551 2.84546 0.185196 2.78066 0.211012C2.71586 0.236828 2.65685 0.275298 2.60709 0.324174C2.55732 0.37305 2.51779 0.431352 2.49081 0.495676C2.46383 0.56 2.44993 0.629056 2.44993 0.69881V2.33805C1.4507 2.57736 0.699951 3.47946 0.699951 4.54877V11.8987C0.699951 13.1489 1.72476 14.1737 2.97493 14.1737H11.0249C12.275 14.1737 13.2998 13.1489 13.2998 11.8987V4.54877C13.2998 3.47946 12.5491 2.57736 11.5499 2.33805V0.69881C11.5499 0.611327 11.528 0.525226 11.4863 0.448332C11.4446 0.371438 11.3843 0.306188 11.3109 0.25851C11.2376 0.210833 11.1535 0.182239 11.0663 0.175327C10.9791 0.168415 10.8915 0.183404 10.8116 0.218932L9.50045 0.802032L8.69109 0.261998C8.61412 0.210713 8.52497 0.18067 8.43266 0.174908C8.34035 0.169146 8.24816 0.18787 8.16541 0.229186L6.99989 0.811602L5.83438 0.229186C5.75163 0.18787 5.65943 0.169146 5.56712 0.174908C5.47482 0.18067 5.38567 0.210713 5.3087 0.261998L4.49933 0.802032L3.18821 0.218932C3.12401 0.190417 3.05474 0.175075 2.9845 0.173815ZM5.6375 1.30447L6.76542 1.86843C6.83824 1.90477 6.91851 1.92369 6.99989 1.92369C7.08128 1.92369 7.16155 1.90477 7.23436 1.86843L8.36228 1.30447L9.15866 1.83562C9.2323 1.88474 9.31717 1.91445 9.40537 1.92198C9.49357 1.92951 9.58225 1.91461 9.66315 1.87868L10.4999 1.50681V2.71266C10.4906 2.76902 10.4906 2.82651 10.4999 2.88287V4.72377H3.49993V2.88492C3.50918 2.82856 3.50918 2.77107 3.49993 2.71471V1.50681L4.33664 1.87868C4.41754 1.91461 4.50621 1.92951 4.59441 1.92198C4.68262 1.91445 4.76748 1.88474 4.84112 1.83562L5.6375 1.30447ZM2.44993 3.4441V5.24877C2.44995 5.388 2.50526 5.52153 2.60372 5.61998C2.70217 5.71843 2.8357 5.77375 2.97493 5.77376H11.0249C11.1641 5.77375 11.2976 5.71843 11.3961 5.61998C11.4945 5.52153 11.5498 5.388 11.5499 5.24877V3.4441C11.9645 3.63922 12.2498 4.05563 12.2498 4.54877V10.6737H1.74994V4.54877C1.74994 4.05563 2.03532 3.63922 2.44993 3.4441ZM4.54992 6.47376C4.36427 6.47376 4.18622 6.54751 4.05495 6.67878C3.92367 6.81005 3.84992 6.9881 3.84992 7.17375C3.84992 7.3594 3.92367 7.53745 4.05495 7.66872C4.18622 7.79999 4.36427 7.87374 4.54992 7.87374C4.73557 7.87374 4.91361 7.79999 5.04489 7.66872C5.17616 7.53745 5.24991 7.3594 5.24991 7.17375C5.24991 6.9881 5.17616 6.81005 5.04489 6.67878C4.91361 6.54751 4.73557 6.47376 4.54992 6.47376ZM6.99989 6.47376C6.81424 6.47376 6.6362 6.54751 6.50492 6.67878C6.37365 6.81005 6.2999 6.9881 6.2999 7.17375C6.2999 7.3594 6.37365 7.53745 6.50492 7.66872C6.6362 7.79999 6.81424 7.87374 6.99989 7.87374C7.18554 7.87374 7.36359 7.79999 7.49486 7.66872C7.62614 7.53745 7.69989 7.3594 7.69989 7.17375C7.69989 6.9881 7.62614 6.81005 7.49486 6.67878C7.36359 6.54751 7.18554 6.47376 6.99989 6.47376ZM9.44987 6.47376C9.26422 6.47376 9.08617 6.54751 8.9549 6.67878C8.82363 6.81005 8.74988 6.9881 8.74988 7.17375C8.74988 7.3594 8.82363 7.53745 8.9549 7.66872C9.08617 7.79999 9.26422 7.87374 9.44987 7.87374C9.63552 7.87374 9.81357 7.79999 9.94484 7.66872C10.0761 7.53745 10.1499 7.3594 10.1499 7.17375C10.1499 6.9881 10.0761 6.81005 9.94484 6.67878C9.81357 6.54751 9.63552 6.47376 9.44987 6.47376ZM4.54992 8.57374C4.36427 8.57374 4.18622 8.64749 4.05495 8.77876C3.92367 8.91004 3.84992 9.08808 3.84992 9.27373C3.84992 9.45938 3.92367 9.63743 4.05495 9.7687C4.18622 9.89998 4.36427 9.97372 4.54992 9.97372C4.73557 9.97372 4.91361 9.89998 5.04489 9.7687C5.17616 9.63743 5.24991 9.45938 5.24991 9.27373C5.24991 9.08808 5.17616 8.91004 5.04489 8.77876C4.91361 8.64749 4.73557 8.57374 4.54992 8.57374ZM6.99989 8.57374C6.81424 8.57374 6.6362 8.64749 6.50492 8.77876C6.37365 8.91004 6.2999 9.08808 6.2999 9.27373C6.2999 9.45938 6.37365 9.63743 6.50492 9.7687C6.6362 9.89998 6.81424 9.97372 6.99989 9.97372C7.18554 9.97372 7.36359 9.89998 7.49486 9.7687C7.62614 9.63743 7.69989 9.45938 7.69989 9.27373C7.69989 9.08808 7.62614 8.91004 7.49486 8.77876C7.36359 8.64749 7.18554 8.57374 6.99989 8.57374ZM9.44987 8.57374C9.26422 8.57374 9.08617 8.64749 8.9549 8.77876C8.82363 8.91004 8.74988 9.08808 8.74988 9.27373C8.74988 9.45938 8.82363 9.63743 8.9549 9.7687C9.08617 9.89998 9.26422 9.97372 9.44987 9.97372C9.63552 9.97372 9.81357 9.89998 9.94484 9.7687C10.0761 9.63743 10.1499 9.45938 10.1499 9.27373C10.1499 9.08808 10.0761 8.91004 9.94484 8.77876C9.81357 8.64749 9.63552 8.57374 9.44987 8.57374ZM1.74994 11.7237H12.2498V11.8987C12.2498 12.5812 11.7074 13.1237 11.0249 13.1237H7.6992C7.6992 12.9382 7.62555 12.7602 7.49442 12.629C7.36329 12.4977 7.18542 12.4239 6.99989 12.4237C6.81436 12.4239 6.63649 12.4977 6.50536 12.629C6.37424 12.7602 6.30058 12.9382 6.30058 13.1237H2.97493C2.29241 13.1237 1.74994 12.5812 1.74994 11.8987V11.7237Z" fill="black"/>
</g>
<defs>
<clipPath id="clip0_6_12">
<rect width="13.9999" height="14" fill="white" transform="translate(0 0.173557)"/>
</clipPath>
</defs>
</svg>
