<svg width="14" height="15" viewBox="0 0 14 15" fill="none" xmlns="http://www.w3.org/2000/svg">
<g clip-path="url(#clip0_580_4855)">
<path d="M1.28947 0.67334C0.583964 0.67334 0 1.2573 0 1.96281V8.22597C0 8.93148 0.583964 9.51544 1.28947 9.51544H12.7105C13.416 9.51544 14 8.93148 14 8.22597V1.96281C14 1.2573 13.416 0.67334 12.7105 0.67334H1.28947ZM2.21053 1.7786H11.7895C11.7895 2.39018 12.2832 2.88387 12.8947 2.88387V7.30492C12.2832 7.30492 11.7895 7.7986 11.7895 8.41018H2.21053C2.21053 7.7986 1.71684 7.30492 1.10526 7.30492V2.88387C1.71684 2.88387 2.21053 2.39018 2.21053 1.7786ZM7 2.51545C6.27851 2.51545 5.67194 2.87801 5.30972 3.37605C4.94751 3.8741 4.78947 4.48734 4.78947 5.09439C4.78947 5.70145 4.94751 6.31469 5.30972 6.81273C5.67194 7.31077 6.27851 7.67334 7 7.67334C7.72149 7.67334 8.32806 7.31077 8.69028 6.81273C9.05249 6.31469 9.21053 5.70145 9.21053 5.09439C9.21053 4.48734 9.05249 3.8741 8.69028 3.37605C8.32806 2.87801 7.72149 2.51545 7 2.51545ZM7 3.62071C7.38377 3.62071 7.60615 3.76472 7.79657 4.02655C7.98699 4.28837 8.10526 4.68829 8.10526 5.09439C8.10526 5.50049 7.98699 5.90041 7.79657 6.16224C7.60615 6.42406 7.38377 6.56808 7 6.56808C6.61623 6.56808 6.39385 6.42406 6.20343 6.16224C6.01301 5.90041 5.89474 5.50049 5.89474 5.09439C5.89474 4.68829 6.01301 4.28837 6.20343 4.02655C6.39385 3.76472 6.61623 3.62071 7 3.62071ZM2.57895 4.35755C2.38352 4.35755 2.19611 4.43518 2.05792 4.57337C1.91974 4.71155 1.84211 4.89897 1.84211 5.09439C1.84211 5.28981 1.91974 5.47723 2.05792 5.61542C2.19611 5.7536 2.38352 5.83123 2.57895 5.83123C2.77437 5.83123 2.96179 5.7536 3.09997 5.61542C3.23816 5.47723 3.31579 5.28981 3.31579 5.09439C3.31579 4.89897 3.23816 4.71155 3.09997 4.57337C2.96179 4.43518 2.77437 4.35755 2.57895 4.35755ZM11.4211 4.35755C11.2256 4.35755 11.0382 4.43518 10.9 4.57337C10.7618 4.71155 10.6842 4.89897 10.6842 5.09439C10.6842 5.28981 10.7618 5.47723 10.9 5.61542C11.0382 5.7536 11.2256 5.83123 11.4211 5.83123C11.6165 5.83123 11.8039 5.7536 11.9421 5.61542C12.0803 5.47723 12.1579 5.28981 12.1579 5.09439C12.1579 4.89897 12.0803 4.71155 11.9421 4.57337C11.8039 4.43518 11.6165 4.35755 11.4211 4.35755ZM1.12181 10.2516C1.20323 10.8613 1.70705 11.3347 2.34221 11.3568C6.34879 11.4954 9.31458 12.8303 10.908 13.5472C11.1917 13.6751 11.4357 13.7842 11.6376 13.8667C11.7493 13.9124 11.8662 13.9351 11.983 13.9351C12.1614 13.9351 12.3378 13.8824 12.4903 13.7804C12.7434 13.6105 12.8947 13.3263 12.8947 13.0205V10.2523H11.7895V11.726C11.3712 11.726 11.0123 11.9593 10.8245 12.3009C9.07464 11.5284 6.19298 10.384 2.38035 10.2523C2.37961 10.2523 2.37891 10.2516 2.37891 10.2516H1.12181Z" fill="black"/>
</g>
<defs>
<clipPath id="clip0_580_4855">
<rect width="14" height="14" fill="white" transform="translate(0 0.23584)"/>
</clipPath>
</defs>
</svg>
