<svg width="14" height="15" viewBox="0 0 14 15" fill="none" xmlns="http://www.w3.org/2000/svg">
<g clip-path="url(#clip0_580_4855)">
<path d="M1.28947 0.611053C0.583964 0.611053 0 1.19502 0 1.90053V8.16368C0 8.86919 0.583964 9.45316 1.28947 9.45316H12.7105C13.416 9.45316 14 8.86919 14 8.16368V1.90053C14 1.19502 13.416 0.611053 12.7105 0.611053H1.28947ZM2.21053 1.71632H11.7895C11.7895 2.3279 12.2832 2.82158 12.8947 2.82158V7.24263C12.2832 7.24263 11.7895 7.73632 11.7895 8.3479H2.21053C2.21053 7.73632 1.71684 7.24263 1.10526 7.24263V2.82158C1.71684 2.82158 2.21053 2.3279 2.21053 1.71632ZM7 2.45316C6.27851 2.45316 5.67194 2.81572 5.30972 3.31377C4.94751 3.81181 4.78947 4.42505 4.78947 5.03211C4.78947 5.63916 4.94751 6.2524 5.30972 6.75044C5.67194 7.24849 6.27851 7.61105 7 7.61105C7.72149 7.61105 8.32806 7.24849 8.69028 6.75044C9.05249 6.2524 9.21053 5.63916 9.21053 5.03211C9.21053 4.42505 9.05249 3.81181 8.69028 3.31377C8.32806 2.81572 7.72149 2.45316 7 2.45316ZM7 3.55842C7.38377 3.55842 7.60615 3.70244 7.79657 3.96426C7.98699 4.22609 8.10526 4.62601 8.10526 5.03211C8.10526 5.43821 7.98699 5.83813 7.79657 6.09995C7.60615 6.36178 7.38377 6.50579 7 6.50579C6.61623 6.50579 6.39385 6.36178 6.20343 6.09995C6.01301 5.83813 5.89474 5.43821 5.89474 5.03211C5.89474 4.62601 6.01301 4.22609 6.20343 3.96426C6.39385 3.70244 6.61623 3.55842 7 3.55842ZM2.57895 4.29526C2.38352 4.29526 2.19611 4.3729 2.05792 4.51108C1.91974 4.64926 1.84211 4.83668 1.84211 5.03211C1.84211 5.22753 1.91974 5.41495 2.05792 5.55313C2.19611 5.69132 2.38352 5.76895 2.57895 5.76895C2.77437 5.76895 2.96179 5.69132 3.09997 5.55313C3.23816 5.41495 3.31579 5.22753 3.31579 5.03211C3.31579 4.83668 3.23816 4.64926 3.09997 4.51108C2.96179 4.3729 2.77437 4.29526 2.57895 4.29526ZM11.4211 4.29526C11.2256 4.29526 11.0382 4.3729 10.9 4.51108C10.7618 4.64926 10.6842 4.83668 10.6842 5.03211C10.6842 5.22753 10.7618 5.41495 10.9 5.55313C11.0382 5.69132 11.2256 5.76895 11.4211 5.76895C11.6165 5.76895 11.8039 5.69132 11.9421 5.55313C12.0803 5.41495 12.1579 5.22753 12.1579 5.03211C12.1579 4.83668 12.0803 4.64926 11.9421 4.51108C11.8039 4.3729 11.6165 4.29526 11.4211 4.29526ZM1.12181 10.1893C1.20323 10.799 1.70705 11.2724 2.34221 11.2945C6.34879 11.4331 9.31458 12.768 10.908 13.4849C11.1917 13.6128 11.4357 13.7219 11.6376 13.8044C11.7493 13.8501 11.8662 13.8728 11.983 13.8728C12.1614 13.8728 12.3378 13.8201 12.4903 13.7181C12.7434 13.5482 12.8947 13.264 12.8947 12.9582V10.19H11.7895V11.6637C11.3712 11.6637 11.0123 11.897 10.8245 12.2386C9.07464 11.4661 6.19298 10.3217 2.38035 10.19C2.37961 10.19 2.37891 10.1893 2.37891 10.1893H1.12181Z" fill="black"/>
</g>
<defs>
<clipPath id="clip0_580_4855">
<rect width="14" height="14" fill="white" transform="translate(0 0.173553)"/>
</clipPath>
</defs>
</svg>
