<svg width="14" height="15" viewBox="0 0 14 15" fill="none" xmlns="http://www.w3.org/2000/svg">
<g clip-path="url(#clip0_6_12)">
<path d="M2.98453 0.235969C2.91479 0.234705 2.84549 0.24735 2.78069 0.273166C2.71589 0.298982 2.65688 0.337452 2.60712 0.386328C2.55735 0.435204 2.51782 0.493507 2.49084 0.557831C2.46386 0.622155 2.44996 0.691211 2.44997 0.760965V2.40021C1.45073 2.63951 0.699982 3.54162 0.699982 4.61093V11.9609C0.699982 13.211 1.72479 14.2358 2.97496 14.2358H11.0249C12.2751 14.2358 13.2999 13.211 13.2999 11.9609V4.61093C13.2999 3.54162 12.5491 2.63951 11.5499 2.40021V0.760965C11.5499 0.673481 11.528 0.58738 11.4863 0.510486C11.4446 0.433593 11.3843 0.368342 11.311 0.320665C11.2376 0.272987 11.1535 0.244393 11.0663 0.237481C10.9791 0.230569 10.8916 0.245558 10.8116 0.281086L9.50049 0.864186L8.69112 0.324152C8.61415 0.272867 8.525 0.242824 8.43269 0.237062C8.34038 0.2313 8.24819 0.250025 8.16544 0.29134L6.99992 0.873757L5.83441 0.29134C5.75166 0.250025 5.65946 0.2313 5.56716 0.237062C5.47485 0.242824 5.3857 0.272867 5.30873 0.324152L4.49936 0.864186L3.18824 0.281086C3.12404 0.252571 3.05477 0.237229 2.98453 0.235969ZM5.63753 1.36662L6.76545 1.93058C6.83827 1.96693 6.91854 1.98584 6.99992 1.98584C7.08131 1.98584 7.16158 1.96693 7.23439 1.93058L8.36231 1.36662L9.15869 1.89777C9.23233 1.9469 9.3172 1.9766 9.4054 1.98413C9.4936 1.99166 9.58228 1.97677 9.66318 1.94084L10.4999 1.56896V2.77481C10.4906 2.83117 10.4906 2.88867 10.4999 2.94503V4.78593H3.49996V2.94708C3.50921 2.89072 3.50921 2.83322 3.49996 2.77686V1.56896L4.33667 1.94084C4.41757 1.97677 4.50624 1.99166 4.59444 1.98413C4.68265 1.9766 4.76751 1.9469 4.84115 1.89777L5.63753 1.36662ZM2.44997 3.50625V5.31092C2.44998 5.45016 2.5053 5.58368 2.60375 5.68213C2.7022 5.78059 2.83573 5.8359 2.97496 5.83592H11.0249C11.1641 5.8359 11.2976 5.78059 11.3961 5.68213C11.4946 5.58368 11.5499 5.45016 11.5499 5.31092V3.50625C11.9645 3.70137 12.2499 4.11778 12.2499 4.61093V10.7359H1.74997V4.61093C1.74997 4.11778 2.03535 3.70137 2.44997 3.50625ZM4.54995 6.53591C4.3643 6.53591 4.18625 6.60966 4.05498 6.74093C3.9237 6.87221 3.84995 7.05025 3.84995 7.2359C3.84995 7.42155 3.9237 7.5996 4.05498 7.73088C4.18625 7.86215 4.3643 7.9359 4.54995 7.9359C4.7356 7.9359 4.91364 7.86215 5.04492 7.73088C5.17619 7.5996 5.24994 7.42155 5.24994 7.2359C5.24994 7.05025 5.17619 6.87221 5.04492 6.74093C4.91364 6.60966 4.7356 6.53591 4.54995 6.53591ZM6.99992 6.53591C6.81427 6.53591 6.63623 6.60966 6.50495 6.74093C6.37368 6.87221 6.29993 7.05025 6.29993 7.2359C6.29993 7.42155 6.37368 7.5996 6.50495 7.73088C6.63623 7.86215 6.81427 7.9359 6.99992 7.9359C7.18557 7.9359 7.36362 7.86215 7.49489 7.73088C7.62617 7.5996 7.69992 7.42155 7.69992 7.2359C7.69992 7.05025 7.62617 6.87221 7.49489 6.74093C7.36362 6.60966 7.18557 6.53591 6.99992 6.53591ZM9.4499 6.53591C9.26425 6.53591 9.0862 6.60966 8.95493 6.74093C8.82366 6.87221 8.74991 7.05025 8.74991 7.2359C8.74991 7.42155 8.82366 7.5996 8.95493 7.73088C9.0862 7.86215 9.26425 7.9359 9.4499 7.9359C9.63555 7.9359 9.8136 7.86215 9.94487 7.73088C10.0761 7.5996 10.1499 7.42155 10.1499 7.2359C10.1499 7.05025 10.0761 6.87221 9.94487 6.74093C9.8136 6.60966 9.63555 6.53591 9.4499 6.53591ZM4.54995 8.63589C4.3643 8.63589 4.18625 8.70964 4.05498 8.84092C3.9237 8.97219 3.84995 9.15024 3.84995 9.33589C3.84995 9.52153 3.9237 9.69958 4.05498 9.83086C4.18625 9.96213 4.3643 10.0359 4.54995 10.0359C4.7356 10.0359 4.91364 9.96213 5.04492 9.83086C5.17619 9.69958 5.24994 9.52153 5.24994 9.33589C5.24994 9.15024 5.17619 8.97219 5.04492 8.84092C4.91364 8.70964 4.7356 8.63589 4.54995 8.63589ZM6.99992 8.63589C6.81427 8.63589 6.63623 8.70964 6.50495 8.84092C6.37368 8.97219 6.29993 9.15024 6.29993 9.33589C6.29993 9.52153 6.37368 9.69958 6.50495 9.83086C6.63623 9.96213 6.81427 10.0359 6.99992 10.0359C7.18557 10.0359 7.36362 9.96213 7.49489 9.83086C7.62617 9.69958 7.69992 9.52153 7.69992 9.33589C7.69992 9.15024 7.62617 8.97219 7.49489 8.84092C7.36362 8.70964 7.18557 8.63589 6.99992 8.63589ZM9.4499 8.63589C9.26425 8.63589 9.0862 8.70964 8.95493 8.84092C8.82366 8.97219 8.74991 9.15024 8.74991 9.33589C8.74991 9.52153 8.82366 9.69958 8.95493 9.83086C9.0862 9.96213 9.26425 10.0359 9.4499 10.0359C9.63555 10.0359 9.8136 9.96213 9.94487 9.83086C10.0761 9.69958 10.1499 9.52153 10.1499 9.33589C10.1499 9.15024 10.0761 8.97219 9.94487 8.84092C9.8136 8.70964 9.63555 8.63589 9.4499 8.63589ZM1.74997 11.7859H12.2499V11.9609C12.2499 12.6434 11.7074 13.1859 11.0249 13.1859H7.69923C7.69923 13.0003 7.62558 12.8224 7.49445 12.6911C7.36332 12.5599 7.18545 12.486 6.99992 12.4859C6.81439 12.486 6.63652 12.5599 6.50539 12.6911C6.37427 12.8224 6.30061 13.0003 6.30061 13.1859H2.97496C2.29245 13.1859 1.74997 12.6434 1.74997 11.9609V11.7859Z" fill="black"/>
</g>
<defs>
<clipPath id="clip0_6_12">
<rect width="13.9999" height="14" fill="white" transform="translate(0 0.235718)"/>
</clipPath>
</defs>
</svg>
