<svg width="14" height="15" viewBox="0 0 14 15" fill="none" xmlns="http://www.w3.org/2000/svg">
<path d="M2.43181 -0.313286C1.6467 -0.313286 1 0.333416 1 1.11853V10.6639C1 12.3276 2.35902 13.6867 4.02272 13.6867H8.95452C9.01776 13.6876 9.08055 13.6759 9.13924 13.6523C9.19793 13.6287 9.25135 13.5937 9.29639 13.5493C9.34143 13.5049 9.37719 13.452 9.4016 13.3936C9.42602 13.3353 9.43859 13.2726 9.43859 13.2094C9.43859 13.1461 9.42602 13.0835 9.4016 13.0252C9.37719 12.9668 9.34143 12.9139 9.29639 12.8695C9.25135 12.8251 9.19793 12.7901 9.13924 12.7665C9.08055 12.7429 9.01776 12.7312 8.95452 12.7321H4.02272C2.87497 12.7321 1.95454 11.8117 1.95454 10.6639V10.3458C1.95454 10.0764 2.16247 9.8685 2.43181 9.8685C2.70115 9.8685 2.90908 10.0764 2.90908 10.3458C2.90862 10.3815 2.91216 10.4171 2.91965 10.452C2.97567 11.1876 3.5921 11.7776 4.3409 11.7776H10.7045C11.4896 11.7776 12.1363 11.1309 12.1363 10.3458V2.39125C12.1363 1.60614 11.4896 0.959437 10.7045 0.959437H3.84747C3.76636 0.24882 3.16255 -0.313286 2.43181 -0.313286ZM2.43181 0.641256C2.70115 0.641256 2.90908 0.849188 2.90908 1.11853V1.43671V9.00282C2.75887 8.94869 2.59964 8.91396 2.43181 8.91396C2.26399 8.91396 2.10475 8.94869 1.95454 9.00282V1.11853C1.95454 0.849188 2.16247 0.641256 2.43181 0.641256ZM3.86363 1.91398H10.7045C10.9739 1.91398 11.1818 2.12191 11.1818 2.39125V10.3458C11.1818 10.6151 10.9739 10.823 10.7045 10.823H4.3409C4.07156 10.823 3.86363 10.6151 3.86363 10.3458V1.91398ZM5.59995 3.82866C5.53671 3.82776 5.47391 3.83945 5.41522 3.86303C5.35654 3.88661 5.30312 3.92163 5.25808 3.96603C5.21304 4.01044 5.17727 4.06336 5.15286 4.12171C5.12845 4.18006 5.11588 4.24268 5.11588 4.30593C5.11588 4.36918 5.12845 4.4318 5.15286 4.49015C5.17727 4.5485 5.21304 4.60141 5.25808 4.64582C5.30312 4.69023 5.35654 4.72524 5.41522 4.74883C5.47391 4.77241 5.53671 4.78409 5.59995 4.7832H9.41812C9.48136 4.78409 9.54415 4.77241 9.60284 4.74883C9.66153 4.72524 9.71495 4.69023 9.75999 4.64582C9.80503 4.60141 9.84079 4.5485 9.8652 4.49015C9.88962 4.4318 9.90219 4.36918 9.90219 4.30593C9.90219 4.24268 9.88962 4.18006 9.8652 4.12171C9.84079 4.06336 9.80503 4.01044 9.75999 3.96603C9.71495 3.92163 9.66153 3.88661 9.60284 3.86303C9.54415 3.83945 9.48136 3.82776 9.41812 3.82866H5.59995ZM5.61362 6.05033C5.55038 6.04943 5.48759 6.06112 5.4289 6.0847C5.37021 6.10829 5.31679 6.1433 5.27175 6.18771C5.22671 6.23211 5.19095 6.28503 5.16653 6.34338C5.14212 6.40173 5.12955 6.46435 5.12955 6.5276C5.12955 6.59085 5.14212 6.65347 5.16653 6.71182C5.19095 6.77017 5.22671 6.82309 5.27175 6.86749C5.31679 6.9119 5.37021 6.94691 5.4289 6.9705C5.48759 6.99408 5.55038 7.00577 5.61362 7.00487H6.58556C6.64881 7.00577 6.7116 6.99408 6.77029 6.9705C6.82898 6.94691 6.88239 6.9119 6.92743 6.86749C6.97247 6.82309 7.00824 6.77017 7.03265 6.71182C7.05706 6.65347 7.06963 6.59085 7.06963 6.5276C7.06963 6.46435 7.05706 6.40173 7.03265 6.34338C7.00824 6.28503 6.97247 6.23211 6.92743 6.18771C6.88239 6.1433 6.82898 6.10829 6.77029 6.0847C6.7116 6.06112 6.64881 6.04943 6.58556 6.05033H5.61362ZM8.49465 6.05033C8.4314 6.04943 8.36861 6.06112 8.30992 6.0847C8.25123 6.10829 8.19782 6.1433 8.15278 6.18771C8.10774 6.23211 8.07197 6.28503 8.04756 6.34338C8.02315 6.40173 8.01058 6.46435 8.01058 6.5276C8.01058 6.59085 8.02315 6.65347 8.04756 6.71182C8.07197 6.77017 8.10774 6.82309 8.15278 6.86749C8.19782 6.9119 8.25123 6.94691 8.30992 6.9705C8.36861 6.99408 8.4314 7.00577 8.49465 7.00487H9.43179C9.49503 7.00577 9.55783 6.99408 9.61651 6.9705C9.6752 6.94691 9.72862 6.9119 9.77366 6.86749C9.8187 6.82309 9.85446 6.77017 9.87888 6.71182C9.90329 6.65347 9.91586 6.59085 9.91586 6.5276C9.91586 6.46435 9.90329 6.40173 9.87888 6.34338C9.85446 6.28503 9.8187 6.23211 9.77366 6.18771C9.72862 6.1433 9.6752 6.10829 9.61651 6.0847C9.55783 6.06112 9.49503 6.04943 9.43179 6.05033H8.49465ZM5.63102 7.64123C5.56778 7.64034 5.50499 7.65202 5.4463 7.67561C5.38761 7.69919 5.33419 7.7342 5.28915 7.77861C5.24411 7.82302 5.20835 7.87593 5.18394 7.93428C5.15952 7.99263 5.14695 8.05525 5.14695 8.1185C5.14695 8.18175 5.15952 8.24437 5.18394 8.30272C5.20835 8.36107 5.24411 8.41399 5.28915 8.4584C5.33419 8.5028 5.38761 8.53782 5.4463 8.5614C5.50499 8.58498 5.56778 8.59667 5.63102 8.59577H6.60234C6.66559 8.59667 6.72838 8.58498 6.78707 8.5614C6.84576 8.53782 6.89917 8.5028 6.94421 8.4584C6.98925 8.41399 7.02502 8.36107 7.04943 8.30272C7.07384 8.24437 7.08641 8.18175 7.08641 8.1185C7.08641 8.05525 7.07384 7.99263 7.04943 7.93428C7.02502 7.87593 6.98925 7.82302 6.94421 7.77861C6.89917 7.7342 6.84576 7.69919 6.78707 7.67561C6.72838 7.65202 6.66559 7.64034 6.60234 7.64123H5.63102ZM8.51143 7.64123C8.44818 7.64034 8.38539 7.65202 8.3267 7.67561C8.26801 7.69919 8.2146 7.7342 8.16956 7.77861C8.12452 7.82302 8.08875 7.87593 8.06434 7.93428C8.03993 7.99263 8.02736 8.05525 8.02736 8.1185C8.02736 8.18175 8.03993 8.24437 8.06434 8.30272C8.08875 8.36107 8.12452 8.41399 8.16956 8.4584C8.2146 8.5028 8.26801 8.53782 8.3267 8.5614C8.38539 8.58498 8.44818 8.59667 8.51143 8.59577H9.44919C9.51243 8.59667 9.57523 8.58498 9.63391 8.5614C9.6926 8.53782 9.74602 8.5028 9.79106 8.4584C9.8361 8.41399 9.87187 8.36107 9.89628 8.30272C9.92069 8.24437 9.93326 8.18175 9.93326 8.1185C9.93326 8.05525 9.92069 7.99263 9.89628 7.93428C9.87187 7.87593 9.8361 7.82302 9.79106 7.77861C9.74602 7.7342 9.6926 7.69919 9.63391 7.67561C9.57523 7.65202 9.51243 7.64034 9.44919 7.64123H8.51143Z" fill="black"/>
</svg>
