<svg width="14" height="15" viewBox="0 0 14 15" fill="none" xmlns="http://www.w3.org/2000/svg">
<path d="M2.43181 0.59993C1.6467 0.59993 1 1.24663 1 2.03174V11.5772C1 13.2409 2.35902 14.5999 4.02272 14.5999H8.95452C9.01776 14.6008 9.08055 14.5891 9.13924 14.5655C9.19793 14.5419 9.25135 14.5069 9.29639 14.4625C9.34143 14.4181 9.37719 14.3652 9.4016 14.3068C9.42602 14.2485 9.43859 14.1859 9.43859 14.1226C9.43859 14.0594 9.42602 13.9967 9.4016 13.9384C9.37719 13.88 9.34143 13.8271 9.29639 13.7827C9.25135 13.7383 9.19793 13.7033 9.13924 13.6797C9.08055 13.6561 9.01776 13.6444 8.95452 13.6453H4.02272C2.87497 13.6453 1.95454 12.7249 1.95454 11.5772V11.259C1.95454 10.9896 2.16247 10.7817 2.43181 10.7817C2.70115 10.7817 2.90908 10.9896 2.90908 11.259C2.90862 11.2947 2.91216 11.3303 2.91965 11.3653C2.97567 12.1008 3.5921 12.6908 4.3409 12.6908H10.7045C11.4896 12.6908 12.1363 12.0441 12.1363 11.259V3.30447C12.1363 2.51935 11.4896 1.87265 10.7045 1.87265H3.84747C3.76636 1.16204 3.16255 0.59993 2.43181 0.59993ZM2.43181 1.55447C2.70115 1.55447 2.90908 1.7624 2.90908 2.03174V2.34992V9.91604C2.75887 9.8619 2.59964 9.82717 2.43181 9.82717C2.26399 9.82717 2.10475 9.8619 1.95454 9.91604V2.03174C1.95454 1.7624 2.16247 1.55447 2.43181 1.55447ZM3.86363 2.82719H10.7045C10.9739 2.82719 11.1818 3.03513 11.1818 3.30447V11.259C11.1818 11.5283 10.9739 11.7363 10.7045 11.7363H4.3409C4.07156 11.7363 3.86363 11.5283 3.86363 11.259V2.82719ZM5.59995 4.74187C5.53671 4.74098 5.47391 4.75266 5.41522 4.77625C5.35654 4.79983 5.30312 4.83484 5.25808 4.87925C5.21304 4.92366 5.17727 4.97657 5.15286 5.03492C5.12845 5.09327 5.11588 5.15589 5.11588 5.21914C5.11588 5.28239 5.12845 5.34501 5.15286 5.40336C5.17727 5.46171 5.21304 5.51463 5.25808 5.55904C5.30312 5.60344 5.35654 5.63846 5.41522 5.66204C5.47391 5.68562 5.53671 5.69731 5.59995 5.69641H9.41812C9.48136 5.69731 9.54415 5.68562 9.60284 5.66204C9.66153 5.63846 9.71495 5.60344 9.75999 5.55904C9.80503 5.51463 9.84079 5.46171 9.8652 5.40336C9.88962 5.34501 9.90219 5.28239 9.90219 5.21914C9.90219 5.15589 9.88962 5.09327 9.8652 5.03492C9.84079 4.97657 9.80503 4.92366 9.75999 4.87925C9.71495 4.83484 9.66153 4.79983 9.60284 4.77625C9.54415 4.75266 9.48136 4.74098 9.41812 4.74187H5.59995ZM5.61362 6.96354C5.55038 6.96265 5.48759 6.97433 5.4289 6.99792C5.37021 7.0215 5.31679 7.05652 5.27175 7.10092C5.22671 7.14533 5.19095 7.19825 5.16653 7.2566C5.14212 7.31495 5.12955 7.37757 5.12955 7.44082C5.12955 7.50407 5.14212 7.56669 5.16653 7.62504C5.19095 7.68339 5.22671 7.7363 5.27175 7.78071C5.31679 7.82512 5.37021 7.86013 5.4289 7.88371C5.48759 7.9073 5.55038 7.91898 5.61362 7.91809H6.58556C6.64881 7.91898 6.7116 7.9073 6.77029 7.88371C6.82898 7.86013 6.88239 7.82512 6.92743 7.78071C6.97247 7.7363 7.00824 7.68339 7.03265 7.62504C7.05706 7.56669 7.06963 7.50407 7.06963 7.44082C7.06963 7.37757 7.05706 7.31495 7.03265 7.2566C7.00824 7.19825 6.97247 7.14533 6.92743 7.10092C6.88239 7.05652 6.82898 7.0215 6.77029 6.99792C6.7116 6.97433 6.64881 6.96265 6.58556 6.96354H5.61362ZM8.49465 6.96354C8.4314 6.96265 8.36861 6.97433 8.30992 6.99792C8.25123 7.0215 8.19782 7.05652 8.15278 7.10092C8.10774 7.14533 8.07197 7.19825 8.04756 7.2566C8.02315 7.31495 8.01058 7.37757 8.01058 7.44082C8.01058 7.50407 8.02315 7.56669 8.04756 7.62504C8.07197 7.68339 8.10774 7.7363 8.15278 7.78071C8.19782 7.82512 8.25123 7.86013 8.30992 7.88371C8.36861 7.9073 8.4314 7.91898 8.49465 7.91809H9.43179C9.49503 7.91898 9.55783 7.9073 9.61651 7.88371C9.6752 7.86013 9.72862 7.82512 9.77366 7.78071C9.8187 7.7363 9.85446 7.68339 9.87888 7.62504C9.90329 7.56669 9.91586 7.50407 9.91586 7.44082C9.91586 7.37757 9.90329 7.31495 9.87888 7.2566C9.85446 7.19825 9.8187 7.14533 9.77366 7.10092C9.72862 7.05652 9.6752 7.0215 9.61651 6.99792C9.55783 6.97433 9.49503 6.96265 9.43179 6.96354H8.49465ZM5.63102 8.55445C5.56778 8.55355 5.50499 8.56524 5.4463 8.58882C5.38761 8.61241 5.33419 8.64742 5.28915 8.69183C5.24411 8.73623 5.20835 8.78915 5.18394 8.8475C5.15952 8.90585 5.14695 8.96847 5.14695 9.03172C5.14695 9.09497 5.15952 9.15759 5.18394 9.21594C5.20835 9.27429 5.24411 9.3272 5.28915 9.37161C5.33419 9.41602 5.38761 9.45103 5.4463 9.47462C5.50499 9.4982 5.56778 9.50988 5.63102 9.50899H6.60234C6.66559 9.50988 6.72838 9.4982 6.78707 9.47462C6.84576 9.45103 6.89917 9.41602 6.94421 9.37161C6.98925 9.3272 7.02502 9.27429 7.04943 9.21594C7.07384 9.15759 7.08641 9.09497 7.08641 9.03172C7.08641 8.96847 7.07384 8.90585 7.04943 8.8475C7.02502 8.78915 6.98925 8.73623 6.94421 8.69183C6.89917 8.64742 6.84576 8.61241 6.78707 8.58882C6.72838 8.56524 6.66559 8.55355 6.60234 8.55445H5.63102ZM8.51143 8.55445C8.44818 8.55355 8.38539 8.56524 8.3267 8.58882C8.26801 8.61241 8.2146 8.64742 8.16956 8.69183C8.12452 8.73623 8.08875 8.78915 8.06434 8.8475C8.03993 8.90585 8.02736 8.96847 8.02736 9.03172C8.02736 9.09497 8.03993 9.15759 8.06434 9.21594C8.08875 9.27429 8.12452 9.3272 8.16956 9.37161C8.2146 9.41602 8.26801 9.45103 8.3267 9.47462C8.38539 9.4982 8.44818 9.50988 8.51143 9.50899H9.44919C9.51243 9.50988 9.57523 9.4982 9.63391 9.47462C9.6926 9.45103 9.74602 9.41602 9.79106 9.37161C9.8361 9.3272 9.87187 9.27429 9.89628 9.21594C9.92069 9.15759 9.93326 9.09497 9.93326 9.03172C9.93326 8.96847 9.92069 8.90585 9.89628 8.8475C9.87187 8.78915 9.8361 8.73623 9.79106 8.69183C9.74602 8.64742 9.6926 8.61241 9.63391 8.58882C9.57523 8.56524 9.51243 8.55355 9.44919 8.55445H8.51143Z" fill="black"/>
</svg>
