<svg width="14" height="16" viewBox="0 0 14 16" fill="none" xmlns="http://www.w3.org/2000/svg">
<path d="M11.8479 0.835815C11.2945 0.835815 10.8114 1.0627 10.5033 1.40925C10.1953 1.75579 10.0533 2.19672 10.0533 2.63042C10.0533 2.84585 10.0889 3.06316 10.1619 3.26974L7.82194 5.10921C7.53892 4.92264 7.21155 4.78394 6.82299 4.78394C6.33152 4.78394 5.91535 4.98132 5.60813 5.26414L3.52962 4.07732C3.55368 3.95378 3.59271 3.83191 3.59271 3.70718C3.59271 3.27348 3.4507 2.83255 3.14266 2.48601C2.83462 2.13946 2.35144 1.91258 1.79811 1.91258C1.24477 1.91258 0.761598 2.13946 0.453558 2.48601C0.145517 2.83255 0.00350508 3.27348 0.00350508 3.70718C0.00350508 4.14087 0.145517 4.5818 0.453558 4.92835C0.761598 5.2749 1.24477 5.50178 1.79811 5.50178C2.28958 5.50178 2.70575 5.30441 3.01297 5.02158L5.09148 6.20841C5.06742 6.33194 5.02839 6.45381 5.02839 6.57854C5.02839 7.01224 5.1704 7.45317 5.47844 7.79971C5.78648 8.14626 6.26966 8.37314 6.82299 8.37314C7.37633 8.37314 7.8595 8.14626 8.16754 7.79971C8.47558 7.45317 8.6176 7.01224 8.6176 6.57854C8.6176 6.36311 8.58196 6.1458 8.50894 5.93922L10.8489 4.09975C11.1319 4.28632 11.4593 4.42502 11.8479 4.42502C12.4012 4.42502 12.8844 4.19813 13.1924 3.85159C13.5005 3.50504 13.6425 3.06411 13.6425 2.63042C13.6425 2.19672 13.5005 1.75579 13.1924 1.40925C12.8844 1.0627 12.4012 0.835815 11.8479 0.835815ZM11.8479 1.91258C12.132 1.91258 12.277 1.99975 12.3877 2.12428C12.4984 2.24882 12.5657 2.436 12.5657 2.63042C12.5657 2.82483 12.4984 3.01201 12.3877 3.13655C12.277 3.26109 12.132 3.34826 11.8479 3.34826C11.5811 3.34826 11.4493 3.26232 11.341 3.14987C11.3241 3.11753 11.3039 3.08699 11.2808 3.05874C11.1988 2.93819 11.13 2.79495 11.13 2.63042C11.13 2.436 11.1974 2.24882 11.3081 2.12428C11.4188 1.99975 11.5637 1.91258 11.8479 1.91258ZM1.79811 2.98934C2.08225 2.98934 2.22719 3.07651 2.33789 3.20105C2.44859 3.32558 2.51595 3.51276 2.51595 3.70718C2.51595 3.90159 2.44859 4.08878 2.33789 4.21331C2.22719 4.33785 2.08225 4.42502 1.79811 4.42502C1.51396 4.42502 1.36902 4.33785 1.25832 4.21331C1.14762 4.08878 1.08027 3.90159 1.08027 3.70718C1.08027 3.51276 1.14762 3.32558 1.25832 3.20105C1.36902 3.07651 1.51396 2.98934 1.79811 2.98934ZM6.82299 5.8607C7.08972 5.8607 7.2216 5.94664 7.32983 6.05909C7.34678 6.09143 7.36698 6.12197 7.39012 6.15022C7.47204 6.27077 7.54083 6.41401 7.54083 6.57854C7.54083 6.77296 7.47348 6.96014 7.36278 7.08468C7.25208 7.20921 7.10714 7.29638 6.82299 7.29638C6.53885 7.29638 6.39391 7.20921 6.28321 7.08468C6.17251 6.96014 6.10515 6.77296 6.10515 6.57854C6.10515 6.38413 6.17251 6.19695 6.28321 6.07241C6.39391 5.94787 6.53885 5.8607 6.82299 5.8607ZM11.8458 5.8607C10.86 5.8607 10.0498 6.67166 10.0498 7.65741V13.0391C10.0498 14.0249 10.86 14.8358 11.8458 14.8358C12.8315 14.8358 13.6425 14.0249 13.6425 13.0391V7.65741C13.6425 6.67166 12.8315 5.8607 11.8458 5.8607ZM11.8458 6.93746C12.2498 6.93746 12.5657 7.25342 12.5657 7.65741V13.0391C12.5657 13.4431 12.2498 13.7591 11.8458 13.7591C11.4418 13.7591 11.1265 13.4431 11.1265 13.0391V7.65741C11.1265 7.25342 11.4418 6.93746 11.8458 6.93746ZM1.796 6.93957C0.810253 6.93957 0 7.74982 0 8.73557V13.0391C0 14.0249 0.810253 14.8358 1.796 14.8358C2.78176 14.8358 3.59271 14.0249 3.59271 13.0391V8.73557C3.59271 7.74982 2.78176 6.93957 1.796 6.93957ZM1.796 8.01633C2.19999 8.01631 2.51595 8.33158 2.51595 8.73557V13.0391C2.51595 13.4431 2.19999 13.7591 1.796 13.7591C1.39202 13.7591 1.07676 13.4431 1.07676 13.0391V8.73557C1.07676 8.33158 1.39202 8.01633 1.796 8.01633ZM6.82299 9.80883C5.83724 9.80883 5.02629 10.6198 5.02629 11.6055V13.0391C5.02629 14.0249 5.83724 14.8358 6.82299 14.8358C7.80874 14.8358 8.6197 14.0249 8.6197 13.0391V11.6055C8.6197 10.6198 7.80874 9.80883 6.82299 9.80883ZM6.82299 10.8856C7.22698 10.8856 7.54294 11.2015 7.54294 11.6055V13.0391C7.54294 13.4431 7.22698 13.7591 6.82299 13.7591C6.419 13.7591 6.10305 13.4431 6.10305 13.0391V11.6055C6.10305 11.2015 6.419 10.8856 6.82299 10.8856Z" fill="black"/>
</svg>
