<svg width="14" height="16" viewBox="0 0 14 16" fill="none" xmlns="http://www.w3.org/2000/svg">
<path d="M11.8478 0.773655C11.2944 0.773655 10.8112 1.00054 10.5032 1.34709C10.1952 1.69363 10.0532 2.13456 10.0532 2.56826C10.0532 2.78369 10.0888 3.001 10.1618 3.20758L7.82182 5.04705C7.5388 4.86048 7.21142 4.72178 6.82287 4.72178C6.3314 4.72178 5.91523 4.91916 5.60801 5.20198L3.5295 4.01516C3.55356 3.89162 3.59259 3.76975 3.59259 3.64502C3.59259 3.21132 3.45058 2.77039 3.14253 2.42385C2.83449 2.0773 2.35132 1.85042 1.79799 1.85042C1.24465 1.85042 0.761476 2.0773 0.453436 2.42385C0.145395 2.77039 0.00338301 3.21132 0.00338301 3.64502C0.00338301 4.07871 0.145395 4.51964 0.453436 4.86619C0.761476 5.21273 1.24465 5.43962 1.79799 5.43962C2.28946 5.43962 2.70563 5.24224 3.01285 4.95942L5.09136 6.14625C5.0673 6.26978 5.02827 6.39165 5.02827 6.51638C5.02827 6.95008 5.17028 7.39101 5.47832 7.73755C5.78636 8.0841 6.26954 8.31098 6.82287 8.31098C7.37621 8.31098 7.85938 8.0841 8.16742 7.73755C8.47546 7.39101 8.61747 6.95008 8.61747 6.51638C8.61747 6.30095 8.58184 6.08364 8.50882 5.87705L10.8488 4.03759C11.1318 4.22416 11.4592 4.36286 11.8478 4.36286C12.4011 4.36286 12.8843 4.13597 13.1923 3.78943C13.5003 3.44288 13.6424 3.00195 13.6424 2.56826C13.6424 2.13456 13.5003 1.69363 13.1923 1.34709C12.8843 1.00054 12.4011 0.773655 11.8478 0.773655ZM11.8478 1.85042C12.1319 1.85042 12.2768 1.93759 12.3875 2.06212C12.4982 2.18666 12.5656 2.37384 12.5656 2.56826C12.5656 2.76267 12.4982 2.94985 12.3875 3.07439C12.2768 3.19893 12.1319 3.2861 11.8478 3.2861C11.581 3.2861 11.4491 3.20016 11.3409 3.08771C11.324 3.05537 11.3038 3.02483 11.2806 2.99658C11.1987 2.87603 11.1299 2.73279 11.1299 2.56826C11.1299 2.37384 11.1973 2.18666 11.308 2.06212C11.4187 1.93759 11.5636 1.85042 11.8478 1.85042ZM1.79799 2.92718C2.08213 2.92718 2.22707 3.01435 2.33777 3.13888C2.44847 3.26342 2.51583 3.4506 2.51583 3.64502C2.51583 3.83943 2.44847 4.02662 2.33777 4.15115C2.22707 4.27569 2.08213 4.36286 1.79799 4.36286C1.51384 4.36286 1.3689 4.27569 1.2582 4.15115C1.1475 4.02662 1.08014 3.83943 1.08014 3.64502C1.08014 3.4506 1.1475 3.26342 1.2582 3.13888C1.3689 3.01435 1.51384 2.92718 1.79799 2.92718ZM6.82287 5.79854C7.0896 5.79854 7.22148 5.88448 7.32971 5.99693C7.34666 6.02927 7.36686 6.05981 7.38999 6.08806C7.47192 6.20861 7.54071 6.35185 7.54071 6.51638C7.54071 6.7108 7.47335 6.89798 7.36265 7.02252C7.25195 7.14705 7.10702 7.23422 6.82287 7.23422C6.53873 7.23422 6.39379 7.14705 6.28309 7.02252C6.17239 6.89798 6.10503 6.7108 6.10503 6.51638C6.10503 6.32197 6.17239 6.13478 6.28309 6.01025C6.39379 5.88571 6.53873 5.79854 6.82287 5.79854ZM11.8457 5.79854C10.8599 5.79854 10.0496 6.60949 10.0496 7.59525V12.9769C10.0496 13.9627 10.8599 14.7737 11.8457 14.7737C12.8314 14.7737 13.6424 13.9627 13.6424 12.9769V7.59525C13.6424 6.60949 12.8314 5.79854 11.8457 5.79854ZM11.8457 6.8753C12.2496 6.8753 12.5656 7.19126 12.5656 7.59525V12.9769C12.5656 13.3809 12.2496 13.6969 11.8457 13.6969C11.4417 13.6969 11.1264 13.3809 11.1264 12.9769V7.59525C11.1264 7.19126 11.4417 6.8753 11.8457 6.8753ZM1.79588 6.87741C0.810131 6.87741 -0.00012207 7.68766 -0.00012207 8.67341V12.9769C-0.00012207 13.9627 0.810131 14.7737 1.79588 14.7737C2.78163 14.7737 3.59259 13.9627 3.59259 12.9769V8.67341C3.59259 7.68766 2.78163 6.87741 1.79588 6.87741ZM1.79588 7.95417C2.19987 7.95415 2.51583 8.26942 2.51583 8.67341V12.9769C2.51583 13.3809 2.19987 13.6969 1.79588 13.6969C1.39189 13.6969 1.07664 13.3809 1.07664 12.9769V8.67341C1.07664 8.26942 1.39189 7.95417 1.79588 7.95417ZM6.82287 9.74667C5.83712 9.74667 5.02617 10.5576 5.02617 11.5434V12.9769C5.02617 13.9627 5.83712 14.7737 6.82287 14.7737C7.80862 14.7737 8.61958 13.9627 8.61958 12.9769V11.5434C8.61958 10.5576 7.80862 9.74667 6.82287 9.74667ZM6.82287 10.8234C7.22686 10.8234 7.54281 11.1394 7.54281 11.5434V12.9769C7.54281 13.3809 7.22686 13.6969 6.82287 13.6969C6.41888 13.6969 6.10293 13.3809 6.10293 12.9769V11.5434C6.10293 11.1394 6.41888 10.8234 6.82287 10.8234Z" fill="black"/>
</svg>
