<svg width="14" height="16" viewBox="0 0 14 16" fill="none" xmlns="http://www.w3.org/2000/svg">
<path d="M7 0.83606C3.1403 0.83606 0 3.97636 0 7.83606C0 8.98242 0.301948 10.0539 0.791602 11.0093L0.0328125 13.7259C-0.143921 14.3571 0.480174 14.9812 1.11152 14.8046L3.83018 14.0458C4.78476 14.5345 5.85471 14.8361 7 14.8361C10.8597 14.8361 14 11.6958 14 7.83606C14 3.97636 10.8597 0.83606 7 0.83606ZM7 1.88606C10.2922 1.88606 12.95 4.54386 12.95 7.83606C12.95 11.1283 10.2922 13.7861 7 13.7861C5.94945 13.7861 4.96671 13.5129 4.10977 13.0355C3.98897 12.9682 3.8465 12.9512 3.71328 12.9883L1.12793 13.7095L1.8498 11.1255C1.8871 10.9921 1.87014 10.8493 1.80264 10.7283C1.32428 9.87078 1.05 8.88764 1.05 7.83606C1.05 4.54386 3.7078 1.88606 7 1.88606ZM4.55 7.13674C4.16325 7.13674 3.85 7.44999 3.85 7.83674C3.85 8.22349 4.16325 8.53674 4.55 8.53674C4.93675 8.53674 5.25 8.22349 5.25 7.83674C5.25 7.44999 4.93675 7.13674 4.55 7.13674ZM7 7.13674C6.61325 7.13674 6.3 7.44999 6.3 7.83674C6.3 8.22349 6.61325 8.53674 7 8.53674C7.38675 8.53674 7.7 8.22349 7.7 7.83674C7.7 7.44999 7.38675 7.13674 7 7.13674ZM9.45 7.13674C9.06325 7.13674 8.75 7.44999 8.75 7.83674C8.75 8.22349 9.06325 8.53674 9.45 8.53674C9.83675 8.53674 10.15 8.22349 10.15 7.83674C10.15 7.44999 9.83675 7.13674 9.45 7.13674Z" fill="black"/>
</svg>
