<svg width="14" height="15" viewBox="0 0 14 15" fill="none" xmlns="http://www.w3.org/2000/svg">
<path d="M7 -0.313215C3.1403 -0.313215 0 2.82709 0 6.68678C0 7.83315 0.301948 8.90467 0.791602 9.86003L0.0328125 12.5766C-0.143921 13.2078 0.480174 13.8319 1.11152 13.6553L3.83018 12.8966C4.78476 13.3852 5.85471 13.6868 7 13.6868C10.8597 13.6868 14 10.5465 14 6.68678C14 2.82709 10.8597 -0.313215 7 -0.313215ZM7 0.736785C10.2922 0.736785 12.95 3.39458 12.95 6.68678C12.95 9.97899 10.2922 12.6368 7 12.6368C5.94945 12.6368 4.96671 12.3636 4.10977 11.8862C3.98897 11.8189 3.8465 11.8019 3.71328 11.839L1.12793 12.5602L1.8498 9.97624C1.8871 9.84281 1.87014 9.70005 1.80264 9.57907C1.32428 8.7215 1.05 7.73837 1.05 6.68678C1.05 3.39458 3.7078 0.736785 7 0.736785ZM4.55 5.98747C4.16325 5.98747 3.85 6.30072 3.85 6.68747C3.85 7.07422 4.16325 7.38747 4.55 7.38747C4.93675 7.38747 5.25 7.07422 5.25 6.68747C5.25 6.30072 4.93675 5.98747 4.55 5.98747ZM7 5.98747C6.61325 5.98747 6.3 6.30072 6.3 6.68747C6.3 7.07422 6.61325 7.38747 7 7.38747C7.38675 7.38747 7.7 7.07422 7.7 6.68747C7.7 6.30072 7.38675 5.98747 7 5.98747ZM9.45 5.98747C9.06325 5.98747 8.75 6.30072 8.75 6.68747C8.75 7.07422 9.06325 7.38747 9.45 7.38747C9.83675 7.38747 10.15 7.07422 10.15 6.68747C10.15 6.30072 9.83675 5.98747 9.45 5.98747Z" fill="black"/>
</svg>
