<svg width="14" height="15" viewBox="0 0 14 15" fill="none" xmlns="http://www.w3.org/2000/svg">
<path d="M7 -0.313215C3.1402 -0.313215 0 2.82698 0 6.68678C0 10.5466 3.1402 13.6868 7 13.6868C10.8598 13.6868 14 10.5466 14 6.68678C14 5.56363 13.7277 4.50529 13.2556 3.56344L12.4701 4.34889C12.7781 5.06674 12.95 5.85693 12.95 6.68678C12.95 9.96768 10.2809 12.6368 7 12.6368C3.7191 12.6368 1.05 9.96768 1.05 6.68678C1.05 3.40588 3.7191 0.736785 7 0.736785C8.5561 0.736785 9.96995 1.34201 11.0312 2.32341L11.7735 1.58102C10.5216 0.409573 8.84555 -0.313215 7 -0.313215ZM12.4147 2.132C12.2784 2.13597 12.149 2.19285 12.0538 2.29059L6.125 8.2194L4.74619 6.84059C4.69781 6.79021 4.63987 6.74998 4.57575 6.72227C4.51164 6.69456 4.44264 6.67992 4.37279 6.67921C4.30294 6.6785 4.23366 6.69173 4.16899 6.71814C4.10432 6.74454 4.04557 6.78358 3.99618 6.83297C3.94679 6.88236 3.90775 6.94111 3.88135 7.00578C3.85495 7.07044 3.84172 7.13973 3.84243 7.20957C3.84314 7.27942 3.85778 7.34842 3.88549 7.41254C3.9132 7.47666 3.95342 7.5346 4.00381 7.58298L5.75381 9.33298C5.85227 9.4314 5.98579 9.48668 6.125 9.48668C6.26421 9.48668 6.39773 9.4314 6.49619 9.33298L12.7962 3.03298C12.8719 2.95921 12.9236 2.8643 12.9445 2.76066C12.9655 2.65703 12.9546 2.54949 12.9134 2.45213C12.8721 2.35477 12.8025 2.27213 12.7135 2.21501C12.6246 2.15789 12.5204 2.12896 12.4147 2.132Z" fill="black"/>
</svg>
