<svg width="14" height="15" viewBox="0 0 14 15" fill="none" xmlns="http://www.w3.org/2000/svg">
<path d="M13.486 2.23824C13.3562 2.24203 13.2331 2.29615 13.1425 2.38916L4.50341 11.0283L0.860023 7.3849C0.813989 7.33696 0.758852 7.29868 0.69784 7.27231C0.636828 7.24594 0.571167 7.23201 0.504704 7.23134C0.438241 7.23066 0.372311 7.24325 0.310776 7.26838C0.24924 7.2935 0.193336 7.33065 0.146337 7.37765C0.0993377 7.42465 0.0621888 7.48055 0.0370657 7.54209C0.0119425 7.60362 -0.000649928 7.66955 2.58244e-05 7.73601C0.000701577 7.80248 0.0146319 7.86814 0.0410011 7.92915C0.0673702 7.99016 0.105648 8.0453 0.153593 8.09133L4.15019 12.0879C4.24388 12.1816 4.37093 12.2342 4.50341 12.2342C4.63588 12.2342 4.76293 12.1816 4.85662 12.0879L13.849 3.09559C13.921 3.0254 13.9702 2.93508 13.9901 2.83646C14.01 2.73784 13.9997 2.63552 13.9605 2.54287C13.9212 2.45023 13.855 2.37159 13.7703 2.31723C13.6856 2.26288 13.5866 2.23535 13.486 2.23824Z" fill="black"/>
</svg>
