<svg width="14" height="16" viewBox="0 0 14 16" fill="none" xmlns="http://www.w3.org/2000/svg">
<path d="M7 0.77356C3.1402 0.77356 0 3.91376 0 7.77356C0 11.6334 3.1402 14.7736 7 14.7736C10.8598 14.7736 14 11.6334 14 7.77356C14 6.65041 13.7277 5.59207 13.2556 4.65022L12.4701 5.43567C12.7781 6.15352 12.95 6.94371 12.95 7.77356C12.95 11.0545 10.2809 13.7236 7 13.7236C3.7191 13.7236 1.05 11.0545 1.05 7.77356C1.05 4.49266 3.7191 1.82356 7 1.82356C8.5561 1.82356 9.96995 2.42878 11.0312 3.41018L11.7735 2.6678C10.5216 1.49635 8.84555 0.77356 7 0.77356ZM12.4147 3.21877C12.2784 3.22275 12.149 3.27963 12.0538 3.37737L6.125 9.30618L4.74619 7.92737C4.69781 7.87698 4.63987 7.83676 4.57575 7.80905C4.51164 7.78134 4.44264 7.7667 4.37279 7.76599C4.30294 7.76528 4.23366 7.77851 4.16899 7.80491C4.10432 7.83131 4.04557 7.87035 3.99618 7.91974C3.94679 7.96913 3.90775 8.02788 3.88135 8.09255C3.85495 8.15722 3.84172 8.2265 3.84243 8.29635C3.84314 8.36619 3.85778 8.4352 3.88549 8.49931C3.9132 8.56343 3.95342 8.62137 4.00381 8.66975L5.75381 10.4198C5.85227 10.5182 5.98579 10.5735 6.125 10.5735C6.26421 10.5735 6.39773 10.5182 6.49619 10.4198L12.7962 4.11975C12.8719 4.04599 12.9236 3.95108 12.9445 3.84744C12.9655 3.7438 12.9546 3.63627 12.9134 3.53891C12.8721 3.44155 12.8025 3.3589 12.7135 3.30178C12.6246 3.24466 12.5204 3.21573 12.4147 3.21877Z" fill="black"/>
</svg>
