<svg width="14" height="15" viewBox="0 0 14 15" fill="none" xmlns="http://www.w3.org/2000/svg">
<path d="M13.486 2.17569C13.3562 2.17947 13.2331 2.23359 13.1425 2.3266L4.50341 10.9657L0.860023 7.32235C0.813989 7.2744 0.758852 7.23612 0.69784 7.20975C0.636828 7.18338 0.571167 7.16945 0.504704 7.16878C0.438241 7.1681 0.372311 7.18069 0.310776 7.20582C0.24924 7.23094 0.193336 7.26809 0.146337 7.31509C0.0993377 7.36209 0.0621888 7.41799 0.0370657 7.47953C0.0119425 7.54106 -0.000649928 7.60699 2.58244e-05 7.67346C0.000701577 7.73992 0.0146319 7.80558 0.0410011 7.86659C0.0673702 7.9276 0.105648 7.98274 0.153593 8.02878L4.15019 12.0254C4.24388 12.119 4.37093 12.1716 4.50341 12.1716C4.63588 12.1716 4.76293 12.119 4.85662 12.0254L13.849 3.03303C13.921 2.96284 13.9702 2.87252 13.9901 2.7739C14.01 2.67529 13.9997 2.57296 13.9605 2.48032C13.9212 2.38767 13.855 2.30903 13.7703 2.25467C13.6856 2.20032 13.5866 2.17279 13.486 2.17569Z" fill="black"/>
</svg>
