<svg width="14" height="15" viewBox="0 0 14 15" fill="none" xmlns="http://www.w3.org/2000/svg">
<path d="M13.7502 3.58703C13.7502 3.48761 13.7205 3.39046 13.665 3.30801C13.6094 3.22556 13.5306 3.16155 13.4384 3.12418C13.3463 3.08682 13.2451 3.07778 13.1478 3.09824C13.0505 3.1187 12.9616 3.16773 12.8923 3.23904L6.75126 9.38006L0.610233 3.23904C0.564201 3.19109 0.509066 3.15282 0.448055 3.12645C0.387046 3.10008 0.321388 3.08615 0.254928 3.08548C0.188467 3.0848 0.12254 3.09739 0.0610065 3.12251C-0.000526428 3.14764 -0.0564289 3.18478 -0.103426 3.23178C-0.150423 3.27878 -0.18757 3.33468 -0.212692 3.39621C-0.237814 3.45775 -0.250406 3.52367 -0.24973 3.59013C-0.249055 3.65659 -0.235126 3.72225 -0.208757 3.78326C-0.182389 3.84427 -0.144113 3.89941 -0.0961704 3.94544L6.39806 10.4397C6.49174 10.5333 6.61879 10.5859 6.75126 10.5859C6.88373 10.5859 7.01077 10.5333 7.10446 10.4397L13.5987 3.94544C13.6466 3.89887 13.6848 3.84316 13.7108 3.7816C13.7368 3.72004 13.7502 3.65387 13.7502 3.58703Z" fill="black"/>
</svg>
