<svg width="15" height="15" viewBox="0 0 15 15" fill="none" xmlns="http://www.w3.org/2000/svg">
<path d="M14.7501 3.52489C14.7501 3.42547 14.7204 3.32832 14.6649 3.24586C14.6093 3.16341 14.5304 3.09941 14.4383 3.06204C14.3462 3.02467 14.245 3.01564 14.1477 3.0361C14.0504 3.05656 13.9614 3.10558 13.8922 3.17689L7.75114 9.31791L1.61011 3.17689C1.56408 3.12895 1.50894 3.09067 1.44793 3.0643C1.38692 3.03793 1.32127 3.024 1.25481 3.02333C1.18834 3.02265 1.12242 3.03525 1.06088 3.06037C0.999352 3.08549 0.943449 3.12264 0.896452 3.16963C0.849455 3.21663 0.812308 3.27253 0.787186 3.33407C0.762064 3.3956 0.749472 3.46153 0.750148 3.52799C0.750823 3.59445 0.764752 3.66011 0.791121 3.72112C0.817489 3.78213 0.855765 3.83726 0.903708 3.88329L7.39793 10.3775C7.49162 10.4712 7.61867 10.5238 7.75114 10.5238C7.8836 10.5238 8.01065 10.4712 8.10434 10.3775L14.5986 3.88329C14.6465 3.83673 14.6846 3.78101 14.7107 3.71945C14.7367 3.65789 14.7501 3.59173 14.7501 3.52489Z" fill="black"/>
</svg>
