<svg width="14" height="15" viewBox="0 0 14 15" fill="none" xmlns="http://www.w3.org/2000/svg">
<path d="M6.99372 3.58989C6.87987 3.59155 6.77116 3.63753 6.69066 3.71806L1.00316 9.40556C0.961173 9.44587 0.927651 9.49416 0.904559 9.54759C0.881466 9.60102 0.869267 9.65852 0.868675 9.71673C0.868083 9.77493 0.879111 9.83267 0.901112 9.88656C0.923114 9.94045 0.955647 9.98941 0.996806 10.0306C1.03797 10.0717 1.08692 10.1043 1.14081 10.1263C1.1947 10.1483 1.25244 10.1593 1.31064 10.1587C1.36885 10.1581 1.42635 10.1459 1.47978 10.1228C1.53321 10.0997 1.5815 10.0662 1.62181 10.0242L6.99999 4.64604L12.3782 10.0242C12.4185 10.0662 12.4668 10.0997 12.5202 10.1228C12.5736 10.1459 12.6311 10.1581 12.6893 10.1587C12.7475 10.1593 12.8053 10.1483 12.8592 10.1263C12.9131 10.1043 12.962 10.0717 13.0032 10.0306C13.0443 9.98941 13.0769 9.94045 13.0989 9.88656C13.1209 9.83267 13.1319 9.77493 13.1313 9.71673C13.1307 9.65852 13.1185 9.60102 13.0954 9.54759C13.0723 9.49416 13.0388 9.44587 12.9968 9.40556L7.30931 3.71806C7.26795 3.67668 7.21871 3.64402 7.1645 3.622C7.11029 3.59999 7.05222 3.58907 6.99372 3.58989Z" fill="black"/>
</svg>
