<svg width="14" height="15" viewBox="0 0 14 15" fill="none" xmlns="http://www.w3.org/2000/svg">
<path d="M9.95718 0.591562C9.82077 0.597505 9.69204 0.656353 9.59829 0.755625L3.64829 6.88062C3.55317 6.97861 3.49997 7.10979 3.49997 7.24635C3.49997 7.3829 3.55317 7.51409 3.64829 7.61207L9.59829 13.7371C9.64605 13.7877 9.70339 13.8282 9.76697 13.8565C9.83055 13.8847 9.89911 13.9 9.96866 13.9016C10.0382 13.9031 10.1074 13.8907 10.1721 13.8653C10.2369 13.8398 10.2959 13.8018 10.3458 13.7533C10.3957 13.7049 10.4355 13.647 10.4629 13.583C10.4902 13.519 10.5046 13.4502 10.5051 13.3807C10.5056 13.3111 10.4924 13.2421 10.466 13.1777C10.4397 13.1134 10.4008 13.0549 10.3516 13.0056L4.75708 7.24635L10.3516 1.48707C10.4263 1.41223 10.4767 1.31656 10.4961 1.21261C10.5156 1.10866 10.5032 1.00126 10.4605 0.904474C10.4179 0.807691 10.347 0.726037 10.2572 0.670203C10.1674 0.61437 10.0628 0.58696 9.95718 0.591562Z" fill="black"/>
</svg>
