<svg width="14" height="15" viewBox="0 0 14 15" fill="none" xmlns="http://www.w3.org/2000/svg">
<path d="M9.95721 0.529337C9.8208 0.53528 9.69207 0.594128 9.59832 0.693399L3.64832 6.8184C3.5532 6.91638 3.5 7.04756 3.5 7.18412C3.5 7.32068 3.5532 7.45186 3.64832 7.54984L9.59832 13.6748C9.64608 13.7254 9.70342 13.766 9.767 13.7943C9.83058 13.8225 9.89914 13.8378 9.96869 13.8393C10.0382 13.8408 10.1074 13.8285 10.1722 13.8031C10.2369 13.7776 10.296 13.7396 10.3459 13.6911C10.3958 13.6426 10.4356 13.5847 10.4629 13.5208C10.4902 13.4568 10.5046 13.388 10.5051 13.3185C10.5057 13.2489 10.4924 13.1799 10.466 13.1155C10.4397 13.0511 10.4008 12.9926 10.3516 12.9434L4.75711 7.18412L10.3516 1.42484C10.4264 1.35 10.4767 1.25434 10.4962 1.15039C10.5156 1.04643 10.5032 0.939031 10.4606 0.842248C10.4179 0.745466 10.3471 0.663811 10.2573 0.607978C10.1674 0.552144 10.0629 0.524734 9.95721 0.529337Z" fill="black"/>
</svg>
