<svg width="14" height="15" viewBox="0 0 14 15" fill="none" xmlns="http://www.w3.org/2000/svg">
<path d="M3.75158 0.173553C3.65217 0.173578 3.55501 0.203263 3.47256 0.258811C3.39011 0.31436 3.3261 0.393245 3.28874 0.485373C3.25137 0.577502 3.24233 0.678685 3.26279 0.775976C3.28325 0.873266 3.33228 0.962241 3.40359 1.03151L9.54461 7.17254L3.40359 13.3136C3.35564 13.3596 3.31737 13.4147 3.291 13.4757C3.26463 13.5368 3.2507 13.6024 3.25003 13.6689C3.24935 13.7353 3.26194 13.8013 3.28706 13.8628C3.31219 13.9243 3.34933 13.9802 3.39633 14.0272C3.44333 14.0742 3.49923 14.1114 3.56076 14.1365C3.6223 14.1616 3.68822 14.1742 3.75469 14.1735C3.82115 14.1729 3.8868 14.1589 3.94781 14.1326C4.00882 14.1062 4.06396 14.0679 4.10999 14.02L10.6042 7.52574C10.6979 7.43205 10.7505 7.30501 10.7505 7.17254C10.7505 7.04007 10.6979 6.91303 10.6042 6.81934L4.10999 0.325111C4.06343 0.277159 4.00771 0.239037 3.94615 0.213004C3.88459 0.186971 3.81843 0.173556 3.75158 0.173553Z" fill="black"/>
</svg>
