<svg width="14" height="15" viewBox="0 0 14 15" fill="none" xmlns="http://www.w3.org/2000/svg">
<path d="M3.75158 0.23584C3.65217 0.235864 3.55501 0.265549 3.47256 0.321098C3.39011 0.376646 3.3261 0.455531 3.28874 0.54766C3.25137 0.639788 3.24233 0.740971 3.26279 0.838262C3.28325 0.935553 3.33228 1.02453 3.40359 1.0938L9.54461 7.23483L3.40359 13.3759C3.35564 13.4219 3.31737 13.477 3.291 13.538C3.26463 13.599 3.2507 13.6647 3.25003 13.7312C3.24935 13.7976 3.26194 13.8635 3.28706 13.9251C3.31219 13.9866 3.34933 14.0425 3.39633 14.0895C3.44333 14.1365 3.49923 14.1737 3.56076 14.1988C3.6223 14.2239 3.68822 14.2365 3.75469 14.2358C3.82115 14.2351 3.8868 14.2212 3.94781 14.1948C4.00882 14.1685 4.06396 14.1302 4.10999 14.0823L10.6042 7.58803C10.6979 7.49434 10.7505 7.36729 10.7505 7.23483C10.7505 7.10236 10.6979 6.97531 10.6042 6.88162L4.10999 0.387398C4.06343 0.339445 4.00771 0.301323 3.94615 0.27529C3.88459 0.249257 3.81843 0.235843 3.75158 0.23584Z" fill="black"/>
</svg>
