<svg width="14" height="15" viewBox="0 0 14 15" fill="none" xmlns="http://www.w3.org/2000/svg">
<path d="M6.99372 3.52772C6.87987 3.52938 6.77116 3.57536 6.69066 3.65589L1.00316 9.34339C0.961173 9.38371 0.927651 9.43199 0.904559 9.48542C0.881466 9.53885 0.869267 9.59636 0.868675 9.65456C0.868083 9.71277 0.879111 9.7705 0.901112 9.82439C0.923114 9.87828 0.955647 9.92724 0.996806 9.9684C1.03797 10.0096 1.08692 10.0421 1.14081 10.0641C1.1947 10.0861 1.25244 10.0971 1.31064 10.0965C1.36885 10.0959 1.42635 10.0837 1.47978 10.0606C1.53321 10.0376 1.5815 10.004 1.62181 9.96205L6.99999 4.58387L12.3782 9.96205C12.4185 10.004 12.4668 10.0376 12.5202 10.0606C12.5736 10.0837 12.6311 10.0959 12.6893 10.0965C12.7475 10.0971 12.8053 10.0861 12.8592 10.0641C12.9131 10.0421 12.962 10.0096 13.0032 9.9684C13.0443 9.92724 13.0769 9.87828 13.0989 9.82439C13.1209 9.7705 13.1319 9.71277 13.1313 9.65456C13.1307 9.59636 13.1185 9.53885 13.0954 9.48542C13.0723 9.43199 13.0388 9.38371 12.9968 9.34339L7.30931 3.65589C7.26795 3.61451 7.21871 3.58185 7.1645 3.55983C7.11029 3.53782 7.05222 3.5269 6.99372 3.52772Z" fill="black"/>
</svg>
