<svg width="14" height="16" viewBox="0 0 14 16" fill="none" xmlns="http://www.w3.org/2000/svg">
<path d="M6.99988 0.773533C3.1401 0.773533 -0.00012207 3.91376 -0.00012207 7.77353C-0.00012207 11.6333 3.1401 14.7735 6.99988 14.7735C10.8597 14.7735 13.9999 11.6333 13.9999 7.77353C13.9999 3.91376 10.8597 0.773533 6.99988 0.773533ZM6.99988 1.82353C10.2922 1.82353 12.9499 4.48122 12.9499 7.77353C12.9499 11.0658 10.2922 13.7235 6.99988 13.7235C3.70756 13.7235 1.04988 11.0658 1.04988 7.77353C1.04988 4.48122 3.70756 1.82353 6.99988 1.82353ZM6.99988 4.62353C5.2664 4.62353 3.84988 6.04005 3.84988 7.77353C3.84988 9.50701 5.2664 10.9235 6.99988 10.9235C8.73336 10.9235 10.1499 9.50701 10.1499 7.77353C10.1499 6.04005 8.73336 4.62353 6.99988 4.62353ZM6.99988 5.67353C8.1659 5.67353 9.09988 6.60752 9.09988 7.77353C9.09988 8.93955 8.1659 9.87353 6.99988 9.87353C5.83386 9.87353 4.89988 8.93955 4.89988 7.77353C4.89988 6.60752 5.83386 5.67353 6.99988 5.67353Z" fill="black"/>
</svg>
