<svg width="14" height="16" viewBox="0 0 14 16" fill="none" xmlns="http://www.w3.org/2000/svg">
<path d="M7 0.835815C3.14022 0.835815 0 3.97604 0 7.83582C0 11.6956 3.14022 14.8358 7 14.8358C10.8598 14.8358 14 11.6956 14 7.83582C14 3.97604 10.8598 0.835815 7 0.835815ZM7 1.88582C10.2923 1.88582 12.95 4.5435 12.95 7.83582C12.95 11.1281 10.2923 13.7858 7 13.7858C3.70768 13.7858 1.05 11.1281 1.05 7.83582C1.05 4.5435 3.70768 1.88582 7 1.88582ZM7 4.68582C5.26652 4.68582 3.85 6.10234 3.85 7.83582C3.85 9.56929 5.26652 10.9858 7 10.9858C8.73348 10.9858 10.15 9.56929 10.15 7.83582C10.15 6.10234 8.73348 4.68582 7 4.68582ZM7 5.73582C8.16602 5.73582 9.1 6.6698 9.1 7.83582C9.1 9.00183 8.16602 9.93581 7 9.93581C5.83398 9.93581 4.9 9.00183 4.9 7.83582C4.9 6.6698 5.83398 5.73582 7 5.73582Z" fill="black"/>
</svg>
