<svg width="14" height="15" viewBox="0 0 14 15" fill="none" xmlns="http://www.w3.org/2000/svg">
<g clip-path="url(#clip0_961_10010)">
<path d="M7.057 0.235902C6.92134 0.238022 6.79208 0.293898 6.69759 0.391259C6.60311 0.488619 6.55113 0.619502 6.55307 0.755159V3.76072C6.05584 3.96564 5.69986 4.45442 5.69986 5.0212V5.36248H4.50537C3.28633 5.36248 2.28703 6.36178 2.28703 7.58082V7.9221C2.28703 10.567 1.63046 12.5381 1.63046 12.5381C1.59357 12.6487 1.59553 12.7685 1.63601 12.8779C1.6765 12.9872 1.75308 13.0794 1.8531 13.1393C1.8531 13.1393 3.70236 14.2358 6.72371 14.2358C7.88136 14.2358 8.89873 14.0675 9.7866 13.8746C9.9022 13.8898 10.0195 13.8651 10.1192 13.8046C11.366 13.5072 12.2156 13.1707 12.2156 13.1707C12.3383 13.118 12.4355 13.0194 12.4866 12.896C12.5377 12.7726 12.5385 12.6341 12.4889 12.5101C12.4889 12.5101 11.843 10.9178 11.843 7.9221V7.58082C11.843 6.36178 10.8437 5.36248 9.62462 5.36248H8.43013V5.0212C8.43013 4.45442 8.07415 3.96564 7.57692 3.76072V0.755159C7.5779 0.686641 7.56512 0.618623 7.53933 0.555136C7.51354 0.491649 7.47527 0.433985 7.42679 0.385562C7.3783 0.337138 7.32059 0.298941 7.25707 0.273234C7.19355 0.247526 7.12551 0.234832 7.057 0.235902ZM7.049 4.68658C7.05988 4.68693 7.07078 4.68693 7.08166 4.68658C7.26649 4.69614 7.40628 4.83308 7.40628 5.0212V5.8744C7.40629 6.01017 7.46023 6.14037 7.55623 6.23637C7.65224 6.33238 7.78244 6.38632 7.9182 6.38633H9.62462C10.2901 6.38633 10.8191 6.9153 10.8191 7.58082V7.75146H3.31088V7.58082C3.31088 6.9153 3.83985 6.38633 4.50537 6.38633H6.21179C6.34756 6.38632 6.47776 6.33238 6.57376 6.23637C6.66976 6.14037 6.7237 6.01017 6.72371 5.8744V5.0212C6.72371 4.83285 6.86383 4.69582 7.049 4.68658ZM3.26289 8.77531H10.8651C10.9565 10.7801 11.2326 11.8696 11.3937 12.3661C11.1637 12.4554 10.9123 12.5595 10.1925 12.7454C10.0584 12.3421 9.85189 11.6118 9.79459 10.2891C9.79377 10.2205 9.77918 10.1528 9.75169 10.09C9.7242 10.0272 9.68437 9.97055 9.63457 9.92342C9.58477 9.87629 9.52601 9.83964 9.46178 9.81565C9.39755 9.79166 9.32915 9.78082 9.26065 9.78377C9.19215 9.78672 9.12493 9.80339 9.063 9.83281C9.00106 9.86223 8.94567 9.90379 8.9001 9.95502C8.85453 10.0063 8.81972 10.0661 8.79773 10.1311C8.77574 10.196 8.76702 10.2647 8.77208 10.3331C8.82807 11.6258 9.02885 12.4299 9.19002 12.9547C8.44609 13.0961 7.63288 13.212 6.72371 13.212C6.20951 13.212 5.78268 13.155 5.35392 13.102C5.47714 12.7782 5.6077 12.3863 5.6952 11.7455C5.70451 11.6788 5.70057 11.6109 5.6836 11.5457C5.66663 11.4806 5.63697 11.4194 5.5963 11.3657C5.55564 11.312 5.50478 11.2668 5.44663 11.2328C5.38849 11.1988 5.32421 11.1766 5.25747 11.1675C5.19073 11.1583 5.12284 11.1625 5.05771 11.1796C4.99257 11.1968 4.93146 11.2267 4.87788 11.2675C4.8243 11.3083 4.7793 11.3593 4.74546 11.4175C4.71162 11.4758 4.68961 11.5401 4.68068 11.6069C4.59036 12.2684 4.45811 12.6764 4.36006 12.906C4.34735 12.9358 4.35499 12.914 4.34473 12.9367C3.38975 12.7196 2.94839 12.5245 2.71697 12.4028C2.85747 11.9277 3.16267 10.7053 3.26289 8.77531Z" fill="black"/>
</g>
<defs>
<clipPath id="clip0_961_10010">
<rect width="14" height="14" fill="white" transform="translate(0 0.23584)"/>
</clipPath>
</defs>
</svg>
