<svg width="14" height="15" viewBox="0 0 14 15" fill="none" xmlns="http://www.w3.org/2000/svg">
<g clip-path="url(#clip0_167_8436)">
<path d="M7 0.173553C3.14022 0.173553 0 3.31378 0 7.17355C0 11.0333 3.14022 14.1736 7 14.1736C10.8598 14.1736 14 11.0333 14 7.17355C14 3.31378 10.8598 0.173553 7 0.173553ZM7 1.22355C10.2923 1.22355 12.95 3.88124 12.95 7.17355C12.95 10.4659 10.2923 13.1236 7 13.1236C3.70768 13.1236 1.05 10.4659 1.05 7.17355C1.05 3.88124 3.70768 1.22355 7 1.22355ZM6.4668 2.96603C6.32768 2.96821 6.19511 3.02551 6.09821 3.12536C6.00131 3.22521 5.948 3.35943 5.95 3.49855V7.34855C5.95003 7.48778 6.00535 7.6213 6.10381 7.71974L7.85381 9.46974C7.90218 9.52013 7.96013 9.56036 8.02425 9.58807C8.08836 9.61578 8.15736 9.63042 8.22721 9.63113C8.29706 9.63184 8.36634 9.6186 8.43101 9.5922C8.49568 9.5658 8.55443 9.52676 8.60382 9.47737C8.65321 9.42798 8.69225 9.36923 8.71865 9.30456C8.74505 9.23989 8.75828 9.17061 8.75757 9.10076C8.75686 9.03092 8.74222 8.96192 8.71451 8.8978C8.6868 8.83368 8.64658 8.77574 8.59619 8.72736L7 7.13117V3.49855C7.00101 3.42829 6.9879 3.35853 6.96145 3.29342C6.935 3.22831 6.89575 3.16918 6.84603 3.11952C6.79631 3.06986 6.73712 3.03068 6.67198 3.00432C6.60684 2.97795 6.53706 2.96494 6.4668 2.96603Z" fill="black"/>
</g>
<defs>
<clipPath id="clip0_167_8436">
<rect width="14" height="14" fill="white" transform="translate(0 0.173553)"/>
</clipPath>
</defs>
</svg>
