<svg width="15" height="16" viewBox="0 0 15 16" fill="none" xmlns="http://www.w3.org/2000/svg">
<path d="M6.99261 0.83606C4.30425 0.83606 1.82718 2.04348 0.142536 3.90835C0.0938984 3.96218 0.0563398 4.02506 0.0320049 4.09341C0.00767006 4.16176 -0.00296448 4.23423 0.000708464 4.30669C0.00438141 4.37914 0.02229 4.45017 0.0534116 4.5157C0.0845332 4.58124 0.128258 4.64 0.182091 4.68864C0.29081 4.78687 0.434097 4.83789 0.580431 4.83047C0.652888 4.8268 0.723913 4.80889 0.789449 4.77777C0.854985 4.74665 0.91375 4.70292 0.962388 4.64909C2.44438 3.00855 4.63645 1.9407 6.99261 1.9407C9.34878 1.9407 11.5451 3.00903 13.0307 4.64981C13.0788 4.70584 13.1376 4.75168 13.2036 4.78461C13.2697 4.81754 13.3417 4.8369 13.4153 4.84155C13.489 4.84619 13.5628 4.83603 13.6325 4.81165C13.7022 4.78727 13.7663 4.74918 13.821 4.69963C13.8757 4.65007 13.9199 4.59005 13.951 4.52312C13.9821 4.45619 13.9995 4.3837 14.0021 4.30994C14.0047 4.23618 13.9926 4.16263 13.9663 4.09366C13.94 4.02468 13.9002 3.96167 13.8492 3.90835C12.1608 2.04372 9.68098 0.83606 6.99261 0.83606ZM13.0272 7.45528C12.9088 7.46137 12.7956 7.50534 12.7042 7.58071C12.6127 7.65608 12.548 7.75884 12.5194 7.87384C11.9283 10.0909 9.60268 11.8825 6.99261 11.8825C4.38255 11.8825 2.06434 10.0918 1.473 7.87384C1.44348 7.75682 1.37646 7.65269 1.28217 7.57737C1.18789 7.50204 1.07153 7.45967 0.950881 7.45672C0.864456 7.45462 0.778744 7.47283 0.700641 7.5099C0.622538 7.54696 0.554225 7.60184 0.501198 7.67012C0.44817 7.73839 0.411909 7.81817 0.395332 7.90301C0.378754 7.98786 0.382323 8.07541 0.405752 8.15863C0.582364 8.82105 0.879996 9.44064 1.26588 10.0047L0.21733 10.8785C0.159586 10.9243 0.11159 10.9812 0.07617 11.0458C0.0407499 11.1105 0.0186215 11.1815 0.0110881 11.2548C0.00355473 11.3282 0.0107686 11.4022 0.0323052 11.4727C0.0538417 11.5432 0.0892653 11.6087 0.136489 11.6653C0.183713 11.7218 0.241783 11.7684 0.307278 11.8022C0.372772 11.836 0.444368 11.8563 0.517847 11.862C0.591326 11.8677 0.665203 11.8587 0.735127 11.8354C0.80505 11.8121 0.869606 11.775 0.924991 11.7264L2.02604 10.808C2.42599 11.2211 2.8551 11.5847 3.35434 11.8904L2.67904 13.0605C2.64276 13.1233 2.61921 13.1927 2.60974 13.2647C2.60028 13.3366 2.60508 13.4097 2.62387 13.4798C2.64267 13.5499 2.67509 13.6156 2.71928 13.6732C2.76347 13.7308 2.81857 13.7791 2.88143 13.8153C2.94429 13.8516 3.01368 13.8752 3.08563 13.8846C3.15759 13.8941 3.2307 13.8892 3.3008 13.8704C3.37089 13.8516 3.43659 13.8192 3.49415 13.775C3.55171 13.7308 3.6 13.6757 3.63626 13.6128L4.33529 12.401C5.00292 12.6773 5.6973 12.8824 6.44389 12.9418V14.2759C6.44285 14.3491 6.45637 14.4217 6.48367 14.4896C6.51096 14.5576 6.55148 14.6194 6.60287 14.6715C6.65426 14.7236 6.7155 14.765 6.78302 14.7933C6.85055 14.8215 6.92301 14.8361 6.99621 14.8361C7.06941 14.8361 7.14187 14.8215 7.2094 14.7933C7.27692 14.765 7.33816 14.7236 7.38955 14.6715C7.44094 14.6194 7.48146 14.5576 7.50875 14.4896C7.53604 14.4217 7.54956 14.3491 7.54853 14.2759V12.9411C8.29428 12.8811 8.98835 12.6758 9.65569 12.3996L10.3562 13.6128C10.3924 13.6757 10.4407 13.7308 10.4983 13.775C10.5558 13.8192 10.6215 13.8516 10.6916 13.8704C10.7617 13.8892 10.8348 13.8941 10.9068 13.8846C10.9787 13.8752 11.0481 13.8516 11.111 13.8153C11.1738 13.7791 11.2289 13.7308 11.2731 13.6732C11.3173 13.6156 11.3497 13.5499 11.3685 13.4798C11.3873 13.4097 11.3921 13.3366 11.3827 13.2647C11.3732 13.1927 11.3497 13.1233 11.3134 13.0605L10.6374 11.889C11.1364 11.5834 11.565 11.2199 11.9649 10.8073L13.0674 11.7264C13.1228 11.775 13.1874 11.8121 13.2573 11.8354C13.3272 11.8587 13.4011 11.8677 13.4746 11.862C13.548 11.8563 13.6196 11.836 13.6851 11.8022C13.7506 11.7684 13.8087 11.7218 13.8559 11.6653C13.9032 11.6087 13.9386 11.5432 13.9601 11.4727C13.9816 11.4022 13.9889 11.3282 13.9813 11.2548C13.9738 11.1815 13.9517 11.1105 13.9162 11.0458C13.8808 10.9812 13.8328 10.9243 13.7751 10.8785L12.7258 10.004C13.1119 9.44021 13.4101 8.82076 13.5867 8.15863C13.6108 8.07412 13.6144 7.98506 13.5972 7.89887C13.58 7.81268 13.5425 7.73183 13.4878 7.66305C13.4331 7.59427 13.3628 7.53953 13.2826 7.5034C13.2025 7.46726 13.1149 7.45077 13.0272 7.45528Z" fill="black"/>
</svg>
