<svg width="15" height="16" viewBox="0 0 15 16" fill="none" xmlns="http://www.w3.org/2000/svg">
<path d="M6.99261 0.773533C4.30425 0.773533 1.82718 1.98096 0.142536 3.84582C0.0938984 3.89965 0.0563398 3.96254 0.0320049 4.03088C0.00767006 4.09923 -0.00296448 4.1717 0.000708464 4.24416C0.00438141 4.31662 0.02229 4.38764 0.0534116 4.45318C0.0845332 4.51871 0.128258 4.57748 0.182091 4.62612C0.29081 4.72434 0.434097 4.77536 0.580431 4.76794C0.652888 4.76427 0.723913 4.74636 0.789449 4.71524C0.854985 4.68412 0.91375 4.64039 0.962388 4.58656C2.44438 2.94603 4.63645 1.87818 6.99261 1.87818C9.34878 1.87818 11.5451 2.94651 13.0307 4.58728C13.0788 4.64331 13.1376 4.68915 13.2036 4.72208C13.2697 4.75502 13.3417 4.77438 13.4153 4.77902C13.489 4.78366 13.5628 4.7735 13.6325 4.74912C13.7022 4.72475 13.7663 4.68666 13.821 4.6371C13.8757 4.58754 13.9199 4.52753 13.951 4.46059C13.9821 4.39366 13.9995 4.32118 14.0021 4.24741C14.0047 4.17365 13.9926 4.10011 13.9663 4.03113C13.94 3.96216 13.9002 3.89914 13.8492 3.84582C12.1608 1.9812 9.68098 0.773533 6.99261 0.773533ZM13.0272 7.39276C12.9088 7.39884 12.7956 7.44281 12.7042 7.51818C12.6127 7.59355 12.548 7.69632 12.5194 7.81131C11.9283 10.0284 9.60268 11.82 6.99261 11.82C4.38255 11.82 2.06434 10.0292 1.473 7.81131C1.44348 7.6943 1.37646 7.59017 1.28217 7.51484C1.18789 7.43952 1.07153 7.39714 0.950881 7.39419C0.864456 7.39209 0.778744 7.41031 0.700641 7.44737C0.622538 7.48443 0.554225 7.53931 0.501198 7.60759C0.44817 7.67587 0.411909 7.75564 0.395332 7.84049C0.378754 7.92533 0.382323 8.01289 0.405752 8.0961C0.582364 8.75852 0.879996 9.37811 1.26588 9.94221L0.21733 10.816C0.159586 10.8618 0.11159 10.9187 0.07617 10.9833C0.0407499 11.0479 0.0186215 11.119 0.0110881 11.1923C0.00355473 11.2656 0.0107686 11.3397 0.0323052 11.4102C0.0538417 11.4807 0.0892653 11.5461 0.136489 11.6027C0.183713 11.6593 0.241783 11.7059 0.307278 11.7397C0.372772 11.7735 0.444368 11.7938 0.517847 11.7995C0.591326 11.8052 0.665203 11.7961 0.735127 11.7729C0.80505 11.7496 0.869606 11.7125 0.924991 11.6639L2.02604 10.7455C2.42599 11.1586 2.8551 11.5222 3.35434 11.8279L2.67904 12.998C2.64276 13.0608 2.61921 13.1302 2.60974 13.2021C2.60028 13.2741 2.60508 13.3472 2.62387 13.4173C2.64267 13.4874 2.67509 13.5531 2.71928 13.6107C2.76347 13.6683 2.81857 13.7165 2.88143 13.7528C2.94429 13.7891 3.01368 13.8126 3.08563 13.8221C3.15759 13.8315 3.2307 13.8267 3.3008 13.8079C3.37089 13.7891 3.43659 13.7567 3.49415 13.7125C3.55171 13.6683 3.6 13.6131 3.63626 13.5503L4.33529 12.3385C5.00292 12.6147 5.6973 12.8199 6.44389 12.8793V14.2133C6.44285 14.2865 6.45637 14.3592 6.48367 14.4271C6.51096 14.495 6.55148 14.5569 6.60287 14.609C6.65426 14.6611 6.7155 14.7025 6.78302 14.7307C6.85055 14.759 6.92301 14.7735 6.99621 14.7735C7.06941 14.7735 7.14187 14.759 7.2094 14.7307C7.27692 14.7025 7.33816 14.6611 7.38955 14.609C7.44094 14.5569 7.48146 14.495 7.50875 14.4271C7.53604 14.3592 7.54956 14.2865 7.54853 14.2133V12.8786C8.29428 12.8185 8.98835 12.6133 9.65569 12.337L10.3562 13.5503C10.3924 13.6131 10.4407 13.6683 10.4983 13.7125C10.5558 13.7567 10.6215 13.7891 10.6916 13.8079C10.7617 13.8267 10.8348 13.8315 10.9068 13.8221C10.9787 13.8126 11.0481 13.7891 11.111 13.7528C11.1738 13.7165 11.2289 13.6683 11.2731 13.6107C11.3173 13.5531 11.3497 13.4874 11.3685 13.4173C11.3873 13.3472 11.3921 13.2741 11.3827 13.2021C11.3732 13.1302 11.3497 13.0608 11.3134 12.998L10.6374 11.8264C11.1364 11.5209 11.565 11.1574 11.9649 10.7448L13.0674 11.6639C13.1228 11.7125 13.1874 11.7496 13.2573 11.7729C13.3272 11.7961 13.4011 11.8052 13.4746 11.7995C13.548 11.7938 13.6196 11.7735 13.6851 11.7397C13.7506 11.7059 13.8087 11.6593 13.8559 11.6027C13.9032 11.5461 13.9386 11.4807 13.9601 11.4102C13.9816 11.3397 13.9889 11.2656 13.9813 11.1923C13.9738 11.119 13.9517 11.0479 13.9162 10.9833C13.8808 10.9187 13.8328 10.8618 13.7751 10.816L12.7258 9.94149C13.1119 9.37768 13.4101 8.75824 13.5867 8.0961C13.6108 8.01159 13.6144 7.92254 13.5972 7.83634C13.58 7.75015 13.5425 7.66931 13.4878 7.60052C13.4331 7.53174 13.3628 7.47701 13.2826 7.44087C13.2025 7.40474 13.1149 7.38824 13.0272 7.39276Z" fill="black"/>
</svg>
