<svg width="14" height="15" viewBox="0 0 14 15" fill="none" xmlns="http://www.w3.org/2000/svg">
<g clip-path="url(#clip0_860_5195)">
<path d="M2.29766 0.173553C1.60625 0.173553 1.04425 0.779199 1.07263 1.48605C1.23875 5.63279 2.65901 9.74126 3.26989 11.3501C3.50474 11.9689 4.08941 12.3786 4.7361 12.3786H7.87212C8.51881 12.3786 9.10348 11.9687 9.33901 11.3508V11.3501C9.50915 10.902 9.74324 10.2453 9.99423 9.46268C10.228 9.41424 10.4714 9.32824 10.7547 9.20817C11.1877 9.02463 11.6753 8.76132 12.1444 8.42082C13.0825 7.73982 14 6.71856 14 5.37866C14 4.29464 13.1324 3.40431 12.076 3.40431C11.8094 3.40431 11.5678 3.46967 11.3511 3.57538C11.4411 2.88762 11.5074 2.18794 11.5356 1.48605C11.564 0.778885 11.0019 0.173553 10.3106 0.173553H2.29766ZM2.29766 1.25047H10.3106C10.4175 1.25047 10.492 1.32987 10.4875 1.44188C10.3301 5.36315 8.95105 9.40566 8.36131 10.9589C8.28131 11.1687 8.09157 11.3017 7.87212 11.3017H4.7361C4.51665 11.3017 4.32688 11.1685 4.24759 10.9596C3.65791 9.40657 2.27849 5.36341 2.12138 1.44188C2.11687 1.32955 2.19009 1.25047 2.29766 1.25047ZM12.076 4.48123C12.5651 4.48123 12.9506 4.87674 12.9506 5.37866C12.9506 6.1926 12.331 6.96621 11.5383 7.54161C11.1485 7.82461 10.7299 8.0512 10.3727 8.20417C10.5497 7.58104 10.7228 6.91323 10.8817 6.19967H10.8831C10.9507 5.84519 11.1064 5.35667 11.3272 5.00777C11.5481 4.65887 11.7688 4.48123 12.076 4.48123ZM0.532193 13.0966C0.462662 13.0956 0.393628 13.1088 0.329104 13.1354C0.26458 13.162 0.205853 13.2015 0.156335 13.2516C0.106818 13.3017 0.0674972 13.3614 0.040659 13.4272C0.0138207 13.493 0 13.5637 0 13.635C0 13.7064 0.0138207 13.777 0.040659 13.8429C0.0674972 13.9087 0.106818 13.9684 0.156335 14.0185C0.205853 14.0686 0.26458 14.1081 0.329104 14.1347C0.393628 14.1613 0.462662 14.1745 0.532193 14.1735H12.076C12.1456 14.1745 12.2146 14.1613 12.2791 14.1347C12.3436 14.1081 12.4024 14.0686 12.4519 14.0185C12.5014 13.9684 12.5407 13.9087 12.5676 13.8429C12.5944 13.777 12.6082 13.7064 12.6082 13.635C12.6082 13.5637 12.5944 13.493 12.5676 13.4272C12.5407 13.3614 12.5014 13.3017 12.4519 13.2516C12.4024 13.2015 12.3436 13.162 12.2791 13.1354C12.2146 13.1088 12.1456 13.0956 12.076 13.0966H0.532193Z" fill="black"/>
</g>
<defs>
<clipPath id="clip0_860_5195">
<rect width="14" height="14" fill="white" transform="translate(0 0.173553)"/>
</clipPath>
</defs>
</svg>
