<svg width="15" height="16" viewBox="0 0 15 16" fill="none" xmlns="http://www.w3.org/2000/svg">
<path d="M2.1466 0.773655C0.972247 0.773655 0.00771508 1.73819 0.00771508 2.91254V9.81684C-0.00257169 9.87946 -0.00257169 9.94335 0.00771508 10.006V12.6348C0.00771508 13.8091 0.972247 14.7737 2.1466 14.7737H11.8688C13.0432 14.7737 14.0077 13.8091 14.0077 12.6348V10.0082C14.018 9.94562 14.018 9.88174 14.0077 9.81912V2.91254C14.0077 1.73819 13.0432 0.773655 11.8688 0.773655H2.1466ZM2.1466 1.94032H6.42438V5.05143H1.17438V2.91254C1.17438 2.36879 1.60285 1.94032 2.1466 1.94032ZM7.59105 1.94032H11.8688C12.4126 1.94032 12.841 2.36879 12.841 2.91254V5.05143H7.59105V1.94032ZM1.17438 6.2181H6.42438V9.32921H1.17438V6.2181ZM7.59105 6.2181H12.841V9.32921H7.59105V6.2181ZM1.17438 10.4959H6.42438V13.607H2.1466C1.60285 13.607 1.17438 13.1785 1.17438 12.6348V10.4959ZM7.59105 10.4959H12.841V12.6348C12.841 13.1785 12.4126 13.607 11.8688 13.607H7.59105V10.4959Z" fill="black"/>
</svg>
