<svg width="15" height="16" viewBox="0 0 15 16" fill="none" xmlns="http://www.w3.org/2000/svg">
<path d="M2.1466 0.836182C0.972247 0.836182 0.00771508 1.80071 0.00771508 2.97507V9.87937C-0.00257169 9.94199 -0.00257169 10.0059 0.00771508 10.0685V12.6973C0.00771508 13.8716 0.972247 14.8362 2.1466 14.8362H11.8688C13.0432 14.8362 14.0077 13.8716 14.0077 12.6973V10.0708C14.018 10.0082 14.018 9.94427 14.0077 9.88165V2.97507C14.0077 1.80071 13.0432 0.836182 11.8688 0.836182H2.1466ZM2.1466 2.00285H6.42438V5.11396H1.17438V2.97507C1.17438 2.43132 1.60285 2.00285 2.1466 2.00285ZM7.59105 2.00285H11.8688C12.4126 2.00285 12.841 2.43132 12.841 2.97507V5.11396H7.59105V2.00285ZM1.17438 6.28063H6.42438V9.39174H1.17438V6.28063ZM7.59105 6.28063H12.841V9.39174H7.59105V6.28063ZM1.17438 10.5584H6.42438V13.6695H2.1466C1.60285 13.6695 1.17438 13.241 1.17438 12.6973V10.5584ZM7.59105 10.5584H12.841V12.6973C12.841 13.241 12.4126 13.6695 11.8688 13.6695H7.59105V10.5584Z" fill="black"/>
</svg>
