<svg width="14" height="15" viewBox="0 0 14 15" fill="none" xmlns="http://www.w3.org/2000/svg">
<g clip-path="url(#clip0_1683_9916)">
<path d="M11.9691 0.658957C11.8265 0.652225 11.6801 0.671739 11.5357 0.721071L4.90702 2.98081L1.7554 3.22319C0.76956 3.29888 0 4.12976 0 5.11835V7.74335C0 8.73194 0.76956 9.56282 1.7554 9.63851C1.76866 9.63947 1.78194 9.63992 1.79524 9.63986H1.33275L1.6413 12.4174C1.72142 13.1376 2.33862 13.6894 3.06318 13.6894C3.84726 13.6894 4.4945 13.0429 4.4945 12.2588V9.84916L4.9077 9.88089L11.5357 12.1406H11.5364C12.3064 12.4031 13.1365 11.8087 13.1365 10.9949V7.88378C13.6424 7.67828 14 7.18338 14 6.60369C14 6.024 13.6424 5.5291 13.1365 5.3236V1.86613V1.86546C13.136 1.25524 12.6686 0.768733 12.1102 0.674485C12.0637 0.666631 12.0167 0.6612 11.9691 0.658957ZM11.9597 1.69127C12.0418 1.69988 12.0994 1.76614 12.0994 1.86681V10.9949C12.0994 11.1289 11.9972 11.2021 11.8706 11.159L5.17978 8.87829C5.13853 8.86418 5.09565 8.85533 5.05218 8.85195L4.01514 8.77161C3.94394 8.76623 3.8724 8.7756 3.805 8.79915C3.73759 8.8227 3.67578 8.85992 3.62342 8.90847C3.57107 8.95702 3.5293 9.01586 3.50075 9.0813C3.47219 9.14674 3.45745 9.21738 3.45747 9.28878V12.2588C3.45747 12.482 3.2864 12.6524 3.06318 12.6524C2.85807 12.6524 2.69477 12.5059 2.67226 12.3027L2.3124 9.06463C2.29901 8.94433 2.24395 8.83251 2.15677 8.74853C2.06959 8.66456 1.95579 8.61373 1.83507 8.60485C1.38012 8.56992 1.03704 8.1997 1.03704 7.74335V5.11835C1.03704 4.662 1.38012 4.29178 1.83507 4.25685L4.49383 4.05296V7.29505C4.49286 7.36376 4.50555 7.43198 4.53117 7.49574C4.55679 7.5595 4.59483 7.61753 4.64308 7.66646C4.69132 7.7154 4.74881 7.75425 4.8122 7.78077C4.8756 7.80729 4.94363 7.82095 5.01235 7.82095C5.08106 7.82095 5.14909 7.80729 5.21249 7.78077C5.27588 7.75425 5.33337 7.7154 5.38161 7.66646C5.42986 7.61753 5.4679 7.5595 5.49352 7.49574C5.51914 7.43198 5.53184 7.36376 5.53086 7.29505V3.86391L11.8706 1.70275C11.9022 1.69195 11.9323 1.6884 11.9597 1.69127Z" fill="black"/>
</g>
<defs>
<clipPath id="clip0_1683_9916">
<rect width="14" height="14" fill="white" transform="translate(0 0.173553)"/>
</clipPath>
</defs>
</svg>
