<svg width="14" height="15" viewBox="0 0 14 15" fill="none" xmlns="http://www.w3.org/2000/svg">
<g clip-path="url(#clip0_255_5179)">
<path d="M0.559873 1.34028C0.486725 1.33925 0.414101 1.35276 0.346221 1.38004C0.278341 1.40731 0.21656 1.44781 0.164466 1.49917C0.112373 1.55053 0.0710078 1.61174 0.0427737 1.67922C0.0145396 1.74671 0 1.81914 0 1.89229C0 1.96545 0.0145396 2.03787 0.0427737 2.10536C0.0710078 2.17285 0.112373 2.23405 0.164466 2.28541C0.21656 2.33677 0.278341 2.37727 0.346221 2.40455C0.414101 2.43182 0.486725 2.44534 0.559873 2.4443H6.07998C6.15313 2.44534 6.22575 2.43182 6.29363 2.40455C6.36151 2.37727 6.4233 2.33677 6.47539 2.28541C6.52748 2.23405 6.56885 2.17285 6.59708 2.10536C6.62532 2.03787 6.63986 1.96545 6.63986 1.89229C6.63986 1.81914 6.62532 1.74671 6.59708 1.67922C6.56885 1.61174 6.52748 1.55053 6.47539 1.49917C6.4233 1.44781 6.36151 1.40731 6.29363 1.38004C6.22575 1.35276 6.15313 1.33925 6.07998 1.34028H0.559873ZM9.39205 1.34028C9.3189 1.33925 9.24628 1.35276 9.1784 1.38004C9.11052 1.40731 9.04873 1.44781 8.99664 1.49917C8.94455 1.55053 8.90318 1.61174 8.87495 1.67922C8.84671 1.74671 8.83218 1.81914 8.83218 1.89229C8.83218 1.96545 8.84671 2.03787 8.87495 2.10536C8.90318 2.17285 8.94455 2.23405 8.99664 2.28541C9.04873 2.33677 9.11052 2.37727 9.1784 2.40455C9.24628 2.43182 9.3189 2.44534 9.39205 2.4443H10.8641C10.9372 2.44534 11.0099 2.43182 11.0777 2.40455C11.1456 2.37727 11.2074 2.33677 11.2595 2.28541C11.3116 2.23405 11.3529 2.17285 11.3812 2.10536C11.4094 2.03787 11.424 1.96545 11.424 1.89229C11.424 1.81914 11.4094 1.74671 11.3812 1.67922C11.3529 1.61174 11.3116 1.55053 11.2595 1.49917C11.2074 1.44781 11.1456 1.40731 11.0777 1.38004C11.0099 1.35276 10.9372 1.33925 10.8641 1.34028H9.39205ZM13.0721 1.34028C12.999 1.33925 12.9263 1.35276 12.8585 1.38004C12.7906 1.40731 12.7288 1.44781 12.6767 1.49917C12.6246 1.55053 12.5833 1.61174 12.555 1.67922C12.5268 1.74671 12.5122 1.81914 12.5122 1.89229C12.5122 1.96545 12.5268 2.03787 12.555 2.10536C12.5833 2.17285 12.6246 2.23405 12.6767 2.28541C12.7288 2.33677 12.7906 2.37727 12.8585 2.40455C12.9263 2.43182 12.999 2.44534 13.0721 2.4443H13.4401C13.5133 2.44534 13.5859 2.43182 13.6538 2.40455C13.7217 2.37727 13.7834 2.33677 13.8355 2.28541C13.8876 2.23405 13.929 2.17285 13.9572 2.10536C13.9855 2.03787 14 1.96545 14 1.89229C14 1.81914 13.9855 1.74671 13.9572 1.67922C13.929 1.61174 13.8876 1.55053 13.8355 1.49917C13.7834 1.44781 13.7217 1.40731 13.6538 1.38004C13.5859 1.35276 13.5133 1.33925 13.4401 1.34028H13.0721ZM0.559873 3.91633C0.486725 3.9153 0.414101 3.92881 0.346221 3.95609C0.278341 3.98336 0.21656 4.02386 0.164466 4.07522C0.112373 4.12658 0.0710078 4.18779 0.0427737 4.25527C0.0145396 4.32276 0 4.39519 0 4.46834C0 4.5415 0.0145396 4.61392 0.0427737 4.68141C0.0710078 4.7489 0.112373 4.8101 0.164466 4.86146C0.21656 4.91282 0.278341 4.95332 0.346221 4.9806C0.414101 5.00787 0.486725 5.02139 0.559873 5.02035H4.23995C4.31309 5.02139 4.38572 5.00787 4.4536 4.9806C4.52148 4.95332 4.58326 4.91282 4.63535 4.86146C4.68745 4.8101 4.72881 4.7489 4.75705 4.68141C4.78528 4.61392 4.79982 4.5415 4.79982 4.46834C4.79982 4.39519 4.78528 4.32276 4.75705 4.25527C4.72881 4.18779 4.68745 4.12658 4.63535 4.07522C4.58326 4.02386 4.52148 3.98336 4.4536 3.95609C4.38572 3.92881 4.31309 3.9153 4.23995 3.91633H0.559873ZM9.39205 3.91633C9.3189 3.9153 9.24628 3.92881 9.1784 3.95609C9.11052 3.98336 9.04873 4.02386 8.99664 4.07522C8.94455 4.12658 8.90318 4.18779 8.87495 4.25527C8.84671 4.32276 8.83218 4.39519 8.83218 4.46834C8.83218 4.5415 8.84671 4.61392 8.87495 4.68141C8.90318 4.7489 8.94455 4.8101 8.99664 4.86146C9.04873 4.91282 9.11052 4.95332 9.1784 4.9806C9.24628 5.00787 9.3189 5.02139 9.39205 5.02035H10.8641C10.9372 5.02139 11.0099 5.00787 11.0777 4.9806C11.1456 4.95332 11.2074 4.91282 11.2595 4.86146C11.3116 4.8101 11.3529 4.7489 11.3812 4.68141C11.4094 4.61392 11.424 4.5415 11.424 4.46834C11.424 4.39519 11.4094 4.32276 11.3812 4.25527C11.3529 4.18779 11.3116 4.12658 11.2595 4.07522C11.2074 4.02386 11.1456 3.98336 11.0777 3.95609C11.0099 3.92881 10.9372 3.9153 10.8641 3.91633H9.39205ZM13.0721 3.91633C12.999 3.9153 12.9263 3.92881 12.8585 3.95609C12.7906 3.98336 12.7288 4.02386 12.6767 4.07522C12.6246 4.12658 12.5833 4.18779 12.555 4.25527C12.5268 4.32276 12.5122 4.39519 12.5122 4.46834C12.5122 4.5415 12.5268 4.61392 12.555 4.68141C12.5833 4.7489 12.6246 4.8101 12.6767 4.86146C12.7288 4.91282 12.7906 4.95332 12.8585 4.9806C12.9263 5.00787 12.999 5.02139 13.0721 5.02035H13.4401C13.5133 5.02139 13.5859 5.00787 13.6538 4.9806C13.7217 4.95332 13.7834 4.91282 13.8355 4.86146C13.8876 4.8101 13.929 4.7489 13.9572 4.68141C13.9855 4.61392 14 4.5415 14 4.46834C14 4.39519 13.9855 4.32276 13.9572 4.25527C13.929 4.18779 13.8876 4.12658 13.8355 4.07522C13.7834 4.02386 13.7217 3.98336 13.6538 3.95609C13.5859 3.92881 13.5133 3.9153 13.4401 3.91633H13.0721ZM0.559873 6.49238C0.486725 6.49135 0.414101 6.50486 0.346221 6.53214C0.278341 6.55942 0.21656 6.59991 0.164466 6.65127C0.112373 6.70264 0.0710078 6.76384 0.0427737 6.83133C0.0145396 6.89881 0 6.97124 0 7.04439C0 7.11755 0.0145396 7.18998 0.0427737 7.25746C0.0710078 7.32495 0.112373 7.38615 0.164466 7.43751C0.21656 7.48888 0.278341 7.52937 0.346221 7.55665C0.414101 7.58393 0.486725 7.59744 0.559873 7.59641H5.34397C5.41712 7.59744 5.48974 7.58393 5.55762 7.55665C5.6255 7.52937 5.68728 7.48888 5.73937 7.43751C5.79147 7.38615 5.83283 7.32495 5.86107 7.25746C5.8893 7.18998 5.90384 7.11755 5.90384 7.04439C5.90384 6.97124 5.8893 6.89881 5.86107 6.83133C5.83283 6.76384 5.79147 6.70264 5.73937 6.65127C5.68728 6.59991 5.6255 6.55942 5.55762 6.53214C5.48974 6.50486 5.41712 6.49135 5.34397 6.49238H0.559873ZM9.39205 6.49238C9.3189 6.49135 9.24628 6.50486 9.1784 6.53214C9.11052 6.55942 9.04873 6.59991 8.99664 6.65127C8.94455 6.70264 8.90318 6.76384 8.87495 6.83133C8.84671 6.89881 8.83218 6.97124 8.83218 7.04439C8.83218 7.11755 8.84671 7.18998 8.87495 7.25746C8.90318 7.32495 8.94455 7.38615 8.99664 7.43751C9.04873 7.48888 9.11052 7.52937 9.1784 7.55665C9.24628 7.58393 9.3189 7.59744 9.39205 7.59641H10.8641C10.9372 7.59744 11.0099 7.58393 11.0777 7.55665C11.1456 7.52937 11.2074 7.48888 11.2595 7.43751C11.3116 7.38615 11.3529 7.32495 11.3812 7.25746C11.4094 7.18998 11.424 7.11755 11.424 7.04439C11.424 6.97124 11.4094 6.89881 11.3812 6.83133C11.3529 6.76384 11.3116 6.70264 11.2595 6.65127C11.2074 6.59991 11.1456 6.55942 11.0777 6.53214C11.0099 6.50486 10.9372 6.49135 10.8641 6.49238H9.39205ZM13.0721 6.49238C12.999 6.49135 12.9263 6.50486 12.8585 6.53214C12.7906 6.55942 12.7288 6.59991 12.6767 6.65127C12.6246 6.70264 12.5833 6.76384 12.555 6.83133C12.5268 6.89881 12.5122 6.97124 12.5122 7.04439C12.5122 7.11755 12.5268 7.18998 12.555 7.25746C12.5833 7.32495 12.6246 7.38615 12.6767 7.43751C12.7288 7.48888 12.7906 7.52937 12.8585 7.55665C12.9263 7.58393 12.999 7.59744 13.0721 7.59641H13.4401C13.5133 7.59744 13.5859 7.58393 13.6538 7.55665C13.7217 7.52937 13.7834 7.48888 13.8355 7.43751C13.8876 7.38615 13.929 7.32495 13.9572 7.25746C13.9855 7.18998 14 7.11755 14 7.04439C14 6.97124 13.9855 6.89881 13.9572 6.83133C13.929 6.76384 13.8876 6.70264 13.8355 6.65127C13.7834 6.59991 13.7217 6.55942 13.6538 6.53214C13.5859 6.50486 13.5133 6.49135 13.4401 6.49238H13.0721ZM0.559873 9.06843C0.486725 9.0674 0.414101 9.08091 0.346221 9.10819C0.278341 9.13547 0.21656 9.17596 0.164466 9.22732C0.112373 9.27869 0.0710078 9.33989 0.0427737 9.40738C0.0145396 9.47486 0 9.54729 0 9.62045C0 9.6936 0.0145396 9.76603 0.0427737 9.83351C0.0710078 9.901 0.112373 9.9622 0.164466 10.0136C0.21656 10.0649 0.278341 10.1054 0.346221 10.1327C0.414101 10.16 0.486725 10.1735 0.559873 10.1725H3.13592C3.20907 10.1735 3.2817 10.16 3.34958 10.1327C3.41746 10.1054 3.47924 10.0649 3.53133 10.0136C3.58342 9.9622 3.62479 9.901 3.65302 9.83351C3.68126 9.76603 3.6958 9.6936 3.6958 9.62045C3.6958 9.54729 3.68126 9.47486 3.65302 9.40738C3.62479 9.33989 3.58342 9.27869 3.53133 9.22732C3.47924 9.17596 3.41746 9.13547 3.34958 9.10819C3.2817 9.08091 3.20907 9.0674 3.13592 9.06843H0.559873ZM9.39205 9.06843C9.3189 9.0674 9.24628 9.08091 9.1784 9.10819C9.11052 9.13547 9.04873 9.17596 8.99664 9.22732C8.94455 9.27869 8.90318 9.33989 8.87495 9.40738C8.84671 9.47486 8.83218 9.54729 8.83218 9.62045C8.83218 9.6936 8.84671 9.76603 8.87495 9.83351C8.90318 9.901 8.94455 9.9622 8.99664 10.0136C9.04873 10.0649 9.11052 10.1054 9.1784 10.1327C9.24628 10.16 9.3189 10.1735 9.39205 10.1725H10.8641C10.9372 10.1735 11.0099 10.16 11.0777 10.1327C11.1456 10.1054 11.2074 10.0649 11.2595 10.0136C11.3116 9.9622 11.3529 9.901 11.3812 9.83351C11.4094 9.76603 11.424 9.6936 11.424 9.62045C11.424 9.54729 11.4094 9.47486 11.3812 9.40738C11.3529 9.33989 11.3116 9.27869 11.2595 9.22732C11.2074 9.17596 11.1456 9.13547 11.0777 9.10819C11.0099 9.08091 10.9372 9.0674 10.8641 9.06843H9.39205ZM13.0721 9.06843C12.999 9.0674 12.9263 9.08091 12.8585 9.10819C12.7906 9.13547 12.7288 9.17596 12.6767 9.22732C12.6246 9.27869 12.5833 9.33989 12.555 9.40738C12.5268 9.47486 12.5122 9.54729 12.5122 9.62045C12.5122 9.6936 12.5268 9.76603 12.555 9.83351C12.5833 9.901 12.6246 9.9622 12.6767 10.0136C12.7288 10.0649 12.7906 10.1054 12.8585 10.1327C12.9263 10.16 12.999 10.1735 13.0721 10.1725H13.4401C13.5133 10.1735 13.5859 10.16 13.6538 10.1327C13.7217 10.1054 13.7834 10.0649 13.8355 10.0136C13.8876 9.9622 13.929 9.901 13.9572 9.83351C13.9855 9.76603 14 9.6936 14 9.62045C14 9.54729 13.9855 9.47486 13.9572 9.40738C13.929 9.33989 13.8876 9.27869 13.8355 9.22732C13.7834 9.17596 13.7217 9.13547 13.6538 9.10819C13.5859 9.08091 13.5133 9.0674 13.4401 9.06843H13.0721ZM0.559873 11.6445C0.486725 11.6435 0.414101 11.657 0.346221 11.6842C0.278341 11.7115 0.21656 11.752 0.164466 11.8034C0.112373 11.8547 0.0710078 11.9159 0.0427737 11.9834C0.0145396 12.0509 0 12.1233 0 12.1965C0 12.2697 0.0145396 12.3421 0.0427737 12.4096C0.0710078 12.4771 0.112373 12.5383 0.164466 12.5896C0.21656 12.641 0.278341 12.6815 0.346221 12.7088C0.414101 12.736 0.486725 12.7495 0.559873 12.7485H6.816C6.88915 12.7495 6.96177 12.736 7.02965 12.7088C7.09753 12.6815 7.15931 12.641 7.2114 12.5896C7.2635 12.5383 7.30486 12.4771 7.3331 12.4096C7.36133 12.3421 7.37587 12.2697 7.37587 12.1965C7.37587 12.1233 7.36133 12.0509 7.3331 11.9834C7.30486 11.9159 7.2635 11.8547 7.2114 11.8034C7.15931 11.752 7.09753 11.7115 7.02965 11.6842C6.96177 11.657 6.88915 11.6435 6.816 11.6445H0.559873ZM9.39205 11.6445C9.3189 11.6435 9.24628 11.657 9.1784 11.6842C9.11052 11.7115 9.04873 11.752 8.99664 11.8034C8.94455 11.8547 8.90318 11.9159 8.87495 11.9834C8.84671 12.0509 8.83218 12.1233 8.83218 12.1965C8.83218 12.2697 8.84671 12.3421 8.87495 12.4096C8.90318 12.4771 8.94455 12.5383 8.99664 12.5896C9.04873 12.641 9.11052 12.6815 9.1784 12.7088C9.24628 12.736 9.3189 12.7495 9.39205 12.7485H10.8641C10.9372 12.7495 11.0099 12.736 11.0777 12.7088C11.1456 12.6815 11.2074 12.641 11.2595 12.5896C11.3116 12.5383 11.3529 12.4771 11.3812 12.4096C11.4094 12.3421 11.424 12.2697 11.424 12.1965C11.424 12.1233 11.4094 12.0509 11.3812 11.9834C11.3529 11.9159 11.3116 11.8547 11.2595 11.8034C11.2074 11.752 11.1456 11.7115 11.0777 11.6842C11.0099 11.657 10.9372 11.6435 10.8641 11.6445H9.39205ZM13.0721 11.6445C12.999 11.6435 12.9263 11.657 12.8585 11.6842C12.7906 11.7115 12.7288 11.752 12.6767 11.8034C12.6246 11.8547 12.5833 11.9159 12.555 11.9834C12.5268 12.0509 12.5122 12.1233 12.5122 12.1965C12.5122 12.2697 12.5268 12.3421 12.555 12.4096C12.5833 12.4771 12.6246 12.5383 12.6767 12.5896C12.7288 12.641 12.7906 12.6815 12.8585 12.7088C12.9263 12.736 12.999 12.7495 13.0721 12.7485H13.4401C13.5133 12.7495 13.5859 12.736 13.6538 12.7088C13.7217 12.6815 13.7834 12.641 13.8355 12.5896C13.8876 12.5383 13.929 12.4771 13.9572 12.4096C13.9855 12.3421 14 12.2697 14 12.1965C14 12.1233 13.9855 12.0509 13.9572 11.9834C13.929 11.9159 13.8876 11.8547 13.8355 11.8034C13.7834 11.752 13.7217 11.7115 13.6538 11.6842C13.5859 11.657 13.5133 11.6435 13.4401 11.6445H13.0721Z" fill="black"/>
</g>
<defs>
<clipPath id="clip0_255_5179">
<rect width="14" height="14" fill="white" transform="translate(0 0.173553)"/>
</clipPath>
</defs>
</svg>
