<svg width="14" height="15" viewBox="0 0 14 15" fill="none" xmlns="http://www.w3.org/2000/svg">
<path d="M0.920535 0.836182C0.418441 0.836182 0 1.25462 0 1.75672V3.59779C0 4.09988 0.418441 4.51832 0.920535 4.51832H2.76161C3.2637 4.51832 3.68214 4.09988 3.68214 3.59779V1.75672C3.68214 1.25462 3.2637 0.836182 2.76161 0.836182H0.920535ZM1.10464 1.94082H2.5775V3.41368H1.10464V1.94082ZM5.3391 2.30904C5.26591 2.308 5.19325 2.32152 5.12533 2.34882C5.05741 2.37611 4.9956 2.41663 4.94347 2.46802C4.89135 2.51941 4.84996 2.58065 4.82171 2.64817C4.79346 2.7157 4.77892 2.78816 4.77892 2.86136C4.77892 2.93456 4.79346 3.00702 4.82171 3.07455C4.84996 3.14207 4.89135 3.20331 4.94347 3.2547C4.9956 3.30609 5.05741 3.34661 5.12533 3.3739C5.19325 3.40119 5.26591 3.41472 5.3391 3.41368H13.4398C13.513 3.41472 13.5857 3.40119 13.6536 3.3739C13.7215 3.34661 13.7833 3.30609 13.8354 3.2547C13.8876 3.20331 13.929 3.14207 13.9572 3.07455C13.9855 3.00702 14 2.93456 14 2.86136C14 2.78816 13.9855 2.7157 13.9572 2.64817C13.929 2.58065 13.8876 2.51941 13.8354 2.46802C13.7833 2.41663 13.7215 2.37611 13.6536 2.34882C13.5857 2.32152 13.513 2.308 13.4398 2.30904H5.3391ZM0.920535 5.25475C0.418441 5.25475 0 5.67319 0 6.17529V8.01636C0 8.51845 0.418441 8.93689 0.920535 8.93689H2.76161C3.2637 8.93689 3.68214 8.51845 3.68214 8.01636V6.17529C3.68214 5.67319 3.2637 5.25475 2.76161 5.25475H0.920535ZM1.10464 6.35939H2.5775V7.83225H1.10464V6.35939ZM5.3391 6.72761C5.26591 6.72657 5.19325 6.74009 5.12533 6.76739C5.05741 6.79468 4.9956 6.8352 4.94347 6.88659C4.89135 6.93798 4.84996 6.99921 4.82171 7.06674C4.79346 7.13426 4.77892 7.20673 4.77892 7.27993C4.77892 7.35312 4.79346 7.42559 4.82171 7.49312C4.84996 7.56064 4.89135 7.62188 4.94347 7.67327C4.9956 7.72466 5.05741 7.76518 5.12533 7.79247C5.19325 7.81976 5.26591 7.83328 5.3391 7.83225H13.4398C13.513 7.83328 13.5857 7.81976 13.6536 7.79247C13.7215 7.76518 13.7833 7.72466 13.8354 7.67327C13.8876 7.62188 13.929 7.56064 13.9572 7.49312C13.9855 7.42559 14 7.35312 14 7.27993C14 7.20673 13.9855 7.13426 13.9572 7.06674C13.929 6.99921 13.8876 6.93798 13.8354 6.88659C13.7833 6.8352 13.7215 6.79468 13.6536 6.76739C13.5857 6.74009 13.513 6.72657 13.4398 6.72761H5.3391ZM0.920535 9.67332C0.418441 9.67332 0 10.0918 0 10.5939V12.4349C0 12.937 0.418441 13.3555 0.920535 13.3555H2.76161C3.2637 13.3555 3.68214 12.937 3.68214 12.4349V10.5939C3.68214 10.0918 3.2637 9.67332 2.76161 9.67332H0.920535ZM1.10464 10.778H2.5775V12.2508H1.10464V10.778ZM5.3391 11.1462C5.26591 11.1451 5.19325 11.1587 5.12533 11.186C5.05741 11.2132 4.9956 11.2538 4.94347 11.3052C4.89135 11.3565 4.84996 11.4178 4.82171 11.4853C4.79346 11.5528 4.77892 11.6253 4.77892 11.6985C4.77892 11.7717 4.79346 11.8442 4.82171 11.9117C4.84996 11.9792 4.89135 12.0404 4.94347 12.0918C4.9956 12.1432 5.05741 12.1837 5.12533 12.211C5.19325 12.2383 5.26591 12.2519 5.3391 12.2508H13.4398C13.513 12.2519 13.5857 12.2383 13.6536 12.211C13.7215 12.1837 13.7833 12.1432 13.8354 12.0918C13.8876 12.0404 13.929 11.9792 13.9572 11.9117C13.9855 11.8442 14 11.7717 14 11.6985C14 11.6253 13.9855 11.5528 13.9572 11.4853C13.929 11.4178 13.8876 11.3565 13.8354 11.3052C13.7833 11.2538 13.7215 11.2132 13.6536 11.186C13.5857 11.1587 13.513 11.1451 13.4398 11.1462H5.3391Z" fill="black"/>
</svg>
