<svg width="14" height="15" viewBox="0 0 14 15" fill="none" xmlns="http://www.w3.org/2000/svg">
<g clip-path="url(#clip0_968_10046)">
<path d="M7 0.23584C3.1403 0.23584 0 3.37614 0 7.23584C0 11.0955 3.1403 14.2358 7 14.2358C10.8597 14.2358 14 11.0955 14 7.23584C14 3.37614 10.8597 0.23584 7 0.23584ZM7 1.28584C10.2922 1.28584 12.95 3.94364 12.95 7.23584C12.95 10.528 10.2922 13.1858 7 13.1858C3.7078 13.1858 1.05 10.528 1.05 7.23584C1.05 3.94364 3.7078 1.28584 7 1.28584ZM7 4.08584C5.26652 4.08584 3.85 5.50236 3.85 7.23584C3.85 8.96932 5.26652 10.3858 7 10.3858C8.73348 10.3858 10.15 8.96932 10.15 7.23584C10.15 5.50236 8.73348 4.08584 7 4.08584ZM7 5.13584C8.16602 5.13584 9.1 6.06982 9.1 7.23584C9.1 8.40186 8.16602 9.33584 7 9.33584C5.83398 9.33584 4.9 8.40186 4.9 7.23584C4.9 6.06982 5.83398 5.13584 7 5.13584Z" fill="black"/>
</g>
<defs>
<clipPath id="clip0_968_10046">
<rect width="14" height="14" fill="white" transform="translate(0 0.23584)"/>
</clipPath>
</defs>
</svg>
