<svg width="14" height="16" viewBox="0 0 14 16" fill="none" xmlns="http://www.w3.org/2000/svg">
<path d="M2.14743 0.773529C0.973917 0.773529 0.0100796 1.73737 0.0100796 2.91088V11.7669C-0.0925858 13.1869 0.588737 14.7045 2.06697 14.7589C2.09366 14.7623 2.12054 14.7638 2.14743 14.7635H11.8627C12.5084 14.7635 13.0688 14.3983 13.433 13.8974C13.7973 13.3966 14 12.748 14 12.0432C14 11.3383 13.7973 10.6898 13.433 10.1889C13.0688 9.68812 12.5084 9.32293 11.8627 9.32293H11.6683V2.91088C11.6683 1.73737 10.7045 0.773529 9.531 0.773529H2.14743ZM2.14743 1.93936H9.531C10.0744 1.93936 10.5025 2.36752 10.5025 2.91088V9.32293H2.14743C2.1218 9.32276 2.09619 9.32428 2.07077 9.32748C1.7309 9.33939 1.43236 9.42702 1.17591 9.57491V2.91088C1.17591 2.36752 1.60407 1.93936 2.14743 1.93936ZM3.31326 3.10518C3.23601 3.10409 3.15932 3.11836 3.08764 3.14716C3.01596 3.17597 2.95072 3.21873 2.89571 3.27297C2.8407 3.32721 2.79702 3.39183 2.76721 3.4631C2.73739 3.53437 2.72204 3.61085 2.72204 3.6881C2.72204 3.76535 2.73739 3.84183 2.76721 3.91309C2.79702 3.98436 2.8407 4.04899 2.89571 4.10322C2.95072 4.15746 3.01596 4.20022 3.08764 4.22903C3.15932 4.25783 3.23601 4.2721 3.31326 4.27101H4.09047C4.16772 4.2721 4.24441 4.25783 4.31609 4.22903C4.38777 4.20022 4.45301 4.15746 4.50802 4.10322C4.56302 4.04899 4.60671 3.98436 4.63652 3.91309C4.66634 3.84183 4.68169 3.76535 4.68169 3.6881C4.68169 3.61085 4.66634 3.53437 4.63652 3.4631C4.60671 3.39183 4.56302 3.32721 4.50802 3.27297C4.45301 3.21873 4.38777 3.17597 4.31609 3.14716C4.24441 3.11836 4.16772 3.10409 4.09047 3.10518H3.31326ZM6.03352 3.10518C5.95627 3.10409 5.87959 3.11836 5.80791 3.14716C5.73623 3.17597 5.67098 3.21873 5.61598 3.27297C5.56097 3.32721 5.51728 3.39183 5.48747 3.4631C5.45766 3.53437 5.4423 3.61085 5.4423 3.6881C5.4423 3.76535 5.45766 3.84183 5.48747 3.91309C5.51728 3.98436 5.56097 4.04899 5.61598 4.10322C5.67098 4.15746 5.73623 4.20022 5.80791 4.22903C5.87959 4.25783 5.95627 4.2721 6.03352 4.27101H8.36517C8.44241 4.2721 8.5191 4.25783 8.59078 4.22903C8.66246 4.20022 8.7277 4.15746 8.78271 4.10322C8.83772 4.04899 8.8814 3.98436 8.91122 3.91309C8.94103 3.84183 8.95639 3.76535 8.95639 3.6881C8.95639 3.61085 8.94103 3.53437 8.91122 3.4631C8.8814 3.39183 8.83772 3.32721 8.78271 3.27297C8.7277 3.21873 8.66246 3.17597 8.59078 3.14716C8.5191 3.11836 8.44241 3.10409 8.36517 3.10518H6.03352ZM3.31326 5.04823C3.23601 5.04713 3.15932 5.06141 3.08764 5.09021C3.01596 5.11901 2.95072 5.16178 2.89571 5.21601C2.8407 5.27025 2.79702 5.33488 2.76721 5.40614C2.73739 5.47741 2.72204 5.55389 2.72204 5.63114C2.72204 5.70839 2.73739 5.78487 2.76721 5.85614C2.79702 5.9274 2.8407 5.99203 2.89571 6.04627C2.95072 6.1005 3.01596 6.14327 3.08764 6.17207C3.15932 6.20088 3.23601 6.21515 3.31326 6.21405H5.64491C5.72215 6.21515 5.79884 6.20088 5.87052 6.17207C5.9422 6.14327 6.00744 6.1005 6.06245 6.04627C6.11746 5.99203 6.16114 5.9274 6.19096 5.85614C6.22077 5.78487 6.23612 5.70839 6.23612 5.63114C6.23612 5.55389 6.22077 5.47741 6.19096 5.40614C6.16114 5.33488 6.11746 5.27025 6.06245 5.21601C6.00744 5.16178 5.9422 5.11901 5.87052 5.09021C5.79884 5.06141 5.72215 5.04713 5.64491 5.04823H3.31326ZM7.58795 5.04823C7.51071 5.04713 7.43402 5.06141 7.36234 5.09021C7.29066 5.11901 7.22542 5.16178 7.17041 5.21601C7.1154 5.27025 7.07172 5.33488 7.04191 5.40614C7.01209 5.47741 6.99674 5.55389 6.99674 5.63114C6.99674 5.70839 7.01209 5.78487 7.04191 5.85614C7.07172 5.9274 7.1154 5.99203 7.17041 6.04627C7.22542 6.1005 7.29066 6.14327 7.36234 6.17207C7.43402 6.20088 7.51071 6.21515 7.58795 6.21405H8.36517C8.44241 6.21515 8.5191 6.20088 8.59078 6.17207C8.66246 6.14327 8.7277 6.1005 8.78271 6.04627C8.83772 5.99203 8.8814 5.9274 8.91122 5.85614C8.94103 5.78487 8.95639 5.70839 8.95639 5.63114C8.95639 5.55389 8.94103 5.47741 8.91122 5.40614C8.8814 5.33488 8.83772 5.27025 8.78271 5.21601C8.7277 5.16178 8.66246 5.11901 8.59078 5.09021C8.5191 5.06141 8.44241 5.04713 8.36517 5.04823H7.58795ZM3.31326 6.99127C3.23601 6.99018 3.15932 7.00445 3.08764 7.03325C3.01596 7.06206 2.95072 7.10482 2.89571 7.15906C2.8407 7.21329 2.79702 7.27792 2.76721 7.34919C2.73739 7.42045 2.72204 7.49693 2.72204 7.57419C2.72204 7.65144 2.73739 7.72792 2.76721 7.79918C2.79702 7.87045 2.8407 7.93508 2.89571 7.98931C2.95072 8.04355 3.01596 8.08631 3.08764 8.11512C3.15932 8.14392 3.23601 8.15819 3.31326 8.1571H5.64491C5.72215 8.15819 5.79884 8.14392 5.87052 8.11512C5.9422 8.08631 6.00744 8.04355 6.06245 7.98931C6.11746 7.93508 6.16114 7.87045 6.19096 7.79918C6.22077 7.72792 6.23612 7.65144 6.23612 7.57419C6.23612 7.49693 6.22077 7.42045 6.19096 7.34919C6.16114 7.27792 6.11746 7.21329 6.06245 7.15906C6.00744 7.10482 5.9422 7.06206 5.87052 7.03325C5.79884 7.00445 5.72215 6.99018 5.64491 6.99127H3.31326ZM2.14743 10.4888C3.4185 10.4888 3.4185 13.5976 2.14743 13.5976C0.876355 13.5976 0.876355 10.4888 2.14743 10.4888ZM3.95082 10.4888H11.8627C12.0753 10.4888 12.292 10.6016 12.4903 10.8743C12.6887 11.147 12.8342 11.5674 12.8342 12.0432C12.8342 12.5189 12.6887 12.9394 12.4903 13.2121C12.292 13.4847 12.0753 13.5976 11.8627 13.5976H3.95082C4.41783 12.6793 4.41783 11.4071 3.95082 10.4888Z" fill="black"/>
</svg>
