<svg width="14" height="16" viewBox="0 0 14 16" fill="none" xmlns="http://www.w3.org/2000/svg">
<path d="M2.14743 0.835938C0.973917 0.835938 0.0100796 1.79978 0.0100796 2.97329V11.8293C-0.0925858 13.2493 0.588737 14.7669 2.06697 14.8213C2.09366 14.8247 2.12054 14.8262 2.14743 14.8259H11.8627C12.5084 14.8259 13.0688 14.4607 13.433 13.9598C13.7973 13.459 14 12.8104 14 12.1056C14 11.4008 13.7973 10.7522 13.433 10.2514C13.0688 9.75052 12.5084 9.38533 11.8627 9.38533H11.6683V2.97329C11.6683 1.79978 10.7045 0.835938 9.531 0.835938H2.14743ZM2.14743 2.00176H9.531C10.0744 2.00176 10.5025 2.42992 10.5025 2.97329V9.38533H2.14743C2.1218 9.38517 2.09619 9.38669 2.07077 9.38989C1.7309 9.4018 1.43236 9.48943 1.17591 9.63732V2.97329C1.17591 2.42992 1.60407 2.00176 2.14743 2.00176ZM3.31326 3.16759C3.23601 3.1665 3.15932 3.18077 3.08764 3.20957C3.01596 3.23838 2.95072 3.28114 2.89571 3.33538C2.8407 3.38961 2.79702 3.45424 2.76721 3.52551C2.73739 3.59677 2.72204 3.67325 2.72204 3.7505C2.72204 3.82776 2.73739 3.90424 2.76721 3.9755C2.79702 4.04677 2.8407 4.1114 2.89571 4.16563C2.95072 4.21987 3.01596 4.26263 3.08764 4.29144C3.15932 4.32024 3.23601 4.33451 3.31326 4.33342H4.09047C4.16772 4.33451 4.24441 4.32024 4.31609 4.29144C4.38777 4.26263 4.45301 4.21987 4.50802 4.16563C4.56302 4.1114 4.60671 4.04677 4.63652 3.9755C4.66634 3.90424 4.68169 3.82776 4.68169 3.7505C4.68169 3.67325 4.66634 3.59677 4.63652 3.52551C4.60671 3.45424 4.56302 3.38961 4.50802 3.33538C4.45301 3.28114 4.38777 3.23838 4.31609 3.20957C4.24441 3.18077 4.16772 3.1665 4.09047 3.16759H3.31326ZM6.03352 3.16759C5.95627 3.1665 5.87959 3.18077 5.80791 3.20957C5.73623 3.23838 5.67098 3.28114 5.61598 3.33538C5.56097 3.38961 5.51728 3.45424 5.48747 3.52551C5.45766 3.59677 5.4423 3.67325 5.4423 3.7505C5.4423 3.82776 5.45766 3.90424 5.48747 3.9755C5.51728 4.04677 5.56097 4.1114 5.61598 4.16563C5.67098 4.21987 5.73623 4.26263 5.80791 4.29144C5.87959 4.32024 5.95627 4.33451 6.03352 4.33342H8.36517C8.44241 4.33451 8.5191 4.32024 8.59078 4.29144C8.66246 4.26263 8.7277 4.21987 8.78271 4.16563C8.83772 4.1114 8.8814 4.04677 8.91122 3.9755C8.94103 3.90424 8.95639 3.82776 8.95639 3.7505C8.95639 3.67325 8.94103 3.59677 8.91122 3.52551C8.8814 3.45424 8.83772 3.38961 8.78271 3.33538C8.7277 3.28114 8.66246 3.23838 8.59078 3.20957C8.5191 3.18077 8.44241 3.1665 8.36517 3.16759H6.03352ZM3.31326 5.11064C3.23601 5.10954 3.15932 5.12381 3.08764 5.15262C3.01596 5.18142 2.95072 5.22418 2.89571 5.27842C2.8407 5.33266 2.79702 5.39729 2.76721 5.46855C2.73739 5.53982 2.72204 5.6163 2.72204 5.69355C2.72204 5.7708 2.73739 5.84728 2.76721 5.91855C2.79702 5.98981 2.8407 6.05444 2.89571 6.10868C2.95072 6.16291 3.01596 6.20568 3.08764 6.23448C3.15932 6.26328 3.23601 6.27755 3.31326 6.27646H5.64491C5.72215 6.27755 5.79884 6.26328 5.87052 6.23448C5.9422 6.20568 6.00744 6.16291 6.06245 6.10868C6.11746 6.05444 6.16114 5.98981 6.19096 5.91855C6.22077 5.84728 6.23612 5.7708 6.23612 5.69355C6.23612 5.6163 6.22077 5.53982 6.19096 5.46855C6.16114 5.39729 6.11746 5.33266 6.06245 5.27842C6.00744 5.22418 5.9422 5.18142 5.87052 5.15262C5.79884 5.12381 5.72215 5.10954 5.64491 5.11064H3.31326ZM7.58795 5.11064C7.51071 5.10954 7.43402 5.12381 7.36234 5.15262C7.29066 5.18142 7.22542 5.22418 7.17041 5.27842C7.1154 5.33266 7.07172 5.39729 7.04191 5.46855C7.01209 5.53982 6.99674 5.6163 6.99674 5.69355C6.99674 5.7708 7.01209 5.84728 7.04191 5.91855C7.07172 5.98981 7.1154 6.05444 7.17041 6.10868C7.22542 6.16291 7.29066 6.20568 7.36234 6.23448C7.43402 6.26328 7.51071 6.27755 7.58795 6.27646H8.36517C8.44241 6.27755 8.5191 6.26328 8.59078 6.23448C8.66246 6.20568 8.7277 6.16291 8.78271 6.10868C8.83772 6.05444 8.8814 5.98981 8.91122 5.91855C8.94103 5.84728 8.95639 5.7708 8.95639 5.69355C8.95639 5.6163 8.94103 5.53982 8.91122 5.46855C8.8814 5.39729 8.83772 5.33266 8.78271 5.27842C8.7277 5.22418 8.66246 5.18142 8.59078 5.15262C8.5191 5.12381 8.44241 5.10954 8.36517 5.11064H7.58795ZM3.31326 7.05368C3.23601 7.05259 3.15932 7.06686 3.08764 7.09566C3.01596 7.12447 2.95072 7.16723 2.89571 7.22147C2.8407 7.2757 2.79702 7.34033 2.76721 7.4116C2.73739 7.48286 2.72204 7.55934 2.72204 7.63659C2.72204 7.71384 2.73739 7.79033 2.76721 7.86159C2.79702 7.93286 2.8407 7.99748 2.89571 8.05172C2.95072 8.10596 3.01596 8.14872 3.08764 8.17753C3.15932 8.20633 3.23601 8.2206 3.31326 8.21951H5.64491C5.72215 8.2206 5.79884 8.20633 5.87052 8.17753C5.9422 8.14872 6.00744 8.10596 6.06245 8.05172C6.11746 7.99748 6.16114 7.93286 6.19096 7.86159C6.22077 7.79033 6.23612 7.71384 6.23612 7.63659C6.23612 7.55934 6.22077 7.48286 6.19096 7.4116C6.16114 7.34033 6.11746 7.2757 6.06245 7.22147C6.00744 7.16723 5.9422 7.12447 5.87052 7.09566C5.79884 7.06686 5.72215 7.05259 5.64491 7.05368H3.31326ZM2.14743 10.5512C3.4185 10.5512 3.4185 13.66 2.14743 13.66C0.876355 13.66 0.876355 10.5512 2.14743 10.5512ZM3.95082 10.5512H11.8627C12.0753 10.5512 12.292 10.664 12.4903 10.9367C12.6887 11.2094 12.8342 11.6298 12.8342 12.1056C12.8342 12.5813 12.6887 13.0018 12.4903 13.2745C12.292 13.5472 12.0753 13.66 11.8627 13.66H3.95082C4.41783 12.7417 4.41783 11.4695 3.95082 10.5512Z" fill="black"/>
</svg>
