<svg width="14" height="15" viewBox="0 0 14 15" fill="none" xmlns="http://www.w3.org/2000/svg">
<path d="M0.920535 0.773655C0.418441 0.773655 0 1.1921 0 1.69419V3.53526C0 4.03735 0.418441 4.4558 0.920535 4.4558H2.76161C3.2637 4.4558 3.68214 4.03735 3.68214 3.53526V1.69419C3.68214 1.1921 3.2637 0.773655 2.76161 0.773655H0.920535ZM1.10464 1.8783H2.5775V3.35115H1.10464V1.8783ZM5.3391 2.24651C5.26591 2.24548 5.19325 2.259 5.12533 2.28629C5.05741 2.31358 4.9956 2.3541 4.94347 2.40549C4.89135 2.45688 4.84996 2.51812 4.82171 2.58564C4.79346 2.65317 4.77892 2.72564 4.77892 2.79883C4.77892 2.87203 4.79346 2.94449 4.82171 3.01202C4.84996 3.07955 4.89135 3.14078 4.94347 3.19217C4.9956 3.24356 5.05741 3.28408 5.12533 3.31137C5.19325 3.33867 5.26591 3.35219 5.3391 3.35115H13.4398C13.513 3.35219 13.5857 3.33867 13.6536 3.31137C13.7215 3.28408 13.7833 3.24356 13.8354 3.19217C13.8876 3.14078 13.929 3.07955 13.9572 3.01202C13.9855 2.94449 14 2.87203 14 2.79883C14 2.72564 13.9855 2.65317 13.9572 2.58564C13.929 2.51812 13.8876 2.45688 13.8354 2.40549C13.7833 2.3541 13.7215 2.31358 13.6536 2.28629C13.5857 2.259 13.513 2.24548 13.4398 2.24651H5.3391ZM0.920535 5.19222C0.418441 5.19222 0 5.61066 0 6.11276V7.95383C0 8.45592 0.418441 8.87436 0.920535 8.87436H2.76161C3.2637 8.87436 3.68214 8.45592 3.68214 7.95383V6.11276C3.68214 5.61066 3.2637 5.19222 2.76161 5.19222H0.920535ZM1.10464 6.29687H2.5775V7.76972H1.10464V6.29687ZM5.3391 6.66508C5.26591 6.66404 5.19325 6.67757 5.12533 6.70486C5.05741 6.73215 4.9956 6.77267 4.94347 6.82406C4.89135 6.87545 4.84996 6.93669 4.82171 7.00421C4.79346 7.07174 4.77892 7.1442 4.77892 7.2174C4.77892 7.2906 4.79346 7.36306 4.82171 7.43059C4.84996 7.49811 4.89135 7.55935 4.94347 7.61074C4.9956 7.66213 5.05741 7.70265 5.12533 7.72994C5.19325 7.75724 5.26591 7.77076 5.3391 7.76972H13.4398C13.513 7.77076 13.5857 7.75724 13.6536 7.72994C13.7215 7.70265 13.7833 7.66213 13.8354 7.61074C13.8876 7.55935 13.929 7.49811 13.9572 7.43059C13.9855 7.36306 14 7.2906 14 7.2174C14 7.1442 13.9855 7.07174 13.9572 7.00421C13.929 6.93669 13.8876 6.87545 13.8354 6.82406C13.7833 6.77267 13.7215 6.73215 13.6536 6.70486C13.5857 6.67757 13.513 6.66404 13.4398 6.66508H5.3391ZM0.920535 9.61079C0.418441 9.61079 0 10.0292 0 10.5313V12.3724C0 12.8745 0.418441 13.2929 0.920535 13.2929H2.76161C3.2637 13.2929 3.68214 12.8745 3.68214 12.3724V10.5313C3.68214 10.0292 3.2637 9.61079 2.76161 9.61079H0.920535ZM1.10464 10.7154H2.5775V12.1883H1.10464V10.7154ZM5.3391 11.0836C5.26591 11.0826 5.19325 11.0961 5.12533 11.1234C5.05741 11.1507 4.9956 11.1912 4.94347 11.2426C4.89135 11.294 4.84996 11.3553 4.82171 11.4228C4.79346 11.4903 4.77892 11.5628 4.77892 11.636C4.77892 11.7092 4.79346 11.7816 4.82171 11.8492C4.84996 11.9167 4.89135 11.9779 4.94347 12.0293C4.9956 12.0807 5.05741 12.1212 5.12533 12.1485C5.19325 12.1758 5.26591 12.1893 5.3391 12.1883H13.4398C13.513 12.1893 13.5857 12.1758 13.6536 12.1485C13.7215 12.1212 13.7833 12.0807 13.8354 12.0293C13.8876 11.9779 13.929 11.9167 13.9572 11.8492C13.9855 11.7816 14 11.7092 14 11.636C14 11.5628 13.9855 11.4903 13.9572 11.4228C13.929 11.3553 13.8876 11.294 13.8354 11.2426C13.7833 11.1912 13.7215 11.1507 13.6536 11.1234C13.5857 11.0961 13.513 11.0826 13.4398 11.0836H5.3391Z" fill="black"/>
</svg>
