<svg width="14" height="15" viewBox="0 0 14 15" fill="none" xmlns="http://www.w3.org/2000/svg">
<path d="M2.92499 0.599976C1.86808 0.599976 1 1.46805 1 2.52497V11.7999V12.3249V12.6749C1 13.7318 1.86808 14.5999 2.92499 14.5999H12.025C12.0945 14.6009 12.1636 14.5881 12.2282 14.5621C12.2927 14.5362 12.3515 14.4977 12.401 14.4488C12.4506 14.4 12.4899 14.3418 12.5168 14.2776C12.5436 14.2134 12.5574 14.1445 12.5574 14.0749C12.5574 14.0054 12.5436 13.9365 12.5168 13.8723C12.4899 13.8081 12.4506 13.7499 12.401 13.701C12.3515 13.6522 12.2927 13.6137 12.2282 13.5877C12.1636 13.5618 12.0945 13.5489 12.025 13.5499H2.92499C2.49563 13.5499 2.14703 13.2533 2.06777 12.8499H12.025C12.1642 12.8499 12.2977 12.7946 12.3962 12.6961C12.4946 12.5977 12.5499 12.4642 12.55 12.3249V2.52497C12.55 1.46805 11.6819 0.599976 10.625 0.599976H2.92499ZM2.92499 1.64997H10.625C11.1143 1.64997 11.5 2.03559 11.5 2.52497V11.7999H2.05V2.52497C2.05 2.03559 2.43562 1.64997 2.92499 1.64997ZM6.77498 3.04997C5.91136 3.04997 5.19998 3.76134 5.19998 4.62496C5.19998 5.48858 5.91136 6.19995 6.77498 6.19995C7.6386 6.19995 8.34997 5.48858 8.34997 4.62496C8.34997 3.76134 7.6386 3.04997 6.77498 3.04997ZM6.77498 4.09996C7.07125 4.09996 7.29998 4.32869 7.29998 4.62496C7.29998 4.92123 7.07125 5.14996 6.77498 5.14996C6.47871 5.14996 6.24998 4.92123 6.24998 4.62496C6.24998 4.32869 6.47871 4.09996 6.77498 4.09996ZM5.02499 6.89995C4.54773 6.89995 4.14999 7.29769 4.14999 7.77495V8.64995C4.14999 9.23139 4.54526 9.68971 5.02567 9.96996C5.50608 10.2502 6.11228 10.3999 6.77498 10.3999C7.43767 10.3999 8.04388 10.2502 8.52429 9.96996C9.0047 9.68971 9.39997 9.23139 9.39997 8.64995V7.77495C9.39997 7.29769 9.00223 6.89995 8.52497 6.89995H5.02499ZM5.19998 7.94995H8.34997V8.64995C8.34997 8.74505 8.2748 8.89972 7.99519 9.06283C7.71558 9.22595 7.27218 9.34994 6.77498 9.34994C6.27778 9.34994 5.83438 9.22595 5.55477 9.06283C5.27516 8.89972 5.19998 8.74505 5.19998 8.64995V7.94995Z" fill="black"/>
</svg>
