<svg width="14" height="15" viewBox="0 0 14 15" fill="none" xmlns="http://www.w3.org/2000/svg">
<path d="M2.92499 -0.313246C1.86808 -0.313246 1 0.55483 1 1.61175V10.8867V11.4117V11.7617C1 12.8186 1.86808 13.6867 2.92499 13.6867H12.025C12.0945 13.6877 12.1636 13.6748 12.2282 13.6489C12.2927 13.6229 12.3515 13.5844 12.401 13.5356C12.4506 13.4867 12.4899 13.4285 12.5168 13.3643C12.5436 13.3002 12.5574 13.2313 12.5574 13.1617C12.5574 13.0921 12.5436 13.0232 12.5168 12.9591C12.4899 12.8949 12.4506 12.8367 12.401 12.7878C12.3515 12.739 12.2927 12.7005 12.2282 12.6745C12.1636 12.6486 12.0945 12.6357 12.025 12.6367H2.92499C2.49563 12.6367 2.14703 12.34 2.06777 11.9367H12.025C12.1642 11.9367 12.2977 11.8814 12.3962 11.7829C12.4946 11.6845 12.5499 11.5509 12.55 11.4117V1.61175C12.55 0.55483 11.6819 -0.313246 10.625 -0.313246H2.92499ZM2.92499 0.73675H10.625C11.1143 0.73675 11.5 1.12237 11.5 1.61175V10.8867H2.05V1.61175C2.05 1.12237 2.43562 0.73675 2.92499 0.73675ZM6.77498 2.13675C5.91136 2.13675 5.19998 2.84812 5.19998 3.71174C5.19998 4.57536 5.91136 5.28673 6.77498 5.28673C7.6386 5.28673 8.34997 4.57536 8.34997 3.71174C8.34997 2.84812 7.6386 2.13675 6.77498 2.13675ZM6.77498 3.18674C7.07125 3.18674 7.29998 3.41547 7.29998 3.71174C7.29998 4.00801 7.07125 4.23674 6.77498 4.23674C6.47871 4.23674 6.24998 4.00801 6.24998 3.71174C6.24998 3.41547 6.47871 3.18674 6.77498 3.18674ZM5.02499 5.98673C4.54773 5.98673 4.14999 6.38447 4.14999 6.86173V7.73672C4.14999 8.31817 4.54526 8.77649 5.02567 9.05674C5.50608 9.33699 6.11228 9.48672 6.77498 9.48672C7.43767 9.48672 8.04388 9.33699 8.52429 9.05674C9.0047 8.77649 9.39997 8.31817 9.39997 7.73672V6.86173C9.39997 6.38447 9.00223 5.98673 8.52497 5.98673H5.02499ZM5.19998 7.03673H8.34997V7.73672C8.34997 7.83183 8.2748 7.9865 7.99519 8.14961C7.71558 8.31273 7.27218 8.43672 6.77498 8.43672C6.27778 8.43672 5.83438 8.31273 5.55477 8.14961C5.27516 7.9865 5.19998 7.83183 5.19998 7.73672V7.03673Z" fill="black"/>
</svg>
