<svg width="14" height="15" viewBox="0 0 14 15" fill="none" xmlns="http://www.w3.org/2000/svg">
<path d="M2.06818 2C0.931656 2 0 2.97602 0 4.16667V9.83333C0 11.024 0.931656 12 2.06818 12H11.9318C13.0683 12 14 11.024 14 9.83333V4.16667C14 2.97602 13.0683 2 11.9318 2H2.06818ZM2.06818 3H11.9318C12.5523 3 13.0455 3.51665 13.0455 4.16667V4.66667H0.954545V4.16667C0.954545 3.51665 1.44771 3 2.06818 3ZM0.954545 6H13.0455V9.83333C13.0455 10.4834 12.5523 11 11.9318 11H2.06818C1.44771 11 0.954545 10.4834 0.954545 9.83333V6ZM9.38636 8.66667C9.32312 8.66573 9.26033 8.67797 9.20164 8.70268C9.14295 8.72738 9.08953 8.76406 9.04449 8.81059C8.99945 8.85711 8.96369 8.91255 8.93928 8.97367C8.91486 9.0348 8.90229 9.1004 8.90229 9.16667C8.90229 9.23293 8.91486 9.29853 8.93928 9.35966C8.96369 9.42079 8.99945 9.47622 9.04449 9.52275C9.08953 9.56927 9.14295 9.60595 9.20164 9.63066C9.26033 9.65536 9.32312 9.6676 9.38636 9.66667H11.2955C11.3587 9.6676 11.4215 9.65536 11.4802 9.63066C11.5389 9.60595 11.5923 9.56927 11.6373 9.52275C11.6824 9.47622 11.7181 9.42079 11.7425 9.35966C11.767 9.29853 11.7795 9.23293 11.7795 9.16667C11.7795 9.1004 11.767 9.0348 11.7425 8.97367C11.7181 8.91255 11.6824 8.85711 11.6373 8.81059C11.5923 8.76406 11.5389 8.72738 11.4802 8.70268C11.4215 8.67797 11.3587 8.66573 11.2955 8.66667H9.38636Z" fill="black"/>
</svg>
