<svg width="14" height="16" viewBox="0 0 14 16" fill="none" xmlns="http://www.w3.org/2000/svg">
<path d="M0.590934 0.773591C0.513728 0.772499 0.437075 0.786763 0.365429 0.815553C0.293783 0.844343 0.228574 0.887086 0.173591 0.941297C0.118608 0.995508 0.0749472 1.06011 0.0451467 1.13134C0.0153462 1.20257 0 1.27901 0 1.35623C0 1.43344 0.0153462 1.50989 0.0451467 1.58112C0.0749472 1.65235 0.118608 1.71695 0.173591 1.77116C0.228574 1.82537 0.293783 1.86811 0.365429 1.8969C0.437075 1.92569 0.513728 1.93996 0.590934 1.93886H7.97099C8.0482 1.93996 8.12485 1.92569 8.1965 1.8969C8.26814 1.86811 8.33335 1.82537 8.38834 1.77116C8.44332 1.71695 8.48698 1.65235 8.51678 1.58112C8.54658 1.50989 8.56193 1.43344 8.56193 1.35623C8.56193 1.27901 8.54658 1.20257 8.51678 1.13134C8.48698 1.06011 8.44332 0.995508 8.38834 0.941297C8.33335 0.887086 8.26814 0.844343 8.1965 0.815553C8.12485 0.786763 8.0482 0.772499 7.97099 0.773591H0.590934ZM10.6809 3.67843C10.5265 3.68084 10.3793 3.74443 10.2718 3.85524C10.1643 3.96605 10.1051 4.11501 10.1073 4.26941V12.7677L8.38293 11.0433C8.32925 10.9874 8.26494 10.9428 8.19379 10.912C8.12263 10.8812 8.04605 10.865 7.96854 10.8642C7.89103 10.8634 7.81413 10.8781 7.74237 10.9074C7.6706 10.9367 7.6054 10.98 7.55059 11.0349C7.49577 11.0897 7.45245 11.1549 7.42315 11.2266C7.39385 11.2984 7.37916 11.3753 7.37995 11.4528C7.38074 11.5303 7.39699 11.6069 7.42774 11.678C7.45849 11.7492 7.50313 11.8135 7.55905 11.8672L10.278 14.5862C10.3873 14.6954 10.5355 14.7567 10.69 14.7567C10.8445 14.7567 10.9926 14.6954 11.1019 14.5862L13.8209 11.8672C13.8768 11.8135 13.9214 11.7492 13.9522 11.678C13.9829 11.6069 13.9992 11.5303 14 11.4528C14.0008 11.3753 13.9861 11.2984 13.9568 11.2266C13.9275 11.1549 13.8841 11.0897 13.8293 11.0349C13.7745 10.98 13.7093 10.9367 13.6376 10.9074C13.5658 10.8781 13.4889 10.8634 13.4114 10.8642C13.3339 10.865 13.2573 10.8812 13.1861 10.912C13.115 10.9428 13.0507 10.9874 12.997 11.0433L11.2726 12.7677V4.26941C11.2737 4.19143 11.2592 4.11401 11.2298 4.04176C11.2005 3.9695 11.1569 3.90387 11.1017 3.84876C11.0465 3.79365 10.9809 3.75017 10.9086 3.72091C10.8363 3.69166 10.7588 3.67721 10.6809 3.67843ZM0.590934 3.88098C0.513728 3.87989 0.437075 3.89416 0.365429 3.92295C0.293783 3.95174 0.228574 3.99448 0.173591 4.04869C0.118608 4.1029 0.0749472 4.1675 0.0451467 4.23873C0.0153462 4.30996 0 4.38641 0 4.46362C0 4.54083 0.0153462 4.61728 0.0451467 4.68851C0.0749472 4.75974 0.118608 4.82434 0.173591 4.87855C0.228574 4.93276 0.293783 4.9755 0.365429 5.00429C0.437075 5.03308 0.513728 5.04735 0.590934 5.04626H6.4173C6.4945 5.04735 6.57116 5.03308 6.6428 5.00429C6.71445 4.9755 6.77966 4.93276 6.83464 4.87855C6.88962 4.82434 6.93328 4.75974 6.96308 4.68851C6.99288 4.61728 7.00823 4.54083 7.00823 4.46362C7.00823 4.38641 6.99288 4.30996 6.96308 4.23873C6.93328 4.1675 6.88962 4.1029 6.83464 4.04869C6.77966 3.99448 6.71445 3.95174 6.6428 3.92295C6.57116 3.89416 6.4945 3.87989 6.4173 3.88098H0.590934ZM0.590934 6.98838C0.513728 6.98729 0.437075 7.00155 0.365429 7.03034C0.293783 7.05913 0.228574 7.10187 0.173591 7.15608C0.118608 7.21029 0.0749472 7.27489 0.0451467 7.34612C0.0153462 7.41736 0 7.4938 0 7.57101C0 7.64823 0.0153462 7.72467 0.0451467 7.7959C0.0749472 7.86713 0.118608 7.93173 0.173591 7.98594C0.228574 8.04015 0.293783 8.0829 0.365429 8.11169C0.437075 8.14048 0.513728 8.15474 0.590934 8.15365H4.8636C4.94081 8.15474 5.01746 8.14048 5.0891 8.11169C5.16075 8.0829 5.22596 8.04015 5.28094 7.98594C5.33593 7.93173 5.37959 7.86713 5.40939 7.7959C5.43919 7.72467 5.45453 7.64823 5.45453 7.57101C5.45453 7.4938 5.43919 7.41736 5.40939 7.34612C5.37959 7.27489 5.33593 7.21029 5.28094 7.15608C5.22596 7.10187 5.16075 7.05913 5.0891 7.03034C5.01746 7.00155 4.94081 6.98729 4.8636 6.98838H0.590934ZM0.590934 10.0958C0.513728 10.0947 0.437075 10.1089 0.365429 10.1377C0.293783 10.1665 0.228574 10.2093 0.173591 10.2635C0.118608 10.3177 0.0749472 10.3823 0.0451467 10.4535C0.0153462 10.5247 0 10.6012 0 10.6784C0 10.7556 0.0153462 10.8321 0.0451467 10.9033C0.0749472 10.9745 0.118608 11.0391 0.173591 11.0933C0.228574 11.1475 0.293783 11.1903 0.365429 11.2191C0.437075 11.2479 0.513728 11.2621 0.590934 11.261H3.3099C3.38711 11.2621 3.46376 11.2479 3.53541 11.2191C3.60705 11.1903 3.67226 11.1475 3.72725 11.0933C3.78223 11.0391 3.82589 10.9745 3.85569 10.9033C3.88549 10.8321 3.90084 10.7556 3.90084 10.6784C3.90084 10.6012 3.88549 10.5247 3.85569 10.4535C3.82589 10.3823 3.78223 10.3177 3.72725 10.2635C3.67226 10.2093 3.60705 10.1665 3.53541 10.1377C3.46376 10.1089 3.38711 10.0947 3.3099 10.0958H0.590934ZM0.590934 13.2032C0.513728 13.2021 0.437075 13.2163 0.365429 13.2451C0.293783 13.2739 0.228574 13.3167 0.173591 13.3709C0.118608 13.4251 0.0749472 13.4897 0.0451467 13.5609C0.0153462 13.6321 0 13.7086 0 13.7858C0 13.863 0.0153462 13.9395 0.0451467 14.0107C0.0749472 14.0819 0.118608 14.1465 0.173591 14.2007C0.228574 14.2549 0.293783 14.2977 0.365429 14.3265C0.437075 14.3553 0.513728 14.3695 0.590934 14.3684H1.75621C1.83341 14.3695 1.91007 14.3553 1.98171 14.3265C2.05336 14.2977 2.11857 14.2549 2.17355 14.2007C2.22853 14.1465 2.27219 14.0819 2.30199 14.0107C2.33179 13.9395 2.34714 13.863 2.34714 13.7858C2.34714 13.7086 2.33179 13.6321 2.30199 13.5609C2.27219 13.4897 2.22853 13.4251 2.17355 13.3709C2.11857 13.3167 2.05336 13.2739 1.98171 13.2451C1.91007 13.2163 1.83341 13.2021 1.75621 13.2032H0.590934Z" fill="black"/>
</svg>
