<svg width="14" height="16" viewBox="0 0 14 16" fill="none" xmlns="http://www.w3.org/2000/svg">
<path d="M0.590934 0.836118C0.513728 0.835026 0.437075 0.84929 0.365429 0.87808C0.293783 0.90687 0.228574 0.949613 0.173591 1.00382C0.118608 1.05803 0.0749472 1.12263 0.0451467 1.19386C0.0153462 1.2651 0 1.34154 0 1.41875C0 1.49597 0.0153462 1.57241 0.0451467 1.64364C0.0749472 1.71487 0.118608 1.77947 0.173591 1.83368C0.228574 1.8879 0.293783 1.93064 0.365429 1.95943C0.437075 1.98822 0.513728 2.00248 0.590934 2.00139H7.97099C8.0482 2.00248 8.12485 1.98822 8.1965 1.95943C8.26814 1.93064 8.33335 1.8879 8.38834 1.83368C8.44332 1.77947 8.48698 1.71487 8.51678 1.64364C8.54658 1.57241 8.56193 1.49597 8.56193 1.41875C8.56193 1.34154 8.54658 1.2651 8.51678 1.19386C8.48698 1.12263 8.44332 1.05803 8.38834 1.00382C8.33335 0.949613 8.26814 0.90687 8.1965 0.87808C8.12485 0.84929 8.0482 0.835026 7.97099 0.836118H0.590934ZM10.6809 3.74095C10.5265 3.74337 10.3793 3.80696 10.2718 3.91777C10.1643 4.02858 10.1051 4.17754 10.1073 4.33193V12.8302L8.38293 11.1058C8.32925 11.0499 8.26494 11.0053 8.19379 10.9745C8.12263 10.9438 8.04605 10.9275 7.96854 10.9267C7.89103 10.926 7.81413 10.9406 7.74237 10.9699C7.6706 10.9992 7.6054 11.0426 7.55059 11.0974C7.49577 11.1522 7.45245 11.2174 7.42315 11.2892C7.39385 11.3609 7.37916 11.4378 7.37995 11.5153C7.38074 11.5928 7.39699 11.6694 7.42774 11.7406C7.45849 11.8117 7.50313 11.876 7.55905 11.9297L10.278 14.6487C10.3873 14.7579 10.5355 14.8193 10.69 14.8193C10.8445 14.8193 10.9926 14.7579 11.1019 14.6487L13.8209 11.9297C13.8768 11.876 13.9214 11.8117 13.9522 11.7406C13.9829 11.6694 13.9992 11.5928 14 11.5153C14.0008 11.4378 13.9861 11.3609 13.9568 11.2892C13.9275 11.2174 13.8841 11.1522 13.8293 11.0974C13.7745 11.0426 13.7093 10.9992 13.6376 10.9699C13.5658 10.9406 13.4889 10.926 13.4114 10.9267C13.3339 10.9275 13.2573 10.9438 13.1861 10.9745C13.115 11.0053 13.0507 11.0499 12.997 11.1058L11.2726 12.8302V4.33193C11.2737 4.25395 11.2592 4.17654 11.2298 4.10428C11.2005 4.03203 11.1569 3.9664 11.1017 3.91129C11.0465 3.85617 10.9809 3.8127 10.9086 3.78344C10.8363 3.75418 10.7588 3.73973 10.6809 3.74095ZM0.590934 3.94351C0.513728 3.94242 0.437075 3.95668 0.365429 3.98547C0.293783 4.01426 0.228574 4.05701 0.173591 4.11122C0.118608 4.16543 0.0749472 4.23003 0.0451467 4.30126C0.0153462 4.37249 0 4.44893 0 4.52615C0 4.60336 0.0153462 4.6798 0.0451467 4.75104C0.0749472 4.82227 0.118608 4.88687 0.173591 4.94108C0.228574 4.99529 0.293783 5.03803 0.365429 5.06682C0.437075 5.09561 0.513728 5.10987 0.590934 5.10878H6.4173C6.4945 5.10987 6.57116 5.09561 6.6428 5.06682C6.71445 5.03803 6.77966 4.99529 6.83464 4.94108C6.88962 4.88687 6.93328 4.82227 6.96308 4.75104C6.99288 4.6798 7.00823 4.60336 7.00823 4.52615C7.00823 4.44893 6.99288 4.37249 6.96308 4.30126C6.93328 4.23003 6.88962 4.16543 6.83464 4.11122C6.77966 4.05701 6.71445 4.01426 6.6428 3.98547C6.57116 3.95668 6.4945 3.94242 6.4173 3.94351H0.590934ZM0.590934 7.0509C0.513728 7.04981 0.437075 7.06408 0.365429 7.09287C0.293783 7.12166 0.228574 7.1644 0.173591 7.21861C0.118608 7.27282 0.0749472 7.33742 0.0451467 7.40865C0.0153462 7.47988 0 7.55633 0 7.63354C0 7.71075 0.0153462 7.7872 0.0451467 7.85843C0.0749472 7.92966 0.118608 7.99426 0.173591 8.04847C0.228574 8.10268 0.293783 8.14542 0.365429 8.17421C0.437075 8.203 0.513728 8.21727 0.590934 8.21618H4.8636C4.94081 8.21727 5.01746 8.203 5.0891 8.17421C5.16075 8.14542 5.22596 8.10268 5.28094 8.04847C5.33593 7.99426 5.37959 7.92966 5.40939 7.85843C5.43919 7.7872 5.45453 7.71075 5.45453 7.63354C5.45453 7.55633 5.43919 7.47988 5.40939 7.40865C5.37959 7.33742 5.33593 7.27282 5.28094 7.21861C5.22596 7.1644 5.16075 7.12166 5.0891 7.09287C5.01746 7.06408 4.94081 7.04981 4.8636 7.0509H0.590934ZM0.590934 10.1583C0.513728 10.1572 0.437075 10.1715 0.365429 10.2003C0.293783 10.229 0.228574 10.2718 0.173591 10.326C0.118608 10.3802 0.0749472 10.4448 0.0451467 10.516C0.0153462 10.5873 0 10.6637 0 10.7409C0 10.8181 0.0153462 10.8946 0.0451467 10.9658C0.0749472 11.0371 0.118608 11.1017 0.173591 11.1559C0.228574 11.2101 0.293783 11.2528 0.365429 11.2816C0.437075 11.3104 0.513728 11.3247 0.590934 11.3236H3.3099C3.38711 11.3247 3.46376 11.3104 3.53541 11.2816C3.60705 11.2528 3.67226 11.2101 3.72725 11.1559C3.78223 11.1017 3.82589 11.0371 3.85569 10.9658C3.88549 10.8946 3.90084 10.8181 3.90084 10.7409C3.90084 10.6637 3.88549 10.5873 3.85569 10.516C3.82589 10.4448 3.78223 10.3802 3.72725 10.326C3.67226 10.2718 3.60705 10.229 3.53541 10.2003C3.46376 10.1715 3.38711 10.1572 3.3099 10.1583H0.590934ZM0.590934 13.2657C0.513728 13.2646 0.437075 13.2789 0.365429 13.3077C0.293783 13.3364 0.228574 13.3792 0.173591 13.4334C0.118608 13.4876 0.0749472 13.5522 0.0451467 13.6234C0.0153462 13.6947 0 13.7711 0 13.8483C0 13.9255 0.0153462 14.002 0.0451467 14.0732C0.0749472 14.1444 0.118608 14.209 0.173591 14.2633C0.228574 14.3175 0.293783 14.3602 0.365429 14.389C0.437075 14.4178 0.513728 14.4321 0.590934 14.431H1.75621C1.83341 14.4321 1.91007 14.4178 1.98171 14.389C2.05336 14.3602 2.11857 14.3175 2.17355 14.2633C2.22853 14.209 2.27219 14.1444 2.30199 14.0732C2.33179 14.002 2.34714 13.9255 2.34714 13.8483C2.34714 13.7711 2.33179 13.6947 2.30199 13.6234C2.27219 13.5522 2.22853 13.4876 2.17355 13.4334C2.11857 13.3792 2.05336 13.3364 1.98171 13.3077C1.91007 13.2789 1.83341 13.2646 1.75621 13.2657H0.590934Z" fill="black"/>
</svg>
