<svg width="15" height="15" viewBox="0 0 15 15" fill="none" xmlns="http://www.w3.org/2000/svg">
<path d="M3.18167 -0.313246C2.85186 -0.313246 2.52206 -0.189007 2.27362 0.0594382L0.375795 1.95726C-0.121096 2.45415 -0.121096 3.27649 0.375795 3.77338L3.2985 6.69608L1.43651 8.55735C1.2824 8.71146 1.16953 8.90311 1.1097 9.11351L0.0210284 12.9256C-0.00582023 13.02 -0.00697991 13.1198 0.0176694 13.2147C0.0423187 13.3096 0.0918819 13.3962 0.161232 13.4656C0.230582 13.5349 0.317201 13.5845 0.412129 13.6091C0.507057 13.6338 0.606847 13.6326 0.701177 13.6058L4.51402 12.5171C4.51426 12.5169 4.5145 12.5166 4.51474 12.5164C4.72372 12.4563 4.9149 12.3449 5.06946 12.1903L13.1911 4.06794C14.1896 3.06942 14.1896 1.43422 13.1911 0.435706C12.692 -0.063583 12.0336 -0.313246 11.375 -0.313246C10.7164 -0.313246 10.0579 -0.063583 9.55887 0.435706L7.01244 2.98214L6.32082 2.29052C6.2867 2.24346 6.24533 2.20209 6.19826 2.16797L4.85302 0.822724C4.81889 0.775656 4.77753 0.734292 4.73046 0.700168L4.08973 0.0594382C3.84129 -0.189007 3.51149 -0.313246 3.18167 -0.313246ZM3.18167 0.780438C3.22746 0.780438 3.27325 0.799631 3.3114 0.837774L3.6246 1.15097L3.46334 1.31223C3.41051 1.36295 3.36834 1.4237 3.33929 1.49092C3.31023 1.55814 3.29488 1.63049 3.29414 1.70372C3.2934 1.77694 3.30727 1.84958 3.33495 1.91738C3.36263 1.98518 3.40356 2.04678 3.45534 2.09856C3.50713 2.15034 3.56872 2.19127 3.63652 2.21895C3.70432 2.24663 3.77696 2.26051 3.85019 2.25976C3.92342 2.25902 3.99576 2.24367 4.06298 2.21462C4.13021 2.18556 4.19095 2.14339 4.24167 2.09057L4.40293 1.92931L5.0924 2.61877L4.93114 2.78003C4.87831 2.83075 4.83614 2.8915 4.80709 2.95872C4.77803 3.02594 4.76269 3.09829 4.76194 3.17152C4.7612 3.24474 4.77507 3.31739 4.80275 3.38518C4.83043 3.45298 4.87136 3.51458 4.92315 3.56636C4.97493 3.61814 5.03652 3.65907 5.10432 3.68675C5.17212 3.71443 5.24476 3.72831 5.31799 3.72756C5.39122 3.72682 5.46356 3.71147 5.53078 3.68242C5.59801 3.65337 5.65876 3.61119 5.70948 3.55837L5.87073 3.39711L6.2341 3.76048L4.07683 5.91774L1.15413 2.99504C1.07785 2.91876 1.07785 2.81188 1.15413 2.7356L3.05195 0.837774C3.0901 0.799631 3.13589 0.780438 3.18167 0.780438ZM11.375 0.781155C11.7496 0.781155 12.1236 0.925488 12.4121 1.21404C12.4123 1.21404 12.4125 1.21404 12.4128 1.21404C12.9907 1.79194 12.9907 2.7117 12.4128 3.2896L11.7011 4.00129L9.62552 1.92572L10.3372 1.21404C10.6256 0.925488 11.0004 0.781155 11.375 0.781155ZM8.84719 2.70406L10.9228 4.77962L4.29041 11.412C4.2689 11.4333 4.24165 11.4497 4.21086 11.4585L1.35122 12.2756L2.16826 9.41524C2.16826 9.415 2.16826 9.41476 2.16826 9.41452C2.17668 9.38493 2.19209 9.35844 2.21485 9.33568L8.84719 2.70406ZM11.3972 7.36691L10.6189 8.14525L11.6975 9.22388L11.5362 9.38514C11.4834 9.43586 11.4412 9.49661 11.4122 9.56383C11.3831 9.63105 11.3678 9.70339 11.367 9.77662C11.3663 9.84985 11.3802 9.92249 11.4079 9.99029C11.4355 10.0581 11.4765 10.1197 11.5283 10.1715C11.58 10.2233 11.6416 10.2642 11.7094 10.2919C11.7772 10.3195 11.8499 10.3334 11.9231 10.3327C11.9963 10.3319 12.0687 10.3166 12.1359 10.2875C12.2031 10.2585 12.2639 10.2163 12.3146 10.1635L12.4758 10.0022L12.8521 10.3785C12.9284 10.4548 12.9284 10.5616 12.8521 10.6379L10.9543 12.5357C10.878 12.612 10.7711 12.612 10.6948 12.5357L8.4616 10.3025L7.68327 11.0808L9.9165 13.3141C10.4134 13.811 11.2357 13.811 11.7326 13.3141L13.6304 11.4163C14.1273 10.9194 14.1273 10.097 13.6304 9.60015L12.9259 8.89563C12.8918 8.84856 12.8504 8.8072 12.8034 8.77308L11.3972 7.36691Z" fill="black"/>
</svg>
