<svg width="15" height="16" viewBox="0 0 15 16" fill="none" xmlns="http://www.w3.org/2000/svg">
<path d="M3.18167 0.77356C2.85186 0.77356 2.52206 0.897798 2.27362 1.14624L0.375795 3.04406C-0.121096 3.54096 -0.121096 4.36329 0.375795 4.86018L3.2985 7.78288L1.43651 9.64415C1.2824 9.79826 1.16953 9.98991 1.1097 10.2003L0.0210284 14.0124C-0.00582023 14.1068 -0.00697991 14.2066 0.0176694 14.3015C0.0423187 14.3964 0.0918819 14.483 0.161232 14.5524C0.230582 14.6217 0.317201 14.6713 0.412129 14.6959C0.507057 14.7206 0.606847 14.7194 0.701177 14.6926L4.51402 13.6039C4.51426 13.6037 4.5145 13.6034 4.51474 13.6032C4.72372 13.5431 4.9149 13.4317 5.06946 13.2771L13.1911 5.15475C14.1896 4.15623 14.1896 2.52103 13.1911 1.52251C12.692 1.02322 12.0336 0.77356 11.375 0.77356C10.7164 0.77356 10.0579 1.02322 9.55887 1.52251L7.01244 4.06895L6.32082 3.37733C6.2867 3.33026 6.24533 3.2889 6.19826 3.25477L4.85302 1.90953C4.81889 1.86246 4.77753 1.8211 4.73046 1.78697L4.08973 1.14624C3.84129 0.897798 3.51149 0.77356 3.18167 0.77356ZM3.18167 1.86724C3.22746 1.86724 3.27325 1.88644 3.3114 1.92458L3.6246 2.23778L3.46334 2.39903C3.41051 2.44975 3.36834 2.5105 3.33929 2.57773C3.31023 2.64495 3.29488 2.71729 3.29414 2.79052C3.2934 2.86375 3.30727 2.93639 3.33495 3.00419C3.36263 3.07199 3.40356 3.13358 3.45534 3.18537C3.50713 3.23715 3.56872 3.27808 3.63652 3.30576C3.70432 3.33344 3.77696 3.34731 3.85019 3.34657C3.92342 3.34582 3.99576 3.33048 4.06298 3.30142C4.13021 3.27237 4.19095 3.2302 4.24167 3.17737L4.40293 3.01611L5.0924 3.70558L4.93114 3.86684C4.87831 3.91756 4.83614 3.97831 4.80709 4.04553C4.77803 4.11275 4.76269 4.18509 4.76194 4.25832C4.7612 4.33155 4.77507 4.40419 4.80275 4.47199C4.83043 4.53979 4.87136 4.60138 4.92315 4.65317C4.97493 4.70495 5.03652 4.74588 5.10432 4.77356C5.17212 4.80124 5.24476 4.81511 5.31799 4.81437C5.39122 4.81363 5.46356 4.79828 5.53078 4.76922C5.59801 4.74017 5.65876 4.698 5.70948 4.64517L5.87073 4.48391L6.2341 4.84728L4.07683 7.00455L1.15413 4.08185C1.07785 4.00556 1.07785 3.89869 1.15413 3.8224L3.05195 1.92458C3.0901 1.88644 3.13589 1.86724 3.18167 1.86724ZM11.375 1.86796C11.7496 1.86796 12.1236 2.01229 12.4121 2.30085C12.4123 2.30085 12.4125 2.30085 12.4128 2.30085C12.9907 2.87875 12.9907 3.79851 12.4128 4.37641L11.7011 5.08809L9.62552 3.01253L10.3372 2.30085C10.6256 2.01229 11.0004 1.86796 11.375 1.86796ZM8.84719 3.79087L10.9228 5.86643L4.29041 12.4988C4.2689 12.5201 4.24165 12.5365 4.21086 12.5454L1.35122 13.3624L2.16826 10.502C2.16826 10.5018 2.16826 10.5016 2.16826 10.5013C2.17668 10.4717 2.19209 10.4452 2.21485 10.4225L8.84719 3.79087ZM11.3972 8.45372L10.6189 9.23205L11.6975 10.3107L11.5362 10.4719C11.4834 10.5227 11.4412 10.5834 11.4122 10.6506C11.3831 10.7179 11.3678 10.7902 11.367 10.8634C11.3663 10.9367 11.3802 11.0093 11.4079 11.0771C11.4355 11.1449 11.4765 11.2065 11.5283 11.2583C11.58 11.3101 11.6416 11.351 11.7094 11.3787C11.7772 11.4063 11.8499 11.4202 11.9231 11.4195C11.9963 11.4187 12.0687 11.4034 12.1359 11.3743C12.2031 11.3453 12.2639 11.3031 12.3146 11.2503L12.4758 11.089L12.8521 11.4653C12.9284 11.5416 12.9284 11.6484 12.8521 11.7247L10.9543 13.6226C10.878 13.6988 10.7711 13.6988 10.6948 13.6226L8.4616 11.3893L7.68327 12.1677L9.9165 14.4009C10.4134 14.8978 11.2357 14.8978 11.7326 14.4009L13.6304 12.5031C14.1273 12.0062 14.1273 11.1838 13.6304 10.687L12.9259 9.98244C12.8918 9.93537 12.8504 9.894 12.8034 9.85988L11.3972 8.45372Z" fill="black"/>
</svg>
