<svg width="14" height="15" viewBox="0 0 14 15" fill="none" xmlns="http://www.w3.org/2000/svg">
<path d="M2.975 0.686754C2.10665 0.686754 1.4 1.3934 1.4 2.26175V6.81175C1.4 7.6801 2.10665 8.38675 2.975 8.38675H3.85V7.33675H2.975C2.68555 7.33675 2.45 7.1012 2.45 6.81175V2.26175C2.45 1.9723 2.68555 1.73675 2.975 1.73675H12.5036C12.2863 1.12705 11.7085 0.686754 11.025 0.686754H2.975ZM6.125 2.43675C5.25525 2.43675 4.55 3.142 4.55 4.01175V9.26175C4.55 10.1315 5.25525 10.8368 6.125 10.8368H7V9.08675H5.95C5.7568 9.08675 5.6 8.92995 5.6 8.73675V4.01175C5.6 3.72195 5.8352 3.48675 6.125 3.48675H11.725C12.0148 3.48675 12.25 3.72195 12.25 4.01175V4.18675H13.3V4.01175C13.3 3.142 12.5947 2.43675 11.725 2.43675H6.125ZM9.275 4.88675C8.41137 4.88675 7.7 5.59813 7.7 6.46175V11.7118C7.7 12.5754 8.41137 13.2868 9.275 13.2868H12.425C13.2886 13.2868 14 12.5754 14 11.7118V6.46175C14 5.59813 13.2886 4.88675 12.425 4.88675H9.275ZM9.275 5.93675H12.425C12.7213 5.93675 12.95 6.16548 12.95 6.46175V11.7118C12.95 12.008 12.7213 12.2368 12.425 12.2368H9.275C8.97873 12.2368 8.75 12.008 8.75 11.7118V6.46175C8.75 6.16548 8.97873 5.93675 9.275 5.93675ZM0.525 8.73675C0.23485 8.73675 0 8.9716 0 9.26175C0 9.5519 0.23485 9.78675 0.525 9.78675H3.85V8.73675H0.525ZM10.325 10.4868C10.2554 10.4858 10.1864 10.4986 10.1218 10.5246C10.0572 10.5505 9.99849 10.589 9.94894 10.6379C9.8994 10.6867 9.86006 10.7449 9.8332 10.8091C9.80635 10.8733 9.79252 10.9422 9.79252 11.0118C9.79252 11.0813 9.80635 11.1502 9.8332 11.2144C9.86006 11.2786 9.8994 11.3368 9.94894 11.3856C9.99849 11.4345 10.0572 11.473 10.1218 11.4989C10.1864 11.5249 10.2554 11.5377 10.325 11.5368H11.375C11.4446 11.5377 11.5136 11.5249 11.5782 11.4989C11.6428 11.473 11.7015 11.4345 11.7511 11.3856C11.8006 11.3368 11.8399 11.2786 11.8668 11.2144C11.8936 11.1502 11.9075 11.0813 11.9075 11.0118C11.9075 10.9422 11.8936 10.8733 11.8668 10.8091C11.8399 10.7449 11.8006 10.6867 11.7511 10.6379C11.7015 10.589 11.6428 10.5505 11.5782 10.5246C11.5136 10.4986 11.4446 10.4858 11.375 10.4868H10.325Z" fill="black"/>
</svg>
