<svg width="14" height="15" viewBox="0 0 14 15" fill="none" xmlns="http://www.w3.org/2000/svg">
<path d="M2.975 0.83606C2.10665 0.83606 1.4 1.54271 1.4 2.41106V6.96106C1.4 7.82941 2.10665 8.53606 2.975 8.53606H3.85V7.48606H2.975C2.68555 7.48606 2.45 7.25051 2.45 6.96106V2.41106C2.45 2.12161 2.68555 1.88606 2.975 1.88606H12.5036C12.2863 1.27636 11.7085 0.83606 11.025 0.83606H2.975ZM6.125 2.58606C5.25525 2.58606 4.55 3.29131 4.55 4.16106V9.41106C4.55 10.2808 5.25525 10.9861 6.125 10.9861H7V9.23606H5.95C5.7568 9.23606 5.6 9.07926 5.6 8.88606V4.16106C5.6 3.87126 5.8352 3.63606 6.125 3.63606H11.725C12.0148 3.63606 12.25 3.87126 12.25 4.16106V4.33606H13.3V4.16106C13.3 3.29131 12.5947 2.58606 11.725 2.58606H6.125ZM9.275 5.03606C8.41137 5.03606 7.7 5.74743 7.7 6.61106V11.8611C7.7 12.7247 8.41137 13.4361 9.275 13.4361H12.425C13.2886 13.4361 14 12.7247 14 11.8611V6.61106C14 5.74743 13.2886 5.03606 12.425 5.03606H9.275ZM9.275 6.08606H12.425C12.7213 6.08606 12.95 6.31479 12.95 6.61106V11.8611C12.95 12.1573 12.7213 12.3861 12.425 12.3861H9.275C8.97873 12.3861 8.75 12.1573 8.75 11.8611V6.61106C8.75 6.31479 8.97873 6.08606 9.275 6.08606ZM0.525 8.88606C0.23485 8.88606 0 9.12091 0 9.41106C0 9.70121 0.23485 9.93606 0.525 9.93606H3.85V8.88606H0.525ZM10.325 10.6361C10.2554 10.6351 10.1864 10.6479 10.1218 10.6739C10.0572 10.6998 9.99849 10.7383 9.94894 10.7872C9.8994 10.836 9.86006 10.8942 9.8332 10.9584C9.80635 11.0226 9.79252 11.0915 9.79252 11.1611C9.79252 11.2306 9.80635 11.2995 9.8332 11.3637C9.86006 11.4279 9.8994 11.4861 9.94894 11.5349C9.99849 11.5838 10.0572 11.6223 10.1218 11.6482C10.1864 11.6742 10.2554 11.687 10.325 11.6861H11.375C11.4446 11.687 11.5136 11.6742 11.5782 11.6482C11.6428 11.6223 11.7015 11.5838 11.7511 11.5349C11.8006 11.4861 11.8399 11.4279 11.8668 11.3637C11.8936 11.2995 11.9075 11.2306 11.9075 11.1611C11.9075 11.0915 11.8936 11.0226 11.8668 10.9584C11.8399 10.8942 11.8006 10.836 11.7511 10.7872C11.7015 10.7383 11.6428 10.6998 11.5782 10.6739C11.5136 10.6479 11.4446 10.6351 11.375 10.6361H10.325Z" fill="black"/>
</svg>
