<svg width="14" height="16" viewBox="0 0 14 16" fill="none" xmlns="http://www.w3.org/2000/svg">
<path d="M5.60012 0.77356C4.7365 0.77356 4.02512 1.48493 4.02512 2.34856V4.44856C4.02512 5.31218 4.7365 6.02356 5.60012 6.02356H6.12512V7.42356H3.67512C2.8115 7.42356 2.10012 8.13493 2.10012 8.99856V9.52356H1.57512C0.711497 9.52356 0.00012207 10.2349 0.00012207 11.0986V13.1986C0.00012207 14.0622 0.711497 14.7736 1.57512 14.7736H3.67512C4.53875 14.7736 5.25012 14.0622 5.25012 13.1986V11.0986C5.25012 10.2349 4.53875 9.52356 3.67512 9.52356H3.15012V8.99856C3.15012 8.70228 3.37885 8.47356 3.67512 8.47356H9.62512C9.9214 8.47356 10.1501 8.70228 10.1501 8.99856V9.52356H9.62512C8.7615 9.52356 8.05012 10.2349 8.05012 11.0986V13.1986C8.05012 14.0622 8.7615 14.7736 9.62512 14.7736H11.7251C12.5887 14.7736 13.3001 14.0622 13.3001 13.1986V11.0986C13.3001 10.2349 12.5887 9.52356 11.7251 9.52356H11.2001V8.99856C11.2001 8.13493 10.4887 7.42356 9.62512 7.42356H7.17512V6.02356H7.70012C8.56375 6.02356 9.27512 5.31218 9.27512 4.44856V2.34856C9.27512 1.48493 8.56375 0.77356 7.70012 0.77356H5.60012ZM5.60012 1.82356H7.70012C7.9964 1.82356 8.22512 2.05228 8.22512 2.34856V4.44856C8.22512 4.74483 7.9964 4.97356 7.70012 4.97356H5.60012C5.30385 4.97356 5.07512 4.74483 5.07512 4.44856V2.34856C5.07512 2.05228 5.30385 1.82356 5.60012 1.82356ZM1.57512 10.5736H3.67512C3.9714 10.5736 4.20012 10.8023 4.20012 11.0986V13.1986C4.20012 13.4948 3.9714 13.7236 3.67512 13.7236H1.57512C1.27885 13.7236 1.05012 13.4948 1.05012 13.1986V11.0986C1.05012 10.8023 1.27885 10.5736 1.57512 10.5736ZM9.62512 10.5736H11.7251C12.0214 10.5736 12.2501 10.8023 12.2501 11.0986V13.1986C12.2501 13.4948 12.0214 13.7236 11.7251 13.7236H9.62512C9.32885 13.7236 9.10012 13.4948 9.10012 13.1986V11.0986C9.10012 10.8023 9.32885 10.5736 9.62512 10.5736Z" fill="black"/>
</svg>
