<svg width="14" height="16" viewBox="0 0 14 16" fill="none" xmlns="http://www.w3.org/2000/svg">
<path d="M5.6 0.835938C4.73637 0.835938 4.025 1.54731 4.025 2.41094V4.51094C4.025 5.37456 4.73637 6.08594 5.6 6.08594H6.125V7.48594H3.675C2.81137 7.48594 2.1 8.19731 2.1 9.06094V9.58594H1.575C0.711375 9.58594 0 10.2973 0 11.1609V13.2609C0 14.1246 0.711375 14.8359 1.575 14.8359H3.675C4.53863 14.8359 5.25 14.1246 5.25 13.2609V11.1609C5.25 10.2973 4.53863 9.58594 3.675 9.58594H3.15V9.06094C3.15 8.76466 3.37873 8.53594 3.675 8.53594H9.625C9.92127 8.53594 10.15 8.76466 10.15 9.06094V9.58594H9.625C8.76137 9.58594 8.05 10.2973 8.05 11.1609V13.2609C8.05 14.1246 8.76137 14.8359 9.625 14.8359H11.725C12.5886 14.8359 13.3 14.1246 13.3 13.2609V11.1609C13.3 10.2973 12.5886 9.58594 11.725 9.58594H11.2V9.06094C11.2 8.19731 10.4886 7.48594 9.625 7.48594H7.175V6.08594H7.7C8.56363 6.08594 9.275 5.37456 9.275 4.51094V2.41094C9.275 1.54731 8.56363 0.835938 7.7 0.835938H5.6ZM5.6 1.88594H7.7C7.99627 1.88594 8.225 2.11466 8.225 2.41094V4.51094C8.225 4.80721 7.99627 5.03594 7.7 5.03594H5.6C5.30373 5.03594 5.075 4.80721 5.075 4.51094V2.41094C5.075 2.11466 5.30373 1.88594 5.6 1.88594ZM1.575 10.6359H3.675C3.97127 10.6359 4.2 10.8647 4.2 11.1609V13.2609C4.2 13.5572 3.97127 13.7859 3.675 13.7859H1.575C1.27873 13.7859 1.05 13.5572 1.05 13.2609V11.1609C1.05 10.8647 1.27873 10.6359 1.575 10.6359ZM9.625 10.6359H11.725C12.0213 10.6359 12.25 10.8647 12.25 11.1609V13.2609C12.25 13.5572 12.0213 13.7859 11.725 13.7859H9.625C9.32872 13.7859 9.1 13.5572 9.1 13.2609V11.1609C9.1 10.8647 9.32872 10.6359 9.625 10.6359Z" fill="black"/>
</svg>
