<svg width="14" height="15" viewBox="0 0 14 15" fill="none" xmlns="http://www.w3.org/2000/svg">
<g clip-path="url(#clip0_131_8058)">
<path d="M2.68332 0.173553C1.52978 0.173553 0.583344 1.11999 0.583344 2.27353V2.79852C0.583357 2.93776 0.638674 3.07128 0.737126 3.16974C0.835579 3.26819 0.969105 3.3235 1.10834 3.32352H1.98333V12.5984C1.98333 13.462 2.69469 14.1734 3.55831 14.1734H6.88327V13.1234H3.55831C3.26204 13.1234 3.03332 12.8947 3.03332 12.5984V3.32352H9.50825C9.64748 3.3235 9.781 3.26819 9.87946 3.16974C9.97791 3.07128 10.0332 2.93776 10.0332 2.79852V2.27353C10.0332 1.68759 10.4973 1.22354 11.0832 1.22354C11.6692 1.22354 12.1332 1.68759 12.1332 2.27353V12.5984C12.1332 12.8947 11.9045 13.1234 11.6082 13.1234H11.0832V14.1734H11.6082C12.4718 14.1734 13.1832 13.462 13.1832 12.5984V2.27353C13.1832 1.11999 12.2368 0.173553 11.0832 0.173553H2.68332ZM2.68332 1.22354H9.30795C9.12028 1.53756 8.98325 1.88366 8.98325 2.27353H1.63333C1.63333 1.68759 2.09738 1.22354 2.68332 1.22354ZM4.6083 4.7235C4.53873 4.72252 4.46966 4.73537 4.4051 4.76131C4.34055 4.78726 4.28179 4.82577 4.23224 4.87462C4.1827 4.92347 4.14336 4.98167 4.11651 5.04586C4.08966 5.11004 4.07583 5.17892 4.07583 5.2485C4.07583 5.31807 4.08966 5.38695 4.11651 5.45114C4.14336 5.51532 4.1827 5.57353 4.23224 5.62238C4.28179 5.67122 4.34055 5.70974 4.4051 5.73568C4.46966 5.76162 4.53873 5.77448 4.6083 5.77349H10.5582C10.6278 5.77448 10.6969 5.76162 10.7614 5.73568C10.826 5.70974 10.8847 5.67122 10.9343 5.62238C10.9838 5.57353 11.0232 5.51532 11.05 5.45114C11.0769 5.38695 11.0907 5.31807 11.0907 5.2485C11.0907 5.17892 11.0769 5.11004 11.05 5.04586C11.0232 4.98167 10.9838 4.92347 10.9343 4.87462C10.8847 4.82577 10.826 4.78726 10.7614 4.76131C10.6969 4.73537 10.6278 4.72252 10.5582 4.7235H4.6083ZM4.6083 6.47348C4.53873 6.4725 4.46966 6.48535 4.4051 6.51129C4.34055 6.53724 4.28179 6.57575 4.23224 6.6246C4.1827 6.67345 4.14336 6.73165 4.11651 6.79584C4.08966 6.86002 4.07583 6.9289 4.07583 6.99848C4.07583 7.06805 4.08966 7.13693 4.11651 7.20112C4.14336 7.2653 4.1827 7.32351 4.23224 7.37236C4.28179 7.42121 4.34055 7.45972 4.4051 7.48566C4.46966 7.5116 4.53873 7.52446 4.6083 7.52347H7.05827C7.12784 7.52446 7.19691 7.5116 7.26147 7.48566C7.32603 7.45972 7.38478 7.42121 7.43433 7.37236C7.48387 7.32351 7.52321 7.2653 7.55006 7.20112C7.57692 7.13693 7.59074 7.06805 7.59074 6.99848C7.59074 6.9289 7.57692 6.86002 7.55006 6.79584C7.52321 6.73165 7.48387 6.67345 7.43433 6.6246C7.38478 6.57575 7.32603 6.53724 7.26147 6.51129C7.19691 6.48535 7.12784 6.4725 7.05827 6.47348H4.6083ZM8.98325 7.87347C7.63639 7.87347 6.53328 8.97658 6.53328 10.3234C6.53328 11.1506 6.95022 11.8848 7.58327 12.3291V13.6484C7.58327 13.8357 7.6827 14.0085 7.8444 14.1023C8.00644 14.1965 8.20631 14.1975 8.36871 14.1044L8.98325 13.753L9.5978 14.1044C9.67829 14.1506 9.76829 14.1734 9.85824 14.1734C9.94924 14.1734 10.0406 14.1499 10.1221 14.1023C10.2838 14.0085 10.3832 13.8357 10.3832 13.6484V12.3291C11.0163 11.8848 11.4332 11.1506 11.4332 10.3234C11.4332 8.97658 10.3301 7.87347 8.98325 7.87347ZM8.98325 8.92346C9.76266 8.92346 10.3832 9.54403 10.3832 10.3234C10.3832 11.1028 9.76266 11.7234 8.98325 11.7234C8.20384 11.7234 7.58327 11.1028 7.58327 10.3234C7.58327 9.54403 8.20384 8.92346 8.98325 8.92346Z" fill="black"/>
</g>
<defs>
<clipPath id="clip0_131_8058">
<rect width="14" height="14" fill="white" transform="translate(0 0.173553)"/>
</clipPath>
</defs>
</svg>
