<svg width="14" height="15" viewBox="0 0 14 15" fill="none" xmlns="http://www.w3.org/2000/svg">
<path d="M7.15909 0.686785C6.5495 0.686785 6.04545 1.1912 6.04545 1.80042V3.39133C6.04545 4.00055 6.5495 4.50497 7.15909 4.50497H8.2342L9.04892 5.31969C9.13843 5.40916 9.2598 5.45942 9.38636 5.45942C9.51292 5.45942 9.6343 5.40916 9.72381 5.31969L10.5385 4.50497H11.6136C12.2232 4.50497 12.7273 4.00055 12.7273 3.39133V1.80042C12.7273 1.1912 12.2232 0.686785 11.6136 0.686785H7.15909ZM7.15909 1.64133H11.6136C11.7072 1.64133 11.7727 1.70709 11.7727 1.80042V3.39133C11.7727 3.48466 11.7072 3.55042 11.6136 3.55042H10.3409C10.2143 3.55045 10.093 3.60074 10.0035 3.69025L9.38636 4.30735L8.76927 3.69025C8.67977 3.60074 8.55839 3.55045 8.43182 3.55042H7.15909C7.0655 3.55042 7 3.48466 7 3.39133V1.80042C7 1.70709 7.0655 1.64133 7.15909 1.64133ZM2.54545 5.45951C2.05492 5.45951 1.62659 5.66065 1.35352 5.96786C1.08044 6.27507 0.954545 6.66595 0.954545 7.05042C0.954545 7.43489 1.08044 7.82577 1.35352 8.13299C1.62659 8.4402 2.05492 8.64133 2.54545 8.64133C3.03598 8.64133 3.46432 8.4402 3.73739 8.13299C4.01047 7.82577 4.13636 7.43489 4.13636 7.05042C4.13636 6.66595 4.01047 6.27507 3.73739 5.96786C3.46432 5.66065 3.03598 5.45951 2.54545 5.45951ZM7 5.45951C6.40341 5.45951 5.89553 5.70042 5.56942 6.06729C5.24332 6.43416 5.09091 6.90459 5.09091 7.3686C5.09091 7.83262 5.24332 8.30305 5.56942 8.66992C5.89553 9.03679 6.40341 9.27769 7 9.27769C7.59659 9.27769 8.10447 9.03679 8.43058 8.66992C8.75668 8.30305 8.90909 7.83262 8.90909 7.3686C8.90909 6.90459 8.75668 6.43416 8.43058 6.06729C8.10447 5.70042 7.59659 5.45951 7 5.45951ZM11.4545 5.45951C10.964 5.45951 10.5357 5.66065 10.2626 5.96786C9.98953 6.27507 9.86364 6.66595 9.86364 7.05042C9.86364 7.43489 9.98953 7.82577 10.2626 8.13299C10.5357 8.4402 10.964 8.64133 11.4545 8.64133C11.9451 8.64133 12.3734 8.4402 12.6465 8.13299C12.9196 7.82577 13.0455 7.43489 13.0455 7.05042C13.0455 6.66595 12.9196 6.27507 12.6465 5.96786C12.3734 5.66065 11.9451 5.45951 11.4545 5.45951ZM2.54545 6.41406C2.79735 6.41406 2.92584 6.49133 3.02397 6.60174C3.12211 6.71214 3.18182 6.87807 3.18182 7.05042C3.18182 7.22277 3.12211 7.38871 3.02397 7.49911C2.92584 7.60951 2.79735 7.68678 2.54545 7.68678C2.29356 7.68678 2.16507 7.60951 2.06694 7.49911C1.9688 7.38871 1.90909 7.22277 1.90909 7.05042C1.90909 6.87807 1.9688 6.71214 2.06694 6.60174C2.16507 6.49133 2.29356 6.41406 2.54545 6.41406ZM7 6.41406C7.35795 6.41406 7.56599 6.53111 7.71715 6.70117C7.86832 6.87123 7.95455 7.11671 7.95455 7.3686C7.95455 7.6205 7.86832 7.86598 7.71715 8.03604C7.56599 8.2061 7.35795 8.32315 7 8.32315C6.64205 8.32315 6.43401 8.2061 6.28285 8.03604C6.13168 7.86598 6.04545 7.6205 6.04545 7.3686C6.04545 7.11671 6.13168 6.87123 6.28285 6.70117C6.43401 6.53111 6.64205 6.41406 7 6.41406ZM11.4545 6.41406C11.7064 6.41406 11.8349 6.49133 11.9331 6.60174C12.0312 6.71214 12.0909 6.87807 12.0909 7.05042C12.0909 7.22277 12.0312 7.38871 11.9331 7.49911C11.8349 7.60951 11.7064 7.68678 11.4545 7.68678C11.2027 7.68678 11.0742 7.60951 10.976 7.49911C10.8779 7.38871 10.8182 7.22277 10.8182 7.05042C10.8182 6.87807 10.8779 6.71214 10.976 6.60174C11.0742 6.49133 11.2027 6.41406 11.4545 6.41406ZM0.954545 9.27769C0.429545 9.27769 0 9.70724 0 10.2322V10.7412C0 11.7053 1.11682 12.4595 2.54545 12.4595C2.94636 12.4595 3.325 12.3993 3.65909 12.2911C3.55409 12.0461 3.5 11.7818 3.5 11.505V11.3366C3.23591 11.4384 2.90818 11.505 2.54545 11.505C1.64818 11.505 0.954545 11.0944 0.954545 10.7412V10.2322H3.69389C3.8848 9.85678 4.21288 9.55789 4.60742 9.40198C4.46742 9.32244 4.305 9.27769 4.13636 9.27769H0.954545ZM9.86364 9.27769C9.695 9.27769 9.53258 9.32244 9.39258 9.40198C9.78712 9.55789 10.1152 9.85678 10.3061 10.2322H13.0455V10.7412C13.0455 11.0944 12.3518 11.505 11.4545 11.505C11.0918 11.505 10.7641 11.4384 10.5 11.3366V11.505C10.5 11.7818 10.4459 12.0461 10.3409 12.2911C10.675 12.3993 11.0536 12.4595 11.4545 12.4595C12.8832 12.4595 14 11.7053 14 10.7412V10.2322C14 9.70724 13.5705 9.27769 13.0455 9.27769H9.86364ZM5.25 9.91406C4.6407 9.91406 4.13636 10.4184 4.13636 11.0277V11.505C4.13636 12.1153 4.54361 12.6126 5.06729 12.9268C5.59098 13.2411 6.26365 13.4141 7 13.4141C7.73635 13.4141 8.40902 13.2411 8.93271 12.9268C9.45639 12.6126 9.86364 12.1153 9.86364 11.505V11.0277C9.86364 10.4184 9.3593 9.91406 8.75 9.91406H5.25ZM5.25 10.8686H8.75C8.84388 10.8686 8.90909 10.9338 8.90909 11.0277V11.505C8.90909 11.6853 8.78178 11.9044 8.44176 12.1084C8.10174 12.3124 7.58156 12.4595 7 12.4595C6.41844 12.4595 5.89826 12.3124 5.55824 12.1084C5.21822 11.9044 5.09091 11.6853 5.09091 11.505V11.0277C5.09091 10.9338 5.15612 10.8686 5.25 10.8686Z" fill="black"/>
</svg>
