<svg width="14" height="15" viewBox="0 0 14 15" fill="none" xmlns="http://www.w3.org/2000/svg">
<path d="M7.15909 0.77356C6.5495 0.77356 6.04545 1.27798 6.04545 1.8872V3.47811C6.04545 4.08732 6.5495 4.59174 7.15909 4.59174H8.2342L9.04892 5.40646C9.13843 5.49593 9.2598 5.5462 9.38636 5.5462C9.51292 5.5462 9.6343 5.49593 9.72381 5.40646L10.5385 4.59174H11.6136C12.2232 4.59174 12.7273 4.08732 12.7273 3.47811V1.8872C12.7273 1.27798 12.2232 0.77356 11.6136 0.77356H7.15909ZM7.15909 1.72811H11.6136C11.7072 1.72811 11.7727 1.79387 11.7727 1.8872V3.47811C11.7727 3.57143 11.7072 3.6372 11.6136 3.6372H10.3409C10.2143 3.63722 10.093 3.68752 10.0035 3.77702L9.38636 4.39412L8.76927 3.77702C8.67977 3.68752 8.55839 3.63722 8.43182 3.6372H7.15909C7.0655 3.6372 7 3.57143 7 3.47811V1.8872C7 1.79387 7.0655 1.72811 7.15909 1.72811ZM2.54545 5.54629C2.05492 5.54629 1.62659 5.74742 1.35352 6.05463C1.08044 6.36184 0.954545 6.75273 0.954545 7.1372C0.954545 7.52167 1.08044 7.91255 1.35352 8.21976C1.62659 8.52697 2.05492 8.72811 2.54545 8.72811C3.03598 8.72811 3.46432 8.52697 3.73739 8.21976C4.01047 7.91255 4.13636 7.52167 4.13636 7.1372C4.13636 6.75273 4.01047 6.36184 3.73739 6.05463C3.46432 5.74742 3.03598 5.54629 2.54545 5.54629ZM7 5.54629C6.40341 5.54629 5.89553 5.78719 5.56942 6.15406C5.24332 6.52093 5.09091 6.99136 5.09091 7.45538C5.09091 7.91939 5.24332 8.38982 5.56942 8.75669C5.89553 9.12356 6.40341 9.36447 7 9.36447C7.59659 9.36447 8.10447 9.12356 8.43058 8.75669C8.75668 8.38982 8.90909 7.91939 8.90909 7.45538C8.90909 6.99136 8.75668 6.52093 8.43058 6.15406C8.10447 5.78719 7.59659 5.54629 7 5.54629ZM11.4545 5.54629C10.964 5.54629 10.5357 5.74742 10.2626 6.05463C9.98953 6.36184 9.86364 6.75273 9.86364 7.1372C9.86364 7.52167 9.98953 7.91255 10.2626 8.21976C10.5357 8.52697 10.964 8.72811 11.4545 8.72811C11.9451 8.72811 12.3734 8.52697 12.6465 8.21976C12.9196 7.91255 13.0455 7.52167 13.0455 7.1372C13.0455 6.75273 12.9196 6.36184 12.6465 6.05463C12.3734 5.74742 11.9451 5.54629 11.4545 5.54629ZM2.54545 6.50083C2.79735 6.50083 2.92584 6.57811 3.02397 6.68851C3.12211 6.79891 3.18182 6.96485 3.18182 7.1372C3.18182 7.30954 3.12211 7.47548 3.02397 7.58588C2.92584 7.69628 2.79735 7.77356 2.54545 7.77356C2.29356 7.77356 2.16507 7.69628 2.06694 7.58588C1.9688 7.47548 1.90909 7.30954 1.90909 7.1372C1.90909 6.96485 1.9688 6.79891 2.06694 6.68851C2.16507 6.57811 2.29356 6.50083 2.54545 6.50083ZM7 6.50083C7.35795 6.50083 7.56599 6.61788 7.71715 6.78794C7.86832 6.958 7.95455 7.20348 7.95455 7.45538C7.95455 7.70727 7.86832 7.95275 7.71715 8.12281C7.56599 8.29287 7.35795 8.40992 7 8.40992C6.64205 8.40992 6.43401 8.29287 6.28285 8.12281C6.13168 7.95275 6.04545 7.70727 6.04545 7.45538C6.04545 7.20348 6.13168 6.958 6.28285 6.78794C6.43401 6.61788 6.64205 6.50083 7 6.50083ZM11.4545 6.50083C11.7064 6.50083 11.8349 6.57811 11.9331 6.68851C12.0312 6.79891 12.0909 6.96485 12.0909 7.1372C12.0909 7.30954 12.0312 7.47548 11.9331 7.58588C11.8349 7.69628 11.7064 7.77356 11.4545 7.77356C11.2027 7.77356 11.0742 7.69628 10.976 7.58588C10.8779 7.47548 10.8182 7.30954 10.8182 7.1372C10.8182 6.96485 10.8779 6.79891 10.976 6.68851C11.0742 6.57811 11.2027 6.50083 11.4545 6.50083ZM0.954545 9.36447C0.429545 9.36447 0 9.79401 0 10.319V10.828C0 11.7921 1.11682 12.5463 2.54545 12.5463C2.94636 12.5463 3.325 12.4861 3.65909 12.3779C3.55409 12.1329 3.5 11.8686 3.5 11.5917V11.4233C3.23591 11.5251 2.90818 11.5917 2.54545 11.5917C1.64818 11.5917 0.954545 11.1812 0.954545 10.828V10.319H3.69389C3.8848 9.94356 4.21288 9.64467 4.60742 9.48876C4.46742 9.40921 4.305 9.36447 4.13636 9.36447H0.954545ZM9.86364 9.36447C9.695 9.36447 9.53258 9.40921 9.39258 9.48876C9.78712 9.64467 10.1152 9.94356 10.3061 10.319H13.0455V10.828C13.0455 11.1812 12.3518 11.5917 11.4545 11.5917C11.0918 11.5917 10.7641 11.5251 10.5 11.4233V11.5917C10.5 11.8686 10.4459 12.1329 10.3409 12.3779C10.675 12.4861 11.0536 12.5463 11.4545 12.5463C12.8832 12.5463 14 11.7921 14 10.828V10.319C14 9.79401 13.5705 9.36447 13.0455 9.36447H9.86364ZM5.25 10.0008C4.6407 10.0008 4.13636 10.5052 4.13636 11.1145V11.5917C4.13636 12.2021 4.54361 12.6994 5.06729 13.0136C5.59098 13.3278 6.26365 13.5008 7 13.5008C7.73635 13.5008 8.40902 13.3278 8.93271 13.0136C9.45639 12.6994 9.86364 12.2021 9.86364 11.5917V11.1145C9.86364 10.5052 9.3593 10.0008 8.75 10.0008H5.25ZM5.25 10.9554H8.75C8.84388 10.9554 8.90909 11.0206 8.90909 11.1145V11.5917C8.90909 11.7721 8.78178 11.9911 8.44176 12.1952C8.10174 12.3992 7.58156 12.5463 7 12.5463C6.41844 12.5463 5.89826 12.3992 5.55824 12.1952C5.21822 11.9911 5.09091 11.7721 5.09091 11.5917V11.1145C5.09091 11.0206 5.15612 10.9554 5.25 10.9554Z" fill="black"/>
</svg>
