<svg width="14" height="15" viewBox="0 0 14 15" fill="none" xmlns="http://www.w3.org/2000/svg">
<g clip-path="url(#clip0_1425_9880)">
<path d="M3.29078 0.173553C1.48021 0.173553 0 1.65377 0 3.46434C0 5.27491 1.48021 6.75512 3.29078 6.75512C5.10136 6.75512 6.58157 5.27491 6.58157 3.46434C6.58157 1.65377 5.10136 0.173553 3.29078 0.173553ZM9.4852 0.560704C8.5299 0.560704 7.74302 1.34759 7.74302 2.30288V4.62579C7.74302 5.58109 8.5299 6.36797 9.4852 6.36797H11.8081C12.7634 6.36797 13.5503 5.58109 13.5503 4.62579V2.30288C13.5503 1.34759 12.7634 0.560704 11.8081 0.560704H9.4852ZM3.29078 1.33501C4.47366 1.33501 5.42011 2.28146 5.42011 3.46434C5.42011 4.64721 4.47366 5.59367 3.29078 5.59367C2.10791 5.59367 1.16145 4.64721 1.16145 3.46434C1.16145 2.28146 2.10791 1.33501 3.29078 1.33501ZM9.4852 1.72216H11.8081C12.1358 1.72216 12.3888 1.97516 12.3888 2.30288V4.62579C12.3888 4.95351 12.1358 5.20652 11.8081 5.20652H9.4852C9.15748 5.20652 8.90447 4.95351 8.90447 4.62579V2.30288C8.90447 1.97516 9.15748 1.72216 9.4852 1.72216ZM10.6436 7.52791C10.2707 7.52663 9.89804 7.63982 9.58199 7.86818L8.0175 8.99712C7.38492 9.4532 7.11665 10.2701 7.35511 11.0123L7.94567 12.8497C8.18407 13.5917 8.87814 14.0993 9.6576 14.1019L11.5873 14.108C12.3668 14.1105 13.0642 13.6074 13.3076 12.8671L13.9102 11.0342C14.1538 10.2937 13.89 9.47465 13.2607 9.01451L11.7038 7.87499V7.87574C11.3891 7.64527 11.0165 7.52919 10.6436 7.52791ZM3.29078 7.94077C2.76047 7.94077 2.23055 8.19639 1.93878 8.70751L0.211723 11.7336C-0.375743 12.7633 0.377046 14.111 1.56373 14.111H5.01784C6.20478 14.111 6.95748 12.7635 6.36984 11.7336L4.64354 8.70751C4.35177 8.19639 3.82109 7.94077 3.29078 7.94077ZM10.6398 8.6871C10.772 8.68756 10.9044 8.72948 11.0179 8.81262L12.5748 9.95139L12.5756 9.95214C12.8022 10.1177 12.8947 10.4045 12.807 10.6712H12.8062L12.2043 12.5042C12.1163 12.7718 11.8721 12.9475 11.5911 12.9465L9.66138 12.9405C9.38036 12.9397 9.13713 12.7618 9.05117 12.4943L8.46137 10.6576C8.3754 10.3901 8.46963 10.1034 8.69729 9.93929V9.93853L10.2618 8.80959C10.3755 8.72745 10.5077 8.68664 10.6398 8.6871ZM3.29078 9.05383C3.41902 9.05383 3.54758 9.1301 3.63483 9.28294L5.36113 12.3091C5.53696 12.6172 5.34621 12.9495 5.01784 12.9495H1.56373C1.23536 12.9495 1.04438 12.6173 1.22043 12.3091L2.94749 9.28294C3.03474 9.1301 3.16255 9.05383 3.29078 9.05383Z" fill="black"/>
</g>
<defs>
<clipPath id="clip0_1425_9880">
<rect width="14" height="14" fill="white" transform="translate(0 0.173553)"/>
</clipPath>
</defs>
</svg>
