<svg width="14" height="15" viewBox="0 0 14 15" fill="none" xmlns="http://www.w3.org/2000/svg">
<g clip-path="url(#clip0_679_172)">
<path d="M5.075 0.173553C4.40477 0.173553 3.85 0.757518 3.85 1.46303V3.12092H1.925C0.868079 3.12092 0 4.03469 0 5.14724V12.1472C0 13.2598 0.868079 14.1736 1.925 14.1736H12.075C13.1319 14.1736 14 13.2598 14 12.1472V5.14724C14 4.03469 13.1319 3.12092 12.075 3.12092H10.15V1.46303C10.15 0.757518 9.59523 0.173553 8.925 0.173553H5.075ZM5.075 1.27882H8.925C9.02827 1.27882 9.1 1.35433 9.1 1.46303V3.12092H4.9V1.46303C4.9 1.35433 4.97173 1.27882 5.075 1.27882ZM1.925 4.22618H12.075C12.5644 4.22618 12.95 4.6321 12.95 5.14724V5.33145H1.05V5.14724C1.05 4.6321 1.43562 4.22618 1.925 4.22618ZM1.05 6.43671H12.95V12.1472C12.95 12.6624 12.5644 13.0683 12.075 13.0683H1.925C1.43562 13.0683 1.05 12.6624 1.05 12.1472V6.43671ZM6.9918 7.90248C6.85268 7.90477 6.72011 7.96509 6.62321 8.07019C6.52631 8.17529 6.473 8.31658 6.475 8.46303V9.19987H5.775C5.70543 9.19883 5.63636 9.21236 5.5718 9.23967C5.50724 9.26698 5.44849 9.30752 5.39894 9.35894C5.3494 9.41036 5.31006 9.47163 5.2832 9.53919C5.25635 9.60676 5.24252 9.67926 5.24252 9.7525C5.24252 9.82574 5.25635 9.89825 5.2832 9.96581C5.31006 10.0334 5.3494 10.0946 5.39894 10.1461C5.44849 10.1975 5.50724 10.238 5.5718 10.2653C5.63636 10.2926 5.70543 10.3062 5.775 10.3051H6.475V11.042C6.47402 11.1152 6.48687 11.1879 6.51281 11.2559C6.53875 11.3238 6.57727 11.3857 6.62612 11.4378C6.67496 11.49 6.73317 11.5314 6.79736 11.5597C6.86154 11.5879 6.93042 11.6025 7 11.6025C7.06958 11.6025 7.13846 11.5879 7.20264 11.5597C7.26683 11.5314 7.32504 11.49 7.37388 11.4378C7.42273 11.3857 7.46125 11.3238 7.48719 11.2559C7.51313 11.1879 7.52598 11.1152 7.525 11.042V10.3051H8.225C8.29457 10.3062 8.36364 10.2926 8.4282 10.2653C8.49276 10.238 8.55151 10.1975 8.60106 10.1461C8.6506 10.0946 8.68994 10.0334 8.7168 9.96581C8.74365 9.89825 8.75748 9.82574 8.75748 9.7525C8.75748 9.67926 8.74365 9.60676 8.7168 9.53919C8.68994 9.47163 8.6506 9.41036 8.60106 9.35894C8.55151 9.30752 8.49276 9.26698 8.4282 9.23967C8.36364 9.21236 8.29457 9.19883 8.225 9.19987H7.525V8.46303C7.52601 8.38906 7.5129 8.31563 7.48645 8.2471C7.46 8.17856 7.42075 8.11631 7.37103 8.06404C7.32131 8.01177 7.26212 7.97053 7.19698 7.94278C7.13184 7.91503 7.06206 7.90132 6.9918 7.90248Z" fill="black"/>
</g>
<defs>
<clipPath id="clip0_679_172">
<rect width="14" height="14" fill="white" transform="translate(0 0.173553)"/>
</clipPath>
</defs>
</svg>
