<svg width="14" height="15" viewBox="0 0 14 15" fill="none" xmlns="http://www.w3.org/2000/svg">
<g clip-path="url(#clip0_745_5311)">
<path d="M5.67647 0.173553C4.7883 0.173553 4.05882 0.928405 4.05882 1.84747V2.85681C3.6482 3.22609 2.58824 4.3645 2.58824 6.41268V7.55637C2.25287 7.83346 2 8.21767 2 8.69529C2 9.41408 2.50132 9.99487 3.15292 10.1505C3.4166 11.2324 3.85495 12.1963 4.47243 12.9039C5.14954 13.6798 6.03144 14.1736 7 14.1736C7.96856 14.1736 8.85046 13.6798 9.52757 12.9039C10.145 12.1963 10.5834 11.2324 10.8471 10.1505C11.4987 9.99487 12 9.41408 12 8.69529C12 8.21755 11.7462 7.8354 11.4118 7.55993V7.02138C11.4118 6.55642 11.3214 6.16452 11.232 5.87889C11.6262 5.64462 11.8248 5.13476 11.6186 4.68765C11.2618 3.91542 10.5467 3.38573 9.94118 2.96856V1.84747C9.94118 0.928405 9.2117 0.173553 8.32353 0.173553H5.67647ZM5.67647 1.0866H8.32353C8.73477 1.0866 9.05882 1.42192 9.05882 1.84747V3.18493C9.0589 3.28202 9.08888 3.37655 9.14442 3.4548L9.16682 3.4869C9.19798 3.53088 9.2365 3.56873 9.28056 3.59866C9.88612 4.00996 10.5912 4.58084 10.8224 5.08116C10.8285 5.09437 10.8275 5.09854 10.8051 5.10553C10.4798 5.20736 9.69286 5.34747 8.76471 5.34747C7.64338 5.34747 6.89754 5.13126 6.43876 4.9278C5.97999 4.72434 5.84134 4.56817 5.84134 4.56817C5.78897 4.51398 5.72426 4.47429 5.65317 4.45279C5.58208 4.43128 5.5069 4.42863 5.43457 4.4451C5.36223 4.46156 5.29506 4.4966 5.23926 4.54699C5.18345 4.59737 5.1408 4.66149 5.11523 4.73342C5.11523 4.73342 5.01691 5.04978 4.5247 5.44198C4.47876 5.47859 4.44024 5.52421 4.41133 5.57622C4.38243 5.62824 4.36371 5.68564 4.35624 5.74514C4.34877 5.80465 4.3527 5.86509 4.36781 5.92302C4.38291 5.98095 4.4089 6.03524 4.44428 6.08278C4.47966 6.13031 4.52374 6.17018 4.57401 6.20009C4.62428 6.23 4.67975 6.24937 4.73725 6.2571C4.79475 6.26483 4.85316 6.26076 4.90915 6.24513C4.96513 6.2295 5.01759 6.20261 5.06353 6.166C5.35225 5.93594 5.52909 5.70124 5.66843 5.49964C5.81516 5.60479 5.81475 5.64478 6.09065 5.76713C6.66129 6.0202 7.53309 6.26051 8.76471 6.26051C9.40927 6.26051 9.9303 6.19876 10.3778 6.12082C10.4498 6.33245 10.5294 6.62889 10.5294 7.02138V7.74539C10.5294 7.83174 10.553 7.91633 10.5975 7.98935C10.642 8.06237 10.7057 8.12082 10.781 8.15793C10.9831 8.25734 11.1176 8.45267 11.1176 8.69529C11.1176 9.03687 10.8595 9.30399 10.5294 9.30399C10.6073 9.30399 10.6018 9.3022 10.5116 9.3022C10.4103 9.30215 10.3121 9.33817 10.2334 9.40419C10.1548 9.47022 10.1005 9.56224 10.0796 9.66481C9.86094 10.7431 9.4225 11.6616 8.8727 12.2916C8.32291 12.9216 7.68173 13.2605 7 13.2605C6.31827 13.2605 5.6771 12.9216 5.1273 12.2916C4.5775 11.6616 4.13906 10.7431 3.92038 9.66481C3.89954 9.56224 3.84522 9.47022 3.76656 9.40419C3.6879 9.33817 3.58968 9.30215 3.4884 9.3022C3.39819 9.3022 3.39273 9.30399 3.47059 9.30399C3.14049 9.30399 2.88235 9.03687 2.88235 8.69529C2.88235 8.45071 3.01809 8.25145 3.21841 8.15317C3.29386 8.11615 3.35761 8.05773 3.40225 7.98471C3.44689 7.91168 3.47059 7.82705 3.47059 7.74064V6.41268C3.47059 4.29524 4.74759 3.44291 4.74759 3.44291C4.80724 3.40105 4.85608 3.34471 4.88983 3.2788C4.92357 3.2129 4.9412 3.13944 4.94118 3.06486V1.84747C4.94118 1.42192 5.26523 1.0866 5.67647 1.0866ZM6.99311 1.68875C6.8762 1.69064 6.7648 1.74047 6.68337 1.8273C6.60194 1.91412 6.55715 2.03084 6.55882 2.15181V2.60834H5.97059C5.91213 2.60748 5.85408 2.61866 5.79983 2.64122C5.74558 2.66377 5.69621 2.69726 5.65457 2.73974C5.61294 2.78222 5.57988 2.83283 5.55731 2.88865C5.53475 2.94446 5.52313 3.00436 5.52313 3.06486C5.52313 3.12536 5.53475 3.18526 5.55731 3.24107C5.57988 3.29688 5.61294 3.3475 5.65457 3.38997C5.69621 3.43245 5.74558 3.46594 5.79983 3.4885C5.85408 3.51106 5.91213 3.52223 5.97059 3.52138H6.55882V3.9779C6.558 4.0384 6.5688 4.09846 6.5906 4.15459C6.6124 4.21073 6.64476 4.26183 6.68581 4.30491C6.72686 4.34799 6.77577 4.3822 6.82971 4.40555C6.88365 4.4289 6.94153 4.44092 7 4.44092C7.05847 4.44092 7.11635 4.4289 7.17029 4.40555C7.22423 4.3822 7.27314 4.34799 7.31419 4.30491C7.35524 4.26183 7.3876 4.21073 7.4094 4.15459C7.4312 4.09846 7.442 4.0384 7.44118 3.9779V3.52138H8.02941C8.08787 3.52223 8.14592 3.51106 8.20017 3.4885C8.25442 3.46594 8.30379 3.43245 8.34543 3.38997C8.38706 3.3475 8.42012 3.29688 8.44269 3.24107C8.46525 3.18526 8.47687 3.12536 8.47687 3.06486C8.47687 3.00436 8.46525 2.94446 8.44269 2.88865C8.42012 2.83283 8.38706 2.78222 8.34543 2.73974C8.30379 2.69726 8.25442 2.66377 8.20017 2.64122C8.14592 2.61866 8.08787 2.60748 8.02941 2.60834H7.44118V2.15181C7.44202 2.09071 7.43101 2.03005 7.40878 1.97344C7.38656 1.91682 7.35358 1.8654 7.31179 1.82222C7.27001 1.77903 7.22027 1.74497 7.16553 1.72204C7.11079 1.69912 7.05215 1.6878 6.99311 1.68875ZM5.52941 8.0866C5.3734 8.0866 5.22378 8.15073 5.11347 8.26488C5.00315 8.37903 4.94118 8.53386 4.94118 8.69529C4.94118 8.85673 5.00315 9.01155 5.11347 9.1257C5.22378 9.23986 5.3734 9.30399 5.52941 9.30399C5.68542 9.30399 5.83504 9.23986 5.94536 9.1257C6.05567 9.01155 6.11765 8.85673 6.11765 8.69529C6.11765 8.53386 6.05567 8.37903 5.94536 8.26488C5.83504 8.15073 5.68542 8.0866 5.52941 8.0866ZM8.47059 8.0866C8.31458 8.0866 8.16496 8.15073 8.05464 8.26488C7.94433 8.37903 7.88235 8.53386 7.88235 8.69529C7.88235 8.85673 7.94433 9.01155 8.05464 9.1257C8.16496 9.23986 8.31458 9.30399 8.47059 9.30399C8.6266 9.30399 8.77622 9.23986 8.88653 9.1257C8.99685 9.01155 9.05882 8.85673 9.05882 8.69529C9.05882 8.53386 8.99685 8.37903 8.88653 8.26488C8.77622 8.15073 8.6266 8.0866 8.47059 8.0866Z" fill="black"/>
</g>
<defs>
<clipPath id="clip0_745_5311">
<rect width="14" height="14" fill="white" transform="translate(0 0.173553)"/>
</clipPath>
</defs>
</svg>
