<svg width="14" height="16" viewBox="0 0 14 16" fill="none" xmlns="http://www.w3.org/2000/svg">
<path d="M7 0.773651C3.14022 0.773651 0 3.91388 0 7.77365C0 11.6334 3.14022 14.7737 7 14.7737C10.8598 14.7737 14 11.6334 14 7.77365C14 3.91388 10.8598 0.773651 7 0.773651ZM7 1.82365C10.2923 1.82365 12.95 4.48134 12.95 7.77365C12.95 11.066 10.2923 13.7237 7 13.7237C3.70768 13.7237 1.05 11.066 1.05 7.77365C1.05 4.48134 3.70768 1.82365 7 1.82365ZM6.8168 3.21613C6.67768 3.2183 6.54511 3.27561 6.44821 3.37546C6.35131 3.4753 6.298 3.60953 6.3 3.74865V4.15197C5.32273 4.28707 4.55 5.09881 4.55 6.11115C4.55 7.21639 5.45726 8.12365 6.5625 8.12365H7.2625C7.89673 8.12365 8.4 8.62692 8.4 9.26115C8.4 9.89538 7.89673 10.3987 7.2625 10.3987H6.475C6.06279 10.3987 5.72563 10.1199 5.62803 9.74514C5.61223 9.67677 5.58288 9.61226 5.54172 9.55542C5.50057 9.49859 5.44843 9.45058 5.38841 9.41423C5.32838 9.37789 5.26168 9.35394 5.19224 9.34381C5.1228 9.33369 5.05204 9.33758 4.98413 9.35526C4.91623 9.37295 4.85255 9.40407 4.79688 9.44678C4.7412 9.48949 4.69465 9.54293 4.65998 9.60394C4.62531 9.66494 4.60321 9.73228 4.59501 9.80197C4.5868 9.87167 4.59265 9.94229 4.61221 10.0097C4.81335 10.7819 5.49022 11.3429 6.3 11.4193V11.7987C6.29902 11.8682 6.31187 11.9373 6.33781 12.0018C6.36375 12.0664 6.40227 12.1252 6.45112 12.1747C6.49996 12.2243 6.55817 12.2636 6.62236 12.2904C6.68654 12.3173 6.75542 12.3311 6.825 12.3311C6.89458 12.3311 6.96346 12.3173 7.02764 12.2904C7.09183 12.2636 7.15004 12.2243 7.19888 12.1747C7.24773 12.1252 7.28625 12.0664 7.31219 12.0018C7.33813 11.9373 7.35098 11.8682 7.35 11.7987V11.4309C8.50955 11.3819 9.45 10.4321 9.45 9.26115C9.45 8.05928 8.46437 7.07365 7.2625 7.07365H6.5625C6.02484 7.07365 5.6 6.64881 5.6 6.11115C5.6 5.57349 6.02484 5.14865 6.5625 5.14865H6.73887C6.79523 5.15791 6.85272 5.15791 6.90908 5.14865H7.175C7.5842 5.14865 7.91975 5.42403 8.01992 5.79465C8.03791 5.86122 8.06884 5.92361 8.11094 5.97823C8.15304 6.03285 8.20548 6.07865 8.26528 6.113C8.32508 6.14735 8.39106 6.16959 8.45946 6.17844C8.52785 6.18729 8.59732 6.18257 8.66389 6.16457C8.73047 6.14657 8.79284 6.11563 8.84746 6.07352C8.90207 6.03141 8.94786 5.97895 8.9822 5.91915C9.01654 5.85934 9.03876 5.79335 9.0476 5.72496C9.05643 5.65656 9.05171 5.5871 9.03369 5.52053C8.82721 4.75653 8.15394 4.20377 7.35 4.12805V3.74865C7.35101 3.67838 7.3379 3.60863 7.31145 3.54352C7.285 3.47841 7.24576 3.41927 7.19603 3.36961C7.14631 3.31995 7.08712 3.28078 7.02198 3.25442C6.95684 3.22805 6.88706 3.21503 6.8168 3.21613Z" fill="black"/>
</svg>
