<svg width="14" height="16" viewBox="0 0 14 16" fill="none" xmlns="http://www.w3.org/2000/svg">
<path d="M7 0.835938C3.14022 0.835938 0 3.97616 0 7.83594C0 11.6957 3.14022 14.8359 7 14.8359C10.8598 14.8359 14 11.6957 14 7.83594C14 3.97616 10.8598 0.835938 7 0.835938ZM7 1.88594C10.2923 1.88594 12.95 4.54362 12.95 7.83594C12.95 11.1283 10.2923 13.7859 7 13.7859C3.70768 13.7859 1.05 11.1283 1.05 7.83594C1.05 4.54362 3.70768 1.88594 7 1.88594ZM6.8168 3.27842C6.67768 3.28059 6.54511 3.3379 6.44821 3.43774C6.35131 3.53759 6.298 3.67182 6.3 3.81094V4.21426C5.32273 4.34936 4.55 5.16109 4.55 6.17344C4.55 7.27868 5.45726 8.18594 6.5625 8.18594H7.2625C7.89673 8.18594 8.4 8.6892 8.4 9.32344C8.4 9.95767 7.89673 10.4609 7.2625 10.4609H6.475C6.06279 10.4609 5.72563 10.1821 5.62803 9.80742C5.61223 9.73905 5.58288 9.67454 5.54172 9.61771C5.50057 9.56087 5.44843 9.51286 5.38841 9.47652C5.32838 9.44017 5.26168 9.41623 5.19224 9.4061C5.1228 9.39597 5.05204 9.39987 4.98413 9.41755C4.91623 9.43524 4.85255 9.46635 4.79688 9.50906C4.7412 9.55178 4.69465 9.60522 4.65998 9.66622C4.62531 9.72723 4.60321 9.79457 4.59501 9.86426C4.5868 9.93395 4.59265 10.0046 4.61221 10.072C4.81335 10.8442 5.49022 11.4052 6.3 11.4815V11.8609C6.29902 11.9305 6.31187 11.9996 6.33781 12.0641C6.36375 12.1287 6.40227 12.1875 6.45112 12.237C6.49996 12.2865 6.55817 12.3259 6.62236 12.3527C6.68654 12.3796 6.75542 12.3934 6.825 12.3934C6.89458 12.3934 6.96346 12.3796 7.02764 12.3527C7.09183 12.3259 7.15004 12.2865 7.19888 12.237C7.24773 12.1875 7.28625 12.1287 7.31219 12.0641C7.33813 11.9996 7.35098 11.9305 7.35 11.8609V11.4932C8.50955 11.4442 9.45 10.4943 9.45 9.32344C9.45 8.12157 8.46437 7.13594 7.2625 7.13594H6.5625C6.02484 7.13594 5.6 6.7111 5.6 6.17344C5.6 5.63578 6.02484 5.21094 6.5625 5.21094H6.73887C6.79523 5.2202 6.85272 5.2202 6.90908 5.21094H7.175C7.5842 5.21094 7.91975 5.48631 8.01992 5.85693C8.03791 5.92351 8.06884 5.98589 8.11094 6.04052C8.15304 6.09514 8.20548 6.14093 8.26528 6.17529C8.32508 6.20964 8.39106 6.23187 8.45946 6.24072C8.52785 6.24957 8.59732 6.24486 8.66389 6.22686C8.73047 6.20886 8.79284 6.17792 8.84746 6.13581C8.90207 6.0937 8.94786 6.04124 8.9822 5.98143C9.01654 5.92163 9.03876 5.85564 9.0476 5.78724C9.05643 5.71885 9.05171 5.64938 9.03369 5.58281C8.82721 4.81882 8.15394 4.26605 7.35 4.19033V3.81094C7.35101 3.74067 7.3379 3.67091 7.31145 3.60581C7.285 3.5407 7.24576 3.48156 7.19603 3.4319C7.14631 3.38224 7.08712 3.34307 7.02198 3.3167C6.95684 3.29034 6.88706 3.27732 6.8168 3.27842Z" fill="black"/>
</svg>
