<svg width="14" height="15" viewBox="0 0 14 15" fill="none" xmlns="http://www.w3.org/2000/svg">
<path d="M6.99372 2.27739C6.87987 2.27905 6.77116 2.32503 6.69066 2.40556L1.00316 8.09306C0.961173 8.13337 0.927651 8.18166 0.904559 8.23509C0.881466 8.28852 0.869267 8.34602 0.868675 8.40423C0.868083 8.46243 0.879111 8.52017 0.901112 8.57406C0.923114 8.62795 0.955647 8.67691 0.996806 8.71807C1.03797 8.75923 1.08692 8.79176 1.14081 8.81376C1.1947 8.83576 1.25244 8.84679 1.31064 8.8462C1.36885 8.84561 1.42635 8.83341 1.47978 8.81031C1.53321 8.78722 1.5815 8.7537 1.62181 8.71171L6.99999 3.33354L12.3782 8.71171C12.4185 8.7537 12.4668 8.78722 12.5202 8.81031C12.5736 8.83341 12.6311 8.84561 12.6893 8.8462C12.7475 8.84679 12.8053 8.83576 12.8592 8.81376C12.9131 8.79176 12.962 8.75923 13.0032 8.71807C13.0443 8.67691 13.0769 8.62795 13.0989 8.57406C13.1209 8.52017 13.1319 8.46243 13.1313 8.40423C13.1307 8.34602 13.1185 8.28852 13.0954 8.23509C13.0723 8.18166 13.0388 8.13337 12.9968 8.09306L7.30931 2.40556C7.26795 2.36418 7.21871 2.33152 7.1645 2.3095C7.11029 2.28749 7.05222 2.27657 6.99372 2.27739ZM6.99372 5.77739C6.87987 5.77905 6.77116 5.82503 6.69066 5.90556L1.00316 11.5931C0.961173 11.6334 0.927651 11.6817 0.904559 11.7351C0.881466 11.7885 0.869267 11.846 0.868675 11.9042C0.868083 11.9624 0.879111 12.0202 0.901112 12.0741C0.923114 12.128 0.955647 12.1769 0.996806 12.2181C1.03797 12.2592 1.08692 12.2918 1.14081 12.3138C1.1947 12.3358 1.25244 12.3468 1.31064 12.3462C1.36885 12.3456 1.42635 12.3334 1.47978 12.3103C1.53321 12.2872 1.5815 12.2537 1.62181 12.2117L6.99999 6.83354L12.3782 12.2117C12.4185 12.2537 12.4668 12.2872 12.5202 12.3103C12.5736 12.3334 12.6311 12.3456 12.6893 12.3462C12.7475 12.3468 12.8053 12.3358 12.8592 12.3138C12.9131 12.2918 12.962 12.2592 13.0032 12.2181C13.0443 12.1769 13.0769 12.1279 13.0989 12.0741C13.1209 12.0202 13.1319 11.9624 13.1313 11.9042C13.1307 11.846 13.1185 11.7885 13.0954 11.7351C13.0723 11.6817 13.0388 11.6334 12.9968 11.5931L7.30931 5.90556C7.26795 5.86418 7.21871 5.83152 7.1645 5.8095C7.11029 5.78749 7.05222 5.77657 6.99372 5.77739Z" fill="black"/>
</svg>
