<svg width="14" height="15" viewBox="0 0 14 15" fill="none" xmlns="http://www.w3.org/2000/svg">
<path d="M6.99372 2.21522C6.87987 2.21688 6.77116 2.26286 6.69066 2.34339L1.00316 8.03089C0.961173 8.07121 0.927651 8.11949 0.904559 8.17292C0.881466 8.22635 0.869267 8.28386 0.868675 8.34206C0.868083 8.40027 0.879111 8.458 0.901112 8.51189C0.923114 8.56578 0.955647 8.61474 0.996806 8.6559C1.03797 8.69706 1.08692 8.72959 1.14081 8.75159C1.1947 8.77359 1.25244 8.78462 1.31064 8.78403C1.36885 8.78344 1.42635 8.77124 1.47978 8.74815C1.53321 8.72505 1.5815 8.69153 1.62181 8.64954L6.99999 3.27137L12.3782 8.64954C12.4185 8.69153 12.4668 8.72505 12.5202 8.74815C12.5736 8.77124 12.6311 8.78344 12.6893 8.78403C12.7475 8.78462 12.8053 8.77359 12.8592 8.75159C12.9131 8.72959 12.962 8.69706 13.0032 8.6559C13.0443 8.61474 13.0769 8.56578 13.0989 8.51189C13.1209 8.458 13.1319 8.40026 13.1313 8.34206C13.1307 8.28386 13.1185 8.22635 13.0954 8.17292C13.0723 8.11949 13.0388 8.07121 12.9968 8.03089L7.30931 2.34339C7.26795 2.30201 7.21871 2.26935 7.1645 2.24733C7.11029 2.22532 7.05222 2.2144 6.99372 2.21522ZM6.99372 5.71522C6.87987 5.71688 6.77116 5.76286 6.69066 5.84339L1.00316 11.5309C0.961173 11.5712 0.927651 11.6195 0.904559 11.6729C0.881466 11.7264 0.869267 11.7839 0.868675 11.8421C0.868083 11.9003 0.879111 11.958 0.901112 12.0119C0.923114 12.0658 0.955647 12.1147 0.996806 12.1559C1.03797 12.1971 1.08692 12.2296 1.14081 12.2516C1.1947 12.2736 1.25244 12.2846 1.31064 12.284C1.36885 12.2834 1.42635 12.2712 1.47978 12.2481C1.53321 12.2251 1.5815 12.1915 1.62181 12.1495L6.99999 6.77137L12.3782 12.1495C12.4185 12.1915 12.4668 12.2251 12.5202 12.2481C12.5736 12.2712 12.6311 12.2834 12.6893 12.284C12.7475 12.2846 12.8053 12.2736 12.8592 12.2516C12.9131 12.2296 12.962 12.1971 13.0032 12.1559C13.0443 12.1147 13.0769 12.0658 13.0989 12.0119C13.1209 11.958 13.1319 11.9003 13.1313 11.8421C13.1307 11.7839 13.1185 11.7264 13.0954 11.6729C13.0723 11.6195 13.0388 11.5712 12.9968 11.5309L7.30931 5.84339C7.26795 5.80201 7.21871 5.76935 7.1645 5.74733C7.11029 5.72532 7.05222 5.7144 6.99372 5.71522V5.71522Z" fill="black"/>
</svg>
