<svg width="14" height="15" viewBox="0 0 14 15" fill="none" xmlns="http://www.w3.org/2000/svg">
<g clip-path="url(#clip0_691_8414)">
<path d="M0.492241 1.77778C0.359745 1.77985 0.233489 1.83442 0.141204 1.92952C0.0489186 2.02461 -0.00184917 2.15244 5.15088e-05 2.28494V7.28496C5.15088e-05 8.29155 0.826796 9.1183 1.83339 9.1183H12.2931L9.81323 11.5981C9.76525 11.6442 9.72694 11.6994 9.70055 11.7604C9.67415 11.8215 9.66021 11.8872 9.65954 11.9537C9.65886 12.0203 9.67146 12.0863 9.69661 12.1478C9.72175 12.2094 9.75893 12.2654 9.80597 12.3124C9.85301 12.3595 9.90896 12.3966 9.97055 12.4218C10.0321 12.4469 10.0981 12.4595 10.1646 12.4589C10.2312 12.4582 10.2969 12.4442 10.3579 12.4178C10.419 12.3915 10.4742 12.3531 10.5203 12.3052L13.8536 8.97181C13.9473 8.87804 14 8.75088 14 8.6183C14 8.48571 13.9473 8.35855 13.8536 8.26478L10.5203 4.93143C10.4737 4.88344 10.4179 4.84528 10.3563 4.81923C10.2947 4.79317 10.2284 4.77974 10.1615 4.77974C10.062 4.77977 9.9648 4.80948 9.88227 4.86508C9.79974 4.92067 9.73568 4.99963 9.69828 5.09184C9.66088 5.18405 9.65184 5.28532 9.67232 5.3827C9.69279 5.48008 9.74186 5.56913 9.81323 5.63847L12.2931 8.11829H1.83339C1.36731 8.11829 1.00005 7.75103 1.00005 7.28496V2.28494C1.00101 2.21802 0.988531 2.15159 0.963342 2.08958C0.938154 2.02757 0.900774 1.97125 0.853418 1.92395C0.806061 1.87666 0.749692 1.83935 0.687652 1.81424C0.625611 1.78913 0.559161 1.77673 0.492241 1.77778Z" fill="black"/>
</g>
<defs>
<clipPath id="clip0_691_8414">
<rect width="14" height="14" fill="white" transform="translate(0 0.173553)"/>
</clipPath>
</defs>
</svg>
