<svg width="14" height="14" viewBox="0 0 14 14" fill="none" xmlns="http://www.w3.org/2000/svg">
<g clip-path="url(#clip0_1332_9910)">
<path d="M0.617023 0C0.494209 2.99638e-05 0.374197 0.0367009 0.272341 0.105321C0.170485 0.173941 0.0914175 0.271389 0.0452555 0.385198C-0.00090641 0.499006 -0.0120637 0.624 0.0132108 0.744185C0.0384853 0.86437 0.0990424 0.974282 0.187134 1.05986L11.8874 12.7601H7.61739C7.53561 12.7589 7.45442 12.774 7.37854 12.8045C7.30265 12.835 7.23359 12.8803 7.17535 12.9377C7.11711 12.9951 7.07087 13.0635 7.0393 13.139C7.00774 13.2144 6.99149 13.2954 6.99149 13.3772C6.99149 13.459 7.00774 13.5399 7.0393 13.6154C7.07087 13.6908 7.11711 13.7593 7.17535 13.8167C7.23359 13.8741 7.30265 13.9194 7.37854 13.9499C7.45442 13.9803 7.53561 13.9955 7.61739 13.9943H13.2992C13.3935 14.0072 13.4896 13.9981 13.5799 13.9677C13.6702 13.9373 13.7522 13.8864 13.8195 13.819C13.8868 13.7516 13.9376 13.6695 13.9679 13.5792C13.9982 13.4889 14.0072 13.3928 13.9942 13.2984V7.61748C13.9954 7.5357 13.9803 7.45451 13.9498 7.37863C13.9193 7.30274 13.874 7.23368 13.8166 7.17544C13.7592 7.1172 13.6907 7.07096 13.6153 7.03939C13.5399 7.00783 13.4589 6.99158 13.3771 6.99158C13.2953 6.99158 13.2143 7.00783 13.1389 7.03939C13.0635 7.07096 12.995 7.1172 12.9376 7.17544C12.8802 7.23368 12.8349 7.30274 12.8044 7.37863C12.7739 7.45451 12.7588 7.5357 12.76 7.61748V11.8874L1.05977 0.187223C1.00225 0.127986 0.933423 0.0808934 0.857373 0.0487343C0.781323 0.0165752 0.699593 3.29343e-06 0.617023 0Z" fill="black"/>
</g>
<defs>
<clipPath id="clip0_1332_9910">
<rect width="14" height="14" fill="white"/>
</clipPath>
</defs>
</svg>
