<svg width="14" height="15" viewBox="0 0 14 15" fill="none" xmlns="http://www.w3.org/2000/svg">
<g clip-path="url(#clip0_3_1284)">
<path d="M0.617027 0.173553C0.494213 0.173583 0.3742 0.210254 0.272344 0.278874C0.170489 0.347494 0.0914213 0.444943 0.0452594 0.558751C-0.000902595 0.67256 -0.0120599 0.797553 0.0132146 0.917738C0.0384892 1.03792 0.0990462 1.14784 0.187138 1.23341L11.8874 12.9336H7.61739C7.53562 12.9325 7.45443 12.9476 7.37854 12.9781C7.30266 13.0086 7.23359 13.0538 7.17535 13.1113C7.11712 13.1687 7.07087 13.2371 7.03931 13.3125C7.00774 13.388 6.99149 13.469 6.99149 13.5507C6.99149 13.6325 7.00774 13.7135 7.03931 13.7889C7.07087 13.8644 7.11712 13.9328 7.17535 13.9902C7.23359 14.0476 7.30266 14.0929 7.37854 14.1234C7.45443 14.1539 7.53562 14.169 7.61739 14.1679H13.2992C13.3935 14.1808 13.4896 14.1717 13.5799 14.1412C13.6702 14.1108 13.7522 14.0599 13.8195 13.9925C13.8868 13.9251 13.9376 13.8431 13.9679 13.7528C13.9982 13.6625 14.0072 13.5664 13.9942 13.472V7.79103C13.9954 7.70926 13.9803 7.62807 13.9498 7.55218C13.9193 7.4763 13.874 7.40723 13.8166 7.34899C13.7592 7.29075 13.6907 7.24451 13.6153 7.21295C13.5399 7.18138 13.4589 7.16513 13.3771 7.16513C13.2953 7.16513 13.2144 7.18138 13.1389 7.21295C13.0635 7.24451 12.995 7.29075 12.9376 7.34899C12.8802 7.40723 12.8349 7.4763 12.8044 7.55218C12.7739 7.62807 12.7588 7.70926 12.76 7.79103V12.061L1.05977 0.360776C1.00225 0.301539 0.933427 0.254447 0.857377 0.222288C0.781327 0.190129 0.699597 0.173557 0.617027 0.173553Z" fill="black"/>
</g>
<defs>
<clipPath id="clip0_3_1284">
<rect width="14" height="14" fill="white" transform="translate(0 0.173553)"/>
</clipPath>
</defs>
</svg>
