<svg width="14" height="15" viewBox="0 0 14 15" fill="none" xmlns="http://www.w3.org/2000/svg">
<g clip-path="url(#clip0_889_9589)">
<path d="M6.99089 0.235911C6.83631 0.238325 6.68901 0.301957 6.58134 0.412832C6.47368 0.523706 6.41445 0.672756 6.41667 0.827244V9.13626L5.0791 7.7995C5.02473 7.74354 4.95967 7.69905 4.88778 7.66867C4.8159 7.63829 4.73864 7.62264 4.66059 7.62263C4.5445 7.62266 4.43106 7.6573 4.33477 7.72213C4.23849 7.78695 4.16375 7.87901 4.12012 7.98653C4.07648 8.09404 4.06594 8.21212 4.08983 8.32566C4.11372 8.4392 4.17096 8.54303 4.25423 8.62387L6.58757 10.9558C6.69697 11.0651 6.84532 11.1265 7 11.1265C7.15468 11.1265 7.30303 11.0651 7.41244 10.9558L9.74577 8.62387C9.80175 8.57016 9.84645 8.50581 9.87724 8.43461C9.90803 8.36342 9.92429 8.28679 9.92508 8.20923C9.92587 8.13167 9.91117 8.05474 9.88183 7.98293C9.8525 7.91112 9.80912 7.84588 9.75424 7.79103C9.69936 7.73619 9.63408 7.69284 9.56223 7.66352C9.49038 7.6342 9.4134 7.61951 9.33579 7.6203C9.25818 7.62108 9.18151 7.63734 9.11027 7.66811C9.03903 7.69888 8.97465 7.74355 8.9209 7.7995L7.58333 9.13626V0.827244C7.58445 0.749215 7.56989 0.671756 7.5405 0.599456C7.51112 0.527157 7.46751 0.461489 7.41226 0.406344C7.35701 0.351199 7.29124 0.3077 7.21886 0.278424C7.14648 0.249148 7.06896 0.234692 6.99089 0.235911ZM2.13889 4.51947C0.964532 4.51947 0 5.48342 0 6.65707V12.0982C0 13.2719 0.964532 14.2358 2.13889 14.2358H11.8611C13.0355 14.2358 14 13.2719 14 12.0982V6.65707C14 5.48342 13.0355 4.51947 11.8611 4.51947H9.52778C9.45048 4.51837 9.37373 4.53265 9.302 4.56145C9.23027 4.59026 9.16498 4.63303 9.10993 4.68727C9.05489 4.74152 9.01117 4.80615 8.98134 4.87743C8.9515 4.9487 8.93614 5.02519 8.93614 5.10245C8.93614 5.17971 8.9515 5.2562 8.98134 5.32747C9.01117 5.39875 9.05489 5.46338 9.10993 5.51762C9.16498 5.57187 9.23027 5.61464 9.302 5.64344C9.37373 5.67225 9.45048 5.68652 9.52778 5.68543H11.8611C12.4049 5.68543 12.8333 6.11364 12.8333 6.65707V12.0982C12.8333 12.6417 12.4049 13.0699 11.8611 13.0699H2.13889C1.59513 13.0699 1.16667 12.6417 1.16667 12.0982V6.65707C1.16667 6.11364 1.59513 5.68543 2.13889 5.68543H4.47222C4.54952 5.68652 4.62627 5.67225 4.698 5.64344C4.76973 5.61464 4.83502 5.57187 4.89007 5.51762C4.94511 5.46338 4.98883 5.39875 5.01866 5.32747C5.0485 5.2562 5.06386 5.17971 5.06386 5.10245C5.06386 5.02519 5.0485 4.9487 5.01866 4.87743C4.98883 4.80615 4.94511 4.74152 4.89007 4.68727C4.83502 4.63303 4.76973 4.59026 4.698 4.56145C4.62627 4.53265 4.54952 4.51837 4.47222 4.51947H2.13889Z" fill="black"/>
</g>
<defs>
<clipPath id="clip0_889_9589">
<rect width="14" height="14" fill="white" transform="translate(0 0.23584)"/>
</clipPath>
</defs>
</svg>
