<svg width="14" height="15" viewBox="0 0 14 15" fill="none" xmlns="http://www.w3.org/2000/svg">
<g clip-path="url(#clip0_691_8414)">
<path d="M0.492241 1.84015C0.359745 1.84222 0.233489 1.89679 0.141204 1.99189C0.0489186 2.08698 -0.00184917 2.21481 5.15088e-05 2.34731V7.34733C5.15088e-05 8.35392 0.826796 9.18067 1.83339 9.18067H12.2931L9.81323 11.6605C9.76525 11.7066 9.72694 11.7618 9.70055 11.8228C9.67415 11.8839 9.66021 11.9496 9.65954 12.0161C9.65886 12.0826 9.67146 12.1486 9.69661 12.2102C9.72175 12.2718 9.75893 12.3277 9.80597 12.3748C9.85301 12.4218 9.90896 12.459 9.97055 12.4842C10.0321 12.5093 10.0981 12.5219 10.1646 12.5212C10.2312 12.5205 10.2969 12.5066 10.3579 12.4802C10.419 12.4538 10.4742 12.4155 10.5203 12.3675L13.8536 9.03418C13.9473 8.94041 14 8.81325 14 8.68067C14 8.54808 13.9473 8.42092 13.8536 8.32715L10.5203 4.9938C10.4737 4.94581 10.4179 4.90765 10.3563 4.8816C10.2947 4.85554 10.2284 4.84211 10.1615 4.84211C10.062 4.84214 9.9648 4.87185 9.88227 4.92745C9.79974 4.98304 9.73568 5.062 9.69828 5.15421C9.66088 5.24642 9.65184 5.34769 9.67232 5.44507C9.69279 5.54245 9.74186 5.6315 9.81323 5.70084L12.2931 8.18066H1.83339C1.36731 8.18066 1.00005 7.8134 1.00005 7.34733V2.34731C1.00101 2.28039 0.988531 2.21396 0.963342 2.15195C0.938154 2.08994 0.900774 2.03362 0.853418 1.98632C0.806061 1.93903 0.749692 1.90172 0.687652 1.87661C0.625611 1.8515 0.559161 1.8391 0.492241 1.84015Z" fill="black"/>
</g>
<defs>
<clipPath id="clip0_691_8414">
<rect width="14" height="14" fill="white" transform="translate(0 0.23584)"/>
</clipPath>
</defs>
</svg>
