<svg width="14" height="15" viewBox="0 0 14 15" fill="none" xmlns="http://www.w3.org/2000/svg">
<path d="M11.2 9.83167C11.2 10.203 11.3475 10.5591 11.6101 10.8216C11.8726 11.0842 12.2287 11.2317 12.6 11.2317C12.9713 11.2317 13.3274 11.0842 13.5899 10.8216C13.8525 10.5591 14 10.203 14 9.83167C14 9.46037 13.8525 9.10427 13.5899 8.84172C13.3274 8.57917 12.9713 8.43167 12.6 8.43167C12.2287 8.43167 11.8726 8.57917 11.6101 8.84172C11.3475 9.10427 11.2 9.46037 11.2 9.83167ZM5.6 9.83167C5.6 10.203 5.7475 10.5591 6.01005 10.8216C6.2726 11.0842 6.6287 11.2317 7 11.2317C7.3713 11.2317 7.7274 11.0842 7.98995 10.8216C8.2525 10.5591 8.4 10.203 8.4 9.83167C8.4 9.46037 8.2525 9.10427 7.98995 8.84172C7.7274 8.57917 7.3713 8.43167 7 8.43167C6.6287 8.43167 6.2726 8.57917 6.01005 8.84172C5.7475 9.10427 5.6 9.46037 5.6 9.83167ZM0 9.83167C0 10.203 0.147499 10.5591 0.41005 10.8216C0.672601 11.0842 1.0287 11.2317 1.4 11.2317C1.7713 11.2317 2.1274 11.0842 2.38995 10.8216C2.6525 10.5591 2.8 10.203 2.8 9.83167C2.8 9.46037 2.6525 9.10427 2.38995 8.84172C2.1274 8.57917 1.7713 8.43167 1.4 8.43167C1.0287 8.43167 0.672601 8.57917 0.41005 8.84172C0.147499 9.10427 0 9.46037 0 9.83167Z" fill="black"/>
<path d="M11.2 4.69834C11.2 5.06964 11.3475 5.42574 11.6101 5.68829C11.8726 5.95084 12.2287 6.09834 12.6 6.09834C12.9713 6.09834 13.3274 5.95084 13.5899 5.68829C13.8525 5.42574 14 5.06964 14 4.69834C14 4.32704 13.8525 3.97094 13.5899 3.70839C13.3274 3.44584 12.9713 3.29834 12.6 3.29834C12.2287 3.29834 11.8726 3.44584 11.6101 3.70839C11.3475 3.97094 11.2 4.32704 11.2 4.69834ZM5.6 4.69834C5.6 5.06964 5.7475 5.42574 6.01005 5.68829C6.2726 5.95084 6.6287 6.09834 7 6.09834C7.3713 6.09834 7.7274 5.95084 7.98995 5.68829C8.2525 5.42574 8.4 5.06964 8.4 4.69834C8.4 4.32704 8.2525 3.97094 7.98995 3.70839C7.7274 3.44584 7.3713 3.29834 7 3.29834C6.6287 3.29834 6.2726 3.44584 6.01005 3.70839C5.7475 3.97094 5.6 4.32704 5.6 4.69834ZM0 4.69834C0 5.06964 0.147499 5.42574 0.41005 5.68829C0.672601 5.95084 1.0287 6.09834 1.4 6.09834C1.7713 6.09834 2.1274 5.95084 2.38995 5.68829C2.6525 5.42574 2.8 5.06964 2.8 4.69834C2.8 4.32704 2.6525 3.97094 2.38995 3.70839C2.1274 3.44584 1.7713 3.29834 1.4 3.29834C1.0287 3.29834 0.672601 3.44584 0.41005 3.70839C0.147499 3.97094 0 4.32704 0 4.69834Z" fill="black"/>
</svg>
