<svg width="14" height="15" viewBox="0 0 14 15" fill="none" xmlns="http://www.w3.org/2000/svg">
<g clip-path="url(#clip0_1543_9904)">
<path d="M7.00002 0.465218C3.73158 0.465218 1.85422 1.40095 0.857082 2.23381C0.151047 2.82307 -0.151068 3.76556 0.0725575 4.66051L0.229052 5.28581C0.471723 6.25696 1.42095 6.88979 2.40973 6.74005L3.91044 6.51521C4.55612 6.41839 5.07962 5.92678 5.21639 5.28854L5.51229 3.90742C5.52661 3.84061 5.57207 3.79526 5.62505 3.77894C5.8588 3.70903 6.30087 3.61425 7.00002 3.61425C7.69951 3.61425 8.14263 3.70924 8.37498 3.77894C8.42827 3.7953 8.47322 3.84024 8.48774 3.9081L8.78365 5.28854C8.92037 5.92708 9.44464 6.41847 10.0903 6.51521L11.591 6.74005C11.6891 6.75474 11.7871 6.76191 11.8842 6.76191C12.7649 6.76142 13.5526 6.15968 13.771 5.28581L13.9275 4.65983C14.1512 3.76499 13.8484 2.82295 13.143 2.23381C12.1459 1.40088 10.2689 0.465218 7.00002 0.465218ZM7.00002 1.51489C10.0712 1.51489 11.6691 2.37002 12.4705 3.03952C12.8728 3.37551 13.0389 3.88619 12.9092 4.40492L12.7527 5.0309C12.6492 5.4451 12.2936 5.71172 11.8842 5.71224C11.8385 5.71224 11.7929 5.70898 11.7461 5.70199L10.2454 5.47715C10.0177 5.44304 9.85811 5.29278 9.81009 5.06849L9.51418 3.68874V3.68806C9.42155 3.25624 9.10252 2.90098 8.67636 2.773C8.34189 2.67266 7.79456 2.56457 7.00002 2.56457C6.20547 2.56457 5.65824 2.67288 5.32368 2.773H5.32299V2.77369C4.89771 2.90177 4.57852 3.25492 4.48585 3.68737L4.18994 5.06849C4.14197 5.29239 3.98158 5.44312 3.75463 5.47715L2.25323 5.70199L2.25255 5.70267C1.78581 5.77333 1.36221 5.4908 1.24729 5.0309L1.0908 4.40561C0.961033 3.88629 1.12711 3.37539 1.52953 3.03952C2.33093 2.37002 3.92882 1.51489 7.00002 1.51489ZM6.99523 5.70609C6.85616 5.70826 6.72363 5.76555 6.62676 5.86536C6.52989 5.96518 6.4766 6.09936 6.47859 6.23844V11.9693L5.10021 10.5909C5.05185 10.5405 4.99392 10.5003 4.92983 10.4726C4.86573 10.4449 4.79675 10.4303 4.72692 10.4296C4.6571 10.4289 4.58783 10.4421 4.52319 10.4685C4.45854 10.4949 4.39981 10.5339 4.35043 10.5833C4.30106 10.6327 4.26203 10.6914 4.23564 10.756C4.20924 10.8207 4.19601 10.89 4.19672 10.9598C4.19743 11.0296 4.21207 11.0986 4.23977 11.1627C4.26747 11.2268 4.30769 11.2847 4.35806 11.3331L6.63236 13.6074C6.73079 13.7058 6.86426 13.761 7.00343 13.761C7.14261 13.761 7.27608 13.7058 7.37451 13.6074L9.64881 11.3331C9.69918 11.2847 9.73939 11.2268 9.7671 11.1627C9.7948 11.0986 9.80943 11.0296 9.81014 10.9598C9.81085 10.89 9.79762 10.8207 9.77123 10.756C9.74484 10.6914 9.70581 10.6327 9.65643 10.5833C9.60706 10.5339 9.54833 10.4949 9.48368 10.4685C9.41903 10.4421 9.34977 10.4289 9.27994 10.4296C9.21012 10.4303 9.14114 10.4449 9.07704 10.4726C9.01294 10.5003 8.95502 10.5405 8.90666 10.5909L7.52827 11.9693V6.23844C7.52928 6.1682 7.51618 6.09846 7.48974 6.03337C7.4633 5.96828 7.42406 5.90917 7.37435 5.85952C7.32464 5.80988 7.26547 5.77072 7.20035 5.74436C7.13523 5.718 7.06548 5.70499 6.99523 5.70609Z" fill="black"/>
</g>
<defs>
<clipPath id="clip0_1543_9904">
<rect width="14" height="14" fill="white" transform="translate(0 0.173553)"/>
</clipPath>
</defs>
</svg>
