<svg width="14" height="15" viewBox="0 0 14 15" fill="none" xmlns="http://www.w3.org/2000/svg">
<path d="M13.4921 1.83624C13.3596 1.83831 13.2334 1.89289 13.1411 1.98798C13.0488 2.08307 12.998 2.21091 12.9999 2.34341V7.34342C12.9999 7.8095 12.6327 8.17676 12.1666 8.17676H1.70694L4.18677 5.69693C4.2589 5.62668 4.30814 5.53629 4.32806 5.43759C4.34797 5.33888 4.33762 5.23647 4.29836 5.14375C4.25911 5.05102 4.19277 4.97231 4.10804 4.91791C4.02331 4.86351 3.92413 4.83596 3.82348 4.83886C3.69363 4.84264 3.57035 4.89681 3.47973 4.9899L0.146389 8.32324C0.0526555 8.41701 0 8.54417 0 8.67676C0 8.80935 0.0526555 8.9365 0.146389 9.03028L3.47973 12.3636C3.52581 12.4116 3.58099 12.4499 3.64205 12.4763C3.70312 12.5027 3.76883 12.5166 3.83535 12.5173C3.90187 12.518 3.96786 12.5054 4.02945 12.4802C4.09104 12.4551 4.14699 12.4179 4.19403 12.3709C4.24107 12.3238 4.27825 12.2679 4.30339 12.2063C4.32854 12.1447 4.34114 12.0787 4.34046 12.0122C4.33979 11.9457 4.32584 11.88 4.29945 11.8189C4.27306 11.7578 4.23475 11.7027 4.18677 11.6566L1.70694 9.17676H12.1666C13.1732 9.17676 13.9999 8.35002 13.9999 7.34342V2.34341C14.0009 2.27648 13.9884 2.21005 13.9632 2.14804C13.938 2.08603 13.9007 2.02971 13.8533 1.98242C13.806 1.93512 13.7496 1.89781 13.6875 1.8727C13.6255 1.8476 13.5591 1.8352 13.4921 1.83624Z" fill="black"/>
</svg>
