<svg width="14" height="15" viewBox="0 0 14 15" fill="none" xmlns="http://www.w3.org/2000/svg">
<path d="M13.4921 1.68694C13.3596 1.68901 13.2334 1.74358 13.1411 1.83868C13.0488 1.93377 12.998 2.0616 12.9999 2.1941V7.19412C12.9999 7.66019 12.6327 8.02745 12.1666 8.02745H1.70694L4.18677 5.54763C4.2589 5.47737 4.30814 5.38698 4.32806 5.28828C4.34797 5.18958 4.33762 5.08716 4.29836 4.99444C4.25911 4.90172 4.19277 4.82301 4.10804 4.76861C4.02331 4.71421 3.92413 4.68665 3.82348 4.68955C3.69363 4.69334 3.57035 4.74751 3.47973 4.84059L0.146389 8.17394C0.0526555 8.26771 0 8.39487 0 8.52745C0 8.66004 0.0526555 8.7872 0.146389 8.88097L3.47973 12.2143C3.52581 12.2623 3.58099 12.3006 3.64205 12.327C3.70312 12.3534 3.76883 12.3673 3.83535 12.368C3.90187 12.3687 3.96786 12.3561 4.02945 12.3309C4.09104 12.3058 4.14699 12.2686 4.19403 12.2216C4.24107 12.1745 4.27825 12.1186 4.30339 12.057C4.32854 11.9954 4.34114 11.9294 4.34046 11.8629C4.33979 11.7964 4.32584 11.7307 4.29945 11.6696C4.27306 11.6085 4.23475 11.5534 4.18677 11.5073L1.70694 9.02746H12.1666C13.1732 9.02746 13.9999 8.20071 13.9999 7.19412V2.1941C14.0009 2.12718 13.9884 2.06074 13.9632 1.99874C13.938 1.93673 13.9007 1.88041 13.8533 1.83311C13.806 1.78582 13.7496 1.74851 13.6875 1.7234C13.6255 1.69829 13.5591 1.68589 13.4921 1.68694Z" fill="black"/>
</svg>
