<svg width="14" height="15" viewBox="0 0 14 15" fill="none" xmlns="http://www.w3.org/2000/svg">
<g clip-path="url(#clip0_967_10032)">
<path d="M0.625658 4.1734C0.543915 4.17225 0.462757 4.18735 0.386902 4.21783C0.311046 4.24831 0.242005 4.29357 0.183791 4.35096C0.125577 4.40836 0.0793511 4.47675 0.0477995 4.55217C0.016248 4.62759 0 4.70852 0 4.79027C0 4.87202 0.016248 4.95296 0.0477995 5.02838C0.0793511 5.10379 0.125577 5.17219 0.183791 5.22958C0.242005 5.28698 0.311046 5.33224 0.386902 5.36272C0.462757 5.3932 0.543915 5.4083 0.625658 5.40715H13.3743C13.4561 5.4083 13.5372 5.3932 13.6131 5.36272C13.689 5.33224 13.758 5.28698 13.8162 5.22958C13.8744 5.17219 13.9206 5.10379 13.9522 5.02838C13.9838 4.95296 14 4.87202 14 4.79027C14 4.70852 13.9838 4.62759 13.9522 4.55217C13.9206 4.47675 13.8744 4.40836 13.8162 4.35096C13.758 4.29357 13.689 4.24831 13.6131 4.21783C13.5372 4.18735 13.4561 4.17225 13.3743 4.1734H0.625658ZM0.625658 9.10838C0.543915 9.10722 0.462757 9.12232 0.386902 9.1528C0.311046 9.18329 0.242005 9.22854 0.183791 9.28594C0.125577 9.34333 0.0793511 9.41173 0.0477995 9.48714C0.016248 9.56256 0 9.6435 0 9.72525C0 9.807 0.016248 9.88794 0.0477995 9.96335C0.0793511 10.0388 0.125577 10.1072 0.183791 10.1646C0.242005 10.222 0.311046 10.2672 0.386902 10.2977C0.462757 10.3282 0.543915 10.3433 0.625658 10.3421H13.3743C13.4561 10.3433 13.5372 10.3282 13.6131 10.2977C13.689 10.2672 13.758 10.222 13.8162 10.1646C13.8744 10.1072 13.9206 10.0388 13.9522 9.96335C13.9838 9.88794 14 9.807 14 9.72525C14 9.6435 13.9838 9.56256 13.9522 9.48714C13.9206 9.41173 13.8744 9.34333 13.8162 9.28594C13.758 9.22854 13.689 9.18329 13.6131 9.1528C13.5372 9.12232 13.4561 9.10722 13.3743 9.10838H0.625658Z" fill="black"/>
</g>
<defs>
<clipPath id="clip0_967_10032">
<rect width="14" height="14" fill="white" transform="translate(0 0.23584)"/>
</clipPath>
</defs>
</svg>
