<svg width="14" height="16" viewBox="0 0 14 16" fill="none" xmlns="http://www.w3.org/2000/svg">
<path d="M2.13889 0.83606C0.964532 0.83606 0 1.80059 0 2.97495V12.6972C0 13.8715 0.964532 14.8361 2.13889 14.8361H9.13889C10.3132 14.8361 11.2778 13.8715 11.2778 12.6972C11.2789 12.6199 11.2646 12.5431 11.2358 12.4714C11.2069 12.3997 11.1641 12.3344 11.1099 12.2793C11.0556 12.2243 10.9909 12.1806 10.9196 12.1507C10.8483 12.1209 10.7718 12.1055 10.6944 12.1055C10.6171 12.1055 10.5406 12.1209 10.4693 12.1507C10.398 12.1806 10.3333 12.2243 10.279 12.2793C10.2247 12.3344 10.1819 12.3997 10.1531 12.4714C10.1243 12.5431 10.11 12.6199 10.1111 12.6972C10.1111 13.2409 9.68264 13.6694 9.13889 13.6694H2.13889C1.59513 13.6694 1.16667 13.2409 1.16667 12.6972V2.97495C1.16667 2.43119 1.59513 2.00273 2.13889 2.00273H9.13889C9.68264 2.00273 10.1111 2.43119 10.1111 2.97495C10.11 3.05225 10.1243 3.12899 10.1531 3.20072C10.1819 3.27245 10.2247 3.33774 10.279 3.39279C10.3333 3.44784 10.398 3.49155 10.4693 3.52139C10.5406 3.55123 10.6171 3.56659 10.6944 3.56659C10.7718 3.56659 10.8483 3.55123 10.9196 3.52139C10.9909 3.49155 11.0556 3.44784 11.1099 3.39279C11.1641 3.33774 11.2069 3.27245 11.2358 3.20072C11.2646 3.12899 11.2789 3.05225 11.2778 2.97495C11.2778 1.80059 10.3132 0.83606 9.13889 0.83606H2.13889ZM10.6884 4.52443C10.5723 4.52446 10.4588 4.55912 10.3626 4.62398C10.2663 4.68885 10.1915 4.78096 10.1479 4.88854C10.1043 4.99612 10.0937 5.11427 10.1176 5.22788C10.1415 5.34149 10.1987 5.44538 10.282 5.52627L12.0085 7.25273H3.69444C3.61715 7.25163 3.5404 7.26591 3.46867 7.29474C3.39694 7.32356 3.33165 7.36636 3.2766 7.42063C3.22155 7.47491 3.17784 7.53958 3.148 7.6109C3.11817 7.68222 3.1028 7.75875 3.1028 7.83606C3.1028 7.91337 3.11817 7.9899 3.148 8.06122C3.17784 8.13253 3.22155 8.19721 3.2766 8.25149C3.33165 8.30576 3.39694 8.34856 3.46867 8.37738C3.5404 8.40621 3.61715 8.42049 3.69444 8.41939H12.0085L10.282 10.1458C10.226 10.1996 10.1813 10.264 10.1505 10.3352C10.1198 10.4065 10.1035 10.4831 10.1027 10.5607C10.1019 10.6383 10.1166 10.7153 10.1459 10.7872C10.1753 10.859 10.2187 10.9243 10.2735 10.9792C10.3284 11.0341 10.3937 11.0774 10.4655 11.1068C10.5374 11.1361 10.6144 11.1508 10.692 11.15C10.7696 11.1492 10.8463 11.133 10.9175 11.1022C10.9887 11.0714 11.0531 11.0267 11.1069 10.9707L13.8291 8.24849C13.9385 8.13909 13.9999 7.99074 13.9999 7.83606C13.9999 7.68138 13.9385 7.53302 13.8291 7.42362L11.1069 4.7014C11.0525 4.64541 10.9874 4.60089 10.9156 4.57049C10.8437 4.5401 10.7664 4.52443 10.6884 4.52443Z" fill="black"/>
</svg>
