<svg width="14" height="16" viewBox="0 0 14 16" fill="none" xmlns="http://www.w3.org/2000/svg">
<path d="M2.13889 0.773533C0.964532 0.773533 0 1.73807 0 2.91242V12.6346C0 13.809 0.964532 14.7735 2.13889 14.7735H9.13889C10.3132 14.7735 11.2778 13.809 11.2778 12.6346C11.2789 12.5573 11.2646 12.4806 11.2358 12.4089C11.2069 12.3371 11.1641 12.2719 11.1099 12.2168C11.0556 12.1618 10.9909 12.118 10.9196 12.0882C10.8483 12.0584 10.7718 12.043 10.6944 12.043C10.6171 12.043 10.5406 12.0584 10.4693 12.0882C10.398 12.118 10.3333 12.1618 10.279 12.2168C10.2247 12.2719 10.1819 12.3371 10.1531 12.4089C10.1243 12.4806 10.11 12.5573 10.1111 12.6346C10.1111 13.1784 9.68264 13.6069 9.13889 13.6069H2.13889C1.59513 13.6069 1.16667 13.1784 1.16667 12.6346V2.91242C1.16667 2.36867 1.59513 1.9402 2.13889 1.9402H9.13889C9.68264 1.9402 10.1111 2.36867 10.1111 2.91242C10.11 2.98972 10.1243 3.06647 10.1531 3.1382C10.1819 3.20993 10.2247 3.27522 10.279 3.33026C10.3333 3.38531 10.398 3.42903 10.4693 3.45886C10.5406 3.4887 10.6171 3.50406 10.6944 3.50406C10.7718 3.50406 10.8483 3.4887 10.9196 3.45886C10.9909 3.42903 11.0556 3.38531 11.1099 3.33026C11.1641 3.27522 11.2069 3.20993 11.2358 3.1382C11.2646 3.06647 11.2789 2.98972 11.2778 2.91242C11.2778 1.73807 10.3132 0.773533 9.13889 0.773533H2.13889ZM10.6884 4.4619C10.5723 4.46193 10.4588 4.49659 10.3626 4.56146C10.2663 4.62632 10.1915 4.71843 10.1479 4.82601C10.1043 4.93359 10.0937 5.05175 10.1176 5.16535C10.1415 5.27896 10.1987 5.38285 10.282 5.46375L12.0085 7.1902H3.69444C3.61715 7.18911 3.5404 7.20339 3.46867 7.23221C3.39694 7.26104 3.33165 7.30383 3.2766 7.35811C3.22155 7.41238 3.17784 7.47706 3.148 7.54837C3.11817 7.61969 3.1028 7.69623 3.1028 7.77353C3.1028 7.85084 3.11817 7.92737 3.148 7.99869C3.17784 8.07001 3.22155 8.13468 3.2766 8.18896C3.33165 8.24324 3.39694 8.28603 3.46867 8.31485C3.5404 8.34368 3.61715 8.35796 3.69444 8.35687H12.0085L10.282 10.0833C10.226 10.1371 10.1813 10.2015 10.1505 10.2727C10.1198 10.3439 10.1035 10.4206 10.1027 10.4982C10.1019 10.5758 10.1166 10.6528 10.1459 10.7247C10.1753 10.7965 10.2187 10.8618 10.2735 10.9167C10.3284 10.9715 10.3937 11.0149 10.4655 11.0443C10.5374 11.0736 10.6144 11.0883 10.692 11.0875C10.7696 11.0867 10.8463 11.0704 10.9175 11.0397C10.9887 11.0089 11.0531 10.9642 11.1069 10.9082L13.8291 8.18597C13.9385 8.07657 13.9999 7.92822 13.9999 7.77353C13.9999 7.61885 13.9385 7.4705 13.8291 7.3611L11.1069 4.63888C11.0525 4.58288 10.9874 4.53837 10.9156 4.50797C10.8437 4.47757 10.7664 4.4619 10.6884 4.4619V4.4619Z" fill="black"/>
</svg>
