<svg width="14" height="15" viewBox="0 0 14 15" fill="none" xmlns="http://www.w3.org/2000/svg">
<g clip-path="url(#clip0_1871_10163)">
<path d="M2.45949 0C1.65482 0 1 0.673 1 1.5V11.8333C1 12.6603 1.65482 13.3333 2.45949 13.3333H9.12473L8.46784 12.6582C8.37475 12.5625 8.3038 12.4517 8.24866 12.3333H2.45949C2.19127 12.3333 1.97299 12.109 1.97299 11.8333V1.5C1.97299 1.22433 2.19127 1 2.45949 1H6.18929V3.83333C6.18929 4.66033 6.84411 5.33333 7.64877 5.33333H10.4056V7.45052C10.5535 7.37785 10.7173 7.33333 10.8921 7.33333C11.0669 7.33333 11.2307 7.37785 11.3786 7.45052V4.83333C11.3786 4.69517 11.3241 4.57028 11.236 4.47982L7.01975 0.146484C6.9317 0.056026 6.81006 0 6.67578 0H2.45949ZM7.16228 1.70703L9.71765 4.33333H7.64877C7.38055 4.33333 7.16228 4.109 7.16228 3.83333V1.70703ZM5.70279 5.66667C5.25876 5.66667 4.89197 6.04365 4.89197 6.5C4.89197 7.08081 5.18028 7.70888 5.55773 8.31055C5.45966 8.63775 5.35319 8.95804 5.22833 9.24675C5.22532 9.24791 5.2212 9.2488 5.2182 9.25C4.39741 9.57314 3.81927 9.9447 3.51546 10.2363C3.34363 10.4018 3.27031 10.6261 3.27031 10.8333C3.27031 11.0458 3.35074 11.261 3.50786 11.4225C3.66498 11.584 3.87439 11.6667 4.08114 11.6667C4.30591 11.6667 4.49073 11.5617 4.62971 11.446C4.80027 11.3035 4.96678 11.0869 5.16372 10.7832C5.33489 10.5193 5.51745 10.1718 5.69329 9.80078C5.9738 9.70034 6.27133 9.60669 6.60104 9.53255C7.11338 9.97789 7.67417 10.3333 8.29744 10.3333C8.74146 10.3333 9.10826 9.95635 9.10826 9.5C9.10826 9.04365 8.74146 8.66667 8.29744 8.66667C7.75869 8.66667 7.26224 8.73255 6.79107 8.81901C6.68111 8.71116 6.55792 8.63985 6.45724 8.51758C6.38197 8.42616 6.34333 8.32137 6.27544 8.22461C6.4186 7.67586 6.51362 7.09494 6.51362 6.5C6.51362 6.04365 6.14682 5.66667 5.70279 5.66667ZM5.70279 6.33333C5.79585 6.33333 5.86496 6.40435 5.86496 6.5C5.86496 6.77286 5.79674 7.04036 5.75664 7.31185C5.63609 7.01041 5.54063 6.71489 5.54063 6.5C5.54063 6.40435 5.60973 6.33333 5.70279 6.33333ZM10.8921 8C10.6232 8 10.4056 8.22367 10.4056 8.5V12.293L9.61439 11.4798C9.42434 11.2845 9.11652 11.2845 8.92646 11.4798C8.7364 11.6748 8.7364 11.9918 8.92646 12.1868L10.5481 13.8535C10.6428 13.9512 10.7675 14 10.8921 14C11.0166 14 11.141 13.9512 11.236 13.8535L12.8577 12.1868C13.0474 11.9915 13.0474 11.6752 12.8577 11.4798C12.6676 11.2845 12.3598 11.2845 12.1698 11.4798L11.3786 12.293V8.5C11.3786 8.22367 11.1609 8 10.8921 8ZM6.00685 8.98958C6.0135 8.99749 6.02233 9.00254 6.02902 9.01042C6.01782 9.01362 6.00723 9.01696 5.99608 9.02018C5.99983 9.01008 6.00313 8.99973 6.00685 8.98958ZM8.29744 9.33333C8.3905 9.33333 8.4596 9.40435 8.4596 9.5C8.4596 9.59565 8.3905 9.66667 8.29744 9.66667C8.06989 9.66667 7.81231 9.54248 7.55756 9.4082C7.80552 9.38344 8.03304 9.33333 8.29744 9.33333ZM4.72347 10.2279C4.69074 10.2817 4.65489 10.3648 4.62338 10.4134C4.44675 10.6858 4.27828 10.8801 4.2205 10.9284C4.15126 10.9858 4.10532 11 4.08114 11C4.03881 11 3.99942 10.985 3.96648 10.9512C3.93355 10.9173 3.91897 10.8768 3.91897 10.8333C3.91897 10.785 3.93447 10.7465 3.95825 10.7233L3.95888 10.7227C4.07842 10.608 4.36732 10.4229 4.72347 10.2279Z" fill="black"/>
</g>
<defs>
<clipPath id="clip0_1871_10163">
<rect width="14" height="14" fill="white" transform="translate(0 0.173553)"/>
</clipPath>
</defs>
</svg>
