<svg width="14" height="15" viewBox="0 0 14 15" fill="none" xmlns="http://www.w3.org/2000/svg">
<g clip-path="url(#clip0_1949_10099)">
<path d="M7.24246 5.16858e-05C7.10584 0.00204932 6.97538 0.0572246 6.87879 0.15386L4.7788 2.25385C4.72841 2.30223 4.68819 2.36017 4.66048 2.42429C4.63277 2.48841 4.61813 2.55741 4.61742 2.62725C4.61671 2.6971 4.62994 2.76638 4.65634 2.83105C4.68274 2.89572 4.72178 2.95447 4.77117 3.00386C4.82056 3.05325 4.87931 3.09229 4.94398 3.11869C5.00865 3.14509 5.07793 3.15832 5.14778 3.15761C5.21762 3.1569 5.28662 3.14226 5.35074 3.11455C5.41486 3.08684 5.4728 3.04662 5.52118 2.99623L6.7243 1.79311L6.71815 8.92433C6.71708 8.9939 6.72984 9.06298 6.7557 9.12757C6.78156 9.19216 6.82 9.25096 6.86878 9.30057C6.91757 9.35017 6.97572 9.38959 7.03987 9.41652C7.10402 9.44345 7.17288 9.45737 7.24245 9.45746C7.31202 9.45755 7.38092 9.44381 7.44514 9.41705C7.50936 9.39028 7.56761 9.35102 7.61653 9.30154C7.66544 9.25206 7.70403 9.19336 7.73006 9.12884C7.75609 9.06432 7.76903 8.99527 7.76814 8.9257L7.77429 1.79174L8.97878 2.99623C9.02716 3.04662 9.0851 3.08684 9.14922 3.11455C9.21334 3.14226 9.28234 3.1569 9.35218 3.15761C9.42203 3.15832 9.49131 3.14509 9.55598 3.11869C9.62065 3.09229 9.6794 3.05325 9.72879 3.00386C9.77818 2.95447 9.81722 2.89572 9.84362 2.83105C9.87002 2.76638 9.88325 2.6971 9.88254 2.62725C9.88183 2.55741 9.86719 2.48841 9.83948 2.42429C9.81177 2.36017 9.77155 2.30223 9.72116 2.25385L7.62117 0.15386C7.57154 0.104205 7.51245 0.0650083 7.4474 0.0385896C7.38235 0.012171 7.31266 -0.000933374 7.24246 5.16858e-05ZM4.97841 4.07357C4.88797 4.07591 4.79966 4.10158 4.72206 4.14808C3.09895 5.04152 2 6.77133 2 8.75002C2 11.6433 4.35667 14 7.24998 14C10.1433 14 12.5 11.6433 12.5 8.75002C12.5 6.77133 11.401 5.04152 9.7779 4.14808C9.70159 4.10449 9.61557 4.08075 9.52771 4.07904C9.40982 4.07702 9.29468 4.11474 9.20084 4.18612C9.107 4.2575 9.03991 4.35839 9.01039 4.47254C8.98087 4.58669 8.99062 4.70745 9.03809 4.81538C9.08555 4.92331 9.16796 5.01212 9.27204 5.06751C10.57 5.78198 11.45 7.15942 11.45 8.75002C11.45 11.0759 9.57585 12.95 7.24998 12.95C4.92411 12.95 3.05 11.0759 3.05 8.75002C3.05 7.15942 3.92994 5.78198 5.22792 5.06751C5.33453 5.01389 5.4197 4.92555 5.46938 4.81705C5.51907 4.70855 5.53031 4.58636 5.50126 4.47061C5.4722 4.35486 5.40458 4.25247 5.30954 4.18029C5.2145 4.10812 5.09771 4.07048 4.97841 4.07357Z" fill="black"/>
</g>
<defs>
<clipPath id="clip0_1949_10099">
<rect width="14" height="14" fill="white" transform="translate(0 0.173553)"/>
</clipPath>
</defs>
</svg>
