<svg width="14" height="15" viewBox="0 0 14 15" fill="none" xmlns="http://www.w3.org/2000/svg">
<g clip-path="url(#clip0_47_4522)">
<path d="M10.5 0.173553C9.79439 0.173553 9.21053 0.757416 9.21053 1.46303V5.33145H7.73684V3.67355C7.73682 3.57354 7.70966 3.4754 7.65825 3.38961C7.60685 3.30381 7.53312 3.23357 7.44494 3.18638C7.35676 3.13919 7.25742 3.11681 7.15752 3.12163C7.05762 3.12645 6.9609 3.15828 6.87767 3.21375L4.42105 4.85149V3.67355C4.42103 3.57354 4.39387 3.4754 4.34246 3.38961C4.29106 3.30381 4.21733 3.23357 4.12915 3.18638C4.04097 3.13919 3.94163 3.11681 3.84173 3.12163C3.74183 3.12645 3.64511 3.15828 3.56188 3.21375L0.5735 5.20696C0.216227 5.44533 0.000795668 5.84748 4.68365e-07 6.27697V6.27841V12.8841C4.68365e-07 13.5897 0.583863 14.1736 1.28947 14.1736H12.7105C13.4161 14.1736 14 13.5897 14 12.8841V1.46303C14 0.757416 13.4161 0.173553 12.7105 0.173553H10.5ZM10.5 1.27882H12.7105C12.8188 1.27882 12.8947 1.35474 12.8947 1.46303V12.8841C12.8947 12.9924 12.8188 13.0683 12.7105 13.0683H1.28947C1.18119 13.0683 1.10526 12.9924 1.10526 12.8841V6.27912V6.27841C1.1056 6.21659 1.13584 6.16091 1.18729 6.12658L3.31579 4.70686V5.88408C3.31581 5.9841 3.34297 6.08223 3.39438 6.16803C3.44578 6.25382 3.51951 6.32406 3.60769 6.37125C3.69587 6.41845 3.79521 6.44082 3.89511 6.43601C3.99501 6.43119 4.09173 6.39935 4.17496 6.34389L6.63158 4.70614V5.88408C6.63159 6.03064 6.68982 6.1712 6.79346 6.27483C6.89709 6.37847 7.03765 6.4367 7.18421 6.43671H9.76316C9.90972 6.4367 10.0503 6.37847 10.1539 6.27483C10.2575 6.1712 10.3158 6.03064 10.3158 5.88408V1.46303C10.3158 1.35474 10.3917 1.27882 10.5 1.27882ZM2.94737 7.54197C2.74326 7.54197 2.57895 7.70629 2.57895 7.9104V8.64724C2.57895 8.85134 2.74326 9.01566 2.94737 9.01566H3.68421C3.88832 9.01566 4.05263 8.85134 4.05263 8.64724V7.9104C4.05263 7.70629 3.88832 7.54197 3.68421 7.54197H2.94737ZM6.63158 7.54197C6.42747 7.54197 6.26316 7.70629 6.26316 7.9104V8.64724C6.26316 8.85134 6.42747 9.01566 6.63158 9.01566H7.36842C7.57253 9.01566 7.73684 8.85134 7.73684 8.64724V7.9104C7.73684 7.70629 7.57253 7.54197 7.36842 7.54197H6.63158ZM10.3158 7.54197C10.1117 7.54197 9.94737 7.70629 9.94737 7.9104V8.64724C9.94737 8.85134 10.1117 9.01566 10.3158 9.01566H11.0526C11.2567 9.01566 11.4211 8.85134 11.4211 8.64724V7.9104C11.4211 7.70629 11.2567 7.54197 11.0526 7.54197H10.3158ZM2.94737 10.4893C2.74326 10.4893 2.57895 10.6537 2.57895 10.8578V11.5946C2.57895 11.7987 2.74326 11.963 2.94737 11.963H3.68421C3.88832 11.963 4.05263 11.7987 4.05263 11.5946V10.8578C4.05263 10.6537 3.88832 10.4893 3.68421 10.4893H2.94737ZM6.63158 10.4893C6.42747 10.4893 6.26316 10.6537 6.26316 10.8578V11.5946C6.26316 11.7987 6.42747 11.963 6.63158 11.963H7.36842C7.57253 11.963 7.73684 11.7987 7.73684 11.5946V10.8578C7.73684 10.6537 7.57253 10.4893 7.36842 10.4893H6.63158ZM10.3158 10.4893C10.1117 10.4893 9.94737 10.6537 9.94737 10.8578V11.5946C9.94737 11.7987 10.1117 11.963 10.3158 11.963H11.0526C11.2567 11.963 11.4211 11.7987 11.4211 11.5946V10.8578C11.4211 10.6537 11.2567 10.4893 11.0526 10.4893H10.3158Z" fill="black"/>
</g>
<defs>
<clipPath id="clip0_47_4522">
<rect width="14" height="14" fill="white" transform="translate(0 0.173553)"/>
</clipPath>
</defs>
</svg>
