<svg width="14" height="16" viewBox="0 0 14 16" fill="none" xmlns="http://www.w3.org/2000/svg">
<path d="M5.33408 0.836092C5.18821 0.839536 5.04963 0.900552 4.9486 1.00582L3.86625 2.08816L2.7839 1.00582C2.73242 0.952798 2.67082 0.91065 2.60276 0.881867C2.53469 0.853084 2.46154 0.838252 2.38764 0.838249C2.27772 0.838276 2.17031 0.871097 2.07915 0.932512C1.98798 0.993928 1.91722 1.08115 1.8759 1.18301C1.83459 1.28487 1.8246 1.39674 1.84722 1.5043C1.86984 1.61187 1.92404 1.71024 2.00289 1.78683L3.47574 3.25969C3.57933 3.36323 3.71979 3.4214 3.86625 3.4214C4.01271 3.4214 4.15318 3.36323 4.25676 3.25969L5.72962 1.78683C5.80994 1.70974 5.86509 1.61019 5.88784 1.50121C5.91059 1.39223 5.89989 1.27892 5.85712 1.17614C5.81436 1.07335 5.74154 0.985883 5.6482 0.925203C5.55486 0.864523 5.44537 0.833462 5.33408 0.836092ZM9.38156 0.844003C9.23783 0.846104 9.10058 0.904151 8.99896 1.00582L7.5261 2.47867C7.4731 2.52957 7.43078 2.59053 7.40162 2.65798C7.37247 2.72543 7.35707 2.79803 7.35632 2.87151C7.35558 2.94499 7.3695 3.01788 7.39727 3.08591C7.42505 3.15394 7.46612 3.21575 7.51808 3.26771C7.57004 3.31967 7.63185 3.36075 7.69988 3.38852C7.76791 3.4163 7.84081 3.43022 7.91429 3.42947C7.98777 3.42872 8.06036 3.41332 8.12781 3.38417C8.19527 3.35502 8.25623 3.3127 8.30712 3.25969L9.38947 2.17734L10.4718 3.25969C10.5227 3.3127 10.5837 3.35502 10.6511 3.38417C10.7186 3.41332 10.7912 3.42872 10.8647 3.42947C10.9381 3.43022 11.011 3.4163 11.0791 3.38852C11.1471 3.36075 11.2089 3.31967 11.2609 3.26771C11.3128 3.21575 11.3539 3.15394 11.3817 3.08591C11.4094 3.01788 11.4234 2.94499 11.4226 2.87151C11.4219 2.79803 11.4065 2.72543 11.3773 2.65798C11.3482 2.59053 11.3058 2.52957 11.2528 2.47867L9.77998 1.00582C9.72776 0.953576 9.6656 0.91234 9.59716 0.884546C9.52873 0.856753 9.45541 0.842966 9.38156 0.844003ZM0.920536 4.15793C0.418441 4.15793 0 4.57637 0 5.07847V5.47976C0 6.32542 0.388642 7.12531 1.05286 7.64878L4.78679 10.5909V14.2838C4.78684 14.3853 4.81482 14.4847 4.86765 14.5713C4.92049 14.6579 4.99615 14.7282 5.08633 14.7747C5.17651 14.8211 5.27773 14.8418 5.3789 14.8345C5.48007 14.8272 5.57727 14.7922 5.65986 14.7333L8.23736 12.8922C8.30895 12.8412 8.36732 12.7737 8.4076 12.6955C8.44787 12.6174 8.4689 12.5307 8.46893 12.4428V10.5902L12.2029 7.64878C12.8671 7.12531 13.2557 6.32542 13.2557 5.47976V5.07847C13.2557 4.57637 12.8373 4.15793 12.3352 4.15793H0.920536ZM1.10464 5.26258H12.1511V5.47976C12.1511 5.98766 11.9188 6.46615 11.5196 6.78074L7.83822 9.68115H5.4175L1.73607 6.78074C1.33689 6.46615 1.10464 5.98766 1.10464 5.47976V5.26258ZM5.89143 10.7858H7.36429V12.1587L5.89143 13.2108V10.7858Z" fill="black"/>
</svg>
