<svg width="14" height="15" viewBox="0 0 14 15" fill="none" xmlns="http://www.w3.org/2000/svg">
<path d="M0.972238 0.599976C0.441943 0.599976 0 1.04192 0 1.57221V2.77384C0 3.667 0.41047 4.51181 1.112 5.06467C1.11276 5.06518 1.11352 5.06569 1.11428 5.06619L5.05564 8.14166V14.0169C5.05569 14.124 5.08524 14.229 5.14104 14.3205C5.19685 14.4119 5.27675 14.4862 5.372 14.5353C5.46725 14.5843 5.57415 14.6062 5.681 14.5985C5.78785 14.5908 5.89052 14.5538 5.97774 14.4916L8.70001 12.5471C8.77563 12.4932 8.83727 12.4219 8.87981 12.3394C8.92235 12.2568 8.94456 12.1653 8.94459 12.0724V8.14166L12.886 5.06619C12.8867 5.06569 12.8875 5.06518 12.8882 5.06467C13.5897 4.51181 14.0002 3.667 14.0002 2.77384V1.57221C14.0002 1.04192 13.5583 0.599976 13.028 0.599976H0.972238ZM1.16669 1.76666H12.8335V2.77384C12.8335 3.31026 12.5882 3.81562 12.1666 4.14788L8.00273 7.39653C7.93271 7.45109 7.87606 7.52091 7.8371 7.60068C7.79813 7.68044 7.77789 7.76805 7.7779 7.85682V11.7724L6.22232 12.8836V7.85682C6.22234 7.76805 6.20209 7.68044 6.16313 7.60068C6.12417 7.52091 6.06752 7.45109 5.99749 7.39653L1.83358 4.14788C1.41198 3.81562 1.16669 3.31026 1.16669 2.77384V1.76666Z" fill="black"/>
</svg>
