<svg width="14" height="15" viewBox="0 0 14 15" fill="none" xmlns="http://www.w3.org/2000/svg">
<path d="M0.972238 -0.313246C0.441943 -0.313246 0 0.128697 0 0.658992V1.86062C0 2.75377 0.41047 3.59859 1.112 4.15145C1.11276 4.15196 1.11352 4.15247 1.11428 4.15297L5.05564 7.22843V13.1036C5.05569 13.2108 5.08524 13.3158 5.14104 13.4073C5.19685 13.4987 5.27675 13.573 5.372 13.6221C5.46725 13.6711 5.57415 13.6929 5.681 13.6852C5.78785 13.6775 5.89052 13.6406 5.97774 13.5784L8.70001 11.6339C8.77563 11.5799 8.83727 11.5087 8.87981 11.4262C8.92235 11.3436 8.94456 11.252 8.94459 11.1592V7.22843L12.886 4.15297C12.8867 4.15247 12.8875 4.15196 12.8882 4.15145C13.5897 3.59859 14.0002 2.75377 14.0002 1.86062V0.658992C14.0002 0.128697 13.5583 -0.313246 13.028 -0.313246H0.972238ZM1.16669 0.85344H12.8335V1.86062C12.8335 2.39704 12.5882 2.9024 12.1666 3.23466L8.00273 6.4833C7.93271 6.53787 7.87606 6.60769 7.8371 6.68746C7.79813 6.76722 7.77789 6.85483 7.7779 6.9436V10.8591L6.22232 11.9704V6.9436C6.22234 6.85483 6.20209 6.76722 6.16313 6.68746C6.12417 6.60769 6.06752 6.53787 5.99749 6.4833L1.83358 3.23466C1.41198 2.9024 1.16669 2.39704 1.16669 1.86062V0.85344Z" fill="black"/>
</svg>
