<svg width="14" height="16" viewBox="0 0 14 16" fill="none" xmlns="http://www.w3.org/2000/svg">
<path d="M5.3342 0.773683C5.18833 0.777128 5.04976 0.838143 4.94872 0.943407L3.86637 2.02576L2.78402 0.943407C2.73254 0.890389 2.67094 0.848241 2.60288 0.819458C2.53481 0.790676 2.46166 0.775844 2.38776 0.775841C2.27784 0.775868 2.17043 0.808688 2.07927 0.870104C1.98811 0.93152 1.91734 1.01874 1.87602 1.1206C1.83471 1.22246 1.82472 1.33433 1.84734 1.44189C1.86997 1.54946 1.92416 1.64783 2.00301 1.72442L3.47587 3.19728C3.57945 3.30082 3.71991 3.35899 3.86637 3.35899C4.01283 3.35899 4.1533 3.30082 4.25688 3.19728L5.72974 1.72442C5.81006 1.64734 5.86521 1.54778 5.88796 1.4388C5.91071 1.32982 5.90001 1.21651 5.85725 1.11373C5.81448 1.01094 5.74166 0.923475 5.64832 0.862795C5.55499 0.802115 5.44549 0.771054 5.3342 0.773683V0.773683ZM9.38168 0.781594C9.23795 0.783696 9.1007 0.841743 8.99908 0.943407L7.52622 2.41626C7.47322 2.46716 7.4309 2.52812 7.40175 2.59557C7.37259 2.66303 7.35719 2.73562 7.35644 2.8091C7.3557 2.88258 7.36962 2.95547 7.39739 3.0235C7.42517 3.09154 7.46624 3.15334 7.5182 3.2053C7.57016 3.25727 7.63197 3.29834 7.7 3.32611C7.76804 3.35389 7.84093 3.36781 7.91441 3.36706C7.98789 3.36632 8.06048 3.35091 8.12794 3.32176C8.19539 3.29261 8.25635 3.25029 8.30724 3.19728L9.38959 2.11493L10.4719 3.19728C10.5228 3.25029 10.5838 3.29261 10.6512 3.32176C10.7187 3.35091 10.7913 3.36632 10.8648 3.36706C10.9383 3.36781 11.0111 3.35389 11.0792 3.32611C11.1472 3.29834 11.209 3.25727 11.261 3.2053C11.3129 3.15334 11.354 3.09154 11.3818 3.0235C11.4096 2.95547 11.4235 2.88258 11.4227 2.8091C11.422 2.73562 11.4066 2.66303 11.3774 2.59557C11.3483 2.52812 11.306 2.46716 11.253 2.41626L9.7801 0.943407C9.72788 0.891168 9.66572 0.849931 9.59728 0.822138C9.52885 0.794344 9.45554 0.780558 9.38168 0.781594V0.781594ZM0.920658 4.09552C0.418563 4.09552 0.00012207 4.51397 0.00012207 5.01606V5.41736C0.00012207 6.26302 0.388764 7.0629 1.05299 7.58637L4.78691 10.5285V14.2214C4.78696 14.3229 4.81494 14.4223 4.86777 14.5089C4.92061 14.5955 4.99627 14.6658 5.08645 14.7123C5.17663 14.7587 5.27785 14.7794 5.37902 14.7721C5.48019 14.7648 5.5774 14.7298 5.65998 14.6709L8.23748 12.8298C8.30908 12.7788 8.36744 12.7113 8.40772 12.6331C8.448 12.555 8.46902 12.4683 8.46906 12.3803V10.5278L12.203 7.58637C12.8672 7.0629 13.2558 6.26302 13.2558 5.41736V5.01606C13.2558 4.51397 12.8374 4.09552 12.3353 4.09552H0.920658ZM1.10477 5.20017H12.1512V5.41736C12.1512 5.92525 11.919 6.40374 11.5198 6.71833L7.83834 9.61874H5.41762L1.7362 6.71833C1.33701 6.40374 1.10477 5.92525 1.10477 5.41736V5.20017ZM5.89155 10.7234H7.36441V12.0963L5.89155 13.1484V10.7234Z" fill="black"/>
</svg>
