<svg width="14" height="15" viewBox="0 0 14 15" fill="none" xmlns="http://www.w3.org/2000/svg">
<path d="M3.31577 0.173553C2.40669 0.173553 1.65788 0.922369 1.65788 1.83145V10.4893H1.10524C0.958681 10.4894 0.818126 10.5476 0.714491 10.6512C0.610855 10.7549 0.552627 10.8954 0.552612 11.042V11.7788C0.552612 13.0948 1.63137 14.1736 2.94735 14.1736H11.0526C12.3686 14.1736 13.4473 13.0948 13.4473 11.7788V1.83145C13.4473 0.922369 12.6985 0.173553 11.7895 0.173553H3.31577ZM3.31577 1.27882H11.7895C12.1013 1.27882 12.3421 1.51958 12.3421 1.83145V11.7788C12.3421 12.4973 11.7711 13.0683 11.0526 13.0683C10.3342 13.0683 9.76314 12.4973 9.76314 11.7788V11.042C9.76312 10.8954 9.7049 10.7549 9.60126 10.6512C9.49763 10.5476 9.35707 10.4894 9.21051 10.4893H2.76314V1.83145C2.76314 1.51958 3.0039 1.27882 3.31577 1.27882ZM4.78945 3.12092C4.64289 3.12092 4.50232 3.17915 4.39868 3.28278C4.29505 3.38642 4.23682 3.52699 4.23682 3.67355C4.23682 3.82012 4.29505 3.96068 4.39868 4.06432C4.50232 4.16796 4.64289 4.22618 4.78945 4.22618C4.93602 4.22618 5.07659 4.16796 5.18022 4.06432C5.28386 3.96068 5.34209 3.82012 5.34209 3.67355C5.34209 3.52699 5.28386 3.38642 5.18022 3.28278C5.07659 3.17915 4.93602 3.12092 4.78945 3.12092ZM6.63156 3.12092C6.55833 3.11989 6.48562 3.13342 6.41767 3.16072C6.34971 3.18803 6.28786 3.22857 6.23571 3.27999C6.18356 3.33141 6.14214 3.39268 6.11388 3.46025C6.08561 3.52781 6.07106 3.60032 6.07106 3.67355C6.07106 3.74679 6.08561 3.8193 6.11388 3.88686C6.14214 3.95442 6.18356 4.0157 6.23571 4.06712C6.28786 4.11853 6.34971 4.15908 6.41767 4.18638C6.48562 4.21369 6.55833 4.22722 6.63156 4.22618H10.3158C10.389 4.22722 10.4617 4.21369 10.5297 4.18638C10.5976 4.15908 10.6595 4.11853 10.7116 4.06712C10.7638 4.0157 10.8052 3.95442 10.8335 3.88686C10.8617 3.8193 10.8763 3.74679 10.8763 3.67355C10.8763 3.60032 10.8617 3.52781 10.8335 3.46025C10.8052 3.39268 10.7638 3.33141 10.7116 3.27999C10.6595 3.22857 10.5976 3.18803 10.5297 3.16072C10.4617 3.13342 10.389 3.11989 10.3158 3.12092H6.63156ZM4.78945 5.33145C4.64289 5.33145 4.50232 5.38967 4.39868 5.49331C4.29505 5.59695 4.23682 5.73751 4.23682 5.88408C4.23682 6.03065 4.29505 6.17121 4.39868 6.27485C4.50232 6.37849 4.64289 6.43671 4.78945 6.43671C4.93602 6.43671 5.07659 6.37849 5.18022 6.27485C5.28386 6.17121 5.34209 6.03065 5.34209 5.88408C5.34209 5.73751 5.28386 5.59695 5.18022 5.49331C5.07659 5.38967 4.93602 5.33145 4.78945 5.33145ZM6.63156 5.33145C6.55833 5.33041 6.48562 5.34394 6.41767 5.37125C6.34971 5.39856 6.28786 5.4391 6.23571 5.49052C6.18356 5.54194 6.14214 5.60321 6.11388 5.67077C6.08561 5.73833 6.07106 5.81084 6.07106 5.88408C6.07106 5.95732 6.08561 6.02982 6.11388 6.09739C6.14214 6.16495 6.18356 6.22622 6.23571 6.27764C6.28786 6.32906 6.34971 6.3696 6.41767 6.39691C6.48562 6.42422 6.55833 6.43775 6.63156 6.43671H10.3158C10.389 6.43775 10.4617 6.42422 10.5297 6.39691C10.5976 6.3696 10.6595 6.32906 10.7116 6.27764C10.7638 6.22622 10.8052 6.16495 10.8335 6.09739C10.8617 6.02982 10.8763 5.95732 10.8763 5.88408C10.8763 5.81084 10.8617 5.73833 10.8335 5.67077C10.8052 5.60321 10.7638 5.54194 10.7116 5.49052C10.6595 5.4391 10.5976 5.39856 10.5297 5.37125C10.4617 5.34394 10.389 5.33041 10.3158 5.33145H6.63156ZM4.78945 7.54197C4.64289 7.54197 4.50232 7.6002 4.39868 7.70384C4.29505 7.80748 4.23682 7.94804 4.23682 8.09461C4.23682 8.24117 4.29505 8.38174 4.39868 8.48538C4.50232 8.58901 4.64289 8.64724 4.78945 8.64724C4.93602 8.64724 5.07659 8.58901 5.18022 8.48538C5.28386 8.38174 5.34209 8.24117 5.34209 8.09461C5.34209 7.94804 5.28386 7.80748 5.18022 7.70384C5.07659 7.6002 4.93602 7.54197 4.78945 7.54197ZM6.63156 7.54197C6.55833 7.54094 6.48562 7.55447 6.41767 7.58178C6.34971 7.60908 6.28786 7.64962 6.23571 7.70104C6.18356 7.75246 6.14214 7.81373 6.11388 7.8813C6.08561 7.94886 6.07106 8.02137 6.07106 8.09461C6.07106 8.16784 6.08561 8.24035 6.11388 8.30791C6.14214 8.37548 6.18356 8.43675 6.23571 8.48817C6.28786 8.53959 6.34971 8.58013 6.41767 8.60744C6.48562 8.63474 6.55833 8.64827 6.63156 8.64724H10.3158C10.389 8.64827 10.4617 8.63474 10.5297 8.60744C10.5976 8.58013 10.6595 8.53959 10.7116 8.48817C10.7638 8.43675 10.8052 8.37548 10.8335 8.30791C10.8617 8.24035 10.8763 8.16784 10.8763 8.09461C10.8763 8.02137 10.8617 7.94886 10.8335 7.8813C10.8052 7.81373 10.7638 7.75246 10.7116 7.70104C10.6595 7.64962 10.5976 7.60908 10.5297 7.58178C10.4617 7.55447 10.389 7.54094 10.3158 7.54197H6.63156ZM1.65788 11.5946H8.65788V11.7788C8.65788 12.2633 8.8399 12.6901 9.09034 13.0683H2.94735C2.22891 13.0683 1.65788 12.4973 1.65788 11.7788V11.5946Z" fill="black"/>
</svg>
