<svg width="14" height="15" viewBox="0 0 14 15" fill="none" xmlns="http://www.w3.org/2000/svg">
<path d="M3.3158 0.23584C2.40672 0.23584 1.65791 0.984655 1.65791 1.89373V10.5516H1.10527C0.958712 10.5516 0.818157 10.6099 0.714521 10.7135C0.610886 10.8171 0.552657 10.9577 0.552643 11.1043V11.8411C0.552643 13.1571 1.6314 14.2358 2.94738 14.2358H11.0526C12.3686 14.2358 13.4474 13.1571 13.4474 11.8411V1.89373C13.4474 0.984655 12.6986 0.23584 11.7895 0.23584H3.3158ZM3.3158 1.3411H11.7895C12.1014 1.3411 12.3421 1.58187 12.3421 1.89373V11.8411C12.3421 12.5595 11.7711 13.1306 11.0526 13.1306C10.3342 13.1306 9.76317 12.5595 9.76317 11.8411V11.1043C9.76315 10.9577 9.70493 10.8171 9.60129 10.7135C9.49766 10.6099 9.3571 10.5516 9.21054 10.5516H2.76317V1.89373C2.76317 1.58187 3.00393 1.3411 3.3158 1.3411ZM4.78948 3.18321C4.64292 3.18321 4.50235 3.24143 4.39872 3.34507C4.29508 3.44871 4.23685 3.58927 4.23685 3.73584C4.23685 3.88241 4.29508 4.02297 4.39872 4.12661C4.50235 4.23025 4.64292 4.28847 4.78948 4.28847C4.93605 4.28847 5.07662 4.23025 5.18025 4.12661C5.28389 4.02297 5.34212 3.88241 5.34212 3.73584C5.34212 3.58927 5.28389 3.44871 5.18025 3.34507C5.07662 3.24143 4.93605 3.18321 4.78948 3.18321ZM6.63159 3.18321C6.55836 3.18217 6.48565 3.1957 6.4177 3.22301C6.34974 3.25032 6.28789 3.29086 6.23574 3.34228C6.18359 3.3937 6.14218 3.45497 6.11391 3.52253C6.08564 3.5901 6.07109 3.6626 6.07109 3.73584C6.07109 3.80908 6.08564 3.88158 6.11391 3.94915C6.14218 4.01671 6.18359 4.07798 6.23574 4.1294C6.28789 4.18082 6.34974 4.22136 6.4177 4.24867C6.48565 4.27598 6.55836 4.28951 6.63159 4.28847H10.3158C10.389 4.28951 10.4617 4.27598 10.5297 4.24867C10.5977 4.22136 10.6595 4.18082 10.7117 4.1294C10.7638 4.07798 10.8052 4.01671 10.8335 3.94915C10.8617 3.88158 10.8763 3.80908 10.8763 3.73584C10.8763 3.6626 10.8617 3.5901 10.8335 3.52253C10.8052 3.45497 10.7638 3.3937 10.7117 3.34228C10.6595 3.29086 10.5977 3.25032 10.5297 3.22301C10.4617 3.1957 10.389 3.18217 10.3158 3.18321H6.63159ZM4.78948 5.39373C4.64292 5.39373 4.50235 5.45196 4.39872 5.5556C4.29508 5.65924 4.23685 5.7998 4.23685 5.94637C4.23685 6.09293 4.29508 6.2335 4.39872 6.33714C4.50235 6.44077 4.64292 6.499 4.78948 6.499C4.93605 6.499 5.07662 6.44077 5.18025 6.33714C5.28389 6.2335 5.34212 6.09293 5.34212 5.94637C5.34212 5.7998 5.28389 5.65924 5.18025 5.5556C5.07662 5.45196 4.93605 5.39373 4.78948 5.39373ZM6.63159 5.39373C6.55836 5.3927 6.48565 5.40623 6.4177 5.43354C6.34974 5.46084 6.28789 5.50138 6.23574 5.5528C6.18359 5.60422 6.14218 5.66549 6.11391 5.73306C6.08564 5.80062 6.07109 5.87313 6.07109 5.94637C6.07109 6.0196 6.08564 6.09211 6.11391 6.15967C6.14218 6.22724 6.18359 6.28851 6.23574 6.33993C6.28789 6.39135 6.34974 6.43189 6.4177 6.4592C6.48565 6.4865 6.55836 6.50003 6.63159 6.499H10.3158C10.389 6.50003 10.4617 6.4865 10.5297 6.4592C10.5977 6.43189 10.6595 6.39135 10.7117 6.33993C10.7638 6.28851 10.8052 6.22724 10.8335 6.15967C10.8617 6.09211 10.8763 6.0196 10.8763 5.94637C10.8763 5.87313 10.8617 5.80062 10.8335 5.73306C10.8052 5.66549 10.7638 5.60422 10.7117 5.5528C10.6595 5.50138 10.5977 5.46084 10.5297 5.43354C10.4617 5.40623 10.389 5.3927 10.3158 5.39373H6.63159ZM4.78948 7.60426C4.64292 7.60426 4.50235 7.66248 4.39872 7.76612C4.29508 7.86976 4.23685 8.01033 4.23685 8.15689C4.23685 8.30346 4.29508 8.44402 4.39872 8.54766C4.50235 8.6513 4.64292 8.70952 4.78948 8.70952C4.93605 8.70952 5.07662 8.6513 5.18025 8.54766C5.28389 8.44402 5.34212 8.30346 5.34212 8.15689C5.34212 8.01033 5.28389 7.86976 5.18025 7.76612C5.07662 7.66248 4.93605 7.60426 4.78948 7.60426ZM6.63159 7.60426C6.55836 7.60323 6.48565 7.61675 6.4177 7.64406C6.34974 7.67137 6.28789 7.71191 6.23574 7.76333C6.18359 7.81475 6.14218 7.87602 6.11391 7.94358C6.08564 8.01115 6.07109 8.08365 6.07109 8.15689C6.07109 8.23013 6.08564 8.30264 6.11391 8.3702C6.14218 8.43776 6.18359 8.49903 6.23574 8.55045C6.28789 8.60187 6.34974 8.64242 6.4177 8.66972C6.48565 8.69703 6.55836 8.71056 6.63159 8.70952H10.3158C10.389 8.71056 10.4617 8.69703 10.5297 8.66972C10.5977 8.64242 10.6595 8.60187 10.7117 8.55045C10.7638 8.49903 10.8052 8.43776 10.8335 8.3702C10.8617 8.30264 10.8763 8.23013 10.8763 8.15689C10.8763 8.08365 10.8617 8.01115 10.8335 7.94358C10.8052 7.87602 10.7638 7.81475 10.7117 7.76333C10.6595 7.71191 10.5977 7.67137 10.5297 7.64406C10.4617 7.61675 10.389 7.60323 10.3158 7.60426H6.63159ZM1.65791 11.6569H8.65791V11.8411C8.65791 12.3256 8.83993 12.7524 9.09037 13.1306H2.94738C2.22894 13.1306 1.65791 12.5595 1.65791 11.8411V11.6569Z" fill="black"/>
</svg>
