<svg width="14" height="15" viewBox="0 0 14 15" fill="none" xmlns="http://www.w3.org/2000/svg">
<path d="M1.575 1.68678C0.711375 1.68678 0 2.39816 0 3.26178V11.3118C0 12.1754 0.711375 12.8868 1.575 12.8868H12.425C13.2886 12.8868 14 12.1754 14 11.3118V5.01178C14 4.14816 13.2886 3.43678 12.425 3.43678H7.01504L5.45029 2.13317C5.10442 1.84502 4.66871 1.68678 4.21846 1.68678H1.575ZM1.575 2.73678H4.21846C4.42341 2.73678 4.62089 2.80866 4.77832 2.93981L6.00469 3.96178L4.77832 4.98376C4.62089 5.11491 4.42341 5.18678 4.21846 5.18678H1.05V3.26178C1.05 2.96551 1.27873 2.73678 1.575 2.73678ZM7.01504 4.48678H12.425C12.7213 4.48678 12.95 4.71551 12.95 5.01178V11.3118C12.95 11.6081 12.7213 11.8368 12.425 11.8368H1.575C1.27873 11.8368 1.05 11.6081 1.05 11.3118V6.23678H4.21846C4.66871 6.23678 5.10442 6.07855 5.45029 5.7904L7.01504 4.48678Z" fill="black"/>
</svg>
