<svg width="14" height="14" viewBox="0 0 14 14" fill="none" xmlns="http://www.w3.org/2000/svg">
<path d="M1.575 1.60001C0.711375 1.60001 0 2.31138 0 3.17501V11.225C0 12.0886 0.711375 12.8 1.575 12.8H12.425C13.2886 12.8 14 12.0886 14 11.225V4.92501C14 4.06138 13.2886 3.35001 12.425 3.35001H7.01504L5.45029 2.04639C5.10442 1.75824 4.66871 1.60001 4.21846 1.60001H1.575ZM1.575 2.65001H4.21846C4.42341 2.65001 4.62089 2.72188 4.77832 2.85303L6.00469 3.87501L4.77832 4.89698C4.62089 5.02813 4.42341 5.10001 4.21846 5.10001H1.05V3.17501C1.05 2.87873 1.27873 2.65001 1.575 2.65001ZM7.01504 4.40001H12.425C12.7213 4.40001 12.95 4.62873 12.95 4.92501V11.225C12.95 11.5213 12.7213 11.75 12.425 11.75H1.575C1.27873 11.75 1.05 11.5213 1.05 11.225V6.15001H4.21846C4.66871 6.15001 5.10442 5.99177 5.45029 5.70362L7.01504 4.40001Z" fill="black"/>
</svg>
