<svg width="14" height="15" viewBox="0 0 14 15" fill="none" xmlns="http://www.w3.org/2000/svg">
<g clip-path="url(#clip0_971_10068)">
<path d="M2.13893 0.235898C0.964584 0.235898 6.00907e-05 1.20042 6.00907e-05 2.37477V4.70808C-0.00103309 4.78538 0.0132475 4.86213 0.0420719 4.93386C0.0708963 5.00559 0.11369 5.07087 0.167965 5.12592C0.222241 5.18097 0.286916 5.22468 0.358232 5.25452C0.429548 5.28436 0.506083 5.29972 0.583389 5.29972C0.660694 5.29972 0.737229 5.28436 0.808545 5.25452C0.879861 5.22468 0.944536 5.18097 0.998812 5.12592C1.05309 5.07087 1.09588 5.00559 1.12471 4.93386C1.15353 4.86213 1.16781 4.78538 1.16672 4.70808V2.37477C1.16672 1.83102 1.59518 1.40256 2.13893 1.40256H4.47225C4.54954 1.40365 4.62629 1.38937 4.69802 1.36054C4.76975 1.33172 4.83504 1.28893 4.89008 1.23465C4.94513 1.18037 4.98885 1.1157 5.01868 1.04438C5.04852 0.973067 5.06388 0.896532 5.06388 0.819227C5.06388 0.741921 5.04852 0.665386 5.01868 0.59407C4.98885 0.522754 4.94513 0.458079 4.89008 0.403803C4.83504 0.349528 4.76975 0.306734 4.69802 0.27791C4.62629 0.249086 4.54954 0.234805 4.47225 0.235898H2.13893ZM9.52776 0.235898C9.45046 0.234805 9.37372 0.249086 9.30198 0.27791C9.23025 0.306734 9.16497 0.349528 9.10992 0.403803C9.05487 0.458079 9.01116 0.522754 8.98132 0.59407C8.95149 0.665386 8.93612 0.741921 8.93612 0.819227C8.93612 0.896532 8.95149 0.973067 8.98132 1.04438C9.01116 1.1157 9.05487 1.18037 9.10992 1.23465C9.16497 1.28893 9.23025 1.33172 9.30198 1.36054C9.37372 1.38937 9.45046 1.40365 9.52776 1.40256H11.8611C12.4048 1.40256 12.8333 1.83102 12.8333 2.37477V4.70808C12.8322 4.78538 12.8465 4.86213 12.8753 4.93386C12.9041 5.00559 12.9469 5.07087 13.0012 5.12592C13.0555 5.18097 13.1201 5.22468 13.1915 5.25452C13.2628 5.28436 13.3393 5.29972 13.4166 5.29972C13.4939 5.29972 13.5705 5.28436 13.6418 5.25452C13.7131 5.22468 13.7778 5.18097 13.832 5.12592C13.8863 5.07087 13.9291 5.00559 13.9579 4.93386C13.9868 4.86213 14.001 4.78538 13.9999 4.70808V2.37477C13.9999 1.20042 13.0354 0.235898 11.8611 0.235898H9.52776ZM0.574274 9.17191C0.419698 9.17433 0.272401 9.238 0.164736 9.34894C0.0570712 9.45988 -0.0021573 9.60902 6.00907e-05 9.7636V12.0969C6.00907e-05 13.2713 0.964584 14.2358 2.13893 14.2358H4.47225C4.54954 14.2369 4.62629 14.2226 4.69802 14.1938C4.76975 14.1649 4.83504 14.1222 4.89008 14.0679C4.94513 14.0136 4.98885 13.9489 5.01868 13.8776C5.04852 13.8063 5.06388 13.7298 5.06388 13.6525C5.06388 13.5751 5.04852 13.4986 5.01868 13.4273C4.98885 13.356 4.94513 13.2913 4.89008 13.237C4.83504 13.1828 4.76975 13.14 4.69802 13.1111C4.62629 13.0823 4.54954 13.068 4.47225 13.0691H2.13893C1.59518 13.0691 1.16672 12.6407 1.16672 12.0969V9.7636C1.16784 9.68552 1.15327 9.60802 1.12389 9.53568C1.0945 9.46333 1.05089 9.39762 0.995642 9.34245C0.940394 9.28727 0.874631 9.24375 0.802251 9.21445C0.729871 9.18516 0.652347 9.17069 0.574274 9.17191ZM13.4075 9.17191C13.2529 9.17433 13.1056 9.238 12.998 9.34894C12.8903 9.45988 12.8311 9.60902 12.8333 9.7636V12.0969C12.8333 12.6407 12.4048 13.0691 11.8611 13.0691H9.52776C9.45046 13.068 9.37372 13.0823 9.30198 13.1111C9.23025 13.14 9.16497 13.1828 9.10992 13.237C9.05487 13.2913 9.01116 13.356 8.98132 13.4273C8.95149 13.4986 8.93612 13.5751 8.93612 13.6525C8.93612 13.7298 8.95149 13.8063 8.98132 13.8776C9.01116 13.9489 9.05487 14.0136 9.10992 14.0679C9.16497 14.1222 9.23025 14.1649 9.30198 14.1938C9.37372 14.2226 9.45046 14.2369 9.52776 14.2358H11.8611C13.0354 14.2358 13.9999 13.2713 13.9999 12.0969V9.7636C14.0011 9.68552 13.9865 9.60802 13.9571 9.53567C13.9277 9.46333 13.8841 9.39762 13.8289 9.34245C13.7736 9.28727 13.7079 9.24374 13.6355 9.21445C13.5631 9.18516 13.4856 9.17069 13.4075 9.17191Z" fill="black"/>
</g>
<defs>
<clipPath id="clip0_971_10068">
<rect width="14" height="14" fill="white" transform="translate(0 0.23584)"/>
</clipPath>
</defs>
</svg>
