<svg width="14" height="15" viewBox="0 0 14 15" fill="none" xmlns="http://www.w3.org/2000/svg">
<path d="M10.3851 0.686876C10.0943 0.686876 9.80368 0.722144 9.50859 0.793361C9.29664 0.844133 9.13972 1.02455 9.11859 1.24126L9.10461 1.38502C9.0886 1.54892 8.99449 1.69588 8.85171 1.77835C8.70894 1.86047 8.53442 1.86981 8.38518 1.80097L8.25274 1.74108C8.05544 1.65146 7.82033 1.69611 7.6704 1.85422C7.26218 2.28356 6.95752 2.80869 6.79123 3.37229C6.72921 3.58117 6.80737 3.80591 6.9849 3.93267L7.10403 4.01785C7.23795 4.11429 7.31833 4.26989 7.31833 4.43448C7.31833 4.52171 7.29466 4.60577 7.25377 4.68006L7.31767 5.07405L7.80949 4.8877C7.94443 4.83693 8.08564 4.81117 8.22944 4.81117C8.24818 4.81117 8.2666 4.81613 8.28535 4.81716C8.31806 4.69278 8.34058 4.56567 8.34058 4.43448C8.34058 4.02353 8.17461 3.63188 7.88736 3.34633C7.96914 3.15926 8.07284 2.98117 8.19483 2.81591C8.58533 2.92188 9.0071 2.86964 9.36284 2.66417C9.71858 2.45869 9.97536 2.11862 10.0789 1.7271C10.2865 1.70257 10.484 1.70257 10.6919 1.7271C10.7952 2.11862 11.0513 2.45869 11.4073 2.66417C11.7628 2.86998 12.1842 2.92188 12.5754 2.81591C12.6973 2.98083 12.801 3.15926 12.8828 3.34633C12.5956 3.63223 12.4296 4.02353 12.4296 4.43448C12.4296 4.84542 12.5956 5.23707 12.8828 5.52262C12.801 5.70969 12.6973 5.88778 12.5754 6.05305C12.1849 5.94707 11.7631 5.99931 11.4073 6.20479C11.0513 6.41026 10.7948 6.75033 10.6912 7.14185C10.574 7.15582 10.4603 7.15953 10.3458 7.15783C10.4041 7.31116 10.4576 7.4656 10.5022 7.62303C10.554 7.80602 10.5586 7.99451 10.5242 8.17409C10.7671 8.16455 11.0142 8.13522 11.2623 8.07559C11.4739 8.02482 11.6305 7.84441 11.6516 7.62769L11.6656 7.48327C11.6816 7.31937 11.7757 7.17307 11.9185 7.09061C12.0616 7.00883 12.2361 6.99983 12.385 7.06798L12.5175 7.12788C12.7147 7.21818 12.9502 7.17319 13.0998 7.01474C13.508 6.58539 13.8127 6.06027 13.979 5.49666C14.041 5.28744 13.9628 5.06271 13.7853 4.93629L13.6662 4.8511C13.5322 4.75467 13.4519 4.59906 13.4519 4.43448C13.4519 4.26989 13.5319 4.11461 13.6655 4.01852L13.7853 3.93267C13.9628 3.80625 14.041 3.58151 13.979 3.37229C13.8127 2.80869 13.508 2.28356 13.0998 1.85422C12.9499 1.69577 12.7144 1.65078 12.5175 1.74108L12.3857 1.80097C12.2351 1.86912 12.0609 1.85979 11.9185 1.77835C11.7757 1.69588 11.6816 1.54924 11.6656 1.38568L11.6516 1.24126C11.6305 1.0242 11.4735 0.844133 11.2616 0.793361C10.9665 0.722144 10.6759 0.686876 10.3851 0.686876ZM10.3851 3.07147C9.97335 3.07147 9.59983 3.24428 9.36417 3.50939C9.12852 3.7745 9.02209 4.10792 9.02209 4.43448C9.02209 4.76103 9.12852 5.09445 9.36417 5.35956C9.59983 5.62468 9.97335 5.79748 10.3851 5.79748C10.7968 5.79748 11.1704 5.62468 11.406 5.35956C11.6417 5.09445 11.7481 4.76103 11.7481 4.43448C11.7481 4.10792 11.6417 3.7745 11.406 3.50939C11.1704 3.24428 10.7968 3.07147 10.3851 3.07147ZM4.93307 4.09373C4.49769 4.09373 4.08032 4.15373 3.6852 4.25279C3.58844 4.27708 3.5009 4.32915 3.43337 4.40259C3.36585 4.47603 3.32129 4.56762 3.30518 4.66608L3.22066 5.1832C3.18745 5.38562 3.06588 5.5613 2.88856 5.66371C2.71124 5.76613 2.49916 5.78353 2.30689 5.71096L1.81506 5.52461C1.72177 5.48937 1.62021 5.48219 1.52289 5.50395C1.42556 5.52571 1.33673 5.57546 1.26733 5.64707C0.687024 6.24517 0.253075 6.98473 0.0194615 7.80938C-0.00769076 7.90527 -0.00621844 8.00701 0.0236974 8.10208C0.0536132 8.19715 0.110667 8.2814 0.187841 8.34447L0.59448 8.67723C0.752632 8.80746 0.844053 9.00037 0.844053 9.205C0.844053 9.40993 0.752302 9.60297 0.593814 9.73276L0.187175 10.0655C0.110119 10.1287 0.0531946 10.213 0.0233986 10.308C-0.00639745 10.4031 -0.00776585 10.5048 0.0194615 10.6006C0.25337 11.425 0.686946 12.1647 1.26733 12.7629C1.33675 12.8343 1.4255 12.8838 1.52268 12.9055C1.61987 12.9271 1.72126 12.9199 1.8144 12.8847L2.30689 12.699C2.49861 12.6266 2.71069 12.6437 2.88856 12.7463C3.06616 12.8487 3.18703 13.0241 3.22 13.2261L3.30452 13.7432C3.32062 13.8417 3.36518 13.9333 3.43271 14.0067C3.50023 14.0802 3.58777 14.1323 3.68454 14.1565C4.08017 14.256 4.49769 14.3163 4.93307 14.3163C5.36846 14.3163 5.78582 14.2563 6.18094 14.1572C6.2777 14.1329 6.36524 14.0808 6.43277 14.0074C6.5003 13.934 6.54486 13.8424 6.56096 13.7439L6.64548 13.2268C6.67869 13.0244 6.80026 12.8487 6.97758 12.7463C7.1549 12.6439 7.36698 12.6265 7.55925 12.699L8.05108 12.8854C8.14437 12.9206 8.24593 12.9278 8.34325 12.906C8.44058 12.8843 8.52941 12.8345 8.59881 12.7629C9.17912 12.1648 9.61307 11.4253 9.84668 10.6006C9.87383 10.5047 9.87236 10.403 9.84244 10.3079C9.81253 10.2128 9.75547 10.1286 9.6783 10.0655L9.27166 9.73276C9.11351 9.60253 9.02209 9.40962 9.02209 9.205C9.02209 9.00006 9.11384 8.80703 9.27233 8.67723L9.67897 8.34447C9.75602 8.28132 9.81295 8.19704 9.84274 8.10197C9.87254 8.00691 9.87391 7.90521 9.84668 7.80938C9.61273 6.98392 9.17625 6.2457 8.59748 5.6484C8.52808 5.57679 8.43925 5.52704 8.34192 5.50528C8.2446 5.48352 8.14304 5.4907 8.04975 5.52595L7.55925 5.71096C7.36754 5.78339 7.15478 5.76633 6.97691 5.66371C6.79931 5.56125 6.67844 5.38593 6.64548 5.18386L6.55963 4.66142C6.54357 4.56305 6.49911 4.47152 6.43171 4.39809C6.36431 4.32466 6.27691 4.27253 6.18027 4.24813C5.78151 4.14787 5.36336 4.09373 4.93307 4.09373ZM10.3851 4.09373C10.5413 4.09373 10.5937 4.13389 10.642 4.18823C10.6903 4.24257 10.7258 4.33509 10.7258 4.43448C10.7258 4.53386 10.6903 4.62638 10.642 4.68072C10.5937 4.73506 10.5413 4.77523 10.3851 4.77523C10.2289 4.77523 10.1765 4.73506 10.1282 4.68072C10.0799 4.62638 10.0443 4.53386 10.0443 4.43448C10.0443 4.33509 10.0799 4.24257 10.1282 4.18823C10.1765 4.13389 10.2289 4.09373 10.3851 4.09373ZM4.93307 5.11598C5.16778 5.11598 5.389 5.16231 5.61258 5.2005L5.63654 5.34892C5.7189 5.85262 6.02407 6.29431 6.46645 6.54953C6.90875 6.8047 7.44312 6.84774 7.92064 6.66733L8.05707 6.61608C8.34756 6.96646 8.5766 7.36076 8.73791 7.79407L8.62477 7.88658C8.62455 7.88658 8.62432 7.88658 8.6241 7.88658C8.22923 8.20998 7.99983 8.69436 7.99983 9.205C7.99983 9.71564 8.22933 10.1998 8.62344 10.5234C8.62366 10.5236 8.62388 10.5239 8.6241 10.5241L8.73791 10.6173C8.57687 11.0509 8.34824 11.4455 8.0584 11.7952L7.92064 11.7427C7.44299 11.5624 6.90795 11.6058 6.46579 11.8611C6.02362 12.1165 5.71918 12.5575 5.63654 13.0611C5.63654 13.0613 5.63654 13.0615 5.63654 13.0617L5.61258 13.2068C5.38809 13.2463 5.16537 13.294 4.93307 13.294C4.70054 13.294 4.47759 13.2465 4.2529 13.2068L4.22894 13.0617V13.0611C4.14658 12.5574 3.84208 12.1157 3.39969 11.8605C2.95739 11.6053 2.42303 11.5623 1.94551 11.7427L1.80708 11.7946C1.51732 11.4447 1.28868 11.0505 1.12757 10.6166L1.24137 10.5234C1.2416 10.5234 1.24182 10.5234 1.24204 10.5234C1.63693 10.2 1.86631 9.71564 1.86631 9.205C1.86631 8.69436 1.63681 8.21022 1.24271 7.88658C1.24248 7.88636 1.24226 7.88614 1.24204 7.88592L1.12823 7.79274C1.28927 7.35905 1.5179 6.96452 1.80774 6.61475L1.94551 6.66733C2.42316 6.8476 2.95819 6.80424 3.40035 6.54887C3.84252 6.29349 4.14697 5.85253 4.22961 5.34892C4.22961 5.34869 4.22961 5.34847 4.22961 5.34825L4.25356 5.20316C4.47804 5.16364 4.70077 5.11598 4.93307 5.11598ZM4.93307 7.16049C4.29416 7.16049 3.75026 7.41848 3.40102 7.81138C3.05178 8.20427 2.88856 8.70807 2.88856 9.205C2.88856 9.70193 3.05178 10.2057 3.40102 10.5986C3.75026 10.9915 4.29416 11.2495 4.93307 11.2495C5.57198 11.2495 6.11588 10.9915 6.46512 10.5986C6.81436 10.2057 6.97758 9.70193 6.97758 9.205C6.97758 8.70807 6.81436 8.20427 6.46512 7.81138C6.11588 7.41848 5.57198 7.16049 4.93307 7.16049ZM4.93307 8.18274C5.31642 8.18274 5.53921 8.30809 5.70109 8.49022C5.86298 8.67234 5.95533 8.93524 5.95533 9.205C5.95533 9.47476 5.86298 9.73765 5.70109 9.91978C5.53921 10.1019 5.31642 10.2273 4.93307 10.2273C4.54973 10.2273 4.32694 10.1019 4.16505 9.91978C4.00316 9.73765 3.91082 9.47476 3.91082 9.205C3.91082 8.93524 4.00316 8.67234 4.16505 8.49022C4.32694 8.30809 4.54973 8.18274 4.93307 8.18274Z" fill="black"/>
</svg>
