<svg width="14" height="15" viewBox="0 0 14 15" fill="none" xmlns="http://www.w3.org/2000/svg">
<g clip-path="url(#clip0_121_7996)">
<path d="M7 0.173553C3.1395 0.173553 0 3.31305 0 7.17355C0 11.0341 3.1395 14.1736 7 14.1736C10.8605 14.1736 14 11.0341 14 7.17355C14 5.68255 13.5347 4.30033 12.7367 3.16633L11.9807 3.92238C12.5932 4.85688 12.95 5.97655 12.95 7.17355C12.95 10.4531 10.2795 13.1236 7 13.1236C3.7205 13.1236 1.05 10.4531 1.05 7.17355C1.05 3.89405 3.7205 1.22355 7 1.22355C8.197 1.22355 9.31667 1.58039 10.2512 2.19289L11.0072 1.43683C9.87323 0.638835 8.491 0.173553 7 0.173553ZM13.1147 0.518768C12.9784 0.522742 12.849 0.57962 12.7538 0.677362L6.62881 6.80236C6.57842 6.85074 6.5382 6.90868 6.51049 6.9728C6.48278 7.03692 6.46814 7.10592 6.46743 7.17576C6.46672 7.24561 6.47995 7.31489 6.50635 7.37956C6.53275 7.44423 6.57179 7.50298 6.62118 7.55237C6.67057 7.60176 6.72932 7.6408 6.79399 7.6672C6.85866 7.6936 6.92794 7.70684 6.99779 7.70613C7.06764 7.70542 7.13664 7.69078 7.20075 7.66307C7.26487 7.63536 7.32281 7.59513 7.37119 7.54474L13.4962 1.41974C13.5719 1.34598 13.6236 1.25107 13.6445 1.14743C13.6655 1.0438 13.6546 0.936261 13.6134 0.838902C13.5721 0.741543 13.5025 0.658896 13.4135 0.601776C13.3246 0.544656 13.2204 0.515725 13.1147 0.518768ZM7 2.27355C4.298 2.27355 2.1 4.47155 2.1 7.17355C2.1 9.87555 4.298 12.0736 7 12.0736C9.702 12.0736 11.9 9.87555 11.9 7.17355C11.9 6.26705 11.6518 5.41677 11.2178 4.68527L10.4474 5.455C10.7029 5.973 10.85 6.55405 10.85 7.17355C10.85 9.29805 9.1245 11.0236 7 11.0236C4.8755 11.0236 3.15 9.29805 3.15 7.17355C3.15 5.04905 4.8755 3.32355 7 3.32355C7.6195 3.32355 8.20055 3.47069 8.71855 3.72619L9.48828 2.95578C8.75678 2.52178 7.9065 2.27355 7 2.27355ZM7 4.37355C5.4565 4.37355 4.2 5.63005 4.2 7.17355C4.2 8.71705 5.4565 9.97355 7 9.97355C8.5435 9.97355 9.8 8.71705 9.8 7.17355C9.8 6.85505 9.74427 6.54727 9.64277 6.26027L8.75 7.15236V7.17355C8.75 8.13955 7.966 8.92355 7 8.92355C6.034 8.92355 5.25 8.13955 5.25 7.17355C5.25 6.20755 6.034 5.42355 7 5.42355H7.02119L7.91328 4.53078C7.62628 4.42928 7.3185 4.37355 7 4.37355Z" fill="black"/>
</g>
<defs>
<clipPath id="clip0_121_7996">
<rect width="14" height="14" fill="white" transform="translate(0 0.173553)"/>
</clipPath>
</defs>
</svg>
