<svg width="14" height="15" viewBox="0 0 14 15" fill="none" xmlns="http://www.w3.org/2000/svg">
<path d="M1.75 -0.313246C0.790416 -0.313246 0 0.477171 0 1.43675V4.54787C0 5.50745 0.790416 6.29787 1.75 6.29787H4.86111C5.82069 6.29787 6.61111 5.50745 6.61111 4.54787V1.43675C6.61111 0.477171 5.82069 -0.313246 4.86111 -0.313246H1.75ZM9.13889 -0.313246C8.17931 -0.313246 7.38889 0.477171 7.38889 1.43675V4.54787C7.38889 5.50745 8.17931 6.29787 9.13889 6.29787H12.25C13.2096 6.29787 14 5.50745 14 4.54787V1.43675C14 0.477171 13.2096 -0.313246 12.25 -0.313246H9.13889ZM1.75 0.853421H4.86111C5.19031 0.853421 5.44444 1.10756 5.44444 1.43675V4.54787C5.44444 4.87706 5.19031 5.1312 4.86111 5.1312H1.75C1.42081 5.1312 1.16667 4.87706 1.16667 4.54787V1.43675C1.16667 1.10756 1.42081 0.853421 1.75 0.853421ZM9.13889 0.853421H12.25C12.5792 0.853421 12.8333 1.10756 12.8333 1.43675V4.54787C12.8333 4.87706 12.5792 5.1312 12.25 5.1312H9.13889C8.8097 5.1312 8.55556 4.87706 8.55556 4.54787V1.43675C8.55556 1.10756 8.8097 0.853421 9.13889 0.853421ZM1.75 7.07564C0.790416 7.07564 0 7.86606 0 8.82564V11.9368C0 12.8963 0.790416 13.6868 1.75 13.6868H4.86111C5.82069 13.6868 6.61111 12.8963 6.61111 11.9368V8.82564C6.61111 7.86606 5.82069 7.07564 4.86111 7.07564H1.75ZM9.13889 7.07564C8.17931 7.07564 7.38889 7.86606 7.38889 8.82564V11.9368C7.38889 12.8963 8.17931 13.6868 9.13889 13.6868H12.25C13.2096 13.6868 14 12.8963 14 11.9368V8.82564C14 7.86606 13.2096 7.07564 12.25 7.07564H9.13889ZM1.75 8.24231H4.86111C5.19031 8.24231 5.44444 8.49645 5.44444 8.82564V11.9368C5.44444 12.2659 5.19031 12.5201 4.86111 12.5201H1.75C1.42081 12.5201 1.16667 12.2659 1.16667 11.9368V8.82564C1.16667 8.49645 1.42081 8.24231 1.75 8.24231ZM9.13889 8.24231H12.25C12.5792 8.24231 12.8333 8.49645 12.8333 8.82564V11.9368C12.8333 12.2659 12.5792 12.5201 12.25 12.5201H9.13889C8.8097 12.5201 8.55556 12.2659 8.55556 11.9368V8.82564C8.55556 8.49645 8.8097 8.24231 9.13889 8.24231Z" fill="black"/>
</svg>
