<svg width="14" height="16" viewBox="0 0 14 16" fill="none" xmlns="http://www.w3.org/2000/svg">
<path d="M1.75 0.77356C0.790416 0.77356 0 1.56398 0 2.52356V5.63467C0 6.59425 0.790416 7.38467 1.75 7.38467H4.86111C5.82069 7.38467 6.61111 6.59425 6.61111 5.63467V2.52356C6.61111 1.56398 5.82069 0.77356 4.86111 0.77356H1.75ZM9.13889 0.77356C8.17931 0.77356 7.38889 1.56398 7.38889 2.52356V5.63467C7.38889 6.59425 8.17931 7.38467 9.13889 7.38467H12.25C13.2096 7.38467 14 6.59425 14 5.63467V2.52356C14 1.56398 13.2096 0.77356 12.25 0.77356H9.13889ZM1.75 1.94023H4.86111C5.19031 1.94023 5.44444 2.19437 5.44444 2.52356V5.63467C5.44444 5.96386 5.19031 6.218 4.86111 6.218H1.75C1.42081 6.218 1.16667 5.96386 1.16667 5.63467V2.52356C1.16667 2.19437 1.42081 1.94023 1.75 1.94023ZM9.13889 1.94023H12.25C12.5792 1.94023 12.8333 2.19437 12.8333 2.52356V5.63467C12.8333 5.96386 12.5792 6.218 12.25 6.218H9.13889C8.8097 6.218 8.55556 5.96386 8.55556 5.63467V2.52356C8.55556 2.19437 8.8097 1.94023 9.13889 1.94023ZM1.75 8.16245C0.790416 8.16245 0 8.95287 0 9.91245V13.0236C0 13.9831 0.790416 14.7736 1.75 14.7736H4.86111C5.82069 14.7736 6.61111 13.9831 6.61111 13.0236V9.91245C6.61111 8.95287 5.82069 8.16245 4.86111 8.16245H1.75ZM9.13889 8.16245C8.17931 8.16245 7.38889 8.95287 7.38889 9.91245V13.0236C7.38889 13.9831 8.17931 14.7736 9.13889 14.7736H12.25C13.2096 14.7736 14 13.9831 14 13.0236V9.91245C14 8.95287 13.2096 8.16245 12.25 8.16245H9.13889ZM1.75 9.32911H4.86111C5.19031 9.32911 5.44444 9.58325 5.44444 9.91245V13.0236C5.44444 13.3528 5.19031 13.6069 4.86111 13.6069H1.75C1.42081 13.6069 1.16667 13.3528 1.16667 13.0236V9.91245C1.16667 9.58325 1.42081 9.32911 1.75 9.32911ZM9.13889 9.32911H12.25C12.5792 9.32911 12.8333 9.58325 12.8333 9.91245V13.0236C12.8333 13.3528 12.5792 13.6069 12.25 13.6069H9.13889C8.8097 13.6069 8.55556 13.3528 8.55556 13.0236V9.91245C8.55556 9.58325 8.8097 9.32911 9.13889 9.32911Z" fill="black"/>
</svg>
