<svg width="14" height="15" viewBox="0 0 14 15" fill="none" xmlns="http://www.w3.org/2000/svg">
<g clip-path="url(#clip0_121_7990)">
<path d="M6.9695 0.758505C6.87346 0.76643 6.77953 0.803807 6.70195 0.868636C6.54968 0.996065 3.32763 3.72423 2.66755 6.67261C2.9893 6.56557 3.33373 6.50104 3.70104 6.49403C4.24834 4.73743 5.80865 3.03537 6.69013 2.17714V4.18626C6.69013 4.91865 7.29021 5.56294 8.02228 5.53459C8.65274 5.51006 9.15133 5.04291 9.22875 4.42456C9.87131 5.34205 10.2737 6.18887 10.434 6.95758C10.8048 6.68074 11.1106 6.45311 11.2435 6.35404C11.2492 6.34989 11.2551 6.34698 11.2609 6.34284C10.9337 5.23261 10.2207 4.02517 9.12546 2.73464C8.9958 2.58205 8.78424 2.52614 8.59596 2.59527C8.408 2.66472 8.28299 2.8435 8.28299 3.04388V4.25594C8.28299 4.44964 8.15734 4.58012 7.97002 4.58012C7.77919 4.58012 7.64585 4.44677 7.64585 4.25594V1.52693C7.64585 1.2485 7.50826 0.984417 7.27252 0.836281C7.26233 0.82991 7.25457 0.825141 7.25074 0.822593C7.16361 0.771621 7.06555 0.750581 6.9695 0.758505ZM12.6198 6.49777C12.2629 6.50086 11.924 6.64232 11.623 6.86611C11.2999 7.10615 10.3277 7.8321 9.48634 8.46021C9.30389 7.87781 8.76273 7.44726 8.1237 7.44726H6.72435C5.82878 7.44726 5.41124 7.3747 5.05248 7.29855C4.69372 7.2224 4.34761 7.12869 3.76761 7.12869C2.53004 7.12869 1.59692 7.92288 0.985716 8.65497C0.37451 9.38705 0.0430681 10.1184 0.0430681 10.1184C0.0170261 10.1755 0.00249107 10.2372 0.000293084 10.2999C-0.0019049 10.3627 0.00827723 10.4252 0.030258 10.484C0.0522387 10.5428 0.0855874 10.5967 0.128399 10.6426C0.171212 10.6885 0.222648 10.7256 0.279772 10.7516C0.336896 10.7776 0.398587 10.7922 0.461324 10.7943C0.52406 10.7965 0.586612 10.7863 0.645407 10.7643C0.704202 10.7423 0.758088 10.709 0.803988 10.6661C0.849888 10.6233 0.886902 10.5719 0.912917 10.5148C0.912917 10.5148 1.19934 9.89064 1.7193 9.26784C2.23926 8.64504 2.95009 8.0844 3.76761 8.0844C4.25229 8.0844 4.46228 8.14997 4.85399 8.23311C5.24571 8.31625 5.77381 8.40297 6.72435 8.40297H8.1237C8.39337 8.40297 8.60156 8.61116 8.60156 8.88083C8.60156 9.0304 8.536 9.15935 8.43294 9.24607L8.41987 9.25602C8.41069 9.26316 8.40176 9.27063 8.39312 9.27842L8.3925 9.27904C8.31653 9.32957 8.22452 9.35869 8.1237 9.35869H5.8937C5.83038 9.35779 5.76751 9.36949 5.70875 9.3931C5.64999 9.41671 5.59651 9.45177 5.55141 9.49623C5.50632 9.54069 5.47051 9.59367 5.44607 9.6521C5.42163 9.71052 5.40904 9.77321 5.40904 9.83654C5.40904 9.89987 5.42163 9.96257 5.44607 10.021C5.47051 10.0794 5.50632 10.1324 5.55141 10.1769C5.59651 10.2213 5.64999 10.2564 5.70875 10.28C5.76751 10.3036 5.83038 10.3153 5.8937 10.3144H8.1237C8.42336 10.3144 8.70201 10.2193 8.9332 10.0593L8.93444 10.0587C8.95437 10.0478 8.9735 10.0355 8.99168 10.022C8.99168 10.022 11.7159 7.98769 12.193 7.6333V7.63268C12.3727 7.49904 12.5231 7.45439 12.6285 7.45348C12.7339 7.45256 12.8125 7.47813 12.9216 7.58725C13.1096 7.77517 13.1085 8.06373 12.9253 8.25426C11.2193 9.68879 10.1461 10.6447 9.43719 11.2048C8.71939 11.7718 8.41838 11.9073 8.1237 11.9073C6.96024 11.9073 5.67092 11.5887 4.30085 11.5887C3.50442 11.5887 2.94462 12.0167 2.64453 12.4168C2.34443 12.817 2.24445 13.2251 2.24445 13.2251C2.22758 13.2865 2.22316 13.3507 2.23145 13.4139C2.23974 13.477 2.26058 13.5379 2.29273 13.5929C2.32488 13.6478 2.3677 13.6959 2.41867 13.7341C2.46964 13.7723 2.52773 13.7999 2.58953 13.8153C2.65133 13.8307 2.71559 13.8337 2.77854 13.8239C2.84148 13.8141 2.90184 13.7919 2.95606 13.7585C3.01029 13.725 3.05728 13.6811 3.09429 13.6293C3.13129 13.5774 3.15755 13.5187 3.17154 13.4566C3.17154 13.4566 3.23084 13.2275 3.4086 12.9905C3.58636 12.7535 3.82299 12.5444 4.30085 12.5444C5.51375 12.5444 6.79721 12.863 8.1237 12.863C8.72963 12.863 9.26573 12.5586 10.0295 11.9552C10.7837 11.3594 11.8432 10.4131 13.5388 8.98723C13.5595 8.97263 13.5791 8.9564 13.5973 8.93869C13.5995 8.9365 13.6001 8.93344 13.6023 8.93123L13.6035 8.93247L13.6203 8.91505C13.6669 8.86647 13.7028 8.80858 13.7255 8.74519C14.1226 8.18691 14.0966 7.41039 13.5973 6.91154C13.3333 6.6473 12.9767 6.49469 12.6198 6.49777Z" fill="black"/>
</g>
<defs>
<clipPath id="clip0_121_7990">
<rect width="14" height="14" fill="white" transform="translate(0 0.173553)"/>
</clipPath>
</defs>
</svg>
