<svg width="14" height="15" viewBox="0 0 14 15" fill="none" xmlns="http://www.w3.org/2000/svg">
<g clip-path="url(#clip0_121_7987)">
<path d="M8.41305 1.34267C8.09369 1.35745 7.77551 1.43948 7.47867 1.5879C7.47005 1.5922 7.46156 1.59675 7.45322 1.60156L6.55175 2.12245C6.54224 2.12196 6.53271 2.12175 6.52319 2.12183H0.483601C0.420418 2.12093 0.357687 2.13261 0.299055 2.15617C0.240422 2.17973 0.187057 2.21471 0.142061 2.25907C0.0970645 2.30344 0.0613343 2.3563 0.0369466 2.4146C0.0125588 2.47289 0 2.53545 0 2.59864C0 2.66183 0.0125588 2.72439 0.0369466 2.78268C0.0613343 2.84097 0.0970645 2.89384 0.142061 2.9382C0.187057 2.98257 0.240422 3.01755 0.299055 3.04111C0.357687 3.06467 0.420418 3.07634 0.483601 3.07545H4.54083L4.33347 3.16175C4.32317 3.16594 4.31302 3.1705 4.30305 3.1754C3.77463 3.43961 3.53085 4.00245 3.58348 4.50898C3.63612 5.01552 3.99875 5.5205 4.57994 5.66562C4.8065 5.72206 5.05815 5.75502 5.33241 5.75502C6.72266 5.75502 8.08497 5.32182 8.48817 5.18819C8.7533 5.4842 10.0609 6.94543 10.4978 7.39281C10.8143 7.71662 10.8463 8.03277 10.7648 8.25765C10.6833 8.48253 10.4982 8.65624 10.0949 8.65747C9.9854 8.6578 9.87934 8.6958 9.79454 8.76511C9.70975 8.83441 9.65139 8.93079 9.62928 9.03805C9.5104 9.61302 9.3006 9.69463 9.08666 9.75078C8.87273 9.80694 8.66635 9.75823 8.66635 9.75823C8.59682 9.73925 8.52389 9.73628 8.45304 9.74954C8.38219 9.76279 8.31527 9.79194 8.25731 9.83479C8.19934 9.87763 8.15185 9.93306 8.11839 9.9969C8.08493 10.0607 8.06638 10.1313 8.06413 10.2034C8.06413 10.2034 8.0483 10.4496 7.92692 10.6603C7.80555 10.8711 7.67914 11.0487 7.11299 10.9869C6.99284 10.9737 6.87215 11.0066 6.77533 11.079C6.67852 11.1513 6.6128 11.2578 6.59148 11.3768C6.5266 11.7397 6.32926 11.8972 6.03334 11.9517C5.73743 12.0062 5.33558 11.9093 4.98411 11.5618C4.53409 11.117 2.89322 9.44363 2.15057 8.68541C1.82175 8.34961 1.37144 8.16142 0.902672 8.16142H0.483601C0.420418 8.16052 0.357687 8.1722 0.299055 8.19576C0.240422 8.21932 0.187057 8.2543 0.142061 8.29866C0.0970645 8.34303 0.0613343 8.39589 0.0369466 8.45419C0.0125588 8.51248 0 8.57504 0 8.63823C0 8.70142 0.0125588 8.76398 0.0369466 8.82227C0.0613343 8.88056 0.0970645 8.93343 0.142061 8.97779C0.187057 9.02216 0.240422 9.05714 0.299055 9.0807C0.357687 9.10426 0.420418 9.11593 0.483601 9.11504H0.902672C1.11797 9.11504 1.3196 9.19974 1.4695 9.35282C2.21259 10.1115 3.83797 11.7697 4.3136 12.2398C4.86203 12.782 5.56921 13.007 6.20594 12.8898C6.72222 12.7947 7.17439 12.4346 7.40045 11.9213C7.9442 11.8759 8.36199 11.6262 8.6142 11.3284C8.62061 11.3287 8.62703 11.3289 8.63345 11.329C8.63345 11.329 10.0683 11.354 10.8666 11.329C11.422 11.3117 11.9819 11.1233 12.4759 10.6901C12.6987 10.4949 12.9668 10.3859 13.2395 10.3859H13.5164C13.5796 10.3868 13.6423 10.3751 13.7009 10.3516C13.7596 10.328 13.8129 10.293 13.8579 10.2487C13.9029 10.2043 13.9387 10.1514 13.9631 10.0931C13.9874 10.0348 14 9.97229 14 9.9091C14 9.84591 13.9874 9.78335 13.9631 9.72506C13.9387 9.66676 13.9029 9.6139 13.8579 9.56954C13.8129 9.52517 13.7596 9.49019 13.7009 9.46663C13.6423 9.44307 13.5796 9.4314 13.5164 9.43229H13.2395C12.7137 9.43229 12.2255 9.64191 11.8476 9.97305C11.5005 10.2774 11.2249 10.364 10.8374 10.376H10.8368C10.5765 10.3841 10.2139 10.3825 9.87265 10.3822C10.1159 10.1817 10.334 9.89021 10.4687 9.50058C11.0195 9.37464 11.4864 9.06529 11.6613 8.58297C11.8771 7.98766 11.7093 7.2681 11.1795 6.72602C10.7781 6.31509 8.99602 4.32956 8.99602 4.32956C8.9335 4.25979 8.85182 4.20999 8.76117 4.18636C8.67052 4.16273 8.57492 4.16633 8.48631 4.1967C8.48631 4.1967 6.67038 4.8014 5.33241 4.8014C5.1343 4.8014 4.96198 4.7782 4.8109 4.74056C4.62062 4.69305 4.54872 4.56983 4.53214 4.41027C4.51565 4.25161 4.56786 4.11153 4.7277 4.03031L6.22022 3.41071C6.23943 3.40262 6.2581 3.39329 6.27609 3.38277L7.90768 2.4397C8.26819 2.26024 8.65123 2.24673 8.9985 2.38569L11.1473 3.24494C11.3915 3.34304 11.6522 3.39262 11.9146 3.3927L13.5164 3.39332C13.5796 3.39421 13.6423 3.38254 13.7009 3.35898C13.7596 3.33542 13.8129 3.30044 13.8579 3.25608C13.9029 3.21171 13.9387 3.15885 13.9631 3.10055C13.9874 3.04226 14 2.9797 14 2.91651C14 2.85332 13.9874 2.79076 13.9631 2.73247C13.9387 2.67418 13.9029 2.62131 13.8579 2.57695C13.8129 2.53258 13.7596 2.4976 13.7009 2.47404C13.6423 2.45048 13.5796 2.43881 13.5164 2.4397L11.9152 2.43908C11.7735 2.43908 11.6337 2.41273 11.503 2.36023L11.5018 2.35961L9.35301 1.50036C9.05277 1.38023 8.73241 1.32788 8.41305 1.34267Z" fill="black"/>
</g>
<defs>
<clipPath id="clip0_121_7987">
<rect width="14" height="14" fill="white" transform="translate(0 0.173553)"/>
</clipPath>
</defs>
</svg>
