<svg width="14" height="15" viewBox="0 0 14 15" fill="none" xmlns="http://www.w3.org/2000/svg">
<g clip-path="url(#clip0_365_3354)">
<path d="M2.2085 1.17009C1.96808 1.17819 1.72574 1.23515 1.49607 1.34616L0.312306 1.91908C0.248117 1.94706 0.190238 1.98772 0.142138 2.0386C0.0940388 2.08949 0.0567091 2.14957 0.0323869 2.21523C0.00806461 2.28089 -0.00274943 2.35079 0.000592922 2.42073C0.00393527 2.49067 0.0213652 2.55922 0.051838 2.62227C0.0823107 2.68531 0.125199 2.74155 0.177932 2.78762C0.230664 2.83369 0.292156 2.86864 0.358721 2.89037C0.425286 2.9121 0.495553 2.92017 0.565311 2.91409C0.635069 2.90801 0.702881 2.88791 0.764683 2.85499L1.94912 2.28275C2.34456 2.0916 2.80257 2.26458 2.97307 2.66943L6.01713 9.89933C6.0708 10.0268 6.17196 10.1131 6.24196 10.2278C5.84889 10.2748 5.49403 10.4296 5.26407 10.6883C4.99539 10.9906 4.87264 11.3732 4.87264 11.7488C4.87264 12.1244 4.99539 12.507 5.26407 12.8093C5.53276 13.1116 5.95618 13.3091 6.43294 13.3091C6.90969 13.3091 7.33312 13.1116 7.6018 12.8093C7.87049 12.507 7.99323 12.1244 7.99323 11.7488C7.99323 11.6501 7.96049 11.5537 7.94312 11.4556C8.49657 11.5833 9.08238 11.589 9.64021 11.3445V11.3452L13.6804 9.57495C13.7441 9.54833 13.8019 9.50929 13.8504 9.46011C13.8988 9.41093 13.937 9.35259 13.9627 9.28851C13.9884 9.22442 14.001 9.15586 13.9999 9.08683C13.9988 9.0178 13.984 8.94967 13.9563 8.88643C13.9286 8.82318 13.8886 8.76608 13.8387 8.71846C13.7887 8.67083 13.7297 8.63363 13.6652 8.60903C13.6007 8.58443 13.5319 8.57292 13.4629 8.57516C13.3939 8.57741 13.3261 8.59337 13.2633 8.62212L9.22304 10.3923C8.34906 10.7753 7.34589 10.3748 6.97538 9.49504H6.97606L3.93132 2.26582C3.63427 1.56046 2.92975 1.14577 2.2085 1.17009ZM10.4583 2.54686C10.3163 2.54772 10.1727 2.57666 10.0357 2.63625L6.91917 3.99067C6.37131 4.22859 6.11407 4.88048 6.35235 5.42839L7.75824 8.82122C7.75935 8.82371 7.76048 8.82619 7.76162 8.82866C7.99937 9.37685 8.65127 9.63452 9.19934 9.39617L12.3165 8.04175C12.864 7.80338 13.1213 7.15204 12.8834 6.60403L11.4768 3.2112C11.4759 3.20849 11.475 3.20578 11.4741 3.20308C11.3552 2.92898 11.1327 2.7278 10.8714 2.62474C10.7407 2.57321 10.6003 2.54599 10.4583 2.54686ZM10.4915 3.58638C10.5026 3.59095 10.5115 3.60107 10.5185 3.61685H10.5192L11.9258 7.01035C11.9269 7.01307 11.928 7.01578 11.9292 7.01848C11.9428 7.04994 11.933 7.07346 11.9014 7.08756L8.78489 8.44198C8.75253 8.45605 8.7298 8.44713 8.71581 8.41489L7.30992 5.02206C7.3086 5.01912 7.30724 5.01618 7.30586 5.01326C7.29179 4.9809 7.30139 4.95884 7.33363 4.94486V4.94418L10.4502 3.59044L10.4508 3.58976C10.4669 3.58279 10.4803 3.58181 10.4915 3.58638ZM9.76007 4.80332C9.67821 4.80019 9.59677 4.81643 9.52237 4.85073L8.92575 5.11552C8.86241 5.14261 8.80508 5.18202 8.7571 5.23146C8.70911 5.28089 8.67143 5.33937 8.64623 5.40349C8.62103 5.46761 8.60882 5.53609 8.6103 5.60497C8.61179 5.67385 8.62694 5.74174 8.65489 5.80472C8.68283 5.86769 8.723 5.92448 8.77308 5.9718C8.82315 6.01912 8.88212 6.05602 8.94657 6.08036C9.01103 6.1047 9.07967 6.11599 9.14852 6.11358C9.21737 6.11117 9.28506 6.09511 9.34765 6.06632L9.94427 5.80153C10.053 5.75517 10.1426 5.67318 10.1985 5.56906C10.2544 5.46495 10.2731 5.34491 10.2517 5.2287C10.2303 5.1125 10.1699 5.00706 10.0805 4.92975C9.99117 4.85243 9.87815 4.80784 9.76007 4.80332ZM6.43294 11.2287C6.64964 11.2287 6.74632 11.2912 6.82436 11.379C6.90241 11.4668 6.95303 11.6043 6.95303 11.7488C6.95303 11.8933 6.90241 12.0308 6.82436 12.1186C6.74632 12.2064 6.64964 12.2689 6.43294 12.2689C6.21623 12.2689 6.11955 12.2064 6.04151 12.1186C5.96346 12.0308 5.91284 11.8933 5.91284 11.7488C5.91284 11.6043 5.96346 11.4668 6.04151 11.379C6.11955 11.2912 6.21623 11.2287 6.43294 11.2287Z" fill="black"/>
</g>
<defs>
<clipPath id="clip0_365_3354">
<rect width="14" height="14" fill="white" transform="translate(0 0.173553)"/>
</clipPath>
</defs>
</svg>
