<svg width="14" height="15" viewBox="0 0 14 15" fill="none" xmlns="http://www.w3.org/2000/svg">
<g clip-path="url(#clip0_365_3354)">
<path d="M2.2085 1.23246C1.96808 1.24056 1.72574 1.29752 1.49607 1.40853L0.312306 1.98145C0.248117 2.00943 0.190238 2.05009 0.142138 2.10097C0.0940388 2.15186 0.0567091 2.21194 0.0323869 2.2776C0.00806461 2.34326 -0.00274943 2.41316 0.000592922 2.4831C0.00393527 2.55304 0.0213652 2.62159 0.051838 2.68464C0.0823107 2.74768 0.125199 2.80392 0.177932 2.84999C0.230664 2.89606 0.292156 2.93101 0.358721 2.95274C0.425286 2.97447 0.495553 2.98254 0.565311 2.97646C0.635069 2.97038 0.702881 2.95028 0.764683 2.91736L1.94912 2.34512C2.34456 2.15397 2.80257 2.32695 2.97307 2.7318L6.01713 9.96171C6.0708 10.0891 6.17196 10.1755 6.24196 10.2902C5.84889 10.3372 5.49403 10.492 5.26407 10.7507C4.99539 11.0529 4.87264 11.4355 4.87264 11.8112C4.87264 12.1868 4.99539 12.5694 5.26407 12.8717C5.53276 13.174 5.95618 13.3715 6.43294 13.3715C6.90969 13.3715 7.33312 13.174 7.6018 12.8717C7.87049 12.5694 7.99323 12.1868 7.99323 11.8112C7.99323 11.7125 7.96049 11.616 7.94312 11.5179C8.49657 11.6456 9.08238 11.6513 9.64021 11.4069V11.4075L13.6804 9.63732C13.7441 9.6107 13.8019 9.57166 13.8504 9.52248C13.8988 9.4733 13.937 9.41496 13.9627 9.35088C13.9884 9.28679 14.001 9.21823 13.9999 9.1492C13.9988 9.08017 13.984 9.01204 13.9563 8.9488C13.9286 8.88555 13.8886 8.82845 13.8387 8.78083C13.7887 8.7332 13.7297 8.696 13.6652 8.6714C13.6007 8.6468 13.5319 8.63529 13.4629 8.63753C13.3939 8.63978 13.3261 8.65574 13.2633 8.68449L9.22305 10.4547C8.34906 10.8377 7.34589 10.4372 6.97538 9.55741H6.97606L3.93132 2.32819C3.63427 1.62283 2.92975 1.20814 2.2085 1.23246ZM10.4583 2.60923C10.3163 2.61009 10.1727 2.63903 10.0357 2.69862L6.91917 4.05304C6.37131 4.29096 6.11407 4.94285 6.35235 5.49076L7.75824 8.88359C7.75935 8.88608 7.76048 8.88856 7.76162 8.89103C7.99937 9.43923 8.65127 9.69689 9.19934 9.45854L12.3165 8.10412C12.864 7.86575 13.1213 7.21441 12.8834 6.6664L11.4768 3.27357C11.4759 3.27086 11.475 3.26815 11.4741 3.26545C11.3552 2.99135 11.1327 2.79017 10.8714 2.68711C10.7407 2.63558 10.6003 2.60836 10.4583 2.60923ZM10.4915 3.64875C10.5026 3.65332 10.5115 3.66344 10.5185 3.67922H10.5192L11.9258 7.07272C11.9269 7.07544 11.928 7.07815 11.9292 7.08085C11.9428 7.11231 11.933 7.13583 11.9014 7.14993L8.78489 8.50435C8.75253 8.51842 8.7298 8.5095 8.71581 8.47726L7.30992 5.08443C7.3086 5.08149 7.30724 5.07855 7.30586 5.07563C7.29179 5.04327 7.30139 5.02121 7.33363 5.00723V5.00655L10.4502 3.65281L10.4508 3.65213C10.4669 3.64516 10.4803 3.64418 10.4915 3.64875ZM9.76007 4.86569C9.67821 4.86256 9.59677 4.8788 9.52237 4.9131L8.92575 5.17789C8.86241 5.20499 8.80508 5.2444 8.7571 5.29383C8.70911 5.34326 8.67143 5.40174 8.64623 5.46586C8.62103 5.52998 8.60882 5.59846 8.6103 5.66734C8.61179 5.73622 8.62694 5.80411 8.65489 5.86709C8.68283 5.93006 8.723 5.98685 8.77308 6.03417C8.82315 6.08149 8.88212 6.11839 8.94658 6.14273C9.01103 6.16707 9.07967 6.17836 9.14852 6.17595C9.21737 6.17354 9.28506 6.15748 9.34765 6.12869L9.94427 5.8639C10.053 5.81754 10.1426 5.73555 10.1985 5.63143C10.2544 5.52732 10.2731 5.40728 10.2517 5.29107C10.2303 5.17487 10.1699 5.06943 10.0805 4.99212C9.99117 4.9148 9.87815 4.87021 9.76007 4.86569ZM6.43294 11.2911C6.64964 11.2911 6.74632 11.3536 6.82436 11.4414C6.90241 11.5292 6.95303 11.6667 6.95303 11.8112C6.95303 11.9556 6.90241 12.0931 6.82436 12.1809C6.74632 12.2687 6.64964 12.3313 6.43294 12.3313C6.21623 12.3313 6.11955 12.2687 6.04151 12.1809C5.96346 12.0931 5.91284 11.9556 5.91284 11.8112C5.91284 11.6667 5.96346 11.5292 6.04151 11.4414C6.11955 11.3536 6.21623 11.2911 6.43294 11.2911Z" fill="black"/>
</g>
<defs>
<clipPath id="clip0_365_3354">
<rect width="14" height="14" fill="white" transform="translate(0 0.23584)"/>
</clipPath>
</defs>
</svg>
