<svg width="14" height="15" viewBox="0 0 14 15" fill="none" xmlns="http://www.w3.org/2000/svg">
<g clip-path="url(#clip0_285_4126)">
<path d="M7 0.173553C3.14022 0.173553 0 3.31378 0 7.17355C0 11.0333 3.14022 14.1736 7 14.1736C10.8598 14.1736 14 11.0333 14 7.17355C14 3.31378 10.8598 0.173553 7 0.173553ZM7 1.22355C10.2923 1.22355 12.95 3.88124 12.95 7.17355C12.95 10.4659 10.2923 13.1236 7 13.1236C3.70768 13.1236 1.05 10.4659 1.05 7.17355C1.05 3.88124 3.70768 1.22355 7 1.22355ZM4.9 4.54855C4.66794 4.54855 4.44538 4.64074 4.28128 4.80483C4.11719 4.96893 4.025 5.19149 4.025 5.42355C4.025 5.65562 4.11719 5.87818 4.28128 6.04227C4.44538 6.20637 4.66794 6.29855 4.9 6.29855C5.13206 6.29855 5.35462 6.20637 5.51872 6.04227C5.68281 5.87818 5.775 5.65562 5.775 5.42355C5.775 5.19149 5.68281 4.96893 5.51872 4.80483C5.35462 4.64074 5.13206 4.54855 4.9 4.54855ZM9.1 4.54855C8.86794 4.54855 8.64538 4.64074 8.48128 4.80483C8.31719 4.96893 8.225 5.19149 8.225 5.42355C8.225 5.65562 8.31719 5.87818 8.48128 6.04227C8.64538 6.20637 8.86794 6.29855 9.1 6.29855C9.33206 6.29855 9.55462 6.20637 9.71872 6.04227C9.88281 5.87818 9.975 5.65562 9.975 5.42355C9.975 5.19149 9.88281 4.96893 9.71872 4.80483C9.55462 4.64074 9.33206 4.54855 9.1 4.54855ZM4.1207 8.56808C4.02083 8.56642 3.92255 8.59327 3.83741 8.6455C3.75226 8.69773 3.68378 8.77316 3.64 8.86294C3.59622 8.95272 3.57896 9.05313 3.59025 9.15238C3.60153 9.25163 3.64089 9.3456 3.70371 9.42326C4.47172 10.3993 5.66753 11.0236 7 11.0236C8.33247 11.0236 9.52828 10.3993 10.2963 9.42326C10.34 9.36919 10.3726 9.30698 10.3921 9.24023C10.4116 9.17347 10.4176 9.10352 10.4098 9.03441C10.4021 8.96531 10.3807 8.89843 10.3468 8.83767C10.313 8.77691 10.2674 8.72348 10.2128 8.68047C10.1582 8.63746 10.0955 8.60573 10.0285 8.58713C9.9615 8.56853 9.89147 8.56343 9.82248 8.57211C9.75348 8.5808 9.6869 8.60311 9.6266 8.63774C9.56629 8.67237 9.51347 8.71863 9.47119 8.77385C8.8952 9.50584 8.00553 9.97355 7 9.97355C5.99447 9.97355 5.1048 9.50584 4.52881 8.77385C4.48069 8.71101 4.41899 8.65986 4.34832 8.62423C4.27765 8.5886 4.19984 8.56941 4.1207 8.56808Z" fill="black"/>
</g>
<defs>
<clipPath id="clip0_285_4126">
<rect width="14" height="14" fill="white" transform="translate(0 0.173553)"/>
</clipPath>
</defs>
</svg>
