<svg width="14" height="15" viewBox="0 0 14 15" fill="none" xmlns="http://www.w3.org/2000/svg">
<g clip-path="url(#clip0_580_4861)">
<path d="M7.25265 0.242246C4.00801 0.0895094 1.3125 2.68804 1.3125 5.90244V7.40245V9.73581C1.3125 10.6933 2.06778 11.466 3.00717 11.5412C3.08358 12.8486 4.15344 13.9025 5.4792 13.9025H5.81709C5.9694 14.1036 6.20821 14.2358 6.47921 14.2358H7.47921C7.93855 14.2358 8.31255 13.8622 8.31255 13.4025C8.31255 12.9428 7.93855 12.5692 7.47921 12.5692H6.47921C6.20821 12.5692 5.9694 12.7014 5.81709 12.9025H5.4792C4.70396 12.9025 4.09788 12.3198 4.01239 11.5692H4.81253C4.94513 11.5691 5.0723 11.5165 5.16607 11.4227C5.25983 11.3289 5.31252 11.2018 5.31253 11.0691V7.40245C5.31252 7.26985 5.25983 7.14268 5.16607 7.04891C5.0723 6.95515 4.94513 6.90246 4.81253 6.90245H2.31251V5.90244C2.31251 3.24414 4.51572 1.11435 7.20512 1.24095C9.70996 1.35873 11.6459 3.52243 11.6459 6.04828V6.90245H9.14589C9.01329 6.90246 8.88612 6.95515 8.79235 7.04891C8.69858 7.14268 8.6459 7.26985 8.64589 7.40245V11.0691C8.6459 11.2018 8.69858 11.3289 8.79235 11.4227C8.88612 11.5165 9.01329 11.5691 9.14589 11.5692H10.8126C11.8192 11.5692 12.6459 10.7424 12.6459 9.73581V7.40245V6.04828C12.6459 3.01008 10.3059 0.385805 7.25265 0.242246ZM2.31251 7.90246H4.31252V10.5691H3.14585C2.67977 10.5691 2.31251 10.2019 2.31251 9.73581V7.90246ZM9.6459 7.90246H11.6459V9.73581C11.6459 10.2019 11.2786 10.5691 10.8126 10.5691H9.6459V7.90246Z" fill="black"/>
</g>
<defs>
<clipPath id="clip0_580_4861">
<rect width="14" height="14" fill="white" transform="translate(0 0.23584)"/>
</clipPath>
</defs>
</svg>
