<svg width="14" height="15" viewBox="0 0 14 15" fill="none" xmlns="http://www.w3.org/2000/svg">
<path d="M6.99996 1.34022C3.78348 1.34022 1.16663 3.95708 1.16663 7.17356C1.16663 10.39 3.78348 13.0069 6.99996 13.0069C10.2164 13.0069 12.8333 10.39 12.8333 7.17356C12.8333 3.95708 10.2164 1.34022 6.99996 1.34022ZM6.99996 2.21522C9.74356 2.21522 11.9583 4.42996 11.9583 7.17356C11.9583 9.91715 9.74356 12.1319 6.99996 12.1319C4.25636 12.1319 2.04163 9.91715 2.04163 7.17356C2.04163 4.42996 4.25636 2.21522 6.99996 2.21522ZM6.99996 3.96522C6.03867 3.96522 5.24996 4.75393 5.24996 5.71522V5.86106C5.24914 5.91903 5.25985 5.97659 5.28147 6.03039C5.30309 6.08418 5.33518 6.13315 5.37589 6.17444C5.4166 6.21572 5.4651 6.24851 5.51859 6.27089C5.57208 6.29326 5.62948 6.30479 5.68746 6.30479C5.74544 6.30479 5.80284 6.29326 5.85633 6.27089C5.90982 6.24851 5.95832 6.21572 5.99903 6.17444C6.03974 6.13315 6.07183 6.08418 6.09345 6.03039C6.11507 5.97659 6.12578 5.91903 6.12496 5.86106V5.71522C6.12496 5.22693 6.51167 4.84022 6.99996 4.84022C7.48825 4.84022 7.87496 5.22693 7.87496 5.71522C7.87496 6.39799 7.69744 6.48354 7.38619 6.72808C7.23057 6.85035 7.02672 6.99132 6.85242 7.22881C6.67811 7.4663 6.56246 7.79735 6.56246 8.19439C6.56164 8.25236 6.57235 8.30992 6.59397 8.36372C6.61559 8.41752 6.64768 8.46648 6.68839 8.50777C6.7291 8.54906 6.7776 8.58184 6.83109 8.60422C6.88458 8.6266 6.94198 8.63812 6.99996 8.63812C7.05794 8.63812 7.11534 8.6266 7.16883 8.60422C7.22232 8.58184 7.27082 8.54906 7.31153 8.50777C7.35224 8.46648 7.38433 8.41752 7.40595 8.36372C7.42757 8.30992 7.43828 8.25236 7.43746 8.19439C7.43746 7.94553 7.48587 7.84444 7.55766 7.74663C7.62945 7.64883 7.75373 7.55176 7.92623 7.41623C8.27123 7.14518 8.74996 6.63662 8.74996 5.71522C8.74996 4.75393 7.96125 3.96522 6.99996 3.96522ZM6.99996 9.50689C6.84525 9.50689 6.69688 9.56835 6.58748 9.67774C6.47808 9.78714 6.41663 9.93551 6.41663 10.0902C6.41663 10.2449 6.47808 10.3933 6.58748 10.5027C6.69688 10.6121 6.84525 10.6736 6.99996 10.6736C7.15467 10.6736 7.30304 10.6121 7.41244 10.5027C7.52183 10.3933 7.58329 10.2449 7.58329 10.0902C7.58329 9.93551 7.52183 9.78714 7.41244 9.67774C7.30304 9.56835 7.15467 9.50689 6.99996 9.50689Z" fill="black"/>
</svg>
