<svg width="14" height="15" viewBox="0 0 14 15" fill="none" xmlns="http://www.w3.org/2000/svg">
<path d="M6.99999 1.40259C3.78351 1.40259 1.16666 4.01944 1.16666 7.23592C1.16666 10.4524 3.78351 13.0693 6.99999 13.0693C10.2165 13.0693 12.8333 10.4524 12.8333 7.23592C12.8333 4.01944 10.2165 1.40259 6.99999 1.40259ZM6.99999 2.27759C9.74359 2.27759 11.9583 4.49233 11.9583 7.23592C11.9583 9.97952 9.74359 12.1943 6.99999 12.1943C4.25639 12.1943 2.04166 9.97952 2.04166 7.23592C2.04166 4.49233 4.25639 2.27759 6.99999 2.27759ZM6.99999 4.02759C6.0387 4.02759 5.24999 4.81629 5.24999 5.77759V5.92342C5.24917 5.9814 5.25988 6.03895 5.2815 6.09275C5.30312 6.14655 5.33521 6.19552 5.37592 6.2368C5.41663 6.27809 5.46513 6.31088 5.51862 6.33325C5.57211 6.35563 5.62951 6.36715 5.68749 6.36715C5.74547 6.36715 5.80287 6.35563 5.85636 6.33325C5.90985 6.31088 5.95835 6.27809 5.99906 6.2368C6.03977 6.19552 6.07186 6.14655 6.09348 6.09275C6.1151 6.03895 6.12581 5.9814 6.12499 5.92342V5.77759C6.12499 5.2893 6.5117 4.90259 6.99999 4.90259C7.48828 4.90259 7.87499 5.2893 7.87499 5.77759C7.87499 6.46035 7.69747 6.54591 7.38622 6.79045C7.2306 6.91272 7.02675 7.05369 6.85245 7.29118C6.67814 7.52867 6.56249 7.85972 6.56249 8.25675C6.56167 8.31473 6.57238 8.37229 6.594 8.42609C6.61562 8.47989 6.64771 8.52885 6.68842 8.57014C6.72913 8.61142 6.77763 8.64421 6.83112 8.66659C6.88461 8.68896 6.94201 8.70049 6.99999 8.70049C7.05797 8.70049 7.11537 8.68896 7.16886 8.66659C7.22235 8.64421 7.27085 8.61142 7.31156 8.57014C7.35227 8.52885 7.38436 8.47989 7.40598 8.42609C7.4276 8.37229 7.43831 8.31473 7.43749 8.25675C7.43749 8.00789 7.4859 7.90681 7.55769 7.809C7.62948 7.71119 7.75376 7.61413 7.92626 7.4786C8.27126 7.20754 8.74999 6.69899 8.74999 5.77759C8.74999 4.81629 7.96128 4.02759 6.99999 4.02759ZM6.99999 9.56925C6.84528 9.56925 6.69691 9.63071 6.58751 9.74011C6.47812 9.84951 6.41666 9.99788 6.41666 10.1526C6.41666 10.3073 6.47812 10.4557 6.58751 10.5651C6.69691 10.6745 6.84528 10.7359 6.99999 10.7359C7.1547 10.7359 7.30307 10.6745 7.41247 10.5651C7.52187 10.4557 7.58332 10.3073 7.58332 10.1526C7.58332 9.99788 7.52187 9.84951 7.41247 9.74011C7.30307 9.63071 7.1547 9.56925 6.99999 9.56925Z" fill="black"/>
</svg>
