<svg width="14" height="15" viewBox="0 0 14 15" fill="none" xmlns="http://www.w3.org/2000/svg">
<g clip-path="url(#clip0_668_8654)">
<path d="M6.94277 0.235902C6.46338 0.239782 5.98569 0.425029 5.62577 0.790839L0.533643 5.96699C-0.186195 6.6986 -0.176483 7.89025 0.555137 8.6101L5.73129 13.7022C6.46289 14.4221 7.65455 14.4124 8.3744 13.6807L13.4665 8.50524C13.4667 8.50502 13.467 8.5048 13.4672 8.50458C14.1864 7.77264 14.1767 6.58132 13.445 5.86147L8.26888 0.769345C7.90308 0.409426 7.42215 0.232022 6.94277 0.235902ZM6.95123 1.22984C7.1725 1.22805 7.39429 1.31224 7.5674 1.48255L12.7435 6.57468C13.0897 6.91531 13.0939 7.4572 12.7533 7.80375L7.66119 12.9792C7.32056 13.3254 6.77898 13.3297 6.43277 12.989L1.25662 7.89689C0.910427 7.55626 0.906215 7.01468 1.24685 6.66847L6.33898 1.49232C6.50929 1.31923 6.72997 1.23163 6.95123 1.22984ZM6.99227 3.56031C6.85983 3.56238 6.73362 3.61689 6.64131 3.71188C6.549 3.80688 6.49813 3.9346 6.49986 4.06705V8.06884C6.49892 8.13513 6.51117 8.20094 6.53589 8.26245C6.56061 8.32396 6.5973 8.37995 6.64385 8.42715C6.69039 8.47436 6.74585 8.51184 6.807 8.53743C6.86816 8.56302 6.93379 8.57619 7.00008 8.57619C7.06638 8.57619 7.13201 8.56302 7.19316 8.53743C7.25432 8.51184 7.30978 8.47436 7.35632 8.42715C7.40287 8.37995 7.43956 8.32396 7.46428 8.26245C7.489 8.20094 7.50125 8.13513 7.50031 8.06884V4.06705C7.50118 4.00015 7.48863 3.93376 7.46339 3.8718C7.43815 3.80984 7.40074 3.75357 7.35337 3.70632C7.306 3.65908 7.24964 3.62181 7.18761 3.59673C7.12559 3.57165 7.05916 3.55927 6.99227 3.56031ZM7.00008 9.56952C6.82319 9.56952 6.65355 9.63978 6.52847 9.76486C6.40339 9.88995 6.33312 10.0596 6.33312 10.2365C6.33312 10.4134 6.40339 10.583 6.52847 10.7081C6.65355 10.8332 6.82319 10.9034 7.00008 10.9034C7.17697 10.9034 7.34662 10.8332 7.4717 10.7081C7.59678 10.583 7.66705 10.4134 7.66705 10.2365C7.66705 10.0596 7.59678 9.88995 7.4717 9.76486C7.34662 9.63978 7.17697 9.56952 7.00008 9.56952Z" fill="black"/>
</g>
<defs>
<clipPath id="clip0_668_8654">
<rect width="14" height="14" fill="white" transform="translate(0 0.23584)"/>
</clipPath>
</defs>
</svg>
