<svg width="14" height="15" viewBox="0 0 14 15" fill="none" xmlns="http://www.w3.org/2000/svg">
<g clip-path="url(#clip0_668_8654)">
<path d="M6.94274 0.173608C6.46335 0.177488 5.98566 0.362735 5.62574 0.728545L0.533612 5.90469C-0.186225 6.6363 -0.176513 7.82796 0.555106 8.54781L5.73126 13.6399C6.46286 14.3598 7.65452 14.3501 8.37437 13.6184L13.4665 8.44294C13.4667 8.44273 13.4669 8.44251 13.4671 8.44229C14.1864 7.71035 14.1766 6.51903 13.445 5.79918L8.26885 0.707051C7.90305 0.347132 7.42212 0.169728 6.94274 0.173608ZM6.9512 1.16754C7.17247 1.16575 7.39426 1.24994 7.56737 1.42026L12.7435 6.51239C13.0897 6.85302 13.0938 7.39491 12.7533 7.74146L7.66116 12.917C7.32053 13.2632 6.77895 13.2674 6.43274 12.9267L1.25659 7.8346C0.910396 7.49397 0.906185 6.95239 1.24682 6.60618L6.33895 1.43003C6.50926 1.25693 6.72994 1.16933 6.9512 1.16754ZM6.99224 3.49802C6.8598 3.50009 6.73359 3.5546 6.64128 3.64959C6.54897 3.74458 6.4981 3.87231 6.49983 4.00475V8.00655C6.49889 8.07283 6.51114 8.13864 6.53586 8.20016C6.56057 8.26167 6.59727 8.31765 6.64381 8.36486C6.69036 8.41207 6.74582 8.44955 6.80697 8.47514C6.86813 8.50072 6.93376 8.5139 7.00005 8.5139C7.06635 8.5139 7.13198 8.50072 7.19313 8.47514C7.25429 8.44955 7.30975 8.41207 7.35629 8.36486C7.40284 8.31765 7.43953 8.26167 7.46425 8.20016C7.48897 8.13864 7.50122 8.07283 7.50028 8.00655V4.00475C7.50115 3.93786 7.4886 3.87146 7.46336 3.8095C7.43812 3.74754 7.40071 3.69127 7.35334 3.64403C7.30597 3.59678 7.24961 3.55952 7.18758 3.53444C7.12556 3.50936 7.05913 3.49697 6.99224 3.49802ZM7.00005 9.50722C6.82316 9.50722 6.65352 9.57749 6.52844 9.70257C6.40336 9.82765 6.33309 9.9973 6.33309 10.1742C6.33309 10.3511 6.40336 10.5207 6.52844 10.6458C6.65352 10.7709 6.82316 10.8412 7.00005 10.8412C7.17694 10.8412 7.34659 10.7709 7.47167 10.6458C7.59675 10.5207 7.66702 10.3511 7.66702 10.1742C7.66702 9.9973 7.59675 9.82765 7.47167 9.70257C7.34659 9.57749 7.17694 9.50722 7.00005 9.50722Z" fill="black"/>
</g>
<defs>
<clipPath id="clip0_668_8654">
<rect width="14" height="14" fill="white" transform="translate(0 0.173553)"/>
</clipPath>
</defs>
</svg>
