<svg width="14" height="15" viewBox="0 0 14 15" fill="none" xmlns="http://www.w3.org/2000/svg">
<g clip-path="url(#clip0_653_4250)">
<path d="M5.83333 0.173553C4.82674 0.173553 4 0.962716 4 1.92355V2.71901H1.83333C0.826742 2.71901 0 3.50817 0 4.46901V12.4236C0 13.3844 0.826742 14.1736 1.83333 14.1736H5.83333C5.96594 14.1735 6.09311 14.1233 6.18687 14.0337C6.28064 13.9442 6.33332 13.8229 6.33333 13.6963V11.3099H7.66667V13.6963C7.66668 13.8229 7.71936 13.9442 7.81313 14.0337C7.90689 14.1233 8.03406 14.1735 8.16667 14.1736H12.1667C13.1733 14.1736 14 13.3844 14 12.4236V4.46901C14 3.50817 13.1733 2.71901 12.1667 2.71901H10V1.92355C10 0.962716 9.17326 0.173553 8.16667 0.173553H5.83333ZM5.83333 1.1281H8.16667C8.63274 1.1281 9 1.47866 9 1.92355V4.15083C9 4.59572 8.63274 4.94628 8.16667 4.94628H5.83333C5.36726 4.94628 5 4.59572 5 4.15083V1.92355C5 1.47866 5.36726 1.1281 5.83333 1.1281ZM6.99219 1.75763C6.85969 1.7596 6.73344 1.8117 6.64115 1.90247C6.54887 1.99324 6.4981 2.11526 6.5 2.24174V2.55992H6.16667C6.10041 2.55902 6.03463 2.57071 5.97315 2.59429C5.91166 2.61787 5.8557 2.65289 5.80852 2.6973C5.76133 2.7417 5.72386 2.79462 5.69829 2.85297C5.67271 2.91132 5.65955 2.97394 5.65955 3.03719C5.65955 3.10044 5.67271 3.16306 5.69829 3.22141C5.72386 3.27976 5.76133 3.33268 5.80852 3.37708C5.8557 3.42149 5.91166 3.45651 5.97315 3.48009C6.03463 3.50367 6.10041 3.51536 6.16667 3.51446H6.5V3.83264C6.49906 3.89589 6.5113 3.95868 6.53601 4.01737C6.56072 4.07606 6.5974 4.12948 6.64392 4.17452C6.69044 4.21956 6.74588 4.25532 6.80701 4.27973C6.86814 4.30414 6.93374 4.31671 7 4.31671C7.06626 4.31671 7.13186 4.30414 7.19299 4.27973C7.25412 4.25532 7.30956 4.21956 7.35608 4.17452C7.4026 4.12948 7.43928 4.07606 7.46399 4.01737C7.4887 3.95868 7.50094 3.89589 7.5 3.83264V3.51446H7.83333C7.89959 3.51536 7.96537 3.50367 8.02686 3.48009C8.08834 3.45651 8.1443 3.42149 8.19148 3.37708C8.23867 3.33268 8.27614 3.27976 8.30171 3.22141C8.32729 3.16306 8.34046 3.10044 8.34046 3.03719C8.34046 2.97394 8.32729 2.91132 8.30171 2.85297C8.27614 2.79462 8.23867 2.7417 8.19148 2.6973C8.1443 2.65289 8.08834 2.61787 8.02686 2.59429C7.96537 2.57071 7.89959 2.55902 7.83333 2.55992H7.5V2.24174C7.50096 2.17786 7.48848 2.11444 7.46329 2.05525C7.4381 1.99606 7.40072 1.9423 7.35336 1.89716C7.30601 1.85201 7.24964 1.8164 7.1876 1.79243C7.12556 1.76846 7.05911 1.75663 6.99219 1.75763ZM1.83333 3.67355H4V4.15083C4 5.11166 4.82674 5.90083 5.83333 5.90083H8.16667C9.17326 5.90083 10 5.11166 10 4.15083V3.67355H12.1667C12.6327 3.67355 13 4.02412 13 4.46901V12.4236C13 12.8684 12.6327 13.219 12.1667 13.219H8.66667V11.1508C8.66667 10.717 8.28786 10.3554 7.83333 10.3554H6.16667C5.71214 10.3554 5.33333 10.717 5.33333 11.1508V13.219H1.83333C1.36726 13.219 1 12.8684 1 12.4236V4.46901C1 4.02412 1.36726 3.67355 1.83333 3.67355ZM2.66667 6.53719C2.48267 6.53719 2.33333 6.67974 2.33333 6.85537V7.49173C2.33333 7.66737 2.48267 7.80992 2.66667 7.80992H3.33333C3.51733 7.80992 3.66667 7.66737 3.66667 7.49173V6.85537C3.66667 6.67974 3.51733 6.53719 3.33333 6.53719H2.66667ZM5.33333 6.53719C5.14933 6.53719 5 6.67974 5 6.85537V7.49173C5 7.66737 5.14933 7.80992 5.33333 7.80992H6C6.184 7.80992 6.33333 7.66737 6.33333 7.49173V6.85537C6.33333 6.67974 6.184 6.53719 6 6.53719H5.33333ZM8 6.53719C7.816 6.53719 7.66667 6.67974 7.66667 6.85537V7.49173C7.66667 7.66737 7.816 7.80992 8 7.80992H8.66667C8.85067 7.80992 9 7.66737 9 7.49173V6.85537C9 6.67974 8.85067 6.53719 8.66667 6.53719H8ZM10.6667 6.53719C10.4827 6.53719 10.3333 6.67974 10.3333 6.85537V7.49173C10.3333 7.66737 10.4827 7.80992 10.6667 7.80992H11.3333C11.5173 7.80992 11.6667 7.66737 11.6667 7.49173V6.85537C11.6667 6.67974 11.5173 6.53719 11.3333 6.53719H10.6667ZM2.66667 8.44628C2.48267 8.44628 2.33333 8.58883 2.33333 8.76446V9.40083C2.33333 9.57646 2.48267 9.71901 2.66667 9.71901H3.33333C3.51733 9.71901 3.66667 9.57646 3.66667 9.40083V8.76446C3.66667 8.58883 3.51733 8.44628 3.33333 8.44628H2.66667ZM5.33333 8.44628C5.14933 8.44628 5 8.58883 5 8.76446V9.40083C5 9.57646 5.14933 9.71901 5.33333 9.71901H6C6.184 9.71901 6.33333 9.57646 6.33333 9.40083V8.76446C6.33333 8.58883 6.184 8.44628 6 8.44628H5.33333ZM8 8.44628C7.816 8.44628 7.66667 8.58883 7.66667 8.76446V9.40083C7.66667 9.57646 7.816 9.71901 8 9.71901H8.66667C8.85067 9.71901 9 9.57646 9 9.40083V8.76446C9 8.58883 8.85067 8.44628 8.66667 8.44628H8ZM10.6667 8.44628C10.4827 8.44628 10.3333 8.58883 10.3333 8.76446V9.40083C10.3333 9.57646 10.4827 9.71901 10.6667 9.71901H11.3333C11.5173 9.71901 11.6667 9.57646 11.6667 9.40083V8.76446C11.6667 8.58883 11.5173 8.44628 11.3333 8.44628H10.6667ZM2.66667 10.3554C2.48267 10.3554 2.33333 10.4979 2.33333 10.6736V11.3099C2.33333 11.4856 2.48267 11.6281 2.66667 11.6281H3.33333C3.51733 11.6281 3.66667 11.4856 3.66667 11.3099V10.6736C3.66667 10.4979 3.51733 10.3554 3.33333 10.3554H2.66667ZM10.6667 10.3554C10.4827 10.3554 10.3333 10.4979 10.3333 10.6736V11.3099C10.3333 11.4856 10.4827 11.6281 10.6667 11.6281H11.3333C11.5173 11.6281 11.6667 11.4856 11.6667 11.3099V10.6736C11.6667 10.4979 11.5173 10.3554 11.3333 10.3554H10.6667Z" fill="black"/>
</g>
<defs>
<clipPath id="clip0_653_4250">
<rect width="14" height="14" fill="white" transform="translate(0 0.173553)"/>
</clipPath>
</defs>
</svg>
