<svg width="14" height="15" viewBox="0 0 14 15" fill="none" xmlns="http://www.w3.org/2000/svg">
<g clip-path="url(#clip0_285_4121)">
<path d="M2.13889 0.173553C0.964532 0.173553 0 1.13809 0 2.31244V12.0347C0 13.209 0.964532 14.1736 2.13889 14.1736H11.8611C13.0355 14.1736 14 13.209 14 12.0347V2.31244C14 1.13809 13.0355 0.173553 11.8611 0.173553H2.13889ZM2.13889 1.34022H11.8611C12.4049 1.34022 12.8333 1.76869 12.8333 2.31244V10.2672L10.4954 8.00526L10.4947 8.0045C10.1921 7.71232 9.79489 7.56244 9.40093 7.56244C9.00714 7.56244 8.60995 7.71232 8.30718 8.00526L7.51042 8.7762L5.1072 6.45122C4.80525 6.15846 4.40847 6.00689 4.0127 6.00689C3.61631 6.00689 3.22038 6.1594 2.91895 6.45046L2.91819 6.45122L1.16667 8.14578V2.31244C1.16667 1.76869 1.59513 1.34022 2.13889 1.34022ZM9.52778 2.89578C8.99306 2.89578 8.51815 3.1173 8.2168 3.45632C7.91544 3.79535 7.77778 4.22448 7.77778 4.64578C7.77778 5.06707 7.91544 5.49621 8.2168 5.83523C8.51815 6.17425 8.99306 6.39578 9.52778 6.39578C10.0625 6.39578 10.5374 6.17425 10.8388 5.83523C11.1401 5.49621 11.2778 5.06707 11.2778 4.64578C11.2778 4.22448 11.1401 3.79535 10.8388 3.45632C10.5374 3.1173 10.0625 2.89578 9.52778 2.89578ZM9.52778 4.06244C9.77083 4.06244 9.87926 4.13259 9.9668 4.23106C10.0543 4.32954 10.1111 4.48374 10.1111 4.64578C10.1111 4.80781 10.0543 4.96201 9.9668 5.06049C9.87926 5.15897 9.77083 5.22911 9.52778 5.22911C9.28472 5.22911 9.17629 5.15897 9.08876 5.06049C9.00122 4.96201 8.94444 4.80781 8.94444 4.64578C8.94444 4.48374 9.00122 4.32954 9.08876 4.23106C9.17629 4.13259 9.28472 4.06244 9.52778 4.06244ZM4.0127 7.17355C4.11392 7.17355 4.21374 7.20998 4.29525 7.289L4.29601 7.28976L6.67112 9.5874L3.13618 13.0069H2.13889C1.59513 13.0069 1.16667 12.5784 1.16667 12.0347V9.76893L3.72938 7.28976C3.81219 7.20981 3.91208 7.17355 4.0127 7.17355ZM9.40093 8.72911C9.50398 8.72911 9.60263 8.765 9.68425 8.8438L12.8333 11.8904V12.0347C12.8333 12.5784 12.4049 13.0069 11.8611 13.0069H4.81478L9.11838 8.8438C9.19906 8.76575 9.2985 8.72911 9.40093 8.72911Z" fill="black"/>
</g>
<defs>
<clipPath id="clip0_285_4121">
<rect width="14" height="14" fill="white" transform="translate(0 0.173553)"/>
</clipPath>
</defs>
</svg>
