<svg width="14" height="15" viewBox="0 0 14 15" fill="none" xmlns="http://www.w3.org/2000/svg">
<g clip-path="url(#clip0_1504_9884)">
<path d="M10.15 0.173553C9.16466 0.173553 8.17905 0.549683 7.42725 1.30148C5.92365 2.80508 5.92365 5.24237 7.42725 6.74562C8.93085 8.24887 11.3688 8.24922 12.8721 6.74562C14.376 5.24202 14.3757 2.80508 12.8721 1.30148C12.1203 0.549683 11.1353 0.173553 10.15 0.173553ZM2.275 1.57355C1.022 1.57355 0 2.59555 0 3.84855V11.8986C0 13.1516 1.022 14.1736 2.275 14.1736H10.325C11.578 14.1736 12.6 13.1516 12.6 11.8986V8.57355H12.075H11.55H8.37197C8.23274 8.57357 8.09921 8.62888 8.00076 8.72734C7.9023 8.82579 7.84699 8.95932 7.84697 9.09855C7.84697 9.66092 7.64441 10.0224 7.35273 10.2798C7.06106 10.5372 6.65906 10.6736 6.3 10.6736C5.94094 10.6736 5.53894 10.5372 5.24727 10.2798C4.95559 10.0224 4.75303 9.66092 4.75303 9.09855C4.75301 8.95932 4.6977 8.82579 4.59924 8.72734C4.50079 8.62888 4.36726 8.57357 4.22803 8.57355H1.05V3.84855C1.05 3.17305 1.5995 2.62355 2.275 2.62355H5.8208C5.9398 2.24905 6.10777 1.89905 6.31777 1.57355H2.275ZM8.41777 1.94133C8.50737 1.94133 8.59698 1.97562 8.66523 2.04387L10.15 3.52863L11.6348 2.04387C11.7713 1.90737 11.9932 1.90737 12.1297 2.04387C12.2662 2.18037 12.2662 2.40229 12.1297 2.53879L10.6449 4.02355L12.1297 5.50832C12.2662 5.64482 12.2662 5.86674 12.1297 6.00324C11.9928 6.13974 11.7713 6.13974 11.6348 6.00324L10.15 4.51848L8.66523 6.00324C8.52873 6.13974 8.30681 6.13974 8.17031 6.00324C8.03381 5.86674 8.03381 5.64482 8.17031 5.50832L9.65508 4.02355L8.17031 2.53879C8.03381 2.40229 8.03381 2.18037 8.17031 2.04387C8.23856 1.97562 8.32817 1.94133 8.41777 1.94133ZM1.05 9.62355H3.81309C3.92897 10.2099 4.16745 10.7273 4.55273 11.0673C5.05425 11.5099 5.68851 11.7236 6.3 11.7236C6.91149 11.7236 7.54575 11.5099 8.04727 11.0673C8.43255 10.7273 8.67103 10.2099 8.78691 9.62355H11.55V11.8986C11.55 12.5741 11.0005 13.1236 10.325 13.1236H2.275C1.5995 13.1236 1.05 12.5741 1.05 11.8986V9.62355Z" fill="black"/>
</g>
<defs>
<clipPath id="clip0_1504_9884">
<rect width="14" height="14" fill="white" transform="translate(0 0.173553)"/>
</clipPath>
</defs>
</svg>
