<svg width="14" height="14" viewBox="0 0 14 14" fill="none" xmlns="http://www.w3.org/2000/svg">
<g clip-path="url(#clip0_1156_9883)">
<path d="M2.52778 0C1.13869 0 0 1.13869 0 2.52778V11.4722C0 12.8613 1.13869 14 2.52778 14H11.4722C12.8613 14 14 12.8613 14 11.4722V2.52778C14 1.13869 12.8613 0 11.4722 0H2.52778ZM2.52778 1.16667H11.4722C12.2306 1.16667 12.8333 1.76942 12.8333 2.52778V7.77778H9.30219C9.14749 7.77779 8.99912 7.83926 8.88973 7.94865C8.78034 8.05804 8.71887 8.20641 8.71886 8.36111C8.71886 8.98596 8.49378 9.38761 8.16971 9.67361C7.84563 9.95962 7.39895 10.1111 7 10.1111C6.60105 10.1111 6.15437 9.95962 5.8303 9.67361C5.50622 9.38761 5.28114 8.98596 5.28114 8.36111C5.28113 8.20641 5.21966 8.05804 5.11027 7.94865C5.00088 7.83926 4.85251 7.77779 4.69781 7.77778H1.16667V2.52778C1.16667 1.76942 1.76942 1.16667 2.52778 1.16667ZM1.16667 8.94444H4.23676C4.36552 9.59598 4.6305 10.1708 5.05859 10.5486C5.61583 11.0404 6.32056 11.2778 7 11.2778C7.67944 11.2778 8.38417 11.0404 8.94141 10.5486C9.3695 10.1708 9.63448 9.59598 9.76324 8.94444H12.8333V11.4722C12.8333 12.2306 12.2306 12.8333 11.4722 12.8333H2.52778C1.76942 12.8333 1.16667 12.2306 1.16667 11.4722V8.94444Z" fill="black"/>
</g>
<defs>
<clipPath id="clip0_1156_9883">
<rect width="14" height="14" fill="white"/>
</clipPath>
</defs>
</svg>
