<svg width="14" height="16" viewBox="0 0 14 16" fill="none" xmlns="http://www.w3.org/2000/svg">
<path d="M7 0.836182C3.14022 0.836182 0 3.97641 0 7.83618C0 11.696 3.14022 14.8362 7 14.8362C10.8598 14.8362 14 11.696 14 7.83618C14 3.97641 10.8598 0.836182 7 0.836182ZM7 1.88618C10.2923 1.88618 12.95 4.54387 12.95 7.83618C12.95 11.1285 10.2923 13.7862 7 13.7862C3.70768 13.7862 1.05 11.1285 1.05 7.83618C1.05 4.54387 3.70768 1.88618 7 1.88618ZM7 4.33618C6.81435 4.33618 6.6363 4.40993 6.50503 4.54121C6.37375 4.67248 6.3 4.85053 6.3 5.03618C6.3 5.22183 6.37375 5.39988 6.50503 5.53116C6.6363 5.66243 6.81435 5.73618 7 5.73618C7.18565 5.73618 7.3637 5.66243 7.49497 5.53116C7.62625 5.39988 7.7 5.22183 7.7 5.03618C7.7 4.85053 7.62625 4.67248 7.49497 4.54121C7.3637 4.40993 7.18565 4.33618 7 4.33618ZM6.9918 6.77866C6.85268 6.78084 6.72011 6.83814 6.62321 6.93799C6.52631 7.03783 6.473 7.17206 6.475 7.31118V11.1612C6.47402 11.2308 6.48687 11.2998 6.51281 11.3644C6.53875 11.4289 6.57727 11.4877 6.62612 11.5372C6.67496 11.5868 6.73317 11.6261 6.79736 11.653C6.86154 11.6798 6.93042 11.6937 7 11.6937C7.06958 11.6937 7.13846 11.6798 7.20264 11.653C7.26683 11.6261 7.32504 11.5868 7.37388 11.5372C7.42273 11.4877 7.46125 11.4289 7.48719 11.3644C7.51313 11.2998 7.52598 11.2308 7.525 11.1612V7.31118C7.52601 7.24091 7.5129 7.17116 7.48645 7.10605C7.46 7.04094 7.42075 6.9818 7.37103 6.93214C7.32131 6.88248 7.26212 6.84331 7.19698 6.81695C7.13184 6.79058 7.06206 6.77756 6.9918 6.77866Z" fill="black"/>
</svg>
