<svg width="14" height="16" viewBox="0 0 14 16" fill="none" xmlns="http://www.w3.org/2000/svg">
<path d="M7 0.773655C3.14022 0.773655 0 3.91388 0 7.77365C0 11.6334 3.14022 14.7737 7 14.7737C10.8598 14.7737 14 11.6334 14 7.77365C14 3.91388 10.8598 0.773655 7 0.773655ZM7 1.82365C10.2923 1.82365 12.95 4.48134 12.95 7.77365C12.95 11.066 10.2923 13.7237 7 13.7237C3.70768 13.7237 1.05 11.066 1.05 7.77365C1.05 4.48134 3.70768 1.82365 7 1.82365ZM7 4.27365C6.81435 4.27365 6.6363 4.3474 6.50503 4.47868C6.37375 4.60996 6.3 4.788 6.3 4.97365C6.3 5.15931 6.37375 5.33735 6.50503 5.46863C6.6363 5.5999 6.81435 5.67365 7 5.67365C7.18565 5.67365 7.3637 5.5999 7.49497 5.46863C7.62625 5.33735 7.7 5.15931 7.7 4.97365C7.7 4.788 7.62625 4.60996 7.49497 4.47868C7.3637 4.3474 7.18565 4.27365 7 4.27365ZM6.9918 6.71614C6.85268 6.71831 6.72011 6.77561 6.62321 6.87546C6.52631 6.97531 6.473 7.10953 6.475 7.24865V11.0987C6.47402 11.1682 6.48687 11.2373 6.51281 11.3019C6.53875 11.3664 6.57727 11.4252 6.62612 11.4747C6.67496 11.5243 6.73317 11.5636 6.79736 11.5905C6.86154 11.6173 6.93042 11.6311 7 11.6311C7.06958 11.6311 7.13846 11.6173 7.20264 11.5905C7.26683 11.5636 7.32504 11.5243 7.37388 11.4747C7.42273 11.4252 7.46125 11.3664 7.48719 11.3019C7.51313 11.2373 7.52598 11.1682 7.525 11.0987V7.24865C7.52601 7.17839 7.5129 7.10863 7.48645 7.04352C7.46 6.97841 7.42076 6.91928 7.37103 6.86962C7.32131 6.81996 7.26212 6.78078 7.19698 6.75442C7.13184 6.72806 7.06206 6.71504 6.9918 6.71614V6.71614Z" fill="black"/>
</svg>
