<svg width="14" height="15" viewBox="0 0 14 15" fill="none" xmlns="http://www.w3.org/2000/svg">
<g clip-path="url(#clip0_1949_10102)">
<path d="M7.23213 6.39353e-05C7.16322 0.00113911 7.0952 0.0157764 7.03195 0.0431401C6.9687 0.0705037 6.91146 0.110058 6.8635 0.159544C6.81553 0.20903 6.77779 0.267478 6.75241 0.331553C6.72704 0.395627 6.71453 0.464071 6.71561 0.532978L6.72176 8.01018L5.51929 6.8077C5.47094 6.75735 5.41302 6.71714 5.34894 6.68945C5.28486 6.66175 5.21589 6.64712 5.14609 6.64641C5.07628 6.6457 5.00703 6.65893 4.9424 6.68531C4.87777 6.7117 4.81905 6.75072 4.76968 6.80008C4.72032 6.84945 4.6813 6.90817 4.65491 6.9728C4.62853 7.03743 4.6153 7.10668 4.61601 7.17649C4.61672 7.24629 4.63135 7.31526 4.65905 7.37934C4.68674 7.44342 4.72695 7.50134 4.7773 7.54969L6.87617 9.64855C6.97457 9.74691 7.10802 9.80217 7.24716 9.80217C7.3863 9.80217 7.51974 9.74691 7.61815 9.64855L9.71701 7.54969C9.76737 7.50134 9.80757 7.44342 9.83527 7.37934C9.86297 7.31526 9.8776 7.24629 9.87831 7.17649C9.87902 7.10668 9.86579 7.03743 9.8394 6.9728C9.81301 6.90817 9.774 6.84945 9.72463 6.80008C9.67527 6.75072 9.61655 6.7117 9.55192 6.68531C9.48729 6.65893 9.41804 6.6457 9.34823 6.64641C9.27842 6.64712 9.20946 6.66175 9.14538 6.68945C9.08129 6.71714 9.02338 6.75735 8.97503 6.8077L7.77119 8.01154L7.76504 0.531612C7.76596 0.461439 7.75279 0.391795 7.72631 0.326802C7.69984 0.261808 7.6606 0.202785 7.61091 0.153225C7.56122 0.103665 7.5021 0.0645743 7.43704 0.0382666C7.37197 0.0119589 7.3023 -0.00103147 7.23213 6.39353e-05ZM4.97681 4.07891C4.88641 4.08124 4.79816 4.1069 4.7206 4.15338C3.09836 5.04633 2 6.77522 2 8.75284C2 11.6446 4.35541 14 7.24716 14C10.1389 14 12.4943 11.6446 12.4943 8.75284C12.4943 6.77522 11.396 5.04633 9.77372 4.15338C9.69745 4.10981 9.61147 4.08609 9.52366 4.08438C9.40584 4.08236 9.29076 4.12005 9.19697 4.1914C9.10318 4.26274 9.03613 4.36358 9.00662 4.47766C8.97711 4.59175 8.98686 4.71245 9.0343 4.82032C9.08174 4.92819 9.16411 5.01695 9.26813 5.07232C10.5654 5.78639 11.4449 7.1631 11.4449 8.75284C11.4449 11.0775 9.57178 12.9506 7.24716 12.9506C4.92253 12.9506 3.04943 11.0775 3.04943 8.75284C3.04943 7.1631 3.9289 5.78639 5.22618 5.07232C5.33274 5.01873 5.41786 4.93043 5.46752 4.82199C5.51718 4.71354 5.52841 4.59142 5.49937 4.47573C5.47033 4.36005 5.40275 4.25771 5.30776 4.18557C5.21277 4.11344 5.09604 4.07582 4.97681 4.07891Z" fill="black"/>
</g>
<defs>
<clipPath id="clip0_1949_10102">
<rect width="14" height="14" fill="white" transform="translate(0 0.173553)"/>
</clipPath>
</defs>
</svg>
