<svg width="14" height="16" viewBox="0 0 14 16" fill="none" xmlns="http://www.w3.org/2000/svg">
<path d="M3.75581 0.836338C3.69094 0.836338 3.62588 0.848741 3.56442 0.874349L2.05863 1.4752L0.720219 0.881685C0.563158 0.809983 0.378889 0.826841 0.232071 0.919029C0.088667 1.01463 0 1.17503 0 1.34916V11.9337C0 12.9683 0.84335 13.8116 1.87791 13.8116H9.04809C9.09931 13.8116 9.15026 13.8084 9.20147 13.805C9.10928 13.6547 9.0347 13.4909 8.98007 13.3201C8.92203 13.1426 8.91141 12.9614 8.93872 12.7873H1.87791C1.40672 12.7873 1.02431 12.4049 1.02431 11.9337V2.13807L1.84056 2.49951C1.96689 2.55756 2.11027 2.55806 2.24002 2.50685L3.75581 1.902L5.27161 2.50685C5.39452 2.55806 5.53147 2.55806 5.65439 2.50685L7.17019 1.902L8.68598 2.50685C8.81573 2.55806 8.9591 2.55756 9.08544 2.49951L9.90168 2.13807V8.39664C9.96314 8.35225 10.0281 8.31416 10.0964 8.27661C10.1852 7.84639 10.506 7.49858 10.926 7.37566V1.34916C10.926 1.17503 10.8373 1.01463 10.6939 0.919029C10.5471 0.826841 10.3628 0.809983 10.2058 0.881685L8.86737 1.4752L7.36158 0.874349C7.23866 0.823134 7.10171 0.823134 6.97879 0.874349L5.463 1.4792L3.9472 0.874349C3.88574 0.848741 3.82068 0.836338 3.75581 0.836338ZM2.56078 4.93425C2.49291 4.93329 2.42553 4.94583 2.36255 4.97114C2.29958 4.99645 2.24225 5.03402 2.19392 5.08167C2.14559 5.12933 2.10721 5.18611 2.08102 5.24872C2.05482 5.31134 2.04133 5.37854 2.04133 5.44641C2.04133 5.51428 2.05482 5.58148 2.08102 5.64409C2.10721 5.70671 2.14559 5.76349 2.19392 5.81115C2.24225 5.8588 2.29958 5.89637 2.36255 5.92168C2.42553 5.94699 2.49291 5.95953 2.56078 5.95857H8.36522C8.43308 5.95953 8.50046 5.94699 8.56344 5.92168C8.62642 5.89637 8.68374 5.8588 8.73207 5.81115C8.78041 5.76349 8.81879 5.70671 8.84498 5.64409C8.87118 5.58148 8.88467 5.51428 8.88467 5.44641C8.88467 5.37854 8.87118 5.31134 8.84498 5.24872C8.81879 5.18611 8.78041 5.12933 8.73207 5.08167C8.68374 5.03402 8.62642 4.99645 8.56344 4.97114C8.50046 4.94583 8.43308 4.93329 8.36522 4.93425H2.56078ZM2.56078 8.00719C2.49291 8.00623 2.42553 8.01877 2.36255 8.04408C2.29958 8.06938 2.24225 8.10696 2.19392 8.15461C2.14559 8.20226 2.10721 8.25905 2.08102 8.32166C2.05482 8.38428 2.04133 8.45147 2.04133 8.51935C2.04133 8.58722 2.05482 8.65442 2.08102 8.71703C2.10721 8.77965 2.14559 8.83643 2.19392 8.88408C2.24225 8.93174 2.29958 8.96931 2.36255 8.99462C2.42553 9.01992 2.49291 9.03246 2.56078 9.0315H5.63372C5.70158 9.03246 5.76896 9.01992 5.83194 8.99462C5.89492 8.96931 5.95224 8.93174 6.00058 8.88408C6.04891 8.83643 6.08729 8.77965 6.11348 8.71703C6.13968 8.65442 6.15317 8.58722 6.15317 8.51935C6.15317 8.45147 6.13968 8.38428 6.11348 8.32166C6.08729 8.25905 6.04891 8.20226 6.00058 8.15461C5.95224 8.10696 5.89492 8.06938 5.83194 8.04408C5.76896 8.01877 5.70158 8.00623 5.63372 8.00719H2.56078ZM7.68234 8.00719C7.61447 8.00623 7.54709 8.01877 7.48412 8.04408C7.42114 8.06938 7.36381 8.10696 7.31548 8.15461C7.26715 8.20226 7.22877 8.25905 7.20258 8.32166C7.17638 8.38428 7.16289 8.45147 7.16289 8.51935C7.16289 8.58722 7.17638 8.65442 7.20258 8.71703C7.22877 8.77965 7.26715 8.83643 7.31548 8.88408C7.36381 8.93174 7.42114 8.96931 7.48412 8.99462C7.54709 9.01992 7.61447 9.03246 7.68234 9.0315H8.36522C8.43308 9.03246 8.50046 9.01992 8.56344 8.99462C8.62642 8.96931 8.68374 8.93174 8.73207 8.88408C8.78041 8.83643 8.81879 8.77965 8.84498 8.71703C8.87118 8.65442 8.88467 8.58722 8.88467 8.51935C8.88467 8.45147 8.87118 8.38428 8.84498 8.32166C8.81879 8.25905 8.78041 8.20226 8.73207 8.15461C8.68374 8.10696 8.62642 8.06938 8.56344 8.04408C8.50046 8.01877 8.43308 8.00623 8.36522 8.00719H7.68234ZM11.2674 8.00719C10.9847 8.00719 10.7553 8.23664 10.7553 8.51935V8.74408C10.0697 8.93597 9.56025 9.56359 9.56025 10.3066C9.56025 11.2039 10.2901 11.9344 11.1874 11.9344H11.6889C12.0215 11.9344 12.2924 12.2047 12.2924 12.5372C12.2924 12.8667 12.0241 13.1367 11.6942 13.1394L11.066 13.1454C10.8547 13.1454 10.6701 13.0101 10.6066 12.8093C10.5219 12.5399 10.2344 12.3895 9.96437 12.4746C9.69463 12.5596 9.54458 12.847 9.6296 13.1167C9.79588 13.6443 10.2294 14.0228 10.7559 14.1331V14.3238C10.7559 14.6065 10.9854 14.8359 11.2681 14.8359C11.5508 14.8359 11.7803 14.6065 11.7803 14.3238V14.1551C12.6332 14.1066 13.3161 13.3997 13.3161 12.5366C13.3161 11.6393 12.5862 10.9094 11.6889 10.9094H11.1874C10.8552 10.9094 10.5846 10.6388 10.5846 10.3052C10.5846 9.97779 10.851 9.70782 11.1787 9.70304L11.4595 9.69837C11.6725 9.69837 11.8575 9.83465 11.9196 10.0378C12.0026 10.3086 12.2901 10.4605 12.5592 10.3779C12.8299 10.2953 12.9819 10.0088 12.8993 9.73838C12.7367 9.20813 12.3075 8.82678 11.7796 8.71274V8.51935C11.7796 8.23664 11.5501 8.00719 11.2674 8.00719ZM2.56078 10.0558C2.49291 10.0549 2.42553 10.0674 2.36255 10.0927C2.29958 10.118 2.24225 10.1556 2.19392 10.2032C2.14559 10.2509 2.10721 10.3077 2.08102 10.3703C2.05482 10.4329 2.04133 10.5001 2.04133 10.568C2.04133 10.6358 2.05482 10.703 2.08102 10.7657C2.10721 10.8283 2.14559 10.8851 2.19392 10.9327C2.24225 10.9804 2.29958 11.0179 2.36255 11.0432C2.42553 11.0685 2.49291 11.0811 2.56078 11.0801H5.63372C5.70158 11.0811 5.76896 11.0685 5.83194 11.0432C5.89492 11.0179 5.95224 10.9804 6.00058 10.9327C6.04891 10.8851 6.08729 10.8283 6.11348 10.7657C6.13968 10.703 6.15317 10.6358 6.15317 10.568C6.15317 10.5001 6.13968 10.4329 6.11348 10.3703C6.08729 10.3077 6.04891 10.2509 6.00058 10.2032C5.95224 10.1556 5.89492 10.118 5.83194 10.0927C5.76896 10.0674 5.70158 10.0549 5.63372 10.0558H2.56078ZM7.68234 10.0558C7.61447 10.0549 7.54709 10.0674 7.48412 10.0927C7.42114 10.118 7.36381 10.1556 7.31548 10.2032C7.26715 10.2509 7.22877 10.3077 7.20258 10.3703C7.17638 10.4329 7.16289 10.5001 7.16289 10.568C7.16289 10.6358 7.17638 10.703 7.20258 10.7657C7.22877 10.8283 7.26715 10.8851 7.31548 10.9327C7.36381 10.9804 7.42114 11.0179 7.48412 11.0432C7.54709 11.0685 7.61447 11.0811 7.68234 11.0801H8.36522C8.43308 11.0811 8.50046 11.0685 8.56344 11.0432C8.62642 11.0179 8.68374 10.9804 8.73207 10.9327C8.78041 10.8851 8.81879 10.8283 8.84498 10.7657C8.87118 10.703 8.88467 10.6358 8.88467 10.568C8.88467 10.5001 8.87118 10.4329 8.84498 10.3703C8.81879 10.3077 8.78041 10.2509 8.73207 10.2032C8.68374 10.1556 8.62642 10.118 8.56344 10.0927C8.50046 10.0674 8.43308 10.0549 8.36522 10.0558H7.68234Z" fill="black"/>
</svg>
