<svg width="14" height="16" viewBox="0 0 14 16" fill="none" xmlns="http://www.w3.org/2000/svg">
<path d="M3.75581 0.773929C3.69094 0.773929 3.62588 0.786333 3.56442 0.811941L2.05863 1.41279L0.72022 0.819276C0.563158 0.747574 0.378889 0.764433 0.232071 0.856621C0.088667 0.952224 0 1.11262 0 1.28675V11.8713C0 12.9059 0.84335 13.7492 1.87791 13.7492H9.04809C9.09931 13.7492 9.15026 13.746 9.20147 13.7425C9.10928 13.5923 9.0347 13.4285 8.98007 13.2577C8.92203 13.0802 8.91141 12.899 8.93872 12.7249H1.87791C1.40672 12.7249 1.02431 12.3425 1.02431 11.8713V2.07566L1.84056 2.4371C1.96689 2.49515 2.11027 2.49565 2.24002 2.44444L3.75581 1.83959L5.27161 2.44444C5.39452 2.49565 5.53147 2.49565 5.65439 2.44444L7.17019 1.83959L8.68598 2.44444C8.81573 2.49565 8.9591 2.49515 9.08544 2.4371L9.90168 2.07566V8.33423C9.96314 8.28985 10.0281 8.25175 10.0964 8.2142C10.1852 7.78399 10.506 7.43617 10.926 7.31326V1.28675C10.926 1.11262 10.8373 0.952224 10.6939 0.856621C10.5471 0.764433 10.3628 0.747574 10.2058 0.819276L8.86737 1.41279L7.36158 0.811941C7.23866 0.760725 7.10171 0.760725 6.97879 0.811941L5.463 1.41679L3.9472 0.811941C3.88574 0.786333 3.82068 0.773929 3.75581 0.773929ZM2.56078 4.87184C2.49291 4.87089 2.42553 4.88342 2.36255 4.90873C2.29958 4.93404 2.24225 4.97161 2.19392 5.01926C2.14559 5.06692 2.10721 5.1237 2.08102 5.18632C2.05482 5.24893 2.04133 5.31613 2.04133 5.384C2.04133 5.45187 2.05482 5.51907 2.08102 5.58169C2.10721 5.6443 2.14559 5.70108 2.19392 5.74874C2.24225 5.79639 2.29958 5.83396 2.36255 5.85927C2.42553 5.88458 2.49291 5.89712 2.56078 5.89616H8.36522C8.43308 5.89712 8.50046 5.88458 8.56344 5.85927C8.62642 5.83396 8.68374 5.79639 8.73207 5.74874C8.78041 5.70108 8.81879 5.6443 8.84498 5.58169C8.87118 5.51907 8.88467 5.45187 8.88467 5.384C8.88467 5.31613 8.87118 5.24893 8.84498 5.18632C8.81879 5.1237 8.78041 5.06692 8.73207 5.01926C8.68374 4.97161 8.62642 4.93404 8.56344 4.90873C8.50046 4.88342 8.43308 4.87089 8.36522 4.87184H2.56078ZM2.56078 7.94478C2.49291 7.94382 2.42553 7.95636 2.36255 7.98167C2.29958 8.00697 2.24225 8.04455 2.19392 8.0922C2.14559 8.13985 2.10721 8.19664 2.08102 8.25925C2.05482 8.32187 2.04133 8.38906 2.04133 8.45694C2.04133 8.52481 2.05482 8.59201 2.08102 8.65462C2.10721 8.71724 2.14559 8.77402 2.19392 8.82167C2.24225 8.86933 2.29958 8.9069 2.36255 8.93221C2.42553 8.95751 2.49291 8.97005 2.56078 8.96909H5.63372C5.70158 8.97005 5.76896 8.95751 5.83194 8.93221C5.89492 8.9069 5.95224 8.86933 6.00058 8.82167C6.04891 8.77402 6.08729 8.71724 6.11348 8.65462C6.13968 8.59201 6.15317 8.52481 6.15317 8.45694C6.15317 8.38906 6.13968 8.32187 6.11348 8.25925C6.08729 8.19664 6.04891 8.13985 6.00058 8.0922C5.95224 8.04455 5.89492 8.00697 5.83194 7.98167C5.76896 7.95636 5.70158 7.94382 5.63372 7.94478H2.56078ZM7.68234 7.94478C7.61447 7.94382 7.54709 7.95636 7.48412 7.98167C7.42114 8.00697 7.36381 8.04455 7.31548 8.0922C7.26715 8.13985 7.22877 8.19664 7.20258 8.25925C7.17638 8.32187 7.16289 8.38906 7.16289 8.45694C7.16289 8.52481 7.17638 8.59201 7.20258 8.65462C7.22877 8.71724 7.26715 8.77402 7.31548 8.82167C7.36381 8.86933 7.42114 8.9069 7.48412 8.93221C7.54709 8.95751 7.61447 8.97005 7.68234 8.96909H8.36522C8.43308 8.97005 8.50046 8.95751 8.56344 8.93221C8.62642 8.9069 8.68374 8.86933 8.73207 8.82167C8.78041 8.77402 8.81879 8.71724 8.84498 8.65462C8.87118 8.59201 8.88467 8.52481 8.88467 8.45694C8.88467 8.38906 8.87118 8.32187 8.84498 8.25925C8.81879 8.19664 8.78041 8.13985 8.73207 8.0922C8.68374 8.04455 8.62642 8.00697 8.56344 7.98167C8.50046 7.95636 8.43308 7.94382 8.36522 7.94478H7.68234ZM11.2674 7.94478C10.9847 7.94478 10.7553 8.17423 10.7553 8.45694V8.68167C10.0697 8.87356 9.56025 9.50118 9.56025 10.2441C9.56025 11.1414 10.2901 11.872 11.1874 11.872H11.6889C12.0215 11.872 12.2924 12.1423 12.2924 12.4748C12.2924 12.8043 12.0241 13.0743 11.6942 13.077L11.066 13.083C10.8547 13.083 10.6701 12.9477 10.6066 12.7469C10.5219 12.4775 10.2344 12.3271 9.96437 12.4121C9.69463 12.4972 9.54458 12.7846 9.6296 13.0543C9.79588 13.5819 10.2294 13.9604 10.7559 14.0706V14.2614C10.7559 14.5441 10.9854 14.7735 11.2681 14.7735C11.5508 14.7735 11.7803 14.5441 11.7803 14.2614V14.0927C12.6332 14.0442 13.3161 13.3373 13.3161 12.4742C13.3161 11.5769 12.5862 10.847 11.6889 10.847H11.1874C10.8552 10.847 10.5846 10.5764 10.5846 10.2428C10.5846 9.91538 10.851 9.64541 11.1787 9.64063L11.4595 9.63596C11.6725 9.63596 11.8575 9.77224 11.9196 9.9754C12.0026 10.2462 12.2901 10.3981 12.5592 10.3155C12.8299 10.2329 12.9819 9.94639 12.8993 9.67598C12.7367 9.14572 12.3075 8.76437 11.7796 8.65033V8.45694C11.7796 8.17423 11.5501 7.94478 11.2674 7.94478ZM2.56078 9.99341C2.49291 9.99245 2.42553 10.005 2.36255 10.0303C2.29958 10.0556 2.24225 10.0932 2.19392 10.1408C2.14559 10.1885 2.10721 10.2453 2.08102 10.3079C2.05482 10.3705 2.04133 10.4377 2.04133 10.5056C2.04133 10.5734 2.05482 10.6406 2.08102 10.7032C2.10721 10.7659 2.14559 10.8226 2.19392 10.8703C2.24225 10.918 2.29958 10.9555 2.36255 10.9808C2.42553 11.0061 2.49291 11.0187 2.56078 11.0177H5.63372C5.70158 11.0187 5.76896 11.0061 5.83194 10.9808C5.89492 10.9555 5.95224 10.918 6.00058 10.8703C6.04891 10.8226 6.08729 10.7659 6.11348 10.7032C6.13968 10.6406 6.15317 10.5734 6.15317 10.5056C6.15317 10.4377 6.13968 10.3705 6.11348 10.3079C6.08729 10.2453 6.04891 10.1885 6.00058 10.1408C5.95224 10.0932 5.89492 10.0556 5.83194 10.0303C5.76896 10.005 5.70158 9.99245 5.63372 9.99341H2.56078ZM7.68234 9.99341C7.61447 9.99245 7.54709 10.005 7.48412 10.0303C7.42114 10.0556 7.36381 10.0932 7.31548 10.1408C7.26715 10.1885 7.22877 10.2453 7.20258 10.3079C7.17638 10.3705 7.16289 10.4377 7.16289 10.5056C7.16289 10.5734 7.17638 10.6406 7.20258 10.7032C7.22877 10.7659 7.26715 10.8226 7.31548 10.8703C7.36381 10.918 7.42114 10.9555 7.48412 10.9808C7.54709 11.0061 7.61447 11.0187 7.68234 11.0177H8.36522C8.43308 11.0187 8.50046 11.0061 8.56344 10.9808C8.62642 10.9555 8.68374 10.918 8.73207 10.8703C8.78041 10.8226 8.81879 10.7659 8.84498 10.7032C8.87118 10.6406 8.88467 10.5734 8.88467 10.5056C8.88467 10.4377 8.87118 10.3705 8.84498 10.3079C8.81879 10.2453 8.78041 10.1885 8.73207 10.1408C8.68374 10.0932 8.62642 10.0556 8.56344 10.0303C8.50046 10.005 8.43308 9.99245 8.36522 9.99341H7.68234Z" fill="black"/>
</svg>
