<svg width="14" height="15" viewBox="0 0 14 15" fill="none" xmlns="http://www.w3.org/2000/svg">
<g clip-path="url(#clip0_285_4109)">
<path d="M9.52983 0.174215C9.50641 0.175295 9.48308 0.177709 9.45994 0.181445H5.03043C4.94868 0.180288 4.86751 0.195392 4.79164 0.225878C4.71578 0.256364 4.64673 0.301624 4.58851 0.359028C4.53028 0.416431 4.48405 0.484834 4.4525 0.560261C4.42094 0.635688 4.40469 0.716634 4.40469 0.798395C4.40469 0.880157 4.42094 0.961103 4.4525 1.03653C4.48405 1.11196 4.53028 1.18036 4.58851 1.23776C4.64673 1.29517 4.71578 1.34043 4.79164 1.37091C4.86751 1.4014 4.94868 1.4165 5.03043 1.41535H8.65421L4.19658 12.9318H0.917424C0.835671 12.9306 0.754503 12.9457 0.678638 12.9762C0.602773 13.0067 0.533723 13.0519 0.475502 13.1093C0.41728 13.1667 0.371048 13.2351 0.339493 13.3106C0.307937 13.386 0.291687 13.4669 0.291687 13.5487C0.291687 13.6305 0.307937 13.7114 0.339493 13.7868C0.371048 13.8623 0.41728 13.9307 0.475502 13.9881C0.533723 14.0455 0.602773 14.0907 0.678638 14.1212C0.754503 14.1517 0.835671 14.1668 0.917424 14.1657H4.51711C4.58229 14.1762 4.64874 14.1762 4.71392 14.1657H9.55473C9.63649 14.1668 9.71765 14.1517 9.79352 14.1212C9.86938 14.0907 9.93843 14.0455 9.99666 13.9881C10.0549 13.9307 10.1011 13.8623 10.1327 13.7868C10.1642 13.7114 10.1805 13.6305 10.1805 13.5487C10.1805 13.4669 10.1642 13.386 10.1327 13.3106C10.1011 13.2351 10.0549 13.1667 9.99666 13.1093C9.93843 13.0519 9.86938 13.0067 9.79352 12.9762C9.71765 12.9457 9.63649 12.9306 9.55473 12.9318H5.51965L9.97728 1.41535H12.8451C12.9269 1.4165 13.0081 1.4014 13.0839 1.37091C13.1598 1.34043 13.2288 1.29517 13.2871 1.23776C13.3453 1.18036 13.3915 1.11196 13.4231 1.03653C13.4546 0.961103 13.4709 0.880157 13.4709 0.798395C13.4709 0.716634 13.4546 0.635688 13.4231 0.560261C13.3915 0.484834 13.3453 0.416431 13.2871 0.359028C13.2288 0.301624 13.1598 0.256364 13.0839 0.225878C13.0081 0.195392 12.9269 0.180288 12.8451 0.181445H9.65675C9.61481 0.174671 9.57227 0.172248 9.52983 0.174215Z" fill="black"/>
</g>
<defs>
<clipPath id="clip0_285_4109">
<rect width="14" height="14" fill="white" transform="translate(0 0.173553)"/>
</clipPath>
</defs>
</svg>
