<svg width="14" height="15" viewBox="0 0 14 15" fill="none" xmlns="http://www.w3.org/2000/svg">
<g clip-path="url(#clip0_666_8420)">
<path d="M4.62939 0.173553C5.27074 0.173553 5.9126 0.416871 6.39903 0.903302C7.3719 1.87616 7.3719 3.46907 6.39903 4.44193L5.75985 5.08046L10.6049 9.92547C10.6494 9.95735 10.6883 9.99631 10.7202 10.0408L12.5947 11.9153C12.6516 11.9529 12.7001 12.0017 12.7374 12.0587L13.6652 12.9859C13.7133 13.032 13.7516 13.0872 13.778 13.1483C13.8044 13.2094 13.8184 13.2752 13.8191 13.3418C13.8197 13.4083 13.8071 13.4744 13.782 13.536C13.7568 13.5976 13.7196 13.6536 13.6725 13.7007C13.6254 13.7478 13.5694 13.785 13.5078 13.8102C13.4462 13.8353 13.3801 13.8479 13.3136 13.8473C13.247 13.8466 13.1812 13.8326 13.1201 13.8062C13.059 13.7798 13.0038 13.7415 12.9576 13.6934L12.3106 13.0464L11.33 14.027C11.2362 14.1209 11.1089 14.1736 10.9763 14.1736C10.8436 14.1736 10.7163 14.1209 10.6225 14.027L8.97466 12.3793L8.66125 12.6927C8.61515 12.7407 8.55992 12.779 8.4988 12.8054C8.43769 12.8318 8.37192 12.8458 8.30535 12.8465C8.23878 12.8471 8.17274 12.8345 8.1111 12.8094C8.04946 12.7842 7.99347 12.747 7.94639 12.6999C7.89931 12.6528 7.86211 12.5968 7.83694 12.5352C7.81178 12.4736 7.79916 12.4075 7.79984 12.341C7.80052 12.2744 7.81447 12.2086 7.84088 12.1475C7.86729 12.0864 7.90564 12.0312 7.95366 11.9851L8.56548 11.3732C8.5965 11.3305 8.6341 11.2928 8.67689 11.2618L9.60146 10.3373L5.05226 5.78806L4.41373 6.42659C3.44086 7.39945 1.84861 7.39945 0.87575 6.42659C-0.0974865 5.45376 -0.0974865 3.86143 0.87575 2.88861L1.51428 2.25008L1.28167 2.01747C1.20948 1.94716 1.1602 1.8567 1.14027 1.75792C1.12034 1.65914 1.1307 1.55664 1.16999 1.46385C1.20927 1.37105 1.27566 1.29228 1.36046 1.23783C1.44526 1.18339 1.54451 1.15581 1.64524 1.15871C1.7752 1.1625 1.89858 1.21671 1.98927 1.30988L2.22188 1.54248L2.86041 0.903302C3.34684 0.416871 3.98804 0.173553 4.62939 0.173553ZM4.62939 1.16849C4.24626 1.16849 3.86319 1.31571 3.568 1.6109L2.92947 2.25008L2.99007 2.31067C3.03809 2.35678 3.07643 2.41201 3.10284 2.47312C3.12926 2.53424 3.14321 2.60001 3.14389 2.66658C3.14456 2.73315 3.13195 2.79919 3.10678 2.86083C3.08162 2.92246 3.04441 2.97846 2.99733 3.02554C2.95026 3.07261 2.89426 3.10982 2.83262 3.13499C2.77099 3.16015 2.70495 3.17277 2.63838 3.17209C2.5718 3.17141 2.50603 3.15746 2.44492 3.13105C2.38381 3.10463 2.32858 3.06629 2.28247 3.01827L2.22188 2.95767L1.58335 3.5962C0.992669 4.18663 0.992669 5.12857 1.58335 5.71899C2.17373 6.30938 3.11575 6.30938 3.70613 5.71899L4.34466 5.08046L4.28407 5.01987C4.21187 4.94956 4.16259 4.85909 4.14266 4.76031C4.12274 4.66153 4.13309 4.55904 4.17238 4.46624C4.21167 4.37344 4.27806 4.29467 4.36285 4.24023C4.44765 4.18578 4.54691 4.15821 4.64764 4.16111C4.77759 4.1649 4.90098 4.21911 4.99166 4.31227L5.05226 4.37287L5.69144 3.73434C6.28182 3.14395 6.28182 2.20128 5.69144 1.6109C5.39625 1.31571 5.01253 1.16849 4.62939 1.16849ZM10.3091 11.0449L9.68225 11.6717L10.9763 12.9657L11.6031 12.3389L10.3091 11.0449Z" fill="black"/>
</g>
<defs>
<clipPath id="clip0_666_8420">
<rect width="14" height="14" fill="white" transform="translate(0 0.173553)"/>
</clipPath>
</defs>
</svg>
