<svg width="14" height="15" viewBox="0 0 14 15" fill="none" xmlns="http://www.w3.org/2000/svg">
<g clip-path="url(#clip0_666_8420)">
<path d="M4.62939 0.23584C5.27074 0.23584 5.9126 0.479157 6.39903 0.965588C7.3719 1.93845 7.3719 3.53136 6.39903 4.50422L5.75985 5.14275L10.6049 9.98776C10.6494 10.0196 10.6883 10.0586 10.7202 10.1031L12.5947 11.9776C12.6516 12.0152 12.7001 12.064 12.7374 12.121L13.6652 13.0481C13.7133 13.0942 13.7516 13.1495 13.778 13.2106C13.8044 13.2717 13.8184 13.3375 13.8191 13.404C13.8197 13.4706 13.8071 13.5367 13.782 13.5983C13.7568 13.6599 13.7196 13.7159 13.6725 13.763C13.6254 13.8101 13.5694 13.8473 13.5078 13.8725C13.4462 13.8976 13.3801 13.9102 13.3136 13.9096C13.247 13.9089 13.1812 13.8949 13.1201 13.8685C13.059 13.8421 13.0038 13.8038 12.9576 13.7557L12.3106 13.1087L11.33 14.0893C11.2362 14.1831 11.1089 14.2358 10.9763 14.2358C10.8436 14.2358 10.7163 14.1831 10.6225 14.0893L8.97466 12.4415L8.66125 12.7549C8.61515 12.803 8.55992 12.8413 8.4988 12.8677C8.43769 12.8941 8.37192 12.9081 8.30535 12.9088C8.23878 12.9094 8.17274 12.8968 8.1111 12.8717C8.04946 12.8465 7.99347 12.8093 7.94639 12.7622C7.89931 12.7151 7.86211 12.6591 7.83694 12.5975C7.81178 12.5359 7.79916 12.4698 7.79984 12.4032C7.80052 12.3367 7.81447 12.2709 7.84088 12.2098C7.86729 12.1487 7.90564 12.0935 7.95366 12.0473L8.56548 11.4355C8.5965 11.3927 8.6341 11.3551 8.67689 11.3241L9.60146 10.3995L5.05226 5.85034L4.41373 6.48887C3.44086 7.46174 1.84861 7.46174 0.87575 6.48887C-0.0974865 5.51605 -0.0974865 3.92372 0.87575 2.9509L1.51428 2.31237L1.28167 2.07976C1.20948 2.00945 1.1602 1.91899 1.14027 1.82021C1.12034 1.72143 1.1307 1.61893 1.16999 1.52613C1.20927 1.43334 1.27566 1.35456 1.36046 1.30012C1.44526 1.24567 1.54451 1.2181 1.64524 1.221C1.7752 1.22479 1.89858 1.279 1.98927 1.37216L2.22188 1.60477L2.86041 0.965588C3.34684 0.479157 3.98804 0.23584 4.62939 0.23584ZM4.62939 1.23077C4.24626 1.23077 3.86319 1.37799 3.568 1.67318L2.92947 2.31237L2.99007 2.37296C3.03809 2.41907 3.07643 2.4743 3.10284 2.53541C3.12926 2.59652 3.14321 2.66229 3.14389 2.72887C3.14456 2.79544 3.13195 2.86148 3.10678 2.92311C3.08162 2.98475 3.04441 3.04075 2.99733 3.08782C2.95026 3.1349 2.89426 3.17211 2.83262 3.19728C2.77099 3.22244 2.70495 3.23505 2.63838 3.23438C2.5718 3.2337 2.50603 3.21975 2.44492 3.19333C2.38381 3.16692 2.32858 3.12858 2.28247 3.08056L2.22188 3.01996L1.58335 3.65849C0.992669 4.24892 0.992669 5.19085 1.58335 5.78128C2.17373 6.37166 3.11575 6.37166 3.70613 5.78128L4.34466 5.14275L4.28407 5.08215C4.21187 5.01184 4.16259 4.92138 4.14266 4.8226C4.12274 4.72382 4.13309 4.62132 4.17238 4.52853C4.21167 4.43573 4.27806 4.35696 4.36285 4.30251C4.44765 4.24807 4.54691 4.22049 4.64764 4.22339C4.77759 4.22718 4.90098 4.2814 4.99166 4.37456L5.05226 4.43515L5.69144 3.79662C6.28182 3.20624 6.28182 2.26357 5.69144 1.67318C5.39625 1.37799 5.01253 1.23077 4.62939 1.23077ZM10.3091 11.1071L9.68225 11.7339L10.9763 13.0279L11.6031 12.4011L10.3091 11.1071Z" fill="black"/>
</g>
<defs>
<clipPath id="clip0_666_8420">
<rect width="14" height="14" fill="white" transform="translate(0 0.23584)"/>
</clipPath>
</defs>
</svg>
