<svg width="14" height="15" viewBox="0 0 14 15" fill="none" xmlns="http://www.w3.org/2000/svg">
<path d="M9.21053 -0.313246C6.57199 -0.313246 4.42105 1.83769 4.42105 4.47623C4.42105 4.8013 4.48838 5.10377 4.55058 5.40735L0.161904 9.79603C0.0582653 9.89965 2.81947e-05 10.0402 0 10.1868V13.1341C1.46541e-05 13.2807 0.058243 13.4212 0.161878 13.5249C0.265514 13.6285 0.406069 13.6867 0.552632 13.6868H3.5C3.64656 13.6867 3.78712 13.6285 3.89075 13.5249C3.99439 13.4212 4.05262 13.2807 4.05263 13.1341V12.2131H5.34211C5.48867 12.2131 5.62922 12.1548 5.73286 12.0512C5.83649 11.9476 5.89472 11.807 5.89474 11.6604V10.371H7.18421C7.33077 10.3709 7.47133 10.3127 7.57496 10.2091C7.6786 10.1055 7.73683 9.9649 7.73684 9.81833V9.00594C8.20516 9.15864 8.69315 9.2657 9.21053 9.2657C11.8491 9.2657 14 7.11476 14 4.47623C14 1.83769 11.8491 -0.313246 9.21053 -0.313246ZM9.21053 0.792017C11.2517 0.792017 12.8947 2.43508 12.8947 4.47623C12.8947 6.51738 11.2517 8.16044 9.21053 8.16044C8.5704 8.16044 7.97234 7.99855 7.44901 7.71286C7.36485 7.66694 7.27019 7.64369 7.17433 7.64542C7.07847 7.64714 6.98471 7.67377 6.90225 7.72269C6.8198 7.77162 6.75149 7.84114 6.70403 7.92445C6.65657 8.00776 6.63161 8.10198 6.63158 8.19786V9.2657H5.34211C5.19554 9.26572 5.05499 9.32395 4.95135 9.42758C4.84772 9.53122 4.78949 9.67177 4.78947 9.81833V11.1078H3.5C3.35344 11.1078 3.21288 11.166 3.10925 11.2697C3.00561 11.3733 2.94738 11.5139 2.94737 11.6604V12.5815H1.10526V10.4156L5.522 5.99884C5.59125 5.92962 5.64087 5.84324 5.66578 5.74854C5.69069 5.65384 5.68999 5.55422 5.66375 5.45988C5.57564 5.14273 5.52632 4.81505 5.52632 4.47623C5.52632 2.43508 7.16938 0.792017 9.21053 0.792017ZM9.94737 2.63412C9.65423 2.63412 9.37311 2.75057 9.16583 2.95785C8.95855 3.16512 8.8421 3.44625 8.8421 3.73939C8.8421 4.03252 8.95855 4.31365 9.16583 4.52093C9.37311 4.7282 9.65423 4.84465 9.94737 4.84465C10.2405 4.84465 10.5216 4.7282 10.7289 4.52093C10.9362 4.31365 11.0526 4.03252 11.0526 3.73939C11.0526 3.44625 10.9362 3.16512 10.7289 2.95785C10.5216 2.75057 10.2405 2.63412 9.94737 2.63412Z" fill="black"/>
</svg>
