<svg width="14" height="16" viewBox="0 0 14 16" fill="none" xmlns="http://www.w3.org/2000/svg">
<path d="M9.21053 0.77356C6.57199 0.77356 4.42105 2.9245 4.42105 5.56303C4.42105 5.88811 4.48838 6.19058 4.55058 6.49416L0.161904 10.8828C0.0582653 10.9865 2.81947e-05 11.127 0 11.2736V14.2209C1.46541e-05 14.3675 0.058243 14.508 0.161878 14.6117C0.265514 14.7153 0.406069 14.7735 0.552632 14.7736H3.5C3.64656 14.7735 3.78712 14.7153 3.89075 14.6117C3.99439 14.508 4.05262 14.3675 4.05263 14.2209V13.2999H5.34211C5.48867 13.2999 5.62922 13.2416 5.73286 13.138C5.83649 13.0344 5.89472 12.8938 5.89474 12.7472V11.4578H7.18421C7.33077 11.4578 7.47133 11.3995 7.57496 11.2959C7.6786 11.1923 7.73683 11.0517 7.73684 10.9051V10.0927C8.20516 10.2454 8.69315 10.3525 9.21053 10.3525C11.8491 10.3525 14 8.20157 14 5.56303C14 2.9245 11.8491 0.77356 9.21053 0.77356ZM9.21053 1.87882C11.2517 1.87882 12.8947 3.52188 12.8947 5.56303C12.8947 7.60418 11.2517 9.24724 9.21053 9.24724C8.5704 9.24724 7.97234 9.08535 7.44901 8.79967C7.36485 8.75374 7.27019 8.7305 7.17433 8.73222C7.07847 8.73395 6.98471 8.76058 6.90225 8.8095C6.8198 8.85842 6.75149 8.92795 6.70403 9.01126C6.65657 9.09457 6.63161 9.18879 6.63158 9.28466V10.3525H5.34211C5.19554 10.3525 5.05499 10.4108 4.95135 10.5144C4.84772 10.618 4.78949 10.7586 4.78947 10.9051V12.1946H3.5C3.35344 12.1946 3.21288 12.2529 3.10925 12.3565C3.00561 12.4601 2.94738 12.6007 2.94737 12.7472V13.6683H1.10526V11.5024L5.522 7.08565C5.59125 7.01642 5.64087 6.93004 5.66578 6.83534C5.69069 6.74064 5.68999 6.64103 5.66375 6.54669C5.57564 6.22954 5.52632 5.90185 5.52632 5.56303C5.52632 3.52188 7.16938 1.87882 9.21053 1.87882ZM9.94737 3.72093C9.65423 3.72093 9.37311 3.83737 9.16583 4.04465C8.95855 4.25193 8.8421 4.53306 8.8421 4.82619C8.8421 5.11933 8.95855 5.40045 9.16583 5.60773C9.37311 5.81501 9.65423 5.93145 9.94737 5.93145C10.2405 5.93145 10.5216 5.81501 10.7289 5.60773C10.9362 5.40045 11.0526 5.11933 11.0526 4.82619C11.0526 4.53306 10.9362 4.25193 10.7289 4.04465C10.5216 3.83737 10.2405 3.72093 9.94737 3.72093Z" fill="black"/>
</svg>
