<svg width="14" height="13" viewBox="0 0 14 13" fill="none" xmlns="http://www.w3.org/2000/svg">
<path d="M6.01275 0.173826C5.86135 0.178238 5.7176 0.2414 5.61195 0.349938L0.170686 5.7912C0.0613953 5.90053 0 6.0488 0 6.20339C0 6.35798 0.0613953 6.50625 0.170686 6.61558L5.61195 12.0568C5.66567 12.1128 5.73001 12.1575 5.80121 12.1882C5.87241 12.219 5.94903 12.2353 6.02659 12.2361C6.10416 12.2368 6.18109 12.2221 6.2529 12.1928C6.32472 12.1635 6.38995 12.1202 6.4448 12.0653C6.49965 12.0105 6.543 11.9452 6.57232 11.8734C6.60163 11.8016 6.61633 11.7247 6.61554 11.6471C6.61475 11.5695 6.5985 11.4929 6.56772 11.4217C6.53695 11.3505 6.49228 11.2862 6.43633 11.2325L1.99026 6.78638H13.4087C13.486 6.78748 13.5627 6.7732 13.6343 6.74439C13.706 6.71559 13.7713 6.67282 13.8263 6.61857C13.8813 6.56433 13.925 6.49969 13.9548 6.42842C13.9846 6.35714 14 6.28065 14 6.20339C14 6.12613 13.9846 6.04964 13.9548 5.97836C13.925 5.90709 13.8813 5.84245 13.8263 5.78821C13.7713 5.73396 13.706 5.69119 13.6343 5.66239C13.5627 5.63358 13.486 5.61931 13.4087 5.6204H1.99026L6.43633 1.17433C6.52044 1.09241 6.57786 0.987017 6.60108 0.871933C6.62429 0.756848 6.61222 0.637435 6.56645 0.529322C6.52068 0.421209 6.44334 0.329432 6.34454 0.266002C6.24575 0.202573 6.13011 0.170446 6.01275 0.173826Z" fill="black"/>
</svg>
