<svg width="14" height="13" viewBox="0 0 14 13" fill="none" xmlns="http://www.w3.org/2000/svg">
<path d="M6.01275 0.0557704C5.86135 0.060183 5.7176 0.123344 5.61195 0.231883L0.170686 5.67314C0.0613953 5.78248 0 5.93074 0 6.08534C0 6.23993 0.0613953 6.38819 0.170686 6.49753L5.61195 11.9388C5.66567 11.9947 5.73001 12.0394 5.80121 12.0702C5.87241 12.101 5.94903 12.1172 6.02659 12.118C6.10416 12.1188 6.18109 12.1041 6.2529 12.0748C6.32472 12.0455 6.38995 12.0021 6.4448 11.9473C6.49965 11.8924 6.543 11.8272 6.57232 11.7554C6.60163 11.6835 6.61633 11.6066 6.61554 11.529C6.61475 11.4515 6.5985 11.3749 6.56772 11.3037C6.53695 11.2325 6.49228 11.1681 6.43633 11.1144L1.99026 6.66833H13.4087C13.486 6.66942 13.5627 6.65515 13.6343 6.62634C13.706 6.59753 13.7713 6.55476 13.8263 6.50052C13.8813 6.44627 13.925 6.38164 13.9548 6.31036C13.9846 6.23909 14 6.1626 14 6.08534C14 6.00807 13.9846 5.93158 13.9548 5.86031C13.925 5.78903 13.8813 5.7244 13.8263 5.67015C13.7713 5.61591 13.706 5.57314 13.6343 5.54433C13.5627 5.51552 13.486 5.50125 13.4087 5.50234H1.99026L6.43633 1.05627C6.52044 0.974357 6.57786 0.868962 6.60108 0.753877C6.62429 0.638792 6.61222 0.51938 6.56645 0.411267C6.52068 0.303153 6.44334 0.211376 6.34454 0.147947C6.24575 0.0845177 6.13011 0.0523905 6.01275 0.0557704Z" fill="black"/>
</svg>
