<svg width="14" height="15" viewBox="0 0 14 15" fill="none" xmlns="http://www.w3.org/2000/svg">
<g clip-path="url(#clip0_967_10041)">
<path d="M11.2401 0.236024C11.1343 0.23329 11.0299 0.261005 10.9394 0.315875L2.46801 5.2882C2.38624 5.33619 2.3182 5.40443 2.27043 5.48633C2.22266 5.56824 2.19677 5.66106 2.19525 5.75586C2.19374 5.85067 2.21664 5.94427 2.26176 6.02766C2.30689 6.11105 2.37271 6.18143 2.4529 6.23202L10.9243 11.5727C10.9857 11.6114 11.0541 11.6377 11.1257 11.65C11.1972 11.6623 11.2705 11.6604 11.3413 11.6443C11.4122 11.6283 11.4791 11.5985 11.5384 11.5566C11.5977 11.5147 11.6482 11.4615 11.6869 11.4001C11.7256 11.3387 11.7519 11.2702 11.7642 11.1987C11.7765 11.1271 11.7745 11.0538 11.7585 10.983C11.7425 10.9122 11.7126 10.8452 11.6707 10.7859C11.6288 10.7266 11.5756 10.6762 11.5142 10.6375L3.81109 5.78097L11.499 1.26833C11.6038 1.20857 11.6862 1.11617 11.7335 1.00523C11.7809 0.894292 11.7906 0.770908 11.7612 0.653914C11.7319 0.53692 11.6651 0.432744 11.571 0.357289C11.4769 0.281834 11.3606 0.239246 11.2401 0.236024ZM2.74785 13.1308C2.67464 13.1298 2.60195 13.1433 2.53402 13.1706C2.46608 13.1979 2.40424 13.2384 2.35211 13.2898C2.29997 13.3413 2.25857 13.4025 2.23031 13.4701C2.20205 13.5376 2.1875 13.6101 2.1875 13.6833C2.1875 13.7565 2.20205 13.829 2.23031 13.8966C2.25857 13.9641 2.29997 14.0254 2.35211 14.0768C2.40424 14.1282 2.46608 14.1687 2.53402 14.196C2.60195 14.2233 2.67464 14.2368 2.74785 14.2358H11.2192C11.2924 14.2368 11.3651 14.2233 11.433 14.196C11.501 14.1687 11.5628 14.1282 11.615 14.0768C11.6671 14.0254 11.7085 13.9641 11.7367 13.8966C11.765 13.829 11.7796 13.7565 11.7796 13.6833C11.7796 13.6101 11.765 13.5376 11.7367 13.4701C11.7085 13.4025 11.6671 13.3413 11.615 13.2898C11.5628 13.2384 11.501 13.1979 11.433 13.1706C11.3651 13.1433 11.2924 13.1298 11.2192 13.1308H2.74785Z" fill="black"/>
</g>
<defs>
<clipPath id="clip0_967_10041">
<rect width="14" height="14" fill="white" transform="translate(0 0.23584)"/>
</clipPath>
</defs>
</svg>
