<svg width="14" height="15" viewBox="0 0 14 15" fill="none" xmlns="http://www.w3.org/2000/svg">
<g clip-path="url(#clip0_968_10055)">
<path d="M10.1458 0.236363C10.0023 0.242614 9.86692 0.30451 9.76832 0.408923L3.51016 6.85115C3.41011 6.95421 3.35416 7.09218 3.35416 7.23581C3.35416 7.37944 3.41011 7.51742 3.51016 7.62048L9.76832 14.0627C9.81855 14.1159 9.87886 14.1586 9.94574 14.1883C10.0126 14.218 10.0847 14.2341 10.1579 14.2357C10.231 14.2373 10.3038 14.2243 10.3719 14.1976C10.44 14.1708 10.5021 14.1308 10.5546 14.0798C10.6071 14.0288 10.6489 13.9679 10.6777 13.9006C10.7064 13.8334 10.7215 13.761 10.7221 13.6879C10.7227 13.6147 10.7087 13.5421 10.681 13.4744C10.6533 13.4067 10.6124 13.3452 10.5607 13.2934L4.67637 7.23581L10.5607 1.17825C10.6392 1.09953 10.6922 0.998915 10.7127 0.889577C10.7331 0.780239 10.7201 0.667277 10.6752 0.565481C10.6304 0.463686 10.5559 0.377803 10.4614 0.319077C10.3669 0.260352 10.2569 0.231522 10.1458 0.236363Z" fill="black"/>
</g>
<defs>
<clipPath id="clip0_968_10055">
<rect width="14" height="14" fill="white" transform="translate(0 0.23584)"/>
</clipPath>
</defs>
</svg>
