<svg width="14" height="15" viewBox="0 0 14 15" fill="none" xmlns="http://www.w3.org/2000/svg">
<g clip-path="url(#clip0_1478_9944)">
<path d="M7.05831 0.173553C3.97177 0.173553 1.45831 2.68701 1.45831 5.77355C1.45831 7.47284 2.21869 8.64059 2.95812 9.48C3.69754 10.3194 4.34147 10.9149 4.42443 11.3066C4.60153 12.1424 4.78878 12.9458 4.78878 12.9458L4.7881 12.9404C4.94766 13.658 5.59019 14.1736 6.3255 14.1736H7.79113C8.52622 14.1736 9.1688 13.6582 9.32853 12.941C9.32961 12.9363 9.51493 12.1399 9.69152 11.3066C9.77459 10.9148 10.419 10.3194 11.1585 9.48C11.898 8.64058 12.6583 7.47284 12.6583 5.77355C12.6583 2.68701 10.1449 0.173553 7.05831 0.173553ZM7.05831 1.22355C9.57737 1.22355 11.6083 3.25449 11.6083 5.77355C11.6083 7.17176 11.0365 8.0307 10.371 8.78615C9.80603 9.42748 9.12369 9.93579 8.80216 10.6736H5.31378C4.99248 9.93576 4.31057 9.42749 3.74562 8.78615C3.08018 8.03069 2.50831 7.17176 2.50831 5.77355C2.50831 3.25449 4.53925 1.22355 7.05831 1.22355ZM5.59269 11.7236H8.52325C8.43039 12.1389 8.3045 12.7072 8.3045 12.7072L8.30382 12.71V12.7127C8.24983 12.9557 8.04002 13.1236 7.79113 13.1236H6.3255C6.07661 13.1236 5.86676 12.9554 5.81281 12.7127L5.81212 12.71L5.81144 12.7072C5.81144 12.7072 5.68555 12.1389 5.59269 11.7236Z" fill="black"/>
</g>
<defs>
<clipPath id="clip0_1478_9944">
<rect width="14" height="14" fill="white" transform="translate(0 0.173553)"/>
</clipPath>
</defs>
</svg>
