<svg width="14" height="16" viewBox="0 0 14 16" fill="none" xmlns="http://www.w3.org/2000/svg">
<path d="M11.2299 0.83606C10.5187 0.83606 9.80762 1.1055 9.2684 1.64472L7.29478 3.61835C6.36177 4.55135 6.28587 5.97554 6.96723 7.04741L6.21152 7.80312C5.13964 7.12169 3.71549 7.19688 2.78245 8.12992L0.808829 10.1035C-0.26961 11.182 -0.26961 12.9489 0.808829 14.0273C1.88754 15.1056 3.65425 15.1057 4.73262 14.0273L6.70625 12.0537C7.63928 11.1207 7.71447 9.69652 7.03304 8.62464L7.78875 7.86893C8.86073 8.55017 10.2849 8.47433 11.2178 7.54138L13.1914 5.56776C14.2699 4.48932 14.2699 2.72316 13.1914 1.64472C12.6522 1.1055 11.9411 0.83606 11.2299 0.83606ZM11.2299 1.99043C11.6413 1.99043 12.0528 2.14912 12.3699 2.46625C13.0042 3.1005 13.0042 4.11199 12.3699 4.74624L10.3963 6.71986C9.90804 7.20812 9.2 7.31238 8.60876 7.04892L9.87811 5.77957C9.93387 5.72604 9.97838 5.66192 10.009 5.59097C10.0397 5.52001 10.0559 5.44366 10.0567 5.36636C10.0575 5.28907 10.0428 5.2124 10.0136 5.14084C9.98441 5.06928 9.94121 5.00427 9.88655 4.94961C9.83189 4.89495 9.76688 4.85175 9.69532 4.82254C9.62376 4.79332 9.54709 4.77868 9.4698 4.77946C9.39251 4.78025 9.31615 4.79645 9.2452 4.82711C9.17424 4.85778 9.11012 4.90229 9.05659 4.95805L7.78724 6.2274C7.52386 5.63626 7.62809 4.92808 8.1163 4.43987L10.0899 2.46625C10.407 2.14912 10.8185 1.99043 11.2299 1.99043ZM4.74473 8.47638C4.96649 8.47638 5.18451 8.531 5.39151 8.62313L4.12291 9.89173C4.06716 9.94526 4.02264 10.0094 3.99198 10.0803C3.96131 10.1513 3.94511 10.2276 3.94433 10.3049C3.94354 10.3822 3.95818 10.4589 3.9874 10.5305C4.01662 10.602 4.05982 10.667 4.11447 10.7217C4.16913 10.7763 4.23414 10.8195 4.3057 10.8488C4.37726 10.878 4.45394 10.8926 4.53123 10.8918C4.60852 10.8911 4.68488 10.8749 4.75583 10.8442C4.82678 10.8135 4.8909 10.769 4.94443 10.7133L6.21303 9.44466C6.4761 10.0357 6.37278 10.7434 5.88472 11.2314L3.91034 13.2058C3.27603 13.8401 2.2651 13.8395 1.63035 13.2051C0.996567 12.5708 0.996256 11.5599 1.63035 10.9258L3.60473 8.95144C3.92186 8.63431 4.3333 8.47638 4.74473 8.47638Z" fill="black"/>
</svg>
