<svg width="14" height="16" viewBox="0 0 14 16" fill="none" xmlns="http://www.w3.org/2000/svg">
<path d="M11.2299 0.773533C10.5187 0.773533 9.80762 1.04298 9.2684 1.5822L7.29478 3.55582C6.36177 4.48882 6.28587 5.91302 6.96723 6.98488L6.21152 7.74059C5.13964 7.05916 3.71549 7.13435 2.78245 8.06739L0.808829 10.041C-0.26961 11.1195 -0.26961 12.8864 0.808829 13.9648C1.88754 15.043 3.65425 15.0432 4.73262 13.9648L6.70625 11.9912C7.63928 11.0581 7.71447 9.634 7.03304 8.56212L7.78875 7.80641C8.86073 8.48764 10.2849 8.41181 11.2178 7.47886L13.1914 5.50523C14.2699 4.4268 14.2699 2.66064 13.1914 1.5822C12.6522 1.04298 11.9411 0.773533 11.2299 0.773533ZM11.2299 1.9279C11.6413 1.9279 12.0528 2.08659 12.3699 2.40372C13.0042 3.03797 13.0042 4.04946 12.3699 4.68371L10.3963 6.65733C9.90804 7.14559 9.2 7.24985 8.60876 6.9864L9.87811 5.71705C9.93387 5.66351 9.97838 5.59939 10.009 5.52844C10.0397 5.45749 10.0559 5.38113 10.0567 5.30384C10.0575 5.22655 10.0428 5.14987 10.0136 5.07831C9.98441 5.00675 9.94121 4.94174 9.88655 4.88708C9.83189 4.83243 9.76688 4.78923 9.69532 4.76001C9.62376 4.73079 9.54709 4.71615 9.4698 4.71694C9.39251 4.71772 9.31615 4.73392 9.2452 4.76459C9.17424 4.79525 9.11012 4.83977 9.05659 4.89552L7.78724 6.16487C7.52386 5.57374 7.62809 4.86555 8.1163 4.37734L10.0899 2.40372C10.407 2.08659 10.8185 1.9279 11.2299 1.9279ZM4.74473 8.41385C4.96649 8.41385 5.18451 8.46847 5.39151 8.56061L4.12291 9.8292C4.06716 9.88273 4.02264 9.94685 3.99198 10.0178C3.96131 10.0888 3.94511 10.1651 3.94433 10.2424C3.94354 10.3197 3.95818 10.3964 3.9874 10.4679C4.01662 10.5395 4.05982 10.6045 4.11447 10.6592C4.16913 10.7138 4.23414 10.757 4.3057 10.7862C4.37726 10.8155 4.45394 10.8301 4.53123 10.8293C4.60852 10.8285 4.68488 10.8123 4.75583 10.7817C4.82678 10.751 4.8909 10.7065 4.94443 10.6507L6.21303 9.38213C6.4761 9.97316 6.37278 10.6808 5.88472 11.1689L3.91034 13.1433C3.27603 13.7776 2.2651 13.777 1.63035 13.1425C0.996567 12.5082 0.996256 11.4974 1.63035 10.8633L3.60473 8.88891C3.92186 8.57179 4.3333 8.41385 4.74473 8.41385Z" fill="black"/>
</svg>
