<svg width="14" height="14" viewBox="0 0 14 14" fill="none" xmlns="http://www.w3.org/2000/svg">
<path d="M6.97249 0C3.69181 0 1.02081 2.67099 1.02081 5.95168C1.02081 7.42447 1.56112 8.77517 2.44856 9.81371L2.4513 9.81644L2.45335 9.81918C2.45335 9.81918 4.98524 12.7082 5.88664 13.5684C6.49026 14.1439 7.45405 14.1439 8.05766 13.5684C9.08512 12.5884 11.4923 9.81781 11.4923 9.81781L11.4937 9.81576L11.4957 9.81371C12.384 8.77516 12.9242 7.42447 12.9242 5.95168C12.9242 2.67099 10.2532 0 6.97249 0ZM6.97249 1.0503C9.6855 1.0503 11.8739 3.23868 11.8739 5.95168C11.8739 7.16835 11.4305 8.27374 10.6971 9.13129C10.6923 9.13675 8.22936 11.9536 7.33285 12.8087C7.12494 13.0069 6.81937 13.0069 6.61145 12.8087C5.86218 12.0937 3.25483 9.1399 3.24722 9.13129L3.24654 9.1306C2.5141 8.27313 2.07111 7.16801 2.07111 5.95168C2.07111 3.23868 4.25949 1.0503 6.97249 1.0503ZM6.97249 3.85109C6.31606 3.85109 5.75724 4.11616 5.39842 4.51983C5.0396 4.9235 4.8719 5.44112 4.8719 5.95168C4.8719 6.46224 5.0396 6.97986 5.39842 7.38353C5.75724 7.7872 6.31606 8.05227 6.97249 8.05227C7.62893 8.05227 8.18775 7.7872 8.54657 7.38353C8.90539 6.97986 9.07309 6.46224 9.07309 5.95168C9.07309 5.44112 8.90539 4.9235 8.54657 4.51983C8.18775 4.11616 7.62893 3.85109 6.97249 3.85109ZM6.97249 4.90138C7.36635 4.90138 7.59525 5.03017 7.76158 5.21729C7.92791 5.40441 8.02279 5.67452 8.02279 5.95168C8.02279 6.22884 7.92791 6.49895 7.76158 6.68607C7.59525 6.87319 7.36635 7.00198 6.97249 7.00198C6.57863 7.00198 6.34973 6.87319 6.1834 6.68607C6.01707 6.49895 5.9222 6.22884 5.9222 5.95168C5.9222 5.67452 6.01707 5.40441 6.1834 5.21729C6.34973 5.03017 6.57863 4.90138 6.97249 4.90138Z" fill="black"/>
</svg>
