<svg width="14" height="15" viewBox="0 0 14 15" fill="none" xmlns="http://www.w3.org/2000/svg">
<path d="M6.99999 0.236084C5.45979 0.236084 4.19999 1.49588 4.19999 3.03608V4.43608H2.97499C2.11137 4.43608 1.39999 5.14746 1.39999 6.01108V12.6611C1.39999 13.5247 2.11137 14.2361 2.97499 14.2361H11.025C11.8886 14.2361 12.6 13.5247 12.6 12.6611V6.01108C12.6 5.14746 11.8886 4.43608 11.025 4.43608H9.79999V3.03608C9.79999 1.49588 8.5402 0.236084 6.99999 0.236084ZM6.99999 1.28608C7.97279 1.28608 8.74999 2.06329 8.74999 3.03608V4.43608H5.24999V3.03608C5.24999 2.06329 6.0272 1.28608 6.99999 1.28608ZM2.97499 5.48608H11.025C11.3213 5.48608 11.55 5.71481 11.55 6.01108V12.6611C11.55 12.9574 11.3213 13.1861 11.025 13.1861H2.97499C2.67872 13.1861 2.44999 12.9574 2.44999 12.6611V6.01108C2.44999 5.71481 2.67872 5.48608 2.97499 5.48608ZM6.99999 8.28608C6.72152 8.28608 6.45444 8.39671 6.25753 8.59362C6.06062 8.79053 5.94999 9.05761 5.94999 9.33608C5.94999 9.61456 6.06062 9.88163 6.25753 10.0785C6.45444 10.2755 6.72152 10.3861 6.99999 10.3861C7.27847 10.3861 7.54554 10.2755 7.74246 10.0785C7.93937 9.88163 8.04999 9.61456 8.04999 9.33608C8.04999 9.05761 7.93937 8.79053 7.74246 8.59362C7.54554 8.39671 7.27847 8.28608 6.99999 8.28608Z" fill="black"/>
</svg>
