<svg width="14" height="15" viewBox="0 0 14 15" fill="none" xmlns="http://www.w3.org/2000/svg">
<path d="M7.00002 0.173557C5.45982 0.173557 4.20002 1.43335 4.20002 2.97356V4.37356H2.97502C2.1114 4.37356 1.40002 5.08493 1.40002 5.94856V12.5986C1.40002 13.4622 2.1114 14.1736 2.97502 14.1736H11.025C11.8886 14.1736 12.6 13.4622 12.6 12.5986V5.94856C12.6 5.08493 11.8886 4.37356 11.025 4.37356H9.80002V2.97356C9.80002 1.43335 8.54023 0.173557 7.00002 0.173557ZM7.00002 1.22356C7.97282 1.22356 8.75002 2.00076 8.75002 2.97356V4.37356H5.25002V2.97356C5.25002 2.00076 6.02723 1.22356 7.00002 1.22356ZM2.97502 5.42356H11.025C11.3213 5.42356 11.55 5.65228 11.55 5.94856V12.5986C11.55 12.8948 11.3213 13.1236 11.025 13.1236H2.97502C2.67875 13.1236 2.45002 12.8948 2.45002 12.5986V5.94856C2.45002 5.65228 2.67875 5.42356 2.97502 5.42356ZM7.00002 8.22356C6.72155 8.22356 6.45448 8.33418 6.25756 8.53109C6.06065 8.72801 5.95002 8.99508 5.95002 9.27356C5.95002 9.55203 6.06065 9.81911 6.25756 10.016C6.45448 10.2129 6.72155 10.3236 7.00002 10.3236C7.2785 10.3236 7.54557 10.2129 7.74249 10.016C7.9394 9.81911 8.05002 9.55203 8.05002 9.27356C8.05002 8.99508 7.9394 8.72801 7.74249 8.53109C7.54557 8.33418 7.2785 8.22356 7.00002 8.22356Z" fill="black"/>
</svg>
