<svg width="14" height="15" viewBox="0 0 14 15" fill="none" xmlns="http://www.w3.org/2000/svg">
<path d="M2.275 1.57356C1.02482 1.57356 0 2.59838 0 3.84856V10.4986C0 11.7487 1.02482 12.7736 2.275 12.7736H11.725C12.9752 12.7736 14 11.7487 14 10.4986V3.84856C14 2.59838 12.9752 1.57356 11.725 1.57356H2.275ZM2.275 2.62356H11.725C12.4075 2.62356 12.95 3.16604 12.95 3.84856V4.23547L7 7.45178L1.05 4.23547V3.84856C1.05 3.16604 1.59248 2.62356 2.275 2.62356ZM1.05 5.42903L6.75049 8.51067C6.82714 8.55206 6.91288 8.57374 7 8.57374C7.08712 8.57374 7.17286 8.55206 7.24951 8.51067L12.95 5.42903V10.4986C12.95 11.1811 12.4075 11.7236 11.725 11.7236H2.275C1.59248 11.7236 1.05 11.1811 1.05 10.4986V5.42903Z" fill="black"/>
</svg>
