<svg width="14" height="15" viewBox="0 0 14 15" fill="none" xmlns="http://www.w3.org/2000/svg">
<path d="M2.275 1.63611C1.02482 1.63611 0 2.66093 0 3.91111V10.5611C0 11.8113 1.02482 12.8361 2.275 12.8361H11.725C12.9752 12.8361 14 11.8113 14 10.5611V3.91111C14 2.66093 12.9752 1.63611 11.725 1.63611H2.275ZM2.275 2.68611H11.725C12.4075 2.68611 12.95 3.22859 12.95 3.91111V4.29802L7 7.51433L1.05 4.29802V3.91111C1.05 3.22859 1.59248 2.68611 2.275 2.68611ZM1.05 5.49158L6.75049 8.57322C6.82714 8.61462 6.91288 8.63629 7 8.63629C7.08712 8.63629 7.17286 8.61462 7.24951 8.57322L12.95 5.49158V10.5611C12.95 11.2436 12.4075 11.7861 11.725 11.7861H2.275C1.59248 11.7861 1.05 11.2436 1.05 10.5611V5.49158Z" fill="black"/>
</svg>
