<svg width="14" height="16" viewBox="0 0 14 16" fill="none" xmlns="http://www.w3.org/2000/svg">
<path d="M1.75 0.77356C0.790416 0.77356 0 1.56398 0 2.52356V3.69023C0 4.64981 0.790416 5.44023 1.75 5.44023H4.86111C5.82069 5.44023 6.61111 4.64981 6.61111 3.69023V2.52356C6.61111 1.56398 5.82069 0.77356 4.86111 0.77356H1.75ZM9.13889 0.77356C8.17931 0.77356 7.38889 1.56398 7.38889 2.52356V7.57912C7.38889 8.5387 8.17931 9.32911 9.13889 9.32911H12.25C13.2096 9.32911 14 8.5387 14 7.57912V2.52356C14 1.56398 13.2096 0.77356 12.25 0.77356H9.13889ZM1.75 1.94023H4.86111C5.19031 1.94023 5.44444 2.19437 5.44444 2.52356V3.69023C5.44444 4.01942 5.19031 4.27356 4.86111 4.27356H1.75C1.42081 4.27356 1.16667 4.01942 1.16667 3.69023V2.52356C1.16667 2.19437 1.42081 1.94023 1.75 1.94023ZM9.13889 1.94023H12.25C12.5792 1.94023 12.8333 2.19437 12.8333 2.52356V7.57912C12.8333 7.90831 12.5792 8.16245 12.25 8.16245H9.13889C8.8097 8.16245 8.55556 7.90831 8.55556 7.57912V2.52356C8.55556 2.19437 8.8097 1.94023 9.13889 1.94023ZM1.75 6.218C0.790416 6.218 0 7.00842 0 7.968V13.0236C0 13.9831 0.790416 14.7736 1.75 14.7736H4.86111C5.82069 14.7736 6.61111 13.9831 6.61111 13.0236V7.968C6.61111 7.00842 5.82069 6.218 4.86111 6.218H1.75ZM1.75 7.38467H4.86111C5.19031 7.38467 5.44444 7.63881 5.44444 7.968V13.0236C5.44444 13.3528 5.19031 13.6069 4.86111 13.6069H1.75C1.42081 13.6069 1.16667 13.3528 1.16667 13.0236V7.968C1.16667 7.63881 1.42081 7.38467 1.75 7.38467ZM9.13889 10.1069C8.17931 10.1069 7.38889 10.8973 7.38889 11.8569V13.0236C7.38889 13.9831 8.17931 14.7736 9.13889 14.7736H12.25C13.2096 14.7736 14 13.9831 14 13.0236V11.8569C14 10.8973 13.2096 10.1069 12.25 10.1069H9.13889ZM9.13889 11.2736H12.25C12.5792 11.2736 12.8333 11.5277 12.8333 11.8569V13.0236C12.8333 13.3528 12.5792 13.6069 12.25 13.6069H9.13889C8.8097 13.6069 8.55556 13.3528 8.55556 13.0236V11.8569C8.55556 11.5277 8.8097 11.2736 9.13889 11.2736Z" fill="black"/>
</svg>
