<svg width="14" height="15" viewBox="0 0 14 15" fill="none" xmlns="http://www.w3.org/2000/svg">
<path d="M1.75 -0.313215C0.790416 -0.313215 0 0.477201 0 1.43678V2.60345C0 3.56304 0.790416 4.35345 1.75 4.35345H4.86111C5.82069 4.35345 6.61111 3.56304 6.61111 2.60345V1.43678C6.61111 0.477201 5.82069 -0.313215 4.86111 -0.313215H1.75ZM9.13889 -0.313215C8.17931 -0.313215 7.38889 0.477201 7.38889 1.43678V6.49234C7.38889 7.45192 8.17931 8.24234 9.13889 8.24234H12.25C13.2096 8.24234 14 7.45192 14 6.49234V1.43678C14 0.477201 13.2096 -0.313215 12.25 -0.313215H9.13889ZM1.75 0.853451H4.86111C5.19031 0.853451 5.44444 1.10759 5.44444 1.43678V2.60345C5.44444 2.93265 5.19031 3.18678 4.86111 3.18678H1.75C1.42081 3.18678 1.16667 2.93265 1.16667 2.60345V1.43678C1.16667 1.10759 1.42081 0.853451 1.75 0.853451ZM9.13889 0.853451H12.25C12.5792 0.853451 12.8333 1.10759 12.8333 1.43678V6.49234C12.8333 6.82153 12.5792 7.07567 12.25 7.07567H9.13889C8.8097 7.07567 8.55556 6.82153 8.55556 6.49234V1.43678C8.55556 1.10759 8.8097 0.853451 9.13889 0.853451ZM1.75 5.13123C0.790416 5.13123 0 5.92165 0 6.88123V11.9368C0 12.8964 0.790416 13.6868 1.75 13.6868H4.86111C5.82069 13.6868 6.61111 12.8964 6.61111 11.9368V6.88123C6.61111 5.92165 5.82069 5.13123 4.86111 5.13123H1.75ZM1.75 6.2979H4.86111C5.19031 6.2979 5.44444 6.55204 5.44444 6.88123V11.9368C5.44444 12.266 5.19031 12.5201 4.86111 12.5201H1.75C1.42081 12.5201 1.16667 12.266 1.16667 11.9368V6.88123C1.16667 6.55204 1.42081 6.2979 1.75 6.2979ZM9.13889 9.02012C8.17931 9.02012 7.38889 9.81053 7.38889 10.7701V11.9368C7.38889 12.8964 8.17931 13.6868 9.13889 13.6868H12.25C13.2096 13.6868 14 12.8964 14 11.9368V10.7701C14 9.81053 13.2096 9.02012 12.25 9.02012H9.13889ZM9.13889 10.1868H12.25C12.5792 10.1868 12.8333 10.4409 12.8333 10.7701V11.9368C12.8333 12.266 12.5792 12.5201 12.25 12.5201H9.13889C8.8097 12.5201 8.55556 12.266 8.55556 11.9368V10.7701C8.55556 10.4409 8.8097 10.1868 9.13889 10.1868Z" fill="black"/>
</svg>
