<svg width="14" height="15" viewBox="0 0 14 15" fill="none" xmlns="http://www.w3.org/2000/svg">
<path d="M2.75661 1.92355C2.64554 1.92726 2.54004 1.97308 2.46152 2.05173L1.87819 2.63506C1.80771 2.70547 1.76337 2.79782 1.75249 2.89684C1.74162 2.99586 1.76486 3.09563 1.81837 3.17966L2.94232 4.9439C3.25836 5.44948 3.94292 5.54364 4.40749 5.19968L6.6867 7.47889C6.29693 8.15029 6.35668 9.01716 6.92653 9.59348H6.92596L9.23423 11.9331C9.23461 11.9333 9.23499 11.9335 9.23537 11.9336C9.9179 12.6212 11.0413 12.6252 11.7288 11.9428C12.4158 11.2608 12.4208 10.1372 11.739 9.44992L11.7379 9.44878L9.43418 7.11374C9.43399 7.11374 9.4338 7.11374 9.43361 7.11374C8.85899 6.53291 7.9834 6.46782 7.30592 6.86081L5.02614 4.58103C5.3696 4.11675 5.27605 3.43283 4.7715 3.11643L3.00612 1.99191C2.93174 1.9445 2.84477 1.92067 2.75661 1.92355ZM9.16245 1.92355C7.52387 1.92355 6.18552 3.21804 6.10736 4.83737L7.04046 5.76991C7.06379 5.69378 7.06744 5.61199 7.04673 5.53236C6.99889 5.34657 6.97495 5.1628 6.97495 4.98605C6.97495 3.77972 7.95612 2.79855 9.16245 2.79855C9.27416 2.79855 9.38491 2.80727 9.49399 2.82419L8.5512 3.76641C8.30299 4.01433 8.16668 4.3438 8.16668 4.69439C8.16668 5.04497 8.30329 5.37445 8.5512 5.62237C8.79912 5.87028 9.1286 6.00689 9.47918 6.00689C9.82977 6.00689 10.1592 5.87028 10.4072 5.62237L11.3312 4.69895C11.344 4.79374 11.3499 4.88951 11.3499 4.98605C11.3499 5.85493 10.8403 6.61103 10.1041 6.96278L10.7416 7.60821C11.6297 7.07154 12.2249 6.09674 12.2249 4.98549C12.2249 4.53544 12.1269 4.09906 11.9333 3.68723C11.8726 3.55831 11.7531 3.4662 11.6126 3.4417C11.4729 3.4172 11.3287 3.46299 11.228 3.56361L9.78851 5.00314C9.62342 5.16823 9.33494 5.16852 9.16986 5.00314C9.08731 4.92089 9.04168 4.81105 9.04168 4.69439C9.04168 4.57772 9.08731 4.4679 9.16986 4.38506L10.6179 2.93641C10.718 2.83637 10.7637 2.69445 10.7404 2.55474C10.7171 2.41532 10.6275 2.29558 10.5006 2.23345C10.0777 2.02783 9.62766 1.92355 9.16245 1.92355ZM2.8318 2.91875L4.30324 3.85585C4.30437 3.85642 4.30551 3.85699 4.30666 3.85756C4.39412 3.9122 4.40536 4.01121 4.33229 4.08428L3.91074 4.50583C3.83743 4.57922 3.73918 4.56844 3.68402 4.4802C3.68345 4.47905 3.68288 4.47791 3.68231 4.47678L2.74521 3.00534L2.8318 2.91875ZM5.02044 6.6375L2.26214 9.41745C1.93022 9.7517 1.74827 10.1957 1.75002 10.6667C1.75177 11.1378 1.93702 11.5798 2.27069 11.9114C2.60348 12.2419 3.04412 12.4236 3.51312 12.4236H3.51938C3.99043 12.4218 4.43275 12.2369 4.76466 11.9023L6.5779 10.0743L6.47593 9.97173C6.29713 9.7909 6.15689 9.58495 6.04868 9.36561L4.14373 11.2859C3.97661 11.4542 3.75366 11.5477 3.51654 11.5486C3.26804 11.5445 3.05592 11.4579 2.88763 11.2905C2.71905 11.1234 2.62589 10.9007 2.62502 10.6633C2.62414 10.4262 2.71595 10.2027 2.88307 10.0344L5.63909 7.25616L5.02044 6.6375ZM8.18377 7.46237C8.41041 7.46339 8.63692 7.55248 8.81154 7.72897L11.1158 10.0646C11.1162 10.065 11.1166 10.0653 11.117 10.0657C11.466 10.4169 11.4639 10.9729 11.1124 11.3218C10.7604 11.6713 10.2057 11.6692 9.8563 11.3173L7.5486 8.97881C7.5486 8.97862 7.5486 8.97843 7.5486 8.97824C7.20041 8.62611 7.20309 8.07192 7.5543 7.72328C7.73049 7.54837 7.95714 7.46135 8.18377 7.46237Z" fill="black"/>
</svg>
