<svg width="14" height="15" viewBox="0 0 14 15" fill="none" xmlns="http://www.w3.org/2000/svg">
<path d="M2.75658 1.98583C2.64551 1.98953 2.54001 2.03536 2.46149 2.114L1.87816 2.69734C1.80768 2.76774 1.76334 2.86009 1.75246 2.95911C1.74159 3.05814 1.76483 3.15791 1.81834 3.24193L2.94229 5.00617C3.25833 5.51176 3.94289 5.60592 4.40746 5.26195L6.68667 7.54117C6.2969 8.21257 6.35665 9.07944 6.9265 9.65575H6.92593L9.2342 11.9954C9.23458 11.9955 9.23496 11.9957 9.23534 11.9959C9.91786 12.6835 11.0413 12.6875 11.7287 12.005C12.4158 11.323 12.4208 10.1995 11.739 9.5122L11.7379 9.51106L9.43415 7.17602C9.43396 7.17602 9.43377 7.17602 9.43358 7.17602C8.85896 6.59518 7.98337 6.5301 7.30589 6.92309L5.02611 4.6433C5.36957 4.17903 5.27602 3.4951 4.77147 3.1787L3.00609 2.05419C2.93171 2.00677 2.84474 1.98295 2.75658 1.98583ZM9.16242 1.98583C7.52384 1.98583 6.18549 3.28031 6.10733 4.89965L7.04043 5.83218C7.06376 5.75606 7.06741 5.67426 7.0467 5.59464C6.99886 5.40884 6.97492 5.22508 6.97492 5.04833C6.97492 3.842 7.95609 2.86083 9.16242 2.86083C9.27413 2.86083 9.38488 2.86955 9.49396 2.88646L8.55117 3.82868C8.30296 4.0766 8.16665 4.40608 8.16665 4.75666C8.16665 5.10725 8.30326 5.43672 8.55117 5.68464C8.79909 5.93256 9.12857 6.06916 9.47915 6.06916C9.82973 6.06916 10.1592 5.93256 10.4071 5.68464L11.3311 4.76122C11.344 4.85601 11.3499 4.95179 11.3499 5.04833C11.3499 5.9172 10.8402 6.67331 10.1041 7.02505L10.7415 7.67048C11.6296 7.13381 12.2249 6.15901 12.2249 5.04776C12.2249 4.59772 12.1269 4.16133 11.9333 3.7495C11.8726 3.62058 11.7531 3.52848 11.6125 3.50398C11.4728 3.47948 11.3286 3.52526 11.228 3.62589L9.78848 5.06542C9.62339 5.2305 9.33491 5.23079 9.16983 5.06542C9.08728 4.98317 9.04165 4.87333 9.04165 4.75666C9.04165 4.64 9.08728 4.53017 9.16983 4.44734L10.6179 2.99869C10.7179 2.89865 10.7637 2.75672 10.7404 2.61701C10.717 2.4776 10.6274 2.35785 10.5006 2.29573C10.0776 2.0901 9.62763 1.98583 9.16242 1.98583ZM2.83177 2.98103L4.30321 3.91812C4.30434 3.9187 4.30548 3.91927 4.30663 3.91983C4.39409 3.97447 4.40533 4.07349 4.33226 4.14656L3.91071 4.56811C3.8374 4.64149 3.73915 4.63071 3.68399 4.54247C3.68342 4.54133 3.68285 4.54019 3.68228 4.53905L2.74518 3.06762L2.83177 2.98103ZM5.02041 6.69978L2.26211 9.47973C1.93019 9.81398 1.74823 10.258 1.74998 10.729C1.75173 11.2 1.93699 11.6421 2.27066 11.9737C2.60345 12.3042 3.04409 12.4858 3.51309 12.4858H3.51935C3.99039 12.4841 4.43272 12.2991 4.76463 11.9646L6.57787 10.1365L6.4759 10.034C6.2971 9.85317 6.15686 9.64722 6.04865 9.42789L4.1437 11.3482C3.97658 11.5165 3.75363 11.61 3.5165 11.6108C3.268 11.6067 3.05589 11.5202 2.8876 11.3528C2.71902 11.1856 2.62586 10.963 2.62498 10.7256C2.62411 10.4885 2.71592 10.265 2.88304 10.0967L5.63906 7.31843L5.02041 6.69978ZM8.18374 7.52465C8.41038 7.52567 8.63689 7.61476 8.81151 7.79125L11.1158 10.1269C11.1162 10.1272 11.1165 10.1276 11.1169 10.128C11.4659 10.4792 11.4639 11.0352 11.1124 11.3841C10.7604 11.7336 10.2057 11.7315 9.85627 11.3795L7.54857 9.04109C7.54857 9.0409 7.54857 9.04071 7.54857 9.04052C7.20038 8.68838 7.20306 8.13419 7.55427 7.78555C7.73046 7.61065 7.95711 7.52363 8.18374 7.52465Z" fill="black"/>
</svg>
