<svg width="14" height="15" viewBox="0 0 14 15" fill="none" xmlns="http://www.w3.org/2000/svg">
<path d="M1.83333 1.63188C0.826742 1.63188 0 2.45862 0 3.46521V11.1319C0 12.1385 0.826742 12.9652 1.83333 12.9652H12.1667C13.1733 12.9652 14 12.1385 14 11.1319V3.46521C14 2.45862 13.1733 1.63188 12.1667 1.63188H1.83333ZM1.83333 2.63188H12.1667C12.6327 2.63188 13 2.99914 13 3.46521V11.1319C13 11.598 12.6327 11.9652 12.1667 11.9652H1.83333C1.36726 11.9652 1 11.598 1 11.1319V3.46521C1 2.99914 1.36726 2.63188 1.83333 2.63188ZM7.00456 3.96521C6.91071 3.96432 6.81851 3.98986 6.73849 4.03891C6.65848 4.08795 6.59388 4.15853 6.55208 4.24256L5.74219 5.87342L3.92839 6.13514C3.83589 6.14855 3.749 6.18762 3.67757 6.24791C3.60615 6.3082 3.55306 6.3873 3.52432 6.47624C3.49557 6.56518 3.49233 6.66039 3.51496 6.75108C3.53759 6.84177 3.58519 6.9243 3.65234 6.9893L4.96224 8.25688L4.653 10.0466C4.6371 10.1385 4.6472 10.2329 4.68216 10.3194C4.71711 10.4058 4.77554 10.4807 4.85083 10.5357C4.92612 10.5907 5.01529 10.6235 5.10825 10.6305C5.20122 10.6375 5.29429 10.6184 5.37695 10.5752L7 9.72758L8.62305 10.5752C8.70571 10.6184 8.79878 10.6375 8.89175 10.6305C8.98472 10.6235 9.07388 10.5907 9.14917 10.5357C9.22446 10.4807 9.28289 10.4058 9.31785 10.3194C9.3528 10.2329 9.3629 10.1385 9.34701 10.0466L9.03776 8.25688L10.3477 6.9893C10.4148 6.9243 10.4624 6.84177 10.485 6.75108C10.5077 6.66039 10.5044 6.56518 10.4757 6.47624C10.4469 6.3873 10.3938 6.3082 10.3224 6.24791C10.251 6.18762 10.1641 6.14855 10.0716 6.13514L8.25781 5.87342L7.44792 4.24256C7.40681 4.15991 7.34363 4.09026 7.26538 4.04131C7.18713 3.99236 7.09686 3.96602 7.00456 3.96521ZM7 5.58891L7.47917 6.55311C7.5152 6.62552 7.56827 6.68811 7.63381 6.73551C7.69935 6.7829 7.77541 6.8137 7.85547 6.82524L8.92057 6.97889L8.15234 7.72238C8.09395 7.77904 8.05026 7.8491 8.02507 7.92648C7.99988 8.00385 7.99396 8.0862 8.00781 8.16639L8.18945 9.22042L7.23112 8.72042C7.15976 8.68323 7.08047 8.66381 7 8.66381C6.91953 8.66381 6.84024 8.68323 6.76888 8.72042L5.81055 9.22042L5.99219 8.16639C6.00604 8.0862 6.00012 8.00385 5.97493 7.92648C5.94974 7.8491 5.90606 7.77904 5.84766 7.72238L5.07943 6.97889L6.14453 6.82524C6.22459 6.8137 6.30065 6.7829 6.36619 6.73551C6.43173 6.68811 6.4848 6.62552 6.52083 6.55311L7 5.58891Z" fill="black"/>
</svg>
