<svg width="14" height="15" viewBox="0 0 14 15" fill="none" xmlns="http://www.w3.org/2000/svg">
<path d="M7.4 11.8C7.0287 11.8 6.6726 11.9475 6.41005 12.21C6.1475 12.4726 6 12.8287 6 13.2C6 13.5713 6.1475 13.9274 6.41005 14.1899C6.6726 14.4525 7.0287 14.6 7.4 14.6C7.7713 14.6 8.1274 14.4525 8.38995 14.1899C8.6525 13.9274 8.8 13.5713 8.8 13.2C8.8 12.8287 8.6525 12.4726 8.38995 12.21C8.1274 11.9475 7.7713 11.8 7.4 11.8ZM7.4 6.19998C7.0287 6.19998 6.6726 6.34748 6.41005 6.61003C6.1475 6.87258 6 7.22867 6 7.59998C6 7.97128 6.1475 8.32737 6.41005 8.58993C6.6726 8.85248 7.0287 8.99998 7.4 8.99998C7.7713 8.99998 8.1274 8.85248 8.38995 8.58993C8.6525 8.32737 8.8 7.97128 8.8 7.59998C8.8 7.22867 8.6525 6.87258 8.38995 6.61003C8.1274 6.34748 7.7713 6.19998 7.4 6.19998ZM7.4 0.599976C7.0287 0.599976 6.6726 0.747475 6.41005 1.01003C6.1475 1.27258 6 1.62867 6 1.99998C6 2.37128 6.1475 2.72737 6.41005 2.98993C6.6726 3.25248 7.0287 3.39998 7.4 3.39998C7.7713 3.39998 8.1274 3.25248 8.38995 2.98993C8.6525 2.72737 8.8 2.37128 8.8 1.99998C8.8 1.62867 8.6525 1.27258 8.38995 1.01003C8.1274 0.747475 7.7713 0.599976 7.4 0.599976Z" fill="black"/>
</svg>
