<svg width="14" height="15" viewBox="0 0 14 15" fill="none" xmlns="http://www.w3.org/2000/svg">
<path d="M7.4 10.8868C7.0287 10.8868 6.6726 11.0343 6.41005 11.2968C6.1475 11.5594 6 11.9155 6 12.2868C6 12.6581 6.1475 13.0142 6.41005 13.2767C6.6726 13.5393 7.0287 13.6868 7.4 13.6868C7.7713 13.6868 8.1274 13.5393 8.38995 13.2767C8.6525 13.0142 8.8 12.6581 8.8 12.2868C8.8 11.9155 8.6525 11.5594 8.38995 11.2968C8.1274 11.0343 7.7713 10.8868 7.4 10.8868ZM7.4 5.28675C7.0287 5.28675 6.6726 5.43425 6.41005 5.6968C6.1475 5.95936 6 6.31545 6 6.68675C6 7.05806 6.1475 7.41415 6.41005 7.6767C6.6726 7.93925 7.0287 8.08675 7.4 8.08675C7.7713 8.08675 8.1274 7.93925 8.38995 7.6767C8.6525 7.41415 8.8 7.05806 8.8 6.68675C8.8 6.31545 8.6525 5.95936 8.38995 5.6968C8.1274 5.43425 7.7713 5.28675 7.4 5.28675ZM7.4 -0.313246C7.0287 -0.313246 6.6726 -0.165746 6.41005 0.0968046C6.1475 0.359356 6 0.715451 6 1.08675C6 1.45806 6.1475 1.81415 6.41005 2.0767C6.6726 2.33925 7.0287 2.48675 7.4 2.48675C7.7713 2.48675 8.1274 2.33925 8.38995 2.0767C8.6525 1.81415 8.8 1.45806 8.8 1.08675C8.8 0.715451 8.6525 0.359356 8.38995 0.0968046C8.1274 -0.165746 7.7713 -0.313246 7.4 -0.313246Z" fill="black"/>
</svg>
