<svg width="14" height="15" viewBox="0 0 14 15" fill="none" xmlns="http://www.w3.org/2000/svg">
<g clip-path="url(#clip0_154_8232)">
<path d="M2.14424 0.173553C0.971177 0.173553 0.00770659 1.13702 0.00770659 2.31009V3.47547C0.00770659 4.64853 0.971177 5.612 2.14424 5.612H11.8558C13.0288 5.612 13.9923 4.64853 13.9923 3.47547V2.31009C13.9923 1.13702 13.0288 0.173553 11.8558 0.173553H2.14424ZM2.14424 1.33894H11.8558C12.3989 1.33894 12.8269 1.76693 12.8269 2.31009V3.47547C12.8269 4.01863 12.3989 4.44662 11.8558 4.44662H2.14424C1.60108 4.44662 1.17309 4.01863 1.17309 3.47547V2.31009C1.17309 1.76693 1.60108 1.33894 2.14424 1.33894ZM0.00770659 5.44964V9.20678C-0.00256886 9.26934 -0.00256886 9.33315 0.00770659 9.3957V12.0216C0.00770659 13.1998 0.966039 14.1581 2.14424 14.1581H11.8558C13.034 14.1581 13.9923 13.1998 13.9923 12.0216V9.39798C14.0026 9.33543 14.0026 9.27161 13.9923 9.20906V5.44964C13.6745 5.79304 13.2764 6.05932 12.8269 6.21897V8.71969H7.58269V6.38893H6.41731V8.71969H1.17309V6.21897C0.72364 6.05932 0.325467 5.79343 0.00770659 5.44964ZM1.17309 9.88507H6.41731V12.9928H2.14424C1.60894 12.9928 1.17309 12.5569 1.17309 12.0216V9.88507ZM7.58269 9.88507H12.8269V12.0216C12.8269 12.5569 12.3911 12.9928 11.8558 12.9928H7.58269V9.88507Z" fill="black"/>
</g>
<defs>
<clipPath id="clip0_154_8232">
<rect width="14" height="14" fill="white" transform="translate(0 0.173553)"/>
</clipPath>
</defs>
</svg>
