<svg width="14" height="15" viewBox="0 0 14 15" fill="none" xmlns="http://www.w3.org/2000/svg">
<g clip-path="url(#clip0_1540_9905)">
<path d="M11.3753 0.902734C11.3524 0.903066 11.3296 0.904892 11.307 0.908202H9.27448C9.20493 0.907218 9.13588 0.920067 9.07134 0.946003C9.00679 0.971938 8.94805 1.01044 8.89852 1.05928C8.84899 1.10811 8.80966 1.16631 8.78281 1.23047C8.75597 1.29464 8.74214 1.36351 8.74214 1.43306C8.74214 1.50262 8.75597 1.57149 8.78281 1.63565C8.80966 1.69982 8.84899 1.75802 8.89852 1.80685C8.94805 1.85569 9.00679 1.89419 9.07134 1.92013C9.13588 1.94606 9.20493 1.95891 9.27448 1.95793H10.0666L6.98846 4.9055L3.68824 1.75359C3.63913 1.70263 3.58023 1.66213 3.51507 1.63452C3.44991 1.6069 3.37984 1.59275 3.30908 1.59291C3.23831 1.59308 3.1683 1.60754 3.10327 1.63545C3.03824 1.66336 2.97952 1.70413 2.93064 1.75531C2.88177 1.80649 2.84375 1.86702 2.81887 1.93327C2.79399 1.99952 2.78276 2.07012 2.78586 2.14082C2.78895 2.21152 2.80632 2.28086 2.8369 2.34468C2.86748 2.4085 2.91066 2.46547 2.96382 2.51218L6.62693 6.01127C6.72459 6.10454 6.85444 6.15659 6.98948 6.15659C7.12453 6.15659 7.25437 6.10454 7.35203 6.01127L10.8491 2.66253V3.53252C10.8481 3.60207 10.8609 3.67112 10.8869 3.73566C10.9128 3.8002 10.9513 3.85895 11.0001 3.90848C11.049 3.95801 11.1072 3.99734 11.1713 4.02419C11.2355 4.05103 11.3044 4.06486 11.3739 4.06486C11.4435 4.06486 11.5124 4.05103 11.5765 4.02419C11.6407 3.99734 11.6989 3.95801 11.7477 3.90848C11.7966 3.85895 11.8351 3.8002 11.861 3.73566C11.8869 3.67112 11.8998 3.60207 11.8988 3.53252V1.50414C11.9098 1.4292 11.9045 1.35275 11.8832 1.28005C11.8619 1.20736 11.8252 1.14013 11.7754 1.08299C11.7257 1.02586 11.6642 0.98016 11.5951 0.949044C11.526 0.917928 11.4511 0.90213 11.3753 0.902734ZM7.00007 7.20656C3.72341 7.20656 1.84724 8.14869 0.85685 8.97592C0.149603 9.56657 -0.150339 10.5129 0.072289 11.402L0.228791 12.0267C0.471372 12.9965 1.42105 13.6299 2.40957 13.4817L3.91035 13.2568C4.55698 13.16 5.07942 12.6695 5.21636 12.0301V12.0294L5.51228 10.6489C5.52675 10.5815 5.56965 10.5364 5.62504 10.5198C5.87591 10.4446 6.31579 10.3557 7.00007 10.3557C7.68436 10.3557 8.12424 10.4446 8.37511 10.5198C8.43063 10.5364 8.4737 10.5818 8.48787 10.6482V10.6489L8.78379 12.0301C8.92093 12.6692 9.44293 13.1599 10.0898 13.2568L11.5906 13.4817C12.5791 13.6299 13.5292 12.9969 13.7714 12.0267L13.9279 11.402V11.4014C14.1502 10.5124 13.8504 9.56642 13.1433 8.97592C12.1529 8.14869 10.2767 7.20656 7.00007 7.20656ZM7.00007 8.25629C10.0787 8.25629 11.6752 9.11628 12.4708 9.78099C12.8672 10.112 13.0361 10.6409 12.9096 11.1465V11.1471L12.7531 11.7725C12.6398 12.2264 12.2093 12.513 11.7464 12.4436L10.2456 12.2187C10.0282 12.1862 9.85649 12.0254 9.81028 11.81L9.51436 10.4295V10.4289C9.42269 10.0001 9.10574 9.64329 8.67649 9.51445C8.31992 9.40765 7.77561 9.30601 7.00007 9.30601C6.22454 9.30601 5.68023 9.40765 5.32366 9.51445C4.89407 9.64339 4.57768 10.0008 4.48579 10.4289L4.18987 11.81C4.14396 12.0248 3.97198 12.1862 3.75453 12.2187L2.25375 12.4436C1.79085 12.513 1.36071 12.2267 1.24708 11.7725L1.09058 11.1471V11.1465C0.963997 10.6409 1.13297 10.112 1.52933 9.78099C2.32498 9.11628 3.92141 8.25629 7.00007 8.25629Z" fill="black"/>
</g>
<defs>
<clipPath id="clip0_1540_9905">
<rect width="14" height="14" fill="white" transform="translate(0 0.173553)"/>
</clipPath>
</defs>
</svg>
