<svg width="14" height="14" viewBox="0 0 14 14" fill="none" xmlns="http://www.w3.org/2000/svg">
<path d="M11.0862 0C10.6365 0 10.2439 0.226886 9.99355 0.573431C9.74323 0.919977 9.62783 1.36091 9.62783 1.7946C9.62783 2.01003 9.65678 2.22734 9.71613 2.43393L7.8146 4.2734C7.58461 4.08682 7.31857 3.94812 7.00283 3.94812C6.60344 3.94812 6.26526 4.1455 6.0156 4.42832L4.32656 3.2415C4.34611 3.11797 4.37783 2.9961 4.37783 2.87136C4.37783 2.43767 4.26243 1.99674 4.01211 1.65019C3.76178 1.30365 3.36915 1.07676 2.91949 1.07676C2.46984 1.07676 2.0772 1.30365 1.82688 1.65019C1.57656 1.99674 1.46116 2.43767 1.46116 2.87136C1.46116 3.30506 1.57656 3.74599 1.82688 4.09253C2.0772 4.43908 2.46984 4.66597 2.91949 4.66597C3.31888 4.66597 3.65706 4.46859 3.90672 4.18577L5.59576 5.37259C5.57621 5.49612 5.54449 5.61799 5.54449 5.74273C5.54449 6.17642 5.6599 6.61735 5.91022 6.9639C6.16054 7.31044 6.55317 7.53733 7.00283 7.53733C7.45248 7.53733 7.84512 7.31044 8.09544 6.9639C8.34576 6.61735 8.46116 6.17642 8.46116 5.74273C8.46116 5.5273 8.4322 5.30999 8.37286 5.1034L10.2744 3.26393C10.5044 3.45051 10.7704 3.5892 11.0862 3.5892C11.5358 3.5892 11.9285 3.36232 12.1788 3.01577C12.4291 2.66923 12.5445 2.2283 12.5445 1.7946C12.5445 1.36091 12.4291 0.919977 12.1788 0.573431C11.9285 0.226886 11.5358 0 11.0862 0ZM11.0862 1.07676C11.3171 1.07676 11.4348 1.16393 11.5248 1.28847C11.6148 1.41301 11.6695 1.60019 11.6695 1.7946C11.6695 1.98902 11.6148 2.1762 11.5248 2.30074C11.4348 2.42527 11.3171 2.51244 11.0862 2.51244C10.8694 2.51244 10.7622 2.4265 10.6743 2.31406C10.6605 2.28171 10.6441 2.25118 10.6253 2.22292C10.5587 2.10237 10.5028 1.95913 10.5028 1.7946C10.5028 1.60019 10.5576 1.41301 10.6475 1.28847C10.7375 1.16393 10.8553 1.07676 11.0862 1.07676ZM2.91949 2.15352C3.1504 2.15352 3.26818 2.24069 3.35813 2.36523C3.44809 2.48977 3.50283 2.67695 3.50283 2.87136C3.50283 3.06578 3.44809 3.25296 3.35813 3.3775C3.26818 3.50203 3.1504 3.5892 2.91949 3.5892C2.68859 3.5892 2.57081 3.50203 2.48086 3.3775C2.3909 3.25296 2.33616 3.06578 2.33616 2.87136C2.33616 2.67695 2.3909 2.48977 2.48086 2.36523C2.57081 2.24069 2.68859 2.15352 2.91949 2.15352ZM7.00283 5.02489C7.21958 5.02489 7.32675 5.11083 7.41469 5.22327C7.42847 5.25562 7.44488 5.28615 7.46368 5.31441C7.53026 5.43495 7.58616 5.5782 7.58616 5.74273C7.58616 5.93714 7.53142 6.12432 7.44147 6.24886C7.35151 6.3734 7.23373 6.46057 7.00283 6.46057C6.77192 6.46057 6.65415 6.3734 6.56419 6.24886C6.47423 6.12432 6.41949 5.93714 6.41949 5.74273C6.41949 5.54831 6.47423 5.36113 6.56419 5.23659C6.65415 5.11206 6.77192 5.02489 7.00283 5.02489ZM11.0845 5.02489C10.2834 5.02489 9.62498 5.83584 9.62498 6.82159V12.2033C9.62498 13.189 10.2834 14 11.0845 14C11.8855 14 12.5445 13.189 12.5445 12.2033V6.82159C12.5445 5.83584 11.8855 5.02489 11.0845 5.02489ZM11.0845 6.10165C11.4127 6.10165 11.6695 6.4176 11.6695 6.82159V12.2033C11.6695 12.6073 11.4127 12.9232 11.0845 12.9232C10.7562 12.9232 10.5 12.6073 10.5 12.2033V6.82159C10.5 6.4176 10.7562 6.10165 11.0845 6.10165ZM2.91779 6.10375C2.11674 6.10375 1.45831 6.914 1.45831 7.89975V12.2033C1.45831 13.189 2.11674 14 2.91779 14C3.71883 14 4.37783 13.189 4.37783 12.2033V7.89975C4.37783 6.914 3.71883 6.10375 2.91779 6.10375ZM2.91779 7.18051C3.24608 7.1805 3.50283 7.49577 3.50283 7.89975V12.2033C3.50283 12.6073 3.24608 12.9232 2.91779 12.9232C2.5895 12.9232 2.33331 12.6073 2.33331 12.2033V7.89975C2.33331 7.49577 2.5895 7.18051 2.91779 7.18051ZM7.00283 8.97301C6.20178 8.97301 5.54279 9.78396 5.54279 10.7697V12.2033C5.54279 13.189 6.20178 14 7.00283 14C7.80387 14 8.46287 13.189 8.46287 12.2033V10.7697C8.46287 9.78396 7.80387 8.97301 7.00283 8.97301ZM7.00283 10.0498C7.33112 10.0498 7.58787 10.3657 7.58787 10.7697V12.2033C7.58787 12.6073 7.33112 12.9232 7.00283 12.9232C6.67454 12.9232 6.41779 12.6073 6.41779 12.2033V10.7697C6.41779 10.3657 6.67454 10.0498 7.00283 10.0498Z" fill="black"/>
</svg>
