<svg width="14" height="16" viewBox="0 0 14 16" fill="none" xmlns="http://www.w3.org/2000/svg">
<path d="M7 0.773529C3.1403 0.773529 0 3.91383 0 7.77353C0 11.6332 3.1403 14.7735 7 14.7735C9.7181 14.7735 12.076 13.2167 13.2337 10.9481C13.2724 10.8723 13.2921 10.7881 13.2911 10.703C13.29 10.6178 13.2683 10.5342 13.2277 10.4593C13.1871 10.3844 13.1289 10.3205 13.0582 10.2731C12.9874 10.2258 12.9062 10.1963 12.8215 10.1873C9.7451 9.86096 7.35 7.26642 7.35 4.09853C7.35 3.18441 7.55496 2.32203 7.91533 1.54052C7.95096 1.46328 7.96729 1.37854 7.96291 1.29358C7.95854 1.20863 7.93359 1.12602 7.89021 1.05285C7.84683 0.979673 7.78632 0.918136 7.71389 0.873529C7.64146 0.828922 7.55928 0.80258 7.47441 0.796771C7.33472 0.787369 7.17701 0.773529 7 0.773529ZM6.70674 1.85292C6.46844 2.56356 6.3 3.30693 6.3 4.09853C6.3 7.50593 8.69454 10.3374 11.8863 11.065C10.8185 12.6484 9.05735 13.7235 7 13.7235C3.7078 13.7235 1.05 11.0657 1.05 7.77353C1.05 4.58181 3.55439 2.00838 6.70674 1.85292Z" fill="black"/>
</svg>
