<svg width="14" height="16" viewBox="0 0 14 16" fill="none" xmlns="http://www.w3.org/2000/svg">
<path d="M7 0.835938C3.1403 0.835938 0 3.97624 0 7.83594C0 11.6956 3.1403 14.8359 7 14.8359C9.7181 14.8359 12.076 13.2791 13.2337 11.0105C13.2724 10.9347 13.2921 10.8506 13.2911 10.7654C13.29 10.6802 13.2683 10.5966 13.2277 10.5217C13.1871 10.4468 13.1289 10.3829 13.0582 10.3355C12.9874 10.2882 12.9062 10.2587 12.8215 10.2497C9.7451 9.92337 7.35 7.32883 7.35 4.16094C7.35 3.24682 7.55496 2.38444 7.91533 1.60293C7.95096 1.52569 7.96729 1.44094 7.96291 1.35599C7.95854 1.27104 7.93359 1.18843 7.89021 1.11525C7.84683 1.04208 7.78632 0.980545 7.71389 0.935937C7.64146 0.89133 7.55928 0.864989 7.47441 0.85918C7.33472 0.849777 7.17701 0.835938 7 0.835938ZM6.70674 1.91533C6.46844 2.62597 6.3 3.36934 6.3 4.16094C6.3 7.56834 8.69454 10.3998 11.8863 11.1274C10.8185 12.7108 9.05735 13.7859 7 13.7859C3.7078 13.7859 1.05 11.1281 1.05 7.83594C1.05 4.64422 3.55439 2.07079 6.70674 1.91533Z" fill="black"/>
</svg>
