<svg width="14" height="15" viewBox="0 0 14 15" fill="none" xmlns="http://www.w3.org/2000/svg">
<g clip-path="url(#clip0_968_10052)">
<path d="M3.63649 0.235908C3.5205 0.23768 3.40768 0.27402 3.31246 0.340278C3.21724 0.406536 3.14396 0.499699 3.10199 0.607843C3.06002 0.715988 3.05127 0.834196 3.07686 0.947341C3.10246 1.06049 3.16123 1.16342 3.24566 1.24297L9.4201 7.23604L3.24566 13.2291C3.1895 13.2821 3.14443 13.3458 3.11309 13.4164C3.08174 13.4869 3.06473 13.5631 3.06305 13.6403C3.06137 13.7175 3.07506 13.7943 3.10331 13.8662C3.13156 13.938 3.17381 14.0036 3.22761 14.059C3.28142 14.1144 3.34569 14.1586 3.41671 14.1889C3.48773 14.2193 3.56408 14.2352 3.64131 14.2358C3.71854 14.2364 3.79512 14.2217 3.8666 14.1924C3.93808 14.1632 4.00303 14.12 4.05768 14.0654L10.6632 7.65419C10.7191 7.59986 10.7636 7.53486 10.794 7.46303C10.8243 7.39121 10.84 7.31402 10.84 7.23604C10.84 7.15805 10.8243 7.08086 10.794 7.00904C10.7636 6.93721 10.7191 6.87221 10.6632 6.81788L4.05768 0.406662C4.00249 0.351443 3.93677 0.307875 3.86442 0.278543C3.79206 0.249211 3.71456 0.234713 3.63649 0.235908Z" fill="black"/>
</g>
<defs>
<clipPath id="clip0_968_10052">
<rect width="14" height="14" fill="white" transform="translate(0 0.23584)"/>
</clipPath>
</defs>
</svg>
