<svg width="14" height="15" viewBox="0 0 14 15" fill="none" xmlns="http://www.w3.org/2000/svg">
<g clip-path="url(#clip0_967_10038)">
<path d="M2.71042 0.236534C2.5912 0.24306 2.4773 0.288031 2.38578 0.364715C2.29425 0.441398 2.23003 0.545667 2.20274 0.661906C2.17544 0.778145 2.18653 0.9001 2.23435 1.00951C2.28217 1.11891 2.36415 1.20989 2.468 1.2688L10.1557 5.78128L2.4529 10.6376C2.39148 10.6763 2.33829 10.7268 2.29636 10.786C2.25444 10.8453 2.22461 10.9123 2.20857 10.9831C2.19252 11.0539 2.19059 11.1272 2.20287 11.1988C2.21516 11.2703 2.24142 11.3388 2.28015 11.4002C2.31889 11.4616 2.36934 11.5148 2.42863 11.5567C2.48793 11.5986 2.55489 11.6284 2.62571 11.6444C2.69653 11.6605 2.76981 11.6624 2.84136 11.6501C2.91292 11.6378 2.98136 11.6115 3.04276 11.5728L11.5138 6.23231C11.594 6.18172 11.6598 6.11134 11.7049 6.02796C11.7501 5.94457 11.773 5.85097 11.7715 5.75617C11.7699 5.66137 11.7441 5.56855 11.6963 5.48665C11.6485 5.40475 11.5805 5.33652 11.4987 5.28852L3.02765 0.316382C2.94845 0.268223 2.85841 0.240765 2.76581 0.236534C2.74736 0.235608 2.72887 0.235608 2.71042 0.236534ZM2.74783 13.1309C2.67462 13.1298 2.60194 13.1434 2.534 13.1707C2.46607 13.198 2.40424 13.2385 2.3521 13.2899C2.29996 13.3413 2.25857 13.4025 2.23031 13.4701C2.20205 13.5376 2.1875 13.6101 2.1875 13.6833C2.1875 13.7565 2.20205 13.829 2.23031 13.8966C2.25857 13.9641 2.29996 14.0254 2.3521 14.0768C2.40424 14.1282 2.46607 14.1687 2.534 14.196C2.60194 14.2233 2.67462 14.2368 2.74783 14.2358H11.2189C11.2921 14.2368 11.3648 14.2233 11.4327 14.196C11.5006 14.1687 11.5625 14.1282 11.6146 14.0768C11.6667 14.0254 11.7081 13.9641 11.7364 13.8966C11.7647 13.829 11.7792 13.7565 11.7792 13.6833C11.7792 13.6101 11.7647 13.5376 11.7364 13.4701C11.7081 13.4025 11.6667 13.3413 11.6146 13.2899C11.5625 13.2385 11.5006 13.198 11.4327 13.1707C11.3648 13.1434 11.2921 13.1298 11.2189 13.1309H2.74783Z" fill="black"/>
</g>
<defs>
<clipPath id="clip0_967_10038">
<rect width="14" height="14" fill="white" transform="translate(0 0.23584)"/>
</clipPath>
</defs>
</svg>
