<svg width="14" height="15" viewBox="0 0 14 15" fill="none" xmlns="http://www.w3.org/2000/svg">
<path d="M3.5 1.17355C2.6775 1.17355 2 1.85105 2 2.67355V4.50689H1.5C0.6775 4.50689 0 5.18439 0 6.00689V11.0069C0 12.1975 0.976021 13.1736 2.16667 13.1736H11.8333C13.024 13.1736 14 12.1975 14 11.0069V2.67355C14 1.85105 13.3225 1.17355 12.5 1.17355H3.5ZM3.5 2.17355H12.5C12.7822 2.17355 13 2.39139 13 2.67355V11.0069C13 11.6569 12.4834 12.1736 11.8333 12.1736H2.16667C1.51665 12.1736 1 11.6569 1 11.0069V6.00689C1 5.72472 1.21783 5.50689 1.5 5.50689H2V10.6736C1.99906 10.7398 2.0113 10.8056 2.03601 10.8671C2.06072 10.9286 2.0974 10.9845 2.14392 11.0317C2.19044 11.0789 2.24588 11.1164 2.30701 11.1419C2.36814 11.1675 2.43374 11.1807 2.5 11.1807C2.56626 11.1807 2.63186 11.1675 2.69299 11.1419C2.75412 11.1164 2.80956 11.0789 2.85608 11.0317C2.9026 10.9845 2.93928 10.9286 2.96399 10.8671C2.9887 10.8056 3.00094 10.7398 3 10.6736V5.08892C3.00882 5.03524 3.00882 4.98049 3 4.92681V2.67355C3 2.39139 3.21783 2.17355 3.5 2.17355ZM4.5 4.17355C4.43374 4.17262 4.36796 4.18486 4.30648 4.20956C4.24499 4.23427 4.18903 4.27095 4.14185 4.31747C4.09466 4.364 4.0572 4.41943 4.03162 4.48056C4.00605 4.54169 3.99288 4.60729 3.99288 4.67355C3.99288 4.73982 4.00605 4.80542 4.03162 4.86655C4.0572 4.92768 4.09466 4.98311 4.14185 5.02963C4.18903 5.07616 4.24499 5.11284 4.30648 5.13754C4.36796 5.16225 4.43374 5.17449 4.5 5.17355H11.5C11.5663 5.17449 11.632 5.16225 11.6935 5.13754C11.755 5.11284 11.811 5.07616 11.8582 5.02963C11.9053 4.98311 11.9428 4.92768 11.9684 4.86655C11.994 4.80542 12.0071 4.73982 12.0071 4.67355C12.0071 4.60729 11.994 4.54169 11.9684 4.48056C11.9428 4.41943 11.9053 4.364 11.8582 4.31747C11.811 4.27095 11.755 4.23427 11.6935 4.20956C11.632 4.18486 11.5663 4.17262 11.5 4.17355H4.5ZM4.5 6.84022C4.43374 6.83928 4.36796 6.85152 4.30648 6.87623C4.24499 6.90094 4.18903 6.93762 4.14185 6.98414C4.09466 7.03066 4.0572 7.0861 4.03162 7.14723C4.00605 7.20836 3.99288 7.27396 3.99288 7.34022C3.99288 7.40648 4.00605 7.47208 4.03162 7.53321C4.0572 7.59434 4.09466 7.64978 4.14185 7.6963C4.18903 7.74282 4.24499 7.7795 4.30648 7.80421C4.36796 7.82892 4.43374 7.84116 4.5 7.84022H7.16667C7.23292 7.84116 7.2987 7.82892 7.36019 7.80421C7.42167 7.7795 7.47763 7.74282 7.52482 7.6963C7.572 7.64978 7.60947 7.59434 7.63505 7.53321C7.66062 7.47208 7.67379 7.40648 7.67379 7.34022C7.67379 7.27396 7.66062 7.20836 7.63505 7.14723C7.60947 7.0861 7.572 7.03066 7.52482 6.98414C7.47763 6.93762 7.42167 6.90094 7.36019 6.87623C7.2987 6.85152 7.23292 6.83928 7.16667 6.84022H4.5ZM9.16667 6.84022C9.10041 6.83928 9.03463 6.85152 8.97315 6.87623C8.91166 6.90094 8.8557 6.93762 8.80852 6.98414C8.76133 7.03066 8.72386 7.0861 8.69829 7.14723C8.67272 7.20836 8.65955 7.27396 8.65955 7.34022C8.65955 7.40648 8.67272 7.47208 8.69829 7.53321C8.72386 7.59434 8.76133 7.64978 8.80852 7.6963C8.8557 7.74282 8.91166 7.7795 8.97315 7.80421C9.03463 7.82892 9.10041 7.84116 9.16667 7.84022H11.5C11.5663 7.84116 11.632 7.82892 11.6935 7.80421C11.755 7.7795 11.811 7.74282 11.8582 7.6963C11.9053 7.64978 11.9428 7.59434 11.9684 7.53321C11.994 7.47208 12.0071 7.40648 12.0071 7.34022C12.0071 7.27396 11.994 7.20836 11.9684 7.14723C11.9428 7.0861 11.9053 7.03066 11.8582 6.98414C11.811 6.93762 11.755 6.90094 11.6935 6.87623C11.632 6.85152 11.5663 6.83928 11.5 6.84022H9.16667ZM4.5 9.17355C4.43374 9.17262 4.36796 9.18486 4.30648 9.20956C4.24499 9.23427 4.18903 9.27095 4.14185 9.31747C4.09466 9.364 4.0572 9.41943 4.03162 9.48056C4.00605 9.54169 3.99288 9.60729 3.99288 9.67355C3.99288 9.73982 4.00605 9.80542 4.03162 9.86655C4.0572 9.92768 4.09466 9.98311 4.14185 10.0296C4.18903 10.0762 4.24499 10.1128 4.30648 10.1375C4.36796 10.1622 4.43374 10.1745 4.5 10.1736H7.16667C7.23292 10.1745 7.2987 10.1622 7.36019 10.1375C7.42167 10.1128 7.47763 10.0762 7.52482 10.0296C7.572 9.98311 7.60947 9.92768 7.63505 9.86655C7.66062 9.80542 7.67379 9.73982 7.67379 9.67355C7.67379 9.60729 7.66062 9.54169 7.63505 9.48056C7.60947 9.41943 7.572 9.364 7.52482 9.31747C7.47763 9.27095 7.42167 9.23427 7.36019 9.20956C7.2987 9.18486 7.23292 9.17262 7.16667 9.17355H4.5ZM9.16667 9.17355C9.10041 9.17262 9.03463 9.18486 8.97315 9.20956C8.91166 9.23427 8.8557 9.27095 8.80852 9.31747C8.76133 9.364 8.72386 9.41943 8.69829 9.48056C8.67272 9.54169 8.65955 9.60729 8.65955 9.67355C8.65955 9.73982 8.67272 9.80542 8.69829 9.86655C8.72386 9.92768 8.76133 9.98311 8.80852 10.0296C8.8557 10.0762 8.91166 10.1128 8.97315 10.1375C9.03463 10.1622 9.10041 10.1745 9.16667 10.1736H11.5C11.5663 10.1745 11.632 10.1622 11.6935 10.1375C11.755 10.1128 11.811 10.0762 11.8582 10.0296C11.9053 9.98311 11.9428 9.92768 11.9684 9.86655C11.994 9.80542 12.0071 9.73982 12.0071 9.67355C12.0071 9.60729 11.994 9.54169 11.9684 9.48056C11.9428 9.41943 11.9053 9.364 11.8582 9.31747C11.811 9.27095 11.755 9.23427 11.6935 9.20956C11.632 9.18486 11.5663 9.17262 11.5 9.17355H9.16667Z" fill="black"/>
</svg>
