<svg width="14" height="15" viewBox="0 0 14 15" fill="none" xmlns="http://www.w3.org/2000/svg">
<g clip-path="url(#clip0_968_10047)">
<path d="M13.4603 0.236057C13.324 0.240027 13.1947 0.296855 13.0996 0.394508L0.161295 13.3329C0.110956 13.3812 0.0707658 13.4391 0.0430795 13.5031C0.0153933 13.5672 0.000767137 13.6361 5.76317e-05 13.7059C-0.000651874 13.7757 0.0125696 13.8449 0.0389477 13.9095C0.0653257 13.9742 0.10433 14.0328 0.153677 14.0822C0.203023 14.1315 0.26172 14.1705 0.326329 14.1969C0.390938 14.2233 0.460161 14.2365 0.529944 14.2358C0.599727 14.2351 0.668667 14.2205 0.732726 14.1928C0.796786 14.1651 0.854677 14.1249 0.90301 14.0746L2.44518 12.5324C3.66984 13.5869 5.25971 14.2282 7.00133 14.2282C10.8584 14.2282 13.995 11.0916 13.995 7.23454C13.995 5.49293 13.3536 3.90305 12.2992 2.67839L13.8414 1.13622C13.917 1.06253 13.9687 0.9677 13.9896 0.864156C14.0105 0.760612 13.9996 0.653174 13.9584 0.555903C13.9173 0.458632 13.8477 0.376059 13.7588 0.31899C13.6699 0.261922 13.5658 0.233016 13.4603 0.236057ZM7.00133 0.240838C3.1443 0.240838 0.00762501 3.37751 0.00762501 7.23454C0.00762501 8.59482 0.395448 9.86753 1.07034 10.9411L1.84006 10.172C1.34001 9.30482 1.05668 8.30108 1.05668 7.23454C1.05668 3.95799 3.72478 1.28989 7.00133 1.28989C8.06787 1.28989 9.0716 1.57322 9.93882 2.07327L10.7079 1.30355C9.63432 0.628661 8.3616 0.240838 7.00133 0.240838ZM11.5547 3.42284C12.4215 4.45444 12.946 5.78629 12.946 7.23454C12.946 10.5111 10.2779 13.1792 7.00133 13.1792C5.55307 13.1792 4.22123 12.6547 3.18962 11.788L5.18119 9.7964C5.69584 10.1633 6.32301 10.3817 7.00133 10.3817C8.73577 10.3817 10.1485 8.96898 10.1485 7.23454C10.1485 6.55622 9.93008 5.92905 9.56318 5.4144L11.5547 3.42284ZM7.00133 4.08738C5.26689 4.08738 3.85416 5.5001 3.85416 7.23454C3.85416 7.51429 3.89282 7.78707 3.96276 8.04934L4.91005 7.10136C4.97299 6.04881 5.8156 5.2062 6.86815 5.14326L7.81612 4.19597C7.55386 4.12603 7.28108 4.08738 7.00133 4.08738ZM8.80713 6.17046C8.9917 6.48212 9.09944 6.84502 9.09944 7.23454C9.09944 8.392 8.15879 9.33265 7.00133 9.33265C6.61181 9.33265 6.24891 9.22492 5.93725 9.04034L8.80713 6.17046Z" fill="black"/>
</g>
<defs>
<clipPath id="clip0_968_10047">
<rect width="14" height="14" fill="white" transform="translate(0 0.23584)"/>
</clipPath>
</defs>
</svg>
