<svg width="14" height="15" viewBox="0 0 14 15" fill="none" xmlns="http://www.w3.org/2000/svg">
<path d="M7 1.77365C5.07053 1.77365 3.36146 2.73464 2.32635 4.2005C2.29022 4.25166 2.26452 4.30943 2.25073 4.37052C2.23693 4.43162 2.2353 4.49483 2.24594 4.55655C2.25657 4.61826 2.27926 4.67729 2.3127 4.73024C2.34615 4.78319 2.38969 4.82903 2.44086 4.86515C2.49202 4.90127 2.5498 4.92696 2.61089 4.94075C2.67198 4.95454 2.73519 4.95616 2.79691 4.94552C2.85863 4.93488 2.91765 4.91219 2.9706 4.87873C3.02354 4.84528 3.06938 4.80173 3.1055 4.75056C3.96933 3.52726 5.38651 2.72726 7 2.72726C9.56886 2.72726 11.6483 4.74598 11.7575 7.2873L10.9926 6.52243C10.9482 6.47666 10.895 6.44027 10.8362 6.41543C10.7775 6.39058 10.7143 6.37777 10.6505 6.37777C10.5556 6.3778 10.4629 6.40613 10.3842 6.45915C10.3055 6.51217 10.2444 6.58746 10.2087 6.67539C10.1731 6.76332 10.1645 6.8599 10.184 6.95276C10.2035 7.04562 10.2503 7.13054 10.3184 7.19666L11.7488 8.62706C11.8382 8.71645 11.9595 8.76666 12.0859 8.76666C12.2123 8.76666 12.3336 8.71645 12.423 8.62706L12.5335 8.51655C12.5682 8.49026 12.5991 8.45935 12.6254 8.42467L13.8534 7.19666C13.8992 7.15272 13.9357 7.1001 13.9609 7.04186C13.986 6.98363 13.9993 6.92097 14 6.85753C14.0006 6.7941 13.9886 6.73118 13.9646 6.67245C13.9406 6.61371 13.9052 6.56036 13.8603 6.5155C13.8155 6.47065 13.7621 6.43519 13.7034 6.41121C13.6447 6.38723 13.5817 6.37522 13.5183 6.37586C13.4549 6.37651 13.3922 6.3898 13.334 6.41497C13.2757 6.44014 13.2231 6.47667 13.1792 6.52243L12.6968 7.00482C12.4467 4.07948 9.98888 1.77365 7 1.77365ZM1.90728 6.2238C1.78321 6.22562 1.66472 6.27573 1.577 6.36349L1.46835 6.47214C1.43263 6.49902 1.40086 6.53078 1.37398 6.56651L0.146592 7.7939C0.100832 7.83783 0.0642992 7.89046 0.039132 7.94869C0.0139649 8.00692 0.000669596 8.06959 2.46473e-05 8.13302C-0.000620302 8.19646 0.0113981 8.25938 0.035376 8.31811C0.059354 8.37684 0.0948095 8.4302 0.139666 8.47505C0.184523 8.51991 0.237879 8.55537 0.296609 8.57934C0.35534 8.60332 0.418264 8.61534 0.481698 8.61469C0.545131 8.61405 0.607798 8.60075 0.666029 8.57559C0.72426 8.55042 0.776884 8.51389 0.820819 8.46813L1.30321 7.98574C1.55331 10.9111 4.01112 13.2169 7 13.2169C8.92947 13.2169 10.6385 12.2559 11.6737 10.7901C11.7098 10.7389 11.7355 10.6811 11.7493 10.62C11.7631 10.5589 11.7647 10.4957 11.7541 10.434C11.7434 10.3723 11.7207 10.3133 11.6873 10.2603C11.6539 10.2074 11.6103 10.1615 11.5591 10.1254C11.508 10.0893 11.4502 10.0636 11.3891 10.0498C11.328 10.036 11.2648 10.0344 11.2031 10.045C11.1414 10.0557 11.0824 10.0784 11.0294 10.1118C10.9765 10.1453 10.9306 10.1888 10.8945 10.24C10.0307 11.4633 8.61349 12.2633 7 12.2633C4.43114 12.2633 2.35168 10.2446 2.24253 7.70326L3.0074 8.46813C3.05134 8.51389 3.10396 8.55042 3.16219 8.57559C3.22042 8.60075 3.28309 8.61405 3.34653 8.61469C3.40996 8.61534 3.47288 8.60332 3.53161 8.57934C3.59034 8.55536 3.6437 8.51991 3.68856 8.47505C3.73341 8.4302 3.76887 8.37684 3.79285 8.31811C3.81682 8.25938 3.82884 8.19645 3.8282 8.13302C3.82755 8.06959 3.81426 8.00692 3.78909 7.94869C3.76392 7.89046 3.72739 7.83783 3.68163 7.7939L2.25123 6.36349C2.20615 6.3184 2.15248 6.2828 2.09341 6.25881C2.03433 6.23481 1.97104 6.22291 1.90728 6.2238Z" fill="black"/>
<path d="M0.989651 2.03289C0.749479 1.79271 0.749479 1.40332 0.989652 1.16315C1.22982 0.922974 1.61922 0.922974 1.85939 1.16315L13.0105 12.3142C13.2506 12.5544 13.2506 12.9438 13.0105 13.184C12.7703 13.4241 12.3809 13.4241 12.1407 13.184L0.989651 2.03289Z" fill="black"/>
</svg>
