<svg width="14" height="15" viewBox="0 0 14 15" fill="none" xmlns="http://www.w3.org/2000/svg">
<g clip-path="url(#clip0_1128_9880)">
<path d="M4.46608 0.235911C4.31169 0.238323 4.16456 0.301918 4.05703 0.412727C3.94949 0.523536 3.89033 0.672497 3.89254 0.826893V3.15744C3.89254 3.70055 3.46459 4.1285 2.92148 4.1285H0.590935C0.513729 4.12741 0.437075 4.14167 0.36543 4.17046C0.293784 4.19925 0.228574 4.242 0.173591 4.29621C0.118608 4.35042 0.0749473 4.41502 0.0451468 4.48625C0.0153462 4.55748 0 4.63392 0 4.71114C0 4.78835 0.0153462 4.8648 0.0451468 4.93603C0.0749473 5.00726 0.118608 5.07186 0.173591 5.12607C0.228574 5.18028 0.293784 5.22302 0.36543 5.25181C0.437075 5.2806 0.513729 5.29487 0.590935 5.29378H2.92148C4.09444 5.29378 5.05782 4.3304 5.05782 3.15744V0.826893C5.05894 0.748911 5.04439 0.671497 5.01504 0.599241C4.98569 0.526984 4.94213 0.461355 4.88695 0.406243C4.83176 0.351131 4.76608 0.307657 4.69378 0.278399C4.62149 0.24914 4.54406 0.234692 4.46608 0.235911ZM9.5156 0.235911C9.36121 0.238323 9.21408 0.301918 9.10655 0.412727C8.99901 0.523536 8.93985 0.672497 8.94206 0.826893V3.15744C8.94206 4.3304 9.90545 5.29378 11.0784 5.29378H13.4089C13.4862 5.29487 13.5628 5.2806 13.6345 5.25181C13.7061 5.22302 13.7713 5.18028 13.8263 5.12607C13.8813 5.07186 13.9249 5.00726 13.9547 4.93603C13.9845 4.8648 13.9999 4.78835 13.9999 4.71114C13.9999 4.63392 13.9845 4.55748 13.9547 4.48625C13.9249 4.41502 13.8813 4.35042 13.8263 4.29621C13.7713 4.242 13.7061 4.19925 13.6345 4.17046C13.5628 4.14167 13.4862 4.12741 13.4089 4.1285H11.0784C10.5353 4.1285 10.1073 3.70055 10.1073 3.15744V0.826893C10.1085 0.748911 10.0939 0.671497 10.0646 0.599241C10.0352 0.526984 9.99165 0.461355 9.93647 0.406243C9.88128 0.351131 9.8156 0.307657 9.7433 0.278399C9.67101 0.24914 9.59358 0.234692 9.5156 0.235911ZM0.590935 9.17802C0.513729 9.17693 0.437075 9.19119 0.36543 9.21998C0.293784 9.24877 0.228574 9.29152 0.173591 9.34573C0.118608 9.39994 0.0749473 9.46454 0.0451468 9.53577C0.0153462 9.607 0 9.68344 0 9.76066C0 9.83787 0.0153462 9.91432 0.0451468 9.98555C0.0749473 10.0568 0.118608 10.1214 0.173591 10.1756C0.228574 10.2298 0.293784 10.2725 0.36543 10.3013C0.437075 10.3301 0.513729 10.3444 0.590935 10.3433H2.92148C3.46459 10.3433 3.89254 10.7713 3.89254 11.3144V13.6449C3.89145 13.7221 3.90572 13.7988 3.93451 13.8704C3.9633 13.9421 4.00604 14.0073 4.06025 14.0622C4.11446 14.1172 4.17906 14.1609 4.25029 14.1907C4.32152 14.2205 4.39797 14.2358 4.47518 14.2358C4.5524 14.2358 4.62884 14.2205 4.70007 14.1907C4.7713 14.1609 4.8359 14.1172 4.89011 14.0622C4.94432 14.0073 4.98707 13.9421 5.01586 13.8704C5.04465 13.7988 5.05891 13.7221 5.05782 13.6449V11.3144C5.05782 10.1414 4.09444 9.17802 2.92148 9.17802H0.590935ZM11.0784 9.17802C9.90545 9.17802 8.94206 10.1414 8.94206 11.3144V13.6449C8.94097 13.7221 8.95524 13.7988 8.98403 13.8704C9.01282 13.9421 9.05556 14.0073 9.10977 14.0622C9.16398 14.1172 9.22858 14.1609 9.29981 14.1907C9.37104 14.2205 9.44749 14.2358 9.5247 14.2358C9.60192 14.2358 9.67836 14.2205 9.74959 14.1907C9.82082 14.1609 9.88542 14.1172 9.93963 14.0622C9.99384 14.0073 10.0366 13.9421 10.0654 13.8704C10.0942 13.7988 10.1084 13.7221 10.1073 13.6449V11.3144C10.1073 10.7713 10.5353 10.3433 11.0784 10.3433H13.4089C13.4862 10.3444 13.5628 10.3301 13.6345 10.3013C13.7061 10.2725 13.7713 10.2298 13.8263 10.1756C13.8813 10.1214 13.9249 10.0568 13.9547 9.98555C13.9845 9.91432 13.9999 9.83787 13.9999 9.76066C13.9999 9.68344 13.9845 9.607 13.9547 9.53577C13.9249 9.46454 13.8813 9.39994 13.8263 9.34573C13.7713 9.29152 13.7061 9.24877 13.6345 9.21998C13.5628 9.19119 13.4862 9.17693 13.4089 9.17802H11.0784Z" fill="black"/>
</g>
<defs>
<clipPath id="clip0_1128_9880">
<rect width="14" height="14" fill="white" transform="translate(0 0.23584)"/>
</clipPath>
</defs>
</svg>
