<svg width="14" height="15" viewBox="0 0 14 15" fill="none" xmlns="http://www.w3.org/2000/svg">
<g clip-path="url(#clip0_967_10035)">
<path d="M0.524435 0.23584C0.42005 0.235865 0.318046 0.267034 0.231474 0.325357C0.144902 0.38368 0.0776997 0.466505 0.0384647 0.563236C-0.000770397 0.659967 -0.0102535 0.766204 0.0112284 0.868355C0.0327104 0.970506 0.0841805 1.06392 0.159053 1.13666L3.45978 4.43739H1.57892C1.28939 4.43739 1.05441 4.67202 1.05441 4.9619C1.05441 5.25178 1.28939 5.48641 1.57892 5.48641H4.5088L7.65586 8.63347H1.57892C1.28939 8.63347 1.05441 8.8681 1.05441 9.15798C1.05441 9.44786 1.28939 9.68249 1.57892 9.68249H8.70488L13.097 14.0746C13.1453 14.1249 13.2032 14.1651 13.2673 14.1928C13.3313 14.2205 13.4003 14.2351 13.47 14.2358C13.5398 14.2365 13.609 14.2233 13.6736 14.1969C13.7382 14.1705 13.7969 14.1315 13.8463 14.0822C13.8956 14.0329 13.9346 13.9742 13.961 13.9096C13.9874 13.8449 14.0006 13.7757 13.9999 13.7059C13.9992 13.6362 13.9846 13.5672 13.9569 13.5032C13.9292 13.4391 13.889 13.3812 13.8387 13.3329L0.900744 0.394969C0.851853 0.34462 0.793357 0.304595 0.728719 0.277261C0.664081 0.249928 0.594615 0.235843 0.524435 0.23584ZM6.41493 4.43739L7.46395 5.48641H12.4188C12.7083 5.48641 12.9433 5.25178 12.9433 4.9619C12.9433 4.67202 12.7083 4.43739 12.4188 4.43739H6.41493ZM10.611 8.63347L11.66 9.68249H12.4188C12.7083 9.68249 12.9433 9.44786 12.9433 9.15798C12.9433 8.8681 12.7083 8.63347 12.4188 8.63347H10.611Z" fill="black"/>
</g>
<defs>
<clipPath id="clip0_967_10035">
<rect width="14" height="14" fill="white" transform="translate(0 0.23584)"/>
</clipPath>
</defs>
</svg>
