<svg width="14" height="15" viewBox="0 0 14 15" fill="none" xmlns="http://www.w3.org/2000/svg">
<path d="M1.75 -0.313124C0.790416 -0.313124 0 0.477293 0 1.43688V11.9369C0 12.8965 0.790416 13.6869 1.75 13.6869H9.13889C9.29359 13.6868 9.44194 13.6254 9.55132 13.516C9.55336 13.514 9.55539 13.5119 9.5574 13.5099L13.8291 9.2382C13.9385 9.12882 14 8.98046 14 8.82577V1.43688C14 0.477293 13.2096 -0.313124 12.25 -0.313124H1.75ZM1.75 0.853543H12.25C12.5792 0.853543 12.8333 1.10768 12.8333 1.43688V8.24243H10.3056C9.34597 8.24243 8.55556 9.03285 8.55556 9.99243V12.5202H1.75C1.42081 12.5202 1.16667 12.2661 1.16667 11.9369V1.43688C1.16667 1.10768 1.42081 0.853543 1.75 0.853543ZM3.69444 2.79723C3.61715 2.79613 3.5404 2.81042 3.46867 2.83924C3.39694 2.86806 3.33165 2.91086 3.2766 2.96513C3.22155 3.01941 3.17784 3.08409 3.148 3.1554C3.11817 3.22672 3.1028 3.30325 3.1028 3.38056C3.1028 3.45787 3.11817 3.5344 3.148 3.60572C3.17784 3.67704 3.22155 3.74171 3.2766 3.79599C3.33165 3.85026 3.39694 3.89306 3.46867 3.92188C3.5404 3.95071 3.61715 3.96499 3.69444 3.96389H10.3056C10.3829 3.96499 10.4596 3.95071 10.5313 3.92188C10.6031 3.89306 10.6683 3.85026 10.7234 3.79599C10.7784 3.74171 10.8222 3.67704 10.852 3.60572C10.8818 3.5344 10.8972 3.45787 10.8972 3.38056C10.8972 3.30325 10.8818 3.22672 10.852 3.1554C10.8222 3.08409 10.7784 3.01941 10.7234 2.96513C10.6683 2.91086 10.6031 2.86806 10.5313 2.83924C10.4596 2.81042 10.3829 2.79613 10.3056 2.79723H3.69444ZM3.69444 5.51945C3.61715 5.51836 3.5404 5.53264 3.46867 5.56146C3.39694 5.59029 3.33165 5.63308 3.2766 5.68736C3.22155 5.74163 3.17784 5.80631 3.148 5.87762C3.11817 5.94894 3.1028 6.02548 3.1028 6.10278C3.1028 6.18009 3.11817 6.25663 3.148 6.32794C3.17784 6.39926 3.22155 6.46393 3.2766 6.51821C3.33165 6.57249 3.39694 6.61528 3.46867 6.6441C3.5404 6.67293 3.61715 6.68721 3.69444 6.68612H8.75C8.8273 6.68721 8.90404 6.67293 8.97577 6.6441C9.04751 6.61528 9.11279 6.57249 9.16784 6.51821C9.22289 6.46393 9.26661 6.39926 9.29644 6.32794C9.32628 6.25663 9.34164 6.18009 9.34164 6.10278C9.34164 6.02548 9.32628 5.94894 9.29644 5.87762C9.26661 5.80631 9.22289 5.74163 9.16784 5.68736C9.11279 5.63308 9.04751 5.59029 8.97577 5.56146C8.90404 5.53264 8.8273 5.51836 8.75 5.51945H3.69444ZM10.3056 9.4091H12.0085L9.72222 11.6953V9.99243C9.72222 9.66324 9.97636 9.4091 10.3056 9.4091Z" fill="black"/>
</svg>
