<svg width="14" height="16" viewBox="0 0 14 16" fill="none" xmlns="http://www.w3.org/2000/svg">
<path d="M1.75 0.773651C0.790416 0.773651 0 1.56407 0 2.52365V13.0237C0 13.9832 0.790416 14.7737 1.75 14.7737H9.13889C9.29359 14.7736 9.44194 14.7121 9.55132 14.6028C9.55336 14.6007 9.55539 14.5987 9.5574 14.5967L13.8291 10.325C13.9385 10.2156 14 10.0672 14 9.91254V2.52365C14 1.56407 13.2096 0.773651 12.25 0.773651H1.75ZM1.75 1.94032H12.25C12.5792 1.94032 12.8333 2.19446 12.8333 2.52365V9.32921H10.3056C9.34597 9.32921 8.55556 10.1196 8.55556 11.0792V13.607H1.75C1.42081 13.607 1.16667 13.3528 1.16667 13.0237V2.52365C1.16667 2.19446 1.42081 1.94032 1.75 1.94032ZM3.69444 3.884C3.61715 3.88291 3.5404 3.89719 3.46867 3.92601C3.39694 3.95484 3.33165 3.99763 3.2766 4.05191C3.22155 4.10619 3.17784 4.17086 3.148 4.24218C3.11817 4.31349 3.1028 4.39003 3.1028 4.46734C3.1028 4.54464 3.11817 4.62118 3.148 4.69249C3.17784 4.76381 3.22155 4.82849 3.2766 4.88276C3.33165 4.93704 3.39694 4.97983 3.46867 5.00866C3.5404 5.03748 3.61715 5.05176 3.69444 5.05067H10.3056C10.3829 5.05176 10.4596 5.03748 10.5313 5.00866C10.6031 4.97983 10.6683 4.93704 10.7234 4.88276C10.7784 4.82849 10.8222 4.76381 10.852 4.69249C10.8818 4.62118 10.8972 4.54464 10.8972 4.46734C10.8972 4.39003 10.8818 4.31349 10.852 4.24218C10.8222 4.17086 10.7784 4.10619 10.7234 4.05191C10.6683 3.99763 10.6031 3.95484 10.5313 3.92601C10.4596 3.89719 10.3829 3.88291 10.3056 3.884H3.69444ZM3.69444 6.60623C3.61715 6.60513 3.5404 6.61941 3.46867 6.64824C3.39694 6.67706 3.33165 6.71986 3.2766 6.77413C3.22155 6.82841 3.17784 6.89308 3.148 6.9644C3.11817 7.03572 3.1028 7.11225 3.1028 7.18956C3.1028 7.26686 3.11817 7.3434 3.148 7.41472C3.17784 7.48603 3.22155 7.55071 3.2766 7.60499C3.33165 7.65926 3.39694 7.70205 3.46867 7.73088C3.5404 7.7597 3.61715 7.77398 3.69444 7.77289H8.75C8.8273 7.77398 8.90404 7.7597 8.97577 7.73088C9.04751 7.70205 9.11279 7.65926 9.16784 7.60499C9.22289 7.55071 9.26661 7.48603 9.29644 7.41472C9.32628 7.3434 9.34164 7.26686 9.34164 7.18956C9.34164 7.11225 9.32628 7.03572 9.29644 6.9644C9.26661 6.89308 9.22289 6.82841 9.16784 6.77413C9.11279 6.71986 9.04751 6.67706 8.97577 6.64824C8.90404 6.61941 8.8273 6.60513 8.75 6.60623H3.69444ZM10.3056 10.4959H12.0085L9.72222 12.7821V11.0792C9.72222 10.75 9.97636 10.4959 10.3056 10.4959Z" fill="black"/>
</svg>
