<svg width="14" height="15" viewBox="0 0 14 15" fill="none" xmlns="http://www.w3.org/2000/svg">
<g clip-path="url(#clip0_285_4118)">
<path d="M2.23973 0.1738C2.18587 0.175388 2.13254 0.184842 2.08142 0.201863L0.976179 0.570277C0.837058 0.616651 0.722056 0.716392 0.656473 0.847557C0.590891 0.978722 0.5801 1.13057 0.626473 1.26969C0.672847 1.40881 0.772588 1.52381 0.903753 1.5894C1.03492 1.65498 1.18676 1.66577 1.32589 1.6194L1.70365 1.49347V3.67374C1.70262 3.74697 1.71615 3.81967 1.74345 3.88763C1.77076 3.95558 1.8113 4.01743 1.86272 4.06958C1.91414 4.12173 1.97541 4.16314 2.04297 4.19141C2.11053 4.21968 2.18304 4.23423 2.25628 4.23423C2.32951 4.23423 2.40202 4.21968 2.46958 4.19141C2.53714 4.16314 2.59841 4.12173 2.64983 4.06958C2.70125 4.01743 2.74179 3.95558 2.7691 3.88763C2.7964 3.81967 2.80993 3.74697 2.8089 3.67374V0.726422C2.80892 0.652439 2.7941 0.579203 2.76529 0.511058C2.73649 0.442912 2.6943 0.381243 2.64122 0.329706C2.58814 0.27817 2.52525 0.237815 2.45628 0.211034C2.38732 0.184253 2.31368 0.171592 2.23973 0.1738ZM6.30884 2.01587C6.23561 2.01484 6.1629 2.02837 6.09495 2.05567C6.02699 2.08298 5.96514 2.12352 5.91299 2.17494C5.86084 2.22636 5.81943 2.28763 5.79116 2.35519C5.7629 2.42275 5.74834 2.49526 5.74834 2.56849C5.74834 2.64173 5.7629 2.71424 5.79116 2.7818C5.81943 2.84936 5.86084 2.91063 5.91299 2.96205C5.96514 3.01347 6.02699 3.05401 6.09495 3.08132C6.1629 3.10862 6.23561 3.12215 6.30884 3.12112H12.9403C13.0135 3.12215 13.0862 3.10862 13.1542 3.08132C13.2221 3.05401 13.284 3.01347 13.3361 2.96205C13.3883 2.91063 13.4297 2.84936 13.458 2.7818C13.4862 2.71424 13.5008 2.64173 13.5008 2.56849C13.5008 2.49526 13.4862 2.42275 13.458 2.35519C13.4297 2.28763 13.3883 2.22636 13.3361 2.17494C13.284 2.12352 13.2221 2.08298 13.1542 2.05567C13.0862 2.02837 13.0135 2.01484 12.9403 2.01587H6.30884ZM2.11021 4.96319C1.55758 4.96319 1.14152 5.26718 0.923652 5.53884C0.705781 5.8105 0.622156 6.0929 0.622156 6.0929C0.598899 6.16298 0.589921 6.23701 0.595752 6.31062C0.601584 6.38422 0.622105 6.45592 0.656106 6.52146C0.690106 6.58701 0.736896 6.64507 0.793712 6.69223C0.850528 6.7394 0.916218 6.77469 0.986903 6.79604C1.05759 6.81739 1.13183 6.82436 1.20526 6.81654C1.27868 6.80872 1.34979 6.78626 1.41439 6.7505C1.47899 6.71473 1.53577 6.66639 1.58137 6.60831C1.62698 6.55024 1.66048 6.48362 1.67991 6.41238C1.67991 6.41238 1.70809 6.32637 1.78568 6.22961C1.86328 6.13286 1.926 6.06843 2.11021 6.06843C2.26217 6.06843 2.28978 6.1027 2.34622 6.17924C2.40266 6.25579 2.44048 6.40129 2.44048 6.46563C2.44048 6.6148 2.41101 6.66008 2.31456 6.75633C2.21811 6.85259 2.03644 6.96421 1.81591 7.07941C1.59537 7.19462 1.34087 7.31036 1.09491 7.50611C0.848946 7.70187 0.598411 8.0498 0.598411 8.46313C0.598425 8.60969 0.656653 8.75024 0.760286 8.85387C0.86392 8.95751 1.00447 9.01573 1.15103 9.01575H3.36152C3.43475 9.01678 3.50745 9.00326 3.57541 8.97595C3.64336 8.94864 3.70521 8.9081 3.75736 8.85668C3.80952 8.80526 3.85093 8.74399 3.87919 8.67643C3.90746 8.60887 3.92201 8.53636 3.92201 8.46313C3.92201 8.38989 3.90746 8.31738 3.87919 8.24982C3.85093 8.18226 3.80952 8.12099 3.75736 8.06957C3.70521 8.01815 3.64336 7.97761 3.57541 7.95031C3.50745 7.923 3.43475 7.90947 3.36152 7.91051H2.54698C2.73041 7.80756 2.91799 7.71615 3.096 7.53849C3.34494 7.29005 3.54573 6.90371 3.54573 6.46563C3.54573 6.15861 3.46099 5.82941 3.2356 5.52373C3.0102 5.21804 2.59634 4.96319 2.11021 4.96319ZM6.30884 6.80526C6.23561 6.80423 6.1629 6.81776 6.09495 6.84506C6.02699 6.87237 5.96514 6.91291 5.91299 6.96433C5.86084 7.01575 5.81943 7.07702 5.79116 7.14458C5.7629 7.21214 5.74834 7.28465 5.74834 7.35788C5.74834 7.43112 5.7629 7.50363 5.79116 7.57119C5.81943 7.63875 5.86084 7.70002 5.91299 7.75144C5.96514 7.80286 6.02699 7.8434 6.09495 7.87071C6.1629 7.89801 6.23561 7.91154 6.30884 7.91051H12.9403C13.0135 7.91154 13.0862 7.89801 13.1542 7.87071C13.2221 7.8434 13.284 7.80286 13.3361 7.75144C13.3883 7.70002 13.4297 7.63875 13.458 7.57119C13.4862 7.50363 13.5008 7.43112 13.5008 7.35788C13.5008 7.28465 13.4862 7.21214 13.458 7.14458C13.4297 7.07702 13.3883 7.01575 13.3361 6.96433C13.284 6.91291 13.2221 6.87237 13.1542 6.84506C13.0862 6.81776 13.0135 6.80423 12.9403 6.80526H6.30884ZM2.11021 10.121C1.2916 10.121 0.761751 10.6499 0.761751 10.6499C0.708555 10.7006 0.666015 10.7614 0.636621 10.8288C0.607226 10.8962 0.591567 10.9688 0.590561 11.0423C0.589555 11.1158 0.603222 11.1887 0.630762 11.2569C0.658302 11.325 0.699161 11.387 0.750948 11.4392C0.802735 11.4913 0.864409 11.5327 0.932359 11.5607C1.00031 11.5887 1.07317 11.6029 1.14668 11.6025C1.22019 11.602 1.29286 11.5869 1.36045 11.558C1.42804 11.5291 1.48919 11.487 1.54031 11.4342C1.54031 11.4342 1.75356 11.2262 2.11021 11.2262C2.25678 11.2262 2.35387 11.2713 2.39803 11.3068C2.44218 11.3424 2.44048 11.3501 2.44048 11.3752C2.44048 11.5677 2.41059 11.5539 2.39875 11.563C2.38691 11.5721 2.32236 11.5947 2.25628 11.5947C2.11107 11.5967 1.9725 11.6558 1.87054 11.7592C1.76858 11.8627 1.71141 12.002 1.71141 12.1473C1.71141 12.2925 1.76858 12.4319 1.87054 12.5353C1.9725 12.6387 2.11107 12.6978 2.25628 12.6999C2.25037 12.6999 2.45261 12.7312 2.5513 12.7826C2.64998 12.8341 2.62469 12.8115 2.62469 12.8201C2.62469 12.9157 2.60883 12.9324 2.55202 12.9769C2.4952 13.0214 2.37551 13.0683 2.2239 13.0683C1.84333 13.0683 1.49282 12.8186 1.49282 12.8186C1.43617 12.7707 1.37045 12.7347 1.29958 12.7128C1.22872 12.6908 1.15416 12.6833 1.08034 12.6908C1.00653 12.6983 0.934976 12.7205 0.869946 12.7562C0.804917 12.792 0.747744 12.8404 0.701835 12.8987C0.655926 12.957 0.622221 13.0239 0.602729 13.0955C0.583237 13.167 0.578357 13.2418 0.58838 13.3153C0.598403 13.3888 0.623123 13.4596 0.661068 13.5233C0.699013 13.5871 0.749406 13.6425 0.809242 13.6864C0.809242 13.6864 1.39459 14.1736 2.2239 14.1736C2.58475 14.1736 2.94164 14.0754 3.23344 13.8469C3.52523 13.6184 3.72993 13.2343 3.72993 12.8201C3.72993 12.4883 3.5604 12.2494 3.3644 12.0595C3.4714 11.8595 3.54573 11.6316 3.54573 11.3752C3.54573 11.0054 3.35987 10.662 3.09097 10.4455C2.82206 10.2291 2.47683 10.121 2.11021 10.121ZM6.30884 11.5947C6.23561 11.5936 6.1629 11.6071 6.09495 11.6345C6.02699 11.6618 5.96514 11.7023 5.91299 11.7537C5.86084 11.8051 5.81943 11.8664 5.79116 11.934C5.7629 12.0015 5.74834 12.074 5.74834 12.1473C5.74834 12.2205 5.7629 12.293 5.79116 12.3606C5.81943 12.4281 5.86084 12.4894 5.91299 12.5408C5.96514 12.5922 6.02699 12.6328 6.09495 12.6601C6.1629 12.6874 6.23561 12.7009 6.30884 12.6999H12.9403C13.0135 12.7009 13.0862 12.6874 13.1542 12.6601C13.2221 12.6328 13.284 12.5922 13.3361 12.5408C13.3883 12.4894 13.4297 12.4281 13.458 12.3606C13.4862 12.293 13.5008 12.2205 13.5008 12.1473C13.5008 12.074 13.4862 12.0015 13.458 11.934C13.4297 11.8664 13.3883 11.8051 13.3361 11.7537C13.284 11.7023 13.2221 11.6618 13.1542 11.6345C13.0862 11.6071 13.0135 11.5936 12.9403 11.5947H6.30884Z" fill="black"/>
</g>
<defs>
<clipPath id="clip0_285_4118">
<rect width="14" height="14" fill="white" transform="translate(0 0.173553)"/>
</clipPath>
</defs>
</svg>
