<svg width="14" height="15" viewBox="0 0 14 15" fill="none" xmlns="http://www.w3.org/2000/svg">
<g clip-path="url(#clip0_1457_9884)">
<path d="M7.00007 0.465218C3.72341 0.465218 1.84724 1.40735 0.85685 2.23458C0.149603 2.82522 -0.150339 3.77153 0.072289 4.66071L0.228791 5.28535C0.471372 6.2552 1.42105 6.88857 2.40957 6.74034L3.91035 6.5155C4.55698 6.41863 5.07942 5.92817 5.21636 5.28877V5.28808L5.51228 3.90758C5.52675 3.84015 5.56965 3.79504 5.62504 3.77842C5.87591 3.70329 6.31579 3.6144 7.00007 3.6144C7.68436 3.6144 8.12424 3.70327 8.37511 3.77842C8.43063 3.79508 8.4737 3.84046 8.48787 3.9069V3.90758L8.78379 5.28877C8.92093 5.92789 9.44293 6.4186 10.0898 6.5155L11.5906 6.74034C12.5791 6.88857 13.5292 6.25554 13.7714 5.28535L13.9279 4.66071V4.66002C14.1502 3.77105 13.8504 2.82508 13.1433 2.23458C12.1529 1.40735 10.2767 0.465218 7.00007 0.465218ZM7.00007 1.51494C10.0787 1.51494 11.6752 2.37494 12.4708 3.03964C12.8672 3.37066 13.0361 3.89954 12.9096 4.40511V4.40579L12.7531 5.03112C12.6398 5.48505 12.2093 5.77164 11.7464 5.70223L10.2456 5.47739C10.0282 5.44482 9.85649 5.28406 9.81028 5.06871L9.51436 3.68821V3.68752C9.42269 3.25876 9.10574 2.90195 8.67649 2.77311C8.31992 2.6663 7.77561 2.56467 7.00007 2.56467C6.22454 2.56467 5.68023 2.6663 5.32366 2.77311C4.89407 2.90205 4.57768 3.25948 4.48579 3.68752L4.18987 5.06871C4.14396 5.28348 3.97198 5.44482 3.75453 5.47739L2.25375 5.70223C1.79085 5.77165 1.36071 5.4854 1.24708 5.03112L1.09058 4.40579V4.40511C0.963997 3.89956 1.13297 3.37066 1.52933 3.03964C2.32498 2.37494 3.92141 1.51494 7.00007 1.51494ZM3.50099 8.16321C3.22258 8.16321 2.95558 8.27381 2.75872 8.47067C2.56185 8.66753 2.45126 8.93453 2.45126 9.21294C2.45126 9.49134 2.56185 9.75834 2.75872 9.95521C2.95558 10.1521 3.22258 10.2627 3.50099 10.2627C3.77939 10.2627 4.04639 10.1521 4.24325 9.95521C4.44012 9.75834 4.55071 9.49134 4.55071 9.21294C4.55071 8.93453 4.44012 8.66753 4.24325 8.47067C4.04639 8.27381 3.77939 8.16321 3.50099 8.16321ZM7.00007 8.16321C6.72167 8.16321 6.45467 8.27381 6.25781 8.47067C6.06094 8.66753 5.95035 8.93453 5.95035 9.21294C5.95035 9.49134 6.06094 9.75834 6.25781 9.95521C6.45467 10.1521 6.72167 10.2627 7.00007 10.2627C7.27848 10.2627 7.54548 10.1521 7.74234 9.95521C7.9392 9.75834 8.0498 9.49134 8.0498 9.21294C8.0498 8.93453 7.9392 8.66753 7.74234 8.47067C7.54548 8.27381 7.27848 8.16321 7.00007 8.16321ZM10.4992 8.16321C10.2208 8.16321 9.95376 8.27381 9.75689 8.47067C9.56003 8.66753 9.44944 8.93453 9.44944 9.21294C9.44944 9.49134 9.56003 9.75834 9.75689 9.95521C9.95376 10.1521 10.2208 10.2627 10.4992 10.2627C10.7776 10.2627 11.0446 10.1521 11.2414 9.95521C11.4383 9.75834 11.5489 9.49134 11.5489 9.21294C11.5489 8.93453 11.4383 8.66753 11.2414 8.47067C11.0446 8.27381 10.7776 8.16321 10.4992 8.16321ZM3.50099 11.6623C3.22258 11.6623 2.95558 11.7729 2.75872 11.9698C2.56185 12.1666 2.45126 12.4336 2.45126 12.712C2.45126 12.9904 2.56185 13.2574 2.75872 13.4543C2.95558 13.6512 3.22258 13.7618 3.50099 13.7618C3.77939 13.7618 4.04639 13.6512 4.24325 13.4543C4.44012 13.2574 4.55071 12.9904 4.55071 12.712C4.55071 12.4336 4.44012 12.1666 4.24325 11.9698C4.04639 11.7729 3.77939 11.6623 3.50099 11.6623ZM7.00007 11.6623C6.72167 11.6623 6.45467 11.7729 6.25781 11.9698C6.06094 12.1666 5.95035 12.4336 5.95035 12.712C5.95035 12.9904 6.06094 13.2574 6.25781 13.4543C6.45467 13.6512 6.72167 13.7618 7.00007 13.7618C7.27848 13.7618 7.54548 13.6512 7.74234 13.4543C7.9392 13.2574 8.0498 12.9904 8.0498 12.712C8.0498 12.4336 7.9392 12.1666 7.74234 11.9698C7.54548 11.7729 7.27848 11.6623 7.00007 11.6623ZM10.4992 11.6623C10.2208 11.6623 9.95376 11.7729 9.75689 11.9698C9.56003 12.1666 9.44944 12.4336 9.44944 12.712C9.44944 12.9904 9.56003 13.2574 9.75689 13.4543C9.95376 13.6512 10.2208 13.7618 10.4992 13.7618C10.7776 13.7618 11.0446 13.6512 11.2414 13.4543C11.4383 13.2574 11.5489 12.9904 11.5489 12.712C11.5489 12.4336 11.4383 12.1666 11.2414 11.9698C11.0446 11.7729 10.7776 11.6623 10.4992 11.6623Z" fill="black"/>
</g>
<defs>
<clipPath id="clip0_1457_9884">
<rect width="14" height="14" fill="white" transform="translate(0 0.173553)"/>
</clipPath>
</defs>
</svg>
