<svg width="14" height="15" viewBox="0 0 14 15" fill="none" xmlns="http://www.w3.org/2000/svg">
<path d="M4.26812 1.00697C4.19601 1.00697 4.12475 1.02256 4.05923 1.05268C3.99371 1.0828 3.93548 1.12673 3.88853 1.18146L2.50103 2.80205C2.44807 2.8491 2.4057 2.90687 2.37674 2.97152C2.34778 3.03617 2.33289 3.10624 2.33305 3.17709C2.33305 3.17796 2.33305 3.17882 2.33305 3.17969C2.33305 3.18056 2.33305 3.18143 2.33305 3.1823V5.34005L1.11354 3.84447C0.959188 3.65578 0.960777 3.38267 1.11679 3.19532L1.77701 2.40293C1.82335 2.34726 1.88475 2.33776 1.91309 2.34042C1.93176 2.34076 1.96026 2.34854 1.98927 2.36321L2.59284 1.56561C2.40115 1.42727 2.17304 1.34433 1.93002 1.34033C1.57165 1.33366 1.2374 1.48854 1.00871 1.7629L0.349143 2.55464C-0.1129 3.10869 -0.116983 3.91698 0.338725 4.47604L1.66632 6.10379V11.5249C1.66632 12.5315 2.49314 13.3584 3.49982 13.3584C3.50026 13.3584 3.50069 13.3584 3.50112 13.3584L10.5005 13.3414C11.5071 13.3414 12.334 12.5146 12.334 11.5079V6.10314L13.6609 4.47604C14.1166 3.91698 14.1122 3.10869 13.6505 2.55464L12.9909 1.7629C12.7622 1.48854 12.428 1.33366 12.0696 1.34033C11.8266 1.34433 11.5985 1.42727 11.4068 1.56561L12.0104 2.36321C12.0397 2.34854 12.0682 2.34076 12.0865 2.34042C12.1149 2.33776 12.1763 2.34726 12.2226 2.40293L12.8828 3.19532C13.0389 3.38267 13.0404 3.65578 12.8861 3.84447L11.6672 5.33874V3.1823C11.6673 3.18034 11.6673 3.17839 11.6672 3.17644C11.667 3.16861 11.6666 3.1608 11.6659 3.153C11.6655 3.14125 11.6646 3.12952 11.6633 3.11784C11.6506 3.00615 11.6006 2.90202 11.5214 2.82224C11.5212 2.82202 11.521 2.8218 11.5207 2.82159L10.2973 1.2049C10.2507 1.14339 10.1904 1.09352 10.1213 1.05918C10.0522 1.02484 9.97604 1.00697 9.89885 1.00697H4.26812ZM4.49861 2.00706H9.65013L10.1612 2.68225H3.91978L4.49861 2.00706ZM3.33314 3.68234H10.6671V5.3407H3.33314V3.68234ZM2.66641 6.34079H11.3339V11.5079C11.3339 11.974 10.9666 12.3413 10.5005 12.3413C10.5 12.3413 10.4996 12.3413 10.4992 12.3413L3.49982 12.3583C3.0337 12.3583 2.66641 11.991 2.66641 11.5249V6.34079ZM5.50001 7.67425C5.43374 7.67331 5.36796 7.68555 5.30647 7.71026C5.24498 7.73497 5.18901 7.77165 5.14182 7.81818C5.09463 7.86471 5.05716 7.92015 5.03158 7.98128C5.00601 8.04241 4.99284 8.10802 4.99284 8.17429C4.99284 8.24056 5.00601 8.30617 5.03158 8.3673C5.05716 8.42844 5.09463 8.48388 5.14182 8.5304C5.18901 8.57693 5.24498 8.61361 5.30647 8.63832C5.36796 8.66303 5.43374 8.67527 5.50001 8.67434H8.50028C8.56654 8.67527 8.63233 8.66303 8.69382 8.63832C8.75531 8.61361 8.81128 8.57693 8.85847 8.5304C8.90565 8.48388 8.94313 8.42844 8.9687 8.3673C8.99428 8.30617 9.00745 8.24056 9.00745 8.17429C9.00745 8.10802 8.99428 8.04241 8.9687 7.98128C8.94313 7.92015 8.90565 7.86471 8.85847 7.81818C8.81128 7.77165 8.75531 7.73497 8.69382 7.71026C8.63233 7.68555 8.56654 7.67331 8.50028 7.67425H5.50001Z" fill="black"/>
</svg>
