<svg width="14" height="15" viewBox="0 0 14 15" fill="none" xmlns="http://www.w3.org/2000/svg">
<path d="M6.99601 2.77353C3.69449 2.77353 0.785486 5.0619 0.0137446 8.06051C-0.0151121 8.17291 0.00186582 8.29218 0.0609434 8.39206C0.120021 8.49195 0.216359 8.56428 0.328764 8.59313C0.441169 8.62199 0.560434 8.60501 0.660321 8.54594C0.760208 8.48686 0.832535 8.39052 0.861392 8.27811C1.52639 5.69428 4.1026 3.64852 6.99601 3.64852C9.88943 3.64852 12.4738 5.695 13.1386 8.27811C13.1675 8.39052 13.2398 8.48686 13.3397 8.54594C13.4396 8.60501 13.5588 8.62199 13.6712 8.59313C13.7836 8.56428 13.88 8.49195 13.9391 8.39206C13.9981 8.29218 14.0151 8.17291 13.9863 8.06051C13.2143 5.06118 10.2975 2.77353 6.99601 2.77353ZM7.00057 5.10684C5.4489 5.10684 4.18191 6.37383 4.18191 7.9255C4.18191 9.47717 5.4489 10.7447 7.00057 10.7447C8.55224 10.7447 9.81979 9.47717 9.81979 7.9255C9.81979 6.37383 8.55224 5.10684 7.00057 5.10684ZM7.00057 5.98183C8.07936 5.98183 8.9448 6.84671 8.9448 7.9255C8.9448 9.00429 8.07936 9.86973 7.00057 9.86973C5.92178 9.86973 5.0569 9.00429 5.0569 7.9255C5.0569 6.84671 5.92178 5.98183 7.00057 5.98183Z" fill="black"/>
</svg>
