<svg width="14" height="15" viewBox="0 0 14 15" fill="none" xmlns="http://www.w3.org/2000/svg">
<path d="M4.26812 1.06946C4.19601 1.06946 4.12475 1.08505 4.05923 1.11517C3.99371 1.14529 3.93548 1.18922 3.88853 1.24395L2.50103 2.86454C2.44807 2.91159 2.4057 2.96936 2.37674 3.03401C2.34778 3.09867 2.33289 3.16874 2.33305 3.23958C2.33305 3.24045 2.33305 3.24132 2.33305 3.24218C2.33305 3.24305 2.33305 3.24392 2.33305 3.24479V5.40254L1.11354 3.90696C0.959188 3.71827 0.960777 3.44516 1.11679 3.25781L1.77701 2.46542C1.82335 2.40975 1.88475 2.40025 1.91309 2.40291C1.93176 2.40325 1.96026 2.41103 1.98927 2.4257L2.59284 1.6281C2.40115 1.48976 2.17304 1.40682 1.93002 1.40282C1.57165 1.39615 1.2374 1.55103 1.00871 1.82539L0.349143 2.61713C-0.1129 3.17118 -0.116983 3.97948 0.338725 4.53853L1.66632 6.16628V11.5873C1.66632 12.594 2.49314 13.4209 3.49982 13.4209C3.50026 13.4209 3.50069 13.4209 3.50112 13.4209L10.5005 13.4039C11.5071 13.4039 12.334 12.5771 12.334 11.5704V6.16563L13.6609 4.53853C14.1166 3.97948 14.1122 3.17118 13.6505 2.61713L12.9909 1.82539C12.7622 1.55103 12.428 1.39615 12.0696 1.40282C11.8266 1.40682 11.5985 1.48976 11.4068 1.6281L12.0104 2.4257C12.0397 2.41103 12.0682 2.40325 12.0865 2.40291C12.1149 2.40025 12.1763 2.40975 12.2226 2.46542L12.8828 3.25781C13.0389 3.44516 13.0404 3.71827 12.8861 3.90696L11.6672 5.40124V3.24479C11.6673 3.24283 11.6673 3.24088 11.6672 3.23893C11.667 3.23111 11.6666 3.22329 11.6659 3.21549C11.6655 3.20374 11.6646 3.19201 11.6633 3.18033C11.6506 3.06864 11.6006 2.96451 11.5214 2.88473C11.5212 2.88451 11.521 2.88429 11.5207 2.88408L10.2973 1.26739C10.2507 1.20589 10.1904 1.15601 10.1213 1.12167C10.0522 1.08733 9.97604 1.06946 9.89885 1.06946H4.26812ZM4.49861 2.06955H9.65013L10.1612 2.74474H3.91978L4.49861 2.06955ZM3.33314 3.74483H10.6671V5.40319H3.33314V3.74483ZM2.66641 6.40328H11.3339V11.5704C11.3339 12.0365 10.9666 12.4038 10.5005 12.4038C10.5 12.4038 10.4996 12.4038 10.4992 12.4038L3.49982 12.4208C3.0337 12.4208 2.66641 12.0535 2.66641 11.5873V6.40328ZM5.50001 7.73674C5.43374 7.7358 5.36796 7.74804 5.30647 7.77275C5.24498 7.79746 5.18901 7.83414 5.14182 7.88067C5.09463 7.9272 5.05716 7.98264 5.03158 8.04377C5.00601 8.10491 4.99284 8.17051 4.99284 8.23678C4.99284 8.30305 5.00601 8.36866 5.03158 8.42979C5.05716 8.49093 5.09463 8.54637 5.14182 8.59289C5.18901 8.63942 5.24498 8.67611 5.30647 8.70081C5.36796 8.72552 5.43374 8.73777 5.50001 8.73683H8.50028C8.56654 8.73777 8.63233 8.72552 8.69382 8.70081C8.75531 8.67611 8.81128 8.63942 8.85847 8.59289C8.90565 8.54637 8.94313 8.49093 8.9687 8.42979C8.99428 8.36866 9.00745 8.30305 9.00745 8.23678C9.00745 8.17051 8.99428 8.10491 8.9687 8.04377C8.94313 7.98264 8.90565 7.9272 8.85847 7.88067C8.81128 7.83414 8.75531 7.79746 8.69382 7.77275C8.63233 7.74804 8.56654 7.7358 8.50028 7.73674H5.50001Z" fill="black"/>
</svg>
