<svg width="14" height="15" viewBox="0 0 14 15" fill="none" xmlns="http://www.w3.org/2000/svg">
<path d="M6.99601 2.83606C3.69449 2.83606 0.785486 5.12443 0.0137446 8.12303C-0.0151121 8.23544 0.00186582 8.3547 0.0609434 8.45459C0.120021 8.55448 0.216359 8.6268 0.328764 8.65566C0.441169 8.68452 0.560434 8.66754 0.660321 8.60846C0.760208 8.54938 0.832535 8.45305 0.861392 8.34064C1.52639 5.7568 4.1026 3.71105 6.99601 3.71105C9.88943 3.71105 12.4738 5.75752 13.1386 8.34064C13.1675 8.45305 13.2398 8.54938 13.3397 8.60846C13.4396 8.66754 13.5588 8.68452 13.6712 8.65566C13.7836 8.6268 13.88 8.55448 13.9391 8.45459C13.9981 8.3547 14.0151 8.23544 13.9863 8.12303C13.2143 5.12371 10.2975 2.83606 6.99601 2.83606ZM7.00057 5.16937C5.4489 5.16937 4.18191 6.43636 4.18191 7.98802C4.18191 9.53969 5.4489 10.8073 7.00057 10.8073C8.55224 10.8073 9.81979 9.53969 9.81979 7.98802C9.81979 6.43636 8.55224 5.16937 7.00057 5.16937ZM7.00057 6.04436C8.07936 6.04436 8.9448 6.90924 8.9448 7.98802C8.9448 9.06681 8.07936 9.93226 7.00057 9.93226C5.92178 9.93226 5.0569 9.06681 5.0569 7.98802C5.0569 6.90924 5.92178 6.04436 7.00057 6.04436Z" fill="black"/>
</svg>
