<svg width="14" height="15" viewBox="0 0 14 15" fill="none" xmlns="http://www.w3.org/2000/svg">
<g clip-path="url(#clip0_1504_9881)">
<path d="M11.3659 0.173553C11.2615 0.173579 11.1595 0.204762 11.0728 0.263113C10.9862 0.321465 10.919 0.40433 10.8797 0.501108C10.8405 0.597885 10.831 0.704174 10.8525 0.806374C10.874 0.908574 10.9255 1.00204 11.0004 1.07481L12.2037 2.27807H8.22283C8.1533 2.27709 8.08426 2.28994 8.01973 2.31587C7.9552 2.3418 7.89647 2.3803 7.84694 2.42912C7.79742 2.47795 7.7581 2.53613 7.73126 2.60029C7.70442 2.66444 7.6906 2.73329 7.6906 2.80284C7.6906 2.87238 7.70442 2.94123 7.73126 3.00539C7.7581 3.06955 7.79742 3.12773 7.84694 3.17655C7.89647 3.22538 7.9552 3.26388 8.01973 3.28981C8.08426 3.31574 8.1533 3.32858 8.22283 3.3276H12.2037L11.0004 4.53087C10.95 4.57922 10.9098 4.63714 10.8821 4.70123C10.8544 4.76532 10.8398 4.83429 10.8391 4.9041C10.8384 4.97392 10.8516 5.04317 10.878 5.10781C10.9044 5.17245 10.9434 5.23117 10.9928 5.28054C11.0421 5.32991 11.1009 5.36893 11.1655 5.39532C11.2301 5.42171 11.2994 5.43494 11.3692 5.43423C11.439 5.43352 11.508 5.41888 11.5721 5.39118C11.6362 5.36349 11.6941 5.32328 11.7424 5.27292L13.8415 3.17386C13.9399 3.07545 13.9951 2.94199 13.9951 2.80284C13.9951 2.66369 13.9399 2.53023 13.8415 2.43181L11.7424 0.332759C11.6935 0.282387 11.635 0.242341 11.5703 0.214995C11.5057 0.187648 11.4362 0.173556 11.3659 0.173553ZM3.51431 0.183803C3.28402 0.16705 3.04806 0.190587 2.81667 0.258964H2.81599L1.98853 0.504264C1.10607 0.765249 0.416568 1.46542 0.183291 2.34914C-0.334678 4.31446 0.257858 6.64071 1.79995 9.25921C3.33986 11.8741 5.09455 13.536 7.07628 14.0784C7.96872 14.3227 8.93118 14.0894 9.60717 13.4614L10.2372 12.8772C10.9421 12.2227 11.0472 11.1325 10.4777 10.3579L9.56754 9.12187C9.07967 8.45921 8.21967 8.17709 7.42885 8.41467L6.00489 8.84104C5.94511 8.85849 5.80207 8.77708 5.67759 8.66953L5.67691 8.66885C5.4552 8.47606 5.14802 8.08641 4.81939 7.52913V7.52844C4.467 6.92996 4.3167 6.53855 4.25636 6.30741C4.19599 6.07616 4.21064 6.04803 4.21946 5.96987C4.22405 5.93087 4.24258 5.89473 4.27412 5.86601L4.27481 5.86533L5.33663 4.89438C5.94497 4.33825 6.12862 3.44953 5.78555 2.70171L5.14463 1.30507V1.30439C4.8432 0.647353 4.20499 0.234049 3.51431 0.183803ZM3.43846 1.2306C3.75969 1.2546 4.05549 1.44727 4.19076 1.74238L4.831 3.13901C4.98611 3.47711 4.90833 3.86401 4.62807 4.12021L3.56692 5.09048C3.34925 5.28895 3.21004 5.55955 3.17677 5.85166V5.85234C3.1681 5.92916 3.14761 6.21481 3.241 6.57253C3.33438 6.93024 3.52718 7.40337 3.91472 8.06141H3.9154C4.27699 8.67468 4.61874 9.1406 4.98884 9.46214H4.98952C5.10972 9.5662 5.61346 10.049 6.2987 9.84888L6.30075 9.8482L7.73087 9.41978C8.10223 9.30821 8.4993 9.44143 8.72231 9.74434L9.63245 10.9804C9.89018 11.3315 9.84515 11.8088 9.52313 12.1078L8.89314 12.6927C8.49024 13.0671 7.89194 13.2133 7.35301 13.0658C5.75095 12.6273 4.16564 11.2078 2.70462 8.72693C1.24156 6.24262 0.783959 4.18787 1.19797 2.61698C1.33483 2.09854 1.75414 1.66817 2.28644 1.51074L3.1139 1.26544C3.22169 1.23359 3.33139 1.2226 3.43846 1.2306Z" fill="black"/>
</g>
<defs>
<clipPath id="clip0_1504_9881">
<rect width="14" height="14" fill="white" transform="translate(0 0.173553)"/>
</clipPath>
</defs>
</svg>
