<svg width="14" height="15" viewBox="0 0 14 15" fill="none" xmlns="http://www.w3.org/2000/svg">
<g clip-path="url(#clip0_121_7993)">
<path d="M3.03334 0.173553C2.16972 0.173553 1.45834 0.884928 1.45834 1.74855V12.5986C1.45834 13.4622 2.16972 14.1736 3.03334 14.1736H11.0833C11.947 14.1736 12.6583 13.4622 12.6583 12.5986V1.74855C12.6583 0.884928 11.947 0.173553 11.0833 0.173553H3.03334ZM3.03334 1.22355H11.0833C11.3796 1.22355 11.6083 1.45228 11.6083 1.74855V12.5986C11.6083 12.8948 11.3796 13.1236 11.0833 13.1236H3.03334C2.73707 13.1236 2.50834 12.8948 2.50834 12.5986V1.74855C2.50834 1.45228 2.73707 1.22355 3.03334 1.22355ZM4.43334 2.62355C4.36378 2.62257 4.2947 2.63542 4.23015 2.66136C4.16559 2.68731 4.10683 2.72582 4.05729 2.77467C4.00774 2.82352 3.9684 2.88173 3.94155 2.94591C3.91469 3.0101 3.90087 3.07898 3.90087 3.14855C3.90087 3.21813 3.91469 3.28701 3.94155 3.3512C3.9684 3.41538 4.00774 3.47359 4.05729 3.52244C4.10683 3.57129 4.16559 3.6098 4.23015 3.63574C4.2947 3.66168 4.36378 3.67454 4.43334 3.67355H9.68334C9.75291 3.67454 9.82198 3.66168 9.88654 3.63574C9.9511 3.6098 10.0099 3.57129 10.0594 3.52244C10.1089 3.47359 10.1483 3.41538 10.1751 3.3512C10.202 3.28701 10.2158 3.21813 10.2158 3.14855C10.2158 3.07898 10.202 3.0101 10.1751 2.94591C10.1483 2.88173 10.1089 2.82352 10.0594 2.77467C10.0099 2.72582 9.9511 2.68731 9.88654 2.66136C9.82198 2.63542 9.75291 2.62257 9.68334 2.62355H4.43334ZM4.43334 5.77355C4.36378 5.77257 4.2947 5.78542 4.23015 5.81136C4.16559 5.83731 4.10683 5.87582 4.05729 5.92467C4.00774 5.97352 3.9684 6.03173 3.94155 6.09591C3.91469 6.1601 3.90087 6.22898 3.90087 6.29855C3.90087 6.36813 3.91469 6.43701 3.94155 6.5012C3.9684 6.56538 4.00774 6.62359 4.05729 6.67244C4.10683 6.72129 4.16559 6.7598 4.23015 6.78574C4.2947 6.81168 4.36378 6.82454 4.43334 6.82355H7.58334C7.65291 6.82454 7.72198 6.81168 7.78654 6.78574C7.8511 6.7598 7.90986 6.72129 7.9594 6.67244C8.00895 6.62359 8.04829 6.56538 8.07514 6.5012C8.10199 6.43701 8.11582 6.36813 8.11582 6.29855C8.11582 6.22898 8.10199 6.1601 8.07514 6.09591C8.04829 6.03173 8.00895 5.97352 7.9594 5.92467C7.90986 5.87582 7.8511 5.83731 7.78654 5.81136C7.72198 5.78542 7.65291 5.77257 7.58334 5.77355H4.43334ZM9.68334 5.77355C9.54411 5.77355 9.41057 5.82887 9.31211 5.92732C9.21366 6.02578 9.15834 6.15931 9.15834 6.29855C9.15834 6.43779 9.21366 6.57133 9.31211 6.66978C9.41057 6.76824 9.54411 6.82355 9.68334 6.82355C9.82258 6.82355 9.95612 6.76824 10.0546 6.66978C10.153 6.57133 10.2083 6.43779 10.2083 6.29855C10.2083 6.15931 10.153 6.02578 10.0546 5.92732C9.95612 5.82887 9.82258 5.77355 9.68334 5.77355ZM4.43334 7.87355C4.36378 7.87257 4.2947 7.88542 4.23015 7.91136C4.16559 7.93731 4.10683 7.97582 4.05729 8.02467C4.00774 8.07352 3.9684 8.13173 3.94155 8.19591C3.91469 8.2601 3.90087 8.32898 3.90087 8.39855C3.90087 8.46813 3.91469 8.53701 3.94155 8.6012C3.9684 8.66538 4.00774 8.72359 4.05729 8.77244C4.10683 8.82129 4.16559 8.8598 4.23015 8.88574C4.2947 8.91168 4.36378 8.92454 4.43334 8.92355H6.53334C6.60291 8.92454 6.67198 8.91168 6.73654 8.88574C6.8011 8.8598 6.85986 8.82129 6.9094 8.77244C6.95895 8.72359 6.99829 8.66538 7.02514 8.6012C7.05199 8.53701 7.06582 8.46813 7.06582 8.39855C7.06582 8.32898 7.05199 8.2601 7.02514 8.19591C6.99829 8.13173 6.95895 8.07352 6.9094 8.02467C6.85986 7.97582 6.8011 7.93731 6.73654 7.91136C6.67198 7.88542 6.60291 7.87257 6.53334 7.87355H4.43334ZM9.68334 7.87355C9.54411 7.87355 9.41057 7.92887 9.31211 8.02732C9.21366 8.12578 9.15834 8.25931 9.15834 8.39855C9.15834 8.53779 9.21366 8.67133 9.31211 8.76978C9.41057 8.86824 9.54411 8.92355 9.68334 8.92355C9.82258 8.92355 9.95612 8.86824 10.0546 8.76978C10.153 8.67133 10.2083 8.53779 10.2083 8.39855C10.2083 8.25931 10.153 8.12578 10.0546 8.02732C9.95612 7.92887 9.82258 7.87355 9.68334 7.87355ZM4.43334 9.97355C4.36378 9.97257 4.2947 9.98542 4.23015 10.0114C4.16559 10.0373 4.10683 10.0758 4.05729 10.1247C4.00774 10.1735 3.9684 10.2317 3.94155 10.2959C3.91469 10.3601 3.90087 10.429 3.90087 10.4986C3.90087 10.5681 3.91469 10.637 3.94155 10.7012C3.9684 10.7654 4.00774 10.8236 4.05729 10.8724C4.10683 10.9213 4.16559 10.9598 4.23015 10.9857C4.2947 11.0117 4.36378 11.0245 4.43334 11.0236H7.58334C7.65291 11.0245 7.72198 11.0117 7.78654 10.9857C7.8511 10.9598 7.90986 10.9213 7.9594 10.8724C8.00895 10.8236 8.04829 10.7654 8.07514 10.7012C8.10199 10.637 8.11582 10.5681 8.11582 10.4986C8.11582 10.429 8.10199 10.3601 8.07514 10.2959C8.04829 10.2317 8.00895 10.1735 7.9594 10.1247C7.90986 10.0758 7.8511 10.0373 7.78654 10.0114C7.72198 9.98542 7.65291 9.97257 7.58334 9.97355H4.43334ZM9.68334 9.97355C9.54411 9.97355 9.41057 10.0289 9.31211 10.1273C9.21366 10.2258 9.15834 10.3593 9.15834 10.4986C9.15834 10.6378 9.21366 10.7713 9.31211 10.8698C9.41057 10.9682 9.54411 11.0236 9.68334 11.0236C9.82258 11.0236 9.95612 10.9682 10.0546 10.8698C10.153 10.7713 10.2083 10.6378 10.2083 10.4986C10.2083 10.3593 10.153 10.2258 10.0546 10.1273C9.95612 10.0289 9.82258 9.97355 9.68334 9.97355Z" fill="black"/>
</g>
<defs>
<clipPath id="clip0_121_7993">
<rect width="14" height="14" fill="white" transform="translate(0 0.173553)"/>
</clipPath>
</defs>
</svg>
