<svg width="14" height="15" viewBox="0 0 14 15" fill="none" xmlns="http://www.w3.org/2000/svg">
<g clip-path="url(#clip0_579_4852)">
<path d="M11.714 0.235956C11.6296 0.237695 11.547 0.259725 11.473 0.300182C11.3989 0.340639 11.3358 0.398331 11.2888 0.468376C11.2888 0.468376 10.8417 1.13384 10.3926 1.92715C10.168 2.32381 9.94248 2.7534 9.76642 3.16171C9.59037 3.57003 9.44978 3.93593 9.44992 4.33612C9.44992 4.93988 9.72479 5.45954 10.111 5.86735L9.80197 12.2152L9.80265 12.2145C9.74815 13.3067 10.6312 14.2358 11.7249 14.2358C12.8186 14.2358 13.7016 13.3067 13.6472 12.2145L13.6478 12.2193L13.3874 5.81745C13.7453 5.41649 13.9999 4.91544 13.9999 4.33612C13.9999 3.93605 13.8594 3.57001 13.6834 3.16171C13.5073 2.75342 13.2811 2.3238 13.0565 1.92715C12.6075 1.13386 12.161 0.468376 12.161 0.468376C12.112 0.395257 12.0453 0.335647 11.9672 0.295033C11.8891 0.254419 11.802 0.234103 11.714 0.235956ZM6.82494 0.585953C2.55288 0.585953 0 3.69988 0 6.7109C0 8.32334 1.20224 9.68588 2.62498 9.68588C3.19687 9.68588 3.76975 9.56834 4.27584 9.4644C4.59784 9.3986 4.90171 9.33588 5.07496 9.33588C5.7284 9.33588 5.87187 9.63635 6.09692 10.8309C6.32617 12.0475 6.67239 13.8858 9.30227 13.8858C9.40342 13.8858 9.50728 13.8765 9.61193 13.8653C9.38268 13.5552 9.22848 13.2038 9.15393 12.8304C7.53659 12.7751 7.3535 11.8288 7.12846 10.6367C6.94191 9.64486 6.68634 8.28589 5.07496 8.28589C4.79496 8.28589 4.45661 8.35543 4.06461 8.43628C3.60822 8.52973 3.09012 8.63589 2.62498 8.63589C1.87983 8.63589 1.04999 7.84524 1.04999 6.7109C1.04999 4.21612 3.21017 1.63594 6.82494 1.63594C7.75909 1.63594 8.64179 1.85204 9.43488 2.22793C9.59448 1.91083 9.76652 1.59905 9.93732 1.30646C8.99408 0.849709 7.94108 0.585953 6.82494 0.585953ZM11.7249 1.76378C11.884 2.01598 11.9348 2.07631 12.1433 2.44463C12.3562 2.82086 12.5675 3.22471 12.7195 3.57733C12.8716 3.92996 12.9499 4.25284 12.9499 4.33612C12.9499 4.65184 12.8131 4.9192 12.617 5.13592H10.8362C10.6404 4.91935 10.4999 4.65321 10.4999 4.33612C10.4999 4.33589 10.4999 4.33566 10.4999 4.33543C10.4999 4.25228 10.5782 3.92993 10.7303 3.57733C10.8823 3.22474 11.0936 2.82086 11.3065 2.44463C11.5151 2.07633 11.5658 2.01598 11.7249 1.76378ZM6.82494 2.68594C6.59288 2.68594 6.37032 2.77812 6.20623 2.94222C6.04214 3.10631 5.94995 3.32887 5.94995 3.56093C5.94995 3.79299 6.04214 4.01555 6.20623 4.17964C6.37032 4.34373 6.59288 4.43592 6.82494 4.43592C7.05701 4.43592 7.27956 4.34373 7.44366 4.17964C7.60775 4.01555 7.69994 3.79299 7.69994 3.56093C7.69994 3.32887 7.60775 3.10631 7.44366 2.94222C7.27956 2.77812 7.05701 2.68594 6.82494 2.68594ZM4.37496 3.38593C4.1429 3.38593 3.92034 3.47812 3.75625 3.64221C3.59216 3.8063 3.49997 4.02886 3.49997 4.26092C3.49997 4.49299 3.59216 4.71554 3.75625 4.87964C3.92034 5.04373 4.1429 5.13592 4.37496 5.13592C4.60703 5.13592 4.82958 5.04373 4.99368 4.87964C5.15777 4.71554 5.24996 4.49299 5.24996 4.26092C5.24996 4.02886 5.15777 3.8063 4.99368 3.64221C4.82958 3.47812 4.60703 3.38593 4.37496 3.38593ZM2.97498 5.48591C2.74291 5.48591 2.52035 5.5781 2.35626 5.74219C2.19217 5.90628 2.09998 6.12884 2.09998 6.36091C2.09998 6.59297 2.19217 6.81553 2.35626 6.97962C2.52035 7.14371 2.74291 7.2359 2.97498 7.2359C3.20704 7.2359 3.4296 7.14371 3.59369 6.97962C3.75778 6.81553 3.84997 6.59297 3.84997 6.36091C3.84997 6.12884 3.75778 5.90628 3.59369 5.74219C3.4296 5.5781 3.20704 5.48591 2.97498 5.48591ZM11.1473 6.18591H12.3518L12.3941 7.2359H11.096L11.1473 6.18591ZM11.0447 8.28589H12.4372L12.5985 12.2623C12.5985 12.2639 12.5985 12.2655 12.5985 12.2671C12.6238 12.7744 12.2328 13.1858 11.7249 13.1858C11.217 13.1858 10.826 12.7744 10.8513 12.2671C10.8513 12.2669 10.8513 12.2667 10.8513 12.2664L11.0447 8.28589Z" fill="black"/>
</g>
<defs>
<clipPath id="clip0_579_4852">
<rect width="14" height="14" fill="white" transform="translate(0 0.23584)"/>
</clipPath>
</defs>
</svg>
