<svg width="14" height="15" viewBox="0 0 14 15" fill="none" xmlns="http://www.w3.org/2000/svg">
<g clip-path="url(#clip0_579_4852)">
<path d="M11.714 0.17367C11.6296 0.175409 11.547 0.197439 11.473 0.237895C11.3989 0.278352 11.3358 0.336045 11.2888 0.40609C11.2888 0.40609 10.8417 1.07156 10.3926 1.86487C10.168 2.26152 9.94248 2.69111 9.76642 3.09943C9.59037 3.50774 9.44978 3.87364 9.44992 4.27383C9.44992 4.87759 9.72479 5.39726 10.111 5.80507L9.80197 12.1529L9.80265 12.1522C9.74815 13.2444 10.6312 14.1736 11.7249 14.1736C12.8186 14.1736 13.7016 13.2444 13.6472 12.1522L13.6478 12.157L13.3874 5.75517C13.7453 5.3542 13.9999 4.85315 13.9999 4.27383C13.9999 3.87376 13.8594 3.50772 13.6834 3.09943C13.5073 2.69113 13.2811 2.26151 13.0565 1.86487C12.6075 1.07157 12.161 0.40609 12.161 0.40609C12.112 0.33297 12.0453 0.273361 11.9672 0.232747C11.8891 0.192132 11.802 0.171817 11.714 0.17367ZM6.82494 0.523667C2.55288 0.523667 0 3.63759 0 6.64862C0 8.26105 1.20224 9.62359 2.62498 9.62359C3.19687 9.62359 3.76975 9.50606 4.27584 9.40211C4.59784 9.33631 4.90171 9.27359 5.07496 9.27359C5.7284 9.27359 5.87187 9.57406 6.09692 10.7686C6.32617 11.9852 6.67239 13.8236 9.30227 13.8236C9.40342 13.8236 9.50728 13.8142 9.61193 13.803C9.38268 13.493 9.22848 13.1415 9.15393 12.7681C7.53659 12.7128 7.3535 11.7666 7.12846 10.5745C6.94191 9.58257 6.68634 8.2236 5.07496 8.2236C4.79496 8.2236 4.45661 8.29314 4.06461 8.37399C3.60822 8.46744 3.09012 8.5736 2.62498 8.5736C1.87983 8.5736 1.04999 7.78296 1.04999 6.64862C1.04999 4.15384 3.21017 1.57366 6.82494 1.57366C7.75909 1.57366 8.64179 1.78975 9.43488 2.16565C9.59448 1.84855 9.76652 1.53677 9.93732 1.24417C8.99408 0.787422 7.94108 0.523667 6.82494 0.523667ZM11.7249 1.70149C11.884 1.9537 11.9348 2.01403 12.1433 2.38234C12.3562 2.75858 12.5675 3.16243 12.7195 3.51505C12.8716 3.86767 12.9499 4.19056 12.9499 4.27383C12.9499 4.58955 12.8131 4.85691 12.617 5.07363H10.8362C10.6404 4.85707 10.4999 4.59093 10.4999 4.27383C10.4999 4.2736 10.4999 4.27338 10.4999 4.27315C10.4999 4.18999 10.5782 3.86765 10.7303 3.51505C10.8823 3.16245 11.0936 2.75857 11.3065 2.38234C11.5151 2.01405 11.5658 1.95369 11.7249 1.70149ZM6.82494 2.62365C6.59288 2.62365 6.37032 2.71584 6.20623 2.87993C6.04214 3.04402 5.94995 3.26658 5.94995 3.49864C5.94995 3.7307 6.04214 3.95326 6.20623 4.11736C6.37032 4.28145 6.59288 4.37363 6.82494 4.37363C7.05701 4.37363 7.27956 4.28145 7.44366 4.11736C7.60775 3.95326 7.69994 3.7307 7.69994 3.49864C7.69994 3.26658 7.60775 3.04402 7.44366 2.87993C7.27956 2.71584 7.05701 2.62365 6.82494 2.62365ZM4.37496 3.32364C4.1429 3.32364 3.92034 3.41583 3.75625 3.57992C3.59216 3.74402 3.49997 3.96657 3.49997 4.19864C3.49997 4.4307 3.59216 4.65326 3.75625 4.81735C3.92034 4.98144 4.1429 5.07363 4.37496 5.07363C4.60703 5.07363 4.82958 4.98144 4.99368 4.81735C5.15777 4.65326 5.24996 4.4307 5.24996 4.19864C5.24996 3.96657 5.15777 3.74402 4.99368 3.57992C4.82958 3.41583 4.60703 3.32364 4.37496 3.32364ZM2.97498 5.42363C2.74291 5.42363 2.52035 5.51581 2.35626 5.67991C2.19217 5.844 2.09998 6.06656 2.09998 6.29862C2.09998 6.53068 2.19217 6.75324 2.35626 6.91733C2.52035 7.08143 2.74291 7.17361 2.97498 7.17361C3.20704 7.17361 3.4296 7.08143 3.59369 6.91733C3.75778 6.75324 3.84997 6.53068 3.84997 6.29862C3.84997 6.06656 3.75778 5.844 3.59369 5.67991C3.4296 5.51581 3.20704 5.42363 2.97498 5.42363ZM11.1473 6.12362H12.3518L12.3941 7.17361H11.096L11.1473 6.12362ZM11.0447 8.2236H12.4372L12.5985 12.2C12.5985 12.2016 12.5985 12.2032 12.5985 12.2048C12.6238 12.7121 12.2328 13.1236 11.7249 13.1236C11.217 13.1236 10.826 12.7121 10.8513 12.2048C10.8513 12.2046 10.8513 12.2044 10.8513 12.2041L11.0447 8.2236Z" fill="black"/>
</g>
<defs>
<clipPath id="clip0_579_4852">
<rect width="14" height="14" fill="white" transform="translate(0 0.173553)"/>
</clipPath>
</defs>
</svg>
