<svg width="14" height="15" viewBox="0 0 14 15" fill="none" xmlns="http://www.w3.org/2000/svg">
<path d="M2.575 -0.313246C1.71137 -0.313246 1 0.398129 1 1.26175V12.1118C1 12.9754 1.71137 13.6868 2.575 13.6868H10.625C11.4886 13.6868 12.2 12.9754 12.2 12.1118V1.26175C12.2 0.398129 11.4886 -0.313246 10.625 -0.313246H2.575ZM2.575 0.736754H10.625C10.9213 0.736754 11.15 0.965479 11.15 1.26175V12.1118C11.15 12.408 10.9213 12.6368 10.625 12.6368H2.575C2.27873 12.6368 2.05 12.408 2.05 12.1118V1.26175C2.05 0.965479 2.27873 0.736754 2.575 0.736754ZM4.325 2.48675C4.25543 2.48577 4.18636 2.49862 4.1218 2.52457C4.05724 2.55051 3.99849 2.58902 3.94894 2.63787C3.8994 2.68672 3.86006 2.74493 3.8332 2.80911C3.80635 2.8733 3.79252 2.94218 3.79252 3.01175C3.79252 3.08133 3.80635 3.15021 3.8332 3.2144C3.86006 3.27858 3.8994 3.33679 3.94894 3.38564C3.99849 3.43449 4.05724 3.473 4.1218 3.49894C4.18636 3.52489 4.25543 3.53774 4.325 3.53675H6.075C6.14457 3.53774 6.21364 3.52489 6.2782 3.49894C6.34276 3.473 6.40151 3.43449 6.45106 3.38564C6.5006 3.33679 6.53994 3.27858 6.5668 3.2144C6.59365 3.15021 6.60748 3.08133 6.60748 3.01175C6.60748 2.94218 6.59365 2.8733 6.5668 2.80911C6.53994 2.74493 6.5006 2.68672 6.45106 2.63787C6.40151 2.58902 6.34276 2.55051 6.2782 2.52457C6.21364 2.49862 6.14457 2.48577 6.075 2.48675H4.325ZM4.325 5.63675C4.25543 5.63577 4.18636 5.64862 4.1218 5.67457C4.05724 5.70051 3.99849 5.73902 3.94894 5.78787C3.8994 5.83672 3.86006 5.89493 3.8332 5.95911C3.80635 6.0233 3.79252 6.09218 3.79252 6.16175C3.79252 6.23133 3.80635 6.30021 3.8332 6.3644C3.86006 6.42858 3.8994 6.48679 3.94894 6.53564C3.99849 6.58449 4.05724 6.623 4.1218 6.64894C4.18636 6.67489 4.25543 6.68774 4.325 6.68675H8.875C8.94457 6.68774 9.01364 6.67489 9.0782 6.64894C9.14276 6.623 9.20151 6.58449 9.25106 6.53564C9.3006 6.48679 9.33994 6.42858 9.3668 6.3644C9.39365 6.30021 9.40748 6.23133 9.40748 6.16175C9.40748 6.09218 9.39365 6.0233 9.3668 5.95911C9.33994 5.89493 9.3006 5.83672 9.25106 5.78787C9.20151 5.73902 9.14276 5.70051 9.0782 5.67457C9.01364 5.64862 8.94457 5.63577 8.875 5.63675H4.325ZM4.325 7.73675C4.25543 7.73577 4.18636 7.74862 4.1218 7.77457C4.05724 7.80051 3.99849 7.83902 3.94894 7.88787C3.8994 7.93672 3.86006 7.99493 3.8332 8.05911C3.80635 8.1233 3.79252 8.19218 3.79252 8.26175C3.79252 8.33133 3.80635 8.40021 3.8332 8.4644C3.86006 8.52858 3.8994 8.58679 3.94894 8.63564C3.99849 8.68449 4.05724 8.723 4.1218 8.74894C4.18636 8.77489 4.25543 8.78774 4.325 8.78675H8.875C8.94457 8.78774 9.01364 8.77489 9.0782 8.74894C9.14276 8.723 9.20151 8.68449 9.25106 8.63564C9.3006 8.58679 9.33994 8.52858 9.3668 8.4644C9.39365 8.40021 9.40748 8.33133 9.40748 8.26175C9.40748 8.19218 9.39365 8.1233 9.3668 8.05911C9.33994 7.99493 9.3006 7.93672 9.25106 7.88787C9.20151 7.83902 9.14276 7.80051 9.0782 7.77457C9.01364 7.74862 8.94457 7.73577 8.875 7.73675H4.325ZM4.325 9.83675C4.25543 9.83577 4.18636 9.84862 4.1218 9.87457C4.05724 9.90051 3.99849 9.93902 3.94894 9.98787C3.8994 10.0367 3.86006 10.0949 3.8332 10.1591C3.80635 10.2233 3.79252 10.2922 3.79252 10.3618C3.79252 10.4313 3.80635 10.5002 3.8332 10.5644C3.86006 10.6286 3.8994 10.6868 3.94894 10.7356C3.99849 10.7845 4.05724 10.823 4.1218 10.8489C4.18636 10.8749 4.25543 10.8877 4.325 10.8868H7.475C7.54457 10.8877 7.61364 10.8749 7.6782 10.8489C7.74276 10.823 7.80151 10.7845 7.85106 10.7356C7.9006 10.6868 7.93994 10.6286 7.9668 10.5644C7.99365 10.5002 8.00748 10.4313 8.00748 10.3618C8.00748 10.2922 7.99365 10.2233 7.9668 10.1591C7.93994 10.0949 7.9006 10.0367 7.85106 9.98787C7.80151 9.93902 7.74276 9.90051 7.6782 9.87457C7.61364 9.84862 7.54457 9.83577 7.475 9.83675H4.325Z" fill="black"/>
</svg>
