<svg width="14" height="14" viewBox="0 0 14 14" fill="none" xmlns="http://www.w3.org/2000/svg">
<path d="M2.575 -0.400024C1.71137 -0.400024 1 0.31135 1 1.17498V12.025C1 12.8886 1.71137 13.6 2.575 13.6H10.625C11.4886 13.6 12.2 12.8886 12.2 12.025V1.17498C12.2 0.31135 11.4886 -0.400024 10.625 -0.400024H2.575ZM2.575 0.649976H10.625C10.9213 0.649976 11.15 0.878701 11.15 1.17498V12.025C11.15 12.3212 10.9213 12.55 10.625 12.55H2.575C2.27873 12.55 2.05 12.3212 2.05 12.025V1.17498C2.05 0.878701 2.27873 0.649976 2.575 0.649976ZM4.325 2.39998C4.25543 2.39899 4.18636 2.41184 4.1218 2.43779C4.05724 2.46373 3.99849 2.50224 3.94894 2.55109C3.8994 2.59994 3.86006 2.65815 3.8332 2.72233C3.80635 2.78652 3.79252 2.8554 3.79252 2.92498C3.79252 2.99455 3.80635 3.06343 3.8332 3.12762C3.86006 3.1918 3.8994 3.25001 3.94894 3.29886C3.99849 3.34771 4.05724 3.38622 4.1218 3.41216C4.18636 3.43811 4.25543 3.45096 4.325 3.44998H6.075C6.14457 3.45096 6.21364 3.43811 6.2782 3.41216C6.34276 3.38622 6.40151 3.34771 6.45106 3.29886C6.5006 3.25001 6.53994 3.1918 6.5668 3.12762C6.59365 3.06343 6.60748 2.99455 6.60748 2.92498C6.60748 2.8554 6.59365 2.78652 6.5668 2.72233C6.53994 2.65815 6.5006 2.59994 6.45106 2.55109C6.40151 2.50224 6.34276 2.46373 6.2782 2.43779C6.21364 2.41184 6.14457 2.39899 6.075 2.39998H4.325ZM4.325 5.54998C4.25543 5.54899 4.18636 5.56184 4.1218 5.58779C4.05724 5.61373 3.99849 5.65224 3.94894 5.70109C3.8994 5.74994 3.86006 5.80815 3.8332 5.87233C3.80635 5.93652 3.79252 6.0054 3.79252 6.07498C3.79252 6.14455 3.80635 6.21343 3.8332 6.27762C3.86006 6.3418 3.8994 6.40001 3.94894 6.44886C3.99849 6.49771 4.05724 6.53622 4.1218 6.56216C4.18636 6.58811 4.25543 6.60096 4.325 6.59998H8.875C8.94457 6.60096 9.01364 6.58811 9.0782 6.56216C9.14276 6.53622 9.20151 6.49771 9.25106 6.44886C9.3006 6.40001 9.33994 6.3418 9.3668 6.27762C9.39365 6.21343 9.40748 6.14455 9.40748 6.07498C9.40748 6.0054 9.39365 5.93652 9.3668 5.87233C9.33994 5.80815 9.3006 5.74994 9.25106 5.70109C9.20151 5.65224 9.14276 5.61373 9.0782 5.58779C9.01364 5.56184 8.94457 5.54899 8.875 5.54998H4.325ZM4.325 7.64998C4.25543 7.64899 4.18636 7.66184 4.1218 7.68779C4.05724 7.71373 3.99849 7.75224 3.94894 7.80109C3.8994 7.84994 3.86006 7.90815 3.8332 7.97233C3.80635 8.03652 3.79252 8.1054 3.79252 8.17498C3.79252 8.24455 3.80635 8.31343 3.8332 8.37762C3.86006 8.4418 3.8994 8.50001 3.94894 8.54886C3.99849 8.59771 4.05724 8.63622 4.1218 8.66216C4.18636 8.68811 4.25543 8.70096 4.325 8.69998H8.875C8.94457 8.70096 9.01364 8.68811 9.0782 8.66216C9.14276 8.63622 9.20151 8.59771 9.25106 8.54886C9.3006 8.50001 9.33994 8.4418 9.3668 8.37762C9.39365 8.31343 9.40748 8.24455 9.40748 8.17498C9.40748 8.1054 9.39365 8.03652 9.3668 7.97233C9.33994 7.90815 9.3006 7.84994 9.25106 7.80109C9.20151 7.75224 9.14276 7.71373 9.0782 7.68779C9.01364 7.66184 8.94457 7.64899 8.875 7.64998H4.325ZM4.325 9.74998C4.25543 9.74899 4.18636 9.76184 4.1218 9.78779C4.05724 9.81373 3.99849 9.85224 3.94894 9.90109C3.8994 9.94994 3.86006 10.0081 3.8332 10.0723C3.80635 10.1365 3.79252 10.2054 3.79252 10.275C3.79252 10.3446 3.80635 10.4134 3.8332 10.4776C3.86006 10.5418 3.8994 10.6 3.94894 10.6489C3.99849 10.6977 4.05724 10.7362 4.1218 10.7622C4.18636 10.7881 4.25543 10.801 4.325 10.8H7.475C7.54457 10.801 7.61364 10.7881 7.6782 10.7622C7.74276 10.7362 7.80151 10.6977 7.85106 10.6489C7.9006 10.6 7.93994 10.5418 7.9668 10.4776C7.99365 10.4134 8.00748 10.3446 8.00748 10.275C8.00748 10.2054 7.99365 10.1365 7.9668 10.0723C7.93994 10.0081 7.9006 9.94994 7.85106 9.90109C7.80151 9.85224 7.74276 9.81373 7.6782 9.78779C7.61364 9.76184 7.54457 9.74899 7.475 9.74998H4.325Z" fill="black"/>
</svg>
