<svg width="14" height="15" viewBox="0 0 14 15" fill="none" xmlns="http://www.w3.org/2000/svg">
<g clip-path="url(#clip0_860_5196)">
<path d="M2.52778 0.173553C1.13869 0.173553 0 1.31224 0 2.70133V11.6458C0 13.0349 1.13869 14.1736 2.52778 14.1736H11.4722C12.8613 14.1736 14 13.0349 14 11.6458V2.70133C14 1.31224 12.8613 0.173553 11.4722 0.173553H2.52778ZM2.52778 1.34022H11.4722C12.2306 1.34022 12.8333 1.94297 12.8333 2.70133V11.6458C12.8333 12.4041 12.2306 13.0069 11.4722 13.0069H2.52778C1.76942 13.0069 1.16667 12.4041 1.16667 11.6458V2.70133C1.16667 1.94297 1.76942 1.34022 2.52778 1.34022ZM5.25 3.28466C5.0953 3.28468 4.94693 3.34614 4.83754 3.45554C4.72815 3.56493 4.66668 3.71329 4.66667 3.868V8.05007C4.65638 8.1127 4.65638 8.17658 4.66667 8.2392V10.868C4.66557 10.9453 4.67985 11.022 4.70868 11.0938C4.7375 11.1655 4.7803 11.2308 4.83457 11.2858C4.88885 11.3409 4.95352 11.3846 5.02484 11.4144C5.09616 11.4443 5.17269 11.4596 5.25 11.4596C5.32731 11.4596 5.40384 11.4443 5.47516 11.4144C5.54648 11.3846 5.61115 11.3409 5.66543 11.2858C5.7197 11.2308 5.7625 11.1655 5.79132 11.0938C5.82015 11.022 5.83443 10.9453 5.83333 10.868V8.72911H7.38889C8.88549 8.72911 10.1111 7.50349 10.1111 6.00689C10.1111 4.51029 8.88549 3.28466 7.38889 3.28466H5.25ZM5.83333 4.45133H7.38889C8.25518 4.45133 8.94444 5.1406 8.94444 6.00689C8.94444 6.87318 8.25518 7.56244 7.38889 7.56244H5.83333V4.45133Z" fill="black"/>
</g>
<defs>
<clipPath id="clip0_860_5196">
<rect width="14" height="14" fill="white" transform="translate(0 0.173553)"/>
</clipPath>
</defs>
</svg>
