<svg width="14" height="15" viewBox="0 0 14 15" fill="none" xmlns="http://www.w3.org/2000/svg">
<path d="M2.575 -0.313124C1.71137 -0.313124 1 0.398251 1 1.26188V12.1119C1 12.9755 1.71137 13.6869 2.575 13.6869H10.625C11.4886 13.6869 12.2 12.9755 12.2 12.1119V4.76188C12.2 4.62265 12.1446 4.48913 12.0462 4.39068L12.0407 4.38522L7.49619 -0.159315C7.39775 -0.257772 7.26423 -0.313097 7.125 -0.313124H2.575ZM2.575 0.736876H6.6V3.71188C6.6 4.5755 7.31137 5.28688 8.175 5.28688H11.15V12.1119C11.15 12.4082 10.9213 12.6369 10.625 12.6369H2.575C2.27873 12.6369 2.05 12.4082 2.05 12.1119V1.26188C2.05 0.965602 2.27873 0.736876 2.575 0.736876ZM7.65 1.47926L10.4076 4.23688H8.175C7.87873 4.23688 7.65 4.00815 7.65 3.71188V1.47926ZM6.075 5.63688C5.59583 5.63688 5.2 6.0327 5.2 6.51188C5.2 7.12173 5.51113 7.7812 5.91846 8.41295C5.81262 8.75652 5.69773 9.09282 5.56299 9.39596C5.55973 9.39718 5.55529 9.39812 5.55205 9.39938C4.6663 9.73867 4.04241 10.1288 3.71455 10.435C3.52912 10.6088 3.45 10.8442 3.45 11.0619C3.45 11.285 3.53679 11.511 3.70635 11.6805C3.87591 11.8501 4.10188 11.9369 4.325 11.9369C4.56756 11.9369 4.76701 11.8267 4.91699 11.7051C5.10104 11.5556 5.28074 11.3281 5.49326 11.0092C5.67798 10.7321 5.87499 10.3672 6.06475 9.9777C6.36745 9.87224 6.68854 9.7739 7.04434 9.69606C7.59723 10.1637 8.2024 10.5369 8.875 10.5369C9.35417 10.5369 9.75 10.141 9.75 9.66188C9.75 9.1827 9.35417 8.78688 8.875 8.78688C8.29362 8.78688 7.75788 8.85606 7.24941 8.94684C7.13074 8.83359 6.9978 8.75872 6.88916 8.63033C6.80793 8.53434 6.76624 8.42432 6.69297 8.32272C6.84746 7.74653 6.95 7.13656 6.95 6.51188C6.95 6.0327 6.55417 5.63688 6.075 5.63688ZM6.075 6.33688C6.17543 6.33688 6.25 6.41145 6.25 6.51188C6.25 6.79838 6.17638 7.07925 6.13311 7.36432C6.00301 7.04781 5.9 6.73751 5.9 6.51188C5.9 6.41145 5.97457 6.33688 6.075 6.33688ZM6.40312 9.12594C6.4103 9.13424 6.41983 9.13954 6.42705 9.14781C6.41496 9.15117 6.40353 9.15469 6.3915 9.15807C6.39554 9.14746 6.39911 9.13659 6.40312 9.12594ZM8.875 9.48688C8.97543 9.48688 9.05 9.56145 9.05 9.66188C9.05 9.7623 8.97543 9.83688 8.875 9.83688C8.62945 9.83688 8.35148 9.70648 8.07656 9.56549C8.34416 9.53949 8.58968 9.48688 8.875 9.48688ZM5.01816 10.4261C4.98285 10.4826 4.94416 10.5699 4.91016 10.621C4.71954 10.9069 4.53774 11.111 4.47539 11.1617C4.40067 11.222 4.3511 11.2369 4.325 11.2369C4.27932 11.2369 4.23681 11.2211 4.20127 11.1856C4.16573 11.1501 4.15 11.1076 4.15 11.0619C4.15 11.0111 4.16673 10.9707 4.19238 10.9463L4.19307 10.9457C4.32207 10.8253 4.63383 10.6309 5.01816 10.4261Z" fill="black"/>
</svg>
