<svg width="14" height="16" viewBox="0 0 14 16" fill="none" xmlns="http://www.w3.org/2000/svg">
<path d="M2.575 0.773682C1.71137 0.773682 1 1.48506 1 2.34868V13.1987C1 14.0623 1.71137 14.7737 2.575 14.7737H10.625C11.4886 14.7737 12.2 14.0623 12.2 13.1987V5.84868C12.2 5.70945 12.1446 5.57593 12.0462 5.47749L12.0407 5.47202L7.49619 0.92749C7.39775 0.829034 7.26423 0.773708 7.125 0.773682H2.575ZM2.575 1.82368H6.6V4.79868C6.6 5.66231 7.31137 6.37368 8.175 6.37368H11.15V13.1987C11.15 13.495 10.9213 13.7237 10.625 13.7237H2.575C2.27873 13.7237 2.05 13.495 2.05 13.1987V2.34868C2.05 2.05241 2.27873 1.82368 2.575 1.82368ZM7.65 2.56606L10.4076 5.32368H8.175C7.87873 5.32368 7.65 5.09496 7.65 4.79868V2.56606ZM6.075 6.72368C5.59583 6.72368 5.2 7.11951 5.2 7.59868C5.2 8.20853 5.51113 8.868 5.91846 9.49976C5.81262 9.84332 5.69773 10.1796 5.56299 10.4828C5.55973 10.484 5.55529 10.4849 5.55205 10.4862C4.6663 10.8255 4.04241 11.2156 3.71455 11.5218C3.52912 11.6956 3.45 11.931 3.45 12.1487C3.45 12.3718 3.53679 12.5978 3.70635 12.7673C3.87591 12.9369 4.10188 13.0237 4.325 13.0237C4.56756 13.0237 4.76701 12.9135 4.91699 12.7919C5.10104 12.6424 5.28074 12.4149 5.49326 12.096C5.67798 11.8189 5.87499 11.454 6.06475 11.0645C6.36745 10.959 6.68854 10.8607 7.04434 10.7829C7.59723 11.2505 8.2024 11.6237 8.875 11.6237C9.35417 11.6237 9.75 11.2279 9.75 10.7487C9.75 10.2695 9.35417 9.87368 8.875 9.87368C8.29362 9.87368 7.75788 9.94286 7.24941 10.0336C7.13074 9.9204 6.9978 9.84552 6.88916 9.71714C6.80793 9.62115 6.76624 9.51112 6.69297 9.40952C6.84746 8.83334 6.95 8.22337 6.95 7.59868C6.95 7.11951 6.55417 6.72368 6.075 6.72368ZM6.075 7.42368C6.17543 7.42368 6.25 7.49825 6.25 7.59868C6.25 7.88518 6.17638 8.16606 6.13311 8.45112C6.00301 8.13461 5.9 7.82432 5.9 7.59868C5.9 7.49825 5.97457 7.42368 6.075 7.42368ZM6.40312 10.2127C6.4103 10.221 6.41983 10.2263 6.42705 10.2346C6.41496 10.238 6.40353 10.2415 6.3915 10.2449C6.39554 10.2343 6.39911 10.2234 6.40312 10.2127ZM8.875 10.5737C8.97543 10.5737 9.05 10.6483 9.05 10.7487C9.05 10.8491 8.97543 10.9237 8.875 10.9237C8.62945 10.9237 8.35148 10.7933 8.07656 10.6523C8.34416 10.6263 8.58968 10.5737 8.875 10.5737ZM5.01816 11.5129C4.98285 11.5694 4.94416 11.6567 4.91016 11.7078C4.71954 11.9937 4.53774 12.1978 4.47539 12.2485C4.40067 12.3088 4.3511 12.3237 4.325 12.3237C4.27932 12.3237 4.23681 12.308 4.20127 12.2724C4.16573 12.2369 4.15 12.1944 4.15 12.1487C4.15 12.0979 4.16673 12.0575 4.19238 12.0332L4.19307 12.0325C4.32207 11.9121 4.63383 11.7177 5.01816 11.5129Z" fill="black"/>
</svg>
