<svg width="14" height="16" viewBox="0 0 14 16" fill="none" xmlns="http://www.w3.org/2000/svg">
<path d="M11.4239 0.773529C10.7625 0.773529 10.1012 1.02427 9.59997 1.5257L8.19208 2.93359C8.14173 2.96921 8.0977 3.013 8.0618 3.06315L1.44269 9.68227C1.28791 9.83704 1.17456 10.0295 1.11447 10.2408L0.0211188 14.0693C-0.00584526 14.1641 -0.00700993 14.2643 0.0177454 14.3596C0.0425007 14.455 0.092277 14.542 0.161925 14.6116C0.231574 14.6813 0.318565 14.731 0.413902 14.7558C0.509238 14.7805 0.609456 14.7794 0.704192 14.7524L4.53343 13.6591C4.53367 13.6588 4.53391 13.6586 4.53415 13.6583C4.74404 13.598 4.93604 13.4861 5.09126 13.3308L11.6967 6.72468C11.7584 6.68379 11.8113 6.63092 11.8522 6.56921L13.2478 5.17355C14.2506 4.17074 14.2506 2.52851 13.2478 1.5257C12.7466 1.02427 12.0853 0.773529 11.4239 0.773529ZM11.4239 1.87264C11.8001 1.87264 12.1758 2.01759 12.4654 2.30738C12.4657 2.30738 12.4659 2.30738 12.4661 2.30738C13.0465 2.88777 13.0465 3.81149 12.4661 4.39187L11.3829 5.47514L9.29838 3.39066L10.3817 2.30738C10.6713 2.01759 11.0477 1.87264 11.4239 1.87264ZM8.5167 4.17234L10.6012 6.25683L4.30886 12.5492C4.28725 12.5706 4.25989 12.5871 4.22896 12.5959L3.86619 12.6996L2.07394 10.9073L2.17758 10.5438C2.17758 10.5436 2.17758 10.5434 2.17758 10.5431C2.18604 10.5134 2.20151 10.4868 2.22437 10.464L8.5167 4.17234ZM1.72628 12.123L2.65048 13.0472L1.35703 13.4165L1.72628 12.123Z" fill="black"/>
</svg>
