<svg width="14" height="16" viewBox="0 0 14 16" fill="none" xmlns="http://www.w3.org/2000/svg">
<path d="M11.4239 0.835938C10.7625 0.835938 10.1012 1.08667 9.59997 1.58811L8.19208 2.996C8.14173 3.03162 8.0977 3.07541 8.0618 3.12556L1.44269 9.74468C1.28791 9.89945 1.17456 10.0919 1.11447 10.3032L0.0211188 14.1317C-0.00584526 14.2265 -0.00700993 14.3267 0.0177454 14.422C0.0425007 14.5174 0.092277 14.6044 0.161925 14.674C0.231574 14.7437 0.318565 14.7934 0.413902 14.8182C0.509238 14.8429 0.609456 14.8418 0.704192 14.8148L4.53343 13.7215C4.53367 13.7212 4.53391 13.721 4.53415 13.7207C4.74404 13.6604 4.93604 13.5485 5.09126 13.3932L11.6967 6.78709C11.7584 6.7462 11.8113 6.69333 11.8522 6.63162L13.2478 5.23596C14.2506 4.23315 14.2506 2.59092 13.2478 1.58811C12.7466 1.08667 12.0853 0.835938 11.4239 0.835938ZM11.4239 1.93504C11.8001 1.93504 12.1758 2.08 12.4654 2.36979C12.4657 2.36979 12.4659 2.36979 12.4661 2.36979C13.0465 2.95018 13.0465 3.87389 12.4661 4.45428L11.3829 5.53755L9.29838 3.45306L10.3817 2.36979C10.6713 2.08 11.0477 1.93504 11.4239 1.93504ZM8.5167 4.23475L10.6012 6.31923L4.30886 12.6116C4.28725 12.633 4.25989 12.6495 4.22896 12.6584L3.86619 12.762L2.07394 10.9697L2.17758 10.6063C2.17758 10.606 2.17758 10.6058 2.17758 10.6055C2.18604 10.5758 2.20151 10.5492 2.22437 10.5264L8.5167 4.23475ZM1.72628 12.1855L2.65048 13.1097L1.35703 13.4789L1.72628 12.1855Z" fill="black"/>
</svg>
