<svg width="14" height="15" viewBox="0 0 14 15" fill="none" xmlns="http://www.w3.org/2000/svg">
<path d="M10.9284 1.919C10.8648 1.92094 10.8024 1.93672 10.7455 1.96526C10.6886 1.99379 10.6387 2.03438 10.5991 2.0842L2.72411 11.7092C2.68505 11.7533 2.65529 11.8048 2.63662 11.8607C2.61795 11.9165 2.61076 11.9756 2.61547 12.0343C2.62017 12.093 2.63669 12.1502 2.66403 12.2024C2.69136 12.2546 2.72895 12.3007 2.77454 12.338C2.82013 12.3753 2.87278 12.403 2.92934 12.4195C2.9859 12.4359 3.0452 12.4408 3.10369 12.4338C3.16217 12.4268 3.21864 12.408 3.26971 12.3787C3.32078 12.3493 3.36539 12.3099 3.40087 12.2629L11.2759 2.63791C11.3302 2.57331 11.3646 2.49439 11.3751 2.41065C11.3856 2.32691 11.3716 2.24193 11.3349 2.16595C11.2982 2.08996 11.2402 2.02623 11.1681 1.98241C11.096 1.93859 11.0127 1.91657 10.9284 1.919V1.919ZM3.93749 2.21522C2.89607 2.21522 2.04166 3.06964 2.04166 4.11105V5.27772C2.04166 6.31913 2.89607 7.17355 3.93749 7.17355C4.9789 7.17355 5.83332 6.31913 5.83332 5.27772V4.11105C5.83332 3.06964 4.9789 2.21522 3.93749 2.21522ZM3.93749 3.09022C4.50433 3.09022 4.95832 3.54422 4.95832 4.11105V5.27772C4.95832 5.84456 4.50433 6.29855 3.93749 6.29855C3.37065 6.29855 2.91666 5.84456 2.91666 5.27772V4.11105C2.91666 3.54422 3.37065 3.09022 3.93749 3.09022ZM10.0625 7.17355C9.02108 7.17355 8.16666 8.02797 8.16666 9.06939V10.2361C8.16666 11.2775 9.02108 12.1319 10.0625 12.1319C11.1039 12.1319 11.9583 11.2775 11.9583 10.2361V9.06939C11.9583 8.02797 11.1039 7.17355 10.0625 7.17355ZM10.0625 8.04855C10.6293 8.04855 11.0833 8.50255 11.0833 9.06939V10.2361C11.0833 10.8029 10.6293 11.2569 10.0625 11.2569C9.49566 11.2569 9.04166 10.8029 9.04166 10.2361V9.06939C9.04166 8.50255 9.49566 8.04855 10.0625 8.04855Z" fill="black"/>
</svg>
