<svg width="14" height="15" viewBox="0 0 14 15" fill="none" xmlns="http://www.w3.org/2000/svg">
<path d="M1.83333 1.83582C0.826742 1.83582 0 2.66256 0 3.66915V11.3358C0 12.3424 0.826742 13.1691 1.83333 13.1691H12.1667C13.1733 13.1691 14 12.3424 14 11.3358V3.66915C14 2.66256 13.1733 1.83582 12.1667 1.83582H1.83333ZM1.83333 2.83582H12.1667C12.6327 2.83582 13 3.20307 13 3.66915V11.3358C13 11.8019 12.6327 12.1691 12.1667 12.1691H1.83333C1.36726 12.1691 1 11.8019 1 11.3358V3.66915C1 3.20307 1.36726 2.83582 1.83333 2.83582ZM9.1569 4.83126C9.02705 4.83504 8.90376 4.88921 8.81315 4.9823L4.47982 9.31563C4.43183 9.36171 4.39352 9.41689 4.36713 9.47795C4.34074 9.53902 4.3268 9.60473 4.32612 9.67125C4.32544 9.73777 4.33805 9.80376 4.36319 9.86535C4.38834 9.92694 4.42552 9.98289 4.47256 10.0299C4.51959 10.077 4.57555 10.1141 4.63713 10.1393C4.69872 10.1644 4.76471 10.177 4.83123 10.1764C4.89775 10.1757 4.96346 10.1617 5.02453 10.1354C5.08559 10.109 5.14078 10.0706 5.18685 10.0227L9.52018 5.68933C9.59232 5.61908 9.64156 5.52869 9.66147 5.42999C9.68138 5.33128 9.67103 5.22887 9.63178 5.13615C9.59252 5.04342 9.52619 4.96471 9.44146 4.91031C9.35673 4.85591 9.25755 4.82836 9.1569 4.83126ZM5.16667 4.83582C4.94565 4.83582 4.73369 4.92361 4.57741 5.07989C4.42113 5.23617 4.33333 5.44813 4.33333 5.66915C4.33333 5.89016 4.42113 6.10212 4.57741 6.2584C4.73369 6.41468 4.94565 6.50248 5.16667 6.50248C5.38768 6.50248 5.59964 6.41468 5.75592 6.2584C5.9122 6.10212 6 5.89016 6 5.66915C6 5.44813 5.9122 5.23617 5.75592 5.07989C5.59964 4.92361 5.38768 4.83582 5.16667 4.83582ZM8.83333 8.50248C8.61232 8.50248 8.40036 8.59028 8.24408 8.74656C8.0878 8.90284 8 9.1148 8 9.33581C8 9.55683 8.0878 9.76879 8.24408 9.92507C8.40036 10.0814 8.61232 10.1691 8.83333 10.1691C9.05435 10.1691 9.26631 10.0814 9.42259 9.92507C9.57887 9.76879 9.66667 9.55683 9.66667 9.33581C9.66667 9.1148 9.57887 8.90284 9.42259 8.74656C9.26631 8.59028 9.05435 8.50248 8.83333 8.50248Z" fill="black"/>
</svg>
