<svg width="14" height="15" viewBox="0 0 14 15" fill="none" xmlns="http://www.w3.org/2000/svg">
<path d="M10.9284 1.98138C10.8648 1.98332 10.8024 1.99911 10.7455 2.02764C10.6886 2.05617 10.6387 2.09676 10.5991 2.14658L2.72411 11.7716C2.68505 11.8157 2.65529 11.8672 2.63662 11.9231C2.61795 11.9789 2.61076 12.038 2.61546 12.0967C2.62017 12.1554 2.63669 12.2126 2.66403 12.2648C2.69136 12.317 2.72895 12.3631 2.77454 12.4004C2.82013 12.4377 2.87278 12.4654 2.92934 12.4819C2.9859 12.4983 3.0452 12.5032 3.10369 12.4962C3.16217 12.4892 3.21864 12.4704 3.26971 12.441C3.32078 12.4117 3.36539 12.3723 3.40087 12.3253L11.2759 2.70029C11.3302 2.6357 11.3646 2.55677 11.3751 2.47303C11.3856 2.38929 11.3716 2.30431 11.3349 2.22833C11.2982 2.15235 11.2402 2.08861 11.1681 2.0448C11.096 2.00098 11.0127 1.97896 10.9284 1.98138ZM3.93749 2.27761C2.89607 2.27761 2.04166 3.13202 2.04166 4.17344V5.34011C2.04166 6.38152 2.89607 7.23594 3.93749 7.23594C4.9789 7.23594 5.83332 6.38152 5.83332 5.34011V4.17344C5.83332 3.13202 4.9789 2.27761 3.93749 2.27761ZM3.93749 3.15261C4.50433 3.15261 4.95832 3.6066 4.95832 4.17344V5.34011C4.95832 5.90694 4.50433 6.36094 3.93749 6.36094C3.37065 6.36094 2.91666 5.90694 2.91666 5.34011V4.17344C2.91666 3.6066 3.37065 3.15261 3.93749 3.15261ZM10.0625 7.23594C9.02108 7.23594 8.16666 8.09036 8.16666 9.13177V10.2984C8.16666 11.3399 9.02108 12.1943 10.0625 12.1943C11.1039 12.1943 11.9583 11.3399 11.9583 10.2984V9.13177C11.9583 8.09036 11.1039 7.23594 10.0625 7.23594ZM10.0625 8.11094C10.6293 8.11094 11.0833 8.56494 11.0833 9.13177V10.2984C11.0833 10.8653 10.6293 11.3193 10.0625 11.3193C9.49566 11.3193 9.04166 10.8653 9.04166 10.2984V9.13177C9.04166 8.56494 9.49566 8.11094 10.0625 8.11094Z" fill="black"/>
</svg>
