<svg width="14" height="15" viewBox="0 0 14 15" fill="none" xmlns="http://www.w3.org/2000/svg">
<path d="M1.83321 1.77365C0.82662 1.77365 -0.00012207 2.6004 -0.00012207 3.60699V11.2737C-0.00012207 12.2802 0.82662 13.107 1.83321 13.107H12.1665C13.1731 13.107 13.9999 12.2802 13.9999 11.2737V3.60699C13.9999 2.6004 13.1731 1.77365 12.1665 1.77365H1.83321ZM1.83321 2.77365H12.1665C12.6326 2.77365 12.9999 3.14091 12.9999 3.60699V11.2737C12.9999 11.7397 12.6326 12.107 12.1665 12.107H1.83321C1.36714 12.107 0.999878 11.7397 0.999878 11.2737V3.60699C0.999878 3.14091 1.36714 2.77365 1.83321 2.77365ZM9.15678 4.7691C9.02693 4.77288 8.90364 4.82705 8.81303 4.92014L4.4797 9.25347C4.43171 9.29955 4.3934 9.35473 4.36701 9.41579C4.34062 9.47686 4.32667 9.54257 4.326 9.60909C4.32532 9.67561 4.33793 9.7416 4.36307 9.80319C4.38822 9.86477 4.4254 9.92073 4.47243 9.96776C4.51947 10.0148 4.57542 10.052 4.63701 10.0771C4.6986 10.1023 4.76459 10.1149 4.83111 10.1142C4.89763 10.1135 4.96334 10.0996 5.02441 10.0732C5.08547 10.0468 5.14065 10.0085 5.18673 9.9605L9.52006 5.62717C9.59219 5.55692 9.64144 5.46653 9.66135 5.36783C9.68126 5.26912 9.67091 5.16671 9.63166 5.07399C9.5924 4.98126 9.52607 4.90255 9.44134 4.84815C9.35661 4.79375 9.25743 4.7662 9.15678 4.7691ZM5.16654 4.77365C4.94553 4.77365 4.73357 4.86145 4.57729 5.01773C4.42101 5.17401 4.33321 5.38597 4.33321 5.60699C4.33321 5.828 4.42101 6.03996 4.57729 6.19624C4.73357 6.35252 4.94553 6.44032 5.16654 6.44032C5.38756 6.44032 5.59952 6.35252 5.7558 6.19624C5.91208 6.03996 5.99988 5.828 5.99988 5.60699C5.99988 5.38597 5.91208 5.17401 5.7558 5.01773C5.59952 4.86145 5.38756 4.77365 5.16654 4.77365ZM8.83321 8.44032C8.6122 8.44032 8.40024 8.52812 8.24396 8.6844C8.08768 8.84068 7.99988 9.05264 7.99988 9.27365C7.99988 9.49467 8.08768 9.70663 8.24396 9.86291C8.40024 10.0192 8.6122 10.107 8.83321 10.107C9.05422 10.107 9.26619 10.0192 9.42247 9.86291C9.57875 9.70663 9.66654 9.49467 9.66654 9.27365C9.66654 9.05264 9.57875 8.84068 9.42247 8.6844C9.26619 8.52812 9.05422 8.44032 8.83321 8.44032Z" fill="black"/>
</svg>
