<svg width="14" height="15" viewBox="0 0 14 15" fill="none" xmlns="http://www.w3.org/2000/svg">
<g clip-path="url(#clip0_1507_9965)">
<path d="M5.11977 0.17874C4.8894 0.16198 4.65335 0.185527 4.42188 0.253928L3.59344 0.499317C2.71066 0.760396 2.02091 1.46082 1.78754 2.34486C1.26939 4.31089 1.86214 6.63798 3.40478 9.25743C4.94526 11.8733 6.70058 13.5357 8.68303 14.0784C9.57579 14.3227 10.5386 14.0893 11.2148 13.4612L11.8451 12.8767C12.5502 12.222 12.6554 11.1314 12.0857 10.3565L11.1752 9.12004C10.6871 8.45714 9.82683 8.17492 9.03573 8.41258L7.61125 8.83911C7.55145 8.85657 7.40836 8.77513 7.28383 8.66754L7.28315 8.66686C7.06136 8.474 6.75407 8.0842 6.42532 7.52672V7.52604C6.0728 6.92734 5.92245 6.53579 5.86209 6.30456C5.80169 6.07323 5.81635 6.04509 5.82517 5.9669C5.82976 5.92788 5.8483 5.89173 5.87986 5.863L5.88054 5.86232L6.94275 4.89102C7.55131 4.33469 7.73503 3.44564 7.39183 2.69756L6.75136 1.30042V1.29973C6.44983 0.642458 5.81069 0.229004 5.11977 0.17874ZM5.0439 1.22591C5.36524 1.24992 5.66114 1.44267 5.79647 1.73788L6.43762 3.13502C6.59278 3.47324 6.51497 3.86027 6.23461 4.11657L5.1724 5.08719C4.95465 5.28574 4.81539 5.55644 4.7821 5.84865V5.84933C4.77343 5.92617 4.75294 6.21193 4.84636 6.56978C4.93977 6.92762 5.13265 7.40092 5.52032 8.05919H5.521C5.88272 8.67269 6.22459 9.13878 6.59483 9.46044H6.59552C6.71575 9.56453 7.21968 10.0475 7.90517 9.84732L7.90722 9.84663L9.33785 9.41806C9.70935 9.30645 10.1066 9.43972 10.3297 9.74274L11.2401 10.9792C11.4979 11.3305 11.4529 11.808 11.1308 12.1071L10.5005 12.6922C10.0975 13.0667 9.49898 13.213 8.95986 13.0654C7.35722 12.6267 5.77134 11.2068 4.30978 8.72496C2.84619 6.23975 2.38843 4.18425 2.80259 2.6128C2.9395 2.09416 3.35896 1.66364 3.89146 1.50616L4.71922 1.26077C4.82705 1.22891 4.93678 1.21791 5.0439 1.22591Z" fill="black"/>
</g>
<defs>
<clipPath id="clip0_1507_9965">
<rect width="14" height="14" fill="white" transform="translate(0 0.173553)"/>
</clipPath>
</defs>
</svg>
