<svg width="14" height="15" viewBox="0 0 14 15" fill="none" xmlns="http://www.w3.org/2000/svg">
<g clip-path="url(#clip0_972_10134)">
<path d="M5.14854 0.236366C4.71625 0.225629 4.27848 0.37894 3.94541 0.712007L0.476324 4.18037V4.18109C-0.284727 4.94269 -0.108899 6.25259 0.826039 6.78668L4.54698 8.91376L5.9444 12.4066C5.97836 12.4915 6.03286 12.5666 6.10301 12.6253C6.17316 12.6839 6.25676 12.7243 6.34633 12.7427C6.43589 12.7611 6.52862 12.7569 6.61621 12.7307C6.7038 12.7044 6.7835 12.6569 6.84819 12.5922L9.212 10.2291L13.0488 14.0659C13.0997 14.119 13.1607 14.1613 13.2282 14.1905C13.2957 14.2197 13.3683 14.2351 13.4418 14.2358C13.5154 14.2366 13.5883 14.2226 13.6564 14.1948C13.7244 14.167 13.7863 14.126 13.8383 14.074C13.8903 14.022 13.9314 13.9601 13.9592 13.8921C13.9869 13.824 14.0009 13.7511 14.0001 13.6775C13.9994 13.604 13.984 13.5314 13.9548 13.4639C13.9256 13.3964 13.8833 13.3354 13.8303 13.2845L9.99346 9.44768L12.3573 7.08387C12.4219 7.01919 12.4695 6.93948 12.4957 6.8519C12.522 6.76431 12.5261 6.67158 12.5077 6.58201C12.4893 6.49244 12.449 6.40884 12.3903 6.33869C12.3317 6.26855 12.2565 6.21405 12.1716 6.18008L8.67807 4.78266L6.55172 1.06172V1.061C6.28447 0.59366 5.82304 0.316313 5.33347 0.250758C5.27228 0.242564 5.2103 0.2379 5.14854 0.236366ZM5.06795 1.32725C5.10836 1.32319 5.14892 1.32406 5.18884 1.32941C5.34853 1.3508 5.49836 1.44664 5.5918 1.61004L7.81458 5.49864C7.8764 5.60692 7.97302 5.69111 8.08874 5.73754L10.9829 6.89462L6.65894 11.2186L5.50186 8.32442C5.45556 8.20844 5.37136 8.11155 5.26296 8.04954L1.37436 5.82749C1.04804 5.64107 0.993017 5.22888 1.25851 4.96255V4.96183L4.72687 1.49419C4.82657 1.39449 4.94672 1.33943 5.06795 1.32725Z" fill="black"/>
</g>
<defs>
<clipPath id="clip0_972_10134">
<rect width="14" height="14" fill="white" transform="translate(0 0.23584)"/>
</clipPath>
</defs>
</svg>
