<svg width="14" height="15" viewBox="0 0 14 15" fill="none" xmlns="http://www.w3.org/2000/svg">
<g clip-path="url(#clip0_580_4858)">
<path d="M9.8581 0.236063C9.71841 0.240134 9.58579 0.298406 9.48831 0.398542L6.82071 3.06614L4.87026 1.11569C4.8207 1.06407 4.76134 1.02286 4.69565 0.994471C4.62996 0.966081 4.55927 0.951083 4.48771 0.950356C4.41615 0.949628 4.34517 0.963186 4.27892 0.990234C4.21267 1.01728 4.15248 1.05728 4.10188 1.10788C4.05128 1.15848 4.01128 1.21867 3.98423 1.28492C3.95718 1.35117 3.94363 1.42216 3.94435 1.49371C3.94508 1.56527 3.96008 1.63596 3.98847 1.70165C4.01686 1.76734 4.05807 1.8267 4.10969 1.87626L4.24766 2.01423L1.35735 4.90454C0.0413404 6.22055 0.0410808 8.36931 1.35595 9.68577L1.00437 9.3349L0.95465 9.38463C0.174388 10.1649 0.174388 11.4457 0.95465 12.2259L1.10032 12.3723L0.165364 13.3072C0.113745 13.3568 0.0725335 13.4162 0.0441434 13.4819C0.0157533 13.5475 0.000755346 13.6182 2.78036e-05 13.6898C-0.000699739 13.7614 0.0128578 13.8323 0.0399064 13.8986C0.066955 13.9648 0.106951 14.025 0.157552 14.0756C0.208153 14.1262 0.268342 14.1662 0.334594 14.1933C0.400845 14.2203 0.471828 14.2339 0.543385 14.2332C0.614942 14.2324 0.685634 14.2174 0.751323 14.189C0.817011 14.1606 0.876374 14.1194 0.925936 14.0678L1.86089 13.1329L2.00656 13.2778C2.78683 14.0581 4.06829 14.0581 4.84855 13.2778L4.89827 13.2281L4.5453 12.8758C5.86193 14.1925 8.01234 14.1926 9.32864 12.8758L12.2189 9.98552L12.3569 10.1235C12.4065 10.1751 12.4658 10.2163 12.5315 10.2447C12.5972 10.2731 12.6679 10.2881 12.7395 10.2888C12.811 10.2896 12.882 10.276 12.9483 10.2489C13.0145 10.2219 13.0747 10.1819 13.1253 10.1313C13.1759 10.0807 13.2159 10.0205 13.2429 9.95426C13.27 9.88801 13.2835 9.81702 13.2828 9.74547C13.2821 9.67391 13.2671 9.60322 13.2387 9.53753C13.2103 9.47184 13.1691 9.41248 13.1175 9.36292L11.167 7.41247L13.8346 4.74486C13.8863 4.6953 13.9275 4.63594 13.9559 4.57025C13.9842 4.50456 13.9992 4.43387 14 4.36231C14.0007 4.29076 13.9871 4.21977 13.9601 4.15352C13.933 4.08727 13.893 4.02708 13.8424 3.97648C13.7918 3.92588 13.7317 3.88588 13.6654 3.85884C13.5992 3.83179 13.5282 3.81823 13.4566 3.81896C13.3851 3.81968 13.3144 3.83468 13.2487 3.86307C13.183 3.89146 13.1236 3.93267 13.0741 3.98429L10.4065 6.65189L7.58128 3.82672L10.2489 1.15911C10.3265 1.08354 10.3795 0.986305 10.4009 0.880129C10.4223 0.773953 10.4112 0.663784 10.3689 0.56404C10.3267 0.464296 10.2553 0.379623 10.1642 0.321104C10.0731 0.262585 9.96636 0.232945 9.8581 0.236063ZM5.00823 2.7748L11.4584 9.22495L8.56807 12.1153C7.66263 13.021 6.2117 13.0211 5.30587 12.1153L5.27856 12.0872C5.17769 11.9864 5.0409 11.9298 4.89827 11.9298C4.75565 11.9298 4.61886 11.9864 4.51799 12.0872L4.08798 12.5173C3.71865 12.8866 3.13646 12.8866 2.76713 12.5173L1.71522 11.4653C1.34589 11.096 1.34589 10.5145 1.71522 10.1452L2.14523 9.71519C2.24606 9.61432 2.3027 9.47753 2.3027 9.3349C2.3027 9.19228 2.24606 9.05549 2.14523 8.95462L2.11792 8.9266C1.21219 8.02117 1.21209 6.57094 2.11792 5.66511L5.00823 2.7748ZM4.66926 5.61959C4.47906 5.61959 4.29665 5.69515 4.16216 5.82964C4.02767 5.96413 3.95211 6.14654 3.95211 6.33674C3.95211 6.52694 4.02767 6.70935 4.16216 6.84384C4.29665 6.97833 4.47906 7.05389 4.66926 7.05389C4.85946 7.05389 5.04187 6.97833 5.17636 6.84384C5.31086 6.70935 5.38641 6.52694 5.38641 6.33674C5.38641 6.14654 5.31086 5.96413 5.17636 5.82964C5.04187 5.69515 4.85946 5.61959 4.66926 5.61959ZM7.89644 8.84677C7.70624 8.84677 7.52383 8.92232 7.38934 9.05681C7.25484 9.19131 7.17929 9.37372 7.17929 9.56392C7.17929 9.75412 7.25484 9.93653 7.38934 10.071C7.52383 10.2055 7.70624 10.2811 7.89644 10.2811C8.08664 10.2811 8.26905 10.2055 8.40354 10.071C8.53803 9.93653 8.61359 9.75412 8.61359 9.56392C8.61359 9.37372 8.53803 9.19131 8.40354 9.05681C8.26905 8.92232 8.08664 8.84677 7.89644 8.84677Z" fill="black"/>
</g>
<defs>
<clipPath id="clip0_580_4858">
<rect width="14" height="14" fill="white" transform="translate(0 0.23584)"/>
</clipPath>
</defs>
</svg>
