<svg width="14" height="15" viewBox="0 0 14 15" fill="none" xmlns="http://www.w3.org/2000/svg">
<g clip-path="url(#clip0_580_4858)">
<path d="M9.8581 0.173777C9.71841 0.177848 9.58579 0.236119 9.48831 0.336256L6.82071 3.00386L4.87026 1.05341C4.8207 1.00179 4.76134 0.960575 4.69565 0.932185C4.62996 0.903795 4.55927 0.888797 4.48771 0.888069C4.41615 0.887342 4.34517 0.900899 4.27892 0.927948C4.21267 0.954997 4.15248 0.994992 4.10188 1.04559C4.05128 1.09619 4.01128 1.15638 3.98423 1.22264C3.95718 1.28889 3.94363 1.35987 3.94435 1.43143C3.94508 1.50298 3.96008 1.57368 3.98847 1.63936C4.01686 1.70505 4.05807 1.76442 4.10969 1.81398L4.24766 1.95194L1.35735 4.84226C0.0413404 6.15826 0.0410808 8.30702 1.35595 9.62349L1.00437 9.27262L0.95465 9.32234C0.174388 10.1026 0.174388 11.3834 0.95465 12.1636L1.10032 12.31L0.165364 13.245C0.113745 13.2945 0.0725335 13.3539 0.0441434 13.4196C0.0157533 13.4853 0.000755346 13.556 2.78036e-05 13.6275C-0.000699739 13.6991 0.0128578 13.77 0.0399064 13.8363C0.066955 13.9025 0.106951 13.9627 0.157552 14.0133C0.208153 14.0639 0.268342 14.1039 0.334594 14.131C0.400845 14.158 0.471828 14.1716 0.543385 14.1709C0.614942 14.1701 0.685634 14.1551 0.751323 14.1267C0.817011 14.0984 0.876374 14.0571 0.925936 14.0055L1.86089 13.0706L2.00656 13.2155C2.78683 13.9958 4.06829 13.9958 4.84855 13.2155L4.89827 13.1658L4.5453 12.8135C5.86193 14.1302 8.01234 14.1303 9.32864 12.8135L12.2189 9.92323L12.3569 10.0612C12.4065 10.1128 12.4658 10.154 12.5315 10.1824C12.5972 10.2108 12.6679 10.2258 12.7395 10.2265C12.811 10.2273 12.882 10.2137 12.9483 10.1867C13.0145 10.1596 13.0747 10.1196 13.1253 10.069C13.1759 10.0184 13.2159 9.95822 13.2429 9.89197C13.27 9.82572 13.2835 9.75474 13.2828 9.68318C13.2821 9.61162 13.2671 9.54093 13.2387 9.47524C13.2103 9.40956 13.1691 9.35019 13.1175 9.30063L11.167 7.35018L13.8346 4.68258C13.8863 4.63302 13.9275 4.57365 13.9559 4.50796C13.9842 4.44228 13.9992 4.37158 14 4.30003C14.0007 4.22847 13.9871 4.15749 13.9601 4.09124C13.933 4.02498 13.893 3.9648 13.8424 3.91419C13.7918 3.86359 13.7317 3.8236 13.6654 3.79655C13.5992 3.7695 13.5282 3.75594 13.4566 3.75667C13.3851 3.7574 13.3144 3.7724 13.2487 3.80079C13.183 3.82918 13.1236 3.87039 13.0741 3.92201L10.4065 6.58961L7.58128 3.76443L10.2489 1.09683C10.3265 1.02126 10.3795 0.924019 10.4009 0.817843C10.4223 0.711667 10.4112 0.601498 10.3689 0.501753C10.3267 0.402009 10.2553 0.317337 10.1642 0.258818C10.0731 0.200298 9.96636 0.170658 9.8581 0.173777ZM5.00823 2.71252L11.4584 9.16266L8.56807 12.053C7.66263 12.9587 6.2117 12.9588 5.30587 12.053L5.27856 12.025C5.17769 11.9241 5.0409 11.8675 4.89827 11.8675C4.75565 11.8675 4.61886 11.9241 4.51799 12.025L4.08798 12.455C3.71865 12.8243 3.13646 12.8243 2.76713 12.455L1.71522 11.4031C1.34589 11.0337 1.34589 10.4522 1.71522 10.0829L2.14523 9.6529C2.24606 9.55203 2.3027 9.41524 2.3027 9.27262C2.3027 9.12999 2.24606 8.9932 2.14523 8.89233L2.11792 8.86432C1.21219 7.95889 1.21209 6.50865 2.11792 5.60283L5.00823 2.71252ZM4.66926 5.5573C4.47906 5.5573 4.29665 5.63286 4.16216 5.76735C4.02767 5.90184 3.95211 6.08425 3.95211 6.27445C3.95211 6.46465 4.02767 6.64706 4.16216 6.78156C4.29665 6.91605 4.47906 6.9916 4.66926 6.9916C4.85946 6.9916 5.04187 6.91605 5.17636 6.78156C5.31086 6.64706 5.38641 6.46465 5.38641 6.27445C5.38641 6.08425 5.31086 5.90184 5.17636 5.76735C5.04187 5.63286 4.85946 5.5573 4.66926 5.5573ZM7.89644 8.78448C7.70624 8.78448 7.52383 8.86004 7.38934 8.99453C7.25484 9.12902 7.17929 9.31143 7.17929 9.50163C7.17929 9.69183 7.25484 9.87424 7.38934 10.0087C7.52383 10.1432 7.70624 10.2188 7.89644 10.2188C8.08664 10.2188 8.26905 10.1432 8.40354 10.0087C8.53803 9.87424 8.61359 9.69183 8.61359 9.50163C8.61359 9.31143 8.53803 9.12902 8.40354 8.99453C8.26905 8.86004 8.08664 8.78448 7.89644 8.78448Z" fill="black"/>
</g>
<defs>
<clipPath id="clip0_580_4858">
<rect width="14" height="14" fill="white" transform="translate(0 0.173553)"/>
</clipPath>
</defs>
</svg>
