<svg width="14" height="16" viewBox="0 0 14 16" fill="none" xmlns="http://www.w3.org/2000/svg">
<path d="M6.99138 0.773596C6.8451 0.775882 6.70571 0.836134 6.60383 0.941118C6.50194 1.0461 6.44589 1.18723 6.44799 1.33351V7.22163H0.559873C0.486725 7.2206 0.414101 7.23411 0.346221 7.26139C0.278341 7.28866 0.21656 7.32916 0.164466 7.38052C0.112373 7.43188 0.0710078 7.49309 0.0427737 7.56057C0.0145396 7.62806 0 7.70049 0 7.77364C0 7.8468 0.0145396 7.91922 0.0427737 7.98671C0.0710078 8.0542 0.112373 8.1154 0.164466 8.16676C0.21656 8.21812 0.278341 8.25862 0.346221 8.2859C0.414101 8.31317 0.486725 8.32669 0.559873 8.32565H6.44799V14.2138C6.44696 14.2869 6.46047 14.3595 6.48775 14.4274C6.51502 14.4953 6.55552 14.5571 6.60688 14.6092C6.65824 14.6613 6.71944 14.7026 6.78693 14.7309C6.85442 14.7591 6.92685 14.7736 7 14.7736C7.07316 14.7736 7.14558 14.7591 7.21307 14.7309C7.28056 14.7026 7.34176 14.6613 7.39312 14.6092C7.44448 14.5571 7.48498 14.4953 7.51226 14.4274C7.53953 14.3595 7.55305 14.2869 7.55201 14.2138V8.32565H13.4401C13.5133 8.32669 13.5859 8.31317 13.6538 8.2859C13.7217 8.25862 13.7834 8.21812 13.8355 8.16676C13.8876 8.1154 13.929 8.0542 13.9572 7.98671C13.9855 7.91922 14 7.8468 14 7.77364C14 7.70049 13.9855 7.62806 13.9572 7.56057C13.929 7.49309 13.8876 7.43188 13.8355 7.38052C13.7834 7.32916 13.7217 7.28866 13.6538 7.26139C13.5859 7.23411 13.5133 7.2206 13.4401 7.22163H7.55201V1.33351C7.55307 1.25963 7.53929 1.18629 7.51148 1.11783C7.48367 1.04937 7.4424 0.98719 7.39012 0.934975C7.33784 0.88276 7.27561 0.841572 7.20711 0.813851C7.13862 0.78613 7.06526 0.772442 6.99138 0.773596Z" fill="black"/>
</svg>
