<svg width="14" height="16" viewBox="0 0 14 16" fill="none" xmlns="http://www.w3.org/2000/svg">
<path d="M6.99138 0.836005C6.8451 0.83829 6.70571 0.898542 6.60383 1.00353C6.50194 1.10851 6.44589 1.24964 6.44799 1.39592V7.28404H0.559873C0.486725 7.283 0.414101 7.29652 0.346221 7.3238C0.278341 7.35107 0.21656 7.39157 0.164466 7.44293C0.112373 7.49429 0.0710078 7.55549 0.0427737 7.62298C0.0145396 7.69047 0 7.76289 0 7.83605C0 7.90921 0.0145396 7.98163 0.0427737 8.04912C0.0710078 8.11661 0.112373 8.17781 0.164466 8.22917C0.21656 8.28053 0.278341 8.32103 0.346221 8.3483C0.414101 8.37558 0.486725 8.3891 0.559873 8.38806H6.44799V14.2762C6.44696 14.3493 6.46047 14.422 6.48775 14.4898C6.51502 14.5577 6.55552 14.6195 6.60688 14.6716C6.65824 14.7237 6.71944 14.765 6.78693 14.7933C6.85442 14.8215 6.92685 14.8361 7 14.8361C7.07316 14.8361 7.14558 14.8215 7.21307 14.7933C7.28056 14.765 7.34176 14.7237 7.39312 14.6716C7.44448 14.6195 7.48498 14.5577 7.51226 14.4898C7.53953 14.422 7.55305 14.3493 7.55201 14.2762V8.38806H13.4401C13.5133 8.3891 13.5859 8.37558 13.6538 8.3483C13.7217 8.32103 13.7834 8.28053 13.8355 8.22917C13.8876 8.17781 13.929 8.11661 13.9572 8.04912C13.9855 7.98163 14 7.90921 14 7.83605C14 7.76289 13.9855 7.69047 13.9572 7.62298C13.929 7.55549 13.8876 7.49429 13.8355 7.44293C13.7834 7.39157 13.7217 7.35107 13.6538 7.3238C13.5859 7.29652 13.5133 7.283 13.4401 7.28404H7.55201V1.39592C7.55307 1.32204 7.53929 1.24869 7.51148 1.18024C7.48367 1.11178 7.4424 1.0496 7.39012 0.997384C7.33784 0.945168 7.27561 0.90398 7.20711 0.876259C7.13862 0.848539 7.06526 0.83485 6.99138 0.836005Z" fill="black"/>
</svg>
