<svg width="14" height="16" viewBox="0 0 14 16" fill="none" xmlns="http://www.w3.org/2000/svg">
<path d="M2.91474 0.773597C2.77577 0.775768 2.64334 0.83301 2.54655 0.93275C2.44975 1.03249 2.3965 1.16657 2.3985 1.30554V8.23042C2.03517 8.32796 1.70613 8.48438 1.4821 8.73642C1.1529 9.10676 1 9.57998 1 10.0461C1 10.5123 1.1529 10.9855 1.4821 11.3559C1.70613 11.6079 2.03517 11.7643 2.3985 11.8619V14.2416C2.39751 14.3111 2.41035 14.3801 2.43627 14.4446C2.46218 14.5091 2.50065 14.5678 2.54945 14.6173C2.59825 14.6668 2.65639 14.7061 2.72051 14.7329C2.78462 14.7597 2.85343 14.7735 2.92293 14.7735C2.99243 14.7735 3.06124 14.7597 3.12536 14.7329C3.18947 14.7061 3.24762 14.6668 3.29641 14.6173C3.34521 14.5678 3.38368 14.5091 3.4096 14.4446C3.43551 14.3801 3.44835 14.3111 3.44737 14.2416V11.8619C3.81069 11.7643 4.13973 11.6079 4.36376 11.3559C4.69296 10.9855 4.84586 10.5123 4.84586 10.0461C4.84586 9.57998 4.69296 9.10676 4.36376 8.73642C4.13973 8.48438 3.81069 8.32796 3.44737 8.23042V1.30554C3.44837 1.23535 3.43528 1.16567 3.40886 1.10063C3.38244 1.03559 3.34323 0.976521 3.29356 0.926914C3.24389 0.877307 3.18477 0.838176 3.1197 0.811841C3.05463 0.785505 2.98493 0.7725 2.91474 0.773597ZM7.28504 0.773597C7.14607 0.775768 7.01364 0.83301 6.91684 0.93275C6.82005 1.03249 6.7668 1.16657 6.76879 1.30554V2.98606C6.40547 3.0836 6.07643 3.24002 5.8524 3.49206C5.5232 3.86241 5.3703 4.33562 5.3703 4.80178C5.3703 5.26795 5.5232 5.74116 5.8524 6.11151C6.07643 6.36355 6.40547 6.51997 6.76879 6.61751V14.2416C6.76781 14.3111 6.78065 14.3801 6.80656 14.4446C6.83248 14.5091 6.87095 14.5678 6.91975 14.6173C6.96854 14.6668 7.02669 14.7061 7.09081 14.7329C7.15492 14.7597 7.22373 14.7735 7.29323 14.7735C7.36273 14.7735 7.43154 14.7597 7.49566 14.7329C7.55977 14.7061 7.61792 14.6668 7.66671 14.6173C7.71551 14.5678 7.75398 14.5091 7.7799 14.4446C7.80581 14.3801 7.81865 14.3111 7.81767 14.2416V6.61751C8.18099 6.51997 8.51003 6.36355 8.73406 6.11151C9.06326 5.74116 9.21616 5.26795 9.21616 4.80178C9.21616 4.33562 9.06326 3.86241 8.73406 3.49206C8.51003 3.24002 8.18099 3.0836 7.81767 2.98606V1.30554C7.81867 1.23535 7.80558 1.16567 7.77916 1.10063C7.75274 1.03559 7.71353 0.976521 7.66386 0.926914C7.61419 0.877307 7.55507 0.838176 7.49 0.811841C7.42492 0.785505 7.35523 0.7725 7.28504 0.773597ZM11.6553 0.773597C11.5164 0.775768 11.3839 0.83301 11.2871 0.93275C11.1903 1.03249 11.1371 1.16657 11.1391 1.30554V8.92967C10.7758 9.0272 10.4467 9.18363 10.2227 9.43567C9.8935 9.80601 9.7406 10.2792 9.7406 10.7454C9.7406 11.2116 9.8935 11.6848 10.2227 12.0551C10.4467 12.3072 10.7758 12.4636 11.1391 12.5611V14.2416C11.1381 14.3111 11.1509 14.3801 11.1769 14.4446C11.2028 14.5091 11.2413 14.5678 11.29 14.6173C11.3388 14.6668 11.397 14.7061 11.4611 14.7329C11.5252 14.7597 11.594 14.7735 11.6635 14.7735C11.733 14.7735 11.8018 14.7597 11.866 14.7329C11.9301 14.7061 11.9882 14.6668 12.037 14.6173C12.0858 14.5678 12.1243 14.5091 12.1502 14.4446C12.1761 14.3801 12.1889 14.3111 12.188 14.2416V12.5611C12.5513 12.4636 12.8803 12.3072 13.1044 12.0551C13.4336 11.6848 13.5865 11.2116 13.5865 10.7454C13.5865 10.2792 13.4336 9.80601 13.1044 9.43567C12.8803 9.18363 12.5513 9.0272 12.188 8.92967V1.30554C12.189 1.23535 12.1759 1.16567 12.1495 1.10063C12.123 1.03559 12.0838 0.976521 12.0342 0.926914C11.9845 0.877307 11.9254 0.838176 11.8603 0.811841C11.7952 0.785505 11.7255 0.7725 11.6553 0.773597ZM7.26045 3.93387C7.28228 3.93524 7.30418 3.93524 7.32601 3.93387C7.63584 3.94213 7.81875 4.04076 7.95014 4.18858C8.08711 4.34266 8.16729 4.5687 8.16729 4.80178C8.16729 5.03487 8.08711 5.2609 7.95014 5.41499C7.81317 5.56908 7.62829 5.67584 7.29323 5.67584C6.95817 5.67584 6.77329 5.56908 6.63632 5.41499C6.49935 5.2609 6.41917 5.03487 6.41917 4.80178C6.41917 4.5687 6.49935 4.34266 6.63632 4.18858C6.76771 4.04076 6.95062 3.94213 7.26045 3.93387ZM2.89015 9.17823C2.91198 9.17959 2.93388 9.17959 2.95571 9.17823C3.26554 9.18649 3.44845 9.28512 3.57984 9.43293C3.71681 9.58702 3.79699 9.81306 3.79699 10.0461C3.79699 10.2792 3.71681 10.5053 3.57984 10.6593C3.44845 10.8072 3.26554 10.9058 2.95571 10.9141C2.93388 10.9127 2.91198 10.9127 2.89015 10.9141C2.58032 10.9058 2.39741 10.8072 2.26602 10.6593C2.12905 10.5053 2.04887 10.2792 2.04887 10.0461C2.04887 9.81306 2.12905 9.58702 2.26602 9.43293C2.39741 9.28512 2.58032 9.18649 2.89015 9.17823ZM11.6308 9.87747C11.6526 9.87884 11.6745 9.87884 11.6963 9.87747C12.0061 9.88574 12.1891 9.98437 12.3204 10.1322C12.4574 10.2863 12.5376 10.5123 12.5376 10.7454C12.5376 10.9785 12.4574 11.2045 12.3204 11.3586C12.1891 11.5064 12.0061 11.605 11.6963 11.6133C11.6745 11.6119 11.6526 11.6119 11.6308 11.6133C11.3209 11.605 11.138 11.5064 11.0066 11.3586C10.8696 11.2045 10.7895 10.9785 10.7895 10.7454C10.7895 10.5123 10.8696 10.2863 11.0066 10.1322C11.138 9.98437 11.3209 9.88574 11.6308 9.87747Z" fill="black"/>
</svg>
