<svg width="14" height="16" viewBox="0 0 14 16" fill="none" xmlns="http://www.w3.org/2000/svg">
<path d="M2.91474 0.836124C2.77577 0.838295 2.64334 0.895537 2.54655 0.995277C2.44975 1.09502 2.3965 1.2291 2.3985 1.36807V8.29295C2.03517 8.39048 1.70613 8.54691 1.4821 8.79894C1.1529 9.16929 1 9.6425 1 10.1087C1 10.5748 1.1529 11.048 1.4821 11.4184C1.70613 11.6704 2.03517 11.8269 2.3985 11.9244V14.3042C2.39751 14.3736 2.41035 14.4426 2.43627 14.5071C2.46218 14.5716 2.50065 14.6303 2.54945 14.6798C2.59825 14.7293 2.65639 14.7686 2.72051 14.7954C2.78462 14.8222 2.85343 14.8361 2.92293 14.8361C2.99243 14.8361 3.06124 14.8222 3.12536 14.7954C3.18947 14.7686 3.24762 14.7293 3.29641 14.6798C3.34521 14.6303 3.38368 14.5716 3.4096 14.5071C3.43551 14.4426 3.44835 14.3736 3.44737 14.3042V11.9244C3.81069 11.8269 4.13973 11.6704 4.36376 11.4184C4.69296 11.048 4.84586 10.5748 4.84586 10.1087C4.84586 9.6425 4.69296 9.16929 4.36376 8.79894C4.13973 8.54691 3.81069 8.39048 3.44737 8.29295V1.36807C3.44837 1.29788 3.43528 1.2282 3.40886 1.16316C3.38244 1.09812 3.34323 1.03905 3.29356 0.989441C3.24389 0.939834 3.18477 0.900703 3.1197 0.874367C3.05463 0.848031 2.98493 0.835027 2.91474 0.836124ZM7.28504 0.836124C7.14607 0.838295 7.01364 0.895537 6.91684 0.995277C6.82005 1.09502 6.7668 1.2291 6.76879 1.36807V3.04859C6.40547 3.14612 6.07643 3.30255 5.8524 3.55459C5.5232 3.92493 5.3703 4.39814 5.3703 4.86431C5.3703 5.33047 5.5232 5.80369 5.8524 6.17403C6.07643 6.42607 6.40547 6.58249 6.76879 6.68003V14.3042C6.76781 14.3736 6.78065 14.4426 6.80656 14.5071C6.83248 14.5716 6.87095 14.6303 6.91975 14.6798C6.96854 14.7293 7.02669 14.7686 7.09081 14.7954C7.15492 14.8222 7.22373 14.8361 7.29323 14.8361C7.36273 14.8361 7.43154 14.8222 7.49566 14.7954C7.55977 14.7686 7.61792 14.7293 7.66671 14.6798C7.71551 14.6303 7.75398 14.5716 7.7799 14.5071C7.80581 14.4426 7.81865 14.3736 7.81767 14.3042V6.68003C8.18099 6.58249 8.51003 6.42607 8.73406 6.17403C9.06326 5.80369 9.21616 5.33047 9.21616 4.86431C9.21616 4.39814 9.06326 3.92493 8.73406 3.55459C8.51003 3.30255 8.18099 3.14612 7.81767 3.04859V1.36807C7.81867 1.29788 7.80558 1.2282 7.77916 1.16316C7.75274 1.09812 7.71353 1.03905 7.66386 0.989441C7.61419 0.939834 7.55507 0.900703 7.49 0.874367C7.42492 0.848031 7.35523 0.835027 7.28504 0.836124ZM11.6553 0.836124C11.5164 0.838295 11.3839 0.895537 11.2871 0.995277C11.1903 1.09502 11.1371 1.2291 11.1391 1.36807V8.99219C10.7758 9.08973 10.4467 9.24615 10.2227 9.49819C9.8935 9.86854 9.7406 10.3418 9.7406 10.8079C9.7406 11.2741 9.8935 11.7473 10.2227 12.1176C10.4467 12.3697 10.7758 12.5261 11.1391 12.6236V14.3042C11.1381 14.3736 11.1509 14.4426 11.1769 14.5071C11.2028 14.5716 11.2413 14.6303 11.29 14.6798C11.3388 14.7293 11.397 14.7686 11.4611 14.7954C11.5252 14.8222 11.594 14.8361 11.6635 14.8361C11.733 14.8361 11.8018 14.8222 11.866 14.7954C11.9301 14.7686 11.9882 14.7293 12.037 14.6798C12.0858 14.6303 12.1243 14.5716 12.1502 14.5071C12.1761 14.4426 12.1889 14.3736 12.188 14.3042V12.6236C12.5513 12.5261 12.8803 12.3697 13.1044 12.1176C13.4336 11.7473 13.5865 11.2741 13.5865 10.8079C13.5865 10.3418 13.4336 9.86854 13.1044 9.49819C12.8803 9.24615 12.5513 9.08973 12.188 8.99219V1.36807C12.189 1.29788 12.1759 1.2282 12.1495 1.16316C12.123 1.09812 12.0838 1.03905 12.0342 0.989441C11.9845 0.939834 11.9254 0.900703 11.8603 0.874367C11.7952 0.848031 11.7255 0.835027 11.6553 0.836124ZM7.26045 3.9964C7.28228 3.99776 7.30418 3.99776 7.32601 3.9964C7.63584 4.00466 7.81875 4.10329 7.95014 4.2511C8.08711 4.40519 8.16729 4.63123 8.16729 4.86431C8.16729 5.09739 8.08711 5.32343 7.95014 5.47752C7.81317 5.63161 7.62829 5.73837 7.29323 5.73837C6.95817 5.73837 6.77329 5.63161 6.63632 5.47752C6.49935 5.32343 6.41917 5.09739 6.41917 4.86431C6.41917 4.63123 6.49935 4.40519 6.63632 4.2511C6.76771 4.10329 6.95062 4.00466 7.26045 3.9964ZM2.89015 9.24075C2.91198 9.24212 2.93388 9.24212 2.95571 9.24075C3.26554 9.24902 3.44845 9.34765 3.57984 9.49546C3.71681 9.64955 3.79699 9.87559 3.79699 10.1087C3.79699 10.3418 3.71681 10.5678 3.57984 10.7219C3.44845 10.8697 3.26554 10.9683 2.95571 10.9766C2.93388 10.9752 2.91198 10.9752 2.89015 10.9766C2.58032 10.9683 2.39741 10.8697 2.26602 10.7219C2.12905 10.5678 2.04887 10.3418 2.04887 10.1087C2.04887 9.87559 2.12905 9.64955 2.26602 9.49546C2.39741 9.34765 2.58032 9.24901 2.89015 9.24075ZM11.6308 9.94C11.6526 9.94137 11.6745 9.94137 11.6963 9.94C12.0061 9.94826 12.1891 10.0469 12.3204 10.1947C12.4574 10.3488 12.5376 10.5748 12.5376 10.8079C12.5376 11.041 12.4574 11.267 12.3204 11.4211C12.1891 11.5689 12.0061 11.6676 11.6963 11.6758C11.6745 11.6745 11.6526 11.6745 11.6308 11.6758C11.3209 11.6676 11.138 11.5689 11.0066 11.4211C10.8696 11.267 10.7895 11.041 10.7895 10.8079C10.7895 10.5748 10.8696 10.3488 11.0066 10.1947C11.138 10.0469 11.3209 9.94826 11.6308 9.94Z" fill="black"/>
</svg>
