<svg width="14" height="15" viewBox="0 0 14 15" fill="none" xmlns="http://www.w3.org/2000/svg">
<g clip-path="url(#clip0_1871_10171)">
<path d="M4.375 0C3.51137 0 2.8 0.748815 2.8 1.65789V2.21053H2.275C1.02482 2.21053 0 3.28929 0 4.60526V9.76316C0 10.6722 0.711375 11.4211 1.575 11.4211H2.8V12.3421C2.8 13.2512 3.51137 14 4.375 14H9.625C10.4886 14 11.2 13.2512 11.2 12.3421V11.4211H12.425C13.2886 11.4211 14 10.6722 14 9.76316V4.60526C14 3.28929 12.9752 2.21053 11.725 2.21053H11.2V1.65789C11.2 0.748815 10.4886 0 9.625 0H4.375ZM4.375 1.10526H9.625C9.92127 1.10526 10.15 1.34603 10.15 1.65789V2.21053H3.85V1.65789C3.85 1.34603 4.07873 1.10526 4.375 1.10526ZM2.275 3.31579H11.725C12.4075 3.31579 12.95 3.88682 12.95 4.60526V9.76316C12.95 10.075 12.7213 10.3158 12.425 10.3158H11.2V9.02632C11.2 8.11724 10.4886 7.36842 9.625 7.36842H4.375C3.51137 7.36842 2.8 8.11724 2.8 9.02632V10.3158H1.575C1.27873 10.3158 1.05 10.075 1.05 9.76316V4.60526C1.05 3.88682 1.59248 3.31579 2.275 3.31579ZM4.375 8.47368H9.625C9.92127 8.47368 10.15 8.71445 10.15 9.02632V12.3421C10.15 12.654 9.92127 12.8947 9.625 12.8947H4.375C4.07873 12.8947 3.85 12.654 3.85 12.3421V9.02632C3.85 8.71445 4.07873 8.47368 4.375 8.47368Z" fill="black"/>
</g>
<defs>
<clipPath id="clip0_1871_10171">
<rect width="14" height="14" fill="white" transform="translate(0 0.173553)"/>
</clipPath>
</defs>
</svg>
