<svg width="14" height="15" viewBox="0 0 14 15" fill="none" xmlns="http://www.w3.org/2000/svg">
<path d="M1.65789 0.600006C0.748815 0.600006 0 1.34882 0 2.2579V12.9421C0.000722259 12.9704 0.00360901 12.9985 0.00863487 13.0263C0.0539754 13.8962 0.777596 14.6 1.65789 14.6H12.3421C13.2512 14.6 14 13.8512 14 12.9421V4.46843C14 3.55935 13.2512 2.81053 12.3421 2.81053H3.31579V1.52106C3.31579 1.01868 2.89711 0.600006 2.39474 0.600006H1.65789ZM1.65789 1.70527H2.21053V3.2725C2.20078 3.33182 2.20078 3.39234 2.21053 3.45167V11.2842H1.65789C1.46241 11.2842 1.28007 11.3338 1.10526 11.3972V2.2579C1.10526 1.94603 1.34603 1.70527 1.65789 1.70527ZM3.31579 3.9158H12.3421C12.654 3.9158 12.8947 4.15656 12.8947 4.46843V12.9421C12.8947 13.254 12.654 13.4947 12.3421 13.4947H1.65789C1.34603 13.4947 1.10526 13.254 1.10526 12.9421C1.10526 12.6302 1.34603 12.3895 1.65789 12.3895H2.39474C2.89711 12.3895 3.31579 11.9708 3.31579 11.4684V3.9158ZM11.226 5.75286C11.2063 5.75349 11.1866 5.75517 11.167 5.7579H9.76316C9.68993 5.75687 9.61722 5.77039 9.54927 5.7977C9.48131 5.82501 9.41946 5.86555 9.36731 5.91697C9.31516 5.96839 9.27374 6.02966 9.24548 6.09722C9.21721 6.16479 9.20265 6.23729 9.20265 6.31053C9.20265 6.38377 9.21721 6.45628 9.24548 6.52384C9.27374 6.5914 9.31516 6.65267 9.36731 6.70409C9.41946 6.75551 9.48131 6.79605 9.54927 6.82336C9.61722 6.85067 9.68993 6.8642 9.76316 6.86316H9.90275L8.6579 8.10802L7.20652 6.65665C7.10287 6.55305 6.96233 6.49485 6.81579 6.49485C6.66925 6.49485 6.5287 6.55305 6.42506 6.65665L4.58296 8.49875C4.52992 8.54967 4.48758 8.61067 4.45841 8.67816C4.42924 8.74565 4.41383 8.81828 4.41308 8.89181C4.41233 8.96533 4.42626 9.03826 4.45405 9.10633C4.48185 9.1744 4.52294 9.23624 4.57493 9.28823C4.62692 9.34022 4.68876 9.38132 4.75683 9.40911C4.8249 9.4369 4.89784 9.45083 4.97136 9.45008C5.04488 9.44934 5.11751 9.43393 5.185 9.40476C5.2525 9.37559 5.31349 9.33324 5.36441 9.28021L6.81579 7.82883L8.26717 9.28021C8.37081 9.38381 8.51135 9.44201 8.6579 9.44201C8.80444 9.44201 8.94498 9.38381 9.04862 9.28021L10.6842 7.64462V7.78422C10.6832 7.85745 10.6967 7.93015 10.724 7.99811C10.7513 8.06606 10.7919 8.12792 10.8433 8.18007C10.8947 8.23222 10.956 8.27363 11.0235 8.3019C11.0911 8.33016 11.1636 8.34472 11.2368 8.34472C11.3101 8.34472 11.3826 8.33016 11.4502 8.3019C11.5177 8.27363 11.579 8.23222 11.6304 8.18007C11.6818 8.12792 11.7224 8.06606 11.7497 7.99811C11.777 7.93015 11.7905 7.85745 11.7895 7.78422V6.37457C11.7995 6.2955 11.7922 6.21521 11.7683 6.1392C11.7443 6.06319 11.7042 5.99326 11.6507 5.9342C11.5972 5.87515 11.5315 5.82837 11.4582 5.79707C11.3849 5.76577 11.3057 5.75069 11.226 5.75286ZM4.97368 10.5474C4.90045 10.5463 4.82775 10.5599 4.75979 10.5872C4.69184 10.6145 4.62998 10.655 4.57783 10.7064C4.52568 10.7579 4.48427 10.8191 4.456 10.8867C4.42774 10.9543 4.41318 11.0268 4.41318 11.1C4.41318 11.1732 4.42774 11.2458 4.456 11.3133C4.48427 11.3809 4.52568 11.4421 4.57783 11.4936C4.62998 11.545 4.69184 11.5855 4.75979 11.6128C4.82775 11.6401 4.90045 11.6537 4.97368 11.6526H11.2368C11.3101 11.6537 11.3828 11.6401 11.4507 11.6128C11.5187 11.5855 11.5805 11.545 11.6327 11.4936C11.6848 11.4421 11.7263 11.3809 11.7545 11.3133C11.7828 11.2458 11.7973 11.1732 11.7973 11.1C11.7973 11.0268 11.7828 10.9543 11.7545 10.8867C11.7263 10.8191 11.6848 10.7579 11.6327 10.7064C11.5805 10.655 11.5187 10.6145 11.4507 10.5872C11.3828 10.5599 11.3101 10.5463 11.2368 10.5474H4.97368Z" fill="black"/>
</svg>
