<svg width="14" height="15" viewBox="0 0 14 15" fill="none" xmlns="http://www.w3.org/2000/svg">
<path d="M1.65789 -0.313215C0.748815 -0.313215 0 0.4356 0 1.34468V12.0289C0.000722259 12.0571 0.00360901 12.0853 0.00863487 12.1131C0.0539754 12.983 0.777596 13.6868 1.65789 13.6868H12.3421C13.2512 13.6868 14 12.938 14 12.0289V3.55521C14 2.64613 13.2512 1.89731 12.3421 1.89731H3.31579V0.607837C3.31579 0.105461 2.89711 -0.313215 2.39474 -0.313215H1.65789ZM1.65789 0.792048H2.21053V2.35928C2.20078 2.4186 2.20078 2.47912 2.21053 2.53845V10.371H1.65789C1.46241 10.371 1.28007 10.4206 1.10526 10.484V1.34468C1.10526 1.03281 1.34603 0.792048 1.65789 0.792048ZM3.31579 3.00257H12.3421C12.654 3.00257 12.8947 3.24334 12.8947 3.55521V12.0289C12.8947 12.3408 12.654 12.5815 12.3421 12.5815H1.65789C1.34603 12.5815 1.10526 12.3408 1.10526 12.0289C1.10526 11.717 1.34603 11.4763 1.65789 11.4763H2.39474C2.89711 11.4763 3.31579 11.0576 3.31579 10.5552V3.00257ZM11.226 4.83964C11.2063 4.84027 11.1866 4.84195 11.167 4.84468H9.76316C9.68993 4.84364 9.61722 4.85717 9.54927 4.88448C9.48131 4.91179 9.41946 4.95233 9.36731 5.00375C9.31516 5.05517 9.27374 5.11644 9.24548 5.184C9.21721 5.25157 9.20265 5.32407 9.20265 5.39731C9.20265 5.47055 9.21721 5.54306 9.24548 5.61062C9.27374 5.67818 9.31516 5.73945 9.36731 5.79087C9.41946 5.84229 9.48131 5.88283 9.54927 5.91014C9.61722 5.93745 9.68993 5.95098 9.76316 5.94994H9.90275L8.6579 7.1948L7.20652 5.74343C7.10287 5.63983 6.96233 5.58163 6.81579 5.58163C6.66925 5.58163 6.5287 5.63983 6.42506 5.74343L4.58296 7.58553C4.52992 7.63645 4.48758 7.69745 4.45841 7.76494C4.42924 7.83243 4.41383 7.90506 4.41308 7.97859C4.41233 8.05211 4.42626 8.12504 4.45405 8.19311C4.48185 8.26118 4.52294 8.32302 4.57493 8.37501C4.62692 8.427 4.68876 8.4681 4.75683 8.49589C4.8249 8.52368 4.89784 8.53761 4.97136 8.53686C5.04488 8.53611 5.11751 8.52071 5.185 8.49154C5.2525 8.46237 5.31349 8.42002 5.36441 8.36699L6.81579 6.91561L8.26717 8.36699C8.37081 8.47059 8.51135 8.52878 8.6579 8.52878C8.80444 8.52878 8.94498 8.47059 9.04862 8.36699L10.6842 6.7314V6.871C10.6832 6.94423 10.6967 7.01693 10.724 7.08489C10.7513 7.15284 10.7919 7.21469 10.8433 7.26685C10.8947 7.319 10.956 7.36041 11.0235 7.38868C11.0911 7.41694 11.1636 7.4315 11.2368 7.4315C11.3101 7.4315 11.3826 7.41694 11.4502 7.38868C11.5177 7.36041 11.579 7.319 11.6304 7.26685C11.6818 7.21469 11.7224 7.15284 11.7497 7.08489C11.777 7.01693 11.7905 6.94423 11.7895 6.871V5.46135C11.7995 5.38228 11.7922 5.30199 11.7683 5.22598C11.7443 5.14997 11.7042 5.08004 11.6507 5.02098C11.5972 4.96193 11.5315 4.91515 11.4582 4.88385C11.3849 4.85255 11.3057 4.83747 11.226 4.83964ZM4.97368 9.63415C4.90045 9.63312 4.82775 9.64665 4.75979 9.67395C4.69184 9.70126 4.62998 9.7418 4.57783 9.79322C4.52568 9.84464 4.48427 9.90591 4.456 9.97348C4.42774 10.041 4.41318 10.1135 4.41318 10.1868C4.41318 10.26 4.42774 10.3325 4.456 10.4001C4.48427 10.4677 4.52568 10.5289 4.57783 10.5803C4.62998 10.6318 4.69184 10.6723 4.75979 10.6996C4.82775 10.7269 4.90045 10.7405 4.97368 10.7394H11.2368C11.3101 10.7405 11.3828 10.7269 11.4507 10.6996C11.5187 10.6723 11.5805 10.6318 11.6327 10.5803C11.6848 10.5289 11.7263 10.4677 11.7545 10.4001C11.7828 10.3325 11.7973 10.26 11.7973 10.1868C11.7973 10.1135 11.7828 10.041 11.7545 9.97348C11.7263 9.90591 11.6848 9.84464 11.6327 9.79322C11.5805 9.7418 11.5187 9.70126 11.4507 9.67395C11.3828 9.64665 11.3101 9.63312 11.2368 9.63415H4.97368Z" fill="black"/>
</svg>
