<svg width="14" height="14" viewBox="0 0 14 14" fill="none" xmlns="http://www.w3.org/2000/svg">
<g clip-path="url(#clip0_1331_9908)">
<path d="M7.8457 0.875154C7.72814 0.872233 7.61332 0.910837 7.5214 0.984182C7.42948 1.05753 7.36635 1.16092 7.3431 1.2762L6.0638 7.67333L5.3112 5.22737C5.2811 5.12951 5.22168 5.04325 5.14098 4.98024C5.06028 4.91723 4.96219 4.88051 4.85995 4.87504C4.75771 4.86958 4.65626 4.89562 4.5693 4.94967C4.48234 5.00371 4.41406 5.08315 4.3737 5.17724L3.50391 7.20784H1.5H1.49935C1.42179 7.10443 1.32124 7.02048 1.20565 6.96263C1.09006 6.90477 0.962594 6.8746 0.833333 6.8745C0.61232 6.8745 0.400358 6.9623 0.244078 7.11858C0.0877974 7.27486 0 7.48682 0 7.70784C0 7.92885 0.0877974 8.14081 0.244078 8.29709C0.400358 8.45337 0.61232 8.54117 0.833333 8.54117C0.962594 8.54107 1.09006 8.5109 1.20565 8.45305C1.32124 8.3952 1.42179 8.31125 1.49935 8.20784H1.5H3.83333C3.93116 8.20787 4.02685 8.1792 4.10855 8.12539C4.19025 8.07158 4.25437 7.99499 4.29297 7.9051L4.75651 6.82437L5.6888 9.85497C5.72157 9.96124 5.78882 10.0535 5.87992 10.1173C5.97102 10.1811 6.08078 10.2126 6.19184 10.207C6.3029 10.2014 6.40892 10.159 6.49315 10.0864C6.57737 10.0138 6.63499 9.91516 6.6569 9.80614L7.75781 4.30028L9.00521 12.7808C9.02212 12.8953 9.07822 13.0003 9.16395 13.0781C9.24968 13.1559 9.35973 13.2015 9.47534 13.2071C9.59094 13.2128 9.70493 13.1782 9.79788 13.1093C9.89082 13.0403 9.95697 12.9412 9.98503 12.8289L11.224 7.8745H12.5007C12.5782 7.97791 12.6788 8.06186 12.7943 8.11971C12.9099 8.17757 13.0374 8.20774 13.1667 8.20784C13.3877 8.20784 13.5996 8.12004 13.7559 7.96376C13.9122 7.80748 14 7.59552 14 7.3745C14 7.15349 13.9122 6.94153 13.7559 6.78525C13.5996 6.62897 13.3877 6.54117 13.1667 6.54117C13.0374 6.54127 12.9099 6.57144 12.7943 6.62929C12.6788 6.68715 12.5782 6.77109 12.5007 6.8745H10.8333C10.7218 6.87453 10.6135 6.91184 10.5256 6.98049C10.4377 7.04915 10.3753 7.14521 10.3483 7.25341L9.6276 10.1369L8.32812 1.30159C8.31082 1.18507 8.25294 1.07841 8.16468 1.00039C8.07642 0.922381 7.96346 0.878029 7.8457 0.875154Z" fill="black"/>
</g>
<defs>
<clipPath id="clip0_1331_9908">
<rect width="14" height="14" fill="white"/>
</clipPath>
</defs>
</svg>
