<svg width="14" height="15" viewBox="0 0 14 15" fill="none" xmlns="http://www.w3.org/2000/svg">
<g clip-path="url(#clip0_168_8439)">
<path d="M1.75 0.173553C0.790416 0.173553 0 0.96397 0 1.92355V4.64578C0 5.60536 0.790416 6.39578 1.75 6.39578H4.47222C5.43181 6.39578 6.22222 5.60536 6.22222 4.64578V1.92355C6.22222 0.96397 5.43181 0.173553 4.47222 0.173553H1.75ZM9.52778 0.173553C8.56819 0.173553 7.77778 0.96397 7.77778 1.92355V4.64578C7.77778 5.60536 8.56819 6.39578 9.52778 6.39578H12.25C13.2096 6.39578 14 5.60536 14 4.64578V1.92355C14 0.96397 13.2096 0.173553 12.25 0.173553H9.52778ZM1.75 1.34022H4.47222C4.80142 1.34022 5.05556 1.59436 5.05556 1.92355V4.64578C5.05556 4.97497 4.80142 5.22911 4.47222 5.22911H1.75C1.42081 5.22911 1.16667 4.97497 1.16667 4.64578V1.92355C1.16667 1.59436 1.42081 1.34022 1.75 1.34022ZM9.52778 1.34022H12.25C12.5792 1.34022 12.8333 1.59436 12.8333 1.92355V4.64578C12.8333 4.97497 12.5792 5.22911 12.25 5.22911H9.52778C9.19858 5.22911 8.94444 4.97497 8.94444 4.64578V1.92355C8.94444 1.59436 9.19858 1.34022 9.52778 1.34022ZM2.33333 2.50689V4.06244H3.88889V2.50689H2.33333ZM10.1111 2.50689V4.06244H11.6667V2.50689H10.1111ZM1.75 7.95133C0.790416 7.95133 0 8.74175 0 9.70133V12.4236C0 13.3831 0.790416 14.1736 1.75 14.1736H4.47222C5.43181 14.1736 6.22222 13.3831 6.22222 12.4236V9.70133C6.22222 8.74175 5.43181 7.95133 4.47222 7.95133H1.75ZM7.77778 7.95133V10.0902H9.91667V7.95133H7.77778ZM9.91667 10.0902V12.0347H11.8611V10.0902H9.91667ZM11.8611 10.0902H14V7.95133H11.8611V10.0902ZM11.8611 12.0347V14.1736H14V12.0347H11.8611ZM9.91667 12.0347H7.77778V14.1736H9.91667V12.0347ZM1.75 9.118H4.47222C4.80142 9.118 5.05556 9.37214 5.05556 9.70133V12.4236C5.05556 12.7527 4.80142 13.0069 4.47222 13.0069H1.75C1.42081 13.0069 1.16667 12.7527 1.16667 12.4236V9.70133C1.16667 9.37214 1.42081 9.118 1.75 9.118ZM2.33333 10.2847V11.8402H3.88889V10.2847H2.33333Z" fill="black"/>
</g>
<defs>
<clipPath id="clip0_168_8439">
<rect width="14" height="14" fill="white" transform="translate(0 0.173553)"/>
</clipPath>
</defs>
</svg>
