<svg width="14" height="16" viewBox="0 0 14 16" fill="none" xmlns="http://www.w3.org/2000/svg">
<path d="M10.6596 0.836182C10.5552 0.836207 10.4532 0.867375 10.3666 0.925698C10.28 0.984022 10.2128 1.06685 10.1736 1.16358C10.1344 1.26031 10.1249 1.36655 10.1464 1.4687C10.1679 1.57085 10.2193 1.66427 10.2942 1.737L11.4969 2.93969H1.9232C0.863694 2.93969 0 3.80338 0 4.86289V10.5068L1.04902 9.45782V4.86289C1.04902 4.38034 1.44066 3.98871 1.9232 3.98871H11.4969L10.2942 5.19139C10.2439 5.23973 10.2037 5.29761 10.176 5.36167C10.1483 5.42573 10.1337 5.49467 10.133 5.56445C10.1323 5.63423 10.1455 5.70345 10.1719 5.76806C10.1982 5.83266 10.2372 5.89136 10.2866 5.9407C10.3359 5.99005 10.3946 6.02905 10.4592 6.05543C10.5238 6.0818 10.5931 6.09503 10.6628 6.09432C10.7326 6.09361 10.8016 6.07898 10.8656 6.0513C10.9297 6.02361 10.9876 5.98342 11.0359 5.93308L13.1339 3.83504C13.2323 3.73667 13.2875 3.60328 13.2875 3.4642C13.2875 3.32511 13.2323 3.19172 13.1339 3.09335L11.0359 0.99531C10.987 0.944962 10.9285 0.904936 10.8639 0.877603C10.7992 0.85027 10.7298 0.836184 10.6596 0.836182ZM13.2876 5.16339L12.2386 6.21241V10.8073C12.2386 11.2899 11.8469 11.6815 11.3644 11.6815H1.79071L2.9934 10.4788C3.06907 10.4051 3.12073 10.3103 3.14161 10.2068C3.1625 10.1032 3.15164 9.99581 3.11046 9.89854C3.06928 9.80127 2.9997 9.7187 2.91081 9.66163C2.82193 9.60457 2.71789 9.57566 2.61231 9.5787C2.47609 9.58267 2.34676 9.6395 2.25171 9.73715L0.153665 11.8352C0.0553374 11.9336 0.000100876 12.067 0.000100876 12.206C0.000100876 12.3451 0.0553374 12.4785 0.153665 12.5769L2.25171 14.6749C2.30004 14.7253 2.35793 14.7655 2.42198 14.7931C2.48604 14.8208 2.55498 14.8354 2.62476 14.8362C2.69454 14.8369 2.76376 14.8236 2.82837 14.7973C2.89298 14.7709 2.95167 14.7319 3.00101 14.6825C3.05036 14.6332 3.08936 14.5745 3.11574 14.5099C3.14212 14.4453 3.15534 14.3761 3.15463 14.3063C3.15392 14.2365 3.13929 14.1676 3.11161 14.1035C3.08392 14.0395 3.04374 13.9816 2.9934 13.9332L1.79071 12.7305H11.3644C12.4239 12.7305 13.2876 11.8669 13.2876 10.8073V5.16339Z" fill="black"/>
</svg>
