<svg width="14" height="16" viewBox="0 0 14 16" fill="none" xmlns="http://www.w3.org/2000/svg">
<path d="M10.6596 0.773655C10.5552 0.77368 10.4532 0.804849 10.3666 0.863172C10.28 0.921495 10.2128 1.00432 10.1736 1.10105C10.1344 1.19778 10.1249 1.30402 10.1464 1.40617C10.1679 1.50832 10.2193 1.60174 10.2942 1.67447L11.4969 2.87716H1.9232C0.863694 2.87716 0 3.74085 0 4.80036V10.4443L1.04902 9.39529V4.80036C1.04902 4.31782 1.44066 3.92618 1.9232 3.92618H11.4969L10.2942 5.12887C10.2439 5.1772 10.2037 5.23509 10.176 5.29915C10.1483 5.3632 10.1337 5.43214 10.133 5.50192C10.1323 5.5717 10.1455 5.64092 10.1719 5.70553C10.1982 5.77014 10.2372 5.82883 10.2866 5.87818C10.3359 5.92752 10.3946 5.96652 10.4592 5.9929C10.5238 6.01928 10.5931 6.0325 10.6628 6.03179C10.7326 6.03108 10.8016 6.01645 10.8656 5.98877C10.9297 5.96108 10.9876 5.9209 11.0359 5.87056L13.1339 3.77252C13.2323 3.67415 13.2875 3.54076 13.2875 3.40167C13.2875 3.26259 13.2323 3.12919 13.1339 3.03083L11.0359 0.932784C10.987 0.882436 10.9285 0.84241 10.8639 0.815076C10.7992 0.787743 10.7298 0.773658 10.6596 0.773655V0.773655ZM13.2876 5.10087L12.2386 6.14989V10.7448C12.2386 11.2274 11.8469 11.619 11.3644 11.619H1.79071L2.9934 10.4163C3.06907 10.3426 3.12073 10.2478 3.14161 10.1443C3.1625 10.0407 3.15164 9.93328 3.11046 9.83601C3.06928 9.73874 2.9997 9.65617 2.91081 9.59911C2.82193 9.54204 2.71789 9.51314 2.61231 9.51618C2.47609 9.52015 2.34676 9.57697 2.25171 9.67462L0.153665 11.7727C0.0553374 11.871 0.000100876 12.0044 0.000100876 12.1435C0.000100876 12.2826 0.0553374 12.416 0.153665 12.5144L2.25171 14.6124C2.30004 14.6627 2.35793 14.7029 2.42198 14.7306C2.48604 14.7583 2.55498 14.7729 2.62476 14.7736C2.69454 14.7743 2.76376 14.7611 2.82837 14.7347C2.89298 14.7084 2.95167 14.6694 3.00101 14.62C3.05036 14.5707 3.08936 14.512 3.11574 14.4474C3.14212 14.3828 3.15534 14.3135 3.15463 14.2438C3.15392 14.174 3.13929 14.105 3.11161 14.041C3.08392 13.9769 3.04374 13.919 2.9934 13.8707L1.79071 12.668H11.3644C12.4239 12.668 13.2876 11.8043 13.2876 10.7448V5.10087Z" fill="black"/>
</svg>
