<svg width="14" height="16" viewBox="0 0 14 16" fill="none" xmlns="http://www.w3.org/2000/svg">
<path d="M1.28883 0.773529C0.583674 0.773529 0 1.3572 0 2.06236V8.32241C0 9.02757 0.583674 9.61125 1.28883 9.61125H12.7042C13.4094 9.61125 13.9931 9.02757 13.9931 8.32241V2.06236C13.9931 1.3572 13.4094 0.773529 12.7042 0.773529H1.28883ZM2.20943 1.87824H11.7836C11.7836 2.48952 12.2771 2.98296 12.8883 2.98296V7.40182C12.2771 7.40182 11.7836 7.89526 11.7836 8.50653H2.20943C2.20943 7.89526 1.71599 7.40182 1.10471 7.40182V2.98296C1.71599 2.98296 2.20943 2.48952 2.20943 1.87824ZM6.99653 2.61472C6.27539 2.61472 5.66912 2.97711 5.30709 3.4749C4.94506 3.9727 4.7871 4.58563 4.7871 5.19239C4.7871 5.79914 4.94506 6.41208 5.30709 6.90987C5.66912 7.40767 6.27539 7.77006 6.99653 7.77006C7.71766 7.77006 8.32393 7.40767 8.68596 6.90987C9.048 6.41208 9.20596 5.79914 9.20596 5.19239C9.20596 4.58563 9.048 3.9727 8.68596 3.4749C8.32393 2.97711 7.71766 2.61472 6.99653 2.61472ZM6.99653 3.71943C7.38011 3.71943 7.60237 3.86338 7.7927 4.12507C7.98302 4.38677 8.10124 4.78649 8.10124 5.19239C8.10124 5.59829 7.98302 5.99801 7.7927 6.2597C7.60237 6.5214 7.38011 6.66534 6.99653 6.66534C6.61295 6.66534 6.39068 6.5214 6.20036 6.2597C6.01003 5.99801 5.89181 5.59829 5.89181 5.19239C5.89181 4.78649 6.01003 4.38677 6.20036 4.12507C6.39068 3.86338 6.61295 3.71943 6.99653 3.71943ZM2.57767 4.45591C2.38234 4.45591 2.19502 4.5335 2.0569 4.67162C1.91878 4.80974 1.84119 4.99706 1.84119 5.19239C1.84119 5.38771 1.91878 5.57504 2.0569 5.71316C2.19502 5.85127 2.38234 5.92886 2.57767 5.92886C2.77299 5.92886 2.96032 5.85127 3.09844 5.71316C3.23655 5.57504 3.31414 5.38771 3.31414 5.19239C3.31414 4.99706 3.23655 4.80974 3.09844 4.67162C2.96032 4.5335 2.77299 4.45591 2.57767 4.45591ZM11.4154 4.45591C11.2201 4.45591 11.0327 4.5335 10.8946 4.67162C10.7565 4.80974 10.6789 4.99706 10.6789 5.19239C10.6789 5.38771 10.7565 5.57504 10.8946 5.71316C11.0327 5.85127 11.2201 5.92886 11.4154 5.92886C11.6107 5.92886 11.798 5.85127 11.9362 5.71316C12.0743 5.57504 12.1519 5.38771 12.1519 5.19239C12.1519 4.99706 12.0743 4.80974 11.9362 4.67162C11.798 4.5335 11.6107 4.45591 11.4154 4.45591ZM6.9879 10.3398C6.84153 10.3421 6.70205 10.4024 6.6001 10.5074C6.49815 10.6125 6.44207 10.7537 6.44417 10.9001V12.8808L5.91411 12.3507C5.86321 12.2977 5.80225 12.2554 5.73479 12.2263C5.66733 12.1971 5.59473 12.1817 5.52125 12.1809C5.44776 12.1802 5.37487 12.1941 5.30683 12.2219C5.23879 12.2497 5.17698 12.2908 5.12502 12.3427C5.07305 12.3947 5.03198 12.4565 5.0042 12.5245C4.97642 12.5926 4.9625 12.6655 4.96325 12.7389C4.964 12.8124 4.9794 12.885 5.00855 12.9525C5.03771 13.0199 5.08003 13.0809 5.13304 13.1318L6.55852 14.5573C6.61029 14.6248 6.67694 14.6794 6.75329 14.7169C6.82964 14.7544 6.91362 14.7738 6.99868 14.7735C7.08374 14.7732 7.16759 14.7533 7.24369 14.7153C7.31979 14.6773 7.38608 14.6222 7.43741 14.5544L8.86001 13.1318C8.91302 13.0809 8.95535 13.0199 8.9845 12.9525C9.01366 12.885 9.02906 12.8124 9.02981 12.7389C9.03055 12.6655 9.01663 12.5926 8.98885 12.5245C8.96107 12.4565 8.92 12.3947 8.86804 12.3427C8.81607 12.2908 8.75426 12.2497 8.68622 12.2219C8.61819 12.1941 8.54529 12.1802 8.47181 12.1809C8.39832 12.1817 8.32572 12.1971 8.25826 12.2263C8.19081 12.2554 8.12984 12.2977 8.07895 12.3507L7.54888 12.8808V10.9001C7.54994 10.8262 7.53615 10.7528 7.50833 10.6843C7.4805 10.6158 7.43921 10.5535 7.38689 10.5013C7.33458 10.449 7.27231 10.4078 7.20377 10.3801C7.13523 10.3524 7.06182 10.3387 6.9879 10.3398V10.3398Z" fill="black"/>
</svg>
