<svg width="14" height="16" viewBox="0 0 14 16" fill="none" xmlns="http://www.w3.org/2000/svg">
<path d="M1.28883 0.835938C0.583674 0.835938 0 1.41961 0 2.12477V8.38482C0 9.08998 0.583674 9.67366 1.28883 9.67366H12.7042C13.4094 9.67366 13.9931 9.08998 13.9931 8.38482V2.12477C13.9931 1.41961 13.4094 0.835938 12.7042 0.835938H1.28883ZM2.20943 1.94065H11.7836C11.7836 2.55193 12.2771 3.04537 12.8883 3.04537V7.46423C12.2771 7.46423 11.7836 7.95766 11.7836 8.56894H2.20943C2.20943 7.95766 1.71599 7.46423 1.10471 7.46423V3.04537C1.71599 3.04537 2.20943 2.55193 2.20943 1.94065ZM6.99653 2.67713C6.27539 2.67713 5.66912 3.03951 5.30709 3.53731C4.94506 4.03511 4.7871 4.64804 4.7871 5.2548C4.7871 5.86155 4.94506 6.47449 5.30709 6.97228C5.66912 7.47008 6.27539 7.83246 6.99653 7.83246C7.71766 7.83246 8.32393 7.47008 8.68596 6.97228C9.048 6.47449 9.20596 5.86155 9.20596 5.2548C9.20596 4.64804 9.048 4.03511 8.68596 3.53731C8.32393 3.03951 7.71766 2.67713 6.99653 2.67713ZM6.99653 3.78184C7.38011 3.78184 7.60237 3.92579 7.7927 4.18748C7.98302 4.44918 8.10124 4.8489 8.10124 5.2548C8.10124 5.6607 7.98302 6.06042 7.7927 6.32211C7.60237 6.58381 7.38011 6.72775 6.99653 6.72775C6.61295 6.72775 6.39068 6.58381 6.20036 6.32211C6.01003 6.06042 5.89181 5.6607 5.89181 5.2548C5.89181 4.8489 6.01003 4.44918 6.20036 4.18748C6.39068 3.92579 6.61295 3.78184 6.99653 3.78184ZM2.57767 4.51832C2.38234 4.51832 2.19502 4.59591 2.0569 4.73403C1.91878 4.87215 1.84119 5.05947 1.84119 5.2548C1.84119 5.45012 1.91878 5.63745 2.0569 5.77556C2.19502 5.91368 2.38234 5.99127 2.57767 5.99127C2.77299 5.99127 2.96032 5.91368 3.09844 5.77556C3.23655 5.63745 3.31414 5.45012 3.31414 5.2548C3.31414 5.05947 3.23655 4.87215 3.09844 4.73403C2.96032 4.59591 2.77299 4.51832 2.57767 4.51832ZM11.4154 4.51832C11.2201 4.51832 11.0327 4.59591 10.8946 4.73403C10.7565 4.87215 10.6789 5.05947 10.6789 5.2548C10.6789 5.45012 10.7565 5.63745 10.8946 5.77556C11.0327 5.91368 11.2201 5.99127 11.4154 5.99127C11.6107 5.99127 11.798 5.91368 11.9362 5.77556C12.0743 5.63745 12.1519 5.45012 12.1519 5.2548C12.1519 5.05947 12.0743 4.87215 11.9362 4.73403C11.798 4.59591 11.6107 4.51832 11.4154 4.51832ZM6.9879 10.4022C6.84153 10.4045 6.70205 10.4648 6.6001 10.5698C6.49815 10.6749 6.44207 10.8161 6.44417 10.9625V12.9432L5.91411 12.4131C5.86321 12.3601 5.80225 12.3178 5.73479 12.2887C5.66733 12.2595 5.59473 12.2441 5.52125 12.2434C5.44776 12.2426 5.37487 12.2565 5.30683 12.2843C5.23879 12.3121 5.17698 12.3532 5.12502 12.4051C5.07305 12.4571 5.03198 12.5189 5.0042 12.5869C4.97642 12.655 4.9625 12.7279 4.96325 12.8014C4.96399 12.8748 4.9794 12.9474 5.00855 13.0149C5.03771 13.0824 5.08003 13.1433 5.13304 13.1942L6.55852 14.6197C6.61029 14.6872 6.67694 14.7418 6.75329 14.7793C6.82964 14.8168 6.91362 14.8362 6.99868 14.8359C7.08374 14.8357 7.16759 14.8157 7.24369 14.7777C7.31979 14.7397 7.38608 14.6847 7.43741 14.6168L8.86001 13.1942C8.91302 13.1433 8.95535 13.0824 8.9845 13.0149C9.01366 12.9474 9.02906 12.8748 9.02981 12.8014C9.03055 12.7279 9.01663 12.655 8.98885 12.5869C8.96107 12.5189 8.92 12.4571 8.86804 12.4051C8.81607 12.3532 8.75426 12.3121 8.68622 12.2843C8.61819 12.2565 8.54529 12.2426 8.4718 12.2434C8.39832 12.2441 8.32572 12.2595 8.25826 12.2887C8.19081 12.3178 8.12984 12.3601 8.07895 12.4131L7.54888 12.9432V10.9625C7.54994 10.8886 7.53615 10.8152 7.50833 10.7467C7.4805 10.6782 7.43921 10.6159 7.38689 10.5637C7.33458 10.5115 7.27231 10.4702 7.20377 10.4425C7.13523 10.4148 7.06182 10.4011 6.9879 10.4022Z" fill="black"/>
</svg>
