<svg width="14" height="15" viewBox="0 0 14 15" fill="none" xmlns="http://www.w3.org/2000/svg">
<path d="M7 1.83594C5.07053 1.83594 3.36146 2.79692 2.32635 4.26279C2.29022 4.31394 2.26452 4.37172 2.25073 4.43281C2.23693 4.4939 2.2353 4.55711 2.24594 4.61883C2.25657 4.68055 2.27926 4.73957 2.3127 4.79252C2.34615 4.84547 2.38969 4.89132 2.44086 4.92744C2.49202 4.96356 2.5498 4.98925 2.61089 5.00304C2.67198 5.01683 2.73519 5.01845 2.79691 5.00781C2.85863 4.99716 2.91765 4.97447 2.9706 4.94102C3.02354 4.90757 3.06938 4.86401 3.1055 4.81285C3.96933 3.58955 5.38651 2.78954 7 2.78954C9.56886 2.78954 11.6483 4.80826 11.7575 7.34958L10.9926 6.58471C10.9482 6.53894 10.895 6.50256 10.8362 6.47771C10.7775 6.45286 10.7143 6.44006 10.6505 6.44006C10.5556 6.44008 10.4629 6.46841 10.3842 6.52143C10.3055 6.57445 10.2444 6.64974 10.2087 6.73767C10.1731 6.82561 10.1645 6.92218 10.184 7.01504C10.2035 7.1079 10.2503 7.19282 10.3184 7.25894L11.7488 8.68935C11.8382 8.77873 11.9595 8.82894 12.0859 8.82894C12.2123 8.82894 12.3336 8.77873 12.423 8.68935L12.5335 8.57884C12.5682 8.55255 12.5991 8.52163 12.6254 8.48695L13.8534 7.25894C13.8992 7.215 13.9357 7.16238 13.9609 7.10415C13.986 7.04592 13.9993 6.98325 14 6.91982C14.0006 6.85639 13.9886 6.79346 13.9646 6.73473C13.9406 6.676 13.9052 6.62264 13.8603 6.57779C13.8155 6.53293 13.7621 6.49748 13.7034 6.4735C13.6447 6.44952 13.5817 6.4375 13.5183 6.43815C13.4549 6.43879 13.3922 6.45209 13.334 6.47725C13.2757 6.50242 13.2231 6.53895 13.1792 6.58471L12.6968 7.0671C12.4467 4.14177 9.98888 1.83594 7 1.83594ZM1.90728 6.28609C1.78321 6.2879 1.66472 6.33801 1.577 6.42578L1.46835 6.53442C1.43263 6.5613 1.40086 6.59307 1.37398 6.62879L0.146592 7.85618C0.100832 7.90012 0.0642992 7.95274 0.039132 8.01097C0.0139649 8.06921 0.000669596 8.13187 2.46473e-05 8.19531C-0.000620302 8.25874 0.0113981 8.32166 0.035376 8.38039C0.059354 8.43913 0.0948095 8.49248 0.139666 8.53734C0.184523 8.58219 0.237879 8.61765 0.296609 8.64163C0.35534 8.66561 0.418264 8.67762 0.481698 8.67698C0.545131 8.67633 0.607798 8.66304 0.666029 8.63787C0.72426 8.6127 0.776884 8.57617 0.820819 8.53041L1.30321 8.04802C1.55331 10.9734 4.01112 13.2792 7 13.2792C8.92947 13.2792 10.6385 12.3182 11.6737 10.8523C11.7098 10.8012 11.7355 10.7434 11.7493 10.6823C11.7631 10.6212 11.7647 10.558 11.7541 10.4963C11.7434 10.4346 11.7207 10.3756 11.6873 10.3226C11.6539 10.2697 11.6103 10.2238 11.5591 10.1877C11.508 10.1516 11.4502 10.1259 11.3891 10.1121C11.328 10.0983 11.2648 10.0967 11.2031 10.1073C11.1414 10.118 11.0824 10.1407 11.0294 10.1741C10.9765 10.2076 10.9306 10.2511 10.8945 10.3023C10.0307 11.5256 8.61349 12.3256 7 12.3256C4.43114 12.3256 2.35168 10.3069 2.24253 7.76554L3.0074 8.53041C3.05134 8.57617 3.10396 8.6127 3.16219 8.63787C3.22042 8.66304 3.28309 8.67633 3.34653 8.67698C3.40996 8.67762 3.47288 8.66561 3.53161 8.64163C3.59034 8.61765 3.6437 8.58219 3.68856 8.53734C3.73341 8.49248 3.76887 8.43913 3.79285 8.38039C3.81682 8.32166 3.82884 8.25874 3.8282 8.19531C3.82755 8.13187 3.81426 8.06921 3.78909 8.01097C3.76392 7.95274 3.72739 7.90012 3.68163 7.85618L2.25123 6.42578C2.20615 6.38068 2.15248 6.34508 2.09341 6.32109C2.03433 6.2971 1.97104 6.2852 1.90728 6.28609Z" fill="black"/>
</svg>
