<svg width="14" height="15" viewBox="0 0 14 15" fill="none" xmlns="http://www.w3.org/2000/svg">
<g clip-path="url(#clip0_1505_9937)">
<path d="M5.25332 0.175617C4.58869 0.210425 4.0757 0.675465 3.88414 1.26536C3.72748 1.22383 3.56359 1.198 3.39128 1.198C3.03856 1.198 2.65766 1.29129 2.32822 1.53946C1.99878 1.78763 1.75 2.22417 1.75 2.73458C1.75 3.24727 1.99907 3.68573 2.32955 3.93236C2.66003 4.179 3.03933 4.2679 3.38595 4.27116H3.38662C3.52976 4.27249 3.66657 4.25512 3.79877 4.22648V7.59308L3.19388 8.02524C2.0925 8.81218 1.76876 10.3197 2.45093 11.4892L3.27524 12.9031C3.73373 13.6891 4.57728 14.1736 5.48741 14.1736H8.40851C10.5712 14.1736 12.3353 12.4094 12.3353 10.2467V8.29934C12.3353 7.01184 11.3694 5.91835 10.0918 5.75839L6.87193 5.35557V4.22648C7.00413 4.25512 7.14094 4.27249 7.28408 4.27116H7.28475C7.63126 4.26788 8.00999 4.17896 8.34048 3.93236C8.67094 3.68577 8.9207 3.24735 8.9207 2.73458C8.9207 2.22417 8.67192 1.78763 8.34248 1.53946C8.01304 1.29129 7.63214 1.198 7.27942 1.198C7.1108 1.198 6.9502 1.22277 6.79657 1.26269C6.59367 0.61241 5.9722 0.138253 5.25399 0.175617C5.25376 0.175617 5.25354 0.175617 5.25332 0.175617ZM5.30667 1.19867C5.61228 1.18277 5.84754 1.41204 5.84754 1.71019H5.85688C5.81229 1.73893 5.76406 1.76727 5.7215 1.79556C5.4993 1.94325 5.46615 1.98466 5.33535 2.091C5.20455 1.98466 5.1714 1.94325 4.9492 1.79556C4.91102 1.77018 4.86764 1.74463 4.82783 1.71886C4.85072 1.44164 5.05918 1.21199 5.30667 1.19867ZM3.39128 2.22239C3.57744 2.22239 4.03132 2.41591 4.38232 2.64921C4.44714 2.69229 4.43751 2.69365 4.49503 2.73525C4.43687 2.77755 4.44665 2.77948 4.38099 2.82328C4.03047 3.05712 3.5783 3.24847 3.39595 3.24677C3.23448 3.24525 3.04938 3.19119 2.94245 3.11139C2.83552 3.03159 2.77439 2.96014 2.77439 2.73458C2.77439 2.51426 2.83647 2.43911 2.94445 2.35777C3.05243 2.27643 3.23591 2.22239 3.39128 2.22239ZM7.27942 2.22239C7.43479 2.22239 7.61828 2.27643 7.72625 2.35777C7.83423 2.43911 7.89631 2.51426 7.89631 2.73458C7.89631 2.96006 7.83526 3.03155 7.72825 3.11139C7.62124 3.19123 7.43599 3.24526 7.27475 3.24677C7.0924 3.24848 6.64023 3.05712 6.28971 2.82328C6.22405 2.77948 6.23383 2.77755 6.17567 2.73525C6.23319 2.69365 6.22356 2.69229 6.28838 2.64921C6.63938 2.41591 7.09326 2.22239 7.27942 2.22239ZM5.33535 3.37882C5.46623 3.48587 5.49886 3.52753 5.72083 3.6756C5.76075 3.70223 5.80582 3.72924 5.84754 3.7563V5.80774C5.84757 5.93259 5.8932 6.05314 5.97585 6.14672C6.0585 6.2403 6.17248 6.30047 6.29638 6.31593L9.96509 6.77477C10.7384 6.87159 11.3109 7.52031 11.3109 8.29934V10.2467C11.3109 11.8558 10.0176 13.1492 8.40851 13.1492H5.48741C4.94018 13.1492 4.43589 12.8595 4.16024 12.3869L3.33593 10.973C2.91595 10.253 3.11144 9.34363 3.78943 8.85889L4.60841 8.27333C4.6748 8.22597 4.72892 8.16343 4.76628 8.09093C4.80363 8.01843 4.82313 7.93806 4.82316 7.85651V3.7563C4.86488 3.72924 4.90995 3.70223 4.94987 3.6756C5.17184 3.52753 5.20447 3.48587 5.33535 3.37882Z" fill="black"/>
</g>
<defs>
<clipPath id="clip0_1505_9937">
<rect width="14" height="14" fill="white" transform="translate(0 0.173553)"/>
</clipPath>
</defs>
</svg>
