<svg width="14" height="15" viewBox="0 0 14 15" fill="none" xmlns="http://www.w3.org/2000/svg">
<g clip-path="url(#clip0_271_5222)">
<path d="M6.8659 0.1736C6.74175 0.175416 6.6232 0.225554 6.53543 0.313366L3.35499 3.49381C3.3092 3.53777 3.27265 3.59042 3.24747 3.64869C3.22229 3.70695 3.20898 3.76965 3.20834 3.83312C3.20769 3.89659 3.21972 3.95955 3.24371 4.01831C3.2677 4.07707 3.30318 4.13046 3.34806 4.17534C3.39294 4.22022 3.44632 4.2557 3.50509 4.27969C3.56385 4.30368 3.62681 4.3157 3.69028 4.31506C3.75375 4.31441 3.81645 4.30111 3.87471 4.27593C3.93297 4.25075 3.98563 4.2142 4.02959 4.16841L6.39566 1.80234V12.5388L4.02959 10.1727C3.98563 10.127 3.93297 10.0904 3.87471 10.0652C3.81645 10.04 3.75375 10.0267 3.69028 10.0261C3.62681 10.0254 3.56385 10.0375 3.50509 10.0615C3.44632 10.0855 3.39294 10.1209 3.34806 10.1658C3.30318 10.2107 3.2677 10.2641 3.24371 10.3228C3.21972 10.3816 3.20769 10.4446 3.20834 10.508C3.20898 10.5715 3.22229 10.6342 3.24747 10.6925C3.27265 10.7507 3.3092 10.8034 3.35499 10.8473L6.49443 13.9868C6.53914 14.0451 6.59671 14.0923 6.66265 14.1247C6.72859 14.1571 6.80112 14.1738 6.87459 14.1736C6.94806 14.1733 7.02048 14.1561 7.0862 14.1233C7.15193 14.0905 7.20919 14.0429 7.25351 13.9843L10.3905 10.8473C10.4363 10.8034 10.4728 10.7507 10.498 10.6925C10.5232 10.6342 10.5365 10.5715 10.5371 10.508C10.5378 10.4446 10.5257 10.3816 10.5018 10.3228C10.4778 10.2641 10.4423 10.2107 10.3974 10.1658C10.3525 10.1209 10.2991 10.0855 10.2404 10.0615C10.1816 10.0375 10.1187 10.0254 10.0552 10.0261C9.99171 10.0267 9.92901 10.04 9.87075 10.0652C9.81249 10.0904 9.75983 10.127 9.71587 10.1727L7.3498 12.5388V1.80234L9.71587 4.16841C9.75983 4.2142 9.81249 4.25075 9.87075 4.27593C9.92901 4.30111 9.99171 4.31441 10.0552 4.31506C10.1187 4.3157 10.1816 4.30368 10.2404 4.27969C10.2991 4.2557 10.3525 4.22022 10.3974 4.17534C10.4423 4.13046 10.4778 4.07707 10.5018 4.01831C10.5257 3.95955 10.5378 3.89659 10.5371 3.83312C10.5365 3.76965 10.5232 3.70695 10.498 3.64869C10.4728 3.59042 10.4363 3.53777 10.3905 3.49381L7.21003 0.313366C7.16493 0.268244 7.11123 0.232627 7.05212 0.20862C6.99301 0.184613 6.92969 0.172705 6.8659 0.1736Z" fill="black"/>
</g>
<defs>
<clipPath id="clip0_271_5222">
<rect width="14" height="14" fill="white" transform="translate(0 0.173553)"/>
</clipPath>
</defs>
</svg>
