<svg width="14" height="15" viewBox="0 0 14 15" fill="none" xmlns="http://www.w3.org/2000/svg">
<g clip-path="url(#clip0_963_10015)">
<path d="M6.00609 0.23584C4.52181 0.23584 3.1549 0.763777 2.09182 1.64204C2.03805 1.68428 1.99327 1.73684 1.96012 1.79665C1.92697 1.85645 1.90611 1.92229 1.89879 1.99027C1.89147 2.05826 1.89782 2.12702 1.91748 2.19251C1.93713 2.25801 1.96969 2.3189 2.01324 2.37162C2.05678 2.42434 2.11044 2.46782 2.17104 2.49948C2.23164 2.53115 2.29797 2.55038 2.36611 2.55603C2.43426 2.56167 2.50284 2.55363 2.56783 2.53237C2.63282 2.51111 2.6929 2.47706 2.74453 2.43223C3.63123 1.69969 4.76423 1.26096 6.00609 1.26096C8.84306 1.26096 11.1317 3.54957 11.1317 6.38654C11.1317 9.22352 8.84306 11.5121 6.00609 11.5121H5.70576L6.52198 10.6959C6.59617 10.6239 6.64687 10.5312 6.66742 10.4299C6.68797 10.3286 6.67742 10.2235 6.63714 10.1283C6.59687 10.0331 6.52876 9.95227 6.44175 9.89648C6.35474 9.84068 6.25289 9.81249 6.14958 9.81561C6.01637 9.81967 5.88997 9.87544 5.79719 9.97112L4.15006 11.6182C4.08743 11.6663 4.03673 11.7281 4.00193 11.799C3.96713 11.8698 3.94915 11.9477 3.94941 12.0267C3.94967 12.1056 3.96815 12.1834 4.00342 12.254C4.03869 12.3247 4.08979 12.3862 4.15273 12.4338L5.79719 14.0783C5.84442 14.1274 5.90099 14.1667 5.96359 14.1938C6.02619 14.2208 6.09355 14.2351 6.16175 14.2358C6.22994 14.2365 6.29758 14.2236 6.36071 14.1978C6.42385 14.172 6.48121 14.1339 6.52943 14.0857C6.57765 14.0375 6.61576 13.9801 6.64154 13.917C6.66731 13.8539 6.68023 13.7862 6.67954 13.718C6.67885 13.6498 6.66455 13.5825 6.6375 13.5199C6.61045 13.4573 6.57117 13.4007 6.52198 13.3535L5.70576 12.5372H6.00609C9.39704 12.5372 12.1568 9.77749 12.1568 6.38654C12.1568 2.99559 9.39704 0.23584 6.00609 0.23584Z" fill="black"/>
</g>
<defs>
<clipPath id="clip0_963_10015">
<rect width="14" height="14" fill="white" transform="translate(0 0.23584)"/>
</clipPath>
</defs>
</svg>
