<svg width="14" height="15" viewBox="0 0 14 15" fill="none" xmlns="http://www.w3.org/2000/svg">
<path d="M7.96979 1.17355C7.85377 1.17358 7.74039 1.20823 7.64416 1.27305C7.54794 1.33788 7.47324 1.42994 7.42963 1.53745C7.38602 1.64497 7.37548 1.76305 7.39936 1.87659C7.42324 1.99013 7.48045 2.09397 7.56367 2.17481L12.0097 6.62089H0.591295C0.514042 6.61979 0.437342 6.63407 0.365652 6.66287C0.293963 6.69168 0.228714 6.73445 0.173697 6.78869C0.11868 6.84294 0.074993 6.90758 0.0451743 6.97885C0.0153556 7.05013 0 7.12662 0 7.20388C0 7.28114 0.0153556 7.35763 0.0451743 7.4289C0.074993 7.50018 0.11868 7.56482 0.173697 7.61906C0.228714 7.67331 0.293963 7.71607 0.365652 7.74488C0.437342 7.77369 0.514042 7.78796 0.591295 7.78687H12.0097L7.56367 12.2329C7.50772 12.2867 7.46305 12.351 7.43228 12.4222C7.4015 12.4934 7.38525 12.57 7.38446 12.6476C7.38367 12.7252 7.39837 12.8021 7.42768 12.8739C7.457 12.9457 7.50035 13.011 7.5552 13.0658C7.61005 13.1206 7.67529 13.164 7.7471 13.1933C7.81891 13.2226 7.89585 13.2373 7.97341 13.2365C8.05097 13.2358 8.12759 13.2195 8.19879 13.1887C8.26999 13.158 8.33434 13.1133 8.38806 13.0573L13.8293 7.61607C13.9386 7.50674 14 7.35847 14 7.20388C14 7.04928 13.9386 6.90102 13.8293 6.79168L8.38806 1.35042C8.33371 1.29446 8.2687 1.24997 8.19685 1.21959C8.125 1.18921 8.04779 1.17356 7.96979 1.17355Z" fill="black"/>
</svg>
