<svg width="1040" height="16" viewBox="0 0 1040 16" fill="none" xmlns="http://www.w3.org/2000/svg">
<path d="M3.75158 1.17355C3.65217 1.17358 3.55501 1.20326 3.47256 1.25881C3.39011 1.31436 3.3261 1.39324 3.28874 1.48537C3.25137 1.5775 3.24233 1.67868 3.26279 1.77598C3.28325 1.87327 3.33228 1.96224 3.40359 2.03151L9.54461 8.17254L3.40359 14.3136C3.35564 14.3596 3.31737 14.4147 3.291 14.4757C3.26463 14.5368 3.2507 14.6024 3.25003 14.6689C3.24935 14.7353 3.26194 14.8013 3.28706 14.8628C3.31219 14.9243 3.34933 14.9802 3.39633 15.0272C3.44333 15.0742 3.49923 15.1114 3.56076 15.1365C3.6223 15.1616 3.68822 15.1742 3.75469 15.1735C3.82115 15.1729 3.8868 15.1589 3.94781 15.1326C4.00882 15.1062 4.06396 15.0679 4.10999 15.02L10.6042 8.52574C10.6979 8.43205 10.7505 8.30501 10.7505 8.17254C10.7505 8.04007 10.6979 7.91303 10.6042 7.81934L4.10999 1.32511C4.06343 1.27716 4.00771 1.23904 3.94615 1.213C3.88459 1.18697 3.81843 1.17356 3.75158 1.17355Z" fill="black"/>
<path d="M44.9284 2.919C44.8648 2.92094 44.8024 2.93672 44.7455 2.96526C44.6886 2.99379 44.6387 3.03438 44.5991 3.0842L36.7241 12.7092C36.685 12.7533 36.6553 12.8048 36.6366 12.8607C36.618 12.9165 36.6108 12.9756 36.6155 13.0343C36.6202 13.093 36.6367 13.1502 36.664 13.2024C36.6914 13.2546 36.7289 13.3007 36.7745 13.338C36.8201 13.3753 36.8728 13.403 36.9293 13.4195C36.9859 13.4359 37.0452 13.4408 37.1037 13.4338C37.1622 13.4268 37.2186 13.408 37.2697 13.3787C37.3208 13.3493 37.3654 13.3099 37.4009 13.2629L45.2759 3.63791C45.3302 3.57331 45.3646 3.49439 45.3751 3.41065C45.3856 3.32691 45.3716 3.24193 45.3349 3.16595C45.2982 3.08996 45.2402 3.02623 45.1681 2.98241C45.096 2.93859 45.0127 2.91657 44.9284 2.919ZM37.9375 3.21522C36.8961 3.21522 36.0417 4.06964 36.0417 5.11105V6.27772C36.0417 7.31913 36.8961 8.17355 37.9375 8.17355C38.9789 8.17355 39.8333 7.31913 39.8333 6.27772V5.11105C39.8333 4.06964 38.9789 3.21522 37.9375 3.21522ZM37.9375 4.09022C38.5043 4.09022 38.9583 4.54422 38.9583 5.11105V6.27772C38.9583 6.84456 38.5043 7.29855 37.9375 7.29855C37.3707 7.29855 36.9167 6.84456 36.9167 6.27772V5.11105C36.9167 4.54422 37.3707 4.09022 37.9375 4.09022ZM44.0625 8.17355C43.0211 8.17355 42.1667 9.02797 42.1667 10.0694V11.2361C42.1667 12.2775 43.0211 13.1319 44.0625 13.1319C45.1039 13.1319 45.9583 12.2775 45.9583 11.2361V10.0694C45.9583 9.02797 45.1039 8.17355 44.0625 8.17355ZM44.0625 9.04855C44.6293 9.04855 45.0833 9.50255 45.0833 10.0694V11.2361C45.0833 11.8029 44.6293 12.2569 44.0625 12.2569C43.4957 12.2569 43.0417 11.8029 43.0417 11.2361V10.0694C43.0417 9.50255 43.4957 9.04855 44.0625 9.04855Z" fill="black"/>
<path d="M68.4838 2.7737C68.4206 2.7728 68.3579 2.78448 68.2992 2.80806C68.2405 2.83163 68.1872 2.86663 68.1421 2.91101C68.0971 2.9554 68.0614 3.00829 68.037 3.06661C68.0126 3.12494 68 3.18753 68 3.25075C68 3.31397 68.0126 3.37656 68.037 3.43488C68.0614 3.49321 68.0971 3.5461 68.1421 3.59048C68.1872 3.63487 68.2405 3.66987 68.2992 3.69344C68.3579 3.71701 68.4206 3.72869 68.4838 3.7278H69.3603C69.5918 3.7278 69.7848 3.88774 69.8287 4.1154L69.9237 4.61233L70.9492 9.99839C71.1347 10.9701 71.9908 11.6786 72.9804 11.6786H78.9348C79.9244 11.6786 80.7809 10.9704 80.966 9.99839L81.9915 4.61233C82.0047 4.54337 82.0025 4.47235 81.985 4.40435C81.9676 4.33635 81.9353 4.27304 81.8906 4.21893C81.8459 4.16482 81.7897 4.12125 81.7262 4.09133C81.6627 4.06141 81.5934 4.04587 81.5232 4.04583H70.7865L70.766 3.93713C70.6378 3.26523 70.0444 2.7737 69.3603 2.7737H68.4838ZM70.9685 4.99993H80.9468L80.0287 9.82012C79.9282 10.3479 79.4725 10.7245 78.9348 10.7245H72.9804C72.443 10.7245 71.9875 10.3479 71.8865 9.82012V9.8195L70.9685 4.99993ZM73.7314 12.3147C73.4783 12.3147 73.2357 12.4152 73.0567 12.5941C72.8778 12.7731 72.7773 13.0157 72.7773 13.2688C72.7773 13.5218 72.8778 13.7645 73.0567 13.9434C73.2357 14.1224 73.4783 14.2229 73.7314 14.2229C73.9844 14.2229 74.2271 14.1224 74.406 13.9434C74.585 13.7645 74.6855 13.5218 74.6855 13.2688C74.6855 13.0157 74.585 12.7731 74.406 12.5941C74.2271 12.4152 73.9844 12.3147 73.7314 12.3147ZM78.1838 12.3147C77.9308 12.3147 77.6881 12.4152 77.5092 12.5941C77.3303 12.7731 77.2298 13.0157 77.2298 13.2688C77.2298 13.5218 77.3303 13.7645 77.5092 13.9434C77.6881 14.1224 77.9308 14.2229 78.1838 14.2229C78.4369 14.2229 78.6796 14.1224 78.8585 13.9434C79.0374 13.7645 79.1379 13.5218 79.1379 13.2688C79.1379 13.0157 79.0374 12.7731 78.8585 12.5941C78.6796 12.4152 78.4369 12.3147 78.1838 12.3147Z" fill="black"/>
<path d="M108.6 0.773529C106.673 0.773529 105.1 2.34675 105.1 4.27353C105.1 6.20031 106.673 7.77353 108.6 7.77353C110.527 7.77353 112.1 6.20031 112.1 4.27353C112.1 2.34675 110.527 0.773529 108.6 0.773529ZM108.6 1.82353C109.959 1.82353 111.05 2.91421 111.05 4.27353C111.05 5.63285 109.959 6.72353 108.6 6.72353C107.241 6.72353 106.15 5.63285 106.15 4.27353C106.15 2.91421 107.241 1.82353 108.6 1.82353ZM104.392 9.17353C103.63 9.17353 103 9.80308 103 10.566V11.0985C103 12.36 103.798 13.3358 104.857 13.9204C105.917 14.505 107.259 14.7735 108.6 14.7735C109.941 14.7735 111.283 14.505 112.343 13.9204C113.402 13.3359 114.2 12.3603 114.2 11.0992L114.201 10.5667V10.566C114.201 9.80309 113.57 9.17353 112.808 9.17353H104.392ZM104.392 10.2235H112.808C113.003 10.2235 113.151 10.3706 113.151 10.566L113.15 11.0985C113.15 11.9371 112.679 12.5362 111.835 13.0017C110.992 13.4671 109.796 13.7235 108.6 13.7235C107.404 13.7235 106.208 13.4671 105.365 13.0017C104.521 12.5362 104.05 11.9371 104.05 11.0985V10.566C104.05 10.3706 104.197 10.2235 104.392 10.2235ZM109.825 10.9235C109.755 10.9225 109.686 10.9354 109.622 10.9613C109.557 10.9873 109.498 11.0258 109.449 11.0746C109.399 11.1235 109.36 11.1817 109.333 11.2459C109.306 11.3101 109.293 11.379 109.293 11.4485C109.293 11.5181 109.306 11.587 109.333 11.6512C109.36 11.7154 109.399 11.7736 109.449 11.8224C109.498 11.8713 109.557 11.9098 109.622 11.9357C109.686 11.9617 109.755 11.9745 109.825 11.9735H111.225C111.295 11.9745 111.364 11.9617 111.428 11.9357C111.493 11.9098 111.552 11.8713 111.601 11.8224C111.651 11.7736 111.69 11.7154 111.717 11.6512C111.744 11.587 111.757 11.5181 111.757 11.4485C111.757 11.379 111.744 11.3101 111.717 11.2459C111.69 11.1817 111.651 11.1235 111.601 11.0746C111.552 11.0258 111.493 10.9873 111.428 10.9613C111.364 10.9354 111.295 10.9225 111.225 10.9235H109.825Z" fill="black"/>
<path d="M143 0.773529C139.14 0.773529 136 3.91383 136 7.77353C136 11.6332 139.14 14.7735 143 14.7735C145.718 14.7735 148.076 13.2167 149.234 10.9481C149.272 10.8723 149.292 10.7881 149.291 10.703C149.29 10.6178 149.268 10.5342 149.228 10.4593C149.187 10.3844 149.129 10.3205 149.058 10.2731C148.987 10.2258 148.906 10.1963 148.821 10.1873C145.745 9.86096 143.35 7.26642 143.35 4.09853C143.35 3.18441 143.555 2.32203 143.915 1.54052C143.951 1.46328 143.967 1.37854 143.963 1.29358C143.959 1.20863 143.934 1.12602 143.89 1.05285C143.847 0.979673 143.786 0.918136 143.714 0.873529C143.641 0.828922 143.559 0.80258 143.474 0.796771C143.335 0.787369 143.177 0.773529 143 0.773529ZM142.707 1.85292C142.468 2.56356 142.3 3.30693 142.3 4.09853C142.3 7.50593 144.695 10.3374 147.886 11.065C146.819 12.6484 145.057 13.7235 143 13.7235C139.708 13.7235 137.05 11.0657 137.05 7.77353C137.05 4.58181 139.554 2.00838 142.707 1.85292Z" fill="black"/>
<path d="M171.651 0.772562C171.506 0.774281 171.367 0.83326 171.265 0.936709C171.163 1.04016 171.105 1.17974 171.105 1.32518V12.5618C170.495 12.5618 170 13.0566 170 13.6671C170 14.2775 170.495 14.7723 171.105 14.7723H171.658H172.21H181.789H182.342H182.895C183.505 14.7723 184 14.2775 184 13.6671C184 13.0566 183.505 12.5618 182.895 12.5618V1.32518C182.894 1.22517 182.867 1.12703 182.816 1.04124C182.765 0.955448 182.691 0.885212 182.603 0.83802C182.514 0.790828 182.415 0.768448 182.315 0.773268C182.215 0.778087 182.119 0.809924 182.035 0.865386L180.668 1.77635L179.126 0.850994C179.04 0.799505 178.942 0.772308 178.842 0.772308C178.742 0.772308 178.644 0.799505 178.558 0.850994L177 1.7857L175.442 0.850994C175.356 0.799505 175.258 0.772308 175.158 0.772308C175.058 0.772308 174.959 0.799505 174.874 0.850994L173.332 1.77635L171.964 0.865386C171.872 0.80363 171.763 0.771277 171.651 0.772562ZM175.158 1.96991L176.716 2.9039C176.802 2.95539 176.9 2.98258 177 2.98258C177.1 2.98258 177.198 2.95539 177.284 2.9039L178.842 1.96991L180.4 2.90462C180.49 2.95837 180.593 2.98555 180.697 2.98301C180.802 2.98046 180.904 2.94829 180.991 2.89023L181.789 2.35775V12.5618V13.6671H172.21V12.5618V2.35775L173.009 2.89023C173.096 2.94829 173.198 2.98046 173.302 2.98301C173.407 2.98555 173.51 2.95837 173.6 2.90462L175.158 1.96991ZM173.868 4.82512C173.795 4.82408 173.722 4.83761 173.654 4.86492C173.587 4.89223 173.525 4.93277 173.473 4.98419C173.42 5.03561 173.379 5.09688 173.351 5.16444C173.322 5.232 173.308 5.30451 173.308 5.37774C173.308 5.45098 173.322 5.52348 173.351 5.59105C173.379 5.65861 173.42 5.71988 173.473 5.7713C173.525 5.82272 173.587 5.86326 173.654 5.89056C173.722 5.91787 173.795 5.9314 173.868 5.93036H180.131C180.205 5.9314 180.277 5.91787 180.345 5.89056C180.413 5.86326 180.475 5.82272 180.527 5.7713C180.579 5.71988 180.621 5.65861 180.649 5.59105C180.677 5.52348 180.692 5.45098 180.692 5.37774C180.692 5.30451 180.677 5.232 180.649 5.16444C180.621 5.09688 180.579 5.03561 180.527 4.98419C180.475 4.93277 180.413 4.89223 180.345 4.86492C180.277 4.83761 180.205 4.82408 180.131 4.82512H173.868ZM173.868 7.77244C173.795 7.7714 173.722 7.78493 173.654 7.81224C173.587 7.83954 173.525 7.88008 173.473 7.9315C173.42 7.98292 173.379 8.04419 173.351 8.11175C173.322 8.17932 173.308 8.25182 173.308 8.32506C173.308 8.39829 173.322 8.4708 173.351 8.53836C173.379 8.60592 173.42 8.66719 173.473 8.71861C173.525 8.77003 173.587 8.81057 173.654 8.83788C173.722 8.86519 173.795 8.87871 173.868 8.87768H177.184C177.257 8.87871 177.33 8.86519 177.398 8.83788C177.466 8.81057 177.528 8.77003 177.58 8.71861C177.632 8.66719 177.673 8.60592 177.702 8.53836C177.73 8.4708 177.745 8.39829 177.745 8.32506C177.745 8.25182 177.73 8.17932 177.702 8.11175C177.673 8.04419 177.632 7.98292 177.58 7.9315C177.528 7.88008 177.466 7.83954 177.398 7.81224C177.33 7.78493 177.257 7.7714 177.184 7.77244H173.868ZM179.395 7.77244C179.321 7.7714 179.249 7.78493 179.181 7.81224C179.113 7.83954 179.051 7.88008 178.999 7.9315C178.947 7.98292 178.905 8.04419 178.877 8.11175C178.849 8.17932 178.834 8.25182 178.834 8.32506C178.834 8.39829 178.849 8.4708 178.877 8.53836C178.905 8.60592 178.947 8.66719 178.999 8.71861C179.051 8.77003 179.113 8.81057 179.181 8.83788C179.249 8.86519 179.321 8.87871 179.395 8.87768H180.131C180.205 8.87871 180.277 8.86519 180.345 8.83788C180.413 8.81057 180.475 8.77003 180.527 8.71861C180.579 8.66719 180.621 8.60592 180.649 8.53836C180.677 8.4708 180.692 8.39829 180.692 8.32506C180.692 8.25182 180.677 8.17932 180.649 8.11175C180.621 8.04419 180.579 7.98292 180.527 7.9315C180.475 7.88008 180.413 7.83954 180.345 7.81224C180.277 7.78493 180.205 7.7714 180.131 7.77244H179.395ZM173.868 9.98292C173.795 9.98189 173.722 9.99542 173.654 10.0227C173.587 10.05 173.525 10.0906 173.473 10.142C173.42 10.1934 173.379 10.2547 173.351 10.3222C173.322 10.3898 173.308 10.4623 173.308 10.5355C173.308 10.6088 173.322 10.6813 173.351 10.7488C173.379 10.8164 173.42 10.8777 173.473 10.9291C173.525 10.9805 173.587 11.0211 173.654 11.0484C173.722 11.0757 173.795 11.0892 173.868 11.0882H176.447C176.52 11.0892 176.593 11.0757 176.661 11.0484C176.729 11.0211 176.791 10.9805 176.843 10.9291C176.895 10.8777 176.937 10.8164 176.965 10.7488C176.993 10.6813 177.008 10.6088 177.008 10.5355C177.008 10.4623 176.993 10.3898 176.965 10.3222C176.937 10.2547 176.895 10.1934 176.843 10.142C176.791 10.0906 176.729 10.05 176.661 10.0227C176.593 9.99542 176.52 9.98189 176.447 9.98292H173.868ZM179.395 9.98292C179.321 9.98189 179.249 9.99542 179.181 10.0227C179.113 10.05 179.051 10.0906 178.999 10.142C178.947 10.1934 178.905 10.2547 178.877 10.3222C178.849 10.3898 178.834 10.4623 178.834 10.5355C178.834 10.6088 178.849 10.6813 178.877 10.7488C178.905 10.8164 178.947 10.8777 178.999 10.9291C179.051 10.9805 179.113 11.0211 179.181 11.0484C179.249 11.0757 179.321 11.0892 179.395 11.0882H180.131C180.205 11.0892 180.277 11.0757 180.345 11.0484C180.413 11.0211 180.475 10.9805 180.527 10.9291C180.579 10.8777 180.621 10.8164 180.649 10.7488C180.677 10.6813 180.692 10.6088 180.692 10.5355C180.692 10.4623 180.677 10.3898 180.649 10.3222C180.621 10.2547 180.579 10.1934 180.527 10.142C180.475 10.0906 180.413 10.05 180.345 10.0227C180.277 9.99542 180.205 9.98189 180.131 9.98292H179.395Z" fill="black"/>
<path d="M210.991 0.773596C210.845 0.775882 210.706 0.836134 210.604 0.941118C210.502 1.0461 210.446 1.18723 210.448 1.33351V7.22163H204.56C204.487 7.2206 204.414 7.23411 204.346 7.26139C204.278 7.28866 204.217 7.32916 204.164 7.38052C204.112 7.43188 204.071 7.49309 204.043 7.56057C204.015 7.62806 204 7.70049 204 7.77364C204 7.8468 204.015 7.91922 204.043 7.98671C204.071 8.0542 204.112 8.1154 204.164 8.16676C204.217 8.21812 204.278 8.25862 204.346 8.2859C204.414 8.31317 204.487 8.32669 204.56 8.32565H210.448V14.2138C210.447 14.2869 210.46 14.3595 210.488 14.4274C210.515 14.4953 210.556 14.5571 210.607 14.6092C210.658 14.6613 210.719 14.7026 210.787 14.7309C210.854 14.7591 210.927 14.7736 211 14.7736C211.073 14.7736 211.146 14.7591 211.213 14.7309C211.281 14.7026 211.342 14.6613 211.393 14.6092C211.444 14.5571 211.485 14.4953 211.512 14.4274C211.54 14.3595 211.553 14.2869 211.552 14.2138V8.32565H217.44C217.513 8.32669 217.586 8.31317 217.654 8.2859C217.722 8.25862 217.783 8.21812 217.836 8.16676C217.888 8.1154 217.929 8.0542 217.957 7.98671C217.985 7.91922 218 7.8468 218 7.77364C218 7.70049 217.985 7.62806 217.957 7.56057C217.929 7.49309 217.888 7.43188 217.836 7.38052C217.783 7.32916 217.722 7.28866 217.654 7.26139C217.586 7.23411 217.513 7.2206 217.44 7.22163H211.552V1.33351C211.553 1.25963 211.539 1.18629 211.511 1.11783C211.484 1.04937 211.442 0.98719 211.39 0.934975C211.338 0.88276 211.276 0.841572 211.207 0.813851C211.139 0.78613 211.065 0.772442 210.991 0.773596Z" fill="black"/>
<path d="M244.992 0.773593C244.853 0.775764 244.72 0.833006 244.624 0.932746C244.527 1.03249 244.474 1.16657 244.476 1.30554V2.35441C244.475 2.42391 244.487 2.4929 244.513 2.55739C244.539 2.62188 244.578 2.68058 244.626 2.73007C244.675 2.77956 244.733 2.81886 244.798 2.84568C244.862 2.8725 244.93 2.88632 245 2.88632C245.069 2.88632 245.138 2.8725 245.202 2.84568C245.266 2.81886 245.325 2.77956 245.373 2.73007C245.422 2.68058 245.461 2.62188 245.487 2.55739C245.513 2.4929 245.525 2.42391 245.524 2.35441V1.30554C245.525 1.23535 245.512 1.16567 245.486 1.10063C245.459 1.03559 245.42 0.976517 245.371 0.92691C245.321 0.877303 245.262 0.838173 245.197 0.811837C245.132 0.785501 245.062 0.772496 244.992 0.773593ZM240.421 2.67058C240.316 2.6706 240.214 2.70176 240.128 2.76008C240.041 2.81839 239.974 2.90121 239.935 2.99793C239.896 3.09464 239.886 3.20086 239.908 3.303C239.929 3.40514 239.981 3.49854 240.055 3.57127L240.797 4.31285C240.895 4.41128 241.029 4.46658 241.168 4.46658C241.307 4.46658 241.441 4.41128 241.539 4.31285C241.638 4.21442 241.693 4.08092 241.693 3.94172C241.693 3.80252 241.638 3.66901 241.539 3.57058L240.798 2.829C240.749 2.7787 240.69 2.73876 240.625 2.71154C240.56 2.68433 240.491 2.6704 240.421 2.67058ZM249.563 2.67058C249.427 2.67455 249.297 2.73136 249.202 2.829L248.461 3.57058C248.362 3.66901 248.307 3.80252 248.307 3.94172C248.307 4.08092 248.362 4.21442 248.461 4.31285C248.559 4.41128 248.693 4.46658 248.832 4.46658C248.971 4.46658 249.105 4.41128 249.203 4.31285L249.945 3.57127C250.02 3.49759 250.072 3.40265 250.093 3.29894C250.114 3.19522 250.104 3.08758 250.062 2.99014C250.021 2.89271 249.951 2.81005 249.862 2.75301C249.773 2.69598 249.669 2.66724 249.563 2.67058ZM245 3.92772C242.882 3.92772 241.154 5.65578 241.154 7.77358C241.154 9.89138 242.882 11.6194 245 11.6194C247.118 11.6194 248.846 9.89138 248.846 7.77358C248.846 5.65578 247.118 3.92772 245 3.92772ZM245 4.97659C246.551 4.97659 247.797 6.22263 247.797 7.77358C247.797 9.32453 246.551 10.5706 245 10.5706C243.449 10.5706 242.203 9.32453 242.203 7.77358C242.203 6.22263 243.449 4.97659 245 4.97659ZM238.532 7.24915C238.462 7.24816 238.393 7.261 238.329 7.28692C238.264 7.31283 238.206 7.3513 238.156 7.4001C238.107 7.4489 238.067 7.50704 238.041 7.57116C238.014 7.63527 238 7.70408 238 7.77358C238 7.84308 238.014 7.91189 238.041 7.97601C238.067 8.04012 238.107 8.09827 238.156 8.14706C238.206 8.19586 238.264 8.23433 238.329 8.26025C238.393 8.28616 238.462 8.299 238.532 8.29802H239.581C239.65 8.299 239.719 8.28616 239.784 8.26025C239.848 8.23433 239.907 8.19586 239.956 8.14706C240.006 8.09827 240.045 8.04012 240.072 7.97601C240.099 7.91189 240.113 7.84308 240.113 7.77358C240.113 7.70408 240.099 7.63527 240.072 7.57116C240.045 7.50704 240.006 7.4489 239.956 7.4001C239.907 7.3513 239.848 7.31283 239.784 7.28692C239.719 7.261 239.65 7.24816 239.581 7.24915H238.532ZM250.419 7.24915C250.35 7.24816 250.281 7.261 250.216 7.28692C250.152 7.31283 250.093 7.3513 250.043 7.4001C249.994 7.4489 249.955 7.50704 249.928 7.57116C249.901 7.63527 249.887 7.70408 249.887 7.77358C249.887 7.84308 249.901 7.91189 249.928 7.97601C249.955 8.04012 249.994 8.09827 250.043 8.14706C250.093 8.19586 250.152 8.23433 250.216 8.26025C250.281 8.28616 250.35 8.299 250.419 8.29802H251.468C251.537 8.299 251.606 8.28616 251.671 8.26025C251.735 8.23433 251.794 8.19586 251.844 8.14706C251.893 8.09827 251.932 8.04012 251.959 7.97601C251.986 7.91189 252 7.84308 252 7.77358C252 7.70408 251.986 7.63527 251.959 7.57116C251.932 7.50704 251.893 7.4489 251.844 7.4001C251.794 7.3513 251.735 7.31283 251.671 7.28692C251.606 7.261 251.537 7.24816 251.468 7.24915H250.419ZM241.157 11.0759C241.021 11.0799 240.892 11.1367 240.797 11.2343L240.055 11.9759C240.007 12.0246 239.968 12.0825 239.942 12.1462C239.915 12.2099 239.902 12.2781 239.902 12.3471C239.902 12.416 239.915 12.4843 239.941 12.5479C239.968 12.6116 240.007 12.6695 240.055 12.7182C240.104 12.767 240.162 12.8057 240.226 12.832C240.289 12.8584 240.358 12.872 240.426 12.872C240.495 12.872 240.564 12.8584 240.627 12.832C240.691 12.8056 240.749 12.7669 240.798 12.7182L241.539 11.9766C241.615 11.9029 241.667 11.808 241.688 11.7043C241.709 11.6005 241.698 11.4929 241.657 11.3955C241.616 11.298 241.546 11.2154 241.457 11.1583C241.368 11.1013 241.263 11.0726 241.157 11.0759ZM248.826 11.0759C248.722 11.0759 248.62 11.1071 248.533 11.1654C248.447 11.2237 248.379 11.3065 248.34 11.4032C248.301 11.5 248.291 11.6062 248.313 11.7083C248.334 11.8105 248.386 11.9039 248.461 11.9766L249.202 12.7182C249.251 12.7669 249.309 12.8056 249.373 12.8319C249.436 12.8583 249.504 12.8719 249.573 12.8719C249.642 12.8719 249.711 12.8583 249.774 12.8319C249.838 12.8056 249.896 12.7669 249.945 12.7182C249.993 12.6694 250.032 12.6116 250.058 12.5479C250.085 12.4842 250.098 12.416 250.098 12.347C250.098 12.2781 250.085 12.2099 250.058 12.1462C250.032 12.0825 249.993 12.0246 249.945 11.9759L249.203 11.2343C249.154 11.184 249.095 11.1441 249.031 11.1169C248.966 11.0896 248.896 11.0757 248.826 11.0759ZM244.992 12.6608C244.853 12.663 244.72 12.7202 244.624 12.82C244.527 12.9197 244.474 13.0538 244.476 13.1928V14.2416C244.475 14.3111 244.487 14.3801 244.513 14.4446C244.539 14.5091 244.578 14.5678 244.626 14.6173C244.675 14.6668 244.733 14.7061 244.798 14.7329C244.862 14.7597 244.93 14.7735 245 14.7735C245.069 14.7735 245.138 14.7597 245.202 14.7329C245.266 14.7061 245.325 14.6668 245.373 14.6173C245.422 14.5678 245.461 14.5091 245.487 14.4446C245.513 14.3801 245.525 14.3111 245.524 14.2416V13.1928C245.525 13.1226 245.512 13.0529 245.486 12.9878C245.459 12.9228 245.42 12.8637 245.371 12.8141C245.321 12.7645 245.262 12.7254 245.197 12.699C245.132 12.6727 245.062 12.6597 244.992 12.6608Z" fill="black"/>
<path d="M278.987 0.77358C278.903 0.774961 278.821 0.795501 278.746 0.833636C278.671 0.871772 278.606 0.926497 278.555 0.993644L277.133 2.41615C277.08 2.46704 277.037 2.528 277.008 2.59545C276.979 2.66291 276.964 2.7355 276.963 2.80898C276.962 2.88246 276.976 2.95535 277.004 3.02338C277.032 3.09141 277.073 3.15322 277.125 3.20518C277.177 3.25714 277.238 3.29821 277.306 3.32599C277.374 3.35376 277.447 3.36769 277.521 3.36694C277.594 3.36619 277.667 3.35079 277.734 3.32164C277.802 3.29249 277.863 3.25017 277.914 3.19716L278.444 2.66714V4.64771C278.443 4.7209 278.456 4.79356 278.483 4.86148C278.511 4.9294 278.551 4.99122 278.603 5.04334C278.654 5.09546 278.715 5.13685 278.783 5.1651C278.85 5.19335 278.923 5.2079 278.996 5.2079C279.069 5.2079 279.142 5.19335 279.209 5.1651C279.277 5.13685 279.338 5.09546 279.389 5.04334C279.441 4.99122 279.481 4.9294 279.509 4.86148C279.536 4.79356 279.549 4.7209 279.548 4.64771V2.66714L280.078 3.19716C280.129 3.25017 280.19 3.29249 280.258 3.32164C280.325 3.35079 280.398 3.36619 280.471 3.36694C280.545 3.36769 280.618 3.35376 280.686 3.32599C280.754 3.29821 280.815 3.25714 280.867 3.20518C280.919 3.15322 280.96 3.09141 280.988 3.02338C281.016 2.95535 281.03 2.88246 281.029 2.80898C281.028 2.7355 281.013 2.66291 280.984 2.59545C280.955 2.528 280.912 2.46704 280.859 2.41615L279.434 0.990767C279.382 0.922217 279.314 0.866869 279.236 0.829155C279.159 0.79144 279.074 0.772408 278.987 0.77358ZM273.289 5.93645C272.584 5.93645 272 6.52008 272 7.22519V13.4848C272 14.1899 272.584 14.7735 273.289 14.7735H284.703C285.408 14.7735 285.992 14.1899 285.992 13.4848V7.22519C285.992 6.52008 285.408 5.93645 284.703 5.93645H273.289ZM274.209 7.04109H283.783C283.783 7.65232 284.276 8.14572 284.887 8.14572V12.5643C284.276 12.5643 283.783 13.0577 283.783 13.6689H274.209C274.209 13.0577 273.716 12.5643 273.105 12.5643V8.14572C273.716 8.14572 274.209 7.65232 274.209 7.04109ZM278.996 7.77751C278.275 7.77751 277.669 8.13987 277.307 8.63763C276.945 9.13539 276.787 9.74828 276.787 10.355C276.787 10.9617 276.945 11.5746 277.307 12.0724C277.669 12.5701 278.275 12.9325 278.996 12.9325C279.717 12.9325 280.323 12.5701 280.685 12.0724C281.047 11.5746 281.205 10.9617 281.205 10.355C281.205 9.74828 281.047 9.13539 280.685 8.63763C280.323 8.13987 279.717 7.77751 278.996 7.77751ZM278.996 8.88214C279.38 8.88214 279.602 9.02608 279.792 9.28775C279.982 9.54943 280.101 9.94912 280.101 10.355C280.101 10.7609 279.982 11.1606 279.792 11.4222C279.602 11.6839 279.38 11.8278 278.996 11.8278C278.612 11.8278 278.39 11.6839 278.2 11.4222C278.01 11.1606 277.891 10.7609 277.891 10.355C277.891 9.94912 278.01 9.54943 278.2 9.28775C278.39 9.02608 278.612 8.88214 278.996 8.88214ZM274.577 9.61857C274.382 9.61857 274.195 9.69616 274.057 9.83426C273.919 9.97237 273.841 10.1597 273.841 10.355C273.841 10.5503 273.919 10.7376 274.057 10.8757C274.195 11.0138 274.382 11.0914 274.577 11.0914C274.773 11.0914 274.96 11.0138 275.098 10.8757C275.236 10.7376 275.314 10.5503 275.314 10.355C275.314 10.1597 275.236 9.97237 275.098 9.83426C274.96 9.69616 274.773 9.61857 274.577 9.61857ZM283.415 9.61857C283.219 9.61857 283.032 9.69616 282.894 9.83426C282.756 9.97237 282.678 10.1597 282.678 10.355C282.678 10.5503 282.756 10.7376 282.894 10.8757C283.032 11.0138 283.219 11.0914 283.415 11.0914C283.61 11.0914 283.797 11.0138 283.935 10.8757C284.073 10.7376 284.151 10.5503 284.151 10.355C284.151 10.1597 284.073 9.97237 283.935 9.83426C283.797 9.69616 283.61 9.61857 283.415 9.61857Z" fill="black"/>
<path d="M312.926 0.773756C312.806 0.770001 312.689 0.812889 312.599 0.893458C312.599 0.893458 310.264 2.95148 307.467 2.95148C307.343 2.9515 307.224 3.00066 307.137 3.08818C307.049 3.17569 307 3.29438 307 3.41814V7.2322C307 9.30976 307.961 12.7284 312.73 14.737C312.787 14.7611 312.849 14.7735 312.911 14.7735C312.973 14.7735 313.035 14.7611 313.092 14.737C317.861 12.7284 318.822 9.30976 318.822 7.2322V3.41814C318.822 3.29438 318.773 3.17569 318.685 3.08818C318.598 3.00066 318.479 2.9515 318.355 2.95148C315.558 2.95148 313.223 0.893458 313.223 0.893458C313.141 0.819885 313.036 0.777494 312.926 0.773756ZM312.911 1.84014C313.553 2.35614 315.434 3.67859 317.889 3.84591V7.2322C317.889 9.01864 317.202 11.9006 312.911 13.786C308.62 11.9006 307.933 9.01864 307.933 7.2322V3.84591C310.388 3.67859 312.269 2.35614 312.911 1.84014ZM314.929 5.12253C314.806 5.12544 314.689 5.17699 314.603 5.26593L312.911 6.95816L311.219 5.26593C311.175 5.22113 311.123 5.18552 311.066 5.1612C311.008 5.13688 310.946 5.12435 310.884 5.12435C310.791 5.12437 310.7 5.1521 310.623 5.20399C310.546 5.25588 310.486 5.32957 310.452 5.41563C310.417 5.50169 310.408 5.59621 310.427 5.6871C310.446 5.77798 310.492 5.86109 310.559 5.92581L312.251 7.61804L310.559 9.31028C310.514 9.35328 310.478 9.40478 310.454 9.46177C310.429 9.51876 310.416 9.5801 310.415 9.64218C310.415 9.70426 310.427 9.76585 310.45 9.82333C310.473 9.88081 310.508 9.93303 310.552 9.97693C310.596 10.0208 310.648 10.0555 310.706 10.079C310.763 10.1025 310.825 10.1142 310.887 10.1136C310.949 10.113 311.01 10.1 311.067 10.0753C311.124 10.0507 311.176 10.0149 311.219 9.97016L312.911 8.27792L314.603 9.97016C314.646 10.0149 314.698 10.0507 314.755 10.0753C314.812 10.1 314.873 10.113 314.935 10.1136C314.997 10.1142 315.059 10.1025 315.116 10.079C315.174 10.0555 315.226 10.0208 315.27 9.97693C315.314 9.93303 315.348 9.88081 315.372 9.82333C315.395 9.76585 315.407 9.70426 315.407 9.64218C315.406 9.5801 315.393 9.51876 315.368 9.46177C315.344 9.40478 315.308 9.35328 315.263 9.31028L313.571 7.61804L315.263 5.92581C315.331 5.86067 315.378 5.77656 315.397 5.68448C315.416 5.59241 315.407 5.49667 315.371 5.40983C315.335 5.32298 315.273 5.24908 315.194 5.19782C315.115 5.14655 315.023 5.1203 314.929 5.12253Z" fill="black"/>
<path d="M346.94 0.779965C343.696 0.627229 341 3.22576 341 6.44016V7.94017V10.2735C341 11.2311 341.755 12.0037 342.695 12.0789C342.771 13.3864 343.841 14.4402 345.167 14.4402H345.505C345.657 14.6413 345.896 14.7736 346.167 14.7736H347.167C347.626 14.7736 348 14.3999 348 13.9402C348 13.4805 347.626 13.1069 347.167 13.1069H346.167C345.896 13.1069 345.657 13.2392 345.505 13.4402H345.167C344.391 13.4402 343.785 12.8575 343.7 12.1069H344.5C344.633 12.1069 344.76 12.0542 344.854 11.9604C344.947 11.8666 345 11.7395 345 11.6069V7.94017C345 7.80757 344.947 7.6804 344.854 7.58663C344.76 7.49287 344.633 7.44018 344.5 7.44017H342V6.44016C342 3.78186 344.203 1.65207 346.893 1.77867C349.397 1.89645 351.333 4.06015 351.333 6.586V7.44017H348.833C348.701 7.44018 348.574 7.49287 348.48 7.58663C348.386 7.6804 348.333 7.80757 348.333 7.94017V11.6069C348.333 11.7395 348.386 11.8666 348.48 11.9604C348.574 12.0542 348.701 12.1069 348.833 12.1069H350.5C351.507 12.1069 352.333 11.2801 352.333 10.2735V7.94017V6.586C352.333 3.5478 349.993 0.923525 346.94 0.779965ZM342 8.44018H344V11.1069H342.833C342.367 11.1069 342 10.7396 342 10.2735V8.44018ZM349.333 8.44018H351.333V10.2735C351.333 10.7396 350.966 11.1069 350.5 11.1069H349.333V8.44018Z" fill="black"/>
<path d="M375.289 0.773529C374.584 0.773529 374 1.3572 374 2.06236V8.32241C374 9.02757 374.584 9.61125 375.289 9.61125H386.704C387.409 9.61125 387.993 9.02757 387.993 8.32241V2.06236C387.993 1.3572 387.409 0.773529 386.704 0.773529H375.289ZM376.209 1.87824H385.784C385.784 2.48952 386.277 2.98296 386.888 2.98296V7.40182C386.277 7.40182 385.784 7.89526 385.784 8.50653H376.209C376.209 7.89526 375.716 7.40182 375.105 7.40182V2.98296C375.716 2.98296 376.209 2.48952 376.209 1.87824ZM380.997 2.61472C380.275 2.61472 379.669 2.97711 379.307 3.4749C378.945 3.9727 378.787 4.58563 378.787 5.19239C378.787 5.79914 378.945 6.41208 379.307 6.90987C379.669 7.40767 380.275 7.77006 380.997 7.77006C381.718 7.77006 382.324 7.40767 382.686 6.90987C383.048 6.41208 383.206 5.79914 383.206 5.19239C383.206 4.58563 383.048 3.9727 382.686 3.4749C382.324 2.97711 381.718 2.61472 380.997 2.61472ZM380.997 3.71943C381.38 3.71943 381.602 3.86338 381.793 4.12507C381.983 4.38677 382.101 4.78649 382.101 5.19239C382.101 5.59829 381.983 5.99801 381.793 6.2597C381.602 6.5214 381.38 6.66534 380.997 6.66534C380.613 6.66534 380.391 6.5214 380.2 6.2597C380.01 5.99801 379.892 5.59829 379.892 5.19239C379.892 4.78649 380.01 4.38677 380.2 4.12507C380.391 3.86338 380.613 3.71943 380.997 3.71943ZM376.578 4.45591C376.382 4.45591 376.195 4.5335 376.057 4.67162C375.919 4.80974 375.841 4.99706 375.841 5.19239C375.841 5.38771 375.919 5.57504 376.057 5.71316C376.195 5.85127 376.382 5.92886 376.578 5.92886C376.773 5.92886 376.96 5.85127 377.098 5.71316C377.237 5.57504 377.314 5.38771 377.314 5.19239C377.314 4.99706 377.237 4.80974 377.098 4.67162C376.96 4.5335 376.773 4.45591 376.578 4.45591ZM385.415 4.45591C385.22 4.45591 385.033 4.5335 384.895 4.67162C384.757 4.80974 384.679 4.99706 384.679 5.19239C384.679 5.38771 384.757 5.57504 384.895 5.71316C385.033 5.85127 385.22 5.92886 385.415 5.92886C385.611 5.92886 385.798 5.85127 385.936 5.71316C386.074 5.57504 386.152 5.38771 386.152 5.19239C386.152 4.99706 386.074 4.80974 385.936 4.67162C385.798 4.5335 385.611 4.45591 385.415 4.45591ZM380.988 10.3398C380.842 10.3421 380.702 10.4024 380.6 10.5074C380.498 10.6125 380.442 10.7537 380.444 10.9001V12.8808L379.914 12.3507C379.863 12.2977 379.802 12.2554 379.735 12.2263C379.667 12.1971 379.595 12.1817 379.521 12.1809C379.448 12.1802 379.375 12.1941 379.307 12.2219C379.239 12.2497 379.177 12.2908 379.125 12.3427C379.073 12.3947 379.032 12.4565 379.004 12.5245C378.976 12.5926 378.963 12.6655 378.963 12.7389C378.964 12.8124 378.979 12.885 379.009 12.9525C379.038 13.0199 379.08 13.0809 379.133 13.1318L380.559 14.5573C380.61 14.6248 380.677 14.6794 380.753 14.7169C380.83 14.7544 380.914 14.7738 380.999 14.7735C381.084 14.7732 381.168 14.7533 381.244 14.7153C381.32 14.6773 381.386 14.6222 381.437 14.5544L382.86 13.1318C382.913 13.0809 382.955 13.0199 382.985 12.9525C383.014 12.885 383.029 12.8124 383.03 12.7389C383.031 12.6655 383.017 12.5926 382.989 12.5245C382.961 12.4565 382.92 12.3947 382.868 12.3427C382.816 12.2908 382.754 12.2497 382.686 12.2219C382.618 12.1941 382.545 12.1802 382.472 12.1809C382.398 12.1817 382.326 12.1971 382.258 12.2263C382.191 12.2554 382.13 12.2977 382.079 12.3507L381.549 12.8808V10.9001C381.55 10.8262 381.536 10.7528 381.508 10.6843C381.481 10.6158 381.439 10.5535 381.387 10.5013C381.335 10.449 381.272 10.4078 381.204 10.3801C381.135 10.3524 381.062 10.3387 380.988 10.3398Z" fill="black"/>
<path d="M414.657 0.773529C413.43 0.773529 412.407 1.69103 412.236 2.87353H409.841C409.811 2.86843 409.781 2.86591 409.751 2.86601C409.725 2.86657 409.698 2.86909 409.673 2.87353H408.532C408.463 2.87255 408.394 2.8854 408.329 2.91134C408.265 2.93728 408.206 2.9758 408.156 3.02464C408.107 3.07349 408.068 3.1317 408.041 3.19589C408.014 3.26007 408 3.32895 408 3.39853C408 3.4681 408.014 3.53699 408.041 3.60117C408.068 3.66536 408.107 3.72356 408.156 3.77241C408.206 3.82126 408.265 3.85978 408.329 3.88572C408.394 3.91166 408.463 3.92451 408.532 3.92353H409.281L410.162 13.0338C410.257 14.0161 411.092 14.7735 412.078 14.7735H417.236C418.223 14.7735 419.057 14.0162 419.152 13.0338L420.034 3.92353H420.782C420.852 3.92451 420.921 3.91166 420.986 3.88572C421.05 3.85978 421.109 3.82126 421.159 3.77241C421.208 3.72356 421.247 3.66536 421.274 3.60117C421.301 3.53699 421.315 3.4681 421.315 3.39853C421.315 3.32895 421.301 3.26007 421.274 3.19589C421.247 3.1317 421.208 3.07349 421.159 3.02464C421.109 2.9758 421.05 2.93728 420.986 2.91134C420.921 2.8854 420.852 2.87255 420.782 2.87353H419.643C419.587 2.86449 419.53 2.86449 419.475 2.87353H417.079C416.908 1.69103 415.885 0.773529 414.657 0.773529ZM414.657 1.82353C415.315 1.82353 415.855 2.26739 416.009 2.87353H413.306C413.46 2.26739 414 1.82353 414.657 1.82353ZM410.335 3.92353H418.979L418.107 12.9326C418.063 13.3859 417.691 13.7235 417.236 13.7235H412.078C411.624 13.7235 411.251 13.3853 411.207 12.9326L410.335 3.92353ZM413.424 5.66601C413.285 5.66818 413.153 5.72549 413.056 5.82533C412.959 5.92518 412.905 6.05941 412.907 6.19853V11.4485C412.906 11.5181 412.919 11.5872 412.945 11.6517C412.971 11.7163 413.01 11.775 413.059 11.8246C413.107 11.8741 413.166 11.9135 413.23 11.9403C413.294 11.9672 413.363 11.981 413.432 11.981C413.502 11.981 413.571 11.9672 413.635 11.9403C413.699 11.9135 413.758 11.8741 413.806 11.8246C413.855 11.775 413.894 11.7163 413.92 11.6517C413.946 11.5872 413.958 11.5181 413.957 11.4485V6.19853C413.958 6.12826 413.945 6.05851 413.919 5.9934C413.892 5.92829 413.853 5.86915 413.804 5.81949C413.754 5.76983 413.695 5.73066 413.629 5.70429C413.564 5.67793 413.495 5.66491 413.424 5.66601ZM415.874 5.66601C415.735 5.66818 415.603 5.72549 415.506 5.82533C415.409 5.92518 415.355 6.05941 415.357 6.19853V11.4485C415.356 11.5181 415.369 11.5872 415.395 11.6517C415.421 11.7163 415.46 11.775 415.509 11.8246C415.557 11.8741 415.616 11.9135 415.68 11.9403C415.744 11.9672 415.813 11.981 415.882 11.981C415.952 11.981 416.021 11.9672 416.085 11.9403C416.149 11.9135 416.208 11.8741 416.256 11.8246C416.305 11.775 416.344 11.7163 416.37 11.6517C416.396 11.5872 416.408 11.5181 416.407 11.4485V6.19853C416.408 6.12826 416.395 6.05851 416.369 5.9934C416.342 5.92829 416.303 5.86915 416.254 5.81949C416.204 5.76983 416.145 5.73066 416.079 5.70429C416.014 5.67793 415.945 5.66491 415.874 5.66601Z" fill="black"/>
<path d="M449.197 0.779642C446.295 0.91632 444.072 3.40946 444.072 6.29476V8.90367L443.12 10.8178C443.118 10.8213 443.117 10.8248 443.115 10.8283C442.732 11.6423 443.352 12.6197 444.252 12.6197H447.302C447.302 13.8028 448.273 14.7736 449.456 14.7736C450.639 14.7736 451.61 13.8028 451.61 12.6197H454.66C455.56 12.6197 456.18 11.6425 455.797 10.8283C455.796 10.8248 455.794 10.8213 455.792 10.8178L454.841 8.90367V6.15803C454.841 3.10448 452.279 0.634538 449.197 0.779642ZM449.247 1.85518C451.732 1.73823 453.764 3.7034 453.764 6.15803V9.02988C453.764 9.11306 453.783 9.19514 453.82 9.26966L454.823 11.2875C454.887 11.4257 454.813 11.5427 454.66 11.5427H444.252C444.099 11.5427 444.025 11.4259 444.09 11.2875V11.2868L445.092 9.26966C445.129 9.19514 445.149 9.11306 445.149 9.02988V6.29476C445.149 3.96119 446.936 1.96405 449.247 1.85518ZM448.379 12.6197H450.533C450.533 13.2207 450.057 13.6966 449.456 13.6966C448.855 13.6966 448.379 13.2207 448.379 12.6197Z" fill="black"/>
<path d="M479.756 0.773929C479.691 0.773929 479.626 0.786333 479.564 0.811941L478.059 1.41279L476.72 0.819276C476.563 0.747574 476.379 0.764433 476.232 0.856621C476.089 0.952224 476 1.11262 476 1.28675V11.8713C476 12.9059 476.843 13.7492 477.878 13.7492H485.048C485.099 13.7492 485.15 13.746 485.201 13.7425C485.109 13.5923 485.035 13.4285 484.98 13.2577C484.922 13.0802 484.911 12.899 484.939 12.7249H477.878C477.407 12.7249 477.024 12.3425 477.024 11.8713V2.07566L477.841 2.4371C477.967 2.49515 478.11 2.49565 478.24 2.44444L479.756 1.83959L481.272 2.44444C481.395 2.49565 481.531 2.49565 481.654 2.44444L483.17 1.83959L484.686 2.44444C484.816 2.49565 484.959 2.49515 485.085 2.4371L485.902 2.07566V8.33423C485.963 8.28985 486.028 8.25175 486.096 8.2142C486.185 7.78399 486.506 7.43617 486.926 7.31326V1.28675C486.926 1.11262 486.837 0.952224 486.694 0.856621C486.547 0.764433 486.363 0.747574 486.206 0.819276L484.867 1.41279L483.362 0.811941C483.239 0.760725 483.102 0.760725 482.979 0.811941L481.463 1.41679L479.947 0.811941C479.886 0.786333 479.821 0.773929 479.756 0.773929ZM478.561 4.87184C478.493 4.87088 478.426 4.88342 478.363 4.90873C478.3 4.93404 478.242 4.97161 478.194 5.01926C478.146 5.06692 478.107 5.1237 478.081 5.18632C478.055 5.24893 478.041 5.31613 478.041 5.384C478.041 5.45187 478.055 5.51907 478.081 5.58169C478.107 5.6443 478.146 5.70108 478.194 5.74874C478.242 5.79639 478.3 5.83396 478.363 5.85927C478.426 5.88458 478.493 5.89712 478.561 5.89616H484.365C484.433 5.89712 484.5 5.88458 484.563 5.85927C484.626 5.83396 484.684 5.79639 484.732 5.74874C484.78 5.70108 484.819 5.6443 484.845 5.58169C484.871 5.51907 484.885 5.45187 484.885 5.384C484.885 5.31613 484.871 5.24893 484.845 5.18632C484.819 5.1237 484.78 5.06692 484.732 5.01926C484.684 4.97161 484.626 4.93404 484.563 4.90873C484.5 4.88342 484.433 4.87088 484.365 4.87184H478.561ZM478.561 7.94478C478.493 7.94382 478.426 7.95636 478.363 7.98167C478.3 8.00698 478.242 8.04455 478.194 8.0922C478.146 8.13985 478.107 8.19664 478.081 8.25925C478.055 8.32187 478.041 8.38906 478.041 8.45694C478.041 8.52481 478.055 8.59201 478.081 8.65462C478.107 8.71724 478.146 8.77402 478.194 8.82167C478.242 8.86933 478.3 8.9069 478.363 8.93221C478.426 8.95751 478.493 8.97005 478.561 8.96909H481.634C481.702 8.97005 481.769 8.95751 481.832 8.93221C481.895 8.9069 481.952 8.86933 482.001 8.82167C482.049 8.77402 482.087 8.71724 482.113 8.65462C482.14 8.59201 482.153 8.52481 482.153 8.45694C482.153 8.38906 482.14 8.32187 482.113 8.25925C482.087 8.19664 482.049 8.13985 482.001 8.0922C481.952 8.04455 481.895 8.00698 481.832 7.98167C481.769 7.95636 481.702 7.94382 481.634 7.94478H478.561ZM483.682 7.94478C483.614 7.94382 483.547 7.95636 483.484 7.98167C483.421 8.00698 483.364 8.04455 483.315 8.0922C483.267 8.13985 483.229 8.19664 483.203 8.25925C483.176 8.32187 483.163 8.38906 483.163 8.45694C483.163 8.52481 483.176 8.59201 483.203 8.65462C483.229 8.71724 483.267 8.77402 483.315 8.82167C483.364 8.86933 483.421 8.9069 483.484 8.93221C483.547 8.95751 483.614 8.97005 483.682 8.96909H484.365C484.433 8.97005 484.5 8.95751 484.563 8.93221C484.626 8.9069 484.684 8.86933 484.732 8.82167C484.78 8.77402 484.819 8.71724 484.845 8.65462C484.871 8.59201 484.885 8.52481 484.885 8.45694C484.885 8.38906 484.871 8.32187 484.845 8.25925C484.819 8.19664 484.78 8.13985 484.732 8.0922C484.684 8.04455 484.626 8.00698 484.563 7.98167C484.5 7.95636 484.433 7.94382 484.365 7.94478H483.682ZM487.267 7.94478C486.985 7.94478 486.755 8.17423 486.755 8.45694V8.68167C486.07 8.87356 485.56 9.50118 485.56 10.2441C485.56 11.1414 486.29 11.872 487.187 11.872H487.689C488.021 11.872 488.292 12.1423 488.292 12.4748C488.292 12.8043 488.024 13.0743 487.694 13.077L487.066 13.083C486.855 13.083 486.67 12.9477 486.607 12.7469C486.522 12.4775 486.234 12.3271 485.964 12.4121C485.695 12.4972 485.545 12.7846 485.63 13.0543C485.796 13.5819 486.229 13.9604 486.756 14.0706V14.2614C486.756 14.5441 486.985 14.7735 487.268 14.7735C487.551 14.7735 487.78 14.5441 487.78 14.2614V14.0927C488.633 14.0442 489.316 13.3373 489.316 12.4742C489.316 11.5769 488.586 10.847 487.689 10.847H487.187C486.855 10.847 486.585 10.5764 486.585 10.2428C486.585 9.91538 486.851 9.64541 487.179 9.64063L487.459 9.63596C487.673 9.63596 487.857 9.77224 487.92 9.9754C488.003 10.2462 488.29 10.3981 488.559 10.3155C488.83 10.2329 488.982 9.94639 488.899 9.67598C488.737 9.14572 488.307 8.76437 487.78 8.65033V8.45694C487.78 8.17423 487.55 7.94478 487.267 7.94478ZM478.561 9.99341C478.493 9.99245 478.426 10.005 478.363 10.0303C478.3 10.0556 478.242 10.0932 478.194 10.1408C478.146 10.1885 478.107 10.2453 478.081 10.3079C478.055 10.3705 478.041 10.4377 478.041 10.5056C478.041 10.5734 478.055 10.6406 478.081 10.7032C478.107 10.7659 478.146 10.8226 478.194 10.8703C478.242 10.918 478.3 10.9555 478.363 10.9808C478.426 11.0061 478.493 11.0187 478.561 11.0177H481.634C481.702 11.0187 481.769 11.0061 481.832 10.9808C481.895 10.9555 481.952 10.918 482.001 10.8703C482.049 10.8226 482.087 10.7659 482.113 10.7032C482.14 10.6406 482.153 10.5734 482.153 10.5056C482.153 10.4377 482.14 10.3705 482.113 10.3079C482.087 10.2453 482.049 10.1885 482.001 10.1408C481.952 10.0932 481.895 10.0556 481.832 10.0303C481.769 10.005 481.702 9.99245 481.634 9.99341H478.561ZM483.682 9.99341C483.614 9.99245 483.547 10.005 483.484 10.0303C483.421 10.0556 483.364 10.0932 483.315 10.1408C483.267 10.1885 483.229 10.2453 483.203 10.3079C483.176 10.3705 483.163 10.4377 483.163 10.5056C483.163 10.5734 483.176 10.6406 483.203 10.7032C483.229 10.7659 483.267 10.8226 483.315 10.8703C483.364 10.918 483.421 10.9555 483.484 10.9808C483.547 11.0061 483.614 11.0187 483.682 11.0177H484.365C484.433 11.0187 484.5 11.0061 484.563 10.9808C484.626 10.9555 484.684 10.918 484.732 10.8703C484.78 10.8226 484.819 10.7659 484.845 10.7032C484.871 10.6406 484.885 10.5734 484.885 10.5056C484.885 10.4377 484.871 10.3705 484.845 10.3079C484.819 10.2453 484.78 10.1885 484.732 10.1408C484.684 10.0932 484.626 10.0556 484.563 10.0303C484.5 10.005 484.433 9.99245 484.365 9.99341H483.682Z" fill="black"/>
<path d="M521.424 0.773529C520.763 0.773529 520.101 1.02427 519.6 1.5257L518.192 2.93359C518.142 2.96921 518.098 3.013 518.062 3.06315L511.443 9.68227C511.288 9.83704 511.175 10.0295 511.114 10.2408L510.021 14.0693C509.994 14.1641 509.993 14.2643 510.018 14.3596C510.043 14.455 510.092 14.542 510.162 14.6116C510.232 14.6813 510.319 14.731 510.414 14.7558C510.509 14.7805 510.609 14.7794 510.704 14.7524L514.533 13.6591C514.534 13.6588 514.534 13.6586 514.534 13.6583C514.744 13.598 514.936 13.4861 515.091 13.3308L521.697 6.72468C521.758 6.68379 521.811 6.63092 521.852 6.56921L523.248 5.17355C524.251 4.17074 524.251 2.52851 523.248 1.5257C522.747 1.02427 522.085 0.773529 521.424 0.773529ZM521.424 1.87264C521.8 1.87264 522.176 2.01759 522.465 2.30738C522.466 2.30738 522.466 2.30738 522.466 2.30738C523.047 2.88777 523.047 3.81149 522.466 4.39187L521.383 5.47514L519.298 3.39066L520.382 2.30738C520.671 2.01759 521.048 1.87264 521.424 1.87264ZM518.517 4.17234L520.601 6.25683L514.309 12.5492C514.287 12.5706 514.26 12.5871 514.229 12.5959L513.866 12.6996L512.074 10.9073L512.178 10.5438C512.178 10.5436 512.178 10.5434 512.178 10.5431C512.186 10.5134 512.202 10.4868 512.224 10.464L518.517 4.17234ZM511.726 12.123L512.65 13.0472L511.357 13.4165L511.726 12.123Z" fill="black"/>
<path d="M549.635 0.77356C546.53 0.77356 544 3.30356 544 6.40905C544 9.51454 546.53 12.0445 549.635 12.0445C550.979 12.0445 552.214 11.57 553.183 10.7814L556.996 14.5943C557.05 14.6503 557.114 14.6949 557.186 14.7257C557.257 14.7565 557.333 14.7727 557.411 14.7735C557.489 14.7743 557.566 14.7596 557.637 14.7303C557.709 14.701 557.774 14.6576 557.829 14.6028C557.884 14.5479 557.927 14.4827 557.957 14.4109C557.986 14.3391 558.001 14.2622 558 14.1846C557.999 14.107 557.983 14.0304 557.952 13.9592C557.921 13.888 557.877 13.8237 557.821 13.77L554.008 9.95704C554.796 8.98727 555.271 7.75238 555.271 6.40905C555.271 3.30356 552.741 0.77356 549.635 0.77356ZM549.635 1.93952C552.111 1.93952 554.105 3.93369 554.105 6.40905C554.105 7.61489 553.629 8.70433 552.858 9.5069C552.81 9.54185 552.768 9.58383 552.733 9.63139C551.931 10.4029 550.841 10.8786 549.635 10.8786C547.16 10.8786 545.166 8.88441 545.166 6.40905C545.166 3.93369 547.16 1.93952 549.635 1.93952Z" fill="black"/>
<path d="M580.147 0.773529C578.974 0.773529 578.01 1.73737 578.01 2.91088V11.7669C577.907 13.1869 578.589 14.7045 580.067 14.7589C580.094 14.7623 580.121 14.7638 580.147 14.7635H589.863C590.508 14.7635 591.069 14.3983 591.433 13.8974C591.797 13.3966 592 12.748 592 12.0432C592 11.3383 591.797 10.6898 591.433 10.1889C591.069 9.68812 590.508 9.32293 589.863 9.32293H589.668V2.91088C589.668 1.73737 588.705 0.773529 587.531 0.773529H580.147ZM580.147 1.93936H587.531C588.074 1.93936 588.503 2.36752 588.503 2.91088V9.32293H580.147C580.122 9.32276 580.096 9.32428 580.071 9.32748C579.731 9.33939 579.432 9.42702 579.176 9.57491V2.91088C579.176 2.36752 579.604 1.93936 580.147 1.93936ZM581.313 3.10518C581.236 3.10409 581.159 3.11836 581.088 3.14716C581.016 3.17597 580.951 3.21873 580.896 3.27297C580.841 3.32721 580.797 3.39183 580.767 3.4631C580.737 3.53437 580.722 3.61085 580.722 3.6881C580.722 3.76535 580.737 3.84183 580.767 3.91309C580.797 3.98436 580.841 4.04899 580.896 4.10322C580.951 4.15746 581.016 4.20022 581.088 4.22903C581.159 4.25783 581.236 4.2721 581.313 4.27101H582.09C582.168 4.2721 582.244 4.25783 582.316 4.22903C582.388 4.20022 582.453 4.15746 582.508 4.10322C582.563 4.04899 582.607 3.98436 582.637 3.91309C582.666 3.84183 582.682 3.76535 582.682 3.6881C582.682 3.61085 582.666 3.53437 582.637 3.4631C582.607 3.39183 582.563 3.32721 582.508 3.27297C582.453 3.21873 582.388 3.17597 582.316 3.14716C582.244 3.11836 582.168 3.10409 582.09 3.10518H581.313ZM584.034 3.10518C583.956 3.10409 583.88 3.11836 583.808 3.14716C583.736 3.17597 583.671 3.21873 583.616 3.27297C583.561 3.32721 583.517 3.39183 583.487 3.4631C583.458 3.53437 583.442 3.61085 583.442 3.6881C583.442 3.76535 583.458 3.84183 583.487 3.91309C583.517 3.98436 583.561 4.04899 583.616 4.10322C583.671 4.15746 583.736 4.20022 583.808 4.22903C583.88 4.25783 583.956 4.2721 584.034 4.27101H586.365C586.442 4.2721 586.519 4.25783 586.591 4.22903C586.662 4.20022 586.728 4.15746 586.783 4.10322C586.838 4.04899 586.881 3.98436 586.911 3.91309C586.941 3.84183 586.956 3.76535 586.956 3.6881C586.956 3.61085 586.941 3.53437 586.911 3.4631C586.881 3.39183 586.838 3.32721 586.783 3.27297C586.728 3.21873 586.662 3.17597 586.591 3.14716C586.519 3.11836 586.442 3.10409 586.365 3.10518H584.034ZM581.313 5.04823C581.236 5.04713 581.159 5.06141 581.088 5.09021C581.016 5.11901 580.951 5.16178 580.896 5.21601C580.841 5.27025 580.797 5.33488 580.767 5.40614C580.737 5.47741 580.722 5.55389 580.722 5.63114C580.722 5.70839 580.737 5.78487 580.767 5.85614C580.797 5.9274 580.841 5.99203 580.896 6.04627C580.951 6.1005 581.016 6.14327 581.088 6.17207C581.159 6.20088 581.236 6.21515 581.313 6.21405H583.645C583.722 6.21515 583.799 6.20088 583.871 6.17207C583.942 6.14327 584.007 6.1005 584.062 6.04627C584.117 5.99203 584.161 5.9274 584.191 5.85614C584.221 5.78487 584.236 5.70839 584.236 5.63114C584.236 5.55389 584.221 5.47741 584.191 5.40614C584.161 5.33488 584.117 5.27025 584.062 5.21601C584.007 5.16178 583.942 5.11901 583.871 5.09021C583.799 5.06141 583.722 5.04713 583.645 5.04823H581.313ZM585.588 5.04823C585.511 5.04713 585.434 5.06141 585.362 5.09021C585.291 5.11901 585.225 5.16178 585.17 5.21601C585.115 5.27025 585.072 5.33488 585.042 5.40614C585.012 5.47741 584.997 5.55389 584.997 5.63114C584.997 5.70839 585.012 5.78487 585.042 5.85614C585.072 5.9274 585.115 5.99203 585.17 6.04627C585.225 6.1005 585.291 6.14327 585.362 6.17207C585.434 6.20088 585.511 6.21515 585.588 6.21405H586.365C586.442 6.21515 586.519 6.20088 586.591 6.17207C586.662 6.14327 586.728 6.1005 586.783 6.04627C586.838 5.99203 586.881 5.9274 586.911 5.85614C586.941 5.78487 586.956 5.70839 586.956 5.63114C586.956 5.55389 586.941 5.47741 586.911 5.40614C586.881 5.33488 586.838 5.27025 586.783 5.21601C586.728 5.16178 586.662 5.11901 586.591 5.09021C586.519 5.06141 586.442 5.04713 586.365 5.04823H585.588ZM581.313 6.99127C581.236 6.99018 581.159 7.00445 581.088 7.03325C581.016 7.06206 580.951 7.10482 580.896 7.15906C580.841 7.21329 580.797 7.27792 580.767 7.34919C580.737 7.42045 580.722 7.49693 580.722 7.57419C580.722 7.65144 580.737 7.72792 580.767 7.79918C580.797 7.87045 580.841 7.93508 580.896 7.98931C580.951 8.04355 581.016 8.08631 581.088 8.11512C581.159 8.14392 581.236 8.15819 581.313 8.1571H583.645C583.722 8.15819 583.799 8.14392 583.871 8.11512C583.942 8.08631 584.007 8.04355 584.062 7.98931C584.117 7.93508 584.161 7.87045 584.191 7.79918C584.221 7.72792 584.236 7.65144 584.236 7.57419C584.236 7.49693 584.221 7.42045 584.191 7.34919C584.161 7.27792 584.117 7.21329 584.062 7.15906C584.007 7.10482 583.942 7.06206 583.871 7.03325C583.799 7.00445 583.722 6.99018 583.645 6.99127H581.313ZM580.147 10.4888C581.419 10.4888 581.419 13.5976 580.147 13.5976C578.876 13.5976 578.876 10.4888 580.147 10.4888ZM581.951 10.4888H589.863C590.075 10.4888 590.292 10.6016 590.49 10.8743C590.689 11.147 590.834 11.5674 590.834 12.0432C590.834 12.5189 590.689 12.9394 590.49 13.2121C590.292 13.4847 590.075 13.5976 589.863 13.5976H581.951C582.418 12.6793 582.418 11.4071 581.951 10.4888Z" fill="black"/>
<path d="M617.334 0.773683C617.188 0.777128 617.05 0.838143 616.949 0.943407L615.866 2.02576L614.784 0.943407C614.733 0.890389 614.671 0.848241 614.603 0.819458C614.535 0.790676 614.462 0.775844 614.388 0.775841C614.278 0.775868 614.17 0.808688 614.079 0.870104C613.988 0.93152 613.917 1.01874 613.876 1.1206C613.835 1.22246 613.825 1.33433 613.847 1.44189C613.87 1.54946 613.924 1.64783 614.003 1.72442L615.476 3.19728C615.579 3.30082 615.72 3.35899 615.866 3.35899C616.013 3.35899 616.153 3.30082 616.257 3.19728L617.73 1.72442C617.81 1.64734 617.865 1.54778 617.888 1.4388C617.911 1.32982 617.9 1.21651 617.857 1.11373C617.814 1.01094 617.742 0.923475 617.648 0.862795C617.555 0.802115 617.445 0.771054 617.334 0.773683ZM621.382 0.781594C621.238 0.783696 621.101 0.841743 620.999 0.943407L619.526 2.41626C619.473 2.46716 619.431 2.52812 619.402 2.59557C619.373 2.66303 619.357 2.73562 619.356 2.8091C619.356 2.88258 619.37 2.95547 619.397 3.0235C619.425 3.09154 619.466 3.15334 619.518 3.2053C619.57 3.25727 619.632 3.29834 619.7 3.32611C619.768 3.35389 619.841 3.36781 619.914 3.36706C619.988 3.36632 620.06 3.35091 620.128 3.32176C620.195 3.29261 620.256 3.25029 620.307 3.19728L621.39 2.11493L622.472 3.19728C622.523 3.25029 622.584 3.29261 622.651 3.32176C622.719 3.35091 622.791 3.36632 622.865 3.36706C622.938 3.36781 623.011 3.35389 623.079 3.32611C623.147 3.29834 623.209 3.25727 623.261 3.2053C623.313 3.15334 623.354 3.09154 623.382 3.0235C623.41 2.95547 623.423 2.88258 623.423 2.8091C623.422 2.73562 623.407 2.66303 623.377 2.59557C623.348 2.52812 623.306 2.46716 623.253 2.41626L621.78 0.943407C621.728 0.891168 621.666 0.849931 621.597 0.822138C621.529 0.794344 621.456 0.780558 621.382 0.781594ZM612.921 4.09552C612.419 4.09552 612 4.51397 612 5.01606V5.41736C612 6.26302 612.389 7.0629 613.053 7.58637L616.787 10.5285V14.2214C616.787 14.3229 616.815 14.4223 616.868 14.5089C616.921 14.5955 616.996 14.6658 617.086 14.7123C617.177 14.7587 617.278 14.7794 617.379 14.7721C617.48 14.7648 617.577 14.7298 617.66 14.6709L620.237 12.8298C620.309 12.7788 620.367 12.7113 620.408 12.6331C620.448 12.555 620.469 12.4683 620.469 12.3804V10.5278L624.203 7.58637C624.867 7.0629 625.256 6.26302 625.256 5.41736V5.01606C625.256 4.51397 624.837 4.09552 624.335 4.09552H612.921ZM613.105 5.20017H624.151V5.41736C624.151 5.92525 623.919 6.40374 623.52 6.71833L619.838 9.61874H617.418L613.736 6.71833C613.337 6.40374 613.105 5.92525 613.105 5.41736V5.20017ZM617.892 10.7234H619.364V12.0963L617.892 13.1484V10.7234Z" fill="black"/>
<path d="M651.6 0.77356C650.736 0.77356 650.025 1.48493 650.025 2.34856V4.44856C650.025 5.31218 650.736 6.02356 651.6 6.02356H652.125V7.42356H649.675C648.811 7.42356 648.1 8.13493 648.1 8.99856V9.52356H647.575C646.711 9.52356 646 10.2349 646 11.0986V13.1986C646 14.0622 646.711 14.7736 647.575 14.7736H649.675C650.539 14.7736 651.25 14.0622 651.25 13.1986V11.0986C651.25 10.2349 650.539 9.52356 649.675 9.52356H649.15V8.99856C649.15 8.70228 649.379 8.47356 649.675 8.47356H655.625C655.921 8.47356 656.15 8.70228 656.15 8.99856V9.52356H655.625C654.761 9.52356 654.05 10.2349 654.05 11.0986V13.1986C654.05 14.0622 654.761 14.7736 655.625 14.7736H657.725C658.589 14.7736 659.3 14.0622 659.3 13.1986V11.0986C659.3 10.2349 658.589 9.52356 657.725 9.52356H657.2V8.99856C657.2 8.13493 656.489 7.42356 655.625 7.42356H653.175V6.02356H653.7C654.564 6.02356 655.275 5.31218 655.275 4.44856V2.34856C655.275 1.48493 654.564 0.77356 653.7 0.77356H651.6ZM651.6 1.82356H653.7C653.996 1.82356 654.225 2.05228 654.225 2.34856V4.44856C654.225 4.74483 653.996 4.97356 653.7 4.97356H651.6C651.304 4.97356 651.075 4.74483 651.075 4.44856V2.34856C651.075 2.05228 651.304 1.82356 651.6 1.82356ZM647.575 10.5736H649.675C649.971 10.5736 650.2 10.8023 650.2 11.0986V13.1986C650.2 13.4948 649.971 13.7236 649.675 13.7236H647.575C647.279 13.7236 647.05 13.4948 647.05 13.1986V11.0986C647.05 10.8023 647.279 10.5736 647.575 10.5736ZM655.625 10.5736H657.725C658.021 10.5736 658.25 10.8023 658.25 11.0986V13.1986C658.25 13.4948 658.021 13.7236 657.725 13.7236H655.625C655.329 13.7236 655.1 13.4948 655.1 13.1986V11.0986C655.1 10.8023 655.329 10.5736 655.625 10.5736Z" fill="black"/>
<path d="M683.675 2C683.536 2.00001 683.402 2.05533 683.304 2.15378C683.205 2.25224 683.15 2.38577 683.15 2.525V7.075C683.15 7.39468 683.249 7.68367 683.389 7.95H680.525C680.386 7.95001 680.252 8.00533 680.154 8.10378C680.055 8.20224 680 8.33577 680 8.475V13.025C680 14.0819 680.868 14.95 681.925 14.95H685.6C686.155 14.95 686.648 14.7032 687 14.3231C687.352 14.7032 687.845 14.95 688.4 14.95H692.075C693.132 14.95 694 14.0819 694 13.025V8.475C694 8.33577 693.945 8.20224 693.846 8.10378C693.748 8.00533 693.614 7.95001 693.475 7.95H690.261C690.401 7.68367 690.5 7.39468 690.5 7.075V2.525C690.5 2.38577 690.445 2.25224 690.346 2.15378C690.248 2.05533 690.114 2.00001 689.975 2H683.675ZM684.2 3.05H689.45V7.075C689.45 7.56438 689.064 7.95 688.575 7.95H687H685.075C684.586 7.95 684.2 7.56438 684.2 7.075V3.05ZM686.125 4.1C686.055 4.09902 685.986 4.11187 685.922 4.13781C685.857 4.16375 685.798 4.20227 685.749 4.25112C685.699 4.29996 685.66 4.35817 685.633 4.42236C685.606 4.48654 685.593 4.55542 685.593 4.625C685.593 4.69458 685.606 4.76346 685.633 4.82764C685.66 4.89183 685.699 4.95004 685.749 4.99888C685.798 5.04773 685.857 5.08625 685.922 5.11219C685.986 5.13813 686.055 5.15098 686.125 5.15H687.525C687.595 5.15098 687.664 5.13813 687.728 5.11219C687.793 5.08625 687.852 5.04773 687.901 4.99888C687.951 4.95004 687.99 4.89183 688.017 4.82764C688.044 4.76346 688.057 4.69458 688.057 4.625C688.057 4.55542 688.044 4.48654 688.017 4.42236C687.99 4.35817 687.951 4.29996 687.901 4.25112C687.852 4.20227 687.793 4.16375 687.728 4.13781C687.664 4.11187 687.595 4.09902 687.525 4.1H686.125ZM681.05 9H685.075H686.475V13.025C686.475 13.5144 686.089 13.9 685.6 13.9H681.925C681.436 13.9 681.05 13.5144 681.05 13.025V9ZM687.525 9H688.575H692.95V13.025C692.95 13.5144 692.564 13.9 692.075 13.9H688.4C687.911 13.9 687.525 13.5144 687.525 13.025V9ZM682.975 10.05C682.905 10.049 682.836 10.0619 682.772 10.0878C682.707 10.1138 682.648 10.1523 682.599 10.2011C682.549 10.25 682.51 10.3082 682.483 10.3724C682.456 10.4365 682.443 10.5054 682.443 10.575C682.443 10.6446 682.456 10.7135 682.483 10.7776C682.51 10.8418 682.549 10.9 682.599 10.9489C682.648 10.9977 682.707 11.0362 682.772 11.0622C682.836 11.0881 682.905 11.101 682.975 11.1H684.375C684.445 11.101 684.514 11.0881 684.578 11.0622C684.643 11.0362 684.702 10.9977 684.751 10.9489C684.801 10.9 684.84 10.8418 684.867 10.7776C684.894 10.7135 684.907 10.6446 684.907 10.575C684.907 10.5054 684.894 10.4365 684.867 10.3724C684.84 10.3082 684.801 10.25 684.751 10.2011C684.702 10.1523 684.643 10.1138 684.578 10.0878C684.514 10.0619 684.445 10.049 684.375 10.05H682.975ZM689.625 10.05C689.555 10.049 689.486 10.0619 689.422 10.0878C689.357 10.1138 689.298 10.1523 689.249 10.2011C689.199 10.25 689.16 10.3082 689.133 10.3724C689.106 10.4365 689.093 10.5054 689.093 10.575C689.093 10.6446 689.106 10.7135 689.133 10.7776C689.16 10.8418 689.199 10.9 689.249 10.9489C689.298 10.9977 689.357 11.0362 689.422 11.0622C689.486 11.0881 689.555 11.101 689.625 11.1H691.025C691.095 11.101 691.164 11.0881 691.228 11.0622C691.293 11.0362 691.352 10.9977 691.401 10.9489C691.451 10.9 691.49 10.8418 691.517 10.7776C691.544 10.7135 691.557 10.6446 691.557 10.575C691.557 10.5054 691.544 10.4365 691.517 10.3724C691.49 10.3082 691.451 10.25 691.401 10.2011C691.352 10.1523 691.293 10.1138 691.228 10.0878C691.164 10.0619 691.095 10.049 691.025 10.05H689.625Z" fill="black"/>
<path d="M721.97 2.17355C721.854 2.17358 721.74 2.20823 721.644 2.27305C721.548 2.33788 721.473 2.42994 721.43 2.53745C721.386 2.64497 721.375 2.76305 721.399 2.87659C721.423 2.99013 721.48 3.09397 721.564 3.17481L726.01 7.62089H714.591C714.514 7.61979 714.437 7.63407 714.366 7.66287C714.294 7.69168 714.229 7.73445 714.174 7.78869C714.119 7.84294 714.075 7.90758 714.045 7.97885C714.015 8.05013 714 8.12662 714 8.20388C714 8.28114 714.015 8.35763 714.045 8.4289C714.075 8.50018 714.119 8.56482 714.174 8.61906C714.229 8.67331 714.294 8.71607 714.366 8.74488C714.437 8.77369 714.514 8.78796 714.591 8.78687H726.01L721.564 13.2329C721.508 13.2867 721.463 13.351 721.432 13.4222C721.402 13.4934 721.385 13.57 721.384 13.6476C721.384 13.7252 721.398 13.8021 721.428 13.8739C721.457 13.9457 721.5 14.011 721.555 14.0658C721.61 14.1206 721.675 14.164 721.747 14.1933C721.819 14.2226 721.896 14.2373 721.973 14.2365C722.051 14.2358 722.128 14.2195 722.199 14.1887C722.27 14.158 722.334 14.1133 722.388 14.0573L727.829 8.61607C727.939 8.50674 728 8.35847 728 8.20388C728 8.04928 727.939 7.90102 727.829 7.79168L722.388 2.35042C722.334 2.29446 722.269 2.24997 722.197 2.21959C722.125 2.18921 722.048 2.17356 721.97 2.17355Z" fill="black"/>
<path d="M754.994 4.52772C754.88 4.52938 754.771 4.57536 754.691 4.65589L749.003 10.3434C748.961 10.3837 748.928 10.432 748.905 10.4854C748.881 10.5389 748.869 10.5964 748.869 10.6546C748.868 10.7128 748.879 10.7705 748.901 10.8244C748.923 10.8783 748.956 10.9272 748.997 10.9684C749.038 11.0096 749.087 11.0421 749.141 11.0641C749.195 11.0861 749.252 11.0971 749.311 11.0965C749.369 11.0959 749.426 11.0837 749.48 11.0606C749.533 11.0376 749.581 11.004 749.622 10.962L755 5.58387L760.378 10.962C760.418 11.004 760.467 11.0376 760.52 11.0606C760.574 11.0837 760.631 11.0959 760.689 11.0965C760.748 11.0971 760.805 11.0861 760.859 11.0641C760.913 11.0421 760.962 11.0096 761.003 10.9684C761.044 10.9272 761.077 10.8783 761.099 10.8244C761.121 10.7705 761.132 10.7128 761.131 10.6546C761.131 10.5964 761.119 10.5389 761.095 10.4854C761.072 10.432 761.039 10.3837 760.997 10.3434L755.309 4.65589C755.268 4.61451 755.219 4.58185 755.165 4.55983C755.11 4.53782 755.052 4.5269 754.994 4.52772Z" fill="black"/>
<path d="M788.994 3.21522C788.88 3.21688 788.771 3.26286 788.691 3.34339L783.003 9.03089C782.961 9.07121 782.928 9.11949 782.905 9.17292C782.881 9.22635 782.869 9.28386 782.869 9.34206C782.868 9.40027 782.879 9.458 782.901 9.51189C782.923 9.56578 782.956 9.61474 782.997 9.6559C783.038 9.69706 783.087 9.72959 783.141 9.75159C783.195 9.77359 783.252 9.78462 783.311 9.78403C783.369 9.78344 783.426 9.77124 783.48 9.74815C783.533 9.72505 783.581 9.69153 783.622 9.64954L789 4.27137L794.378 9.64954C794.418 9.69153 794.467 9.72505 794.52 9.74815C794.574 9.77124 794.631 9.78344 794.689 9.78403C794.748 9.78462 794.805 9.77359 794.859 9.75159C794.913 9.72959 794.962 9.69706 795.003 9.6559C795.044 9.61474 795.077 9.56578 795.099 9.51189C795.121 9.458 795.132 9.40026 795.131 9.34206C795.131 9.28386 795.119 9.22635 795.095 9.17292C795.072 9.11949 795.039 9.07121 794.997 9.03089L789.309 3.34339C789.268 3.30201 789.219 3.26935 789.165 3.24733C789.11 3.22532 789.052 3.2144 788.994 3.21522ZM788.994 6.71522C788.88 6.71688 788.771 6.76286 788.691 6.84339L783.003 12.5309C782.961 12.5712 782.928 12.6195 782.905 12.6729C782.881 12.7264 782.869 12.7839 782.869 12.8421C782.868 12.9003 782.879 12.958 782.901 13.0119C782.923 13.0658 782.956 13.1147 782.997 13.1559C783.038 13.1971 783.087 13.2296 783.141 13.2516C783.195 13.2736 783.252 13.2846 783.311 13.284C783.369 13.2834 783.426 13.2712 783.48 13.2481C783.533 13.2251 783.581 13.1915 783.622 13.1495L789 7.77137L794.378 13.1495C794.418 13.1915 794.467 13.2251 794.52 13.2481C794.574 13.2712 794.631 13.2834 794.689 13.284C794.748 13.2846 794.805 13.2736 794.859 13.2516C794.913 13.2296 794.962 13.1971 795.003 13.1559C795.044 13.1147 795.077 13.0658 795.099 13.0119C795.121 12.958 795.132 12.9003 795.131 12.8421C795.131 12.7839 795.119 12.7264 795.095 12.6729C795.072 12.6195 795.039 12.5712 794.997 12.5309L789.309 6.84339C789.268 6.80201 789.219 6.76935 789.165 6.74733C789.11 6.72532 789.052 6.7144 788.994 6.71522Z" fill="black"/>
<path d="M818.757 2.92355C818.646 2.92726 818.54 2.97308 818.462 3.05173L817.878 3.63506C817.808 3.70547 817.763 3.79782 817.752 3.89684C817.742 3.99586 817.765 4.09563 817.818 4.17966L818.942 5.9439C819.258 6.44948 819.943 6.54364 820.407 6.19968L822.687 8.47889C822.297 9.15029 822.357 10.0172 822.927 10.5935H822.926L825.234 12.9331C825.235 12.9333 825.235 12.9335 825.235 12.9336C825.918 13.6212 827.041 13.6252 827.729 12.9428C828.416 12.2608 828.421 11.1372 827.739 10.4499L827.738 10.4488L825.434 8.11374C825.434 8.11374 825.434 8.11374 825.434 8.11374C824.859 7.53291 823.983 7.46782 823.306 7.86081L821.026 5.58103C821.37 5.11675 821.276 4.43283 820.771 4.11643L819.006 2.99191C818.932 2.9445 818.845 2.92067 818.757 2.92355ZM825.162 2.92355C823.524 2.92355 822.186 4.21804 822.107 5.83737L823.04 6.76991C823.064 6.69378 823.067 6.61199 823.047 6.53236C822.999 6.34657 822.975 6.1628 822.975 5.98605C822.975 4.77972 823.956 3.79855 825.162 3.79855C825.274 3.79855 825.385 3.80727 825.494 3.82419L824.551 4.76641C824.303 5.01433 824.167 5.3438 824.167 5.69439C824.167 6.04497 824.303 6.37445 824.551 6.62237C824.799 6.87028 825.129 7.00689 825.479 7.00689C825.83 7.00689 826.159 6.87028 826.407 6.62237L827.331 5.69895C827.344 5.79374 827.35 5.88951 827.35 5.98605C827.35 6.85493 826.84 7.61103 826.104 7.96278L826.742 8.60821C827.63 8.07154 828.225 7.09674 828.225 5.98549C828.225 5.53544 828.127 5.09906 827.933 4.68723C827.873 4.55831 827.753 4.4662 827.613 4.4417C827.473 4.4172 827.329 4.46299 827.228 4.56361L825.789 6.00314C825.623 6.16823 825.335 6.16852 825.17 6.00314C825.087 5.92089 825.042 5.81105 825.042 5.69439C825.042 5.57772 825.087 5.4679 825.17 5.38506L826.618 3.93641C826.718 3.83637 826.764 3.69445 826.74 3.55474C826.717 3.41532 826.627 3.29558 826.501 3.23345C826.078 3.02783 825.628 2.92355 825.162 2.92355ZM818.832 3.91875L820.303 4.85585C820.304 4.85642 820.306 4.85699 820.307 4.85756C820.394 4.9122 820.405 5.01121 820.332 5.08428L819.911 5.50583C819.837 5.57922 819.739 5.56844 819.684 5.4802C819.683 5.47905 819.683 5.47791 819.682 5.47678L818.745 4.00534L818.832 3.91875ZM821.02 7.6375L818.262 10.4175C817.93 10.7517 817.748 11.1957 817.75 11.6667C817.752 12.1378 817.937 12.5798 818.271 12.9114C818.603 13.2419 819.044 13.4236 819.513 13.4236H819.519C819.99 13.4218 820.433 13.2369 820.765 12.9023L822.578 11.0743L822.476 10.9717C822.297 10.7909 822.157 10.5849 822.049 10.3656L820.144 12.2859C819.977 12.4542 819.754 12.5477 819.517 12.5486C819.268 12.5445 819.056 12.4579 818.888 12.2905C818.719 12.1234 818.626 11.9007 818.625 11.6633C818.624 11.4262 818.716 11.2027 818.883 11.0344L821.639 8.25616L821.02 7.6375ZM824.184 8.46237C824.41 8.46339 824.637 8.55248 824.812 8.72897L827.116 11.0646C827.116 11.065 827.117 11.0653 827.117 11.0657C827.466 11.4169 827.464 11.9729 827.112 12.3218C826.76 12.6713 826.206 12.6692 825.856 12.3173L823.549 9.97881C823.549 9.97862 823.549 9.97843 823.549 9.97824C823.2 9.62611 823.203 9.07192 823.554 8.72328C823.73 8.54837 823.957 8.46135 824.184 8.46237Z" fill="black"/>
<path d="M857 2.34022C853.783 2.34022 851.167 4.95708 851.167 8.17356C851.167 11.39 853.783 14.0069 857 14.0069C860.216 14.0069 862.833 11.39 862.833 8.17356C862.833 4.95708 860.216 2.34022 857 2.34022ZM857 3.21522C859.744 3.21522 861.958 5.42996 861.958 8.17356C861.958 10.9171 859.744 13.1319 857 13.1319C854.256 13.1319 852.042 10.9171 852.042 8.17356C852.042 5.42996 854.256 3.21522 857 3.21522ZM857 4.96522C856.039 4.96522 855.25 5.75393 855.25 6.71522V6.86105C855.249 6.91903 855.26 6.97659 855.281 7.03039C855.303 7.08419 855.335 7.13315 855.376 7.17444C855.417 7.21572 855.465 7.24851 855.519 7.27089C855.572 7.29326 855.629 7.30479 855.687 7.30479C855.745 7.30479 855.803 7.29326 855.856 7.27089C855.91 7.24851 855.958 7.21572 855.999 7.17444C856.04 7.13315 856.072 7.08419 856.093 7.03039C856.115 6.97659 856.126 6.91903 856.125 6.86105V6.71522C856.125 6.22693 856.512 5.84022 857 5.84022C857.488 5.84022 857.875 6.22693 857.875 6.71522C857.875 7.39799 857.697 7.48354 857.386 7.72808C857.231 7.85035 857.027 7.99132 856.852 8.22881C856.678 8.4663 856.562 8.79735 856.562 9.19439C856.562 9.25236 856.572 9.30992 856.594 9.36372C856.616 9.41752 856.648 9.46648 856.688 9.50777C856.729 9.54906 856.778 9.58184 856.831 9.60422C856.885 9.6266 856.942 9.63812 857 9.63812C857.058 9.63812 857.115 9.6266 857.169 9.60422C857.222 9.58184 857.271 9.54906 857.312 9.50777C857.352 9.46648 857.384 9.41752 857.406 9.36372C857.428 9.30992 857.438 9.25236 857.437 9.19439C857.437 8.94553 857.486 8.84444 857.558 8.74663C857.629 8.64883 857.754 8.55176 857.926 8.41623C858.271 8.14518 858.75 7.63662 858.75 6.71522C858.75 5.75393 857.961 4.96522 857 4.96522ZM857 10.5069C856.845 10.5069 856.697 10.5683 856.587 10.6777C856.478 10.7871 856.417 10.9355 856.417 11.0902C856.417 11.2449 856.478 11.3933 856.587 11.5027C856.697 11.6121 856.845 11.6736 857 11.6736C857.155 11.6736 857.303 11.6121 857.412 11.5027C857.522 11.3933 857.583 11.2449 857.583 11.0902C857.583 10.9355 857.522 10.7871 857.412 10.6777C857.303 10.5683 857.155 10.5069 857 10.5069Z" fill="black"/>
<path d="M885.659 0.773719C885.512 0.776009 885.372 0.836387 885.27 0.941593C885.168 1.0468 885.112 1.18823 885.114 1.33481V1.88799H884.561C884.488 1.88695 884.415 1.90049 884.347 1.92783C884.279 1.95516 884.217 1.99574 884.165 2.04721C884.113 2.09868 884.071 2.16001 884.043 2.22764C884.015 2.29527 884 2.36785 884 2.44116C884 2.51447 884.015 2.58705 884.043 2.65468C884.071 2.72231 884.113 2.78364 884.165 2.83511C884.217 2.88658 884.279 2.92716 884.347 2.95449C884.415 2.98183 884.488 2.99537 884.561 2.99433H885.114V3.54751C885.113 3.62081 885.127 3.69358 885.154 3.76161C885.181 3.82963 885.222 3.89154 885.273 3.94374C885.325 3.99595 885.386 4.0374 885.454 4.06569C885.522 4.09399 885.594 4.10856 885.667 4.10856C885.741 4.10856 885.813 4.09399 885.881 4.06569C885.949 4.0374 886.01 3.99595 886.061 3.94374C886.113 3.89154 886.153 3.82963 886.181 3.76161C886.208 3.69358 886.222 3.62081 886.221 3.54751V2.99433H886.774C886.847 2.99537 886.92 2.98183 886.988 2.95449C887.056 2.92716 887.118 2.88658 887.17 2.83511C887.222 2.78364 887.264 2.72231 887.292 2.65468C887.32 2.58705 887.335 2.51447 887.335 2.44116C887.335 2.36785 887.32 2.29527 887.292 2.22764C887.264 2.16001 887.222 2.09868 887.17 2.04721C887.118 1.99574 887.056 1.95516 886.988 1.92783C886.92 1.90049 886.847 1.88695 886.774 1.88799H886.221V1.33481C886.222 1.26078 886.208 1.18728 886.18 1.11867C886.152 1.05007 886.111 0.987762 886.058 0.935437C886.006 0.883112 885.944 0.841837 885.875 0.814058C885.806 0.786279 885.733 0.772562 885.659 0.773719ZM894.51 2.24885C894.363 2.25114 894.223 2.31151 894.121 2.41672C894.019 2.52193 893.963 2.66335 893.965 2.80994V3.36311H893.412C893.339 3.36208 893.266 3.37562 893.198 3.40295C893.13 3.43029 893.068 3.47087 893.016 3.52234C892.963 3.57381 892.922 3.63514 892.894 3.70277C892.865 3.7704 892.851 3.84298 892.851 3.91629C892.851 3.9896 892.865 4.06217 892.894 4.1298C892.922 4.19743 892.963 4.25876 893.016 4.31023C893.068 4.3617 893.13 4.40229 893.198 4.42962C893.266 4.45695 893.339 4.4705 893.412 4.46946H893.965V5.02263C893.964 5.09593 893.977 5.16871 894.005 5.23673C894.032 5.30476 894.073 5.36667 894.124 5.41887C894.176 5.47107 894.237 5.51253 894.305 5.54082C894.372 5.56911 894.445 5.58368 894.518 5.58368C894.591 5.58368 894.664 5.56911 894.732 5.54082C894.799 5.51253 894.861 5.47107 894.912 5.41887C894.964 5.36667 895.004 5.30476 895.031 5.23673C895.059 5.16871 895.072 5.09593 895.071 5.02263V4.46946H895.625C895.698 4.4705 895.771 4.45695 895.839 4.42962C895.907 4.40229 895.969 4.3617 896.021 4.31023C896.073 4.25876 896.114 4.19743 896.143 4.1298C896.171 4.06217 896.186 3.9896 896.186 3.91629C896.186 3.84298 896.171 3.7704 896.143 3.70277C896.114 3.63514 896.073 3.57381 896.021 3.52234C895.969 3.47087 895.907 3.43029 895.839 3.40295C895.771 3.37562 895.698 3.36208 895.625 3.36311H895.071V2.80994C895.072 2.7359 895.059 2.6624 895.031 2.5938C895.003 2.5252 894.961 2.46289 894.909 2.41056C894.857 2.35824 894.794 2.31696 894.726 2.28918C894.657 2.26141 894.584 2.24769 894.51 2.24885ZM888.633 4.11868C888.207 4.11868 887.78 4.27953 887.459 4.60127C886.815 5.24474 886.815 6.30518 887.459 6.94865L888.318 7.80722L888.32 7.8101C888.355 7.85866 888.398 7.90123 888.446 7.93615L895.171 14.6599C895.814 15.303 896.874 15.303 897.517 14.6599C898.161 14.0165 898.161 12.956 897.517 12.3126L890.777 5.57292C890.776 5.57172 890.775 5.57052 890.774 5.56932C890.739 5.52108 890.697 5.47876 890.649 5.44399L889.806 4.60127C889.484 4.27953 889.059 4.11868 888.633 4.11868ZM888.633 5.21855C888.773 5.21855 888.913 5.27374 889.024 5.38421L889.542 5.90281L888.77 6.69512L888.242 6.16643C888.021 5.94548 888.021 5.60516 888.242 5.38421C888.352 5.27374 888.492 5.21855 888.633 5.21855ZM890.325 6.68503L896.735 13.0955C896.956 13.3164 896.956 13.6568 896.735 13.8777C896.514 14.0982 896.174 14.0979 895.953 13.8777H895.952L889.553 7.47734L890.325 6.68503ZM887.134 9.99326C886.987 9.99555 886.848 10.0559 886.746 10.1611C886.643 10.2663 886.587 10.4078 886.589 10.5544V11.1075H886.036C885.963 11.1065 885.89 11.12 885.822 11.1474C885.754 11.1747 885.692 11.2153 885.64 11.2668C885.588 11.3182 885.546 11.3796 885.518 11.4472C885.49 11.5148 885.475 11.5874 885.475 11.6607C885.475 11.734 885.49 11.8066 885.518 11.8742C885.546 11.9419 885.588 12.0032 885.64 12.0547C885.692 12.1061 885.754 12.1467 885.822 12.174C885.89 12.2014 885.963 12.2149 886.036 12.2139H886.589V12.7671C886.588 12.8404 886.602 12.9131 886.629 12.9812C886.657 13.0492 886.697 13.1111 886.749 13.1633C886.8 13.2155 886.861 13.2569 886.929 13.2852C886.997 13.3135 887.069 13.3281 887.143 13.3281C887.216 13.3281 887.288 13.3135 887.356 13.2852C887.424 13.2569 887.485 13.2155 887.536 13.1633C887.588 13.1111 887.629 13.0492 887.656 12.9812C887.683 12.9131 887.697 12.8404 887.696 12.7671V12.2139H888.249C888.322 12.2149 888.395 12.2014 888.463 12.174C888.531 12.1467 888.593 12.1061 888.645 12.0547C888.697 12.0032 888.739 11.9419 888.767 11.8742C888.795 11.8066 888.81 11.734 888.81 11.6607C888.81 11.5874 888.795 11.5148 888.767 11.4472C888.739 11.3796 888.697 11.3182 888.645 11.2668C888.593 11.2153 888.531 11.1747 888.463 11.1474C888.395 11.12 888.322 11.1065 888.249 11.1075H887.696V10.5544C887.697 10.4803 887.683 10.4068 887.655 10.3382C887.627 10.2696 887.586 10.2073 887.533 10.155C887.481 10.1027 887.419 10.0614 887.35 10.0336C887.281 10.0058 887.208 9.99211 887.134 9.99326Z" fill="black"/>
<path d="M925 2.77365C923.071 2.77365 921.361 3.73464 920.326 5.2005C920.29 5.25166 920.265 5.30943 920.251 5.37052C920.237 5.43161 920.235 5.49482 920.246 5.55654C920.257 5.61826 920.279 5.67728 920.313 5.73024C920.346 5.78319 920.39 5.82903 920.441 5.86515C920.492 5.90127 920.55 5.92696 920.611 5.94075C920.672 5.95454 920.735 5.95616 920.797 5.94552C920.859 5.93488 920.918 5.91218 920.971 5.87873C921.024 5.84528 921.069 5.80173 921.105 5.75056C921.969 4.52726 923.387 3.72726 925 3.72726C927.569 3.72726 929.648 5.74597 929.757 8.2873L928.993 7.52243C928.948 7.47666 928.895 7.44027 928.836 7.41543C928.777 7.39058 928.714 7.37777 928.651 7.37777C928.556 7.37779 928.463 7.40613 928.384 7.45915C928.306 7.51216 928.244 7.58746 928.209 7.67539C928.173 7.76332 928.164 7.8599 928.184 7.95275C928.204 8.04561 928.25 8.13054 928.318 8.19665L929.749 9.62706C929.838 9.71644 929.959 9.76666 930.086 9.76666C930.212 9.76666 930.334 9.71644 930.423 9.62706L930.534 9.51655C930.568 9.49026 930.599 9.45934 930.625 9.42467L931.853 8.19665C931.899 8.15272 931.936 8.10009 931.961 8.04186C931.986 7.98363 931.999 7.92097 932 7.85753C932.001 7.7941 931.989 7.73117 931.965 7.67244C931.941 7.61371 931.905 7.56036 931.86 7.5155C931.815 7.47064 931.762 7.43519 931.703 7.41121C931.645 7.38723 931.582 7.37521 931.518 7.37586C931.455 7.3765 931.392 7.3898 931.334 7.41497C931.276 7.44013 931.223 7.47667 931.179 7.52243L930.697 8.00482C930.447 5.07948 927.989 2.77365 925 2.77365ZM919.907 7.2238C919.783 7.22562 919.665 7.27573 919.577 7.36349L919.468 7.47214C919.433 7.49901 919.401 7.53078 919.374 7.56651L918.147 8.7939C918.101 8.83783 918.064 8.89046 918.039 8.94869C918.014 9.00692 918.001 9.06959 918 9.13302C917.999 9.19645 918.011 9.25938 918.035 9.31811C918.059 9.37684 918.095 9.4302 918.14 9.47505C918.185 9.51991 918.238 9.55536 918.297 9.57934C918.355 9.60332 918.418 9.61534 918.482 9.61469C918.545 9.61405 918.608 9.60075 918.666 9.57559C918.724 9.55042 918.777 9.51389 918.821 9.46813L919.303 8.98574C919.553 11.9111 922.011 14.2169 925 14.2169C926.929 14.2169 928.639 13.2559 929.674 11.7901C929.71 11.7389 929.735 11.6811 929.749 11.62C929.763 11.5589 929.765 11.4957 929.754 11.434C929.743 11.3723 929.721 11.3133 929.687 11.2603C929.654 11.2074 929.61 11.1615 929.559 11.1254C929.508 11.0893 929.45 11.0636 929.389 11.0498C929.328 11.036 929.265 11.0344 929.203 11.045C929.141 11.0557 929.082 11.0784 929.029 11.1118C928.976 11.1453 928.931 11.1888 928.895 11.24C928.031 12.4633 926.613 13.2633 925 13.2633C922.431 13.2633 920.352 11.2446 920.243 8.70326L921.007 9.46813C921.051 9.51389 921.104 9.55042 921.162 9.57559C921.22 9.60075 921.283 9.61405 921.347 9.61469C921.41 9.61534 921.473 9.60332 921.532 9.57934C921.59 9.55536 921.644 9.51991 921.689 9.47505C921.733 9.43019 921.769 9.37684 921.793 9.31811C921.817 9.25938 921.829 9.19645 921.828 9.13302C921.828 9.06959 921.814 9.00692 921.789 8.94869C921.764 8.89046 921.727 8.83783 921.682 8.7939L920.251 7.36349C920.206 7.3184 920.152 7.2828 920.093 7.2588C920.034 7.23481 919.971 7.22291 919.907 7.2238Z" fill="black"/>
<path d="M957.268 0.773702C957.2 0.772742 957.133 0.785282 957.07 0.810591C957.007 0.8359 956.95 0.873475 956.901 0.921132C956.853 0.968789 956.815 1.02558 956.788 1.0882C956.762 1.15082 956.749 1.21802 956.749 1.2859C956.749 1.35377 956.762 1.42098 956.788 1.4836C956.815 1.54621 956.853 1.603 956.901 1.65066C956.95 1.69832 957.007 1.73589 957.07 1.7612C957.133 1.78651 957.2 1.79905 957.268 1.79809H961.024C961.092 1.79905 961.16 1.78651 961.223 1.7612C961.286 1.73589 961.343 1.69832 961.391 1.65066C961.44 1.603 961.478 1.54621 961.504 1.4836C961.53 1.42098 961.544 1.35377 961.544 1.2859C961.544 1.21802 961.53 1.15082 961.504 1.0882C961.478 1.02558 961.44 0.968789 961.391 0.921132C961.343 0.873475 961.286 0.8359 961.223 0.810591C961.16 0.785282 961.092 0.772742 961.024 0.773702H957.268ZM963.967 2.13422C963.865 2.13551 963.765 2.16726 963.682 2.22539C963.598 2.28351 963.533 2.36537 963.496 2.46046C963.459 2.55555 963.451 2.65954 963.474 2.7591C963.496 2.85865 963.548 2.94923 963.622 3.01922L964.423 3.79818C964.471 3.84513 964.528 3.88212 964.591 3.90705C964.653 3.93198 964.72 3.94435 964.787 3.94345C964.855 3.94256 964.921 3.92842 964.983 3.90184C965.045 3.87526 965.101 3.83676 965.148 3.78855C965.195 3.74033 965.232 3.68334 965.256 3.62082C965.281 3.55831 965.294 3.4915 965.293 3.42421C965.292 3.35692 965.278 3.29047 965.251 3.22864C965.225 3.16682 965.186 3.11084 965.138 3.0639L964.336 2.28427C964.288 2.23583 964.23 2.19759 964.167 2.17181C964.103 2.14604 964.035 2.13325 963.967 2.13422ZM959.146 2.48101C955.758 2.48101 953 5.23888 953 8.62733C953 12.0158 955.758 14.7737 959.146 14.7737C962.535 14.7737 965.293 12.0158 965.293 8.62733C965.293 5.23888 962.535 2.48101 959.146 2.48101ZM959.146 3.5054C961.981 3.5054 964.268 5.7925 964.268 8.62733C964.268 11.4622 961.981 13.7493 959.146 13.7493C956.311 13.7493 954.024 11.4622 954.024 8.62733C954.024 5.7925 956.311 3.5054 959.146 3.5054ZM959.138 4.52245C959.003 4.52457 958.873 4.58048 958.779 4.67789C958.684 4.7753 958.632 4.90625 958.634 5.04198V8.79806C958.633 8.86594 958.646 8.93332 958.671 8.9963C958.696 9.05929 958.734 9.11661 958.782 9.16495C958.829 9.21328 958.886 9.25167 958.949 9.27786C959.011 9.30406 959.078 9.31755 959.146 9.31755C959.214 9.31755 959.281 9.30406 959.344 9.27786C959.407 9.25167 959.463 9.21328 959.511 9.16495C959.559 9.11661 959.596 9.05929 959.622 8.9963C959.647 8.93332 959.659 8.86594 959.659 8.79806V5.04198C959.659 4.97343 959.647 4.90537 959.621 4.84185C959.595 4.77833 959.557 4.72064 959.508 4.67219C959.46 4.62374 959.402 4.58552 959.338 4.5598C959.275 4.53408 959.207 4.52138 959.138 4.52245Z" fill="black"/>
<path d="M993 0.773651C989.14 0.773651 986 3.91388 986 7.77365C986 11.6334 989.14 14.7737 993 14.7737C996.86 14.7737 1000 11.6334 1000 7.77365C1000 3.91388 996.86 0.773651 993 0.773651ZM993 1.82365C996.292 1.82365 998.95 4.48134 998.95 7.77365C998.95 11.066 996.292 13.7237 993 13.7237C989.708 13.7237 987.05 11.066 987.05 7.77365C987.05 4.48134 989.708 1.82365 993 1.82365ZM992.817 3.21613C992.678 3.2183 992.545 3.27561 992.448 3.37546C992.351 3.4753 992.298 3.60953 992.3 3.74865V4.15197C991.323 4.28707 990.55 5.09881 990.55 6.11115C990.55 7.21639 991.457 8.12365 992.562 8.12365H993.262C993.897 8.12365 994.4 8.62692 994.4 9.26115C994.4 9.89538 993.897 10.3987 993.262 10.3987H992.475C992.063 10.3987 991.726 10.1199 991.628 9.74514C991.612 9.67677 991.583 9.61226 991.542 9.55542C991.501 9.49859 991.448 9.45058 991.388 9.41423C991.328 9.37789 991.262 9.35394 991.192 9.34381C991.123 9.33369 991.052 9.33758 990.984 9.35526C990.916 9.37295 990.853 9.40407 990.797 9.44678C990.741 9.48949 990.695 9.54293 990.66 9.60394C990.625 9.66494 990.603 9.73228 990.595 9.80197C990.587 9.87167 990.593 9.94229 990.612 10.0097C990.813 10.7819 991.49 11.3429 992.3 11.4193V11.7987C992.299 11.8682 992.312 11.9373 992.338 12.0018C992.364 12.0664 992.402 12.1252 992.451 12.1747C992.5 12.2243 992.558 12.2636 992.622 12.2904C992.687 12.3173 992.755 12.3311 992.825 12.3311C992.895 12.3311 992.963 12.3173 993.028 12.2904C993.092 12.2636 993.15 12.2243 993.199 12.1747C993.248 12.1252 993.286 12.0664 993.312 12.0018C993.338 11.9373 993.351 11.8682 993.35 11.7987V11.4309C994.51 11.3819 995.45 10.4321 995.45 9.26115C995.45 8.05928 994.464 7.07365 993.262 7.07365H992.562C992.025 7.07365 991.6 6.64881 991.6 6.11115C991.6 5.57349 992.025 5.14865 992.562 5.14865H992.739C992.795 5.15791 992.853 5.15791 992.909 5.14865H993.175C993.584 5.14865 993.92 5.42403 994.02 5.79465C994.038 5.86122 994.069 5.92361 994.111 5.97823C994.153 6.03285 994.205 6.07865 994.265 6.113C994.325 6.14735 994.391 6.16959 994.459 6.17844C994.528 6.18729 994.597 6.18257 994.664 6.16457C994.73 6.14657 994.793 6.11563 994.847 6.07352C994.902 6.03141 994.948 5.97895 994.982 5.91915C995.017 5.85934 995.039 5.79335 995.048 5.72496C995.056 5.65656 995.052 5.5871 995.034 5.52053C994.827 4.75653 994.154 4.20377 993.35 4.12805V3.74865C993.351 3.67838 993.338 3.60863 993.311 3.54352C993.285 3.47841 993.246 3.41927 993.196 3.36961C993.146 3.31995 993.087 3.28078 993.022 3.25442C992.957 3.22805 992.887 3.21503 992.817 3.21613Z" fill="black"/>
<g clip-path="url(#clip0_120_1872)">
<path d="M1023.29 1.17359C1023.26 1.17429 1023.24 1.17708 1023.21 1.18194H1022.14C1020.96 1.18194 1020 2.14536 1020 3.31837V13.0294C1020 14.2024 1020.96 15.1659 1022.14 15.1659H1022.82C1022.88 15.1761 1022.94 15.1761 1023.01 15.1659H1030.98C1031.04 15.1761 1031.1 15.1761 1031.16 15.1659H1031.85C1033.02 15.1659 1033.98 14.2024 1033.98 13.0294V4.87214C1033.98 4.78984 1033.97 4.70849 1033.93 4.63343C1033.9 4.55837 1033.85 4.49131 1033.79 4.43666L1030.29 1.32912C1030.19 1.23435 1030.05 1.18199 1029.91 1.18194H1029.61C1029.55 1.17166 1029.49 1.17166 1029.42 1.18194H1023.4C1023.36 1.17601 1023.33 1.17322 1023.29 1.17359ZM1022.14 2.34726H1022.72V4.48369C1022.72 5.22754 1023.33 5.84324 1024.08 5.84324H1028.74C1029.48 5.84324 1030.1 5.22754 1030.1 4.48369V2.71674L1032.82 5.13388V13.0294C1032.82 13.5725 1032.39 14.0005 1031.85 14.0005H1031.65V9.53344C1031.65 8.78959 1031.04 8.17389 1030.29 8.17389H1023.69C1022.95 8.17389 1022.33 8.78959 1022.33 9.53344V14.0005H1022.14C1021.59 14.0005 1021.17 13.5725 1021.17 13.0294V3.31837C1021.17 2.77524 1021.59 2.34726 1022.14 2.34726ZM1023.88 2.34726H1028.93V4.48369C1028.93 4.5983 1028.85 4.67791 1028.74 4.67791H1024.08C1023.96 4.67791 1023.88 4.5983 1023.88 4.48369V2.34726ZM1023.69 9.33922H1030.29C1030.41 9.33922 1030.49 9.41883 1030.49 9.53344V14.0005H1023.5V9.53344C1023.5 9.41883 1023.58 9.33922 1023.69 9.33922Z" fill="black"/>
</g>
<defs>
<clipPath id="clip0_120_1872">
<rect width="14" height="14" fill="white" transform="translate(1020 1.17355)"/>
</clipPath>
</defs>
</svg>
