<svg width="1040" height="15" viewBox="0 0 1040 15" fill="none" xmlns="http://www.w3.org/2000/svg">
<g clip-path="url(#clip0_364_3286)">
<path d="M1.9249 0.294075C1.25464 0.294075 0.699847 0.848865 0.699847 1.51913V2.468L0.037416 4.12442C0.00816853 4.19769 -0.00419241 4.2766 0.00125179 4.35531C0.00669598 4.43401 0.0298054 4.51048 0.0688627 4.57902C0.0688626 4.57925 0.0688626 4.57948 0.0688627 4.57971C0.148767 5.13796 0.372273 5.65026 0.699847 6.07684V13.4196C0.699861 13.5589 0.75518 13.6924 0.853638 13.7909C0.952096 13.8893 1.08563 13.9446 1.22487 13.9447H12.7754C12.9146 13.9446 13.0481 13.8893 13.1466 13.7909C13.2451 13.6924 13.3004 13.5589 13.3004 13.4196V6.07821C13.6292 5.65043 13.8532 5.13582 13.9327 4.57561C13.9711 4.50739 13.9936 4.43148 13.9988 4.35342C14.004 4.27535 13.9917 4.19711 13.9628 4.12442L13.3004 2.468V1.51913C13.3004 0.848865 12.7456 0.294075 12.0753 0.294075H1.9249ZM1.9249 1.34412H12.0753C12.1786 1.34412 12.2503 1.41586 12.2503 1.51913V2.56917C12.2504 2.63592 12.2631 2.70204 12.2879 2.76401L12.9244 4.35548C12.8162 5.41671 11.9427 6.24433 10.8503 6.24433C10.2667 6.24433 9.74452 6.00966 9.36409 5.62839C9.26898 5.53306 9.14088 5.47792 9.00627 5.47436C8.87166 5.4708 8.74083 5.51908 8.64081 5.60924C8.2042 6.00387 7.63395 6.24433 7.00012 6.24433C6.36628 6.24433 5.79603 6.00387 5.35942 5.60924C5.2594 5.51908 5.12857 5.4708 4.99396 5.47436C4.85935 5.47792 4.73126 5.53306 4.63615 5.62839C4.25572 6.00966 3.73353 6.24433 3.14995 6.24433C2.05715 6.24433 1.18369 5.41666 1.07584 4.35548L1.71229 2.76401C1.73709 2.70204 1.74986 2.63592 1.74989 2.56917V1.51913C1.74989 1.41586 1.82163 1.34412 1.9249 1.34412ZM8.9252 2.04415C8.78596 2.04415 8.65241 2.09946 8.55395 2.19793C8.45549 2.29639 8.40018 2.42993 8.40018 2.56917C8.40018 2.70842 8.45549 2.84196 8.55395 2.94042C8.65241 3.03888 8.78596 3.0942 8.9252 3.0942C9.06444 3.0942 9.19799 3.03888 9.29645 2.94042C9.39491 2.84196 9.45022 2.70842 9.45022 2.56917C9.45022 2.42993 9.39491 2.29639 9.29645 2.19793C9.19799 2.09946 9.06444 2.04415 8.9252 2.04415ZM10.6753 2.04415C10.536 2.04415 10.4025 2.09946 10.304 2.19793C10.2056 2.29639 10.1503 2.42993 10.1503 2.56917C10.1503 2.70842 10.2056 2.84196 10.304 2.94042C10.4025 3.03888 10.536 3.0942 10.6753 3.0942C10.8145 3.0942 10.9481 3.03888 11.0465 2.94042C11.145 2.84196 11.2003 2.70842 11.2003 2.56917C11.2003 2.42993 11.145 2.29639 11.0465 2.19793C10.9481 2.09946 10.8145 2.04415 10.6753 2.04415ZM5.01761 6.61349C5.58632 7.01468 6.25187 7.29438 7.00012 7.29438C7.74837 7.29438 8.41391 7.01468 8.98262 6.61349C9.51136 7.01366 10.139 7.29438 10.8503 7.29438C11.3561 7.29438 11.8308 7.17149 12.2503 6.95598V12.8946H10.8503V8.86944C10.8503 8.7302 10.7949 8.59667 10.6965 8.49821C10.598 8.39975 10.4645 8.34443 10.3253 8.34442H6.47509C6.33585 8.34443 6.20232 8.39975 6.10386 8.49821C6.00541 8.59667 5.95009 8.7302 5.95007 8.86944V12.8946H1.74989V6.95598C2.16942 7.17158 2.64393 7.29438 3.14995 7.29438C3.86119 7.29438 4.48888 7.01366 5.01761 6.61349ZM7.00012 9.39447H9.80024V12.8946H7.00012V9.39447Z" fill="black"/>
</g>
<g clip-path="url(#clip1_364_3286)">
<path d="M36.2085 1.17009C35.9681 1.17819 35.7257 1.23515 35.4961 1.34616L34.3123 1.91908C34.2481 1.94706 34.1902 1.98772 34.1421 2.0386C34.094 2.08949 34.0567 2.14957 34.0324 2.21523C34.0081 2.28089 33.9973 2.35079 34.0006 2.42073C34.0039 2.49067 34.0214 2.55922 34.0518 2.62227C34.0823 2.68531 34.1252 2.74155 34.1779 2.78762C34.2307 2.83369 34.2922 2.86864 34.3587 2.89037C34.4253 2.9121 34.4956 2.92017 34.5653 2.91409C34.6351 2.90801 34.7029 2.88791 34.7647 2.85499L35.9491 2.28275C36.3446 2.0916 36.8026 2.26458 36.9731 2.66943L40.0171 9.89933C40.0708 10.0268 40.172 10.1131 40.242 10.2278C39.8489 10.2748 39.494 10.4296 39.2641 10.6883C38.9954 10.9906 38.8726 11.3732 38.8726 11.7488C38.8726 12.1244 38.9954 12.507 39.2641 12.8093C39.5328 13.1116 39.9562 13.3091 40.4329 13.3091C40.9097 13.3091 41.3331 13.1116 41.6018 12.8093C41.8705 12.507 41.9932 12.1244 41.9932 11.7488C41.9932 11.6501 41.9605 11.5537 41.9431 11.4556C42.4966 11.5833 43.0824 11.589 43.6402 11.3445V11.3452L47.6804 9.57495C47.7441 9.54833 47.8019 9.50928 47.8504 9.46011C47.8988 9.41093 47.937 9.35259 47.9627 9.28851C47.9884 9.22442 48.001 9.15586 47.9999 9.08683C47.9988 9.0178 47.984 8.94967 47.9563 8.88643C47.9286 8.82318 47.8886 8.76608 47.8387 8.71846C47.7887 8.67083 47.7297 8.63363 47.6652 8.60903C47.6007 8.58443 47.5319 8.57292 47.4629 8.57516C47.3939 8.57741 47.3261 8.59337 47.2633 8.62212L43.223 10.3923C42.3491 10.7753 41.3459 10.3748 40.9754 9.49504H40.9761L37.9313 2.26582C37.6343 1.56046 36.9297 1.14577 36.2085 1.17009ZM44.4583 2.54686C44.3163 2.54772 44.1727 2.57666 44.0357 2.63625L40.9192 3.99067C40.3713 4.22859 40.1141 4.88048 40.3523 5.42839L41.7582 8.82122C41.7593 8.82371 41.7605 8.82619 41.7616 8.82866C41.9994 9.37685 42.6513 9.63452 43.1993 9.39617L46.3165 8.04175C46.864 7.80338 47.1213 7.15204 46.8834 6.60403L45.4768 3.2112C45.4759 3.20849 45.475 3.20578 45.4741 3.20308C45.3552 2.92898 45.1327 2.7278 44.8714 2.62474C44.7407 2.57321 44.6003 2.54599 44.4583 2.54686ZM44.4915 3.58638C44.5026 3.59095 44.5115 3.60107 44.5185 3.61685H44.5192L45.9258 7.01035C45.9269 7.01307 45.928 7.01578 45.9292 7.01848C45.9428 7.04994 45.933 7.07346 45.9014 7.08756L42.7849 8.44198C42.7525 8.45605 42.7298 8.44713 42.7158 8.41489L41.3099 5.02206C41.3086 5.01912 41.3072 5.01618 41.3059 5.01326C41.2918 4.9809 41.3014 4.95884 41.3336 4.94486V4.94418L44.4502 3.59044L44.4508 3.58976C44.4669 3.58279 44.4803 3.58181 44.4915 3.58638ZM43.7601 4.80332C43.6782 4.80019 43.5968 4.81643 43.5224 4.85073L42.9257 5.11552C42.8624 5.14262 42.8051 5.18202 42.7571 5.23146C42.7091 5.28089 42.6714 5.33937 42.6462 5.40349C42.621 5.46761 42.6088 5.53609 42.6103 5.60497C42.6118 5.67385 42.6269 5.74174 42.6549 5.80472C42.6828 5.86769 42.723 5.92448 42.7731 5.9718C42.8231 6.01912 42.8821 6.05602 42.9466 6.08036C43.011 6.1047 43.0797 6.11599 43.1485 6.11358C43.2174 6.11117 43.2851 6.09511 43.3477 6.06632L43.9443 5.80153C44.053 5.75517 44.1426 5.67318 44.1985 5.56906C44.2544 5.46495 44.2731 5.34491 44.2517 5.2287C44.2303 5.1125 44.1699 5.00706 44.0805 4.92975C43.9912 4.85243 43.8782 4.80784 43.7601 4.80332ZM40.4329 11.2287C40.6496 11.2287 40.7463 11.2912 40.8244 11.379C40.9024 11.4668 40.953 11.6043 40.953 11.7488C40.953 11.8933 40.9024 12.0308 40.8244 12.1186C40.7463 12.2064 40.6496 12.2689 40.4329 12.2689C40.2162 12.2689 40.1196 12.2064 40.0415 12.1186C39.9635 12.0308 39.9128 11.8933 39.9128 11.7488C39.9128 11.6043 39.9635 11.4668 40.0415 11.379C40.1196 11.2912 40.2162 11.2287 40.4329 11.2287Z" fill="black"/>
</g>
<g clip-path="url(#clip2_364_3286)">
<path d="M75 0.173553C71.1402 0.173553 68 3.31378 68 7.17355C68 11.0333 71.1402 14.1736 75 14.1736C78.8598 14.1736 82 11.0333 82 7.17355C82 3.31378 78.8598 0.173553 75 0.173553ZM75 1.22355C76.456 1.22355 77.7701 1.76377 78.8028 2.62834L70.4548 10.9757C69.5904 9.94298 69.05 8.62934 69.05 7.17355C69.05 3.88124 71.7077 1.22355 75 1.22355ZM79.5452 3.37072C80.4098 4.4035 80.95 5.71757 80.95 7.17355C80.95 10.4659 78.2923 13.1236 75 13.1236C73.5442 13.1236 72.2306 12.5831 71.1979 11.7188L79.5452 3.37072Z" fill="black"/>
</g>
<defs>
<clipPath id="clip0_364_3286">
<rect width="14" height="14" fill="white" transform="translate(0 0.173553)"/>
</clipPath>
<clipPath id="clip1_364_3286">
<rect width="14" height="14" fill="white" transform="translate(34 0.173553)"/>
</clipPath>
<clipPath id="clip2_364_3286">
<rect width="14" height="14" fill="white" transform="translate(68 0.173553)"/>
</clipPath>
</defs>
</svg>
