<svg width="1034" height="16" viewBox="0 0 1034 16" fill="none" xmlns="http://www.w3.org/2000/svg">
<path d="M11.2299 0.773533C10.5187 0.773533 9.80762 1.04298 9.2684 1.5822L7.29478 3.55582C6.36177 4.48882 6.28587 5.91302 6.96723 6.98488L6.21152 7.74059C5.13964 7.05916 3.71549 7.13435 2.78245 8.06739L0.808829 10.041C-0.26961 11.1195 -0.26961 12.8864 0.808829 13.9648C1.88754 15.043 3.65425 15.0432 4.73262 13.9648L6.70625 11.9912C7.63928 11.0581 7.71447 9.634 7.03304 8.56212L7.78875 7.80641C8.86073 8.48764 10.2849 8.41181 11.2178 7.47886L13.1914 5.50523C14.2699 4.4268 14.2699 2.66064 13.1914 1.5822C12.6522 1.04298 11.9411 0.773533 11.2299 0.773533ZM11.2299 1.9279C11.6413 1.9279 12.0528 2.08659 12.3699 2.40372C13.0042 3.03797 13.0042 4.04946 12.3699 4.68371L10.3963 6.65733C9.90804 7.14559 9.2 7.24985 8.60876 6.9864L9.87811 5.71705C9.93387 5.66351 9.97838 5.59939 10.009 5.52844C10.0397 5.45749 10.0559 5.38113 10.0567 5.30384C10.0575 5.22655 10.0428 5.14987 10.0136 5.07831C9.98441 5.00675 9.94121 4.94174 9.88655 4.88708C9.83189 4.83243 9.76688 4.78923 9.69532 4.76001C9.62376 4.73079 9.54709 4.71615 9.4698 4.71694C9.39251 4.71772 9.31615 4.73392 9.2452 4.76459C9.17424 4.79525 9.11012 4.83977 9.05659 4.89552L7.78724 6.16487C7.52386 5.57374 7.62809 4.86555 8.1163 4.37734L10.0899 2.40372C10.407 2.08659 10.8185 1.9279 11.2299 1.9279ZM4.74473 8.41385C4.96649 8.41385 5.18451 8.46847 5.39151 8.56061L4.12291 9.8292C4.06716 9.88273 4.02264 9.94685 3.99198 10.0178C3.96131 10.0888 3.94511 10.1651 3.94433 10.2424C3.94354 10.3197 3.95818 10.3964 3.9874 10.4679C4.01662 10.5395 4.05982 10.6045 4.11447 10.6592C4.16913 10.7138 4.23414 10.757 4.3057 10.7862C4.37726 10.8155 4.45394 10.8301 4.53123 10.8293C4.60852 10.8285 4.68488 10.8123 4.75583 10.7817C4.82678 10.751 4.8909 10.7065 4.94443 10.6507L6.21303 9.38213C6.4761 9.97316 6.37278 10.6808 5.88472 11.1689L3.91034 13.1433C3.27603 13.7776 2.2651 13.777 1.63035 13.1425C0.996567 12.5082 0.996256 11.4974 1.63035 10.8633L3.60473 8.88891C3.92186 8.57179 4.3333 8.41385 4.74473 8.41385Z" fill="black"/>
<path d="M36.1389 0.773533C34.9645 0.773533 34 1.73807 34 2.91242V12.6346C34 13.809 34.9645 14.7735 36.1389 14.7735H43.1389C44.3132 14.7735 45.2778 13.809 45.2778 12.6346C45.2789 12.5573 45.2646 12.4806 45.2358 12.4089C45.2069 12.3371 45.1641 12.2719 45.1099 12.2168C45.0556 12.1618 44.9909 12.118 44.9196 12.0882C44.8483 12.0584 44.7718 12.043 44.6944 12.043C44.6171 12.043 44.5406 12.0584 44.4693 12.0882C44.398 12.118 44.3333 12.1618 44.279 12.2168C44.2247 12.2719 44.1819 12.3371 44.1531 12.4089C44.1243 12.4806 44.11 12.5573 44.1111 12.6346C44.1111 13.1784 43.6826 13.6069 43.1389 13.6069H36.1389C35.5951 13.6069 35.1667 13.1784 35.1667 12.6346V2.91242C35.1667 2.36867 35.5951 1.9402 36.1389 1.9402H43.1389C43.6826 1.9402 44.1111 2.36867 44.1111 2.91242C44.11 2.98972 44.1243 3.06647 44.1531 3.1382C44.1819 3.20993 44.2247 3.27522 44.279 3.33026C44.3333 3.38531 44.398 3.42903 44.4693 3.45886C44.5406 3.4887 44.6171 3.50406 44.6944 3.50406C44.7718 3.50406 44.8483 3.4887 44.9196 3.45886C44.9909 3.42903 45.0556 3.38531 45.1099 3.33026C45.1641 3.27522 45.2069 3.20993 45.2358 3.1382C45.2646 3.06647 45.2789 2.98972 45.2778 2.91242C45.2778 1.73807 44.3132 0.773533 43.1389 0.773533H36.1389ZM44.6884 4.4619C44.5723 4.46193 44.4588 4.49659 44.3626 4.56146C44.2663 4.62632 44.1915 4.71844 44.1479 4.82601C44.1043 4.93359 44.0937 5.05175 44.1176 5.16535C44.1415 5.27896 44.1987 5.38285 44.282 5.46375L46.0085 7.1902H37.6944C37.6171 7.18911 37.5404 7.20339 37.4687 7.23221C37.3969 7.26104 37.3317 7.30383 37.2766 7.35811C37.2216 7.41238 37.1778 7.47706 37.148 7.54837C37.1182 7.61969 37.1028 7.69623 37.1028 7.77353C37.1028 7.85084 37.1182 7.92737 37.148 7.99869C37.1778 8.07001 37.2216 8.13468 37.2766 8.18896C37.3317 8.24324 37.3969 8.28603 37.4687 8.31485C37.5404 8.34368 37.6171 8.35796 37.6944 8.35687H46.0085L44.282 10.0833C44.226 10.1371 44.1813 10.2015 44.1505 10.2727C44.1198 10.3439 44.1035 10.4206 44.1027 10.4982C44.1019 10.5758 44.1166 10.6528 44.1459 10.7247C44.1753 10.7965 44.2187 10.8618 44.2735 10.9167C44.3284 10.9715 44.3937 11.0149 44.4655 11.0443C44.5374 11.0736 44.6144 11.0883 44.692 11.0875C44.7696 11.0867 44.8463 11.0704 44.9175 11.0397C44.9887 11.0089 45.0531 10.9642 45.1069 10.9082L47.8291 8.18597C47.9385 8.07657 47.9999 7.92822 47.9999 7.77353C47.9999 7.61885 47.9385 7.4705 47.8291 7.3611L45.1069 4.63888C45.0525 4.58288 44.9874 4.53837 44.9156 4.50797C44.8437 4.47757 44.7664 4.4619 44.6884 4.4619Z" fill="black"/>
<path d="M81.486 3.17569C81.3562 3.17947 81.2331 3.23359 81.1425 3.3266L72.5034 11.9657L68.86 8.32235C68.814 8.2744 68.7589 8.23612 68.6978 8.20975C68.6368 8.18338 68.5712 8.16945 68.5047 8.16878C68.4382 8.1681 68.3723 8.18069 68.3108 8.20582C68.2492 8.23094 68.1933 8.26809 68.1463 8.31509C68.0993 8.36209 68.0622 8.41799 68.0371 8.47953C68.0119 8.54106 67.9994 8.60699 68 8.67346C68.0007 8.73992 68.0146 8.80558 68.041 8.86659C68.0674 8.9276 68.1056 8.98274 68.1536 9.02878L72.1502 13.0254C72.2439 13.119 72.3709 13.1716 72.5034 13.1716C72.6359 13.1716 72.7629 13.119 72.8566 13.0254L81.849 4.03303C81.921 3.96284 81.9702 3.87252 81.9901 3.7739C82.01 3.67529 81.9997 3.57296 81.9605 3.48032C81.9212 3.38767 81.855 3.30903 81.7703 3.25467C81.6856 3.20032 81.5866 3.17279 81.486 3.17569Z" fill="black"/>
<path d="M112.66 0.773655C112.555 0.77368 112.453 0.804849 112.367 0.863172C112.28 0.921495 112.213 1.00432 112.174 1.10105C112.134 1.19778 112.125 1.30402 112.146 1.40617C112.168 1.50832 112.219 1.60174 112.294 1.67447L113.497 2.87716H103.923C102.864 2.87716 102 3.74085 102 4.80036V10.4443L103.049 9.39529V4.80036C103.049 4.31782 103.441 3.92618 103.923 3.92618H113.497L112.294 5.12887C112.244 5.1772 112.204 5.23509 112.176 5.29915C112.148 5.3632 112.134 5.43214 112.133 5.50192C112.132 5.5717 112.145 5.64092 112.172 5.70553C112.198 5.77014 112.237 5.82883 112.287 5.87818C112.336 5.92752 112.395 5.96652 112.459 5.9929C112.524 6.01928 112.593 6.0325 112.663 6.03179C112.733 6.03108 112.802 6.01645 112.866 5.98877C112.93 5.96108 112.988 5.9209 113.036 5.87056L115.134 3.77252C115.232 3.67415 115.287 3.54076 115.287 3.40167C115.287 3.26259 115.232 3.12919 115.134 3.03083L113.036 0.932784C112.987 0.882436 112.929 0.84241 112.864 0.815076C112.799 0.787743 112.73 0.773658 112.66 0.773655ZM115.288 5.10087L114.239 6.14989V10.7448C114.239 11.2274 113.847 11.619 113.364 11.619H103.791L104.993 10.4163C105.069 10.3426 105.121 10.2478 105.142 10.1443C105.163 10.0407 105.152 9.93328 105.11 9.83601C105.069 9.73874 105 9.65617 104.911 9.59911C104.822 9.54204 104.718 9.51314 104.612 9.51618C104.476 9.52015 104.347 9.57697 104.252 9.67462L102.154 11.7727C102.055 11.871 102 12.0044 102 12.1435C102 12.2826 102.055 12.416 102.154 12.5144L104.252 14.6124C104.3 14.6627 104.358 14.7029 104.422 14.7306C104.486 14.7583 104.555 14.7729 104.625 14.7736C104.695 14.7743 104.764 14.7611 104.828 14.7347C104.893 14.7084 104.952 14.6694 105.001 14.62C105.05 14.5707 105.089 14.512 105.116 14.4474C105.142 14.3828 105.155 14.3135 105.155 14.2438C105.154 14.174 105.139 14.105 105.112 14.041C105.084 13.9769 105.044 13.919 104.993 13.8707L103.791 12.668H113.364C114.424 12.668 115.288 11.8043 115.288 10.7448V5.10087Z" fill="black"/>
<path d="M142.993 0.773533C140.304 0.773533 137.827 1.98096 136.143 3.84582C136.094 3.89965 136.056 3.96254 136.032 4.03088C136.008 4.09923 135.997 4.1717 136.001 4.24416C136.004 4.31662 136.022 4.38764 136.053 4.45318C136.085 4.51871 136.128 4.57748 136.182 4.62612C136.291 4.72434 136.434 4.77536 136.58 4.76794C136.653 4.76427 136.724 4.74636 136.789 4.71524C136.855 4.68412 136.914 4.64039 136.962 4.58656C138.444 2.94603 140.636 1.87818 142.993 1.87818C145.349 1.87818 147.545 2.94651 149.031 4.58728C149.079 4.64331 149.138 4.68915 149.204 4.72208C149.27 4.75502 149.342 4.77438 149.415 4.77902C149.489 4.78366 149.563 4.7735 149.633 4.74912C149.702 4.72475 149.766 4.68666 149.821 4.6371C149.876 4.58754 149.92 4.52753 149.951 4.46059C149.982 4.39366 149.999 4.32118 150.002 4.24741C150.005 4.17365 149.993 4.10011 149.966 4.03113C149.94 3.96216 149.9 3.89914 149.849 3.84582C148.161 1.9812 145.681 0.773533 142.993 0.773533ZM149.027 7.39276C148.909 7.39884 148.796 7.44281 148.704 7.51818C148.613 7.59355 148.548 7.69632 148.519 7.81131C147.928 10.0284 145.603 11.82 142.993 11.82C140.383 11.82 138.064 10.0292 137.473 7.81131C137.443 7.6943 137.376 7.59017 137.282 7.51484C137.188 7.43952 137.072 7.39714 136.951 7.39419C136.864 7.39209 136.779 7.41031 136.701 7.44737C136.623 7.48443 136.554 7.53931 136.501 7.60759C136.448 7.67587 136.412 7.75564 136.395 7.84049C136.379 7.92533 136.382 8.01289 136.406 8.0961C136.582 8.75852 136.88 9.37811 137.266 9.94221L136.217 10.816C136.16 10.8618 136.112 10.9187 136.076 10.9833C136.041 11.0479 136.019 11.119 136.011 11.1923C136.004 11.2656 136.011 11.3397 136.032 11.4102C136.054 11.4807 136.089 11.5461 136.136 11.6027C136.184 11.6593 136.242 11.7059 136.307 11.7397C136.373 11.7735 136.444 11.7938 136.518 11.7995C136.591 11.8052 136.665 11.7961 136.735 11.7729C136.805 11.7496 136.87 11.7125 136.925 11.6639L138.026 10.7455C138.426 11.1586 138.855 11.5222 139.354 11.8279L138.679 12.998C138.643 13.0608 138.619 13.1302 138.61 13.2021C138.6 13.2741 138.605 13.3472 138.624 13.4173C138.643 13.4874 138.675 13.5531 138.719 13.6107C138.763 13.6683 138.819 13.7165 138.881 13.7528C138.944 13.7891 139.014 13.8126 139.086 13.8221C139.158 13.8315 139.231 13.8267 139.301 13.8079C139.371 13.7891 139.437 13.7567 139.494 13.7125C139.552 13.6683 139.6 13.6131 139.636 13.5503L140.335 12.3385C141.003 12.6147 141.697 12.8199 142.444 12.8793V14.2133C142.443 14.2865 142.456 14.3592 142.484 14.4271C142.511 14.495 142.551 14.5569 142.603 14.609C142.654 14.6611 142.715 14.7025 142.783 14.7307C142.851 14.759 142.923 14.7735 142.996 14.7735C143.069 14.7735 143.142 14.759 143.209 14.7307C143.277 14.7025 143.338 14.6611 143.39 14.609C143.441 14.5569 143.481 14.495 143.509 14.4271C143.536 14.3592 143.55 14.2865 143.549 14.2133V12.8786C144.294 12.8185 144.988 12.6133 145.656 12.337L146.356 13.5503C146.392 13.6131 146.441 13.6683 146.498 13.7125C146.556 13.7567 146.622 13.7891 146.692 13.8079C146.762 13.8267 146.835 13.8315 146.907 13.8221C146.979 13.8126 147.048 13.7891 147.111 13.7528C147.174 13.7165 147.229 13.6683 147.273 13.6107C147.317 13.5531 147.35 13.4874 147.369 13.4173C147.387 13.3472 147.392 13.2741 147.383 13.2021C147.373 13.1302 147.35 13.0608 147.313 12.998L146.637 11.8264C147.136 11.5209 147.565 11.1574 147.965 10.7448L149.067 11.6639C149.123 11.7125 149.187 11.7496 149.257 11.7729C149.327 11.7961 149.401 11.8052 149.475 11.7995C149.548 11.7938 149.62 11.7735 149.685 11.7397C149.751 11.7059 149.809 11.6593 149.856 11.6027C149.903 11.5461 149.939 11.4807 149.96 11.4102C149.982 11.3397 149.989 11.2656 149.981 11.1923C149.974 11.119 149.952 11.0479 149.916 10.9833C149.881 10.9187 149.833 10.8618 149.775 10.816L148.726 9.94149C149.112 9.37768 149.41 8.75824 149.587 8.0961C149.611 8.01159 149.614 7.92254 149.597 7.83634C149.58 7.75015 149.543 7.66931 149.488 7.60052C149.433 7.53174 149.363 7.47701 149.283 7.44087C149.203 7.40474 149.115 7.38824 149.027 7.39276Z" fill="black"/>
<path d="M176.926 0.77376C176.806 0.770005 176.689 0.812893 176.599 0.893462C176.599 0.893462 174.264 2.95149 171.467 2.95149C171.343 2.9515 171.224 3.00067 171.137 3.08818C171.049 3.17569 171 3.29438 171 3.41814V7.2322C171 9.30977 171.961 12.7284 176.73 14.737C176.787 14.7611 176.849 14.7735 176.911 14.7735C176.973 14.7735 177.035 14.7611 177.092 14.737C181.861 12.7284 182.822 9.30977 182.822 7.2322V3.41814C182.822 3.29438 182.773 3.17569 182.685 3.08818C182.598 3.00067 182.479 2.9515 182.355 2.95149C179.558 2.95149 177.223 0.893462 177.223 0.893462C177.141 0.819889 177.036 0.777498 176.926 0.77376ZM176.911 1.84014C177.553 2.35615 179.434 3.6786 181.889 3.84591V7.2322C181.889 9.01864 181.202 11.9006 176.911 13.786C172.62 11.9006 171.933 9.01864 171.933 7.2322V3.84591C174.388 3.6786 176.269 2.35615 176.911 1.84014ZM176.911 4.50701C175.198 4.50701 173.8 5.90539 173.8 7.61804C173.8 9.3307 175.198 10.7291 176.911 10.7291C178.624 10.7291 180.022 9.3307 180.022 7.61804C180.022 5.90539 178.624 4.50701 176.911 4.50701ZM176.911 5.44032C177.343 5.44032 177.721 5.59594 178.059 5.81036L175.103 8.76585C174.889 8.42832 174.733 8.04999 174.733 7.61804C174.733 6.40979 175.703 5.44032 176.911 5.44032ZM178.719 6.47024C178.933 6.80777 179.089 7.1861 179.089 7.61804C179.089 8.8263 178.119 9.79577 176.911 9.79577C176.479 9.79577 176.101 9.64015 175.763 9.42573L178.719 6.47024Z" fill="black"/>
<path d="M217.369 1.17373C217.206 1.17758 217.051 1.24572 216.938 1.36328L211 7.30132L205.062 1.36328C205.004 1.30407 204.936 1.257 204.86 1.22485C204.784 1.19271 204.702 1.17614 204.619 1.17614C204.497 1.17617 204.377 1.21282 204.275 1.28142C204.173 1.35001 204.094 1.44742 204.048 1.56118C204.002 1.67494 203.991 1.79988 204.016 1.92001C204.041 2.04015 204.102 2.15002 204.19 2.23556L210.128 8.1736L204.19 14.1116C204.13 14.1685 204.083 14.2366 204.051 14.3119C204.018 14.3872 204.001 14.4683 204 14.5504C203.999 14.6324 204.015 14.7138 204.046 14.7898C204.077 14.8658 204.123 14.9348 204.181 14.9929C204.239 15.0509 204.308 15.0968 204.384 15.1278C204.46 15.1588 204.541 15.1744 204.623 15.1735C204.705 15.1727 204.786 15.1555 204.862 15.1229C204.937 15.0904 205.005 15.0431 205.062 14.9839L211 9.04587L216.938 14.9839C216.995 15.0431 217.063 15.0904 217.138 15.1229C217.214 15.1555 217.295 15.1727 217.377 15.1735C217.459 15.1744 217.54 15.1588 217.616 15.1278C217.692 15.0968 217.761 15.0509 217.819 14.9929C217.877 14.9348 217.923 14.8658 217.954 14.7898C217.985 14.7138 218.001 14.6324 218 14.5504C217.999 14.4683 217.982 14.3872 217.949 14.3119C217.917 14.2366 217.869 14.1685 217.81 14.1116L211.872 8.1736L217.81 2.23556C217.9 2.14946 217.962 2.03827 217.987 1.91656C218.012 1.79485 218 1.6683 217.953 1.5535C217.905 1.43871 217.824 1.34102 217.719 1.27325C217.615 1.20548 217.493 1.17079 217.369 1.17373Z" fill="black"/>
<path d="M238.921 1.77365C238.418 1.77365 238 2.1921 238 2.69419V4.53526C238 5.03735 238.418 5.4558 238.921 5.4558H240.762C241.264 5.4558 241.682 5.03735 241.682 4.53526V2.69419C241.682 2.1921 241.264 1.77365 240.762 1.77365H238.921ZM239.105 2.8783H240.577V4.35115H239.105V2.8783ZM243.339 3.24651C243.266 3.24548 243.193 3.259 243.125 3.28629C243.057 3.31358 242.996 3.3541 242.943 3.40549C242.891 3.45688 242.85 3.51812 242.822 3.58564C242.793 3.65317 242.779 3.72564 242.779 3.79883C242.779 3.87203 242.793 3.94449 242.822 4.01202C242.85 4.07955 242.891 4.14078 242.943 4.19217C242.996 4.24356 243.057 4.28408 243.125 4.31137C243.193 4.33867 243.266 4.35219 243.339 4.35115H251.44C251.513 4.35219 251.586 4.33867 251.654 4.31137C251.722 4.28408 251.783 4.24356 251.835 4.19217C251.888 4.14078 251.929 4.07955 251.957 4.01202C251.985 3.94449 252 3.87203 252 3.79883C252 3.72564 251.985 3.65317 251.957 3.58564C251.929 3.51812 251.888 3.45688 251.835 3.40549C251.783 3.3541 251.722 3.31358 251.654 3.28629C251.586 3.259 251.513 3.24548 251.44 3.24651H243.339ZM238.921 6.19222C238.418 6.19222 238 6.61066 238 7.11276V8.95383C238 9.45592 238.418 9.87436 238.921 9.87436H240.762C241.264 9.87436 241.682 9.45592 241.682 8.95383V7.11276C241.682 6.61066 241.264 6.19222 240.762 6.19222H238.921ZM239.105 7.29687H240.577V8.76972H239.105V7.29687ZM243.339 7.66508C243.266 7.66404 243.193 7.67757 243.125 7.70486C243.057 7.73215 242.996 7.77267 242.943 7.82406C242.891 7.87545 242.85 7.93669 242.822 8.00421C242.793 8.07174 242.779 8.1442 242.779 8.2174C242.779 8.2906 242.793 8.36306 242.822 8.43059C242.85 8.49811 242.891 8.55935 242.943 8.61074C242.996 8.66213 243.057 8.70265 243.125 8.72994C243.193 8.75724 243.266 8.77076 243.339 8.76972H251.44C251.513 8.77076 251.586 8.75724 251.654 8.72994C251.722 8.70265 251.783 8.66213 251.835 8.61074C251.888 8.55935 251.929 8.49811 251.957 8.43059C251.985 8.36306 252 8.2906 252 8.2174C252 8.1442 251.985 8.07174 251.957 8.00421C251.929 7.93669 251.888 7.87545 251.835 7.82406C251.783 7.77267 251.722 7.73215 251.654 7.70486C251.586 7.67757 251.513 7.66404 251.44 7.66508H243.339ZM238.921 10.6108C238.418 10.6108 238 11.0292 238 11.5313V13.3724C238 13.8745 238.418 14.2929 238.921 14.2929H240.762C241.264 14.2929 241.682 13.8745 241.682 13.3724V11.5313C241.682 11.0292 241.264 10.6108 240.762 10.6108H238.921ZM239.105 11.7154H240.577V13.1883H239.105V11.7154ZM243.339 12.0836C243.266 12.0826 243.193 12.0961 243.125 12.1234C243.057 12.1507 242.996 12.1912 242.943 12.2426C242.891 12.294 242.85 12.3553 242.822 12.4228C242.793 12.4903 242.779 12.5628 242.779 12.636C242.779 12.7092 242.793 12.7816 242.822 12.8492C242.85 12.9167 242.891 12.9779 242.943 13.0293C242.996 13.0807 243.057 13.1212 243.125 13.1485C243.193 13.1758 243.266 13.1893 243.339 13.1883H251.44C251.513 13.1893 251.586 13.1758 251.654 13.1485C251.722 13.1212 251.783 13.0807 251.835 13.0293C251.888 12.9779 251.929 12.9167 251.957 12.8492C251.985 12.7816 252 12.7092 252 12.636C252 12.5628 251.985 12.4903 251.957 12.4228C251.929 12.3553 251.888 12.294 251.835 12.2426C251.783 12.1912 251.722 12.1507 251.654 12.1234C251.586 12.0961 251.513 12.0826 251.44 12.0836H243.339Z" fill="black"/>
<path d="M278.996 3.77353C275.694 3.77353 272.785 6.0619 272.014 9.06051C271.985 9.17291 272.002 9.29218 272.061 9.39206C272.12 9.49195 272.216 9.56428 272.329 9.59313C272.441 9.62199 272.56 9.60501 272.66 9.54594C272.76 9.48686 272.833 9.39052 272.861 9.27811C273.526 6.69428 276.103 4.64852 278.996 4.64852C281.889 4.64852 284.474 6.695 285.139 9.27811C285.167 9.39052 285.24 9.48686 285.34 9.54594C285.44 9.60501 285.559 9.62199 285.671 9.59313C285.784 9.56428 285.88 9.49195 285.939 9.39206C285.998 9.29218 286.015 9.17291 285.986 9.06051C285.214 6.06118 282.298 3.77353 278.996 3.77353ZM279.001 6.10684C277.449 6.10684 276.182 7.37383 276.182 8.9255C276.182 10.4772 277.449 11.7447 279.001 11.7447C280.552 11.7447 281.82 10.4772 281.82 8.9255C281.82 7.37383 280.552 6.10684 279.001 6.10684ZM279.001 6.98183C280.079 6.98183 280.945 7.84671 280.945 8.9255C280.945 10.0043 280.079 10.8697 279.001 10.8697C277.922 10.8697 277.057 10.0043 277.057 8.9255C277.057 7.84671 277.922 6.98183 279.001 6.98183Z" fill="black"/>
<path d="M308.147 0.773655C306.972 0.773655 306.008 1.73819 306.008 2.91254V9.81684C305.997 9.87946 305.997 9.94335 306.008 10.006V12.6348C306.008 13.8091 306.972 14.7737 308.147 14.7737H317.869C319.043 14.7737 320.008 13.8091 320.008 12.6348V10.0082C320.018 9.94562 320.018 9.88174 320.008 9.81912V2.91254C320.008 1.73819 319.043 0.773655 317.869 0.773655H308.147ZM308.147 1.94032H312.424V5.05143H307.174V2.91254C307.174 2.36879 307.603 1.94032 308.147 1.94032ZM313.591 1.94032H317.869C318.413 1.94032 318.841 2.36879 318.841 2.91254V5.05143H313.591V1.94032ZM307.174 6.2181H312.424V9.32921H307.174V6.2181ZM313.591 6.2181H318.841V9.32921H313.591V6.2181ZM307.174 10.4959H312.424V13.607H308.147C307.603 13.607 307.174 13.1785 307.174 12.6348V10.4959ZM313.591 10.4959H318.841V12.6348C318.841 13.1785 318.413 13.607 317.869 13.607H313.591V10.4959Z" fill="black"/>
<path d="M347 1.17356C345.46 1.17356 344.2 2.43335 344.2 3.97356V5.37356H342.975C342.111 5.37356 341.4 6.08493 341.4 6.94856V13.5986C341.4 14.4622 342.111 15.1736 342.975 15.1736H351.025C351.889 15.1736 352.6 14.4622 352.6 13.5986V6.94856C352.6 6.08493 351.889 5.37356 351.025 5.37356H349.8V3.97356C349.8 2.43335 348.54 1.17356 347 1.17356ZM347 2.22356C347.973 2.22356 348.75 3.00076 348.75 3.97356V5.37356H345.25V3.97356C345.25 3.00076 346.027 2.22356 347 2.22356ZM342.975 6.42356H351.025C351.321 6.42356 351.55 6.65228 351.55 6.94856V13.5986C351.55 13.8948 351.321 14.1236 351.025 14.1236H342.975C342.679 14.1236 342.45 13.8948 342.45 13.5986V6.94856C342.45 6.65228 342.679 6.42356 342.975 6.42356ZM347 9.22356C346.722 9.22356 346.454 9.33418 346.258 9.53109C346.061 9.72801 345.95 9.99508 345.95 10.2736C345.95 10.552 346.061 10.8191 346.258 11.016C346.454 11.2129 346.722 11.3236 347 11.3236C347.279 11.3236 347.546 11.2129 347.742 11.016C347.939 10.8191 348.05 10.552 348.05 10.2736C348.05 9.99508 347.939 9.72801 347.742 9.53109C347.546 9.33418 347.279 9.22356 347 9.22356Z" fill="black"/>
<path d="M375.424 1.77356C375.401 1.77416 375.378 1.77645 375.355 1.7804H374.795C374.732 1.7795 374.669 1.79119 374.611 1.81477C374.552 1.83835 374.499 1.87337 374.454 1.91777C374.409 1.96218 374.373 2.0151 374.348 2.07345C374.324 2.1318 374.311 2.19442 374.311 2.25767C374.311 2.32092 374.324 2.38354 374.348 2.44189C374.373 2.50024 374.409 2.55316 374.454 2.59756C374.499 2.64197 374.552 2.67698 374.611 2.70057C374.669 2.72415 374.732 2.73584 374.795 2.73494H374.955V8.81271C374.422 8.89405 374 9.3409 374 9.89403V13.394C374 13.5206 374.05 13.642 374.14 13.7315C374.229 13.821 374.351 13.8713 374.477 13.8713H383.386C383.513 13.8713 383.634 13.821 383.724 13.7315C383.813 13.642 383.864 13.5206 383.864 13.394V9.89403C383.864 9.3409 383.442 8.89405 382.909 8.81271V2.73494H383.068C383.131 2.73584 383.194 2.72415 383.253 2.70057C383.312 2.67698 383.365 2.64197 383.41 2.59756C383.455 2.55316 383.491 2.50024 383.515 2.44189C383.54 2.38354 383.552 2.32092 383.552 2.25767C383.552 2.19442 383.54 2.1318 383.515 2.07345C383.491 2.0151 383.455 1.96218 383.41 1.91777C383.365 1.87337 383.312 1.83835 383.253 1.81477C383.194 1.79119 383.131 1.7795 383.068 1.7804H382.51C382.459 1.77198 382.407 1.77198 382.355 1.7804H375.51C375.482 1.77554 375.453 1.77325 375.424 1.77356ZM375.909 2.73494H381.955V9.25767C381.955 9.38425 382.005 9.50563 382.094 9.59514C382.184 9.68464 382.305 9.73493 382.432 9.73494H382.75C382.844 9.73494 382.909 9.80015 382.909 9.89403V12.9168H379.727V11.0077C379.727 10.832 379.585 10.6895 379.409 10.6895H378.455C378.279 10.6895 378.136 10.832 378.136 11.0077V12.9168H374.955V9.89403C374.955 9.80015 375.02 9.73494 375.114 9.73494H375.432C375.558 9.73493 375.68 9.68464 375.769 9.59514C375.859 9.50563 375.909 9.38425 375.909 9.25767V2.73494ZM377.5 4.00767C377.324 4.00767 377.182 4.15021 377.182 4.32585V4.96221C377.182 5.13785 377.324 5.2804 377.5 5.2804H378.136C378.312 5.2804 378.455 5.13785 378.455 4.96221V4.32585C378.455 4.15021 378.312 4.00767 378.136 4.00767H377.5ZM379.727 4.00767C379.552 4.00767 379.409 4.15021 379.409 4.32585V4.96221C379.409 5.13785 379.552 5.2804 379.727 5.2804H380.364C380.539 5.2804 380.682 5.13785 380.682 4.96221V4.32585C380.682 4.15021 380.539 4.00767 380.364 4.00767H379.727ZM383.545 4.00767V4.96221H386.25C386.689 4.96221 387.045 5.31858 387.045 5.75767V12.9168H384.5V13.5531C384.5 13.6654 384.477 13.7714 384.442 13.8713H387.523C387.787 13.8713 388 13.6581 388 13.394V5.75767C388 4.79358 387.214 4.00767 386.25 4.00767H383.545ZM377.5 6.23494C377.324 6.23494 377.182 6.37749 377.182 6.55312V7.18949C377.182 7.36512 377.324 7.50767 377.5 7.50767H378.136C378.312 7.50767 378.455 7.36512 378.455 7.18949V6.55312C378.455 6.37749 378.312 6.23494 378.136 6.23494H377.5ZM379.727 6.23494C379.552 6.23494 379.409 6.37749 379.409 6.55312V7.18949C379.409 7.36512 379.552 7.50767 379.727 7.50767H380.364C380.539 7.50767 380.682 7.36512 380.682 7.18949V6.55312C380.682 6.37749 380.539 6.23494 380.364 6.23494H379.727ZM385.136 6.23494C384.961 6.23494 384.818 6.37749 384.818 6.55312V7.18949C384.818 7.36512 384.961 7.50767 385.136 7.50767H385.773C385.948 7.50767 386.091 7.36512 386.091 7.18949V6.55312C386.091 6.37749 385.948 6.23494 385.773 6.23494H385.136ZM377.5 8.46221C377.324 8.46221 377.182 8.60476 377.182 8.7804V9.41676C377.182 9.5924 377.324 9.73494 377.5 9.73494H378.136C378.312 9.73494 378.455 9.5924 378.455 9.41676V8.7804C378.455 8.60476 378.312 8.46221 378.136 8.46221H377.5ZM379.727 8.46221C379.552 8.46221 379.409 8.60476 379.409 8.7804V9.41676C379.409 9.5924 379.552 9.73494 379.727 9.73494H380.364C380.539 9.73494 380.682 9.5924 380.682 9.41676V8.7804C380.682 8.60476 380.539 8.46221 380.364 8.46221H379.727ZM385.136 8.46221C384.961 8.46221 384.818 8.60476 384.818 8.7804V9.41676C384.818 9.5924 384.961 9.73494 385.136 9.73494H385.773C385.948 9.73494 386.091 9.5924 386.091 9.41676V8.7804C386.091 8.60476 385.948 8.46221 385.773 8.46221H385.136ZM376.227 10.6895C376.052 10.6895 375.909 10.832 375.909 11.0077V11.644C375.909 11.8197 376.052 11.9622 376.227 11.9622H376.864C377.039 11.9622 377.182 11.8197 377.182 11.644V11.0077C377.182 10.832 377.039 10.6895 376.864 10.6895H376.227ZM381 10.6895C380.824 10.6895 380.682 10.832 380.682 11.0077V11.644C380.682 11.8197 380.824 11.9622 381 11.9622H381.636C381.812 11.9622 381.955 11.8197 381.955 11.644V11.0077C381.955 10.832 381.812 10.6895 381.636 10.6895H381ZM385.136 10.6895C384.961 10.6895 384.818 10.832 384.818 11.0077V11.644C384.818 11.8197 384.961 11.9622 385.136 11.9622H385.773C385.948 11.9622 386.091 11.8197 386.091 11.644V11.0077C386.091 10.832 385.948 10.6895 385.773 10.6895H385.136Z" fill="black"/>
<path d="M418.681 0.773604C418.526 0.776016 418.379 0.839611 418.272 0.95042C418.164 1.06123 418.105 1.21019 418.107 1.36459V9.66867L416.383 7.94428C416.329 7.88836 416.265 7.84372 416.194 7.81297C416.123 7.78221 416.046 7.76597 415.969 7.76518C415.891 7.76439 415.814 7.77908 415.742 7.80838C415.671 7.83768 415.605 7.881 415.551 7.93581C415.496 7.99063 415.452 8.05583 415.423 8.12759C415.394 8.19936 415.379 8.27625 415.38 8.35377C415.381 8.43128 415.397 8.50786 415.428 8.57901C415.458 8.65017 415.503 8.71447 415.559 8.76816L418.278 11.4871C418.387 11.5964 418.535 11.6577 418.69 11.6577C418.844 11.6577 418.993 11.5964 419.102 11.4871L421.821 8.76816C421.877 8.71447 421.921 8.65017 421.952 8.57901C421.983 8.50786 421.999 8.43128 422 8.35377C422.001 8.27625 421.986 8.19936 421.957 8.12759C421.927 8.05583 421.884 7.99063 421.829 7.93581C421.775 7.881 421.709 7.83768 421.638 7.80838C421.566 7.77908 421.489 7.76439 421.411 7.76518C421.334 7.76597 421.257 7.78221 421.186 7.81297C421.115 7.84372 421.051 7.88836 420.997 7.94428L419.273 9.66867V1.36459C419.274 1.2866 419.259 1.20919 419.23 1.13693C419.2 1.06468 419.157 0.999048 419.102 0.943936C419.047 0.888824 418.981 0.84535 418.909 0.816092C418.836 0.786833 418.759 0.772385 418.681 0.773604ZM408.591 1.17037C408.514 1.16928 408.437 1.18354 408.365 1.21234C408.294 1.24113 408.229 1.28387 408.174 1.33808C408.119 1.39229 408.075 1.45689 408.045 1.52812C408.015 1.59935 408 1.6758 408 1.75301C408 1.83022 408.015 1.90667 408.045 1.9779C408.075 2.04913 408.119 2.11373 408.174 2.16794C408.229 2.22215 408.294 2.26489 408.365 2.29368C408.437 2.32247 408.514 2.33674 408.591 2.33565H409.756C409.833 2.33674 409.91 2.32247 409.982 2.29368C410.053 2.26489 410.119 2.22215 410.174 2.16794C410.229 2.11373 410.272 2.04913 410.302 1.9779C410.332 1.90667 410.347 1.83022 410.347 1.75301C410.347 1.6758 410.332 1.59935 410.302 1.52812C410.272 1.45689 410.229 1.39229 410.174 1.33808C410.119 1.28387 410.053 1.24113 409.982 1.21234C409.91 1.18354 409.833 1.16928 409.756 1.17037H408.591ZM408.591 4.27777C408.514 4.27667 408.437 4.29094 408.365 4.31973C408.294 4.34852 408.229 4.39126 408.174 4.44547C408.119 4.49968 408.075 4.56428 408.045 4.63551C408.015 4.70674 408 4.78319 408 4.8604C408 4.93762 408.015 5.01406 408.045 5.08529C408.075 5.15652 408.119 5.22112 408.174 5.27533C408.229 5.32954 408.294 5.37229 408.365 5.40108C408.437 5.42987 408.514 5.44413 408.591 5.44304H411.31C411.387 5.44413 411.464 5.42987 411.535 5.40108C411.607 5.37229 411.672 5.32954 411.727 5.27533C411.782 5.22112 411.826 5.15652 411.856 5.08529C411.885 5.01406 411.901 4.93762 411.901 4.8604C411.901 4.78319 411.885 4.70674 411.856 4.63551C411.826 4.56428 411.782 4.49968 411.727 4.44547C411.672 4.39126 411.607 4.34852 411.535 4.31973C411.464 4.29094 411.387 4.27667 411.31 4.27777H408.591ZM408.591 7.38516C408.514 7.38407 408.437 7.39833 408.365 7.42712C408.294 7.45591 408.229 7.49865 408.174 7.55287C408.119 7.60708 408.075 7.67167 408.045 7.74291C408.015 7.81414 408 7.89058 408 7.96779C408 8.04501 408.015 8.12145 408.045 8.19268C408.075 8.26392 408.119 8.32851 408.174 8.38272C408.229 8.43694 408.294 8.47968 408.365 8.50847C408.437 8.53726 408.514 8.55152 408.591 8.55043H412.864C412.941 8.55152 413.017 8.53726 413.089 8.50847C413.161 8.47968 413.226 8.43694 413.281 8.38272C413.336 8.32851 413.38 8.26392 413.409 8.19268C413.439 8.12145 413.455 8.04501 413.455 7.96779C413.455 7.89058 413.439 7.81414 413.409 7.74291C413.38 7.67167 413.336 7.60708 413.281 7.55287C413.226 7.49865 413.161 7.45591 413.089 7.42712C413.017 7.39833 412.941 7.38407 412.864 7.38516H408.591ZM408.591 10.4926C408.514 10.4915 408.437 10.5057 408.365 10.5345C408.294 10.5633 408.229 10.606 408.174 10.6603C408.119 10.7145 408.075 10.7791 408.045 10.8503C408.015 10.9215 408 10.998 408 11.0752C408 11.1524 408.015 11.2288 408.045 11.3001C408.075 11.3713 408.119 11.4359 408.174 11.4901C408.229 11.5443 408.294 11.5871 408.365 11.6159C408.437 11.6447 408.514 11.6589 408.591 11.6578H414.417C414.495 11.6589 414.571 11.6447 414.643 11.6159C414.714 11.5871 414.78 11.5443 414.835 11.4901C414.89 11.4359 414.933 11.3713 414.963 11.3001C414.993 11.2288 415.008 11.1524 415.008 11.0752C415.008 10.998 414.993 10.9215 414.963 10.8503C414.933 10.7791 414.89 10.7145 414.835 10.6603C414.78 10.606 414.714 10.5633 414.643 10.5345C414.571 10.5057 414.495 10.4915 414.417 10.4926H408.591ZM408.591 13.5999C408.514 13.5989 408.437 13.6131 408.365 13.6419C408.294 13.6707 408.229 13.7134 408.174 13.7676C408.119 13.8219 408.075 13.8865 408.045 13.9577C408.015 14.0289 408 14.1054 408 14.1826C408 14.2598 408.015 14.3362 408.045 14.4075C408.075 14.4787 408.119 14.5433 408.174 14.5975C408.229 14.6517 408.294 14.6945 408.365 14.7233C408.437 14.752 408.514 14.7663 408.591 14.7652H415.971C416.048 14.7663 416.125 14.752 416.196 14.7233C416.268 14.6945 416.333 14.6517 416.388 14.5975C416.443 14.5433 416.487 14.4787 416.517 14.4075C416.547 14.3362 416.562 14.2598 416.562 14.1826C416.562 14.1054 416.547 14.0289 416.517 13.9577C416.487 13.8865 416.443 13.8219 416.388 13.7676C416.333 13.7134 416.268 13.6707 416.196 13.6419C416.125 13.6131 416.048 13.5989 415.971 13.5999H408.591Z" fill="black"/>
<path d="M442.591 0.773591C442.514 0.772499 442.437 0.786763 442.365 0.815553C442.294 0.844343 442.229 0.887086 442.174 0.941297C442.119 0.995508 442.075 1.06011 442.045 1.13134C442.015 1.20257 442 1.27901 442 1.35623C442 1.43344 442.015 1.50989 442.045 1.58112C442.075 1.65235 442.119 1.71695 442.174 1.77116C442.229 1.82537 442.294 1.86811 442.365 1.8969C442.437 1.92569 442.514 1.93996 442.591 1.93886H449.971C450.048 1.93996 450.125 1.92569 450.196 1.8969C450.268 1.86811 450.333 1.82537 450.388 1.77116C450.443 1.71695 450.487 1.65235 450.517 1.58112C450.547 1.50989 450.562 1.43344 450.562 1.35623C450.562 1.27901 450.547 1.20257 450.517 1.13134C450.487 1.06011 450.443 0.995508 450.388 0.941297C450.333 0.887086 450.268 0.844343 450.196 0.815553C450.125 0.786763 450.048 0.772499 449.971 0.773591H442.591ZM452.681 3.67843C452.526 3.68084 452.379 3.74443 452.272 3.85524C452.164 3.96605 452.105 4.11501 452.107 4.26941V12.7677L450.383 11.0433C450.329 10.9874 450.265 10.9428 450.194 10.912C450.123 10.8812 450.046 10.865 449.969 10.8642C449.891 10.8634 449.814 10.8781 449.742 10.9074C449.671 10.9367 449.605 10.98 449.551 11.0349C449.496 11.0897 449.452 11.1549 449.423 11.2266C449.394 11.2984 449.379 11.3753 449.38 11.4528C449.381 11.5303 449.397 11.6069 449.428 11.678C449.458 11.7492 449.503 11.8135 449.559 11.8672L452.278 14.5862C452.387 14.6954 452.535 14.7567 452.69 14.7567C452.844 14.7567 452.993 14.6954 453.102 14.5862L455.821 11.8672C455.877 11.8135 455.921 11.7492 455.952 11.678C455.983 11.6069 455.999 11.5303 456 11.4528C456.001 11.3753 455.986 11.2984 455.957 11.2266C455.927 11.1549 455.884 11.0897 455.829 11.0349C455.775 10.98 455.709 10.9367 455.638 10.9074C455.566 10.8781 455.489 10.8634 455.411 10.8642C455.334 10.865 455.257 10.8812 455.186 10.912C455.115 10.9428 455.051 10.9874 454.997 11.0433L453.273 12.7677V4.26941C453.274 4.19143 453.259 4.11401 453.23 4.04176C453.2 3.9695 453.157 3.90387 453.102 3.84876C453.047 3.79365 452.981 3.75017 452.909 3.72091C452.836 3.69166 452.759 3.67721 452.681 3.67843ZM442.591 3.88098C442.514 3.87989 442.437 3.89416 442.365 3.92295C442.294 3.95174 442.229 3.99448 442.174 4.04869C442.119 4.1029 442.075 4.1675 442.045 4.23873C442.015 4.30996 442 4.38641 442 4.46362C442 4.54083 442.015 4.61728 442.045 4.68851C442.075 4.75974 442.119 4.82434 442.174 4.87855C442.229 4.93276 442.294 4.9755 442.365 5.00429C442.437 5.03308 442.514 5.04735 442.591 5.04626H448.417C448.495 5.04735 448.571 5.03308 448.643 5.00429C448.714 4.9755 448.78 4.93276 448.835 4.87855C448.89 4.82434 448.933 4.75974 448.963 4.68851C448.993 4.61728 449.008 4.54083 449.008 4.46362C449.008 4.38641 448.993 4.30996 448.963 4.23873C448.933 4.1675 448.89 4.1029 448.835 4.04869C448.78 3.99448 448.714 3.95174 448.643 3.92295C448.571 3.89416 448.495 3.87989 448.417 3.88098H442.591ZM442.591 6.98838C442.514 6.98729 442.437 7.00155 442.365 7.03034C442.294 7.05913 442.229 7.10187 442.174 7.15608C442.119 7.21029 442.075 7.27489 442.045 7.34612C442.015 7.41736 442 7.4938 442 7.57101C442 7.64823 442.015 7.72467 442.045 7.7959C442.075 7.86713 442.119 7.93173 442.174 7.98594C442.229 8.04015 442.294 8.0829 442.365 8.11169C442.437 8.14048 442.514 8.15474 442.591 8.15365H446.864C446.941 8.15474 447.017 8.14048 447.089 8.11169C447.161 8.0829 447.226 8.04015 447.281 7.98594C447.336 7.93173 447.38 7.86713 447.409 7.7959C447.439 7.72467 447.455 7.64823 447.455 7.57101C447.455 7.4938 447.439 7.41736 447.409 7.34612C447.38 7.27489 447.336 7.21029 447.281 7.15608C447.226 7.10187 447.161 7.05913 447.089 7.03034C447.017 7.00155 446.941 6.98729 446.864 6.98838H442.591ZM442.591 10.0958C442.514 10.0947 442.437 10.1089 442.365 10.1377C442.294 10.1665 442.229 10.2093 442.174 10.2635C442.119 10.3177 442.075 10.3823 442.045 10.4535C442.015 10.5247 442 10.6012 442 10.6784C442 10.7556 442.015 10.8321 442.045 10.9033C442.075 10.9745 442.119 11.0391 442.174 11.0933C442.229 11.1475 442.294 11.1903 442.365 11.2191C442.437 11.2479 442.514 11.2621 442.591 11.261H445.31C445.387 11.2621 445.464 11.2479 445.535 11.2191C445.607 11.1903 445.672 11.1475 445.727 11.0933C445.782 11.0391 445.826 10.9745 445.856 10.9033C445.885 10.8321 445.901 10.7556 445.901 10.6784C445.901 10.6012 445.885 10.5247 445.856 10.4535C445.826 10.3823 445.782 10.3177 445.727 10.2635C445.672 10.2093 445.607 10.1665 445.535 10.1377C445.464 10.1089 445.387 10.0947 445.31 10.0958H442.591ZM442.591 13.2032C442.514 13.2021 442.437 13.2163 442.365 13.2451C442.294 13.2739 442.229 13.3167 442.174 13.3709C442.119 13.4251 442.075 13.4897 442.045 13.5609C442.015 13.6321 442 13.7086 442 13.7858C442 13.863 442.015 13.9395 442.045 14.0107C442.075 14.0819 442.119 14.1465 442.174 14.2007C442.229 14.2549 442.294 14.2977 442.365 14.3265C442.437 14.3553 442.514 14.3695 442.591 14.3684H443.756C443.833 14.3695 443.91 14.3553 443.982 14.3265C444.053 14.2977 444.119 14.2549 444.174 14.2007C444.229 14.1465 444.272 14.0819 444.302 14.0107C444.332 13.9395 444.347 13.863 444.347 13.7858C444.347 13.7086 444.332 13.6321 444.302 13.5609C444.272 13.4897 444.229 13.4251 444.174 13.3709C444.119 13.3167 444.053 13.2739 443.982 13.2451C443.91 13.2163 443.833 13.2021 443.756 13.2032H442.591Z" fill="black"/>
<path d="M483 0.773655C479.14 0.773655 476 3.91388 476 7.77365C476 11.6334 479.14 14.7737 483 14.7737C486.86 14.7737 490 11.6334 490 7.77365C490 3.91388 486.86 0.773655 483 0.773655ZM483 1.82365C486.292 1.82365 488.95 4.48134 488.95 7.77365C488.95 11.066 486.292 13.7237 483 13.7237C479.708 13.7237 477.05 11.066 477.05 7.77365C477.05 4.48134 479.708 1.82365 483 1.82365ZM483 4.27365C482.814 4.27365 482.636 4.3474 482.505 4.47868C482.374 4.60996 482.3 4.788 482.3 4.97365C482.3 5.15931 482.374 5.33735 482.505 5.46863C482.636 5.59991 482.814 5.67366 483 5.67366C483.186 5.67366 483.364 5.59991 483.495 5.46863C483.626 5.33735 483.7 5.15931 483.7 4.97365C483.7 4.788 483.626 4.60996 483.495 4.47868C483.364 4.3474 483.186 4.27365 483 4.27365ZM482.992 6.71614C482.853 6.71831 482.72 6.77561 482.623 6.87546C482.526 6.97531 482.473 7.10953 482.475 7.24865V11.0987C482.474 11.1682 482.487 11.2373 482.513 11.3019C482.539 11.3664 482.577 11.4252 482.626 11.4747C482.675 11.5243 482.733 11.5636 482.797 11.5905C482.862 11.6173 482.93 11.6311 483 11.6311C483.07 11.6311 483.138 11.6173 483.203 11.5905C483.267 11.5636 483.325 11.5243 483.374 11.4747C483.423 11.4252 483.461 11.3664 483.487 11.3019C483.513 11.2373 483.526 11.1682 483.525 11.0987V7.24865C483.526 7.17839 483.513 7.10863 483.486 7.04352C483.46 6.97841 483.421 6.91928 483.371 6.86962C483.321 6.81996 483.262 6.78078 483.197 6.75442C483.132 6.72806 483.062 6.71504 482.992 6.71614Z" fill="black"/>
<path d="M512.275 2.57356C511.025 2.57356 510 3.59838 510 4.84856V11.4986C510 12.7487 511.025 13.7736 512.275 13.7736H521.725C522.975 13.7736 524 12.7487 524 11.4986V4.84856C524 3.59838 522.975 2.57356 521.725 2.57356H512.275ZM512.275 3.62356H521.725C522.408 3.62356 522.95 4.16604 522.95 4.84856V5.23547L517 8.45178L511.05 5.23547V4.84856C511.05 4.16604 511.592 3.62356 512.275 3.62356ZM511.05 6.42903L516.75 9.51067C516.827 9.55206 516.913 9.57374 517 9.57374C517.087 9.57374 517.173 9.55206 517.25 9.51067L522.95 6.42903V11.4986C522.95 12.1811 522.408 12.7236 521.725 12.7236H512.275C511.592 12.7236 511.05 12.1811 511.05 11.4986V6.42903Z" fill="black"/>
<path d="M546.915 0.773597C546.776 0.775768 546.643 0.83301 546.547 0.93275C546.45 1.03249 546.397 1.16657 546.398 1.30554V8.23042C546.035 8.32796 545.706 8.48438 545.482 8.73642C545.153 9.10676 545 9.57998 545 10.0461C545 10.5123 545.153 10.9855 545.482 11.3559C545.706 11.6079 546.035 11.7643 546.398 11.8619V14.2416C546.398 14.3111 546.41 14.3801 546.436 14.4446C546.462 14.5091 546.501 14.5678 546.549 14.6173C546.598 14.6668 546.656 14.7061 546.721 14.7329C546.785 14.7597 546.853 14.7735 546.923 14.7735C546.992 14.7735 547.061 14.7597 547.125 14.7329C547.189 14.7061 547.248 14.6668 547.296 14.6173C547.345 14.5678 547.384 14.5091 547.41 14.4446C547.436 14.3801 547.448 14.3111 547.447 14.2416V11.8619C547.811 11.7643 548.14 11.6079 548.364 11.3559C548.693 10.9855 548.846 10.5123 548.846 10.0461C548.846 9.57998 548.693 9.10676 548.364 8.73642C548.14 8.48438 547.811 8.32796 547.447 8.23042V1.30554C547.448 1.23535 547.435 1.16567 547.409 1.10063C547.382 1.03559 547.343 0.976521 547.294 0.926914C547.244 0.877307 547.185 0.838176 547.12 0.811841C547.055 0.785505 546.985 0.7725 546.915 0.773597ZM551.285 0.773597C551.146 0.775768 551.014 0.83301 550.917 0.93275C550.82 1.03249 550.767 1.16657 550.769 1.30554V2.98606C550.405 3.0836 550.076 3.24002 549.852 3.49206C549.523 3.86241 549.37 4.33562 549.37 4.80178C549.37 5.26795 549.523 5.74116 549.852 6.11151C550.076 6.36355 550.405 6.51997 550.769 6.61751V14.2416C550.768 14.3111 550.781 14.3801 550.807 14.4446C550.832 14.5091 550.871 14.5678 550.92 14.6173C550.969 14.6668 551.027 14.7061 551.091 14.7329C551.155 14.7597 551.224 14.7735 551.293 14.7735C551.363 14.7735 551.432 14.7597 551.496 14.7329C551.56 14.7061 551.618 14.6668 551.667 14.6173C551.716 14.5678 551.754 14.5091 551.78 14.4446C551.806 14.3801 551.819 14.3111 551.818 14.2416V6.61751C552.181 6.51997 552.51 6.36355 552.734 6.11151C553.063 5.74116 553.216 5.26795 553.216 4.80178C553.216 4.33562 553.063 3.86241 552.734 3.49206C552.51 3.24002 552.181 3.0836 551.818 2.98606V1.30554C551.819 1.23535 551.806 1.16567 551.779 1.10063C551.753 1.03559 551.714 0.976521 551.664 0.926914C551.614 0.877307 551.555 0.838176 551.49 0.811841C551.425 0.785505 551.355 0.7725 551.285 0.773597ZM555.655 0.773597C555.516 0.775768 555.384 0.83301 555.287 0.93275C555.19 1.03249 555.137 1.16657 555.139 1.30554V8.92967C554.776 9.0272 554.447 9.18363 554.223 9.43567C553.893 9.80601 553.741 10.2792 553.741 10.7454C553.741 11.2116 553.893 11.6848 554.223 12.0551C554.447 12.3072 554.776 12.4636 555.139 12.5611V14.2416C555.138 14.3111 555.151 14.3801 555.177 14.4446C555.203 14.5091 555.241 14.5678 555.29 14.6173C555.339 14.6668 555.397 14.7061 555.461 14.7329C555.525 14.7597 555.594 14.7735 555.664 14.7735C555.733 14.7735 555.802 14.7597 555.866 14.7329C555.93 14.7061 555.988 14.6668 556.037 14.6173C556.086 14.5678 556.124 14.5091 556.15 14.4446C556.176 14.3801 556.189 14.3111 556.188 14.2416V12.5611C556.551 12.4636 556.88 12.3072 557.104 12.0551C557.434 11.6848 557.586 11.2116 557.586 10.7454C557.586 10.2792 557.434 9.80601 557.104 9.43567C556.88 9.18363 556.551 9.0272 556.188 8.92967V1.30554C556.189 1.23535 556.176 1.16567 556.149 1.10063C556.123 1.03559 556.084 0.976521 556.034 0.926914C555.984 0.877307 555.925 0.838176 555.86 0.811841C555.795 0.785505 555.726 0.7725 555.655 0.773597ZM551.26 3.93387C551.282 3.93524 551.304 3.93524 551.326 3.93387C551.636 3.94213 551.819 4.04076 551.95 4.18858C552.087 4.34266 552.167 4.5687 552.167 4.80178C552.167 5.03487 552.087 5.2609 551.95 5.41499C551.813 5.56908 551.628 5.67584 551.293 5.67584C550.958 5.67584 550.773 5.56908 550.636 5.41499C550.499 5.2609 550.419 5.03487 550.419 4.80178C550.419 4.5687 550.499 4.34266 550.636 4.18858C550.768 4.04076 550.951 3.94213 551.26 3.93387ZM546.89 9.17823C546.912 9.17959 546.934 9.17959 546.956 9.17823C547.266 9.18649 547.448 9.28512 547.58 9.43293C547.717 9.58702 547.797 9.81306 547.797 10.0461C547.797 10.2792 547.717 10.5053 547.58 10.6593C547.448 10.8072 547.266 10.9058 546.956 10.9141C546.934 10.9127 546.912 10.9127 546.89 10.9141C546.58 10.9058 546.397 10.8072 546.266 10.6593C546.129 10.5053 546.049 10.2792 546.049 10.0461C546.049 9.81306 546.129 9.58702 546.266 9.43293C546.397 9.28512 546.58 9.18649 546.89 9.17823ZM555.631 9.87747C555.653 9.87884 555.674 9.87884 555.696 9.87747C556.006 9.88574 556.189 9.98437 556.32 10.1322C556.457 10.2863 556.538 10.5123 556.538 10.7454C556.538 10.9785 556.457 11.2045 556.32 11.3586C556.189 11.5064 556.006 11.605 555.696 11.6133C555.674 11.6119 555.653 11.6119 555.631 11.6133C555.321 11.605 555.138 11.5064 555.007 11.3586C554.87 11.2045 554.789 10.9785 554.789 10.7454C554.789 10.5123 554.87 10.2863 555.007 10.1322C555.138 9.98437 555.321 9.88574 555.631 9.87747Z" fill="black"/>
<path d="M583.075 1.77353C582.405 1.77353 581.85 2.3283 581.85 2.99853V3.87353H579.225C578.555 3.87353 578 4.4283 578 5.09853V13.4985C578 14.1688 578.555 14.7235 579.225 14.7235H590.775C591.445 14.7235 592 14.1688 592 13.4985V5.09853C592 4.4283 591.445 3.87353 590.775 3.87353H588.15V2.99853C588.15 2.3283 587.595 1.77353 586.925 1.77353H583.075ZM583.075 2.82353H586.925C587.028 2.82353 587.1 2.89527 587.1 2.99853V3.87353H582.9V2.99853C582.9 2.89527 582.972 2.82353 583.075 2.82353ZM579.225 4.92353H590.775C590.878 4.92353 590.95 4.99527 590.95 5.09853V9.82353H586.05V9.64853C586.05 9.35873 585.815 9.12353 585.525 9.12353H584.475C584.185 9.12353 583.95 9.35873 583.95 9.64853V9.82353H579.05V5.09853C579.05 4.99527 579.122 4.92353 579.225 4.92353ZM579.05 10.8735H583.95V11.0485C583.95 11.3383 584.185 11.5735 584.475 11.5735H585.525C585.815 11.5735 586.05 11.3383 586.05 11.0485V10.8735H590.95V13.4985C590.95 13.6018 590.878 13.6735 590.775 13.6735H579.225C579.122 13.6735 579.05 13.6018 579.05 13.4985V10.8735Z" fill="black"/>
<path d="M619 1.77365C618.455 1.77365 617.91 2.03922 617.616 2.57084L612.192 12.3691C611.62 13.4025 612.395 14.7182 613.576 14.7182H624.424C625.605 14.7182 626.38 13.4025 625.808 12.3691L620.383 2.57084C620.089 2.03922 619.544 1.77365 619 1.77365ZM619 2.78844C619.178 2.78844 619.356 2.88529 619.464 3.07995L624.888 12.8782C625.096 13.2538 624.852 13.6671 624.424 13.6671H613.576C613.148 13.6671 612.904 13.2538 613.112 12.8782L618.536 3.07995C618.644 2.88529 618.821 2.78844 619 2.78844ZM618.991 5.60152C618.852 5.6037 618.719 5.66106 618.622 5.761C618.525 5.86095 618.472 5.99531 618.474 6.13457V9.63809C618.473 9.70773 618.486 9.77687 618.512 9.84149C618.538 9.90612 618.577 9.96493 618.625 10.0145C618.674 10.0641 618.733 10.1035 618.797 10.1304C618.861 10.1573 618.93 10.1711 619 10.1711C619.069 10.1711 619.138 10.1573 619.203 10.1304C619.267 10.1035 619.325 10.0641 619.374 10.0145C619.423 9.96493 619.461 9.90612 619.487 9.84149C619.513 9.77687 619.526 9.70773 619.525 9.63809V6.13457C619.526 6.06424 619.513 5.99441 619.487 5.92924C619.46 5.86406 619.421 5.80487 619.371 5.75516C619.321 5.70545 619.262 5.66623 619.197 5.63984C619.132 5.61345 619.062 5.60042 618.991 5.60152ZM619 11.2147C618.814 11.2147 618.636 11.2885 618.504 11.4199C618.373 11.5513 618.299 11.7295 618.299 11.9154C618.299 12.1012 618.373 12.2794 618.504 12.4108C618.636 12.5423 618.814 12.6161 619 12.6161C619.185 12.6161 619.364 12.5423 619.495 12.4108C619.627 12.2794 619.7 12.1012 619.7 11.9154C619.7 11.7295 619.627 11.5513 619.495 11.4199C619.364 11.2885 619.185 11.2147 619 11.2147Z" fill="black"/>
<path d="M650.268 2.00697C650.196 2.00697 650.125 2.02256 650.059 2.05268C649.994 2.0828 649.935 2.12673 649.889 2.18146L648.501 3.80205C648.448 3.8491 648.406 3.90687 648.377 3.97152C648.348 4.03617 648.333 4.10624 648.333 4.17709C648.333 4.17796 648.333 4.17882 648.333 4.17969C648.333 4.18056 648.333 4.18143 648.333 4.1823V6.34005L647.114 4.84447C646.959 4.65578 646.961 4.38267 647.117 4.19532L647.777 3.40293C647.823 3.34726 647.885 3.33776 647.913 3.34042C647.932 3.34076 647.96 3.34854 647.989 3.36321L648.593 2.56561C648.401 2.42727 648.173 2.34433 647.93 2.34033C647.572 2.33366 647.237 2.48854 647.009 2.7629L646.349 3.55464C645.887 4.10869 645.883 4.91698 646.339 5.47604L647.666 7.10379V12.5249C647.666 13.5315 648.493 14.3584 649.5 14.3584C649.5 14.3584 649.501 14.3584 649.501 14.3584L656.5 14.3414C657.507 14.3414 658.334 13.5146 658.334 12.5079V7.10314L659.661 5.47604C660.117 4.91698 660.112 4.10869 659.65 3.55464L658.991 2.7629C658.762 2.48854 658.428 2.33366 658.07 2.34033C657.827 2.34433 657.598 2.42727 657.407 2.56561L658.01 3.36321C658.04 3.34854 658.068 3.34076 658.087 3.34042C658.115 3.33776 658.176 3.34726 658.223 3.40293L658.883 4.19532C659.039 4.38267 659.04 4.65578 658.886 4.84447L657.667 6.33874V4.1823C657.667 4.18034 657.667 4.17839 657.667 4.17644C657.667 4.16861 657.667 4.1608 657.666 4.153C657.665 4.14125 657.665 4.12952 657.663 4.11784C657.651 4.00615 657.601 3.90202 657.521 3.82224C657.521 3.82202 657.521 3.8218 657.521 3.82159L656.297 2.2049C656.251 2.14339 656.19 2.09352 656.121 2.05918C656.052 2.02484 655.976 2.00697 655.899 2.00697H650.268ZM650.499 3.00706H655.65L656.161 3.68225H649.92L650.499 3.00706ZM649.333 4.68234H656.667V6.3407H649.333V4.68234ZM648.666 7.34079H657.334V12.5079C657.334 12.974 656.967 13.3413 656.5 13.3413C656.5 13.3413 656.5 13.3413 656.499 13.3413L649.5 13.3583C649.034 13.3583 648.666 12.991 648.666 12.5249V7.34079ZM651.5 8.67425C651.434 8.67331 651.368 8.68555 651.306 8.71026C651.245 8.73497 651.189 8.77165 651.142 8.81818C651.095 8.86471 651.057 8.92015 651.032 8.98128C651.006 9.04241 650.993 9.10802 650.993 9.17429C650.993 9.24056 651.006 9.30617 651.032 9.3673C651.057 9.42844 651.095 9.48388 651.142 9.5304C651.189 9.57693 651.245 9.61361 651.306 9.63832C651.368 9.66303 651.434 9.67527 651.5 9.67434H654.5C654.567 9.67527 654.632 9.66303 654.694 9.63832C654.755 9.61361 654.811 9.57693 654.858 9.5304C654.906 9.48388 654.943 9.42844 654.969 9.3673C654.994 9.30617 655.007 9.24056 655.007 9.17429C655.007 9.10802 654.994 9.04241 654.969 8.98128C654.943 8.92015 654.906 8.86471 654.858 8.81818C654.811 8.77165 654.755 8.73497 654.694 8.71026C654.632 8.68555 654.567 8.67331 654.5 8.67425H651.5Z" fill="black"/>
<path d="M686.6 0.773533C684.673 0.773533 683.1 2.34676 683.1 4.27353C683.1 6.20031 684.673 7.77353 686.6 7.77353C688.527 7.77353 690.1 6.20031 690.1 4.27353C690.1 2.34676 688.527 0.773533 686.6 0.773533ZM686.6 1.82353C687.959 1.82353 689.05 2.91422 689.05 4.27353C689.05 5.63285 687.959 6.72353 686.6 6.72353C685.241 6.72353 684.15 5.63285 684.15 4.27353C684.15 2.91422 685.241 1.82353 686.6 1.82353ZM682.392 9.17353C681.63 9.17353 681 9.80308 681 10.566V11.0985C681 12.36 681.798 13.3358 682.857 13.9204C683.917 14.505 685.259 14.7735 686.6 14.7735C687.941 14.7735 689.283 14.505 690.343 13.9204C691.246 13.422 691.926 12.6254 692.117 11.6235H692.201V10.566C692.201 9.80308 691.57 9.17353 690.808 9.17353H682.392ZM682.392 10.2235H690.808C691.003 10.2235 691.151 10.3706 691.151 10.566V10.5735H691.15V11.0985C691.15 11.9371 690.679 12.5363 689.835 13.0017C688.992 13.4671 687.796 13.7235 686.6 13.7235C685.404 13.7235 684.208 13.4671 683.365 13.0017C682.521 12.5363 682.05 11.9371 682.05 11.0985V10.566C682.05 10.3706 682.197 10.2235 682.392 10.2235Z" fill="black"/>
<g clip-path="url(#clip0_120_1871)">
<path d="M716.985 1.17382C716.915 1.17255 716.845 1.1852 716.781 1.21101C716.716 1.23683 716.657 1.2753 716.607 1.32417C716.557 1.37305 716.518 1.43135 716.491 1.49568C716.464 1.56 716.45 1.62906 716.45 1.69881V3.33805C715.451 3.57736 714.7 4.47946 714.7 5.54877V12.8987C714.7 14.1489 715.725 15.1737 716.975 15.1737H725.025C726.275 15.1737 727.3 14.1489 727.3 12.8987V5.54877C727.3 4.47946 726.549 3.57736 725.55 3.33805V1.69881C725.55 1.61133 725.528 1.52523 725.486 1.44833C725.445 1.37144 725.384 1.30619 725.311 1.25851C725.238 1.21083 725.153 1.18224 725.066 1.17533C724.979 1.16842 724.892 1.1834 724.812 1.21893L723.5 1.80203L722.691 1.262C722.614 1.21071 722.525 1.18067 722.433 1.17491C722.34 1.16915 722.248 1.18787 722.165 1.22919L721 1.8116L719.834 1.22919C719.752 1.18787 719.659 1.16915 719.567 1.17491C719.475 1.18067 719.386 1.21071 719.309 1.262L718.499 1.80203L717.188 1.21893C717.124 1.19042 717.055 1.17508 716.985 1.17382ZM719.638 2.30447L720.765 2.86843C720.838 2.90477 720.919 2.92369 721 2.92369C721.081 2.92369 721.162 2.90477 721.234 2.86843L722.362 2.30447L723.159 2.83562C723.232 2.88474 723.317 2.91445 723.405 2.92198C723.494 2.92951 723.582 2.91461 723.663 2.87868L724.5 2.50681V3.71266C724.491 3.76902 724.491 3.82651 724.5 3.88287V5.72377H717.5V3.88492C717.509 3.82856 717.509 3.77107 717.5 3.71471V2.50681L718.337 2.87868C718.418 2.91461 718.506 2.92951 718.594 2.92198C718.683 2.91445 718.767 2.88474 718.841 2.83562L719.638 2.30447ZM716.45 4.4441V6.24877C716.45 6.388 716.505 6.52153 716.604 6.61998C716.702 6.71843 716.836 6.77375 716.975 6.77376H725.025C725.164 6.77375 725.298 6.71843 725.396 6.61998C725.495 6.52153 725.55 6.388 725.55 6.24877V4.4441C725.964 4.63922 726.25 5.05563 726.25 5.54877V11.6737H715.75V5.54877C715.75 5.05563 716.035 4.63922 716.45 4.4441ZM718.55 7.47376C718.364 7.47376 718.186 7.54751 718.055 7.67878C717.924 7.81005 717.85 7.9881 717.85 8.17375C717.85 8.3594 717.924 8.53745 718.055 8.66872C718.186 8.79999 718.364 8.87374 718.55 8.87374C718.736 8.87374 718.914 8.79999 719.045 8.66872C719.176 8.53745 719.25 8.3594 719.25 8.17375C719.25 7.9881 719.176 7.81005 719.045 7.67878C718.914 7.54751 718.736 7.47376 718.55 7.47376ZM721 7.47376C720.814 7.47376 720.636 7.54751 720.505 7.67878C720.374 7.81005 720.3 7.9881 720.3 8.17375C720.3 8.3594 720.374 8.53745 720.505 8.66872C720.636 8.79999 720.814 8.87374 721 8.87374C721.186 8.87374 721.364 8.79999 721.495 8.66872C721.626 8.53745 721.7 8.3594 721.7 8.17375C721.7 7.9881 721.626 7.81005 721.495 7.67878C721.364 7.54751 721.186 7.47376 721 7.47376ZM723.45 7.47376C723.264 7.47376 723.086 7.54751 722.955 7.67878C722.824 7.81005 722.75 7.9881 722.75 8.17375C722.75 8.3594 722.824 8.53745 722.955 8.66872C723.086 8.79999 723.264 8.87374 723.45 8.87374C723.636 8.87374 723.814 8.79999 723.945 8.66872C724.076 8.53745 724.15 8.3594 724.15 8.17375C724.15 7.9881 724.076 7.81005 723.945 7.67878C723.814 7.54751 723.636 7.47376 723.45 7.47376ZM718.55 9.57374C718.364 9.57374 718.186 9.64749 718.055 9.77876C717.924 9.91004 717.85 10.0881 717.85 10.2737C717.85 10.4594 717.924 10.6374 718.055 10.7687C718.186 10.9 718.364 10.9737 718.55 10.9737C718.736 10.9737 718.914 10.9 719.045 10.7687C719.176 10.6374 719.25 10.4594 719.25 10.2737C719.25 10.0881 719.176 9.91004 719.045 9.77876C718.914 9.64749 718.736 9.57374 718.55 9.57374ZM721 9.57374C720.814 9.57374 720.636 9.64749 720.505 9.77876C720.374 9.91004 720.3 10.0881 720.3 10.2737C720.3 10.4594 720.374 10.6374 720.505 10.7687C720.636 10.9 720.814 10.9737 721 10.9737C721.186 10.9737 721.364 10.9 721.495 10.7687C721.626 10.6374 721.7 10.4594 721.7 10.2737C721.7 10.0881 721.626 9.91004 721.495 9.77876C721.364 9.64749 721.186 9.57374 721 9.57374ZM723.45 9.57374C723.264 9.57374 723.086 9.64749 722.955 9.77876C722.824 9.91004 722.75 10.0881 722.75 10.2737C722.75 10.4594 722.824 10.6374 722.955 10.7687C723.086 10.9 723.264 10.9737 723.45 10.9737C723.636 10.9737 723.814 10.9 723.945 10.7687C724.076 10.6374 724.15 10.4594 724.15 10.2737C724.15 10.0881 724.076 9.91004 723.945 9.77876C723.814 9.64749 723.636 9.57374 723.45 9.57374ZM715.75 12.7237H726.25V12.8987C726.25 13.5812 725.707 14.1237 725.025 14.1237H721.699C721.699 13.9382 721.626 13.7602 721.494 13.629C721.363 13.4977 721.185 13.4239 721 13.4237C720.814 13.4239 720.636 13.4977 720.505 13.629C720.374 13.7602 720.301 13.9382 720.301 14.1237H716.975C716.292 14.1237 715.75 13.5812 715.75 12.8987V12.7237Z" fill="black"/>
</g>
<path d="M750.833 0.773533C749.827 0.773533 749 1.60027 749 2.60687C749 3.61346 749.827 4.4402 750.833 4.4402C751.84 4.4402 752.667 3.61346 752.667 2.60687C752.667 1.60027 751.84 0.773533 750.833 0.773533ZM750.833 1.77353C751.299 1.77353 751.667 2.14079 751.667 2.60687C751.667 3.07294 751.299 3.4402 750.833 3.4402C750.367 3.4402 750 3.07294 750 2.60687C750 2.14079 750.367 1.77353 750.833 1.77353ZM754.667 2.4402C754.608 2.4402 754.551 2.44141 754.497 2.4428C754.43 2.44254 754.364 2.45571 754.302 2.48153C754.241 2.50734 754.185 2.54528 754.138 2.59309C754.091 2.6409 754.054 2.69761 754.03 2.75987C754.005 2.82213 753.994 2.88867 753.995 2.95555C753.997 3.02243 754.012 3.08829 754.04 3.14922C754.067 3.21016 754.107 3.26494 754.156 3.31031C754.205 3.35568 754.263 3.39073 754.326 3.41338C754.389 3.43602 754.456 3.44581 754.523 3.44215C754.572 3.44088 754.621 3.4402 754.667 3.4402C756.241 3.4402 757.613 4.27603 758.373 5.52679C758.407 5.58293 758.452 5.63181 758.505 5.67062C758.558 5.70944 758.618 5.73743 758.682 5.75301C758.746 5.76859 758.812 5.77144 758.877 5.7614C758.942 5.75137 759.004 5.72864 759.06 5.69453C759.116 5.66041 759.165 5.61557 759.204 5.56256C759.243 5.50956 759.271 5.44943 759.286 5.3856C759.302 5.32178 759.305 5.25552 759.295 5.19061C759.285 5.12569 759.262 5.06339 759.228 5.00726C758.292 3.46802 756.596 2.4402 754.667 2.4402ZM749.167 5.10687C748.528 5.10687 748 5.63521 748 6.27353V6.77353C748 7.76275 748.995 8.77353 750.833 8.77353C752.671 8.77353 753.667 7.76275 753.667 6.77353V6.27353C753.667 5.63521 753.138 5.10687 752.5 5.10687H749.167ZM749.167 6.10687H752.5C752.598 6.10687 752.667 6.17518 752.667 6.27353V6.77353C752.667 7.07298 752.329 7.77353 750.833 7.77353C749.338 7.77353 749 7.07298 749 6.77353V6.27353C749 6.17518 749.068 6.10687 749.167 6.10687ZM759.167 6.77353C758.16 6.77353 757.333 7.60028 757.333 8.60687C757.333 9.61346 758.16 10.4402 759.167 10.4402C760.173 10.4402 761 9.61346 761 8.60687C761 7.60028 760.173 6.77353 759.167 6.77353ZM759.167 7.77353C759.633 7.77353 760 8.14079 760 8.60687C760 9.07294 759.633 9.4402 759.167 9.4402C758.7 9.4402 758.333 9.07294 758.333 8.60687C758.333 8.14079 758.7 7.77353 759.167 7.77353ZM750.215 9.77418C750.124 9.77056 750.034 9.79184 749.954 9.83573C749.875 9.87962 749.808 9.94446 749.763 10.0233C749.717 10.102 749.694 10.1918 749.695 10.2828C749.697 10.3739 749.724 10.4627 749.772 10.5398C750.708 12.079 752.404 13.1069 754.333 13.1069C754.392 13.1069 754.448 13.1057 754.502 13.1043C754.569 13.1045 754.636 13.0914 754.697 13.0655C754.759 13.0397 754.815 13.0018 754.862 12.954C754.909 12.9062 754.945 12.8495 754.97 12.7872C754.994 12.7249 755.006 12.6584 755.004 12.5915C755.003 12.5246 754.988 12.4588 754.96 12.3978C754.932 12.3369 754.893 12.2821 754.844 12.2368C754.794 12.1914 754.737 12.1563 754.674 12.1337C754.611 12.111 754.544 12.1013 754.477 12.1049C754.427 12.1062 754.379 12.1069 754.333 12.1069C752.759 12.1069 751.387 11.271 750.627 10.0203C750.584 9.94808 750.524 9.8877 750.453 9.8447C750.381 9.8017 750.299 9.77746 750.215 9.77418ZM757.5 11.1069C756.862 11.1069 756.333 11.6352 756.333 12.2735V12.7735C756.333 13.7628 757.329 14.7735 759.167 14.7735C761.004 14.7735 762 13.7628 762 12.7735V12.2735C762 11.6352 761.472 11.1069 760.833 11.1069H757.5ZM757.5 12.1069H760.833C760.932 12.1069 761 12.1752 761 12.2735V12.7735C761 13.073 760.662 13.7735 759.167 13.7735C757.671 13.7735 757.333 13.073 757.333 12.7735V12.2735C757.333 12.1752 757.402 12.1069 757.5 12.1069Z" fill="black"/>
<path d="M793.848 0.773655C793.294 0.773655 792.811 1.00054 792.503 1.34709C792.195 1.69363 792.053 2.13456 792.053 2.56826C792.053 2.78369 792.089 3.001 792.162 3.20758L789.822 5.04705C789.539 4.86048 789.211 4.72178 788.823 4.72178C788.331 4.72178 787.915 4.91916 787.608 5.20198L785.529 4.01516C785.554 3.89162 785.593 3.76975 785.593 3.64502C785.593 3.21132 785.451 2.77039 785.143 2.42385C784.834 2.0773 784.351 1.85042 783.798 1.85042C783.245 1.85042 782.761 2.0773 782.453 2.42385C782.145 2.77039 782.003 3.21132 782.003 3.64502C782.003 4.07871 782.145 4.51964 782.453 4.86619C782.761 5.21273 783.245 5.43962 783.798 5.43962C784.289 5.43962 784.706 5.24224 785.013 4.95942L787.091 6.14625C787.067 6.26978 787.028 6.39165 787.028 6.51638C787.028 6.95008 787.17 7.39101 787.478 7.73755C787.786 8.0841 788.27 8.31098 788.823 8.31098C789.376 8.31098 789.859 8.0841 790.167 7.73755C790.475 7.39101 790.617 6.95008 790.617 6.51638C790.617 6.30095 790.582 6.08364 790.509 5.87705L792.849 4.03759C793.132 4.22416 793.459 4.36286 793.848 4.36286C794.401 4.36286 794.884 4.13597 795.192 3.78943C795.5 3.44288 795.642 3.00195 795.642 2.56826C795.642 2.13456 795.5 1.69363 795.192 1.34709C794.884 1.00054 794.401 0.773655 793.848 0.773655ZM793.848 1.85042C794.132 1.85042 794.277 1.93759 794.388 2.06212C794.498 2.18666 794.566 2.37384 794.566 2.56826C794.566 2.76267 794.498 2.94985 794.388 3.07439C794.277 3.19893 794.132 3.2861 793.848 3.2861C793.581 3.2861 793.449 3.20016 793.341 3.08771C793.324 3.05537 793.304 3.02483 793.281 2.99658C793.199 2.87603 793.13 2.73279 793.13 2.56826C793.13 2.37384 793.197 2.18666 793.308 2.06212C793.419 1.93759 793.564 1.85042 793.848 1.85042ZM783.798 2.92718C784.082 2.92718 784.227 3.01435 784.338 3.13888C784.448 3.26342 784.516 3.4506 784.516 3.64502C784.516 3.83943 784.448 4.02662 784.338 4.15115C784.227 4.27569 784.082 4.36286 783.798 4.36286C783.514 4.36286 783.369 4.27569 783.258 4.15115C783.148 4.02662 783.08 3.83943 783.08 3.64502C783.08 3.4506 783.148 3.26342 783.258 3.13888C783.369 3.01435 783.514 2.92718 783.798 2.92718ZM788.823 5.79854C789.09 5.79854 789.221 5.88448 789.33 5.99693C789.347 6.02927 789.367 6.05981 789.39 6.08806C789.472 6.20861 789.541 6.35185 789.541 6.51638C789.541 6.7108 789.473 6.89798 789.363 7.02252C789.252 7.14705 789.107 7.23422 788.823 7.23422C788.539 7.23422 788.394 7.14705 788.283 7.02252C788.172 6.89798 788.105 6.7108 788.105 6.51638C788.105 6.32197 788.172 6.13479 788.283 6.01025C788.394 5.88571 788.539 5.79854 788.823 5.79854ZM793.846 5.79854C792.86 5.79854 792.05 6.60949 792.05 7.59525V12.9769C792.05 13.9627 792.86 14.7737 793.846 14.7737C794.831 14.7737 795.642 13.9627 795.642 12.9769V7.59525C795.642 6.60949 794.831 5.79854 793.846 5.79854ZM793.846 6.8753C794.25 6.8753 794.566 7.19126 794.566 7.59525V12.9769C794.566 13.3809 794.25 13.6969 793.846 13.6969C793.442 13.6969 793.126 13.3809 793.126 12.9769V7.59525C793.126 7.19126 793.442 6.8753 793.846 6.8753ZM783.796 6.87741C782.81 6.87741 782 7.68766 782 8.67341V12.9769C782 13.9627 782.81 14.7737 783.796 14.7737C784.782 14.7737 785.593 13.9627 785.593 12.9769V8.67341C785.593 7.68766 784.782 6.87741 783.796 6.87741ZM783.796 7.95417C784.2 7.95415 784.516 8.26942 784.516 8.67341V12.9769C784.516 13.3809 784.2 13.6969 783.796 13.6969C783.392 13.6969 783.077 13.3809 783.077 12.9769V8.67341C783.077 8.26942 783.392 7.95417 783.796 7.95417ZM788.823 9.74667C787.837 9.74667 787.026 10.5576 787.026 11.5434V12.9769C787.026 13.9627 787.837 14.7737 788.823 14.7737C789.809 14.7737 790.62 13.9627 790.62 12.9769V11.5434C790.62 10.5576 789.809 9.74667 788.823 9.74667ZM788.823 10.8234C789.227 10.8234 789.543 11.1394 789.543 11.5434V12.9769C789.543 13.3809 789.227 13.6969 788.823 13.6969C788.419 13.6969 788.103 13.3809 788.103 12.9769V11.5434C788.103 11.1394 788.419 10.8234 788.823 10.8234Z" fill="black"/>
<path d="M816.532 2.77359C816.462 2.7726 816.393 2.78544 816.329 2.81136C816.264 2.83727 816.206 2.87574 816.156 2.92454C816.107 2.97334 816.067 3.03148 816.041 3.0956C816.014 3.15972 816 3.22852 816 3.29803C816 3.36753 816.014 3.43633 816.041 3.50045C816.067 3.56457 816.107 3.62271 816.156 3.67151C816.206 3.72031 816.264 3.75878 816.329 3.78469C816.393 3.81061 816.462 3.82345 816.532 3.82246H829.468C829.537 3.82345 829.606 3.81061 829.671 3.78469C829.735 3.75878 829.794 3.72031 829.844 3.67151C829.893 3.62271 829.932 3.56457 829.959 3.50045C829.986 3.43633 830 3.36753 830 3.29803C830 3.22852 829.986 3.15972 829.959 3.0956C829.932 3.03148 829.893 2.97334 829.844 2.92454C829.794 2.87574 829.735 2.83727 829.671 2.81136C829.606 2.78544 829.537 2.7726 829.468 2.77359H816.532ZM816.532 7.49354C816.462 7.49256 816.393 7.5054 816.329 7.53131C816.264 7.55723 816.206 7.5957 816.156 7.6445C816.107 7.6933 816.067 7.75144 816.041 7.81556C816.014 7.87967 816 7.94848 816 8.01798C816 8.08748 816.014 8.15629 816.041 8.22041C816.067 8.28453 816.107 8.34267 816.156 8.39147C816.206 8.44026 816.264 8.47874 816.329 8.50465C816.393 8.53057 816.462 8.54341 816.532 8.54242H829.468C829.537 8.54341 829.606 8.53057 829.671 8.50465C829.735 8.47874 829.794 8.44026 829.844 8.39147C829.893 8.34267 829.932 8.28453 829.959 8.22041C829.986 8.15629 830 8.08748 830 8.01798C830 7.94848 829.986 7.87967 829.959 7.81556C829.932 7.75144 829.893 7.6933 829.844 7.6445C829.794 7.5957 829.735 7.55723 829.671 7.53131C829.606 7.5054 829.537 7.49256 829.468 7.49354H816.532ZM816.532 12.2135C816.462 12.2125 816.393 12.2254 816.329 12.2513C816.264 12.2772 816.206 12.3157 816.156 12.3645C816.107 12.4133 816.067 12.4714 816.041 12.5355C816.014 12.5996 816 12.6684 816 12.7379C816 12.8074 816.014 12.8763 816.041 12.9404C816.067 13.0045 816.107 13.0626 816.156 13.1114C816.206 13.1602 816.264 13.1987 816.329 13.2246C816.393 13.2505 816.462 13.2634 816.532 13.2624H829.468C829.537 13.2634 829.606 13.2505 829.671 13.2246C829.735 13.1987 829.794 13.1602 829.844 13.1114C829.893 13.0626 829.932 13.0045 829.959 12.9404C829.986 12.8763 830 12.8074 830 12.7379C830 12.6684 829.986 12.5996 829.959 12.5355C829.932 12.4714 829.893 12.4133 829.844 12.3645C829.794 12.3157 829.735 12.2772 829.671 12.2513C829.606 12.2254 829.537 12.2125 829.468 12.2135H816.532Z" fill="black"/>
<path d="M857 1.77353C856.344 1.77353 855.785 2.03853 855.426 2.44209C855.068 2.84565 854.9 3.36312 854.9 3.87353C854.9 4.38395 855.068 4.90142 855.426 5.30498C855.785 5.70854 856.344 5.97353 857 5.97353C857.656 5.97353 858.215 5.70854 858.574 5.30498C858.932 4.90142 859.1 4.38395 859.1 3.87353C859.1 3.36312 858.932 2.84565 858.574 2.44209C858.215 2.03853 857.656 1.77353 857 1.77353ZM852.45 2.47353C851.91 2.47353 851.439 2.69478 851.139 3.03271C850.838 3.37065 850.7 3.80062 850.7 4.22353C850.7 4.64645 850.838 5.07642 851.139 5.41435C851.439 5.75229 851.91 5.97353 852.45 5.97353C852.989 5.97353 853.461 5.75229 853.761 5.41435C854.061 5.07642 854.2 4.64645 854.2 4.22353C854.2 3.80062 854.061 3.37065 853.761 3.03271C853.461 2.69478 852.989 2.47353 852.45 2.47353ZM861.55 2.47353C861.01 2.47353 860.539 2.69478 860.239 3.03271C859.938 3.37065 859.8 3.80062 859.8 4.22353C859.8 4.64645 859.938 5.07642 860.239 5.41435C860.539 5.75229 861.01 5.97353 861.55 5.97353C862.089 5.97353 862.561 5.75229 862.861 5.41435C863.161 5.07642 863.3 4.64645 863.3 4.22353C863.3 3.80062 863.161 3.37065 862.861 3.03271C862.561 2.69478 862.089 2.47353 861.55 2.47353ZM857 2.82353C857.394 2.82353 857.622 2.95229 857.789 3.13935C857.955 3.32642 858.05 3.59645 858.05 3.87353C858.05 4.15062 857.955 4.42065 857.789 4.60771C857.622 4.79478 857.394 4.92353 857 4.92353C856.606 4.92353 856.377 4.79478 856.211 4.60771C856.045 4.42065 855.95 4.15062 855.95 3.87353C855.95 3.59645 856.045 3.32642 856.211 3.13935C856.377 2.95229 856.606 2.82353 857 2.82353ZM852.45 3.52353C852.727 3.52353 852.868 3.60854 852.976 3.72998C853.084 3.85142 853.15 4.03395 853.15 4.22353C853.15 4.41312 853.084 4.59565 852.976 4.71709C852.868 4.83853 852.727 4.92353 852.45 4.92353C852.173 4.92353 852.031 4.83853 851.924 4.71709C851.816 4.59565 851.75 4.41312 851.75 4.22353C851.75 4.03395 851.816 3.85142 851.924 3.72998C852.031 3.60854 852.173 3.52353 852.45 3.52353ZM861.55 3.52353C861.827 3.52353 861.968 3.60854 862.076 3.72998C862.184 3.85142 862.25 4.03395 862.25 4.22353C862.25 4.41312 862.184 4.59565 862.076 4.71709C861.968 4.83853 861.827 4.92353 861.55 4.92353C861.273 4.92353 861.131 4.83853 861.024 4.71709C860.916 4.59565 860.85 4.41312 860.85 4.22353C860.85 4.03395 860.916 3.85142 861.024 3.72998C861.131 3.60854 861.273 3.52353 861.55 3.52353ZM851.225 6.67353C850.549 6.67353 850 7.22303 850 7.89853V10.1735C850 11.717 851.256 12.9735 852.8 12.9735C853.048 12.9735 853.29 12.9422 853.521 12.8792C853.374 12.5642 853.265 12.2278 853.206 11.8743C853.076 11.9058 852.94 11.9235 852.8 11.9235C851.834 11.9235 851.05 11.1395 851.05 10.1735V7.89853C851.05 7.80053 851.127 7.72353 851.225 7.72353H853.16C853.195 7.32453 853.349 6.96403 853.591 6.67353H851.225ZM855.075 6.67353C854.405 6.67353 853.85 7.2283 853.85 7.89853V11.2235C853.85 12.957 855.266 14.3735 857 14.3735C858.733 14.3735 860.15 12.957 860.15 11.2235V7.89853C860.15 7.2283 859.595 6.67353 858.925 6.67353H855.075ZM860.409 6.67353C860.65 6.96403 860.805 7.32453 860.84 7.72353H862.775C862.873 7.72353 862.95 7.80053 862.95 7.89853V10.1735C862.95 11.1395 862.166 11.9235 861.2 11.9235C861.06 11.9235 860.923 11.9058 860.794 11.8743C860.734 12.2278 860.626 12.5642 860.479 12.8792C860.71 12.9422 860.951 12.9735 861.2 12.9735C862.743 12.9735 864 11.717 864 10.1735V7.89853C864 7.22303 863.45 6.67353 862.775 6.67353H860.409ZM855.075 7.72353H856.321L856.642 8.36611C856.644 8.36856 856.646 8.3705 856.647 8.37295C856.647 8.37505 856.645 8.37632 856.645 8.37842L856.304 10.3472C856.291 10.4196 856.31 10.4941 856.355 10.5522L856.792 11.121C856.841 11.1857 856.918 11.2235 857 11.2235C857.081 11.2235 857.158 11.1857 857.208 11.121L857.645 10.5522C857.69 10.4941 857.708 10.4196 857.696 10.3472L857.355 8.37842C857.354 8.37632 857.353 8.37505 857.353 8.37295C857.354 8.3705 857.356 8.36891 857.357 8.36611L857.678 7.72353H858.925C859.028 7.72353 859.1 7.79527 859.1 7.89853V11.2235C859.1 12.3895 858.166 13.3235 857 13.3235C855.834 13.3235 854.9 12.3895 854.9 11.2235V7.89853C854.9 7.79527 854.972 7.72353 855.075 7.72353Z" fill="black"/>
<path d="M890.014 0.773655C889.611 0.773655 889.209 0.904526 888.877 1.16648L884.191 4.85848C884.109 4.92297 884.05 5.0113 884.021 5.1112C883.991 5.21111 883.994 5.31763 884.028 5.41598C884.062 5.51434 884.126 5.59964 884.211 5.66006C884.295 5.72047 884.397 5.75299 884.501 5.7531H895.526C895.63 5.75299 895.732 5.72047 895.816 5.66006C895.901 5.59964 895.965 5.51434 895.999 5.41598C896.033 5.31763 896.036 5.21111 896.007 5.1112C895.977 5.0113 895.918 4.92297 895.836 4.85848L891.151 1.16648C890.818 0.904526 890.416 0.773655 890.014 0.773655ZM890.014 1.77333C890.196 1.77333 890.378 1.83383 890.53 1.95408L894.081 4.75082H885.946L889.497 1.95408C889.649 1.83383 889.831 1.77333 890.014 1.77333ZM890.014 2.74625C889.836 2.74625 889.666 2.81665 889.541 2.94196C889.416 3.06727 889.345 3.23722 889.345 3.41444C889.345 3.59165 889.416 3.76161 889.541 3.88692C889.666 4.01223 889.836 4.08263 890.014 4.08263C890.191 4.08263 890.361 4.01223 890.486 3.88692C890.611 3.76161 890.682 3.59165 890.682 3.41444C890.682 3.23722 890.611 3.06727 890.486 2.94196C890.361 2.81665 890.191 2.74625 890.014 2.74625ZM885.169 6.42129V10.805C884.501 10.9578 884 11.5545 884 12.2679C884 13.0965 884.675 13.7714 885.503 13.7714H889.011V12.7691H885.503C885.226 12.7691 885.002 12.5452 885.002 12.2679C885.002 11.9906 885.226 11.7668 885.503 11.7668H889.011V10.7645H888.343V6.42129H887.341V10.7645H886.171V6.42129H885.169ZM889.512 6.42129V8.97398C889.7 8.837 889.933 8.75995 890.181 8.75995H890.515V6.42129H889.512ZM891.684 6.42129V8.75995H892.686V6.42129H891.684ZM893.856 6.42129V8.75995H894.858V6.42129H893.856ZM890.515 9.42814C890.059 9.42814 889.679 9.80781 889.679 10.2634V13.9384C889.679 14.394 890.059 14.7737 890.515 14.7737H896.528C896.984 14.7737 897.364 14.394 897.364 13.9384V10.2634C897.364 9.80781 896.984 9.42814 896.528 9.42814H890.515ZM890.682 10.4304H896.361V11.0986H890.682V10.4304ZM890.682 12.1009H896.361V13.7714H890.682V12.1009Z" fill="black"/>
<path d="M931.75 4.52489C931.75 4.42547 931.72 4.32832 931.665 4.24586C931.609 4.16341 931.53 4.09941 931.438 4.06204C931.346 4.02467 931.245 4.01564 931.148 4.0361C931.05 4.05656 930.961 4.10558 930.892 4.17689L924.751 10.3179L918.61 4.17689C918.564 4.12895 918.509 4.09067 918.448 4.0643C918.387 4.03793 918.321 4.024 918.255 4.02333C918.188 4.02265 918.122 4.03525 918.061 4.06037C917.999 4.08549 917.943 4.12264 917.896 4.16963C917.849 4.21663 917.812 4.27253 917.787 4.33407C917.762 4.3956 917.749 4.46153 917.75 4.52799C917.751 4.59445 917.765 4.66011 917.791 4.72112C917.817 4.78213 917.856 4.83726 917.904 4.88329L924.398 11.3775C924.492 11.4712 924.619 11.5238 924.751 11.5238C924.884 11.5238 925.011 11.4712 925.104 11.3775L931.599 4.88329C931.647 4.83673 931.685 4.78101 931.711 4.71945C931.737 4.65789 931.75 4.59173 931.75 4.52489Z" fill="black"/>
<path d="M958.646 1.17356C958.126 1.17356 957.607 1.29508 957.132 1.53838C957.132 1.53861 957.131 1.53883 957.131 1.53906L953.043 3.64328C952.404 3.97265 952 4.63433 952 5.35398V10.993C952 11.7124 952.403 12.3739 953.043 12.703L957.131 14.8079C957.131 14.8081 957.131 14.8084 957.131 14.8086C958.082 15.2952 959.209 15.2952 960.16 14.8086C960.16 14.8084 960.161 14.8081 960.161 14.8079L964.249 12.703C964.888 12.3736 965.291 11.7124 965.291 10.993V5.35398C965.291 4.63472 964.888 3.97317 964.249 3.64396H964.248L960.161 1.53906C960.161 1.53883 960.161 1.53861 960.161 1.53838C959.685 1.29508 959.165 1.17356 958.646 1.17356ZM958.646 2.22293C959.001 2.22293 959.357 2.30633 959.682 2.47298L963.768 4.57651C963.768 4.57674 963.768 4.57697 963.768 4.57719C964.06 4.72728 964.242 5.02543 964.242 5.35398V10.993C964.242 11.3215 964.06 11.6199 963.768 11.7705L959.682 13.874C959.031 14.2071 958.262 14.2073 957.611 13.8747L957.61 13.874L953.523 11.7705C953.523 11.7702 953.523 11.77 953.523 11.7698C953.232 11.6197 953.049 11.3215 953.049 10.993V5.35398C953.049 5.02495 953.231 4.72705 953.523 4.57651L957.61 2.47298C957.936 2.30633 958.291 2.22293 958.646 2.22293ZM954.263 4.84705C954.146 4.84806 954.032 4.8886 953.94 4.96215C953.848 5.03571 953.783 5.13801 953.757 5.25263C953.73 5.36724 953.743 5.48751 953.792 5.59411C953.842 5.70072 953.927 5.78746 954.032 5.84041L957.121 7.4459C957.438 7.61053 957.777 7.69997 958.121 7.75538V12.8957C958.12 12.9652 958.133 13.0342 958.159 13.0988C958.185 13.1633 958.223 13.222 958.272 13.2715C958.321 13.321 958.379 13.3603 958.443 13.3872C958.508 13.414 958.576 13.4278 958.646 13.4278C958.715 13.4278 958.784 13.414 958.848 13.3872C958.913 13.3603 958.971 13.321 959.02 13.2715C959.068 13.222 959.107 13.1633 959.133 13.0988C959.159 13.0342 959.172 12.9652 959.171 12.8957V7.75538C959.514 7.69997 959.853 7.61053 960.17 7.4459C960.17 7.4459 960.171 7.4459 960.171 7.4459L963.26 5.84109C963.384 5.77695 963.477 5.66634 963.519 5.53361C963.561 5.40087 963.548 5.25688 963.484 5.13331C963.42 5.00974 963.31 4.9167 963.177 4.87468C963.044 4.83266 962.9 4.84508 962.776 4.90922L959.686 6.51471C959.362 6.68301 959.008 6.76616 958.654 6.76749C958.648 6.76716 958.642 6.76693 958.636 6.76681C958.282 6.76513 957.929 6.68287 957.605 6.51471L954.515 4.90991C954.438 4.86815 954.351 4.84654 954.263 4.84705ZM963.01 7.81618C962.871 7.81836 962.739 7.87563 962.642 7.97541C962.545 8.0752 962.492 8.20935 962.494 8.34839V10.2456C962.494 10.253 962.492 10.2566 962.485 10.2599C962.485 10.2599 962.485 10.2599 962.485 10.2599L961.029 11.0094C960.968 11.041 960.913 11.0843 960.869 11.1369C960.824 11.1896 960.79 11.2504 960.769 11.3161C960.748 11.3818 960.74 11.4509 960.746 11.5197C960.752 11.5884 960.771 11.6553 960.803 11.7166C960.834 11.7778 960.878 11.8323 960.93 11.8768C960.983 11.9214 961.044 11.9551 961.109 11.9761C961.175 11.9971 961.244 12.0049 961.313 11.9992C961.382 11.9935 961.449 11.9742 961.51 11.9426L962.965 11.1925C963.319 11.0104 963.543 10.6433 963.543 10.2456V8.34839C963.544 8.27816 963.531 8.20845 963.504 8.14338C963.478 8.07831 963.439 8.01921 963.389 7.96957C963.339 7.91994 963.28 7.88079 963.215 7.85445C963.15 7.8281 963.08 7.81509 963.01 7.81618Z" fill="black"/>
<path d="M987.833 2.77365C986.827 2.77365 986 3.6004 986 4.60699V12.2737C986 13.2802 986.827 14.107 987.833 14.107H998.167C999.173 14.107 1000 13.2802 1000 12.2737V4.60699C1000 3.6004 999.173 2.77365 998.167 2.77365H987.833ZM987.833 3.77365H998.167C998.633 3.77365 999 4.14091 999 4.60699V12.2737C999 12.7397 998.633 13.107 998.167 13.107H987.833C987.367 13.107 987 12.7397 987 12.2737V4.60699C987 4.14091 987.367 3.77365 987.833 3.77365ZM995.157 5.7691C995.027 5.77288 994.904 5.82705 994.813 5.92014L990.48 10.2535C990.432 10.2995 990.393 10.3547 990.367 10.4158C990.341 10.4769 990.327 10.5426 990.326 10.6091C990.325 10.6756 990.338 10.7416 990.363 10.8032C990.388 10.8648 990.425 10.9207 990.472 10.9678C990.519 11.0148 990.575 11.052 990.637 11.0771C990.699 11.1023 990.765 11.1149 990.831 11.1142C990.898 11.1135 990.963 11.0996 991.024 11.0732C991.085 11.0468 991.141 11.0085 991.187 10.9605L995.52 6.62717C995.592 6.55692 995.641 6.46653 995.661 6.36783C995.681 6.26912 995.671 6.16671 995.632 6.07399C995.592 5.98126 995.526 5.90255 995.441 5.84815C995.357 5.79375 995.257 5.7662 995.157 5.7691ZM991.167 5.77365C990.946 5.77365 990.734 5.86145 990.577 6.01773C990.421 6.17401 990.333 6.38597 990.333 6.60699C990.333 6.828 990.421 7.03996 990.577 7.19624C990.734 7.35252 990.946 7.44032 991.167 7.44032C991.388 7.44032 991.6 7.35252 991.756 7.19624C991.912 7.03996 992 6.828 992 6.60699C992 6.38597 991.912 6.17401 991.756 6.01773C991.6 5.86145 991.388 5.77365 991.167 5.77365ZM994.833 9.44032C994.612 9.44032 994.4 9.52812 994.244 9.6844C994.088 9.84068 994 10.0526 994 10.2737C994 10.4947 994.088 10.7066 994.244 10.8629C994.4 11.0192 994.612 11.107 994.833 11.107C995.054 11.107 995.266 11.0192 995.422 10.8629C995.579 10.7066 995.667 10.4947 995.667 10.2737C995.667 10.0526 995.579 9.84068 995.422 9.6844C995.266 9.52812 995.054 9.44032 994.833 9.44032Z" fill="black"/>
<path d="M1027 0.773533C1023.14 0.773533 1020 3.91376 1020 7.77353C1020 11.6333 1023.14 14.7735 1027 14.7735C1030.86 14.7735 1034 11.6333 1034 7.77353C1034 3.91376 1030.86 0.773533 1027 0.773533ZM1027 1.82353C1030.29 1.82353 1032.95 4.48122 1032.95 7.77353C1032.95 11.0658 1030.29 13.7235 1027 13.7235C1023.71 13.7235 1021.05 11.0658 1021.05 7.77353C1021.05 4.48122 1023.71 1.82353 1027 1.82353ZM1027 4.62353C1025.27 4.62353 1023.85 6.04005 1023.85 7.77353C1023.85 9.50701 1025.27 10.9235 1027 10.9235C1028.73 10.9235 1030.15 9.50701 1030.15 7.77353C1030.15 6.04005 1028.73 4.62353 1027 4.62353ZM1027 5.67353C1028.17 5.67353 1029.1 6.60752 1029.1 7.77353C1029.1 8.93955 1028.17 9.87353 1027 9.87353C1025.83 9.87353 1024.9 8.93955 1024.9 7.77353C1024.9 6.60752 1025.83 5.67353 1027 5.67353Z" fill="black"/>
<defs>
<clipPath id="clip0_120_1871">
<rect width="13.9999" height="14" fill="white" transform="translate(714 1.17356)"/>
</clipPath>
</defs>
</svg>
