<svg width="14" height="15" viewBox="0 0 14 15" fill="none" xmlns="http://www.w3.org/2000/svg">
<path d="M0 12.0288C0 12.9379 0.748815 13.6867 1.65789 13.6867H12.3421C13.2512 13.6867 14 12.9379 14 12.0288V10.1867C14 9.27766 13.2512 8.52885 12.3421 8.52885H1.65789C0.748815 8.52885 0 9.27766 0 10.1867L0 12.0288ZM0 3.92358C0 4.83266 0.748815 5.58148 1.65789 5.58148H12.3421C13.2512 5.58148 14 4.83266 14 3.92358V2.08148C14 1.1724 13.2512 0.423583 12.3421 0.423583H1.65789C0.748815 0.423583 0 1.1724 0 2.08148L0 3.92358ZM1.10526 12.0288L1.10526 10.1867C1.10526 9.87487 1.34603 9.63411 1.65789 9.63411H12.3421C12.654 9.63411 12.8947 9.87487 12.8947 10.1867V12.0288C12.8947 12.3407 12.654 12.5815 12.3421 12.5815H1.65789C1.34603 12.5815 1.10526 12.3407 1.10526 12.0288ZM1.10526 3.92358V2.08148C1.10526 1.76961 1.34603 1.52885 1.65789 1.52885H12.3421C12.654 1.52885 12.8947 1.76961 12.8947 2.08148V3.92358C12.8947 4.23545 12.654 4.47621 12.3421 4.47621H1.65789C1.34603 4.47621 1.10526 4.23545 1.10526 3.92358Z" fill="black"/>
</svg>
