<svg width="14" height="15" viewBox="0 0 14 15" fill="none" xmlns="http://www.w3.org/2000/svg">
<path d="M0 12.1156C0 13.0247 0.748815 13.7735 1.65789 13.7735H12.3421C13.2512 13.7735 14 13.0247 14 12.1156V10.2735C14 9.36445 13.2512 8.61563 12.3421 8.61563H1.65789C0.748815 8.61563 0 9.36445 0 10.2735L0 12.1156ZM0 4.01037C0 4.91945 0.748815 5.66827 1.65789 5.66827H12.3421C13.2512 5.66827 14 4.91945 14 4.01037V2.16827C14 1.25919 13.2512 0.510371 12.3421 0.510371H1.65789C0.748815 0.510371 0 1.25919 0 2.16827L0 4.01037ZM1.10526 12.1156L1.10526 10.2735C1.10526 9.96166 1.34603 9.7209 1.65789 9.7209H12.3421C12.654 9.7209 12.8947 9.96166 12.8947 10.2735V12.1156C12.8947 12.4275 12.654 12.6683 12.3421 12.6683H1.65789C1.34603 12.6683 1.10526 12.4275 1.10526 12.1156ZM1.10526 4.01037V2.16827C1.10526 1.8564 1.34603 1.61563 1.65789 1.61563H12.3421C12.654 1.61563 12.8947 1.8564 12.8947 2.16827V4.01037C12.8947 4.32224 12.654 4.563 12.3421 4.563H1.65789C1.34603 4.563 1.10526 4.32224 1.10526 4.01037Z" fill="black"/>
</svg>
