<svg width="14" height="15" viewBox="0 0 14 15" fill="none" xmlns="http://www.w3.org/2000/svg">
<g clip-path="url(#clip0_332_3382)">
<path d="M3.29265 0.173591C3.26416 0.174291 3.23576 0.17708 3.20768 0.181936H2.13643C0.963424 0.181936 0 1.14536 0 2.31837V12.0294C0 13.2024 0.963424 14.1659 2.13643 14.1659H2.81772C2.88027 14.1761 2.94408 14.1761 3.00663 14.1659H10.975C11.0376 14.1761 11.1014 14.1761 11.1639 14.1659H11.8475C13.0205 14.1659 13.9839 13.2024 13.9839 12.0294V3.87214C13.9839 3.78984 13.9664 3.70849 13.9327 3.63343C13.899 3.55837 13.8497 3.49131 13.7882 3.43666L10.2922 0.329119C10.1856 0.234355 10.0479 0.181987 9.90527 0.181936H9.61242C9.54987 0.171661 9.48607 0.171661 9.42351 0.181936H3.39735C3.36277 0.176008 3.32773 0.173215 3.29265 0.173591ZM2.13643 1.34726H2.71909V3.48369C2.71909 4.22754 3.33479 4.84324 4.07864 4.84324H8.73995C9.4838 4.84324 10.0995 4.22754 10.0995 3.48369V1.71674L12.8186 4.13388V12.0294C12.8186 12.5725 12.3906 13.0005 11.8475 13.0005H11.6533V8.53344C11.6533 7.78959 11.0376 7.17389 10.2937 7.17389H3.6902C2.94635 7.17389 2.33065 7.78959 2.33065 8.53344V13.0005H2.13643C1.5933 13.0005 1.16533 12.5725 1.16533 12.0294V2.31837C1.16533 1.77524 1.5933 1.34726 2.13643 1.34726ZM3.88442 1.34726H8.93417V3.48369C8.93417 3.5983 8.85456 3.67791 8.73995 3.67791H4.07864C3.96403 3.67791 3.88442 3.5983 3.88442 3.48369V1.34726ZM3.6902 8.33922H10.2937C10.4083 8.33922 10.4879 8.41883 10.4879 8.53344V13.0005H3.49598V8.53344C3.49598 8.41883 3.57559 8.33922 3.6902 8.33922Z" fill="black"/>
</g>
<defs>
<clipPath id="clip0_332_3382">
<rect width="14" height="14" fill="white" transform="translate(0 0.173553)"/>
</clipPath>
</defs>
</svg>
