<svg width="14" height="15" viewBox="0 0 14 15" fill="none" xmlns="http://www.w3.org/2000/svg">
<g clip-path="url(#clip0_332_3382)">
<path d="M3.29265 0.235873C3.26416 0.236573 3.23576 0.239363 3.20768 0.244219H2.13643C0.963424 0.244219 0 1.20764 0 2.38065V12.0917C0 13.2647 0.963424 14.2281 2.13643 14.2281H2.81772C2.88027 14.2384 2.94408 14.2384 3.00663 14.2281H10.975C11.0376 14.2384 11.1014 14.2384 11.1639 14.2281H11.8475C13.0205 14.2281 13.9839 13.2647 13.9839 12.0917V3.93442C13.9839 3.85213 13.9664 3.77077 13.9327 3.69571C13.899 3.62065 13.8497 3.55359 13.7882 3.49894L10.2922 0.391402C10.1856 0.296637 10.0479 0.244269 9.90527 0.244219H9.61242C9.54987 0.233944 9.48606 0.233944 9.42351 0.244219H3.39735C3.36277 0.238291 3.32773 0.235498 3.29265 0.235873ZM2.13643 1.40954H2.71909V3.54598C2.71909 4.28983 3.33479 4.90552 4.07864 4.90552H8.73995C9.4838 4.90552 10.0995 4.28983 10.0995 3.54598V1.77902L12.8186 4.19616V12.0917C12.8186 12.6348 12.3906 13.0628 11.8475 13.0628H11.6533V8.59572C11.6533 7.85187 11.0376 7.23618 10.2937 7.23618H3.6902C2.94635 7.23618 2.33065 7.85187 2.33065 8.59572V13.0628H2.13643C1.5933 13.0628 1.16533 12.6348 1.16533 12.0917V2.38065C1.16533 1.83752 1.5933 1.40954 2.13643 1.40954ZM3.88442 1.40954H8.93417V3.54598C8.93417 3.66058 8.85456 3.7402 8.73995 3.7402H4.07864C3.96403 3.7402 3.88442 3.66058 3.88442 3.54598V1.40954ZM3.6902 8.4015H10.2937C10.4083 8.4015 10.4879 8.48112 10.4879 8.59572V13.0628H3.49598V8.59572C3.49598 8.48112 3.57559 8.4015 3.6902 8.4015Z" fill="black"/>
</g>
<defs>
<clipPath id="clip0_332_3382">
<rect width="14" height="14" fill="white" transform="translate(0 0.23584)"/>
</clipPath>
</defs>
</svg>
