<svg width="14" height="16" viewBox="0 0 14 16" fill="none" xmlns="http://www.w3.org/2000/svg">
<path d="M5.63549 0.835938C2.53 0.835938 0 3.36594 0 6.47143C0 9.57692 2.53 12.1069 5.63549 12.1069C6.97882 12.1069 8.21371 11.6324 9.18348 10.8438L12.9964 14.6567C13.0501 14.7127 13.1145 14.7573 13.1857 14.7881C13.2569 14.8189 13.3335 14.8351 13.411 14.8359C13.4886 14.8367 13.5655 14.822 13.6373 14.7927C13.7091 14.7634 13.7744 14.72 13.8292 14.6652C13.8841 14.6103 13.9274 14.5451 13.9567 14.4733C13.9861 14.4015 14.0008 14.3245 14 14.247C13.9992 14.1694 13.9829 14.0928 13.9522 14.0216C13.9214 13.9504 13.8767 13.886 13.8208 13.8323L10.0079 10.0194C10.7964 9.04965 11.271 7.81476 11.271 6.47143C11.271 3.36594 8.74098 0.835938 5.63549 0.835938ZM5.63549 2.0019C8.11085 2.0019 10.105 3.99607 10.105 6.47143C10.105 7.67727 9.62938 8.76671 8.85783 9.56928C8.81027 9.60423 8.7683 9.64621 8.73334 9.69377C7.93077 10.4653 6.84133 10.941 5.63549 10.941C3.16013 10.941 1.16596 8.94678 1.16596 6.47143C1.16596 3.99607 3.16013 2.0019 5.63549 2.0019Z" fill="black"/>
</svg>
