<svg width="14" height="16" viewBox="0 0 14 16" fill="none" xmlns="http://www.w3.org/2000/svg">
<path d="M5.63549 0.77356C2.53 0.77356 0 3.30356 0 6.40905C0 9.51454 2.53 12.0445 5.63549 12.0445C6.97882 12.0445 8.21371 11.57 9.18348 10.7814L12.9964 14.5943C13.0501 14.6503 13.1145 14.6949 13.1857 14.7257C13.2569 14.7565 13.3335 14.7727 13.411 14.7735C13.4886 14.7743 13.5655 14.7596 13.6373 14.7303C13.7091 14.701 13.7744 14.6576 13.8292 14.6028C13.8841 14.5479 13.9274 14.4827 13.9567 14.4109C13.9861 14.3391 14.0008 14.2622 14 14.1846C13.9992 14.107 13.9829 14.0304 13.9522 13.9592C13.9214 13.888 13.8767 13.8237 13.8208 13.77L10.0079 9.95704C10.7964 8.98727 11.271 7.75238 11.271 6.40905C11.271 3.30356 8.74098 0.77356 5.63549 0.77356ZM5.63549 1.93952C8.11085 1.93952 10.105 3.93369 10.105 6.40905C10.105 7.61489 9.62938 8.70433 8.85783 9.5069C8.81027 9.54185 8.7683 9.58383 8.73334 9.63139C7.93077 10.4029 6.84133 10.8786 5.63549 10.8786C3.16013 10.8786 1.16596 8.88441 1.16596 6.40905C1.16596 3.93369 3.16013 1.93952 5.63549 1.93952Z" fill="black"/>
</svg>
