<svg width="14" height="16" viewBox="0 0 14 16" fill="none" xmlns="http://www.w3.org/2000/svg">
<path d="M0.506156 0.774046C0.42182 0.777108 0.339463 0.800453 0.266065 0.842104C0.192667 0.883755 0.13039 0.942484 0.0845107 1.01332C0.0386311 1.08415 0.0105009 1.16499 0.00250335 1.24901C-0.00549419 1.33302 0.00687667 1.41772 0.0385677 1.49594L2.58364 7.77352L0.0385677 14.0511C-0.00156979 14.15 -0.0106362 14.2587 0.0125759 14.3628C0.035788 14.467 0.0901769 14.5616 0.168499 14.634C0.246821 14.7065 0.34536 14.7534 0.45099 14.7684C0.556621 14.7835 0.664331 14.766 0.759775 14.7183L13.7101 8.24316C13.7973 8.19955 13.8706 8.13252 13.9219 8.04957C13.9732 7.96662 14.0003 7.87103 14.0003 7.77352C14.0003 7.676 13.9732 7.58042 13.9219 7.49747C13.8706 7.41452 13.7973 7.34749 13.7101 7.30388L0.759775 0.828735C0.681141 0.789577 0.59394 0.770773 0.506156 0.774046ZM1.5343 2.3901L12.3018 7.77352L1.5343 13.1569L3.50447 8.29853H8.22547C8.29504 8.29951 8.36411 8.28666 8.42867 8.26072C8.49323 8.23477 8.55199 8.19626 8.60154 8.14741C8.65108 8.09856 8.69042 8.04035 8.71728 7.97617C8.74413 7.91198 8.75796 7.8431 8.75796 7.77352C8.75796 7.70394 8.74413 7.63506 8.71728 7.57087C8.69042 7.50668 8.65108 7.44848 8.60154 7.39963C8.55199 7.35078 8.49323 7.31226 8.42867 7.28632C8.36411 7.26038 8.29504 7.24752 8.22547 7.24851H3.50447L1.5343 2.3901Z" fill="black"/>
</svg>
