<svg width="14" height="15" viewBox="0 0 14 15" fill="none" xmlns="http://www.w3.org/2000/svg">
<path d="M0.506156 -0.312759C0.42182 -0.309697 0.339463 -0.286352 0.266065 -0.244702C0.192667 -0.203051 0.13039 -0.144322 0.0845107 -0.0734899C0.0386311 -0.00265831 0.0105009 0.0781886 0.00250335 0.162201C-0.00549419 0.246214 0.00687667 0.330916 0.0385677 0.409132L2.58364 6.68671L0.0385677 12.9643C-0.00156979 13.0632 -0.0106362 13.1719 0.0125759 13.276C0.035788 13.3802 0.0901769 13.4748 0.168499 13.5472C0.246821 13.6197 0.34536 13.6666 0.45099 13.6816C0.556621 13.6967 0.664331 13.6792 0.759775 13.6315L13.7101 7.15635C13.7973 7.11275 13.8706 7.04571 13.9219 6.96276C13.9732 6.87981 14.0003 6.78423 14.0003 6.68671C14.0003 6.5892 13.9732 6.49361 13.9219 6.41066C13.8706 6.32771 13.7973 6.26068 13.7101 6.21707L0.759775 -0.25807C0.681141 -0.297228 0.59394 -0.316032 0.506156 -0.312759ZM1.5343 1.30329L12.3018 6.68671L1.5343 12.0701L3.50447 7.21172H8.22547C8.29504 7.21271 8.36411 7.19985 8.42867 7.17391C8.49323 7.14797 8.55199 7.10945 8.60154 7.0606C8.65108 7.01176 8.69042 6.95355 8.71728 6.88936C8.74413 6.82517 8.75796 6.75629 8.75796 6.68671C8.75796 6.61714 8.74413 6.54825 8.71728 6.48407C8.69042 6.41988 8.65108 6.36167 8.60154 6.31282C8.55199 6.26397 8.49323 6.22546 8.42867 6.19951C8.36411 6.17357 8.29504 6.16072 8.22547 6.1617H3.50447L1.5343 1.30329Z" fill="black"/>
</svg>
