<svg width="14" height="16" viewBox="0 0 14 16" fill="none" xmlns="http://www.w3.org/2000/svg">
<path d="M6.98739 0.77358C6.90335 0.774961 6.82074 0.795501 6.74584 0.833636C6.67094 0.871772 6.60573 0.926497 6.55517 0.993644L5.13267 2.41615C5.07966 2.46704 5.03734 2.528 5.00819 2.59545C4.97904 2.66291 4.96364 2.7355 4.96289 2.80898C4.96214 2.88246 4.97606 2.95535 5.00384 3.02338C5.03161 3.09141 5.07268 3.15322 5.12465 3.20518C5.17661 3.25714 5.23841 3.29821 5.30645 3.32599C5.37448 3.35376 5.44737 3.36769 5.52085 3.36694C5.59433 3.36619 5.66692 3.35079 5.73437 3.32164C5.80183 3.29249 5.86278 3.25017 5.91368 3.19716L6.4437 2.66714V4.64771C6.44267 4.7209 6.45619 4.79356 6.48348 4.86148C6.51077 4.9294 6.55129 4.99122 6.60268 5.04334C6.65407 5.09546 6.71531 5.13685 6.78283 5.1651C6.85036 5.19335 6.92282 5.2079 6.99602 5.2079C7.06922 5.2079 7.14168 5.19335 7.20921 5.1651C7.27673 5.13685 7.33797 5.09546 7.38936 5.04334C7.44075 4.99122 7.48127 4.9294 7.50856 4.86148C7.53585 4.79356 7.54937 4.7209 7.54834 4.64771V2.66714L8.07836 3.19716C8.12925 3.25017 8.19021 3.29249 8.25767 3.32164C8.32512 3.35079 8.39771 3.36619 8.47119 3.36694C8.54467 3.36769 8.61756 3.35376 8.68559 3.32599C8.75363 3.29821 8.81543 3.25714 8.86739 3.20518C8.91935 3.15322 8.96042 3.09141 8.9882 3.02338C9.01598 2.95535 9.0299 2.88246 9.02915 2.80898C9.0284 2.7355 9.013 2.66291 8.98385 2.59545C8.9547 2.528 8.91238 2.46704 8.85937 2.41615L7.43399 0.990767C7.38167 0.922217 7.31402 0.866869 7.23647 0.829155C7.15892 0.79144 7.07362 0.772408 6.98739 0.77358ZM1.28874 5.93645C0.583632 5.93645 0 6.52008 0 7.22519V13.4848C0 14.1899 0.583632 14.7735 1.28874 14.7735H12.7033C13.4084 14.7735 13.992 14.1899 13.992 13.4848V7.22519C13.992 6.52008 13.4084 5.93645 12.7033 5.93645H1.28874ZM2.20927 7.04109H11.7828C11.7828 7.65232 12.2762 8.14572 12.8874 8.14572V12.5643C12.2762 12.5643 11.7828 13.0577 11.7828 13.6689H2.20927C2.20927 13.0577 1.71587 12.5643 1.10463 12.5643V8.14572C1.71587 8.14572 2.20927 7.65232 2.20927 7.04109ZM6.99602 7.77751C6.27494 7.77751 5.66871 8.13987 5.3067 8.63763C4.9447 9.13539 4.78675 9.74828 4.78675 10.355C4.78675 10.9617 4.9447 11.5746 5.3067 12.0724C5.66871 12.5701 6.27494 12.9325 6.99602 12.9325C7.7171 12.9325 8.32333 12.5701 8.68533 12.0724C9.04734 11.5746 9.20529 10.9617 9.20529 10.355C9.20529 9.74828 9.04734 9.13539 8.68533 8.63763C8.32333 8.13987 7.7171 7.77751 6.99602 7.77751ZM6.99602 8.88214C7.37957 8.88214 7.60182 9.02608 7.79213 9.28775C7.98244 9.54943 8.10065 9.94912 8.10065 10.355C8.10065 10.7609 7.98244 11.1606 7.79213 11.4222C7.60182 11.6839 7.37957 11.8278 6.99602 11.8278C6.61247 11.8278 6.39022 11.6839 6.19991 11.4222C6.0096 11.1606 5.89138 10.7609 5.89138 10.355C5.89138 9.94912 6.0096 9.54943 6.19991 9.28775C6.39022 9.02608 6.61247 8.88214 6.99602 8.88214ZM2.57748 9.61857C2.38217 9.61857 2.19486 9.69616 2.05675 9.83426C1.91865 9.97237 1.84106 10.1597 1.84106 10.355C1.84106 10.5503 1.91865 10.7376 2.05675 10.8757C2.19486 11.0138 2.38217 11.0914 2.57748 11.0914C2.77279 11.0914 2.9601 11.0138 3.09821 10.8757C3.23632 10.7376 3.3139 10.5503 3.3139 10.355C3.3139 10.1597 3.23632 9.97237 3.09821 9.83426C2.9601 9.69616 2.77279 9.61857 2.57748 9.61857ZM11.4146 9.61857C11.2192 9.61857 11.0319 9.69616 10.8938 9.83426C10.7557 9.97237 10.6781 10.1597 10.6781 10.355C10.6781 10.5503 10.7557 10.7376 10.8938 10.8757C11.0319 11.0138 11.2192 11.0914 11.4146 11.0914C11.6099 11.0914 11.7972 11.0138 11.9353 10.8757C12.0734 10.7376 12.151 10.5503 12.151 10.355C12.151 10.1597 12.0734 9.97237 11.9353 9.83426C11.7972 9.69616 11.6099 9.61857 11.4146 9.61857Z" fill="black"/>
</svg>
