<svg width="14" height="16" viewBox="0 0 14 16" fill="none" xmlns="http://www.w3.org/2000/svg">
<path d="M6.98739 0.835989C6.90335 0.837369 6.82074 0.857909 6.74584 0.896045C6.67094 0.93418 6.60573 0.988905 6.55517 1.05605L5.13267 2.47856C5.07966 2.52945 5.03734 2.59041 5.00819 2.65786C4.97904 2.72532 4.96363 2.79791 4.96289 2.87139C4.96214 2.94487 4.97606 3.01776 5.00384 3.08579C5.03161 3.15382 5.07268 3.21563 5.12465 3.26759C5.17661 3.31955 5.23841 3.36062 5.30645 3.3884C5.37448 3.41617 5.44737 3.43009 5.52085 3.42935C5.59433 3.4286 5.66692 3.4132 5.73437 3.38405C5.80183 3.35489 5.86278 3.31257 5.91368 3.25957L6.4437 2.72955V4.71012C6.44267 4.78331 6.45619 4.85597 6.48348 4.92389C6.51077 4.99181 6.55129 5.05362 6.60268 5.10575C6.65407 5.15787 6.71531 5.19926 6.78283 5.22751C6.85036 5.25576 6.92282 5.2703 6.99602 5.2703C7.06922 5.2703 7.14168 5.25576 7.20921 5.22751C7.27673 5.19926 7.33797 5.15787 7.38936 5.10575C7.44075 5.05362 7.48127 4.99181 7.50856 4.92389C7.53585 4.85597 7.54937 4.78331 7.54834 4.71012V2.72955L8.07836 3.25957C8.12925 3.31257 8.19021 3.35489 8.25767 3.38405C8.32512 3.4132 8.39771 3.4286 8.47119 3.42935C8.54467 3.43009 8.61756 3.41617 8.68559 3.3884C8.75363 3.36062 8.81543 3.31955 8.86739 3.26759C8.91935 3.21563 8.96042 3.15382 8.9882 3.08579C9.01598 3.01776 9.0299 2.94487 9.02915 2.87139C9.0284 2.79791 9.013 2.72532 8.98385 2.65786C8.9547 2.59041 8.91238 2.52945 8.85937 2.47856L7.43399 1.05318C7.38167 0.984626 7.31402 0.929278 7.23647 0.891563C7.15892 0.853849 7.07362 0.834816 6.98739 0.835989ZM1.28874 5.99886C0.583632 5.99886 0 6.58249 0 7.2876V13.5472C0 14.2523 0.583632 14.8359 1.28874 14.8359H12.7033C13.4084 14.8359 13.992 14.2523 13.992 13.5472V7.2876C13.992 6.58249 13.4084 5.99886 12.7033 5.99886H1.28874ZM2.20927 7.1035H11.7828C11.7828 7.71473 12.2762 8.20813 12.8874 8.20813V12.6267C12.2762 12.6267 11.7828 13.1201 11.7828 13.7313H2.20927C2.20927 13.1201 1.71587 12.6267 1.10463 12.6267V8.20813C1.71587 8.20813 2.20927 7.71473 2.20927 7.1035ZM6.99602 7.83992C6.27494 7.83992 5.66871 8.20228 5.3067 8.70004C4.9447 9.1978 4.78675 9.81069 4.78675 10.4174C4.78675 11.0241 4.9447 11.637 5.3067 12.1348C5.66871 12.6325 6.27494 12.9949 6.99602 12.9949C7.7171 12.9949 8.32333 12.6325 8.68533 12.1348C9.04734 11.637 9.20529 11.0241 9.20529 10.4174C9.20529 9.81069 9.04734 9.1978 8.68533 8.70004C8.32333 8.20228 7.7171 7.83992 6.99602 7.83992ZM6.99602 8.94455C7.37957 8.94455 7.60182 9.08849 7.79213 9.35016C7.98244 9.61184 8.10065 10.0115 8.10065 10.4174C8.10065 10.8233 7.98244 11.223 7.79213 11.4846C7.60182 11.7463 7.37957 11.8902 6.99602 11.8902C6.61247 11.8902 6.39022 11.7463 6.19991 11.4846C6.00959 11.223 5.89138 10.8233 5.89138 10.4174C5.89138 10.0115 6.00959 9.61184 6.19991 9.35016C6.39022 9.08848 6.61247 8.94455 6.99602 8.94455ZM2.57748 9.68098C2.38217 9.68098 2.19486 9.75856 2.05675 9.89667C1.91865 10.0348 1.84106 10.2221 1.84106 10.4174C1.84106 10.6127 1.91865 10.8 2.05675 10.9381C2.19486 11.0762 2.38217 11.1538 2.57748 11.1538C2.77279 11.1538 2.9601 11.0762 3.09821 10.9381C3.23632 10.8 3.3139 10.6127 3.3139 10.4174C3.3139 10.2221 3.23632 10.0348 3.09821 9.89667C2.9601 9.75856 2.77279 9.68098 2.57748 9.68098ZM11.4146 9.68098C11.2192 9.68098 11.0319 9.75856 10.8938 9.89667C10.7557 10.0348 10.6781 10.2221 10.6781 10.4174C10.6781 10.6127 10.7557 10.8 10.8938 10.9381C11.0319 11.0762 11.2192 11.1538 11.4146 11.1538C11.6099 11.1538 11.7972 11.0762 11.9353 10.9381C12.0734 10.8 12.151 10.6127 12.151 10.4174C12.151 10.2221 12.0734 10.0348 11.9353 9.89667C11.7972 9.75856 11.6099 9.68098 11.4146 9.68098Z" fill="black"/>
</svg>
