<svg width="14" height="16" viewBox="0 0 14 16" fill="none" xmlns="http://www.w3.org/2000/svg">
<path d="M6.92616 0.773756C6.80584 0.770001 6.68871 0.812889 6.59926 0.893458C6.59926 0.893458 4.26353 2.95148 1.46666 2.95148C1.34289 2.9515 1.22421 3.00066 1.13669 3.08818C1.04918 3.17569 1.00001 3.29438 1 3.41814V7.2322C1 9.30976 1.96113 12.7284 6.7299 14.737C6.78722 14.7611 6.84878 14.7735 6.91097 14.7735C6.97316 14.7735 7.03473 14.7611 7.09204 14.737C11.8608 12.7284 12.8219 9.30976 12.8219 7.2322V3.41814C12.8219 3.29438 12.7728 3.17569 12.6853 3.08818C12.5977 3.00066 12.479 2.9515 12.3553 2.95148C9.55841 2.95148 7.22268 0.893458 7.22268 0.893458C7.14102 0.819885 7.03602 0.777494 6.92616 0.773756ZM6.91097 1.84014C7.55277 2.35614 9.43441 3.67859 11.8886 3.84591V7.2322C11.8886 9.01864 11.2022 11.9006 6.91097 13.786C2.61978 11.9006 1.93331 9.01864 1.93331 7.2322V3.84591C4.38753 3.67859 6.26918 2.35614 6.91097 1.84014ZM8.92889 5.12253C8.80565 5.12544 8.68857 5.17699 8.60321 5.26593L6.91097 6.95816L5.21874 5.26593C5.17524 5.22113 5.1232 5.18552 5.06569 5.1612C5.00818 5.13688 4.94638 5.12435 4.88394 5.12435C4.79107 5.12437 4.70031 5.1521 4.62329 5.20399C4.54627 5.25588 4.48648 5.32957 4.45157 5.41563C4.41666 5.50169 4.40822 5.59621 4.42734 5.6871C4.44645 5.77798 4.49224 5.86109 4.55886 5.92581L6.25109 7.61804L4.55886 9.31028C4.51407 9.35328 4.47832 9.40478 4.45368 9.46177C4.42905 9.51876 4.41604 9.5801 4.41541 9.64218C4.41478 9.70426 4.42654 9.76585 4.45001 9.82333C4.47348 9.88081 4.50818 9.93303 4.55208 9.97693C4.59598 10.0208 4.6482 10.0555 4.70568 10.079C4.76316 10.1025 4.82475 10.1142 4.88683 10.1136C4.94892 10.113 5.01025 10.1 5.06724 10.0753C5.12423 10.0507 5.17574 10.0149 5.21874 9.97016L6.91097 8.27792L8.60321 9.97016C8.64621 10.0149 8.69771 10.0507 8.7547 10.0753C8.81169 10.1 8.87303 10.113 8.93511 10.1136C8.99719 10.1142 9.05878 10.1025 9.11626 10.079C9.17374 10.0555 9.22596 10.0208 9.26986 9.97693C9.31377 9.93303 9.34847 9.88081 9.37193 9.82333C9.3954 9.76585 9.40716 9.70426 9.40653 9.64218C9.4059 9.5801 9.39289 9.51876 9.36826 9.46177C9.34363 9.40478 9.30787 9.35328 9.26309 9.31028L7.57085 7.61804L9.26309 5.92581C9.33095 5.86067 9.37754 5.77656 9.39677 5.68448C9.41599 5.59241 9.40695 5.49667 9.37082 5.40983C9.33468 5.32298 9.27316 5.24908 9.1943 5.19782C9.11544 5.14655 9.02293 5.1203 8.92889 5.12253Z" fill="black"/>
</svg>
