<svg width="14" height="16" viewBox="0 0 14 16" fill="none" xmlns="http://www.w3.org/2000/svg">
<path d="M6.92616 0.836287C6.80584 0.832532 6.68871 0.875419 6.59926 0.955989C6.59926 0.955989 4.26353 3.01401 1.46666 3.01401C1.34289 3.01403 1.22421 3.0632 1.13669 3.15071C1.04918 3.23822 1.00001 3.35691 1 3.48067V7.29473C1 9.3723 1.96113 12.7909 6.7299 14.7995C6.78722 14.8236 6.84878 14.8361 6.91097 14.8361C6.97316 14.8361 7.03473 14.8236 7.09204 14.7995C11.8608 12.7909 12.8219 9.3723 12.8219 7.29473V3.48067C12.8219 3.35691 12.7728 3.23822 12.6853 3.15071C12.5977 3.0632 12.479 3.01403 12.3553 3.01401C9.55841 3.01401 7.22268 0.955989 7.22268 0.955989C7.14102 0.882415 7.03602 0.840025 6.92616 0.836287ZM6.91097 1.90267C7.55277 2.41867 9.43441 3.74112 11.8886 3.90844V7.29473C11.8886 9.08117 11.2022 11.9631 6.91097 13.8486C2.61978 11.9631 1.93331 9.08117 1.93331 7.29473V3.90844C4.38753 3.74112 6.26918 2.41867 6.91097 1.90267ZM6.91097 4.56953C5.19832 4.56953 3.79993 5.96792 3.79993 7.68057C3.79993 9.39322 5.19832 10.7916 6.91097 10.7916C8.62362 10.7916 10.022 9.39322 10.022 7.68057C10.022 5.96792 8.62362 4.56953 6.91097 4.56953ZM6.91097 5.50284C7.34292 5.50284 7.72125 5.65847 8.05877 5.87289L5.10329 8.82837C4.88887 8.49085 4.73325 8.11252 4.73325 7.68057C4.73325 6.47232 5.70272 5.50284 6.91097 5.50284ZM8.71866 6.53277C8.93307 6.8703 9.0887 7.24862 9.0887 7.68057C9.0887 8.88882 8.11923 9.8583 6.91097 9.8583C6.47903 9.8583 6.1007 9.70267 5.76317 9.48825L8.71866 6.53277Z" fill="black"/>
</svg>
