<svg width="14" height="16" viewBox="0 0 14 16" fill="none" xmlns="http://www.w3.org/2000/svg">
<path d="M6.92616 0.836165C6.80584 0.83241 6.68871 0.875297 6.59926 0.955867C6.59926 0.955867 4.26353 3.01389 1.46666 3.01389C1.34289 3.0139 1.22421 3.06307 1.13669 3.15059C1.04918 3.2381 1.00001 3.35679 1 3.48055V7.29461C1 9.37217 1.96113 12.7908 6.7299 14.7994C6.78722 14.8235 6.84878 14.8359 6.91097 14.8359C6.97316 14.8359 7.03473 14.8235 7.09204 14.7994C11.8608 12.7908 12.8219 9.37217 12.8219 7.29461V3.48055C12.8219 3.35679 12.7728 3.2381 12.6853 3.15059C12.5977 3.06307 12.479 3.0139 12.3553 3.01389C9.55841 3.01389 7.22268 0.955867 7.22268 0.955867C7.14102 0.882293 7.03602 0.839903 6.92616 0.836165ZM6.91097 1.90255C7.55277 2.41855 9.43441 3.741 11.8886 3.90831V7.29461C11.8886 9.08105 11.2022 11.963 6.91097 13.8484C2.61978 11.963 1.93331 9.08105 1.93331 7.29461V3.90831C4.38753 3.741 6.26918 2.41855 6.91097 1.90255ZM8.92889 5.18493C8.80565 5.18784 8.68857 5.2394 8.60321 5.32833L6.91097 7.02057L5.21874 5.32833C5.17524 5.28354 5.1232 5.24793 5.06569 5.22361C5.00818 5.19929 4.94638 5.18676 4.88394 5.18676C4.79107 5.18678 4.70031 5.21451 4.62329 5.2664C4.54627 5.31829 4.48648 5.39198 4.45157 5.47804C4.41666 5.5641 4.40822 5.65862 4.42734 5.74951C4.44645 5.84039 4.49224 5.9235 4.55886 5.98821L6.25109 7.68045L4.55886 9.37268C4.51407 9.41568 4.47832 9.46719 4.45368 9.52418C4.42905 9.58117 4.41604 9.6425 4.41541 9.70459C4.41478 9.76667 4.42654 9.82826 4.45001 9.88574C4.47348 9.94322 4.50818 9.99544 4.55208 10.0393C4.59598 10.0832 4.6482 10.1179 4.70568 10.1414C4.76316 10.1649 4.82475 10.1766 4.88683 10.176C4.94892 10.1754 5.01025 10.1624 5.06724 10.1377C5.12423 10.1131 5.17574 10.0773 5.21874 10.0326L6.91097 8.34033L8.60321 10.0326C8.64621 10.0773 8.69771 10.1131 8.7547 10.1377C8.81169 10.1624 8.87303 10.1754 8.93511 10.176C8.99719 10.1766 9.05878 10.1649 9.11626 10.1414C9.17374 10.1179 9.22596 10.0832 9.26986 10.0393C9.31377 9.99544 9.34847 9.94322 9.37193 9.88574C9.3954 9.82826 9.40716 9.76667 9.40653 9.70459C9.4059 9.6425 9.39289 9.58117 9.36826 9.52418C9.34363 9.46719 9.30787 9.41568 9.26309 9.37268L7.57085 7.68045L9.26309 5.98821C9.33095 5.92308 9.37754 5.83896 9.39677 5.74689C9.41599 5.65482 9.40695 5.55908 9.37082 5.47224C9.33468 5.38539 9.27316 5.31149 9.1943 5.26022C9.11544 5.20896 9.02293 5.18271 8.92889 5.18493Z" fill="black"/>
</svg>
