<svg width="14" height="16" viewBox="0 0 14 16" fill="none" xmlns="http://www.w3.org/2000/svg">
<path d="M6.92616 0.773756C6.80584 0.770001 6.68871 0.812889 6.59926 0.893458C6.59926 0.893458 4.26353 2.95148 1.46666 2.95148C1.34289 2.9515 1.22421 3.00066 1.13669 3.08818C1.04918 3.17569 1.00001 3.29438 1 3.41814V7.2322C1 9.30976 1.96113 12.7284 6.7299 14.737C6.78722 14.7611 6.84878 14.7735 6.91097 14.7735C6.97316 14.7735 7.03473 14.7611 7.09204 14.737C11.8608 12.7284 12.8219 9.30976 12.8219 7.2322V3.41814C12.8219 3.29438 12.7728 3.17569 12.6853 3.08818C12.5977 3.00066 12.479 2.9515 12.3553 2.95148C9.55841 2.95148 7.22268 0.893458 7.22268 0.893458C7.14102 0.819885 7.03602 0.777494 6.92616 0.773756ZM6.91097 1.84014C7.55277 2.35614 9.43441 3.67859 11.8886 3.84591V7.2322C11.8886 9.01864 11.2022 11.9006 6.91097 13.786C2.61978 11.9006 1.93331 9.01864 1.93331 7.2322V3.84591C4.38753 3.67859 6.26918 2.35614 6.91097 1.84014ZM9.23514 5.74716C9.11394 5.7507 8.99888 5.80125 8.91431 5.88813L6.13321 8.66923L4.90763 7.44365C4.86463 7.39887 4.81313 7.36311 4.75614 7.33848C4.69915 7.31385 4.63781 7.30084 4.57573 7.3002C4.51365 7.29957 4.45206 7.31134 4.39458 7.3348C4.3371 7.35827 4.28488 7.39297 4.24098 7.43687C4.19707 7.48078 4.16237 7.533 4.13891 7.59048C4.11544 7.64796 4.10368 7.70954 4.10431 7.77163C4.10494 7.83371 4.11795 7.89504 4.14258 7.95204C4.16721 8.00903 4.20297 8.06053 4.24775 8.10353L5.80327 9.65905C5.89079 9.74653 6.00947 9.79568 6.13321 9.79568C6.25696 9.79568 6.37563 9.74653 6.46315 9.65905L9.57419 6.54801C9.64151 6.48245 9.68747 6.39808 9.70606 6.30596C9.72464 6.21384 9.71498 6.11826 9.67834 6.03172C9.64171 5.94518 9.5798 5.87172 9.50072 5.82095C9.42164 5.77017 9.32907 5.74446 9.23514 5.74716Z" fill="black"/>
</svg>
