<svg width="14" height="16" viewBox="0 0 14 16" fill="none" xmlns="http://www.w3.org/2000/svg">
<path d="M6.92616 0.77376C6.80584 0.770005 6.68871 0.812893 6.59926 0.893462C6.59926 0.893462 4.26353 2.95149 1.46666 2.95149C1.34289 2.9515 1.22421 3.00067 1.13669 3.08818C1.04918 3.17569 1.00001 3.29438 1 3.41814V7.2322C1 9.30977 1.96113 12.7284 6.7299 14.737C6.78722 14.7611 6.84878 14.7735 6.91097 14.7735C6.97316 14.7735 7.03473 14.7611 7.09204 14.737C11.8608 12.7284 12.8219 9.30977 12.8219 7.2322V3.41814C12.8219 3.29438 12.7728 3.17569 12.6852 3.08818C12.5977 3.00067 12.479 2.9515 12.3553 2.95149C9.55841 2.95149 7.22268 0.893462 7.22268 0.893462C7.14102 0.819889 7.03601 0.777498 6.92616 0.77376V0.77376ZM6.91097 1.84014C7.55277 2.35615 9.43441 3.6786 11.8886 3.84591V7.2322C11.8886 9.01864 11.2022 11.9006 6.91097 13.786C2.61978 11.9006 1.93331 9.01864 1.93331 7.2322V3.84591C4.38753 3.6786 6.26918 2.35615 6.91097 1.84014ZM6.91097 4.50701C5.19832 4.50701 3.79993 5.90539 3.79993 7.61804C3.79993 9.3307 5.19832 10.7291 6.91097 10.7291C8.62362 10.7291 10.022 9.3307 10.022 7.61804C10.022 5.90539 8.62362 4.50701 6.91097 4.50701ZM6.91097 5.44032C7.34292 5.44032 7.72125 5.59594 8.05877 5.81036L5.10329 8.76585C4.88887 8.42832 4.73325 8.04999 4.73325 7.61804C4.73325 6.40979 5.70272 5.44032 6.91097 5.44032ZM8.71866 6.47024C8.93307 6.80777 9.0887 7.1861 9.0887 7.61804C9.0887 8.8263 8.11923 9.79577 6.91097 9.79577C6.47903 9.79577 6.1007 9.64015 5.76317 9.42573L8.71866 6.47024Z" fill="black"/>
</svg>
