<svg width="14" height="15" viewBox="0 0 14 15" fill="none" xmlns="http://www.w3.org/2000/svg">
<path d="M6.92616 -0.313018C6.80584 -0.316773 6.68871 -0.273886 6.59926 -0.193316C6.59926 -0.193316 4.26353 1.86471 1.46666 1.86471C1.34289 1.86472 1.22421 1.91389 1.13669 2.0014C1.04918 2.08891 1.00001 2.2076 1 2.33136V6.14542C1 8.22299 1.96113 11.6416 6.7299 13.6502C6.78722 13.6743 6.84878 13.6868 6.91097 13.6868C6.97316 13.6868 7.03473 13.6743 7.09204 13.6502C11.8608 11.6416 12.8219 8.22299 12.8219 6.14542V2.33136C12.8219 2.2076 12.7728 2.08891 12.6853 2.0014C12.5977 1.91389 12.479 1.86472 12.3553 1.86471C9.55841 1.86471 7.22268 -0.193316 7.22268 -0.193316C7.14102 -0.26689 7.03602 -0.30928 6.92616 -0.313018ZM6.91097 0.753363C7.55277 1.26937 9.43441 2.59182 11.8886 2.75913V6.14542C11.8886 7.93186 11.2022 10.8138 6.91097 12.6993C2.61978 10.8138 1.93331 7.93186 1.93331 6.14542V2.75913C4.38753 2.59182 6.26918 1.26937 6.91097 0.753363ZM9.23514 4.66039C9.11394 4.66392 8.99888 4.71448 8.91431 4.80136L6.13321 7.58246L4.90763 6.35688C4.86463 6.31209 4.81313 6.27634 4.75614 6.2517C4.69915 6.22707 4.63781 6.21406 4.57573 6.21343C4.51365 6.2128 4.45206 6.22456 4.39458 6.24803C4.3371 6.2715 4.28488 6.3062 4.24098 6.3501C4.19707 6.394 4.16237 6.44622 4.13891 6.5037C4.11544 6.56118 4.10368 6.62277 4.10431 6.68485C4.10494 6.74694 4.11795 6.80827 4.14258 6.86526C4.16721 6.92225 4.20297 6.97376 4.24775 7.01676L5.80327 8.57228C5.89079 8.65976 6.00947 8.7089 6.13321 8.7089C6.25696 8.7089 6.37563 8.65976 6.46315 8.57228L9.57419 5.46124C9.64151 5.39567 9.68747 5.31131 9.70606 5.21919C9.72464 5.12707 9.71498 5.03149 9.67834 4.94495C9.64171 4.85841 9.5798 4.78494 9.50072 4.73417C9.42164 4.6834 9.32907 4.65768 9.23514 4.66039Z" fill="black"/>
</svg>
