<svg width="15" height="15" viewBox="0 0 15 15" fill="none" xmlns="http://www.w3.org/2000/svg">
<path d="M11.5571 0.871767C11.0104 0.910197 10.4941 1.22351 10.2257 1.74216L5.88922 10.118C5.85643 10.1813 5.83945 10.2516 5.83971 10.3229L5.85008 12.983C5.85039 13.0651 5.87355 13.1455 5.91696 13.2152C5.96038 13.2849 6.02234 13.3411 6.0959 13.3775C6.16947 13.414 6.25172 13.4292 6.33347 13.4216C6.41521 13.4139 6.4932 13.3837 6.55871 13.3342L8.64259 11.758C8.69506 11.7181 8.73794 11.667 8.76809 11.6084L12.5421 4.31881L13.0285 4.57094C13.1712 4.64477 13.2228 4.80706 13.1488 4.94973L11.7569 7.6392C11.7289 7.69087 11.7115 7.7476 11.7057 7.80608C11.6999 7.86456 11.7058 7.9236 11.7231 7.97977C11.7403 8.03594 11.7686 8.0881 11.8063 8.1332C11.844 8.17831 11.8902 8.21545 11.9424 8.24247C11.9946 8.26948 12.0517 8.28581 12.1102 8.29052C12.1688 8.29523 12.2277 8.28822 12.2836 8.26989C12.3394 8.25156 12.391 8.22229 12.4354 8.18378C12.4798 8.14527 12.5161 8.0983 12.5421 8.04562L13.934 5.35672C14.2279 4.78966 14.002 4.07917 13.4349 3.78575L12.9485 3.53361L13.1045 3.23254C13.5138 2.44209 13.2009 1.45634 12.4103 1.04734C12.2127 0.945112 12.0025 0.888161 11.7926 0.872343C11.7139 0.866411 11.6353 0.866277 11.5571 0.871767ZM11.7206 1.7508C11.8161 1.75873 11.9123 1.78577 12.0039 1.83312C12.3698 2.02243 12.5089 2.46003 12.3193 2.82613L8.02894 11.1133L6.73083 12.0954L6.7245 10.4277L11.0108 2.14858C11.1055 1.96576 11.262 1.83929 11.4409 1.78246C11.5303 1.75404 11.6251 1.74287 11.7206 1.7508ZM3.14218 4.94455C3.0367 4.95022 2.93045 4.96338 2.82442 4.98312C1.97612 5.14097 1.07382 5.72098 0.571293 6.65828C0.195613 7.35893 0.0288772 7.97494 0.0388092 8.51075C0.0487412 9.04656 0.251393 9.50653 0.587411 9.80022C0.979718 10.1431 1.50337 10.2146 2.01619 10.0938C1.94602 10.6567 2.04815 11.1597 2.36389 11.5105C2.61683 11.7915 3.00621 11.9443 3.3972 11.9031C3.51529 11.8907 3.62935 11.8342 3.74489 11.792C3.78486 12.1614 3.87667 12.4759 4.02754 12.6871C4.28583 13.0488 4.65271 13.1816 4.65271 13.1816C4.70782 13.2 4.76601 13.2074 4.82396 13.2032C4.88191 13.1991 4.93848 13.1836 4.99045 13.1577C5.04241 13.1317 5.08875 13.0957 5.12682 13.0518C5.16488 13.008 5.19393 12.957 5.2123 12.9019C5.23067 12.8468 5.23801 12.7886 5.23389 12.7306C5.22977 12.6727 5.21427 12.6161 5.18829 12.5641C5.1623 12.5122 5.12634 12.4659 5.08245 12.4278C5.03855 12.3897 4.98759 12.3607 4.93248 12.3423C4.93248 12.3423 4.85724 12.3278 4.74711 12.1737C4.63699 12.0195 4.50701 11.7284 4.63659 11.0805C4.65519 10.9875 4.64338 10.8909 4.60289 10.8051C4.5624 10.7193 4.49539 10.6488 4.41175 10.604C4.32811 10.5592 4.23228 10.5425 4.13842 10.5564C4.04457 10.5702 3.95766 10.6139 3.89054 10.681C3.6479 10.9236 3.4391 11.0094 3.30509 11.0235C3.17108 11.0376 3.09994 11.0061 3.02129 10.9187C2.86401 10.744 2.73553 10.2014 3.12491 9.42259C3.17161 9.32871 3.18343 9.22129 3.15825 9.1195C3.13307 9.01771 3.07254 8.92819 2.98746 8.8669C2.90238 8.80562 2.79829 8.77656 2.69377 8.78492C2.58925 8.79329 2.4911 8.83852 2.41685 8.91256C1.95623 9.37318 1.43677 9.36787 1.1694 9.13418C1.03572 9.01734 0.929234 8.82987 0.92302 8.49463C0.916805 8.15939 1.02656 7.6808 1.35073 7.07621C1.70942 6.40719 2.42873 5.95609 2.98618 5.85236C3.2649 5.80049 3.4845 5.83886 3.5935 5.90302C3.70249 5.96718 3.76101 6.02839 3.76101 6.27777C3.76018 6.33635 3.77101 6.39452 3.79285 6.44888C3.8147 6.50325 3.84713 6.55273 3.88827 6.59445C3.9294 6.63617 3.97842 6.6693 4.03247 6.69192C4.08652 6.71453 4.14453 6.72617 4.20312 6.72617C4.26171 6.72617 4.31971 6.71453 4.37376 6.69192C4.42781 6.6693 4.47683 6.63617 4.51797 6.59445C4.5591 6.55273 4.59154 6.50325 4.61338 6.44888C4.63523 6.39452 4.64605 6.33635 4.64522 6.27777C4.64522 5.79031 4.40627 5.35588 4.04193 5.14142C3.85977 5.03419 3.66122 4.97469 3.45534 4.95203C3.3524 4.9407 3.24767 4.93888 3.14218 4.94455Z" fill="black"/>
</svg>
