<svg width="15" height="15" viewBox="0 0 15 15" fill="none" xmlns="http://www.w3.org/2000/svg">
<path d="M11.5572 0.933931C11.0104 0.972362 10.4941 1.28568 10.2257 1.80433L5.88925 10.1801C5.85647 10.2435 5.83948 10.3138 5.83974 10.3851L5.85011 13.0452C5.85042 13.1273 5.87358 13.2077 5.91699 13.2774C5.96041 13.347 6.02237 13.4033 6.09593 13.4397C6.1695 13.4762 6.25176 13.4914 6.3335 13.4838C6.41524 13.4761 6.49323 13.4458 6.55874 13.3963L8.64262 11.8202C8.69509 11.7803 8.73797 11.7291 8.76812 11.6705L12.5421 4.38097L13.0286 4.63311C13.1712 4.70693 13.2228 4.86922 13.1489 5.01189L11.7569 7.70137C11.7289 7.75304 11.7115 7.80977 11.7057 7.86824C11.6999 7.92672 11.7058 7.98577 11.7231 8.04193C11.7404 8.0981 11.7687 8.15026 11.8063 8.19537C11.844 8.24047 11.8903 8.27762 11.9425 8.30463C11.9947 8.33164 12.0517 8.34798 12.1103 8.35269C12.1688 8.3574 12.2278 8.35038 12.2836 8.33206C12.3394 8.31373 12.3911 8.28445 12.4354 8.24595C12.4798 8.20744 12.5161 8.16047 12.5421 8.10778L13.9341 5.41888C14.228 4.85182 14.002 4.14133 13.435 3.84791L12.9485 3.59577L13.1045 3.2947C13.5139 2.50425 13.2009 1.51851 12.4103 1.10951C12.2127 1.00728 12.0025 0.950325 11.7926 0.934507C11.7139 0.928575 11.6353 0.928441 11.5572 0.933931ZM11.7207 1.81296C11.8162 1.82089 11.9124 1.84793 12.0039 1.89528C12.3698 2.0846 12.5089 2.52219 12.3193 2.88829L8.02897 11.1755L6.73086 12.1575L6.72453 10.4899L11.0109 2.21074C11.1055 2.02792 11.262 1.90145 11.4409 1.84462C11.5303 1.81621 11.6252 1.80503 11.7207 1.81296ZM3.14221 5.00671C3.03673 5.01238 2.93049 5.02555 2.82445 5.04528C1.97615 5.20313 1.07385 5.78314 0.571323 6.72044C0.195644 7.4211 0.0289077 8.0371 0.0388397 8.57291C0.0487717 9.10872 0.251424 9.5687 0.587442 9.86239C0.979748 10.2053 1.5034 10.2767 2.01622 10.156C1.94605 10.7189 2.04818 11.2218 2.36392 11.5727C2.61686 11.8537 3.00624 12.0064 3.39723 11.9653C3.51532 11.9528 3.62938 11.8964 3.74492 11.8542C3.78489 12.2236 3.8767 12.5381 4.02757 12.7493C4.28586 13.1109 4.65274 13.2438 4.65274 13.2438C4.70785 13.2622 4.76604 13.2695 4.82399 13.2654C4.88194 13.2613 4.93852 13.2458 4.99048 13.2198C5.04244 13.1939 5.08878 13.1579 5.12685 13.114C5.16491 13.0701 5.19396 13.0192 5.21233 12.964C5.2307 12.9089 5.23804 12.8507 5.23392 12.7928C5.2298 12.7348 5.2143 12.6783 5.18832 12.6263C5.16233 12.5743 5.12637 12.528 5.08248 12.49C5.03858 12.4519 4.98762 12.4229 4.93251 12.4045C4.93251 12.4045 4.85728 12.39 4.74715 12.2358C4.63702 12.0816 4.50704 11.7906 4.63662 11.1426C4.65522 11.0496 4.64341 10.9531 4.60292 10.8673C4.56243 10.7815 4.49542 10.711 4.41178 10.6662C4.32814 10.6214 4.23231 10.6047 4.13846 10.6185C4.0446 10.6324 3.95769 10.6761 3.89057 10.7431C3.64793 10.9858 3.43913 11.0716 3.30512 11.0857C3.17111 11.0998 3.09997 11.0683 3.02132 10.9809C2.86404 10.8061 2.73556 10.2635 3.12494 9.48475C3.17164 9.39087 3.18346 9.28345 3.15828 9.18166C3.1331 9.07988 3.07257 8.99035 2.98749 8.92907C2.90241 8.86778 2.79832 8.83873 2.6938 8.84709C2.58928 8.85545 2.49114 8.90069 2.41688 8.97472C1.95626 9.43534 1.4368 9.43003 1.16943 9.19635C1.03575 9.07951 0.929264 8.89203 0.92305 8.55679C0.916836 8.22156 1.02659 7.74296 1.35076 7.13837C1.70945 6.46936 2.42876 6.01825 2.98621 5.91452C3.26493 5.86266 3.48453 5.90102 3.59353 5.96518C3.70252 6.02934 3.76104 6.09056 3.76104 6.33993C3.76021 6.39852 3.77104 6.45668 3.79288 6.51105C3.81473 6.56541 3.84716 6.61489 3.8883 6.65662C3.92943 6.69834 3.97845 6.73147 4.0325 6.75408C4.08655 6.77669 4.14456 6.78834 4.20315 6.78834C4.26174 6.78834 4.31974 6.77669 4.3738 6.75408C4.42785 6.73147 4.47686 6.69834 4.518 6.65662C4.55913 6.61489 4.59157 6.56541 4.61341 6.51105C4.63526 6.45668 4.64608 6.39852 4.64525 6.33993C4.64525 5.85247 4.4063 5.41805 4.04196 5.20359C3.8598 5.09636 3.66125 5.03686 3.45537 5.01419C3.35243 5.00286 3.2477 5.00104 3.14221 5.00671Z" fill="black"/>
</svg>
