<svg width="14" height="15" viewBox="0 0 14 15" fill="none" xmlns="http://www.w3.org/2000/svg">
<path d="M4.575 -0.313246C3.71137 -0.313246 3 0.398129 3 1.26175V12.1118C3 12.9754 3.71137 13.6868 4.575 13.6868H9.825C10.6886 13.6868 11.4 12.9754 11.4 12.1118V1.26175C11.4 0.398129 10.6886 -0.313246 9.825 -0.313246H4.575ZM4.575 0.736754H9.825C10.1213 0.736754 10.35 0.965479 10.35 1.26175V12.1118C10.35 12.408 10.1213 12.6368 9.825 12.6368H4.575C4.27873 12.6368 4.05 12.408 4.05 12.1118V1.26175C4.05 0.965479 4.27873 0.736754 4.575 0.736754ZM7.2 10.5368C7.06076 10.5368 6.92723 10.5921 6.82877 10.6905C6.73031 10.789 6.675 10.9225 6.675 11.0618C6.675 11.201 6.73031 11.3345 6.82877 11.433C6.92723 11.5314 7.06076 11.5868 7.2 11.5868C7.33924 11.5868 7.47277 11.5314 7.57123 11.433C7.66969 11.3345 7.725 11.201 7.725 11.0618C7.725 10.9225 7.66969 10.789 7.57123 10.6905C7.47277 10.5921 7.33924 10.5368 7.2 10.5368Z" fill="black"/>
</svg>
