<svg width="14" height="15" viewBox="0 0 14 15" fill="none" xmlns="http://www.w3.org/2000/svg">
<g clip-path="url(#clip0_1830_10114)">
<path d="M7 0.173553C3.14022 0.173553 0 3.31378 0 7.17355C0 11.0333 3.14022 14.1736 7 14.1736C10.8598 14.1736 14 11.0333 14 7.17355C14 3.31378 10.8598 0.173553 7 0.173553ZM7 1.22355C7.53697 1.22355 8.05459 1.3008 8.54902 1.43342L7 2.54289L5.45098 1.43342C5.94541 1.3008 6.46303 1.22355 7 1.22355ZM4.6375 1.71164L6.65 3.15334V4.55607L4.5083 6.09074L3.08506 5.61633L2.36729 3.43908C2.96868 2.69337 3.7456 2.09683 4.6375 1.71164ZM9.3625 1.71164C10.2544 2.09683 11.0313 2.69337 11.6327 3.43908L10.9149 5.61633L9.4917 6.09074L7.35 4.55607V3.15334L9.3625 1.71164ZM1.87031 4.16506L2.38711 5.7339L1.07529 6.67385C1.15088 5.76249 1.43182 4.91247 1.87031 4.16506ZM12.1297 4.16506C12.5682 4.91247 12.8491 5.76249 12.9247 6.67385L11.6129 5.7339L12.1297 4.16506ZM7 5.16652L9.03711 6.62599L8.26123 8.97961H5.73877L4.96289 6.62599L7 5.16652ZM2.8376 6.27189L4.26631 6.74836L5.10234 9.28312L4.30391 10.303L1.95234 10.3174C1.44451 9.50245 1.13017 8.55677 1.06846 7.53928L2.8376 6.27189ZM11.1617 6.27189L12.9315 7.53928C12.8698 8.55677 12.5555 9.50245 12.0477 10.3174L9.73438 10.3037L8.90928 9.24963L9.73369 6.74836L11.1617 6.27189ZM5.68066 9.67961H8.35693L9.14307 10.6845L8.35215 12.9643C7.91731 13.065 7.46601 13.1236 7 13.1236C6.51993 13.1236 6.0557 13.0608 5.60889 12.954L4.84326 10.7487L5.68066 9.67961ZM4.19111 11.0037L4.77695 12.6915C3.87064 12.3272 3.07645 11.7481 2.45615 11.0147L4.19111 11.0037ZM9.77334 11.0037L11.5438 11.0147C10.9143 11.7591 10.1052 12.3433 9.18203 12.7066L9.77334 11.0037Z" fill="black"/>
</g>
<defs>
<clipPath id="clip0_1830_10114">
<rect width="14" height="14" fill="white" transform="translate(0 0.173553)"/>
</clipPath>
</defs>
</svg>
