<svg width="14" height="15" viewBox="0 0 14 15" fill="none" xmlns="http://www.w3.org/2000/svg">
<g clip-path="url(#clip0_1703_9904)">
<path d="M9.90721 0.237228C9.83297 0.237411 9.75896 0.242962 9.68629 0.253797C7.71574 0.371053 6.14184 2.01124 6.14184 4.00995C6.14184 6.08453 7.8357 7.77777 9.91027 7.77777C11.9849 7.77777 13.6775 6.08448 13.6775 4.00995C13.6775 2.0057 12.0959 0.361566 10.1177 0.25257C10.0484 0.242636 9.97789 0.237498 9.90721 0.237228ZM10.897 1.36451C11.3492 1.5326 11.7458 1.81128 12.0538 2.17023C11.6629 2.33762 11.52 2.91456 11.7377 3.47178C11.9326 3.97049 12.3503 4.2858 12.7233 4.24498C12.6883 4.67143 12.5598 5.0696 12.3575 5.42074C12.0723 5.19313 11.5679 5.21294 11.1327 5.49745C10.6327 5.82427 10.4139 6.37555 10.6332 6.73886C10.4021 6.79961 10.1608 6.8352 9.91027 6.8352C9.72497 6.8352 9.54425 6.81622 9.36903 6.78243C9.37529 6.77264 9.3842 6.76507 9.3899 6.75482C9.6004 6.37559 9.34066 5.82897 8.81 5.53426C8.3393 5.27286 7.81415 5.29838 7.55447 5.5717C7.29174 5.17555 7.12848 4.70874 7.09423 4.2051C7.09733 4.20637 7.09969 4.20878 7.10282 4.21001C7.50655 4.36773 8.01352 4.03701 8.23439 3.47178C8.45527 2.90656 8.30676 2.31936 7.90302 2.16164C7.86862 2.14821 7.83252 2.14298 7.79686 2.13648C8.09971 1.79501 8.4831 1.52857 8.91923 1.36573C9.00927 1.49822 9.14966 1.60996 9.32435 1.6882C9.49905 1.76643 9.70102 1.808 9.90721 1.80818C10.1139 1.80814 10.3164 1.7665 10.4914 1.68803C10.6665 1.60955 10.8071 1.49743 10.897 1.36451ZM2.52376 1.49399C2.45998 1.49399 2.39757 1.49782 2.33537 1.50442C2.64453 2.13091 3.26674 2.7205 4.12416 2.57094C3.86652 1.93974 3.24733 1.49399 2.52376 1.49399ZM1.73644 1.68544C1.17844 1.9723 0.795715 2.55218 0.795715 3.22203C0.795715 3.27513 0.798979 3.32758 0.803692 3.37974C1.97562 3.2993 2.94022 3.83856 3.30248 4.76291C3.86519 4.47794 4.2518 3.89565 4.2518 3.22203C4.2518 3.21009 4.25027 3.19837 4.24996 3.18644C4.12145 3.21 3.99334 3.22387 3.86704 3.22387C2.99516 3.22387 2.19358 2.67542 1.74994 1.73945C1.74146 1.72185 1.74115 1.70367 1.73644 1.68544ZM9.98575 2.90784C9.6941 2.90784 9.4144 3.02369 9.20817 3.22992C9.00195 3.43615 8.88609 3.71585 8.88609 4.0075C8.88609 4.29915 9.00195 4.57885 9.20817 4.78508C9.4144 4.99131 9.6941 5.10716 9.98575 5.10716C10.2774 5.10716 10.5571 4.99131 10.7633 4.78508C10.9696 4.57885 11.0854 4.29915 11.0854 4.0075C11.0854 3.71585 10.9696 3.43615 10.7633 3.22992C10.5571 3.02369 10.2774 2.90784 9.98575 2.90784ZM0.984106 4.00259C1.2697 4.56436 1.85108 4.95007 2.52376 4.95007C2.58157 4.95007 2.63873 4.94713 2.69496 4.94148C2.38926 4.23581 1.65082 3.99128 0.984106 4.00259ZM3.37734 5.7067C3.10955 5.71399 2.8477 5.74361 2.59494 5.79507C1.58391 6.0009 0.701485 6.57609 0.269202 7.48752C-0.162913 8.39898 -0.0499267 9.44632 0.430592 10.3594C0.911112 11.2725 1.75531 12.0774 2.85206 12.5974C3.94893 13.1175 5.10682 13.2622 6.11791 13.0564C6.2443 13.0307 6.36866 12.9991 6.4904 12.9619C6.51907 12.959 6.54742 12.9534 6.57508 12.9453C7.76411 12.622 9.70442 12.5066 11.0167 12.9705C11.0822 13.1047 11.1911 13.2184 11.3382 13.2835L13.0779 14.0536C13.4091 14.2003 13.7971 14.0503 13.9438 13.7191C14.0905 13.3877 13.9399 12.9997 13.6087 12.8533L11.869 12.0831C11.7237 12.0188 11.5686 12.0148 11.4266 12.0549C10.2413 11.4038 9.03798 9.86059 8.43138 8.80073C8.42543 8.79026 8.41908 8.78003 8.41235 8.77005C8.3718 8.67626 8.33035 8.58282 8.28226 8.49145C7.80169 7.5784 6.95703 6.77358 5.86018 6.25346C5.31182 5.99348 4.74829 5.82743 4.19534 5.75211C3.91887 5.71445 3.64514 5.69941 3.37734 5.7067ZM3.40189 6.64988C3.57589 6.64539 3.7559 6.65583 3.93822 6.67504C3.93782 6.73714 3.94969 6.7987 3.97315 6.85619C3.99662 6.91369 4.03121 6.96598 4.07495 7.01006C4.11869 7.05414 4.17071 7.08914 4.22802 7.11305C4.28533 7.13696 4.3468 7.14931 4.40889 7.14939C4.50082 7.14924 4.59071 7.1222 4.66747 7.07161C4.74423 7.02102 4.80451 6.94908 4.8409 6.86466C5.04646 6.92985 5.25242 7.00789 5.45639 7.1046C5.48429 7.11782 5.50993 7.13328 5.5374 7.14694C5.51183 7.21801 5.50371 7.29419 5.51374 7.36905C5.52376 7.44391 5.55164 7.51527 5.59501 7.57711C5.63838 7.63894 5.69598 7.68945 5.76295 7.72437C5.82992 7.7593 5.90431 7.77761 5.97984 7.77777C6.04324 7.7777 6.10597 7.76483 6.16427 7.73995C6.22258 7.71507 6.27527 7.67867 6.31919 7.63295C6.74448 7.95828 7.08721 8.33534 7.3311 8.73016C7.30001 8.72371 7.26835 8.72042 7.2366 8.72034C7.1116 8.72034 6.99173 8.76999 6.90335 8.85838C6.81497 8.94676 6.76531 9.06663 6.76531 9.19162C6.76531 9.31662 6.81497 9.43649 6.90335 9.52487C6.99173 9.61326 7.1116 9.66291 7.2366 9.66291C7.32168 9.66288 7.40517 9.63982 7.47821 9.59617C7.55124 9.55252 7.6111 9.48991 7.65142 9.41499C7.82737 9.96025 7.81312 10.4929 7.5919 10.9596C7.4162 11.3301 7.12567 11.626 6.7469 11.8371C6.7674 11.7668 6.77124 11.6927 6.75812 11.6207C6.74501 11.5487 6.7153 11.4807 6.67135 11.4222C6.6274 11.3636 6.57042 11.3162 6.50493 11.2835C6.43944 11.2508 6.36723 11.2338 6.29403 11.2339C6.19206 11.2342 6.09295 11.2676 6.01158 11.3291C5.93021 11.3905 5.87097 11.4767 5.84276 11.5747C5.81454 11.6727 5.81887 11.7772 5.8551 11.8726C5.89132 11.9679 5.95749 12.0489 6.04366 12.1034C6.00555 12.1126 5.96923 12.1243 5.93013 12.1322C5.5987 12.1997 5.23423 12.2164 4.85563 12.1838C4.82425 12.0901 4.76424 12.0087 4.68408 11.951C4.60392 11.8933 4.50766 11.8623 4.40889 11.8622C4.33891 11.8624 4.26983 11.8781 4.20668 11.9082C4.14352 11.9383 4.08787 11.9822 4.04377 12.0365C3.79747 11.9685 3.55016 11.8795 3.30493 11.7665C3.31366 11.7 3.30811 11.6325 3.28864 11.5683C3.26917 11.5041 3.23624 11.4449 3.19204 11.3945C3.14784 11.344 3.09339 11.3036 3.03232 11.2759C2.97126 11.2482 2.90499 11.2339 2.83795 11.2339C2.73365 11.2342 2.63244 11.2692 2.55014 11.3333C2.11266 11.0267 1.75467 10.6647 1.48853 10.2815C1.51901 10.2878 1.55005 10.2911 1.58119 10.2913C1.70618 10.2913 1.82605 10.2416 1.91444 10.1533C2.00282 10.0649 2.05247 9.945 2.05247 9.82C2.05247 9.69501 2.00282 9.57514 1.91444 9.48676C1.82605 9.39837 1.70618 9.34872 1.58119 9.34872C1.48525 9.34893 1.39166 9.37843 1.31292 9.43325C1.23419 9.48808 1.17407 9.56563 1.14059 9.65555C0.882698 9.03438 0.870052 8.42052 1.12095 7.8913C1.40753 7.28707 1.99698 6.87858 2.78272 6.71861C2.97915 6.67862 3.1866 6.65544 3.40189 6.64988ZM2.52376 6.8352C2.39876 6.8352 2.27889 6.88486 2.19051 6.97324C2.10213 7.06162 2.05247 7.1815 2.05247 7.30649C2.05247 7.43148 2.10213 7.55135 2.19051 7.63974C2.27889 7.72812 2.39876 7.77777 2.52376 7.77777C2.64875 7.77777 2.76862 7.72812 2.857 7.63974C2.94539 7.55135 2.99504 7.43148 2.99504 7.30649C2.99504 7.1815 2.94539 7.06162 2.857 6.97324C2.76862 6.88486 2.64875 6.8352 2.52376 6.8352ZM4.0947 7.46358C3.96971 7.46358 3.84984 7.51324 3.76145 7.60162C3.67307 7.69 3.62342 7.80988 3.62342 7.93487C3.62342 8.05986 3.67307 8.17973 3.76145 8.26812C3.84984 8.3565 3.96971 8.40615 4.0947 8.40615C4.2197 8.40615 4.33957 8.3565 4.42795 8.26812C4.51633 8.17973 4.56599 8.05986 4.56599 7.93487C4.56599 7.80988 4.51633 7.69 4.42795 7.60162C4.33957 7.51324 4.2197 7.46358 4.0947 7.46358ZM1.89538 8.09196C1.77039 8.09196 1.65051 8.14162 1.56213 8.23C1.47375 8.31838 1.42409 8.43825 1.42409 8.56325C1.42409 8.68824 1.47375 8.80811 1.56213 8.89649C1.65051 8.98488 1.77039 9.03453 1.89538 9.03453C2.02037 9.03453 2.14024 8.98488 2.22863 8.89649C2.31701 8.80811 2.36666 8.68824 2.36666 8.56325C2.36666 8.43825 2.31701 8.31838 2.22863 8.23C2.14024 8.14162 2.02037 8.09196 1.89538 8.09196ZM5.66565 8.09196C5.54066 8.09196 5.42078 8.14162 5.3324 8.23C5.24402 8.31838 5.19437 8.43825 5.19437 8.56325C5.19437 8.68824 5.24402 8.80811 5.3324 8.89649C5.42078 8.98488 5.54066 9.03453 5.66565 9.03453C5.79064 9.03453 5.91051 8.98488 5.9989 8.89649C6.08728 8.80811 6.13693 8.68824 6.13693 8.56325C6.13693 8.43825 6.08728 8.31838 5.9989 8.23C5.91051 8.14162 5.79064 8.09196 5.66565 8.09196ZM3.46632 8.63688C3.34133 8.63688 3.22146 8.68654 3.13308 8.77492C3.04469 8.8633 2.99504 8.98318 2.99504 9.10817C2.99504 9.23316 3.04469 9.35303 3.13308 9.44142C3.22146 9.5298 3.34133 9.57945 3.46632 9.57945C3.59132 9.57945 3.71119 9.5298 3.79957 9.44142C3.88796 9.35303 3.93761 9.23316 3.93761 9.10817C3.93761 8.98318 3.88796 8.8633 3.79957 8.77492C3.71119 8.68654 3.59132 8.63688 3.46632 8.63688ZM5.03727 9.34872C4.91228 9.34872 4.79241 9.39837 4.70402 9.48676C4.61564 9.57514 4.56599 9.69501 4.56599 9.82C4.56599 9.945 4.61564 10.0649 4.70402 10.1533C4.79241 10.2416 4.91228 10.2913 5.03727 10.2913C5.16226 10.2913 5.28214 10.2416 5.37052 10.1533C5.4589 10.0649 5.50855 9.945 5.50855 9.82C5.50855 9.69501 5.4589 9.57514 5.37052 9.48676C5.28214 9.39837 5.16226 9.34872 5.03727 9.34872ZM6.60822 9.89364C6.48323 9.89364 6.36335 9.94329 6.27497 10.0317C6.18659 10.1201 6.13693 10.2399 6.13693 10.3649C6.13693 10.4899 6.18659 10.6098 6.27497 10.6982C6.36335 10.7866 6.48323 10.8362 6.60822 10.8362C6.73321 10.8362 6.85308 10.7866 6.94147 10.6982C7.02985 10.6098 7.0795 10.4899 7.0795 10.3649C7.0795 10.2399 7.02985 10.1201 6.94147 10.0317C6.85308 9.94329 6.73321 9.89364 6.60822 9.89364ZM3.15213 9.9771C3.02714 9.9771 2.90727 10.0268 2.81889 10.1151C2.7305 10.2035 2.68085 10.3234 2.68085 10.4484C2.68085 10.5734 2.7305 10.6932 2.81889 10.7816C2.90727 10.87 3.02714 10.9197 3.15213 10.9197C3.27713 10.9197 3.397 10.87 3.48538 10.7816C3.57377 10.6932 3.62342 10.5734 3.62342 10.4484C3.62342 10.3234 3.57377 10.2035 3.48538 10.1151C3.397 10.0268 3.27713 9.9771 3.15213 9.9771ZM4.72308 10.6055C4.59809 10.6055 4.47822 10.6551 4.38983 10.7435C4.30145 10.8319 4.2518 10.9518 4.2518 11.0768C4.2518 11.2018 4.30145 11.3216 4.38983 11.41C4.47822 11.4984 4.59809 11.548 4.72308 11.548C4.84807 11.548 4.96795 11.4984 5.05633 11.41C5.14471 11.3216 5.19437 11.2018 5.19437 11.0768C5.19437 10.9518 5.14471 10.8319 5.05633 10.7435C4.96795 10.6551 4.84807 10.6055 4.72308 10.6055ZM8.64186 10.7644C8.90869 11.0998 9.19502 11.4343 9.5114 11.7475C9.07748 11.7179 8.64235 11.7184 8.22089 11.7426C8.30329 11.6228 8.37984 11.4979 8.44365 11.3633C8.53561 11.1694 8.59756 10.9681 8.64186 10.7644Z" fill="black"/>
</g>
<defs>
<clipPath id="clip0_1703_9904">
<rect width="14" height="14" fill="white" transform="translate(0 0.173553)"/>
</clipPath>
</defs>
</svg>
