<svg width="14" height="15" viewBox="0 0 14 15" fill="none" xmlns="http://www.w3.org/2000/svg">
<path d="M1.83333 1.50689C0.826742 1.50689 0 2.33363 0 3.34022V11.0069C0 12.0135 0.826742 12.8402 1.83333 12.8402H12.1667C13.1733 12.8402 14 12.0135 14 11.0069V3.34022C14 2.33363 13.1733 1.50689 12.1667 1.50689H1.83333ZM1.83333 2.50689H6.5V4.55572C5.27025 4.79156 4.33333 5.87764 4.33333 7.17356C4.33333 8.46947 5.27025 9.55555 6.5 9.7914V11.8402H1.83333C1.36726 11.8402 1 11.473 1 11.0069V9.50689H2.16667C2.80499 9.50689 3.33333 8.97854 3.33333 8.34022V6.00689C3.33333 5.36857 2.80499 4.84022 2.16667 4.84022H1V3.34022C1 2.87415 1.36726 2.50689 1.83333 2.50689ZM7.5 2.50689H12.1667C12.6327 2.50689 13 2.87415 13 3.34022V4.84022H11.8333C11.195 4.84022 10.6667 5.36857 10.6667 6.00689V8.34022C10.6667 8.97854 11.195 9.50689 11.8333 9.50689H13V11.0069C13 11.473 12.6327 11.8402 12.1667 11.8402H7.5V9.7914C8.72975 9.55555 9.66667 8.46947 9.66667 7.17356C9.66667 5.87764 8.72975 4.79156 7.5 4.55572V2.50689ZM6.5 5.59087V8.75624C5.82277 8.54479 5.33333 7.92418 5.33333 7.17356C5.33333 6.42293 5.82277 5.80232 6.5 5.59087ZM7.5 5.59087C8.17723 5.80232 8.66667 6.42293 8.66667 7.17356C8.66667 7.92418 8.17723 8.54479 7.5 8.75624V5.59087ZM1 5.84022H2.16667C2.26502 5.84022 2.33333 5.90854 2.33333 6.00689V8.34022C2.33333 8.43857 2.26502 8.50689 2.16667 8.50689H1V5.84022ZM11.8333 5.84022H13V8.50689H11.8333C11.735 8.50689 11.6667 8.43857 11.6667 8.34022V6.00689C11.6667 5.90854 11.735 5.84022 11.8333 5.84022Z" fill="black"/>
</svg>
