<svg width="14" height="16" viewBox="0 0 14 16" fill="none" xmlns="http://www.w3.org/2000/svg">
<path d="M5.26828 0.835989C5.20041 0.835029 5.13302 0.847568 5.07004 0.872877C5.00705 0.898187 4.94973 0.935762 4.90139 0.983418C4.85306 1.03108 4.81467 1.08786 4.78848 1.15048C4.76228 1.2131 4.74879 1.2803 4.74879 1.34818C4.74879 1.41606 4.76228 1.48326 4.78848 1.54588C4.81467 1.6085 4.85306 1.66529 4.90139 1.71295C4.94973 1.7606 5.00705 1.79818 5.07004 1.82349C5.13302 1.8488 5.20041 1.86134 5.26828 1.86038H9.02436C9.09223 1.86134 9.15962 1.8488 9.2226 1.82349C9.28559 1.79818 9.34291 1.7606 9.39125 1.71295C9.43958 1.66529 9.47796 1.6085 9.50416 1.54588C9.53036 1.48326 9.54385 1.41606 9.54385 1.34818C9.54385 1.2803 9.53036 1.2131 9.50416 1.15048C9.47796 1.08786 9.43958 1.03108 9.39125 0.983418C9.34291 0.935762 9.28559 0.898187 9.2226 0.872877C9.15962 0.847568 9.09223 0.835029 9.02436 0.835989H5.26828ZM11.9668 2.1965C11.8648 2.1978 11.7654 2.22955 11.6815 2.28767C11.5977 2.3458 11.5331 2.42766 11.496 2.52275C11.459 2.61784 11.4512 2.72183 11.4736 2.82138C11.4961 2.92093 11.5477 3.01151 11.622 3.0815L12.423 3.86046C12.4712 3.90742 12.5282 3.94441 12.5907 3.96934C12.6532 3.99426 12.72 4.00663 12.7873 4.00574C12.8546 4.00484 12.921 3.9907 12.9829 3.96412C13.0447 3.93755 13.1007 3.89905 13.1476 3.85083C13.1946 3.80262 13.2316 3.74562 13.2565 3.68311C13.2814 3.6206 13.2938 3.55379 13.2929 3.4865C13.292 3.41921 13.2778 3.35275 13.2512 3.29093C13.2246 3.22911 13.1861 3.17313 13.1379 3.12619L12.3363 2.34656C12.2879 2.29811 12.2302 2.25987 12.1667 2.2341C12.1033 2.20833 12.0353 2.19554 11.9668 2.1965ZM7.14632 2.5433C3.75787 2.5433 1 5.30117 1 8.68962C1 12.0781 3.75787 14.8359 7.14632 14.8359C10.5348 14.8359 13.2926 12.0781 13.2926 8.68962C13.2926 5.30117 10.5348 2.5433 7.14632 2.5433ZM7.14632 3.56769C9.98115 3.56769 12.2683 5.85479 12.2683 8.68962C12.2683 11.5245 9.98115 13.8116 7.14632 13.8116C4.31149 13.8116 2.02439 11.5245 2.02439 8.68962C2.02439 5.85479 4.31149 3.56769 7.14632 3.56769ZM7.13832 4.58474C7.00259 4.58686 6.87326 4.64276 6.77872 4.74017C6.68419 4.83759 6.63218 4.96854 6.63413 5.10427V8.86035C6.63317 8.92822 6.64571 8.99561 6.67102 9.05859C6.69632 9.12157 6.7339 9.1789 6.78156 9.22723C6.82921 9.27557 6.886 9.31395 6.94862 9.34015C7.01124 9.36635 7.07844 9.37984 7.14632 9.37984C7.2142 9.37984 7.2814 9.36635 7.34402 9.34015C7.40664 9.31395 7.46343 9.27557 7.51108 9.22723C7.55874 9.1789 7.59631 9.12157 7.62162 9.05859C7.64693 8.99561 7.65947 8.92822 7.65851 8.86035V5.10427C7.6595 5.03571 7.64671 4.96766 7.6209 4.90414C7.5951 4.84062 7.55681 4.78292 7.5083 4.73447C7.45979 4.68603 7.40205 4.64781 7.33849 4.62209C7.27494 4.59637 7.20687 4.58366 7.13832 4.58474Z" fill="black"/>
</svg>
