<svg width="14" height="16" viewBox="0 0 14 16" fill="none" xmlns="http://www.w3.org/2000/svg">
<path d="M5.26828 0.773702C5.20041 0.772742 5.13302 0.785282 5.07004 0.810591C5.00705 0.8359 4.94973 0.873475 4.90139 0.921132C4.85306 0.968789 4.81467 1.02558 4.78848 1.0882C4.76228 1.15082 4.74879 1.21802 4.74879 1.2859C4.74879 1.35377 4.76228 1.42098 4.78848 1.4836C4.81467 1.54621 4.85306 1.603 4.90139 1.65066C4.94973 1.69832 5.00705 1.73589 5.07004 1.7612C5.13302 1.78651 5.20041 1.79905 5.26828 1.79809H9.02436C9.09223 1.79905 9.15962 1.78651 9.2226 1.7612C9.28559 1.73589 9.34291 1.69832 9.39125 1.65066C9.43958 1.603 9.47796 1.54621 9.50416 1.4836C9.53036 1.42098 9.54385 1.35377 9.54385 1.2859C9.54385 1.21802 9.53036 1.15082 9.50416 1.0882C9.47796 1.02558 9.43958 0.968789 9.39125 0.921132C9.34291 0.873475 9.28559 0.8359 9.2226 0.810591C9.15962 0.785282 9.09223 0.772742 9.02436 0.773702H5.26828ZM11.9668 2.13422C11.8648 2.13551 11.7654 2.16726 11.6815 2.22539C11.5977 2.28351 11.5331 2.36537 11.496 2.46046C11.459 2.55555 11.4512 2.65954 11.4736 2.7591C11.4961 2.85865 11.5477 2.94923 11.622 3.01922L12.423 3.79818C12.4712 3.84513 12.5282 3.88212 12.5907 3.90705C12.6532 3.93198 12.72 3.94435 12.7873 3.94345C12.8546 3.94256 12.921 3.92842 12.9829 3.90184C13.0447 3.87526 13.1007 3.83676 13.1476 3.78855C13.1946 3.74033 13.2316 3.68334 13.2565 3.62082C13.2814 3.55831 13.2938 3.4915 13.2929 3.42421C13.292 3.35692 13.2778 3.29047 13.2512 3.22864C13.2246 3.16682 13.1861 3.11084 13.1379 3.0639L12.3363 2.28427C12.2879 2.23583 12.2302 2.19759 12.1667 2.17181C12.1033 2.14604 12.0353 2.13325 11.9668 2.13422ZM7.14632 2.48101C3.75787 2.48101 1 5.23888 1 8.62733C1 12.0158 3.75787 14.7737 7.14632 14.7737C10.5348 14.7737 13.2926 12.0158 13.2926 8.62733C13.2926 5.23888 10.5348 2.48101 7.14632 2.48101ZM7.14632 3.5054C9.98115 3.5054 12.2683 5.7925 12.2683 8.62733C12.2683 11.4622 9.98115 13.7493 7.14632 13.7493C4.31149 13.7493 2.02439 11.4622 2.02439 8.62733C2.02439 5.7925 4.31149 3.5054 7.14632 3.5054ZM7.13832 4.52245C7.00259 4.52457 6.87326 4.58048 6.77872 4.67789C6.68419 4.7753 6.63218 4.90625 6.63413 5.04198V8.79806C6.63317 8.86594 6.64571 8.93332 6.67102 8.9963C6.69632 9.05929 6.7339 9.11661 6.78156 9.16495C6.82921 9.21328 6.886 9.25167 6.94862 9.27786C7.01124 9.30406 7.07844 9.31755 7.14632 9.31755C7.2142 9.31755 7.2814 9.30406 7.34402 9.27786C7.40664 9.25167 7.46343 9.21328 7.51108 9.16495C7.55874 9.11661 7.59631 9.05929 7.62162 8.9963C7.64693 8.93332 7.65947 8.86594 7.65851 8.79806V5.04198C7.6595 4.97343 7.64671 4.90537 7.6209 4.84185C7.5951 4.77833 7.55681 4.72064 7.5083 4.67219C7.45979 4.62374 7.40205 4.58552 7.33849 4.5598C7.27494 4.53408 7.20687 4.52138 7.13832 4.52245Z" fill="black"/>
</svg>
