<svg width="14" height="15" viewBox="0 0 14 15" fill="none" xmlns="http://www.w3.org/2000/svg">
<g clip-path="url(#clip0_365_3351)">
<path d="M1.9249 0.294075C1.25464 0.294075 0.699847 0.848865 0.699847 1.51913V2.468L0.037416 4.12442C0.00816853 4.19769 -0.00419241 4.2766 0.00125179 4.35531C0.00669598 4.43401 0.0298054 4.51048 0.0688627 4.57902C0.0688626 4.57925 0.0688626 4.57948 0.0688627 4.57971C0.148767 5.13796 0.372273 5.65026 0.699847 6.07684V13.4196C0.699861 13.5589 0.75518 13.6924 0.853638 13.7909C0.952096 13.8893 1.08563 13.9446 1.22487 13.9447H12.7754C12.9146 13.9446 13.0481 13.8893 13.1466 13.7909C13.2451 13.6924 13.3004 13.5589 13.3004 13.4196V6.07821C13.6292 5.65043 13.8532 5.13582 13.9327 4.57561C13.971 4.50739 13.9936 4.43148 13.9988 4.35341C14.004 4.27535 13.9917 4.19711 13.9628 4.12442L13.3004 2.468V1.51913C13.3004 0.848865 12.7456 0.294075 12.0753 0.294075H1.9249ZM1.9249 1.34412H12.0753C12.1786 1.34412 12.2503 1.41586 12.2503 1.51913V2.56917C12.2504 2.63592 12.2631 2.70204 12.2879 2.76401L12.9244 4.35548C12.8162 5.41671 11.9427 6.24433 10.8503 6.24433C10.2667 6.24433 9.74452 6.00966 9.36409 5.62839C9.26898 5.53306 9.14088 5.47792 9.00627 5.47436C8.87166 5.4708 8.74083 5.51908 8.64081 5.60924C8.2042 6.00387 7.63395 6.24433 7.00012 6.24433C6.36628 6.24433 5.79603 6.00387 5.35942 5.60924C5.2594 5.51908 5.12857 5.4708 4.99396 5.47436C4.85935 5.47792 4.73126 5.53306 4.63615 5.62839C4.25572 6.00966 3.73353 6.24433 3.14995 6.24433C2.05715 6.24433 1.18369 5.41666 1.07584 4.35548L1.71229 2.76401C1.73709 2.70204 1.74986 2.63592 1.74989 2.56917V1.51913C1.74989 1.41586 1.82163 1.34412 1.9249 1.34412ZM8.9252 2.04415C8.78596 2.04415 8.65241 2.09946 8.55395 2.19793C8.45549 2.29639 8.40018 2.42993 8.40018 2.56917C8.40018 2.70842 8.45549 2.84196 8.55395 2.94042C8.65241 3.03888 8.78596 3.0942 8.9252 3.0942C9.06444 3.0942 9.19799 3.03888 9.29645 2.94042C9.39491 2.84196 9.45022 2.70842 9.45022 2.56917C9.45022 2.42993 9.39491 2.29639 9.29645 2.19793C9.19799 2.09946 9.06444 2.04415 8.9252 2.04415ZM10.6753 2.04415C10.536 2.04415 10.4025 2.09946 10.304 2.19793C10.2056 2.29639 10.1503 2.42993 10.1503 2.56917C10.1503 2.70842 10.2056 2.84196 10.304 2.94042C10.4025 3.03888 10.536 3.0942 10.6753 3.0942C10.8145 3.0942 10.9481 3.03888 11.0465 2.94042C11.145 2.84196 11.2003 2.70842 11.2003 2.56917C11.2003 2.42993 11.145 2.29639 11.0465 2.19793C10.9481 2.09946 10.8145 2.04415 10.6753 2.04415ZM5.01761 6.61349C5.58632 7.01468 6.25187 7.29438 7.00012 7.29438C7.74837 7.29438 8.41391 7.01468 8.98262 6.61349C9.51136 7.01366 10.139 7.29438 10.8503 7.29438C11.3561 7.29438 11.8308 7.17149 12.2503 6.95598V12.8946H10.8503V8.86944C10.8503 8.7302 10.7949 8.59667 10.6965 8.49821C10.598 8.39975 10.4645 8.34443 10.3253 8.34442H6.47509C6.33585 8.34443 6.20232 8.39975 6.10386 8.49821C6.00541 8.59667 5.95009 8.7302 5.95007 8.86944V12.8946H1.74989V6.95598C2.16942 7.17158 2.64393 7.29438 3.14995 7.29438C3.86119 7.29438 4.48888 7.01366 5.01761 6.61349ZM7.00012 9.39447H9.80024V12.8946H7.00012V9.39447Z" fill="black"/>
</g>
<defs>
<clipPath id="clip0_365_3351">
<rect width="14" height="14" fill="white" transform="translate(0 0.173553)"/>
</clipPath>
</defs>
</svg>
