<svg width="14" height="15" viewBox="0 0 14 15" fill="none" xmlns="http://www.w3.org/2000/svg">
<g clip-path="url(#clip0_365_3351)">
<path d="M1.9249 0.356445C1.25464 0.356445 0.699847 0.911235 0.699847 1.5815V2.53037L0.037416 4.18679C0.00816853 4.26006 -0.00419241 4.33897 0.00125179 4.41768C0.00669598 4.49638 0.0298054 4.57285 0.0688627 4.64139C0.0688626 4.64162 0.0688626 4.64185 0.0688627 4.64208C0.148767 5.20033 0.372273 5.71263 0.699847 6.13921V13.482C0.699861 13.6212 0.75518 13.7548 0.853638 13.8532C0.952096 13.9517 1.08563 14.007 1.22487 14.007H12.7754C12.9146 14.007 13.0481 13.9517 13.1466 13.8532C13.2451 13.7548 13.3004 13.6212 13.3004 13.482V6.14058C13.6292 5.7128 13.8532 5.19819 13.9327 4.63798C13.9711 4.56976 13.9936 4.49385 13.9988 4.41579C14.004 4.33772 13.9917 4.25948 13.9628 4.18679L13.3004 2.53037V1.5815C13.3004 0.911235 12.7456 0.356445 12.0753 0.356445H1.9249ZM1.9249 1.40649H12.0753C12.1786 1.40649 12.2503 1.47823 12.2503 1.5815V2.63154C12.2504 2.69829 12.2631 2.76441 12.2879 2.82638L12.9244 4.41785C12.8162 5.47908 11.9427 6.3067 10.8503 6.3067C10.2667 6.3067 9.74452 6.07203 9.36409 5.69076C9.26898 5.59543 9.14088 5.54029 9.00627 5.53673C8.87166 5.53317 8.74083 5.58145 8.64081 5.67161C8.2042 6.06624 7.63395 6.3067 7.00012 6.3067C6.36628 6.3067 5.79603 6.06624 5.35942 5.67161C5.2594 5.58145 5.12857 5.53317 4.99396 5.53673C4.85935 5.54029 4.73126 5.59543 4.63615 5.69076C4.25572 6.07203 3.73353 6.3067 3.14995 6.3067C2.05715 6.3067 1.18369 5.47903 1.07584 4.41785L1.71229 2.82638C1.73709 2.76441 1.74986 2.69829 1.74989 2.63154V1.5815C1.74989 1.47823 1.82163 1.40649 1.9249 1.40649ZM8.9252 2.10652C8.78596 2.10652 8.65241 2.16184 8.55395 2.2603C8.45549 2.35876 8.40018 2.4923 8.40018 2.63154C8.40018 2.77079 8.45549 2.90433 8.55395 3.00279C8.65241 3.10125 8.78596 3.15657 8.9252 3.15657C9.06444 3.15657 9.19799 3.10125 9.29645 3.00279C9.39491 2.90433 9.45022 2.77079 9.45022 2.63154C9.45022 2.4923 9.39491 2.35876 9.29645 2.2603C9.19799 2.16184 9.06444 2.10652 8.9252 2.10652ZM10.6753 2.10652C10.536 2.10652 10.4025 2.16184 10.304 2.2603C10.2056 2.35876 10.1503 2.4923 10.1503 2.63154C10.1503 2.77079 10.2056 2.90433 10.304 3.00279C10.4025 3.10125 10.536 3.15657 10.6753 3.15657C10.8145 3.15657 10.9481 3.10125 11.0465 3.00279C11.145 2.90433 11.2003 2.77079 11.2003 2.63154C11.2003 2.4923 11.145 2.35876 11.0465 2.2603C10.9481 2.16184 10.8145 2.10652 10.6753 2.10652ZM5.01761 6.67586C5.58632 7.07705 6.25187 7.35675 7.00012 7.35675C7.74837 7.35675 8.41391 7.07705 8.98262 6.67586C9.51136 7.07603 10.139 7.35675 10.8503 7.35675C11.3561 7.35675 11.8308 7.23386 12.2503 7.01835V12.957H10.8503V8.93181C10.8503 8.79257 10.7949 8.65904 10.6965 8.56058C10.598 8.46212 10.4645 8.40681 10.3253 8.40679H6.47509C6.33585 8.40681 6.20232 8.46212 6.10386 8.56058C6.00541 8.65904 5.95009 8.79257 5.95007 8.93181V12.957H1.74989V7.01835C2.16942 7.23395 2.64393 7.35675 3.14995 7.35675C3.86119 7.35675 4.48888 7.07603 5.01761 6.67586ZM7.00012 9.45684H9.80024V12.957H7.00012V9.45684Z" fill="black"/>
</g>
<defs>
<clipPath id="clip0_365_3351">
<rect width="14" height="14" fill="white" transform="translate(0 0.23584)"/>
</clipPath>
</defs>
</svg>
