<svg width="14" height="15" viewBox="0 0 14 15" fill="none" xmlns="http://www.w3.org/2000/svg">
<path d="M0.559873 7.06231C0.486725 7.06137 0.414101 7.07361 0.346221 7.09831C0.278341 7.12302 0.21656 7.15969 0.164466 7.20621C0.112373 7.25273 0.0710078 7.30816 0.0427737 7.36928C0.0145396 7.4304 0 7.496 0 7.56226C0 7.62851 0.0145396 7.69411 0.0427737 7.75523C0.0710078 7.81635 0.112373 7.87178 0.164466 7.9183C0.21656 7.96482 0.278341 8.00149 0.346221 8.0262C0.414101 8.0509 0.486725 8.06314 0.559873 8.06221H13.4401C13.5133 8.06314 13.5859 8.0509 13.6538 8.0262C13.7217 8.00149 13.7834 7.96482 13.8355 7.9183C13.8876 7.87178 13.929 7.81635 13.9572 7.75523C13.9855 7.69411 14 7.62851 14 7.56226C14 7.496 13.9855 7.4304 13.9572 7.36928C13.929 7.30816 13.8876 7.25273 13.8355 7.20621C13.7834 7.15969 13.7217 7.12302 13.6538 7.09831C13.5859 7.07361 13.5133 7.06137 13.4401 7.06231H0.559873Z" fill="black"/>
</svg>
