<svg width="14" height="16" viewBox="0 0 14 16" fill="none" xmlns="http://www.w3.org/2000/svg">
<path d="M6.99175 0.773593C6.85278 0.775764 6.72036 0.833006 6.62356 0.932746C6.52677 1.03249 6.47352 1.16657 6.47551 1.30554V2.35441C6.47453 2.42391 6.48737 2.4929 6.51328 2.55739C6.5392 2.62188 6.57767 2.68058 6.62647 2.73007C6.67526 2.77956 6.73341 2.81886 6.79752 2.84568C6.86164 2.8725 6.93045 2.88632 6.99995 2.88632C7.06945 2.88632 7.13826 2.8725 7.20237 2.84568C7.26649 2.81886 7.32463 2.77956 7.37343 2.73007C7.42223 2.68058 7.4607 2.62188 7.48661 2.55739C7.51253 2.4929 7.52537 2.42391 7.52438 2.35441V1.30554C7.52539 1.23535 7.5123 1.16567 7.48588 1.10063C7.45946 1.03559 7.42025 0.976517 7.37058 0.92691C7.32091 0.877303 7.26179 0.838173 7.19671 0.811837C7.13164 0.785501 7.06194 0.772496 6.99175 0.773593V0.773593ZM2.42069 2.67058C2.31632 2.6706 2.21433 2.70176 2.12777 2.76008C2.04121 2.81839 1.97402 2.90121 1.93479 2.99793C1.89556 3.09464 1.88608 3.20086 1.90756 3.303C1.92904 3.40514 1.9805 3.49854 2.05536 3.57127L2.79695 4.31285C2.89538 4.41128 3.02888 4.46658 3.16808 4.46658C3.30729 4.46658 3.44079 4.41128 3.53922 4.31285C3.63765 4.21442 3.69295 4.08092 3.69295 3.94172C3.69295 3.80252 3.63765 3.66901 3.53922 3.57058L2.79763 2.829C2.74861 2.7787 2.68999 2.73876 2.62524 2.71154C2.56049 2.68433 2.49093 2.6704 2.42069 2.67058V2.67058ZM11.5628 2.67058C11.4266 2.67455 11.2973 2.73136 11.2023 2.829L10.4607 3.57058C10.3622 3.66901 10.3069 3.80252 10.3069 3.94172C10.3069 4.08092 10.3622 4.21442 10.4607 4.31285C10.5591 4.41128 10.6926 4.46658 10.8318 4.46658C10.971 4.46658 11.1045 4.41128 11.2029 4.31285L11.9445 3.57127C12.0205 3.49759 12.0724 3.40265 12.0934 3.29894C12.1144 3.19522 12.1035 3.08758 12.0623 2.99014C12.021 2.89271 11.9512 2.81005 11.862 2.75301C11.7729 2.69598 11.6686 2.66724 11.5628 2.67058V2.67058ZM6.99995 3.92772C4.88215 3.92772 3.15408 5.65578 3.15408 7.77358C3.15408 9.89138 4.88215 11.6194 6.99995 11.6194C9.11775 11.6194 10.8458 9.89138 10.8458 7.77358C10.8458 5.65578 9.11775 3.92772 6.99995 3.92772ZM6.99995 4.97659C8.5509 4.97659 9.79694 6.22263 9.79694 7.77358C9.79694 9.32453 8.5509 10.5706 6.99995 10.5706C5.449 10.5706 4.20296 9.32453 4.20296 7.77358C4.20296 6.22263 5.449 4.97659 6.99995 4.97659ZM0.531905 7.24915C0.462411 7.24816 0.393415 7.261 0.328926 7.28692C0.264437 7.31283 0.205742 7.3513 0.156251 7.4001C0.10676 7.4489 0.0674606 7.50704 0.040637 7.57116C0.0138133 7.63527 0 7.70408 0 7.77358C0 7.84308 0.0138133 7.91189 0.040637 7.97601C0.0674606 8.04012 0.10676 8.09827 0.156251 8.14706C0.205742 8.19586 0.264437 8.23433 0.328926 8.26025C0.393415 8.28616 0.462411 8.299 0.531905 8.29802H1.58078C1.65027 8.299 1.71927 8.28616 1.78376 8.26025C1.84824 8.23433 1.90694 8.19586 1.95643 8.14706C2.00592 8.09827 2.04522 8.04012 2.07204 7.97601C2.09887 7.91189 2.11268 7.84308 2.11268 7.77358C2.11268 7.70408 2.09887 7.63527 2.07204 7.57116C2.04522 7.50704 2.00592 7.4489 1.95643 7.4001C1.90694 7.3513 1.84824 7.31283 1.78376 7.28692C1.71927 7.261 1.65027 7.24816 1.58078 7.24915H0.531905ZM12.4191 7.24915C12.3496 7.24816 12.2806 7.261 12.2161 7.28692C12.1516 7.31283 12.093 7.3513 12.0435 7.4001C11.994 7.4489 11.9547 7.50704 11.9278 7.57116C11.901 7.63527 11.8872 7.70408 11.8872 7.77358C11.8872 7.84308 11.901 7.91189 11.9278 7.97601C11.9547 8.04012 11.994 8.09827 12.0435 8.14706C12.093 8.19586 12.1516 8.23433 12.2161 8.26025C12.2806 8.28616 12.3496 8.299 12.4191 8.29802H13.468C13.5375 8.299 13.6065 8.28616 13.671 8.26025C13.7355 8.23433 13.7942 8.19586 13.8436 8.14706C13.8931 8.09827 13.9324 8.04012 13.9593 7.97601C13.9861 7.91189 13.9999 7.84308 13.9999 7.77358C13.9999 7.70408 13.9861 7.63527 13.9593 7.57116C13.9324 7.50704 13.8931 7.4489 13.8436 7.4001C13.7942 7.3513 13.7355 7.31283 13.671 7.28692C13.6065 7.261 13.5375 7.24816 13.468 7.24915H12.4191ZM3.1575 11.0759C3.0213 11.0799 2.89199 11.1367 2.79695 11.2343L2.05536 11.9759C2.00661 12.0246 1.96793 12.0825 1.94154 12.1462C1.91515 12.2099 1.90156 12.2781 1.90156 12.3471C1.90155 12.416 1.91512 12.4843 1.9415 12.5479C1.96788 12.6116 2.00654 12.6695 2.05528 12.7182C2.10403 12.767 2.1619 12.8057 2.22559 12.832C2.28928 12.8584 2.35754 12.872 2.42647 12.872C2.49541 12.872 2.56367 12.8584 2.62735 12.832C2.69104 12.8056 2.7489 12.7669 2.79763 12.7182L3.53922 11.9766C3.61517 11.9029 3.66706 11.808 3.68807 11.7043C3.70908 11.6005 3.69823 11.4929 3.65694 11.3955C3.61564 11.298 3.54585 11.2154 3.45671 11.1583C3.36757 11.1013 3.26327 11.0726 3.1575 11.0759V11.0759ZM10.826 11.0759C10.7216 11.0759 10.6196 11.1071 10.5331 11.1654C10.4465 11.2237 10.3793 11.3065 10.3401 11.4032C10.3009 11.5 10.2914 11.6062 10.3129 11.7083C10.3344 11.8105 10.3858 11.9039 10.4607 11.9766L11.2023 12.7182C11.251 12.7669 11.3089 12.8056 11.3725 12.8319C11.4362 12.8583 11.5045 12.8719 11.5734 12.8719C11.6423 12.8719 11.7106 12.8583 11.7743 12.8319C11.8379 12.8056 11.8958 12.7669 11.9445 12.7182C11.9933 12.6694 12.0319 12.6116 12.0583 12.5479C12.0847 12.4842 12.0983 12.416 12.0983 12.347C12.0983 12.2781 12.0847 12.2099 12.0583 12.1462C12.0319 12.0825 11.9933 12.0246 11.9445 11.9759L11.2029 11.2343C11.1539 11.184 11.0953 11.1441 11.0306 11.1169C10.9658 11.0896 10.8962 11.0757 10.826 11.0759ZM6.99175 12.6608C6.85278 12.663 6.72036 12.7202 6.62356 12.82C6.52677 12.9197 6.47352 13.0538 6.47551 13.1928V14.2416C6.47453 14.3111 6.48737 14.3801 6.51328 14.4446C6.5392 14.5091 6.57767 14.5678 6.62647 14.6173C6.67526 14.6668 6.73341 14.7061 6.79752 14.7329C6.86164 14.7597 6.93045 14.7735 6.99995 14.7735C7.06945 14.7735 7.13826 14.7597 7.20237 14.7329C7.26649 14.7061 7.32463 14.6668 7.37343 14.6173C7.42223 14.5678 7.4607 14.5091 7.48661 14.4446C7.51253 14.3801 7.52537 14.3111 7.52438 14.2416V13.1928C7.52539 13.1226 7.5123 13.0529 7.48588 12.9878C7.45946 12.9228 7.42025 12.8637 7.37058 12.8141C7.32091 12.7645 7.26179 12.7254 7.19671 12.699C7.13164 12.6727 7.06194 12.6597 6.99175 12.6608V12.6608Z" fill="black"/>
</svg>
