<svg width="14" height="16" viewBox="0 0 14 16" fill="none" xmlns="http://www.w3.org/2000/svg">
<path d="M6.99175 0.836002C6.85278 0.838173 6.72036 0.895415 6.62356 0.995155C6.52677 1.09489 6.47352 1.22898 6.47551 1.36795V2.41682C6.47453 2.48631 6.48737 2.55531 6.51328 2.6198C6.5392 2.68429 6.57767 2.74298 6.62647 2.79247C6.67526 2.84197 6.73341 2.88126 6.79752 2.90809C6.86164 2.93491 6.93045 2.94873 6.99995 2.94873C7.06945 2.94873 7.13826 2.93491 7.20237 2.90809C7.26649 2.88126 7.32463 2.84197 7.37343 2.79247C7.42222 2.74298 7.4607 2.68429 7.48661 2.6198C7.51253 2.55531 7.52537 2.48631 7.52438 2.41682V1.36795C7.52539 1.29776 7.5123 1.22808 7.48588 1.16304C7.45946 1.098 7.42025 1.03893 7.37058 0.989319C7.32091 0.939712 7.26179 0.900581 7.19671 0.874245C7.13164 0.847909 7.06194 0.834905 6.99175 0.836002ZM2.42069 2.73298C2.31632 2.73301 2.21433 2.76417 2.12777 2.82249C2.04121 2.8808 1.97402 2.96362 1.93479 3.06033C1.89556 3.15705 1.88608 3.26327 1.90756 3.36541C1.92904 3.46755 1.9805 3.56095 2.05536 3.63368L2.79695 4.37526C2.89538 4.47369 3.02888 4.52899 3.16808 4.52899C3.30729 4.52899 3.44079 4.47369 3.53922 4.37526C3.63765 4.27683 3.69295 4.14333 3.69295 4.00413C3.69295 3.86492 3.63765 3.73142 3.53922 3.63299L2.79763 2.89141C2.74861 2.84111 2.68999 2.80117 2.62524 2.77395C2.56049 2.74674 2.49093 2.73281 2.42069 2.73298ZM11.5628 2.73298C11.4266 2.73695 11.2973 2.79377 11.2023 2.89141L10.4607 3.63299C10.3622 3.73142 10.3069 3.86492 10.3069 4.00413C10.3069 4.14333 10.3622 4.27683 10.4607 4.37526C10.5591 4.47369 10.6926 4.52899 10.8318 4.52899C10.971 4.52899 11.1045 4.47369 11.2029 4.37526L11.9445 3.63368C12.0205 3.55999 12.0724 3.46506 12.0934 3.36135C12.1144 3.25763 12.1035 3.14999 12.0623 3.05255C12.021 2.95512 11.9512 2.87246 11.862 2.81542C11.7729 2.75839 11.6686 2.72965 11.5628 2.73298ZM6.99995 3.99013C4.88215 3.99013 3.15408 5.71819 3.15408 7.83599C3.15408 9.95379 4.88215 11.6819 6.99995 11.6819C9.11775 11.6819 10.8458 9.95379 10.8458 7.83599C10.8458 5.71819 9.11775 3.99013 6.99995 3.99013ZM6.99995 5.039C8.5509 5.039 9.79694 6.28504 9.79694 7.83599C9.79694 9.38694 8.5509 10.633 6.99995 10.633C5.449 10.633 4.20296 9.38694 4.20296 7.83599C4.20296 6.28504 5.449 5.039 6.99995 5.039ZM0.531905 7.31155C0.462411 7.31057 0.393415 7.32341 0.328926 7.34933C0.264437 7.37524 0.205742 7.41371 0.156251 7.46251C0.10676 7.5113 0.0674606 7.56945 0.040637 7.63357C0.0138133 7.69768 0 7.76649 0 7.83599C0 7.90549 0.0138133 7.9743 0.040637 8.03842C0.0674606 8.10253 0.10676 8.16068 0.156251 8.20947C0.205742 8.25827 0.264437 8.29674 0.328926 8.32266C0.393415 8.34857 0.462411 8.36141 0.531905 8.36043H1.58078C1.65027 8.36141 1.71927 8.34857 1.78376 8.32266C1.84824 8.29674 1.90694 8.25827 1.95643 8.20947C2.00592 8.16068 2.04522 8.10253 2.07204 8.03842C2.09887 7.9743 2.11268 7.90549 2.11268 7.83599C2.11268 7.76649 2.09887 7.69768 2.07204 7.63357C2.04522 7.56945 2.00592 7.5113 1.95643 7.46251C1.90694 7.41371 1.84824 7.37524 1.78376 7.34933C1.71927 7.32341 1.65027 7.31057 1.58078 7.31155H0.531905ZM12.4191 7.31155C12.3496 7.31057 12.2806 7.32341 12.2161 7.34933C12.1516 7.37524 12.093 7.41371 12.0435 7.46251C11.994 7.5113 11.9547 7.56945 11.9278 7.63357C11.901 7.69768 11.8872 7.76649 11.8872 7.83599C11.8872 7.90549 11.901 7.9743 11.9278 8.03842C11.9547 8.10253 11.994 8.16068 12.0435 8.20947C12.093 8.25827 12.1516 8.29674 12.2161 8.32266C12.2806 8.34857 12.3496 8.36141 12.4191 8.36043H13.468C13.5375 8.36141 13.6065 8.34857 13.671 8.32266C13.7355 8.29674 13.7942 8.25827 13.8436 8.20947C13.8931 8.16068 13.9324 8.10253 13.9593 8.03842C13.9861 7.9743 13.9999 7.90549 13.9999 7.83599C13.9999 7.76649 13.9861 7.69768 13.9593 7.63357C13.9324 7.56945 13.8931 7.5113 13.8436 7.46251C13.7942 7.41371 13.7355 7.37524 13.671 7.34933C13.6065 7.32341 13.5375 7.31057 13.468 7.31155H12.4191ZM3.1575 11.1383C3.0213 11.1423 2.89199 11.1991 2.79695 11.2967L2.05536 12.0383C2.00661 12.087 1.96793 12.1449 1.94154 12.2086C1.91515 12.2723 1.90156 12.3405 1.90156 12.4095C1.90155 12.4784 1.91512 12.5467 1.9415 12.6103C1.96788 12.674 2.00654 12.7319 2.05528 12.7807C2.10403 12.8294 2.1619 12.8681 2.22559 12.8944C2.28928 12.9208 2.35754 12.9344 2.42647 12.9344C2.49541 12.9344 2.56367 12.9208 2.62735 12.8944C2.69104 12.868 2.7489 12.8293 2.79763 12.7806L3.53922 12.039C3.61517 11.9653 3.66706 11.8704 3.68807 11.7667C3.70908 11.6629 3.69823 11.5553 3.65694 11.4579C3.61564 11.3604 3.54585 11.2778 3.45671 11.2207C3.36757 11.1637 3.26327 11.135 3.1575 11.1383ZM10.826 11.1383C10.7216 11.1383 10.6196 11.1695 10.5331 11.2278C10.4465 11.2861 10.3793 11.3689 10.3401 11.4656C10.3009 11.5624 10.2914 11.6686 10.3129 11.7707C10.3344 11.8729 10.3858 11.9663 10.4607 12.039L11.2023 12.7806C11.251 12.8293 11.3089 12.868 11.3725 12.8944C11.4362 12.9207 11.5045 12.9343 11.5734 12.9343C11.6423 12.9343 11.7106 12.9207 11.7743 12.8944C11.8379 12.868 11.8958 12.8293 11.9445 12.7806C11.9933 12.7318 12.0319 12.674 12.0583 12.6103C12.0847 12.5466 12.0983 12.4784 12.0983 12.4094C12.0983 12.3405 12.0847 12.2723 12.0583 12.2086C12.0319 12.1449 11.9933 12.087 11.9445 12.0383L11.2029 11.2967C11.1539 11.2464 11.0953 11.2065 11.0306 11.1793C10.9658 11.1521 10.8962 11.1381 10.826 11.1383ZM6.99175 12.7232C6.85278 12.7254 6.72036 12.7826 6.62356 12.8824C6.52677 12.9821 6.47352 13.1162 6.47551 13.2552V14.304C6.47453 14.3735 6.48737 14.4425 6.51328 14.507C6.5392 14.5715 6.57767 14.6302 6.62647 14.6797C6.67526 14.7292 6.73341 14.7685 6.79752 14.7953C6.86164 14.8221 6.93045 14.8359 6.99995 14.8359C7.06945 14.8359 7.13826 14.8221 7.20237 14.7953C7.26649 14.7685 7.32463 14.7292 7.37343 14.6797C7.42222 14.6302 7.4607 14.5715 7.48661 14.507C7.51253 14.4425 7.52537 14.3735 7.52438 14.304V13.2552C7.52539 13.185 7.5123 13.1153 7.48588 13.0503C7.45946 12.9852 7.42025 12.9261 7.37058 12.8765C7.32091 12.8269 7.26179 12.7878 7.19671 12.7615C7.13164 12.7351 7.06194 12.7221 6.99175 12.7232Z" fill="black"/>
</svg>
