<svg width="14" height="16" viewBox="0 0 14 16" fill="none" xmlns="http://www.w3.org/2000/svg">
<path d="M6.94015 0.842343C3.69551 0.689607 1 3.28814 1 6.50254V8.00255V10.3359C1 11.2934 1.75528 12.0661 2.69467 12.1413C2.77108 13.4487 3.84094 14.5026 5.1667 14.5026H5.50459C5.6569 14.7037 5.89571 14.8359 6.16671 14.8359H7.16671C7.62605 14.8359 8.00005 14.4623 8.00005 14.0026C8.00005 13.5429 7.62605 13.1693 7.16671 13.1693H6.16671C5.89571 13.1693 5.6569 13.3015 5.50459 13.5026H5.1667C4.39146 13.5026 3.78538 12.9199 3.69989 12.1693H4.50003C4.63263 12.1692 4.7598 12.1166 4.85357 12.0228C4.94733 11.929 5.00002 11.8019 5.00003 11.6692V8.00255C5.00002 7.86995 4.94733 7.74278 4.85357 7.64901C4.7598 7.55525 4.63263 7.50256 4.50003 7.50255H2.00001V6.50254C2.00001 3.84424 4.20322 1.71445 6.89262 1.84105C9.39746 1.95882 11.3334 4.12253 11.3334 6.64838V7.50255H8.83339C8.70079 7.50256 8.57362 7.55525 8.47985 7.64901C8.38608 7.74278 8.3334 7.86995 8.33339 8.00255V11.6692C8.3334 11.8019 8.38608 11.929 8.47985 12.0228C8.57362 12.1166 8.70079 12.1692 8.83339 12.1693H10.5001C11.5067 12.1693 12.3334 11.3425 12.3334 10.3359V8.00255V6.64838C12.3334 3.61018 9.99336 0.985903 6.94015 0.842343ZM2.00001 8.50256H4.00002V11.1692H2.83335C2.36727 11.1692 2.00001 10.802 2.00001 10.3359V8.50256ZM9.3334 8.50256H11.3334V10.3359C11.3334 10.802 10.9661 11.1692 10.5001 11.1692H9.3334V8.50256Z" fill="black"/>
</svg>
