<svg width="14" height="16" viewBox="0 0 14 16" fill="none" xmlns="http://www.w3.org/2000/svg">
<path d="M6.94015 0.779965C3.69551 0.627229 1 3.22576 1 6.44016V7.94017V10.2735C1 11.2311 1.75528 12.0037 2.69467 12.0789C2.77108 13.3864 3.84094 14.4402 5.1667 14.4402H5.50459C5.6569 14.6413 5.89571 14.7736 6.16671 14.7736H7.16671C7.62605 14.7736 8.00005 14.3999 8.00005 13.9402C8.00005 13.4805 7.62605 13.1069 7.16671 13.1069H6.16671C5.89571 13.1069 5.6569 13.2392 5.50459 13.4402H5.1667C4.39146 13.4402 3.78538 12.8575 3.69989 12.1069H4.50003C4.63263 12.1069 4.7598 12.0542 4.85357 11.9604C4.94733 11.8666 5.00002 11.7395 5.00003 11.6069V7.94017C5.00002 7.80757 4.94733 7.6804 4.85357 7.58663C4.7598 7.49287 4.63263 7.44018 4.50003 7.44017H2.00001V6.44016C2.00001 3.78186 4.20322 1.65207 6.89262 1.77867C9.39746 1.89645 11.3334 4.06015 11.3334 6.586V7.44017H8.83339C8.70079 7.44018 8.57362 7.49287 8.47985 7.58663C8.38608 7.6804 8.3334 7.80757 8.33339 7.94017V11.6069C8.3334 11.7395 8.38608 11.8666 8.47985 11.9604C8.57362 12.0542 8.70079 12.1069 8.83339 12.1069H10.5001C11.5067 12.1069 12.3334 11.2801 12.3334 10.2735V7.94017V6.586C12.3334 3.5478 9.99336 0.923525 6.94015 0.779965ZM2.00001 8.44018H4.00002V11.1069H2.83335C2.36727 11.1069 2.00001 10.7396 2.00001 10.2735V8.44018ZM9.3334 8.44018H11.3334V10.2735C11.3334 10.7396 10.9661 11.1069 10.5001 11.1069H9.3334V8.44018Z" fill="black"/>
</svg>
