<svg width="14" height="15" viewBox="0 0 14 15" fill="none" xmlns="http://www.w3.org/2000/svg">
<g clip-path="url(#clip0_653_4249)">
<path d="M11.7225 0C11.1378 0 10.5533 0.214695 10.11 0.643977L3.1908 7.34442C2.8337 7.69023 2.77065 8.2173 2.99162 8.63299C1.341 9.4644 0.550306 10.6223 0.224711 11.6076C-0.138579 12.707 0.0478023 13.6197 0.0478023 13.6197C0.0714994 13.7342 0.138096 13.8362 0.234779 13.9061C0.331462 13.9759 0.451404 14.0087 0.571529 13.998C0.571529 13.998 1.51595 13.9186 2.48571 13.5771C2.97059 13.4064 3.47198 13.1709 3.87998 12.8118C4.28798 12.4526 4.59971 11.9359 4.59971 11.318C4.59971 10.8069 4.7298 10.5979 4.83261 10.4897C5.27608 10.8917 5.98415 10.8863 6.41652 10.4676L13.3351 3.76773C14.2216 2.90917 14.2216 1.50254 13.3351 0.643977C12.8918 0.214695 12.3072 0 11.7225 0ZM11.7225 0.941008C12.055 0.941008 12.3874 1.06477 12.644 1.31322C13.1571 1.81012 13.1571 2.60158 12.644 3.09849L5.72543 9.79832C5.6577 9.86391 5.5628 9.86391 5.49507 9.79832L5.37989 9.68678C5.33236 9.59371 5.25454 9.51835 5.15843 9.47232L4.22107 8.56459C4.17631 8.48559 4.1092 8.42059 4.02762 8.37725L3.88189 8.23613C3.81415 8.17054 3.81415 8.07926 3.88189 8.01367L10.8011 1.31322C11.0576 1.06477 11.39 0.941008 11.7225 0.941008ZM8.68515 4.21389C8.58795 4.21053 8.49191 4.23533 8.40934 4.28512C8.32677 4.33491 8.26142 4.40742 8.22164 4.49338C8.18187 4.57935 8.16949 4.67485 8.18609 4.76766C8.20268 4.86048 8.24749 4.94639 8.31479 5.0144L8.60052 5.31204C8.64361 5.35977 8.69616 5.39863 8.75505 5.42631C8.81394 5.454 8.87798 5.46995 8.94335 5.47321C9.00873 5.47647 9.07412 5.46698 9.13564 5.4453C9.19716 5.42362 9.25355 5.39019 9.30147 5.34701C9.3494 5.30382 9.38787 5.25175 9.41462 5.19388C9.44137 5.13602 9.45584 5.07354 9.45717 5.01016C9.45851 4.94678 9.44668 4.88378 9.42239 4.82491C9.39811 4.76604 9.36185 4.71249 9.31579 4.66745L9.03006 4.3698C8.98626 4.3228 8.93317 4.28478 8.87393 4.258C8.81468 4.23122 8.75049 4.21622 8.68515 4.21389ZM7.03825 5.79148C6.94098 5.79151 6.84594 5.81963 6.76527 5.87226C6.68461 5.92488 6.62199 5.99962 6.58543 6.0869C6.54887 6.17418 6.54004 6.27004 6.56005 6.36222C6.58007 6.45439 6.62803 6.53868 6.69779 6.60431L7.02361 6.91983C7.06865 6.96525 7.12259 7.00151 7.18227 7.02649C7.24196 7.05148 7.30619 7.06467 7.37121 7.06531C7.43623 7.06595 7.50073 7.05402 7.56093 7.03022C7.62113 7.00642 7.67582 6.97123 7.7218 6.9267C7.76778 6.88218 7.80412 6.82922 7.8287 6.77092C7.85328 6.71263 7.86559 6.65017 7.86493 6.5872C7.86427 6.52424 7.85065 6.46203 7.82485 6.40423C7.79905 6.34643 7.76161 6.2942 7.7147 6.25059L7.38888 5.93507C7.34333 5.88964 7.28882 5.85352 7.2286 5.82886C7.16837 5.80419 7.10364 5.79149 7.03825 5.79148ZM5.57207 7.21131C5.4748 7.21134 5.37976 7.23946 5.29909 7.29209C5.21843 7.34471 5.15581 7.41945 5.11925 7.50673C5.08269 7.59401 5.07386 7.68987 5.09387 7.78205C5.11389 7.87422 5.16185 7.95851 5.23161 8.02414L5.55743 8.33966C5.60247 8.38508 5.65641 8.42135 5.71609 8.44633C5.77578 8.47131 5.84001 8.4845 5.90503 8.48514C5.97005 8.48578 6.03455 8.47385 6.09475 8.45005C6.15495 8.42625 6.20964 8.39106 6.25562 8.34653C6.3016 8.30201 6.33794 8.24905 6.36252 8.19075C6.3871 8.13246 6.39942 8.07 6.39875 8.00703C6.39809 7.94407 6.38447 7.88186 6.35867 7.82406C6.33287 7.76626 6.29543 7.71403 6.24852 7.67042L5.9227 7.3549C5.87715 7.30947 5.82264 7.27335 5.76241 7.24869C5.70219 7.22403 5.63746 7.21132 5.57207 7.21131ZM3.66362 9.36386L4.13834 9.82297C3.85397 10.1143 3.62225 10.6047 3.62225 11.318C3.62225 11.6466 3.48598 11.8793 3.22198 12.1117C2.95798 12.3441 2.56338 12.5425 2.15225 12.6873C1.7138 12.8417 1.29406 12.9305 0.97371 12.9849C0.975434 12.71 1.01187 12.3294 1.15507 11.896C1.4266 11.0743 2.05547 10.095 3.66362 9.36386Z" fill="black"/>
</g>
<defs>
<clipPath id="clip0_653_4249">
<rect width="14" height="14" fill="white" transform="translate(0 0.173553)"/>
</clipPath>
</defs>
</svg>
