<svg width="14" height="15" viewBox="0 0 14 15" fill="none" xmlns="http://www.w3.org/2000/svg">
<path d="M2.27406 1.63189C1.0244 1.63189 0 2.65629 0 3.90595V10.5532C0 11.8029 1.0244 12.8273 2.27406 12.8273H8.07264H8.07332C8.75351 12.8268 9.40718 12.5619 9.8964 12.0893H9.89708L13.3635 8.73833C14.2122 7.91797 14.2122 6.53981 13.3635 5.71946L9.89708 2.36918C9.40784 1.89612 8.7535 1.63189 8.07332 1.63189H2.27406ZM2.27406 2.68146H8.07332C8.48189 2.68146 8.87357 2.83954 9.1673 3.12356L12.6337 6.47452C13.0656 6.89195 13.0656 7.56652 12.6337 7.98395L9.1673 11.3349V11.3342C8.87354 11.618 8.4812 11.7774 8.07264 11.7777H2.27406C1.59182 11.7777 1.04957 11.2354 1.04957 10.5532V3.90595C1.04957 3.22371 1.59182 2.68146 2.27406 2.68146ZM10.1506 6.52918C9.96501 6.52918 9.78704 6.6029 9.65582 6.73412C9.5246 6.86534 9.45088 7.04332 9.45088 7.22889C9.45088 7.41447 9.5246 7.59244 9.65582 7.72366C9.78704 7.85488 9.96501 7.9286 10.1506 7.9286C10.3362 7.9286 10.5141 7.85488 10.6454 7.72366C10.7766 7.59244 10.8503 7.41447 10.8503 7.22889C10.8503 7.04332 10.7766 6.86534 10.6454 6.73412C10.5141 6.6029 10.3362 6.52918 10.1506 6.52918Z" fill="black"/>
</svg>
