<svg width="14" height="15" viewBox="0 0 14 15" fill="none" xmlns="http://www.w3.org/2000/svg">
<g clip-path="url(#clip0_1830_10115)">
<path d="M6.62517 0.173553C5.92142 0.173553 5.32232 0.449586 4.93764 0.86995C4.55296 1.29031 4.37318 1.82934 4.37318 2.36101C4.37318 2.89268 4.55296 3.4317 4.93764 3.85207C4.96146 3.87809 4.98845 3.90195 5.01388 3.92683C4.5327 5.01708 4.48044 6.19864 4.868 7.22653L4.81596 7.17597C4.91905 7.88422 4.70643 8.72138 4.25003 9.27228C4.24948 9.27294 4.24911 9.27376 4.24856 9.27442L2.88066 10.6024C2.6537 10.5192 2.38827 10.5652 2.2055 10.7427L0.186633 12.7037C-0.0622111 12.9454 -0.0622111 13.3371 0.186633 13.5788L0.612545 13.9925C0.86139 14.2339 1.26464 14.2339 1.51349 13.9925L3.53235 12.0315C3.71512 11.854 3.76247 11.5962 3.67677 11.3757L5.04394 10.0477C5.68661 9.55275 6.53378 9.38048 7.19623 9.49587C8.85016 10.0403 10.8854 9.53038 12.3431 8.11447C14.2812 6.23189 14.5977 3.34406 12.8738 1.6696C12.2251 1.03949 11.3936 0.691216 10.509 0.601503C9.79237 0.528834 9.04148 0.628341 8.32368 0.882767C8.31989 0.878553 8.31652 0.874141 8.31269 0.86995C7.92801 0.449586 7.32891 0.173553 6.62517 0.173553ZM6.62517 1.26728C7.04741 1.26728 7.29281 1.4014 7.47113 1.59625C7.64944 1.79111 7.75116 2.07239 7.75116 2.36101C7.75116 2.64963 7.64944 2.93091 7.47113 3.12576C7.29281 3.32062 7.04741 3.45474 6.62517 3.45474C6.20292 3.45474 5.95752 3.32062 5.77921 3.12576C5.60089 2.93091 5.49917 2.64963 5.49917 2.36101C5.49917 2.07239 5.60089 1.79111 5.77921 1.59625C5.95752 1.4014 6.20292 1.26728 6.62517 1.26728ZM9.86972 1.67173C10.7186 1.63153 11.509 1.89116 12.077 2.4429C13.2845 3.61577 13.1265 5.80694 11.547 7.34117C9.96749 8.8754 7.71168 9.02958 6.50421 7.8567C5.65598 7.03278 5.48005 5.72433 6.00059 4.46871C6.19682 4.51866 6.40512 4.54846 6.62517 4.54846C7.32891 4.54846 7.92801 4.27243 8.31269 3.85207C8.69737 3.4317 8.87715 2.89268 8.87715 2.36101C8.87715 2.19624 8.85305 2.03211 8.81777 1.86969C9.17052 1.7539 9.52519 1.68805 9.86972 1.67173Z" fill="black"/>
</g>
<defs>
<clipPath id="clip0_1830_10115">
<rect width="14" height="14" fill="white" transform="translate(0 0.173553)"/>
</clipPath>
</defs>
</svg>
