<svg width="14" height="15" viewBox="0 0 14 15" fill="none" xmlns="http://www.w3.org/2000/svg">
<g clip-path="url(#clip0_691_8384)">
<path d="M5.70628 0.173553C3.36672 0.173553 1.45831 2.08196 1.45831 4.42152V6.8442C1.45831 7.9671 2.00387 8.9591 2.77498 9.6882C3.18228 10.0732 4.03985 11.1702 4.74385 12.1296C5.44786 13.0891 6.03022 13.934 6.03022 13.934C6.09023 14.021 6.17387 14.0891 6.27127 14.1301C6.36868 14.1711 6.47579 14.1834 6.57997 14.1656C6.57997 14.1656 6.97075 14.1008 7.34689 13.828C7.72303 13.5551 8.11092 13.0097 8.11092 12.2501C8.11092 11.9349 8.0463 11.6383 7.96951 11.2603H7.96879C7.83756 10.615 7.64952 10.0416 7.39378 9.40827H10.5228C11.7467 9.40827 12.7047 8.30758 12.5349 7.09526L12.4079 6.19199L12.0977 3.97566L11.9058 2.60055C11.9057 2.59978 11.9052 2.5992 11.9051 2.59839C11.731 1.21752 10.5483 0.173553 9.15632 0.173553H5.70628ZM5.70628 1.28172H9.15632C9.99906 1.28172 10.7008 1.90113 10.8056 2.73763C10.806 2.74052 10.8065 2.74341 10.807 2.74629L11.0004 4.12861L11.3106 6.34494L11.4369 7.24894C11.516 7.81412 11.0934 8.30011 10.5228 8.30011H7.13767C6.80649 8.30011 6.4926 8.4984 6.3455 8.76112C6.1984 9.02385 6.18647 9.34133 6.30654 9.62255V9.62327C6.59251 10.2909 6.74693 10.8121 6.88299 11.481C6.95912 11.8558 7.00275 12.1117 7.00275 12.2501C7.00275 12.6762 6.85524 12.815 6.69613 12.9305C6.68816 12.9362 6.68886 12.9323 6.68098 12.9377C6.50666 12.6868 6.2087 12.2529 5.63702 11.4738C4.92193 10.4993 4.11398 9.42927 3.53612 8.88305C2.93754 8.31708 2.56648 7.60813 2.56648 6.8442V4.42152C2.56648 2.68082 3.96558 1.28172 5.70628 1.28172Z" fill="black"/>
</g>
<defs>
<clipPath id="clip0_691_8384">
<rect width="14" height="14" fill="white" transform="translate(0 0.173553)"/>
</clipPath>
</defs>
</svg>
