<svg width="14" height="15" viewBox="0 0 14 15" fill="none" xmlns="http://www.w3.org/2000/svg">
<g clip-path="url(#clip0_691_8381)">
<path d="M6.46974 0.173887C6.38291 0.176469 6.2979 0.199428 6.22158 0.240911C6.14525 0.282394 6.07975 0.341239 6.03035 0.412698C6.03035 0.412698 5.44798 1.25764 4.74395 2.21713C4.03992 3.17662 3.18233 4.27361 2.77502 4.65863C2.00388 5.38776 1.45831 6.37978 1.45831 7.50272V9.92546C1.45831 12.2651 3.36678 14.1736 5.70641 14.1736H9.15654C10.5486 14.1736 11.7313 13.1296 11.9054 11.7486L12.098 10.3713L12.4083 8.15494L12.5352 7.25164C12.7051 6.03929 11.747 4.93856 10.523 4.93856H7.39396C7.6497 4.30522 7.83773 3.73182 7.96898 3.08652C7.96922 3.08652 7.96946 3.08652 7.9697 3.08652C8.0465 2.70848 8.11111 2.41189 8.11111 2.09664C8.11111 1.33701 7.72321 0.791586 7.34706 0.518756C6.9709 0.245926 6.58012 0.181102 6.58012 0.181102C6.54366 0.175021 6.50668 0.172604 6.46974 0.173887ZM6.68113 1.40907C6.68901 1.41441 6.68831 1.4105 6.69628 1.41628C6.8554 1.53169 7.00291 1.6705 7.00291 2.09664C7.00291 2.23501 6.95928 2.49094 6.88315 2.86574C6.74709 3.53468 6.59266 4.05593 6.30668 4.72356C6.30668 4.7238 6.30668 4.72404 6.30668 4.72428C6.18661 5.00551 6.19854 5.323 6.34564 5.58574C6.49274 5.84845 6.80665 6.04676 7.13783 6.04676H10.523C11.0936 6.04676 11.5163 6.53277 11.4372 7.09796L11.3109 8.00198L11.0007 10.2184L10.8073 11.6007C10.8068 11.6036 10.8063 11.6065 10.8059 11.6094C10.7011 12.4459 9.99931 13.0654 9.15654 13.0654H5.70641C3.96565 13.0654 2.56651 11.6662 2.56651 9.92546V7.50272C2.56651 6.73876 2.93759 6.02979 3.53619 5.4638C4.11406 4.91756 4.92203 3.84755 5.63715 2.87296C6.20884 2.09382 6.5068 1.65994 6.68113 1.40907Z" fill="black"/>
</g>
<defs>
<clipPath id="clip0_691_8381">
<rect width="14" height="14" fill="white" transform="translate(0 0.173553)"/>
</clipPath>
</defs>
</svg>
