<svg width="14" height="15" viewBox="0 0 14 15" fill="none" xmlns="http://www.w3.org/2000/svg">
<g clip-path="url(#clip0_691_8384)">
<path d="M5.70631 0.23584C3.36675 0.23584 1.45834 2.14425 1.45834 4.48381V6.90648C1.45834 8.02939 2.0039 9.02138 2.77501 9.75049C3.18231 10.1355 4.03988 11.2325 4.74388 12.1919C5.44789 13.1514 6.03025 13.9963 6.03025 13.9963C6.09026 14.0833 6.1739 14.1513 6.27131 14.1924C6.36871 14.2334 6.47582 14.2457 6.58001 14.2279C6.58001 14.2279 6.97078 14.1631 7.34692 13.8902C7.72306 13.6174 8.11095 13.072 8.11095 12.3124C8.11095 11.9972 8.04633 11.7006 7.96954 11.3226H7.96882C7.83759 10.6773 7.64955 10.1039 7.39382 9.47056H10.5228C11.7467 9.47056 12.7048 8.36987 12.535 7.15755L12.408 6.25428L12.0977 4.03795L11.9058 2.66284C11.9057 2.66206 11.9052 2.66149 11.9051 2.66068C11.7311 1.2798 10.5484 0.23584 9.15635 0.23584H5.70631ZM5.70631 1.34401H9.15635C9.99909 1.34401 10.7009 1.96342 10.8056 2.79992C10.8061 2.80281 10.8066 2.80569 10.8071 2.80858L11.0004 4.1909L11.3106 6.40723L11.4369 7.31122C11.5161 7.8764 11.0934 8.36239 10.5228 8.36239H7.1377C6.80652 8.36239 6.49263 8.56068 6.34553 8.82341C6.19843 9.08613 6.1865 9.40361 6.30657 9.68483V9.68556C6.59254 10.3532 6.74696 10.8744 6.88302 11.5433C6.95915 11.9181 7.00278 12.174 7.00278 12.3124C7.00278 12.7385 6.85527 12.8773 6.69616 12.9927C6.68819 12.9985 6.68889 12.9946 6.68101 13C6.50669 12.7491 6.20873 12.3152 5.63705 11.5361C4.92196 10.5615 4.11402 9.49156 3.53616 8.94533C2.93757 8.37936 2.56651 7.67041 2.56651 6.90648V4.48381C2.56651 2.74311 3.96561 1.34401 5.70631 1.34401Z" fill="black"/>
</g>
<defs>
<clipPath id="clip0_691_8384">
<rect width="14" height="14" fill="white" transform="translate(0 0.23584)"/>
</clipPath>
</defs>
</svg>
