<svg width="14" height="15" viewBox="0 0 14 15" fill="none" xmlns="http://www.w3.org/2000/svg">
<g clip-path="url(#clip0_691_8381)">
<path d="M6.46977 0.236174C6.38294 0.238755 6.29793 0.261714 6.22161 0.303197C6.14528 0.34468 6.07978 0.403526 6.03038 0.474985C6.03038 0.474985 5.44801 1.31993 4.74398 2.27941C4.03995 3.2389 3.18236 4.3359 2.77505 4.72092C2.00392 5.45004 1.45834 6.44206 1.45834 7.565V9.98774C1.45834 12.3274 3.36681 14.2358 5.70644 14.2358H9.15657C10.5486 14.2358 11.7313 13.1919 11.9054 11.8109L12.0981 10.4336L12.4083 8.21722L12.5353 7.31393C12.7051 6.10158 11.747 5.00085 10.5231 5.00085H7.39399C7.64973 4.36751 7.83776 3.7941 7.96901 3.1488C7.96925 3.1488 7.96949 3.1488 7.96973 3.1488C8.04653 2.77077 8.11114 2.47418 8.11114 2.15893C8.11114 1.39929 7.72324 0.853873 7.34709 0.581043C6.97093 0.308213 6.58016 0.243388 6.58016 0.243388C6.54369 0.237308 6.50671 0.234891 6.46977 0.236174ZM6.68116 1.47135C6.68904 1.4767 6.68834 1.47279 6.69631 1.47857C6.85543 1.59398 7.00294 1.73279 7.00294 2.15893C7.00294 2.2973 6.95931 2.55323 6.88318 2.92803C6.74712 3.59696 6.59269 4.11821 6.30671 4.78585C6.30671 4.78609 6.30671 4.78633 6.30671 4.78657C6.18664 5.0678 6.19857 5.38529 6.34567 5.64802C6.49277 5.91074 6.80668 6.10905 7.13786 6.10905H10.5231C11.0937 6.10905 11.5163 6.59505 11.4372 7.16025L11.3109 8.06427L11.0007 10.2807L10.8073 11.663C10.8068 11.6659 10.8063 11.6688 10.8059 11.6717C10.7011 12.5082 9.99934 13.1276 9.15657 13.1276H5.70644C3.96568 13.1276 2.56654 11.7285 2.56654 9.98774V7.565C2.56654 6.80105 2.93762 6.09208 3.53622 5.52609C4.11409 4.97985 4.92206 3.90984 5.63718 2.93524C6.20887 2.1561 6.50683 1.72223 6.68116 1.47135Z" fill="black"/>
</g>
<defs>
<clipPath id="clip0_691_8381">
<rect width="14" height="14" fill="white" transform="translate(0 0.23584)"/>
</clipPath>
</defs>
</svg>
