<svg width="14" height="16" viewBox="0 0 14 16" fill="none" xmlns="http://www.w3.org/2000/svg">
<path d="M1.65139 0.772562C1.50595 0.774281 1.36706 0.83326 1.26482 0.936709C1.16258 1.04016 1.10525 1.17974 1.10524 1.32518V12.5618C0.49478 12.5618 0 13.0566 0 13.6671C0 14.2775 0.49478 14.7723 1.10524 14.7723H1.65786H2.21049H11.7893H12.3419H12.8945C13.505 14.7723 13.9997 14.2775 13.9997 13.6671C13.9997 13.0566 13.505 12.5618 12.8945 12.5618V1.32518C12.8945 1.22517 12.8673 1.12703 12.8159 1.04124C12.7645 0.955448 12.6908 0.885212 12.6026 0.83802C12.5144 0.790828 12.4151 0.768448 12.3152 0.773268C12.2153 0.778087 12.1186 0.809924 12.0353 0.865386L10.6682 1.77635L9.12617 0.850994C9.0403 0.799505 8.94206 0.772308 8.84194 0.772308C8.74182 0.772308 8.64358 0.799505 8.55772 0.850994L6.99987 1.7857L5.44203 0.850994C5.35616 0.799505 5.25792 0.772308 5.1578 0.772308C5.05768 0.772308 4.95944 0.799505 4.87357 0.850994L3.33156 1.77635L1.9644 0.865386C1.87179 0.80363 1.76269 0.771277 1.65139 0.772562ZM5.1578 1.96991L6.71565 2.9039C6.80151 2.95539 6.89975 2.98258 6.99987 2.98258C7.09999 2.98258 7.19823 2.95539 7.2841 2.9039L8.84194 1.96991L10.3998 2.90462C10.4895 2.95837 10.5927 2.98555 10.6973 2.98301C10.8018 2.98046 10.9035 2.94829 10.9905 2.89023L11.7893 2.35775V12.5618V13.6671H2.21049V12.5618V2.35775L3.0092 2.89023C3.09621 2.94829 3.19792 2.98046 3.30249 2.98301C3.40707 2.98555 3.51022 2.95837 3.59996 2.90462L5.1578 1.96991ZM3.86835 4.82512C3.79512 4.82408 3.72242 4.83761 3.65446 4.86492C3.58651 4.89223 3.52466 4.93277 3.47251 4.98419C3.42036 5.03561 3.37894 5.09688 3.35068 5.16444C3.32241 5.232 3.30786 5.30451 3.30786 5.37774C3.30786 5.45098 3.32241 5.52348 3.35068 5.59105C3.37894 5.65861 3.42036 5.71988 3.47251 5.7713C3.52466 5.82272 3.58651 5.86326 3.65446 5.89056C3.72242 5.91787 3.79512 5.9314 3.86835 5.93036H10.1314C10.2046 5.9314 10.2773 5.91787 10.3453 5.89056C10.4132 5.86326 10.4751 5.82272 10.5272 5.7713C10.5794 5.71988 10.6208 5.65861 10.6491 5.59105C10.6773 5.52348 10.6919 5.45098 10.6919 5.37774C10.6919 5.30451 10.6773 5.232 10.6491 5.16444C10.6208 5.09688 10.5794 5.03561 10.5272 4.98419C10.4751 4.93277 10.4132 4.89223 10.3453 4.86492C10.2773 4.83761 10.2046 4.82408 10.1314 4.82512H3.86835ZM3.86835 7.77244C3.79512 7.7714 3.72242 7.78493 3.65446 7.81224C3.58651 7.83954 3.52466 7.88008 3.47251 7.9315C3.42036 7.98292 3.37894 8.04419 3.35068 8.11175C3.32241 8.17932 3.30786 8.25182 3.30786 8.32506C3.30786 8.39829 3.32241 8.4708 3.35068 8.53836C3.37894 8.60592 3.42036 8.66719 3.47251 8.71861C3.52466 8.77003 3.58651 8.81057 3.65446 8.83788C3.72242 8.86519 3.79512 8.87871 3.86835 8.87768H7.18408C7.25731 8.87871 7.33001 8.86519 7.39797 8.83788C7.46592 8.81057 7.52777 8.77003 7.57992 8.71861C7.63207 8.66719 7.67349 8.60592 7.70175 8.53836C7.73002 8.4708 7.74457 8.39829 7.74457 8.32506C7.74457 8.25182 7.73002 8.17932 7.70175 8.11175C7.67349 8.04419 7.63207 7.98292 7.57992 7.9315C7.52777 7.88008 7.46592 7.83954 7.39797 7.81224C7.33001 7.78493 7.25731 7.7714 7.18408 7.77244H3.86835ZM9.39457 7.77244C9.32134 7.7714 9.24863 7.78493 9.18068 7.81224C9.11272 7.83954 9.05087 7.88008 8.99872 7.9315C8.94657 7.98292 8.90516 8.04419 8.87689 8.11175C8.84863 8.17932 8.83407 8.25182 8.83407 8.32506C8.83407 8.39829 8.84863 8.4708 8.87689 8.53836C8.90516 8.60592 8.94657 8.66719 8.99872 8.71861C9.05087 8.77003 9.11272 8.81057 9.18068 8.83788C9.24863 8.86519 9.32134 8.87871 9.39457 8.87768H10.1314C10.2046 8.87871 10.2773 8.86519 10.3453 8.83788C10.4132 8.81057 10.4751 8.77003 10.5272 8.71861C10.5794 8.66719 10.6208 8.60592 10.6491 8.53836C10.6773 8.4708 10.6919 8.39829 10.6919 8.32506C10.6919 8.25182 10.6773 8.17932 10.6491 8.11175C10.6208 8.04419 10.5794 7.98292 10.5272 7.9315C10.4751 7.88008 10.4132 7.83954 10.3453 7.81224C10.2773 7.78493 10.2046 7.7714 10.1314 7.77244H9.39457ZM3.86835 9.98292C3.79512 9.98189 3.72242 9.99542 3.65446 10.0227C3.58651 10.05 3.52466 10.0906 3.47251 10.142C3.42036 10.1934 3.37894 10.2547 3.35068 10.3222C3.32241 10.3898 3.30786 10.4623 3.30786 10.5355C3.30786 10.6088 3.32241 10.6813 3.35068 10.7488C3.37894 10.8164 3.42036 10.8777 3.47251 10.9291C3.52466 10.9805 3.58651 11.0211 3.65446 11.0484C3.72242 11.0757 3.79512 11.0892 3.86835 11.0882H6.44725C6.52048 11.0892 6.59318 11.0757 6.66114 11.0484C6.72909 11.0211 6.79094 10.9805 6.84309 10.9291C6.89525 10.8777 6.93666 10.8164 6.96492 10.7488C6.99319 10.6813 7.00774 10.6088 7.00774 10.5355C7.00774 10.4623 6.99319 10.3898 6.96492 10.3222C6.93666 10.2547 6.89525 10.1934 6.84309 10.142C6.79094 10.0906 6.72909 10.05 6.66114 10.0227C6.59318 9.99542 6.52048 9.98189 6.44725 9.98292H3.86835ZM9.39457 9.98292C9.32134 9.98189 9.24863 9.99542 9.18068 10.0227C9.11272 10.05 9.05087 10.0906 8.99872 10.142C8.94657 10.1934 8.90516 10.2547 8.87689 10.3222C8.84863 10.3898 8.83407 10.4623 8.83407 10.5355C8.83407 10.6088 8.84863 10.6813 8.87689 10.7488C8.90516 10.8164 8.94657 10.8777 8.99872 10.9291C9.05087 10.9805 9.11272 11.0211 9.18068 11.0484C9.24863 11.0757 9.32134 11.0892 9.39457 11.0882H10.1314C10.2046 11.0892 10.2773 11.0757 10.3453 11.0484C10.4132 11.0211 10.4751 10.9805 10.5272 10.9291C10.5794 10.8777 10.6208 10.8164 10.6491 10.7488C10.6773 10.6813 10.6919 10.6088 10.6919 10.5355C10.6919 10.4623 10.6773 10.3898 10.6491 10.3222C10.6208 10.2547 10.5794 10.1934 10.5272 10.142C10.4751 10.0906 10.4132 10.05 10.3453 10.0227C10.2773 9.99542 10.2046 9.98189 10.1314 9.98292H9.39457Z" fill="black"/>
</svg>
