<svg width="14" height="15" viewBox="0 0 14 15" fill="none" xmlns="http://www.w3.org/2000/svg">
<g clip-path="url(#clip0_1683_9913)">
<path d="M11.7559 0.989346C11.6798 0.992033 11.603 1.00211 11.5273 1.01994L1.58789 3.35849H5.95443L11.7565 1.99325C11.8148 1.97859 11.8598 2.0001 11.8822 2.01343C11.9038 2.0271 11.9427 2.05828 11.9564 2.11695L12.2539 3.35849H13.276L12.9303 1.88843C12.859 1.5851 12.6739 1.32717 12.4089 1.16317C12.2099 1.04017 11.9841 0.981283 11.7559 0.989346ZM1.16667 4.02515C0.528348 4.02515 0 4.5535 0 5.19182V6.86825C1.74202e-05 6.93913 0.0151008 7.00919 0.0442501 7.07379C0.0733994 7.13839 0.115949 7.19606 0.169077 7.24297C0.222205 7.28988 0.284698 7.32496 0.352413 7.34589C0.420128 7.36681 0.491518 7.3731 0.561849 7.36435C0.592284 7.36054 0.629608 7.35849 0.666667 7.35849C1.41026 7.35849 2 7.94822 2 8.69182C2 9.43542 1.41026 10.0252 0.666667 10.0252C0.629608 10.0252 0.592284 10.0231 0.561849 10.0193C0.491518 10.0105 0.420128 10.0168 0.352413 10.0378C0.284698 10.0587 0.222205 10.0938 0.169077 10.1407C0.115949 10.1876 0.0733994 10.2452 0.0442501 10.3098C0.0151008 10.3745 1.74202e-05 10.4445 0 10.5154V12.1918C0 12.8301 0.528348 13.3585 1.16667 13.3585H12.8333C13.4717 13.3585 14 12.8301 14 12.1918V10.5154C14 10.4445 13.9849 10.3745 13.9557 10.3098C13.9266 10.2452 13.8841 10.1876 13.8309 10.1407C13.7778 10.0938 13.7153 10.0587 13.6476 10.0378C13.5799 10.0168 13.5085 10.0105 13.4382 10.0193C13.4077 10.0231 13.3704 10.0252 13.3333 10.0252C12.5897 10.0252 12 9.43542 12 8.69182C12 7.94822 12.5897 7.35849 13.3333 7.35849C13.3704 7.35849 13.4077 7.36055 13.4382 7.36435C13.5085 7.3731 13.5799 7.36681 13.6476 7.34589C13.7153 7.32496 13.7778 7.28988 13.8309 7.24297C13.8841 7.19606 13.9266 7.13839 13.9557 7.07379C13.9849 7.00919 14 6.93913 14 6.86825V5.19182C14 4.5535 13.4717 4.02515 12.8333 4.02515H1.16667ZM1.16667 5.02515H12.8333C12.9317 5.02515 13 5.09347 13 5.19182V6.42619C11.8802 6.5954 11 7.52681 11 8.69182C11 9.85683 11.8802 10.7882 13 10.9574V12.1918C13 12.2902 12.9317 12.3585 12.8333 12.3585H1.16667C1.06832 12.3585 1 12.2902 1 12.1918V10.9574C2.11982 10.7882 3 9.85683 3 8.69182C3 7.52681 2.11982 6.5954 1 6.42619V5.19182C1 5.09347 1.06832 5.02515 1.16667 5.02515Z" fill="black"/>
</g>
<defs>
<clipPath id="clip0_1683_9913">
<rect width="14" height="14" fill="white" transform="translate(0 0.173553)"/>
</clipPath>
</defs>
</svg>
