<svg width="14" height="16" viewBox="0 0 14 16" fill="none" xmlns="http://www.w3.org/2000/svg">
<path d="M1.65139 0.834727C1.50595 0.836445 1.36706 0.895424 1.26482 0.998874C1.16258 1.10232 1.10525 1.2419 1.10524 1.38735V12.624C0.49478 12.624 0 13.1188 0 13.7292C0 14.3397 0.49478 14.8345 1.10524 14.8345H1.65786H2.21049H11.7893H12.3419H12.8945C13.505 14.8345 13.9997 14.3397 13.9997 13.7292C13.9997 13.1188 13.505 12.624 12.8945 12.624V1.38735C12.8945 1.28733 12.8673 1.1892 12.8159 1.10341C12.7645 1.01761 12.6908 0.947376 12.6026 0.900184C12.5144 0.852992 12.4151 0.830613 12.3152 0.835432C12.2153 0.840251 12.1186 0.872088 12.0353 0.92755L10.6682 1.83851L9.12617 0.913159C9.0403 0.86167 8.94206 0.834473 8.84194 0.834473C8.74182 0.834473 8.64358 0.86167 8.55772 0.913159L6.99987 1.84787L5.44203 0.913159C5.35616 0.86167 5.25792 0.834473 5.1578 0.834473C5.05768 0.834473 4.95944 0.86167 4.87357 0.913159L3.33156 1.83851L1.9644 0.92755C1.87179 0.865794 1.76269 0.833442 1.65139 0.834727ZM5.1578 2.03207L6.71565 2.96606C6.80151 3.01755 6.89975 3.04475 6.99987 3.04475C7.09999 3.04475 7.19823 3.01755 7.2841 2.96606L8.84194 2.03207L10.3998 2.96678C10.4895 3.02053 10.5927 3.04772 10.6973 3.04517C10.8018 3.04262 10.9035 3.01045 10.9905 2.95239L11.7893 2.41992V12.624V13.7292H2.21049V12.624V2.41992L3.0092 2.95239C3.09621 3.01045 3.19792 3.04262 3.30249 3.04517C3.40707 3.04772 3.51022 3.02053 3.59996 2.96678L5.1578 2.03207ZM3.86835 4.88728C3.79512 4.88625 3.72242 4.89978 3.65446 4.92709C3.58651 4.95439 3.52466 4.99493 3.47251 5.04635C3.42036 5.09777 3.37894 5.15904 3.35068 5.2266C3.32241 5.29416 3.30786 5.36667 3.30786 5.43991C3.30786 5.51314 3.32241 5.58565 3.35068 5.65321C3.37894 5.72077 3.42036 5.78204 3.47251 5.83346C3.52466 5.88488 3.58651 5.92542 3.65446 5.95273C3.72242 5.98003 3.79512 5.99356 3.86835 5.99253H10.1314C10.2046 5.99356 10.2773 5.98003 10.3453 5.95273C10.4132 5.92542 10.4751 5.88488 10.5272 5.83346C10.5794 5.78204 10.6208 5.72077 10.6491 5.65321C10.6773 5.58565 10.6919 5.51314 10.6919 5.43991C10.6919 5.36667 10.6773 5.29416 10.6491 5.2266C10.6208 5.15904 10.5794 5.09777 10.5272 5.04635C10.4751 4.99493 10.4132 4.95439 10.3453 4.92709C10.2773 4.89978 10.2046 4.88625 10.1314 4.88728H3.86835ZM3.86835 7.8346C3.79512 7.83356 3.72242 7.84709 3.65446 7.8744C3.58651 7.90171 3.52466 7.94225 3.47251 7.99367C3.42036 8.04508 3.37894 8.10636 3.35068 8.17392C3.32241 8.24148 3.30786 8.31399 3.30786 8.38722C3.30786 8.46046 3.32241 8.53296 3.35068 8.60053C3.37894 8.66809 3.42036 8.72936 3.47251 8.78078C3.52466 8.83219 3.58651 8.87274 3.65446 8.90004C3.72242 8.92735 3.79512 8.94088 3.86835 8.93984H7.18408C7.25731 8.94088 7.33001 8.92735 7.39797 8.90004C7.46592 8.87274 7.52777 8.83219 7.57992 8.78078C7.63207 8.72936 7.67349 8.66809 7.70175 8.60053C7.73002 8.53296 7.74457 8.46046 7.74457 8.38722C7.74457 8.31399 7.73002 8.24148 7.70175 8.17392C7.67349 8.10636 7.63207 8.04508 7.57992 7.99367C7.52777 7.94225 7.46592 7.90171 7.39797 7.8744C7.33001 7.84709 7.25731 7.83356 7.18408 7.8346H3.86835ZM9.39457 7.8346C9.32134 7.83356 9.24863 7.84709 9.18068 7.8744C9.11272 7.90171 9.05087 7.94225 8.99872 7.99367C8.94657 8.04508 8.90516 8.10636 8.87689 8.17392C8.84863 8.24148 8.83407 8.31399 8.83407 8.38722C8.83407 8.46046 8.84863 8.53296 8.87689 8.60053C8.90516 8.66809 8.94657 8.72936 8.99872 8.78078C9.05087 8.83219 9.11272 8.87274 9.18068 8.90004C9.24863 8.92735 9.32134 8.94088 9.39457 8.93984H10.1314C10.2046 8.94088 10.2773 8.92735 10.3453 8.90004C10.4132 8.87274 10.4751 8.83219 10.5272 8.78078C10.5794 8.72936 10.6208 8.66809 10.6491 8.60053C10.6773 8.53296 10.6919 8.46046 10.6919 8.38722C10.6919 8.31399 10.6773 8.24148 10.6491 8.17392C10.6208 8.10636 10.5794 8.04508 10.5272 7.99367C10.4751 7.94225 10.4132 7.90171 10.3453 7.8744C10.2773 7.84709 10.2046 7.83356 10.1314 7.8346H9.39457ZM3.86835 10.0451C3.79512 10.0441 3.72242 10.0576 3.65446 10.0849C3.58651 10.1122 3.52466 10.1527 3.47251 10.2042C3.42036 10.2556 3.37894 10.3168 3.35068 10.3844C3.32241 10.452 3.30786 10.5245 3.30786 10.5977C3.30786 10.6709 3.32241 10.7435 3.35068 10.811C3.37894 10.8786 3.42036 10.9398 3.47251 10.9913C3.52466 11.0427 3.58651 11.0832 3.65446 11.1105C3.72242 11.1378 3.79512 11.1514 3.86835 11.1503H6.44725C6.52048 11.1514 6.59318 11.1378 6.66114 11.1105C6.72909 11.0832 6.79094 11.0427 6.84309 10.9913C6.89525 10.9398 6.93666 10.8786 6.96492 10.811C6.99319 10.7435 7.00774 10.6709 7.00774 10.5977C7.00774 10.5245 6.99319 10.452 6.96492 10.3844C6.93666 10.3168 6.89525 10.2556 6.84309 10.2042C6.79094 10.1527 6.72909 10.1122 6.66114 10.0849C6.59318 10.0576 6.52048 10.0441 6.44725 10.0451H3.86835ZM9.39457 10.0451C9.32134 10.0441 9.24863 10.0576 9.18068 10.0849C9.11272 10.1122 9.05087 10.1527 8.99872 10.2042C8.94657 10.2556 8.90516 10.3168 8.87689 10.3844C8.84863 10.452 8.83407 10.5245 8.83407 10.5977C8.83407 10.6709 8.84863 10.7435 8.87689 10.811C8.90516 10.8786 8.94657 10.9398 8.99872 10.9913C9.05087 11.0427 9.11272 11.0832 9.18068 11.1105C9.24863 11.1378 9.32134 11.1514 9.39457 11.1503H10.1314C10.2046 11.1514 10.2773 11.1378 10.3453 11.1105C10.4132 11.0832 10.4751 11.0427 10.5272 10.9913C10.5794 10.9398 10.6208 10.8786 10.6491 10.811C10.6773 10.7435 10.6919 10.6709 10.6919 10.5977C10.6919 10.5245 10.6773 10.452 10.6491 10.3844C10.6208 10.3168 10.5794 10.2556 10.5272 10.2042C10.4751 10.1527 10.4132 10.1122 10.3453 10.0849C10.2773 10.0576 10.2046 10.0441 10.1314 10.0451H9.39457Z" fill="black"/>
</svg>
