<svg width="14" height="15" viewBox="0 0 14 15" fill="none" xmlns="http://www.w3.org/2000/svg">
<path d="M3.81818 3.38188C3.7997 3.38185 3.78123 3.38288 3.76287 3.38499C1.68539 3.41506 0 5.11565 0 7.20006C0 9.28511 1.68638 10.9867 3.76474 11.0158C3.78249 11.0176 3.80033 11.0184 3.81818 11.0182H10.1818C12.2849 11.0182 14 9.30314 14 7.20006C14 5.09699 12.2849 3.38188 10.1818 3.38188H3.81818ZM3.81818 4.33643C5.40538 4.33643 6.68182 5.61286 6.68182 7.20006C6.68182 8.78726 5.40538 10.0637 3.81818 10.0637C2.23098 10.0637 0.954545 8.78726 0.954545 7.20006C0.954545 5.61286 2.23098 4.33643 3.81818 4.33643ZM6.33319 4.33643H10.1818C11.769 4.33643 13.0455 5.61286 13.0455 7.20006C13.0455 8.78726 11.769 10.0637 10.1818 10.0637H6.33319C7.12966 9.36308 7.63636 8.34002 7.63636 7.20006C7.63636 6.06011 7.12966 5.03705 6.33319 4.33643Z" fill="black"/>
</svg>
