<svg width="14" height="15" viewBox="0 0 14 15" fill="none" xmlns="http://www.w3.org/2000/svg">
<path d="M3.81818 3.3819C1.71511 3.3819 0 5.09701 0 7.20009C0 9.30316 1.71511 11.0183 3.81818 11.0183H6.44318C6.49482 11.0268 6.54752 11.0268 6.59917 11.0183H10.1818C10.2003 11.0183 10.2188 11.0173 10.2371 11.0152C12.3146 10.9851 14 9.2845 14 7.20009C14 5.11504 12.3136 3.41344 10.2353 3.38439C10.2175 3.38256 10.1997 3.38173 10.1818 3.3819H3.81818ZM3.81818 4.33645H3.88965L0.958274 7.26782C0.957747 7.24509 0.954545 7.22295 0.954545 7.20009C0.954545 5.61289 2.23098 4.33645 3.81818 4.33645ZM5.23881 4.33645H6.59419L1.74938 9.18126C1.52419 8.94611 1.33905 8.6726 1.20437 8.37089C1.20923 8.36644 1.21399 8.36188 1.21866 8.35722L5.22638 4.3495C5.23061 4.34523 5.23475 4.34088 5.23881 4.33645ZM10.1818 4.33645C11.769 4.33645 13.0455 5.61289 13.0455 7.20009C13.0455 8.78729 11.769 10.0637 10.1818 10.0637C8.59462 10.0637 7.31818 8.78729 7.31818 7.20009C7.31818 5.61289 8.59462 4.33645 10.1818 4.33645ZM6.8726 5.40783C6.57638 5.94998 6.36364 6.54079 6.36364 7.20009C6.36364 7.23267 6.38146 7.25967 6.38228 7.29206L3.45091 10.0376C3.12097 9.9957 2.81001 9.89846 2.52557 9.75486L6.8726 5.40783ZM6.60476 8.39078C6.71778 8.72808 6.88896 9.02035 7.08638 9.30866L6.33132 10.0637H4.81934L6.60476 8.39078ZM7.70099 10.0445C7.70864 10.0511 7.71692 10.0571 7.72461 10.0637H7.68173L7.70099 10.0445Z" fill="black"/>
</svg>
