<svg width="14" height="15" viewBox="0 0 14 15" fill="none" xmlns="http://www.w3.org/2000/svg">
<g clip-path="url(#clip0_271_5219)">
<path d="M10.4903 0.173553C10.3805 0.17358 10.2731 0.206383 10.182 0.267764C10.0909 0.329145 10.0202 0.416313 9.97887 0.518115C9.93758 0.619918 9.9276 0.731725 9.95021 0.839232C9.97281 0.946739 10.027 1.04506 10.1058 1.1216L12.1075 3.12336H0.559873C0.486725 3.12233 0.414101 3.13584 0.346221 3.16312C0.278341 3.19039 0.21656 3.23089 0.164466 3.28225C0.112373 3.33361 0.0710078 3.39482 0.0427737 3.4623C0.0145396 3.52979 0 3.60222 0 3.67537C0 3.74853 0.0145396 3.82095 0.0427737 3.88844C0.0710078 3.95593 0.112373 4.01713 0.164466 4.06849C0.21656 4.11985 0.278341 4.16035 0.346221 4.18763C0.414101 4.2149 0.486725 4.22842 0.559873 4.22738H12.1075L10.1058 6.22914C10.0528 6.28001 10.0105 6.34093 9.98137 6.40835C9.95224 6.47576 9.93684 6.54832 9.9361 6.62176C9.93535 6.69519 9.94926 6.76804 9.97702 6.83604C10.0048 6.90403 10.0458 6.96581 10.0978 7.01774C10.1497 7.06967 10.2115 7.11072 10.2795 7.13848C10.3475 7.16624 10.4203 7.18015 10.4937 7.17941C10.5672 7.17866 10.6397 7.16327 10.7072 7.13413C10.7746 7.10499 10.8355 7.0627 10.8864 7.00972L13.8304 4.06566C13.9339 3.96214 13.992 3.82175 13.992 3.67537C13.992 3.529 13.9339 3.38861 13.8304 3.28508L10.8864 0.341026C10.8349 0.288038 10.7733 0.245913 10.7053 0.217147C10.6373 0.18838 10.5642 0.173556 10.4903 0.173553ZM3.49315 7.16641C3.34979 7.17059 3.21368 7.23039 3.11364 7.33316L0.169584 10.2772C0.0661008 10.3807 0.00796818 10.5211 0.00796818 10.6675C0.00796818 10.8139 0.0661008 10.9543 0.169584 11.0578L3.11364 14.0019C3.16451 14.0548 3.22543 14.0971 3.29285 14.1263C3.36026 14.1554 3.43282 14.1708 3.50626 14.1715C3.57969 14.1723 3.65254 14.1584 3.72054 14.1306C3.78853 14.1029 3.85031 14.0618 3.90224 14.0099C3.95417 13.9579 3.99522 13.8962 4.02298 13.8282C4.05074 13.7602 4.06465 13.6873 4.06391 13.6139C4.06316 13.5405 4.04777 13.4679 4.01863 13.4005C3.98949 13.3331 3.9472 13.2721 3.89422 13.2213L1.89246 11.2195H13.4401C13.5133 11.2206 13.5859 11.207 13.6538 11.1798C13.7217 11.1525 13.7834 11.112 13.8355 11.0606C13.8876 11.0093 13.929 10.9481 13.9572 10.8806C13.9855 10.8131 14 10.7407 14 10.6675C14 10.5944 13.9855 10.5219 13.9572 10.4544C13.929 10.387 13.8876 10.3258 13.8355 10.2744C13.7834 10.223 13.7217 10.1825 13.6538 10.1553C13.5859 10.128 13.5133 10.1145 13.4401 10.1155H1.89246L3.89422 8.11374C3.97386 8.03618 4.02822 7.93639 4.05021 7.82742C4.07219 7.71845 4.06076 7.60538 4.01742 7.50301C3.97409 7.40065 3.90085 7.31375 3.80731 7.25369C3.71376 7.19363 3.60427 7.16321 3.49315 7.16641Z" fill="black"/>
</g>
<defs>
<clipPath id="clip0_271_5219">
<rect width="14" height="14" fill="white" transform="translate(0 0.173553)"/>
</clipPath>
</defs>
</svg>
