<svg width="14" height="16" viewBox="0 0 14 16" fill="none" xmlns="http://www.w3.org/2000/svg">
<path d="M6.65748 0.773529C5.42957 0.773529 4.40712 1.69103 4.2355 2.87353H1.84088C1.81107 2.86843 1.78088 2.86591 1.75064 2.86601C1.72451 2.86657 1.69846 2.86909 1.67271 2.87353H0.532477C0.462909 2.87255 0.393838 2.8854 0.32928 2.91134C0.264721 2.93728 0.205963 2.9758 0.156419 3.02464C0.106875 3.07349 0.0675332 3.1317 0.0406807 3.19589C0.0138281 3.26007 0 3.32895 0 3.39853C0 3.4681 0.0138281 3.53699 0.0406807 3.60117C0.0675332 3.66536 0.106875 3.72356 0.156419 3.77241C0.205963 3.82126 0.264721 3.85978 0.32928 3.88572C0.393838 3.91166 0.462909 3.92451 0.532477 3.92353H1.28101L2.16216 13.0338C2.25704 14.0161 3.0916 14.7735 4.07828 14.7735H9.23599C10.2227 14.7735 11.0573 14.0162 11.1521 13.0338L12.0339 3.92353H12.7825C12.852 3.92451 12.9211 3.91166 12.9857 3.88572C13.0502 3.85978 13.109 3.82126 13.1585 3.77241C13.2081 3.72356 13.2474 3.66536 13.2743 3.60117C13.3011 3.53699 13.315 3.4681 13.315 3.39853C13.315 3.32895 13.3011 3.26007 13.2743 3.19589C13.2474 3.1317 13.2081 3.07349 13.1585 3.02464C13.109 2.9758 13.0502 2.93728 12.9857 2.91134C12.9211 2.8854 12.852 2.87255 12.7825 2.87353H11.6429C11.5872 2.86449 11.5305 2.86449 11.4748 2.87353H9.07945C8.90784 1.69103 7.88539 0.773529 6.65748 0.773529ZM6.65748 1.82353C7.31518 1.82353 7.85475 2.26739 8.00894 2.87353H5.30601C5.46021 2.26739 5.99977 1.82353 6.65748 1.82353ZM2.33511 3.92353H10.9792L10.1069 12.9326C10.0631 13.3859 9.69126 13.7235 9.23599 13.7235H4.07828C3.62366 13.7235 3.2511 13.3853 3.20738 12.9326L2.33511 3.92353ZM5.42427 5.66601C5.28515 5.66818 5.15259 5.72549 5.05569 5.82533C4.95879 5.92518 4.90548 6.05941 4.90748 6.19853V11.4485C4.90649 11.5181 4.91935 11.5872 4.94529 11.6517C4.97123 11.7163 5.00975 11.775 5.05859 11.8246C5.10744 11.8741 5.16565 11.9135 5.22983 11.9403C5.29402 11.9672 5.3629 11.981 5.43248 11.981C5.50205 11.981 5.57094 11.9672 5.63512 11.9403C5.69931 11.9135 5.75751 11.8741 5.80636 11.8246C5.85521 11.775 5.89372 11.7163 5.91967 11.6517C5.94561 11.5872 5.95846 11.5181 5.95748 11.4485V6.19853C5.95849 6.12826 5.94538 6.05851 5.91893 5.9934C5.89248 5.92829 5.85323 5.86915 5.80351 5.81949C5.75378 5.76983 5.6946 5.73066 5.62946 5.70429C5.56431 5.67793 5.49454 5.66491 5.42427 5.66601V5.66601ZM7.87427 5.66601C7.73515 5.66818 7.60259 5.72549 7.50569 5.82533C7.40879 5.92518 7.35548 6.05941 7.35748 6.19853V11.4485C7.35649 11.5181 7.36935 11.5872 7.39529 11.6517C7.42123 11.7163 7.45975 11.775 7.50859 11.8246C7.55744 11.8741 7.61565 11.9135 7.67983 11.9403C7.74402 11.9672 7.8129 11.981 7.88248 11.981C7.95205 11.981 8.02094 11.9672 8.08512 11.9403C8.14931 11.9135 8.20751 11.8741 8.25636 11.8246C8.30521 11.775 8.34372 11.7163 8.36967 11.6517C8.39561 11.5872 8.40846 11.5181 8.40748 11.4485V6.19853C8.40849 6.12826 8.39538 6.05851 8.36893 5.9934C8.34248 5.92829 8.30323 5.86915 8.25351 5.81949C8.20378 5.76983 8.1446 5.73066 8.07946 5.70429C8.01431 5.67793 7.94454 5.66491 7.87427 5.66601V5.66601Z" fill="black"/>
</svg>
