<svg width="14" height="16" viewBox="0 0 14 16" fill="none" xmlns="http://www.w3.org/2000/svg">
<path d="M6.65748 0.835938C5.42957 0.835938 4.40712 1.75344 4.2355 2.93594H1.84088C1.81107 2.93084 1.78088 2.92832 1.75064 2.92842C1.72451 2.92898 1.69846 2.93149 1.67271 2.93594H0.532477C0.462909 2.93495 0.393838 2.94781 0.32928 2.97375C0.264721 2.99969 0.205963 3.03821 0.156419 3.08705C0.106875 3.1359 0.0675332 3.19411 0.0406807 3.2583C0.0138281 3.32248 0 3.39136 0 3.46094C0 3.53051 0.0138281 3.5994 0.0406807 3.66358C0.0675332 3.72776 0.106875 3.78597 0.156419 3.83482C0.205963 3.88367 0.264721 3.92218 0.32928 3.94813C0.393838 3.97407 0.462909 3.98692 0.532477 3.98594H1.28101L2.16216 13.0962C2.25704 14.0785 3.0916 14.8359 4.07828 14.8359H9.23599C10.2227 14.8359 11.0573 14.0786 11.1521 13.0962L12.0339 3.98594H12.7825C12.852 3.98692 12.9211 3.97407 12.9857 3.94813C13.0502 3.92218 13.109 3.88367 13.1585 3.83482C13.2081 3.78597 13.2474 3.72776 13.2743 3.66358C13.3011 3.5994 13.315 3.53051 13.315 3.46094C13.315 3.39136 13.3011 3.32248 13.2743 3.2583C13.2474 3.19411 13.2081 3.1359 13.1585 3.08705C13.109 3.03821 13.0502 2.99969 12.9857 2.97375C12.9211 2.94781 12.852 2.93495 12.7825 2.93594H11.6429C11.5872 2.9269 11.5305 2.9269 11.4748 2.93594H9.07945C8.90784 1.75344 7.88539 0.835938 6.65748 0.835938ZM6.65748 1.88594C7.31518 1.88594 7.85475 2.32979 8.00894 2.93594H5.30601C5.46021 2.32979 5.99977 1.88594 6.65748 1.88594ZM2.33511 3.98594H10.9792L10.1069 12.995C10.0631 13.4483 9.69126 13.7859 9.23599 13.7859H4.07828C3.62366 13.7859 3.2511 13.4477 3.20738 12.995L2.33511 3.98594ZM5.42427 5.72842C5.28515 5.73059 5.15259 5.7879 5.05569 5.88774C4.95879 5.98759 4.90548 6.12182 4.90748 6.26094V11.5109C4.90649 11.5805 4.91935 11.6496 4.94529 11.7141C4.97123 11.7787 5.00975 11.8375 5.05859 11.887C5.10744 11.9365 5.16565 11.9759 5.22983 12.0027C5.29402 12.0296 5.3629 12.0434 5.43248 12.0434C5.50205 12.0434 5.57094 12.0296 5.63512 12.0027C5.69931 11.9759 5.75751 11.9365 5.80636 11.887C5.85521 11.8375 5.89372 11.7787 5.91967 11.7141C5.94561 11.6496 5.95846 11.5805 5.95748 11.5109V6.26094C5.95849 6.19067 5.94538 6.12091 5.91893 6.05581C5.89248 5.9907 5.85323 5.93156 5.80351 5.8819C5.75378 5.83224 5.6946 5.79307 5.62946 5.7667C5.56431 5.74034 5.49454 5.72732 5.42427 5.72842ZM7.87427 5.72842C7.73515 5.73059 7.60259 5.7879 7.50569 5.88774C7.40879 5.98759 7.35548 6.12182 7.35748 6.26094V11.5109C7.35649 11.5805 7.36935 11.6496 7.39529 11.7141C7.42123 11.7787 7.45975 11.8375 7.50859 11.887C7.55744 11.9365 7.61565 11.9759 7.67983 12.0027C7.74402 12.0296 7.8129 12.0434 7.88248 12.0434C7.95205 12.0434 8.02094 12.0296 8.08512 12.0027C8.14931 11.9759 8.20751 11.9365 8.25636 11.887C8.30521 11.8375 8.34372 11.7787 8.36967 11.7141C8.39561 11.6496 8.40846 11.5805 8.40748 11.5109V6.26094C8.40849 6.19067 8.39538 6.12091 8.36893 6.05581C8.34248 5.9907 8.30323 5.93156 8.25351 5.8819C8.20378 5.83224 8.1446 5.79307 8.07946 5.7667C8.01431 5.74034 7.94454 5.72732 7.87427 5.72842Z" fill="black"/>
</svg>
