<svg width="14" height="14" viewBox="0 0 14 14" fill="none" xmlns="http://www.w3.org/2000/svg">
<path d="M1.43182 2.17355C0.646704 2.17355 0 2.7833 0 3.52355V8.62355C0 9.3638 0.646704 9.97355 1.43182 9.97355H1.65927C1.86908 10.6631 2.54554 11.1736 3.34091 11.1736C4.13628 11.1736 4.81274 10.6631 5.02255 9.97355H8.97745C9.18726 10.6631 9.86372 11.1736 10.6591 11.1736C11.4545 11.1736 12.1309 10.6631 12.3407 9.97355H12.5682C13.3533 9.97355 14 9.3638 14 8.62355V6.71457C14 6.52515 13.9576 6.33908 13.877 6.1673L13.8763 6.16672L12.9379 4.1757V4.17512C12.7088 3.68865 12.1943 3.37355 11.6298 3.37355H9.5293C9.44819 2.70354 8.84437 2.17355 8.11364 2.17355H1.43182ZM1.43182 3.07355H8.11364C8.38298 3.07355 8.59091 3.2696 8.59091 3.52355V3.82355V9.07355H5.02255C4.81274 8.38403 4.13628 7.87355 3.34091 7.87355C2.54554 7.87355 1.86908 8.38403 1.65927 9.07355H1.43182C1.16248 9.07355 0.954545 8.8775 0.954545 8.62355V3.52355C0.954545 3.2696 1.16248 3.07355 1.43182 3.07355ZM9.54545 4.27355H11.6298C11.8199 4.27355 11.9884 4.37707 12.0654 4.54074L12.6465 5.77355H9.54545V4.27355ZM9.54545 6.67355H13.0411C13.0425 6.68721 13.0455 6.70094 13.0455 6.71457V8.62355C13.0455 8.8775 12.8375 9.07355 12.5682 9.07355H12.3407C12.1309 8.38403 11.4545 7.87355 10.6591 7.87355C10.2372 7.87355 9.84889 8.01733 9.54545 8.255V6.67355ZM3.34091 8.77355C3.77006 8.77355 4.10915 9.08339 4.13201 9.48195C4.12929 9.50963 4.12929 9.53748 4.13201 9.56516C4.10915 9.96371 3.77006 10.2736 3.34091 10.2736C2.91176 10.2736 2.57267 9.96371 2.5498 9.56516C2.55253 9.53748 2.55253 9.50963 2.5498 9.48195C2.57267 9.08339 2.91176 8.77355 3.34091 8.77355ZM10.6591 8.77355C11.1034 8.77355 11.4545 9.10463 11.4545 9.52355C11.4545 9.94248 11.1034 10.2736 10.6591 10.2736C10.2148 10.2736 9.86364 9.94248 9.86364 9.52355C9.86364 9.10463 10.2148 8.77355 10.6591 8.77355Z" fill="black"/>
</svg>
