<svg width="14" height="15" viewBox="0 0 14 15" fill="none" xmlns="http://www.w3.org/2000/svg">
<g clip-path="url(#clip0_285_4112)">
<path d="M2.28742 0.173619C2.14481 0.175847 2.00892 0.234587 1.90959 0.336937C1.81026 0.439288 1.75562 0.576878 1.75766 0.719488V6.81864C1.75766 9.68545 4.09307 12.0209 6.95988 12.0209C9.82669 12.0209 12.1621 9.68545 12.1621 6.81864V0.719488C12.1631 0.648175 12.1499 0.577373 12.1233 0.511196C12.0967 0.44502 12.0573 0.384788 12.0072 0.334002C11.9571 0.283216 11.8975 0.242889 11.8317 0.215363C11.7659 0.187837 11.6953 0.173662 11.6239 0.173662C11.5526 0.173662 11.482 0.187837 11.4162 0.215363C11.3504 0.242889 11.2908 0.283216 11.2407 0.334002C11.1906 0.384788 11.1511 0.44502 11.1245 0.511196C11.0979 0.577373 11.0848 0.648175 11.0858 0.719488V6.81864C11.0858 9.10382 9.24506 10.9445 6.95988 10.9445C4.6747 10.9445 2.83399 9.10382 2.83399 6.81864V0.719488C2.83502 0.647458 2.82158 0.575954 2.79447 0.509214C2.76736 0.442473 2.72713 0.381854 2.67616 0.330949C2.62519 0.280044 2.56452 0.239889 2.49774 0.212864C2.43097 0.185839 2.35944 0.172493 2.28742 0.173619ZM2.29583 13.0972C2.22451 13.0962 2.15371 13.1093 2.08753 13.1359C2.02136 13.1625 1.96113 13.202 1.91034 13.2521C1.85955 13.3022 1.81923 13.3618 1.7917 13.4276C1.76417 13.4934 1.75 13.564 1.75 13.6353C1.75 13.7067 1.76417 13.7773 1.7917 13.8431C1.81923 13.9089 1.85955 13.9685 1.91034 14.0186C1.96113 14.0687 2.02136 14.1081 2.08753 14.1347C2.15371 14.1613 2.22451 14.1745 2.29583 14.1735H11.9827C12.054 14.1745 12.1248 14.1613 12.191 14.1347C12.2572 14.1081 12.3174 14.0687 12.3682 14.0186C12.419 13.9685 12.4593 13.9089 12.4868 13.8431C12.5144 13.7773 12.5285 13.7067 12.5285 13.6353C12.5285 13.564 12.5144 13.4934 12.4868 13.4276C12.4593 13.3618 12.419 13.3022 12.3682 13.2521C12.3174 13.202 12.2572 13.1625 12.191 13.1359C12.1248 13.1093 12.054 13.0962 11.9827 13.0972H2.29583Z" fill="black"/>
</g>
<defs>
<clipPath id="clip0_285_4112">
<rect width="14" height="14" fill="white" transform="translate(0 0.173553)"/>
</clipPath>
</defs>
</svg>
