<svg width="14" height="15" viewBox="0 0 14 15" fill="none" xmlns="http://www.w3.org/2000/svg">
<g clip-path="url(#clip0_109_7935)">
<path d="M6.99591 0.173585C6.92164 0.174801 6.85071 0.208399 6.7982 0.267244L3.08775 4.42321C3.06036 4.45266 3.03849 4.48795 3.02342 4.52699C3.00836 4.56603 3.0004 4.60805 3.00001 4.65058C2.99963 4.69311 3.00682 4.7353 3.02118 4.77468C3.03553 4.81406 3.05675 4.84983 3.08361 4.87991C3.11046 4.90998 3.1424 4.93376 3.17755 4.94983C3.21271 4.96591 3.25038 4.97397 3.28835 4.97354C3.32632 4.9731 3.36383 4.96419 3.39869 4.94732C3.43355 4.93044 3.46505 4.90595 3.49135 4.87527L7 0.945335L10.5086 4.87527C10.5349 4.90595 10.5665 4.93044 10.6013 4.94732C10.6362 4.96419 10.6737 4.9731 10.7117 4.97354C10.7496 4.97397 10.7873 4.96591 10.8224 4.94983C10.8576 4.93376 10.8895 4.90998 10.9164 4.87991C10.9432 4.84983 10.9645 4.81406 10.9788 4.77468C10.9932 4.7353 11.0004 4.69311 11 4.65058C10.9996 4.60805 10.9916 4.56603 10.9766 4.52699C10.9615 4.48795 10.9396 4.45266 10.9122 4.42321L7.2018 0.267244C7.17482 0.237007 7.14269 0.213139 7.10733 0.197052C7.07196 0.180965 7.03408 0.172985 6.99591 0.173585Z" fill="black"/>
<path d="M7.00409 14.1735C7.07836 14.1724 7.14929 14.1424 7.2018 14.0899L10.9122 10.3795C10.9396 10.3532 10.9615 10.3217 10.9766 10.2868C10.9916 10.2519 10.9996 10.2144 11 10.1765C11.0004 10.1385 10.9932 10.1008 10.9788 10.0657C10.9645 10.0305 10.9432 9.99856 10.9164 9.97171C10.8895 9.94486 10.8576 9.92364 10.8224 9.90928C10.7873 9.89493 10.7496 9.88773 10.7117 9.88812C10.6737 9.88851 10.6362 9.89647 10.6013 9.91153C10.5664 9.9266 10.5349 9.94847 10.5086 9.97586L7 13.4845L3.49135 9.97586C3.46505 9.94847 3.43355 9.9266 3.39869 9.91153C3.36383 9.89647 3.32632 9.88851 3.28835 9.88812C3.25038 9.88774 3.21271 9.89493 3.17755 9.90928C3.1424 9.92364 3.11046 9.94486 3.08361 9.97171C3.05675 9.99856 3.03553 10.0305 3.02118 10.0657C3.00682 10.1008 2.99963 10.1385 3.00002 10.1765C3.0004 10.2144 3.00836 10.2519 3.02343 10.2868C3.03849 10.3217 3.06036 10.3532 3.08775 10.3795L6.7982 14.0899C6.82518 14.1169 6.85731 14.1382 6.89267 14.1526C6.92804 14.1669 6.96592 14.1741 7.00409 14.1735Z" fill="black"/>
</g>
<defs>
<clipPath id="clip0_109_7935">
<rect width="14" height="14" fill="white" transform="translate(0 0.173553)"/>
</clipPath>
</defs>
</svg>
