<svg width="14" height="15" viewBox="0 0 14 15" fill="none" xmlns="http://www.w3.org/2000/svg">
<g clip-path="url(#clip0_201_4106)">
<path d="M6.99162 0.173611C6.83982 0.17583 6.69486 0.237136 6.58754 0.344509L4.25421 2.67783C4.19823 2.73158 4.15354 2.79597 4.12275 2.86721C4.09196 2.93845 4.07569 3.01512 4.0749 3.09272C4.07411 3.17033 4.08882 3.24731 4.11815 3.31916C4.14749 3.39102 4.19086 3.45629 4.24574 3.51117C4.30062 3.56605 4.3659 3.60943 4.43775 3.63876C4.5096 3.6681 4.58659 3.6828 4.66419 3.68201C4.7418 3.68122 4.81847 3.66496 4.88971 3.63417C4.96095 3.60338 5.02533 3.55868 5.07908 3.5027L6.41664 2.16514V10.4791C6.41555 10.5564 6.42983 10.6332 6.45865 10.7049C6.48748 10.7766 6.53027 10.8419 6.58455 10.897C6.63882 10.952 6.7035 10.9957 6.77481 11.0256C6.84613 11.0554 6.92267 11.0708 6.99997 11.0708C7.07728 11.0708 7.15381 11.0554 7.22513 11.0256C7.29645 10.9957 7.36112 10.952 7.4154 10.897C7.46967 10.8419 7.51247 10.7766 7.54129 10.7049C7.57011 10.6332 7.5844 10.5564 7.5833 10.4791V2.16514L8.92086 3.5027C8.97461 3.55868 9.03899 3.60338 9.11024 3.63417C9.18148 3.66496 9.25815 3.68122 9.33575 3.68201C9.41336 3.6828 9.49034 3.6681 9.56219 3.63876C9.63404 3.60943 9.69932 3.56605 9.7542 3.51117C9.80908 3.45629 9.85246 3.39102 9.88179 3.31916C9.91113 3.24731 9.92583 3.17033 9.92504 3.09272C9.92425 3.01512 9.90799 2.93845 9.8772 2.86721C9.84641 2.79597 9.80171 2.73158 9.74573 2.67783L7.4124 0.344509C7.35725 0.289336 7.2916 0.245785 7.21932 0.216431C7.14705 0.187077 7.06962 0.172516 6.99162 0.173611ZM2.13888 4.45137C0.964528 4.45137 0 5.4159 0 6.59025V12.0347C0 13.209 0.964528 14.1736 2.13888 14.1736H11.8611C13.0354 14.1736 13.9999 13.209 13.9999 12.0347V6.59025C13.9999 5.4159 13.0354 4.45137 11.8611 4.45137H11.0833C11.006 4.45028 10.9292 4.46456 10.8575 4.49338C10.7858 4.52221 10.7205 4.565 10.6654 4.61928C10.6104 4.67355 10.5667 4.73823 10.5368 4.80954C10.507 4.88086 10.4916 4.9574 10.4916 5.0347C10.4916 5.11201 10.507 5.18854 10.5368 5.25986C10.5667 5.33118 10.6104 5.39585 10.6654 5.45013C10.7205 5.5044 10.7858 5.5472 10.8575 5.57602C10.9292 5.60485 11.006 5.61913 11.0833 5.61803H11.8611C12.4048 5.61803 12.8333 6.0465 12.8333 6.59025V12.0347C12.8333 12.5784 12.4048 13.0069 11.8611 13.0069H2.13888C1.59513 13.0069 1.16666 12.5784 1.16666 12.0347V6.59025C1.16666 6.0465 1.59513 5.61803 2.13888 5.61803H2.91665C2.99395 5.61913 3.0707 5.60485 3.14243 5.57602C3.21416 5.5472 3.27945 5.5044 3.3345 5.45013C3.38954 5.39585 3.43326 5.33118 3.46309 5.25986C3.49293 5.18854 3.50829 5.11201 3.50829 5.0347C3.50829 4.9574 3.49293 4.88086 3.46309 4.80954C3.43326 4.73823 3.38954 4.67355 3.3345 4.61928C3.27945 4.565 3.21416 4.52221 3.14243 4.49338C3.0707 4.46456 2.99395 4.45028 2.91665 4.45137H2.13888Z" fill="black"/>
</g>
<defs>
<clipPath id="clip0_201_4106">
<rect width="14" height="14" fill="white" transform="translate(0 0.173553)"/>
</clipPath>
</defs>
</svg>
