<svg width="14" height="14" viewBox="0 0 14 14" fill="none" xmlns="http://www.w3.org/2000/svg">
<g clip-path="url(#clip0_1332_9882)">
<path d="M7.62169 6.93593e-05C7.53989 -0.0010874 7.45869 0.0140236 7.38278 0.0445242C7.30688 0.0750249 7.2378 0.120307 7.17955 0.177739C7.1213 0.23517 7.07505 0.303606 7.04347 0.37907C7.0119 0.454533 6.99565 0.535518 6.99565 0.617319C6.99565 0.69912 7.0119 0.780106 7.04347 0.855569C7.07505 0.931032 7.1213 0.999469 7.17955 1.0569C7.2378 1.11433 7.30688 1.15961 7.38278 1.19011C7.45869 1.22062 7.53989 1.23573 7.62169 1.23457H11.8926L0.189772 12.9374C0.130534 12.9943 0.0832393 13.0624 0.0506588 13.1378C0.0180784 13.2132 0.000866834 13.2943 3.19073e-05 13.3764C-0.000803019 13.4585 0.0147556 13.54 0.0457965 13.616C0.0768375 13.6921 0.122737 13.7611 0.180806 13.8192C0.238876 13.8773 0.307949 13.9232 0.383979 13.9542C0.460009 13.9853 0.541469 14.0008 0.623588 14C0.705706 13.9991 0.786833 13.9819 0.862217 13.9493C0.9376 13.9168 1.00573 13.8695 1.0626 13.8102L12.7654 2.1074V6.37832C12.7643 6.46011 12.7794 6.54132 12.8099 6.61722C12.8404 6.69312 12.8857 6.76221 12.9431 6.82046C13.0005 6.87871 13.069 6.92496 13.1444 6.95653C13.2199 6.9881 13.3009 7.00436 13.3827 7.00436C13.4645 7.00436 13.5455 6.9881 13.6209 6.95653C13.6964 6.92496 13.7648 6.87871 13.8223 6.82046C13.8797 6.76221 13.925 6.69312 13.9555 6.61722C13.986 6.54132 14.0011 6.46011 13.9999 6.37832V0.617319C13.9999 0.453619 13.9349 0.296629 13.8191 0.180876C13.7034 0.0651226 13.5464 8.57268e-05 13.3827 6.93593e-05H7.62169Z" fill="black"/>
</g>
<defs>
<clipPath id="clip0_1332_9882">
<rect width="14" height="14" fill="white"/>
</clipPath>
</defs>
</svg>
