<svg width="14" height="16" viewBox="0 0 14 16" fill="none" xmlns="http://www.w3.org/2000/svg">
<path d="M2.83321 0.773533C1.82662 0.773533 0.999878 1.60027 0.999878 2.60687C0.999878 3.61346 1.82662 4.4402 2.83321 4.4402C3.8398 4.4402 4.66654 3.61346 4.66654 2.60687C4.66654 1.60027 3.8398 0.773533 2.83321 0.773533ZM2.83321 1.77353C3.29929 1.77353 3.66654 2.14079 3.66654 2.60687C3.66654 3.07294 3.29929 3.4402 2.83321 3.4402C2.36714 3.4402 1.99988 3.07294 1.99988 2.60687C1.99988 2.14079 2.36714 1.77353 2.83321 1.77353ZM6.66654 2.4402C6.60784 2.4402 6.55146 2.44141 6.49727 2.4428C6.43037 2.44254 6.3641 2.45571 6.30238 2.48153C6.24067 2.50734 6.18475 2.54528 6.13796 2.59309C6.09117 2.6409 6.05444 2.69761 6.02996 2.75987C6.00548 2.82213 5.99375 2.88867 5.99545 2.95555C5.99715 3.02243 6.01225 3.08829 6.03986 3.14922C6.06747 3.21016 6.10702 3.26494 6.15618 3.31031C6.20534 3.35568 6.26311 3.39073 6.32606 3.41338C6.38901 3.43602 6.45586 3.44581 6.52266 3.44215C6.57248 3.44088 6.62058 3.4402 6.66654 3.4402C8.24086 3.4402 9.61261 4.27603 10.3729 5.52679C10.407 5.58293 10.4519 5.63181 10.5049 5.67062C10.5579 5.70944 10.618 5.73743 10.6818 5.75301C10.7456 5.76859 10.8119 5.77144 10.8768 5.7614C10.9417 5.75137 11.004 5.72864 11.0602 5.69453C11.1163 5.66041 11.1652 5.61557 11.204 5.56256C11.2428 5.50956 11.2707 5.44943 11.2863 5.3856C11.3019 5.32178 11.3047 5.25552 11.2947 5.19061C11.2846 5.12569 11.2619 5.06339 11.2277 5.00726C10.2921 3.46802 8.59557 2.4402 6.66654 2.4402ZM1.16654 5.10687C0.528226 5.10687 -0.00012207 5.63521 -0.00012207 6.27353V6.77353C-0.00012207 7.76275 0.995411 8.77353 2.83321 8.77353C4.67101 8.77353 5.66654 7.76275 5.66654 6.77353V6.27353C5.66654 5.63521 5.1382 5.10687 4.49988 5.10687H1.16654ZM1.16654 6.10687H4.49988C4.59823 6.10687 4.66654 6.17518 4.66654 6.27353V6.77353C4.66654 7.07298 4.32874 7.77353 2.83321 7.77353C1.33768 7.77353 0.999878 7.07298 0.999878 6.77353V6.27353C0.999878 6.17518 1.0682 6.10687 1.16654 6.10687ZM11.1665 6.77353C10.16 6.77353 9.33321 7.60028 9.33321 8.60687C9.33321 9.61346 10.16 10.4402 11.1665 10.4402C12.1731 10.4402 12.9999 9.61346 12.9999 8.60687C12.9999 7.60028 12.1731 6.77353 11.1665 6.77353ZM11.1665 7.77353C11.6326 7.77353 11.9999 8.14079 11.9999 8.60687C11.9999 9.07294 11.6326 9.4402 11.1665 9.4402C10.7005 9.4402 10.3332 9.07294 10.3332 8.60687C10.3332 8.14079 10.7005 7.77353 11.1665 7.77353ZM2.21537 9.77418C2.1244 9.77056 2.03416 9.79184 1.95439 9.83573C1.87463 9.87962 1.80836 9.94446 1.76273 10.0233C1.71711 10.102 1.69386 10.1918 1.69549 10.2828C1.69713 10.3739 1.72359 10.4627 1.77201 10.5398C2.70769 12.079 4.40419 13.1069 6.33321 13.1069C6.39191 13.1069 6.44829 13.1057 6.50248 13.1043C6.56938 13.1045 6.63565 13.0914 6.69737 13.0655C6.75909 13.0397 6.815 13.0018 6.86179 12.954C6.90859 12.9062 6.94531 12.8495 6.96979 12.7872C6.99427 12.7249 7.00601 12.6584 7.00431 12.5915C7.00261 12.5246 6.98751 12.4588 6.9599 12.3978C6.93229 12.3369 6.89273 12.2821 6.84357 12.2368C6.79441 12.1914 6.73664 12.1563 6.67369 12.1337C6.61075 12.111 6.54389 12.1013 6.47709 12.1049C6.42728 12.1062 6.37918 12.1069 6.33321 12.1069C4.7589 12.1069 3.38715 11.271 2.62683 10.0203C2.58435 9.94808 2.52441 9.8877 2.45252 9.8447C2.38062 9.8017 2.29908 9.77746 2.21537 9.77418V9.77418ZM9.49988 11.1069C8.86156 11.1069 8.33321 11.6352 8.33321 12.2735V12.7735C8.33321 13.7628 9.32874 14.7735 11.1665 14.7735C13.0043 14.7735 13.9999 13.7628 13.9999 12.7735V12.2735C13.9999 11.6352 13.4715 11.1069 12.8332 11.1069H9.49988ZM9.49988 12.1069H12.8332C12.9316 12.1069 12.9999 12.1752 12.9999 12.2735V12.7735C12.9999 13.073 12.6621 13.7735 11.1665 13.7735C9.67101 13.7735 9.33321 13.073 9.33321 12.7735V12.2735C9.33321 12.1752 9.40153 12.1069 9.49988 12.1069Z" fill="black"/>
</svg>
