<svg width="14" height="15" viewBox="0 0 14 15" fill="none" xmlns="http://www.w3.org/2000/svg">
<g clip-path="url(#clip0_121_7984)">
<path d="M7 0.173553C3.1403 0.173553 0 3.31386 0 7.17355C0 8.64815 0.459738 10.0191 1.23936 11.1473C1.31858 11.2619 1.44008 11.3403 1.57713 11.3653C1.71417 11.3903 1.85554 11.3598 1.97012 11.2806C2.0847 11.2014 2.16311 11.0799 2.18811 10.9428C2.21311 10.8058 2.18265 10.6644 2.10342 10.5498C1.43963 9.58924 1.05 8.43036 1.05 7.17355C1.05 4.05871 3.43039 1.5156 6.475 1.25021V2.65637C5.8812 2.72629 5.32259 2.91056 4.82275 3.18478C4.76103 3.21721 4.70639 3.26161 4.66202 3.31539C4.61764 3.36916 4.58442 3.43123 4.56429 3.49798C4.54416 3.56474 4.53753 3.63483 4.54478 3.70417C4.55202 3.77351 4.57301 3.84072 4.60651 3.90186C4.64001 3.96301 4.68535 4.01687 4.73989 4.0603C4.79443 4.10373 4.85707 4.13587 4.92417 4.15483C4.99126 4.1738 5.06145 4.17921 5.13066 4.17075C5.19986 4.1623 5.26669 4.14014 5.32725 4.10558C5.82688 3.83147 6.39293 3.67355 7 3.67355C8.93909 3.67355 10.5 5.23446 10.5 7.17355C10.5 7.78045 10.3419 8.34642 10.068 8.84631C10.0334 8.90686 10.0113 8.97369 10.0028 9.04289C9.99434 9.1121 9.99975 9.1823 10.0187 9.24939C10.0377 9.31648 10.0698 9.37912 10.1133 9.43366C10.1567 9.4882 10.2105 9.53354 10.2717 9.56704C10.3328 9.60054 10.4 9.62153 10.4694 9.62878C10.5387 9.63603 10.6088 9.62939 10.6756 9.60926C10.7423 9.58914 10.8044 9.55591 10.8582 9.51154C10.9119 9.46716 10.9563 9.41252 10.9888 9.3508C11.342 8.70619 11.55 7.96386 11.55 7.17355C11.55 4.84474 9.78537 2.9183 7.525 2.65637V1.24816C8.57903 1.34062 9.55121 1.70684 10.3763 2.27697C10.4909 2.3562 10.6322 2.38667 10.7693 2.36167C10.9063 2.33667 11.0278 2.25825 11.107 2.14367C11.1863 2.02909 11.2167 1.88773 11.1917 1.75068C11.1667 1.61364 11.0883 1.49214 10.9737 1.41291C9.84552 0.633292 8.47459 0.173553 7 0.173553ZM12.3136 2.9674C12.218 2.9693 12.1248 2.99724 12.044 3.0482C11.9632 3.09917 11.8978 3.17123 11.8549 3.25661C11.8119 3.342 11.7932 3.43748 11.8005 3.53275C11.8079 3.62803 11.8411 3.71949 11.8966 3.79728C12.5604 4.75787 12.95 5.91675 12.95 7.17355C12.95 10.2884 10.5696 12.8315 7.525 13.0969V11.6907C8.1188 11.6208 8.67741 11.4365 9.17725 11.1623C9.23897 11.1299 9.29361 11.0855 9.33798 11.0317C9.38236 10.9779 9.41558 10.9159 9.43571 10.8491C9.45584 10.7824 9.46247 10.7123 9.45522 10.6429C9.44798 10.5736 9.42699 10.5064 9.39349 10.4452C9.35999 10.3841 9.31465 10.3302 9.26011 10.2868C9.20557 10.2434 9.14293 10.2112 9.07583 10.1923C9.00874 10.1733 8.93855 10.1679 8.86934 10.1764C8.80013 10.1848 8.73331 10.207 8.67275 10.2415C8.17312 10.5156 7.60707 10.6736 7 10.6736C5.06091 10.6736 3.5 9.11265 3.5 7.17355C3.5 6.56649 3.65792 6.00043 3.93203 5.5008C3.97763 5.42043 4.0012 5.32945 4.00038 5.23704C3.99955 5.14464 3.97436 5.0541 3.92734 4.97455C3.88032 4.895 3.81314 4.82927 3.73258 4.784C3.65203 4.73873 3.56095 4.71552 3.46855 4.71672C3.37424 4.71795 3.282 4.74456 3.20153 4.79376C3.12105 4.84296 3.05532 4.91292 3.01123 4.99631C2.65744 5.64117 2.45 6.38342 2.45 7.17355C2.45 9.50236 4.21463 11.4288 6.475 11.6907V13.0989C5.42096 13.0064 4.44875 12.6398 3.62373 12.0695C3.567 12.0302 3.50309 12.0025 3.43565 11.988C3.36821 11.9734 3.29857 11.9723 3.2307 11.9847C3.16283 11.997 3.09807 12.0227 3.0401 12.0601C2.98213 12.0975 2.9321 12.1459 2.89287 12.2027C2.85363 12.2594 2.82596 12.3233 2.81143 12.3908C2.7969 12.4582 2.7958 12.5279 2.80818 12.5957C2.82057 12.6636 2.84621 12.7284 2.88363 12.7863C2.92105 12.8443 2.96952 12.8943 3.02627 12.9335C4.15452 13.7135 5.52541 14.1736 7 14.1736C10.8597 14.1736 14 11.0333 14 7.17355C14 5.69896 13.5403 4.32804 12.7606 3.19982C12.7116 3.1267 12.6449 3.06709 12.5668 3.02648C12.4887 2.98586 12.4016 2.96555 12.3136 2.9674ZM7 4.72355C6.72152 4.72355 6.45445 4.83418 6.25754 5.03109C6.06062 5.228 5.95 5.49508 5.95 5.77355C5.95 6.05203 6.06062 6.3191 6.25754 6.51602C6.45445 6.71293 6.72152 6.82355 7 6.82355C7.27848 6.82355 7.54555 6.71293 7.74246 6.51602C7.93938 6.3191 8.05 6.05203 8.05 5.77355C8.05 5.49508 7.93938 5.228 7.74246 5.03109C7.54555 4.83418 7.27848 4.72355 7 4.72355ZM5.775 7.52355C5.4852 7.52355 5.25 7.75875 5.25 8.04855V8.25226C5.25 8.81611 6.03365 9.27355 7 9.27355C7.96635 9.27355 8.75 8.81611 8.75 8.25226V8.04855C8.75 7.75875 8.5148 7.52355 8.225 7.52355H5.775Z" fill="black"/>
</g>
<defs>
<clipPath id="clip0_121_7984">
<rect width="14" height="14" fill="white" transform="translate(0 0.173553)"/>
</clipPath>
</defs>
</svg>
