<svg width="14" height="15" viewBox="0 0 14 15" fill="none" xmlns="http://www.w3.org/2000/svg">
<path d="M7 0.835693C6.34375 0.835693 5.78509 1.10069 5.42637 1.50425C5.06765 1.90781 4.9 2.42528 4.9 2.93569C4.9 3.44611 5.06765 3.96358 5.42637 4.36714C5.78509 4.7707 6.34375 5.03569 7 5.03569C7.65625 5.03569 8.21491 4.7707 8.57363 4.36714C8.93235 3.96358 9.1 3.44611 9.1 2.93569C9.1 2.42528 8.93235 1.90781 8.57363 1.50425C8.21491 1.10069 7.65625 0.835693 7 0.835693ZM2.45 1.53569C1.91042 1.53569 1.43925 1.75694 1.13887 2.09487C0.838482 2.43281 0.7 2.86278 0.7 3.28569C0.7 3.70861 0.838482 4.13858 1.13887 4.47651C1.43925 4.81445 1.91042 5.03569 2.45 5.03569C2.98958 5.03569 3.46075 4.81445 3.76113 4.47651C4.06152 4.13858 4.2 3.70861 4.2 3.28569C4.2 2.86278 4.06152 2.43281 3.76113 2.09487C3.46075 1.75694 2.98958 1.53569 2.45 1.53569ZM11.55 1.53569C11.0104 1.53569 10.5393 1.75694 10.2389 2.09487C9.93848 2.43281 9.8 2.86278 9.8 3.28569C9.8 3.70861 9.93848 4.13858 10.2389 4.47651C10.5393 4.81445 11.0104 5.03569 11.55 5.03569C12.0896 5.03569 12.5607 4.81445 12.8611 4.47651C13.1615 4.13858 13.3 3.70861 13.3 3.28569C13.3 2.86278 13.1615 2.43281 12.8611 2.09487C12.5607 1.75694 12.0896 1.53569 11.55 1.53569ZM7 1.88569C7.39375 1.88569 7.62259 2.01445 7.78887 2.20151C7.95515 2.38858 8.05 2.65861 8.05 2.93569C8.05 3.21278 7.95515 3.48281 7.78887 3.66987C7.62259 3.85694 7.39375 3.98569 7 3.98569C6.60625 3.98569 6.37741 3.85694 6.21113 3.66987C6.04485 3.48281 5.95 3.21278 5.95 2.93569C5.95 2.65861 6.04485 2.38858 6.21113 2.20151C6.37741 2.01445 6.60625 1.88569 7 1.88569ZM2.45 2.58569C2.72708 2.58569 2.86842 2.6707 2.97637 2.79214C3.08432 2.91358 3.15 3.09611 3.15 3.28569C3.15 3.47528 3.08432 3.65781 2.97637 3.77925C2.86842 3.90069 2.72708 3.98569 2.45 3.98569C2.17292 3.98569 2.03158 3.90069 1.92363 3.77925C1.81568 3.65781 1.75 3.47528 1.75 3.28569C1.75 3.09611 1.81568 2.91358 1.92363 2.79214C2.03158 2.6707 2.17292 2.58569 2.45 2.58569ZM11.55 2.58569C11.8271 2.58569 11.9684 2.6707 12.0764 2.79214C12.1843 2.91358 12.25 3.09611 12.25 3.28569C12.25 3.47528 12.1843 3.65781 12.0764 3.77925C11.9684 3.90069 11.8271 3.98569 11.55 3.98569C11.2729 3.98569 11.1316 3.90069 11.0236 3.77925C10.9157 3.65781 10.85 3.47528 10.85 3.28569C10.85 3.09611 10.9157 2.91358 11.0236 2.79214C11.1316 2.6707 11.2729 2.58569 11.55 2.58569ZM1.225 5.73569C0.5495 5.73569 0 6.28519 0 6.96069V9.23569C0 10.7792 1.2565 12.0357 2.8 12.0357C3.0485 12.0357 3.29019 12.0044 3.52119 11.9414C3.37419 11.6264 3.26555 11.29 3.20605 10.9365C3.07655 10.968 2.94 10.9857 2.8 10.9857C1.834 10.9857 1.05 10.2017 1.05 9.23569V6.96069C1.05 6.86269 1.127 6.78569 1.225 6.78569H3.16025C3.19525 6.38669 3.34942 6.02619 3.59092 5.73569H1.225ZM5.075 5.73569C4.40477 5.73569 3.85 6.29046 3.85 6.96069V10.2857C3.85 12.0191 5.26655 13.4357 7 13.4357C8.73345 13.4357 10.15 12.0191 10.15 10.2857V6.96069C10.15 6.29046 9.59523 5.73569 8.925 5.73569H5.075ZM10.4091 5.73569C10.6506 6.02619 10.8047 6.38669 10.8397 6.78569H12.775C12.873 6.78569 12.95 6.86269 12.95 6.96069V9.23569C12.95 10.2017 12.166 10.9857 11.2 10.9857C11.06 10.9857 10.9234 10.968 10.7939 10.9365C10.7344 11.29 10.6258 11.6264 10.4788 11.9414C10.7098 12.0044 10.9515 12.0357 11.2 12.0357C12.7435 12.0357 14 10.7792 14 9.23569V6.96069C14 6.28519 13.4505 5.73569 12.775 5.73569H10.4091ZM5.075 6.78569H6.32119L6.64248 7.42827C6.64388 7.43072 6.64586 7.43266 6.64727 7.43511C6.64691 7.43721 6.64556 7.43848 6.64521 7.44058L6.3041 9.40933C6.2915 9.48178 6.30989 9.5563 6.35469 9.6144L6.79219 10.1832C6.84154 10.2479 6.91845 10.2857 7 10.2857C7.08155 10.2857 7.15846 10.2479 7.20781 10.1832L7.64531 9.6144C7.69011 9.5563 7.7085 9.48178 7.6959 9.40933L7.35478 7.44058C7.35443 7.43848 7.35343 7.43721 7.35273 7.43511C7.35413 7.43266 7.35612 7.43107 7.35752 7.42827L7.67812 6.78569H8.925C9.02827 6.78569 9.1 6.85743 9.1 6.96069V10.2857C9.1 11.4516 8.16595 12.3857 7 12.3857C5.83405 12.3857 4.9 11.4516 4.9 10.2857V6.96069C4.9 6.85743 4.97173 6.78569 5.075 6.78569Z" fill="black"/>
</svg>
