<svg width="14" height="16" viewBox="0 0 14 16" fill="none" xmlns="http://www.w3.org/2000/svg">
<path d="M6.6 0.773533C4.67322 0.773533 3.1 2.34676 3.1 4.27353C3.1 6.20031 4.67322 7.77353 6.6 7.77353C8.52678 7.77353 10.1 6.20031 10.1 4.27353C10.1 2.34676 8.52678 0.773533 6.6 0.773533ZM6.6 1.82353C7.95932 1.82353 9.05 2.91422 9.05 4.27353C9.05 5.63285 7.95932 6.72353 6.6 6.72353C5.24068 6.72353 4.15 5.63285 4.15 4.27353C4.15 2.91422 5.24068 1.82353 6.6 1.82353ZM2.39248 9.17353C1.62955 9.17353 1 9.80308 1 10.566V11.0985C1 12.36 1.79774 13.3358 2.85732 13.9204C3.9169 14.505 5.25884 14.7735 6.6 14.7735C7.94116 14.7735 9.2831 14.505 10.3427 13.9204C11.2461 13.422 11.9261 12.6254 12.1166 11.6235H12.2007V10.566C12.2007 9.80308 11.5705 9.17353 10.8075 9.17353H2.39248ZM2.39248 10.2235H10.8075C11.0029 10.2235 11.1507 10.3706 11.1507 10.566V10.5735H11.15V11.0985C11.15 11.9371 10.679 12.5363 9.83545 13.0017C8.9919 13.4671 7.79634 13.7235 6.6 13.7235C5.40366 13.7235 4.2081 13.4671 3.36455 13.0017C2.52101 12.5363 2.05 11.9371 2.05 11.0985V10.566C2.05 10.3706 2.19711 10.2235 2.39248 10.2235Z" fill="black"/>
</svg>
