<svg width="14" height="16" viewBox="0 0 14 16" fill="none" xmlns="http://www.w3.org/2000/svg">
<path d="M6.6 0.835938C4.67322 0.835938 3.1 2.40916 3.1 4.33594C3.1 6.26271 4.67322 7.83594 6.6 7.83594C8.52678 7.83594 10.1 6.26271 10.1 4.33594C10.1 2.40916 8.52678 0.835938 6.6 0.835938ZM6.6 1.88594C7.95932 1.88594 9.05 2.97662 9.05 4.33594C9.05 5.69525 7.95932 6.78594 6.6 6.78594C5.24068 6.78594 4.15 5.69525 4.15 4.33594C4.15 2.97662 5.24068 1.88594 6.6 1.88594ZM2.39248 9.23594C1.62955 9.23594 1 9.86548 1 10.6284V11.1609C1 12.4224 1.79774 13.3982 2.85732 13.9828C3.9169 14.5674 5.25884 14.8359 6.6 14.8359C7.94116 14.8359 9.2831 14.5674 10.3427 13.9828C11.4021 13.3983 12.1997 12.4227 12.2 11.1616L12.2007 10.6291V10.6284C12.2007 9.8655 11.5705 9.23594 10.8075 9.23594H2.39248ZM2.39248 10.2859H10.8075C11.0029 10.2859 11.1507 10.4331 11.1507 10.6284L11.15 11.1609C11.15 11.9995 10.679 12.5987 9.83545 13.0641C8.9919 13.5295 7.79634 13.7859 6.6 13.7859C5.40366 13.7859 4.2081 13.5295 3.36455 13.0641C2.52101 12.5987 2.05 11.9995 2.05 11.1609V10.6284C2.05 10.4331 2.19711 10.2859 2.39248 10.2859ZM7.825 10.9859C7.75543 10.985 7.68636 10.9978 7.6218 11.0237C7.55724 11.0497 7.49849 11.0882 7.44894 11.1371C7.3994 11.1859 7.36006 11.2441 7.3332 11.3083C7.30635 11.3725 7.29252 11.4414 7.29252 11.5109C7.29252 11.5805 7.30635 11.6494 7.3332 11.7136C7.36006 11.7778 7.3994 11.836 7.44894 11.8848C7.49849 11.9337 7.55724 11.9722 7.6218 11.9981C7.68636 12.0241 7.75543 12.0369 7.825 12.0359H9.225C9.29457 12.0369 9.36364 12.0241 9.4282 11.9981C9.49276 11.9722 9.55151 11.9337 9.60106 11.8848C9.6506 11.836 9.68994 11.7778 9.7168 11.7136C9.74365 11.6494 9.75748 11.5805 9.75748 11.5109C9.75748 11.4414 9.74365 11.3725 9.7168 11.3083C9.68994 11.2441 9.6506 11.1859 9.60106 11.1371C9.55151 11.0882 9.49276 11.0497 9.4282 11.0237C9.36364 10.9978 9.29457 10.985 9.225 10.9859H7.825Z" fill="black"/>
</svg>
