<svg width="14" height="16" viewBox="0 0 14 16" fill="none" xmlns="http://www.w3.org/2000/svg">
<path d="M2.83333 0.835693C1.82674 0.835693 1 1.66244 1 2.66903C1 3.67562 1.82674 4.50236 2.83333 4.50236C3.83992 4.50236 4.66667 3.67562 4.66667 2.66903C4.66667 1.66244 3.83992 0.835693 2.83333 0.835693ZM2.83333 1.83569C3.29941 1.83569 3.66667 2.20295 3.66667 2.66903C3.66667 3.1351 3.29941 3.50236 2.83333 3.50236C2.36726 3.50236 2 3.1351 2 2.66903C2 2.20295 2.36726 1.83569 2.83333 1.83569ZM6.66667 2.50236C6.60796 2.50236 6.55159 2.50357 6.4974 2.50496C6.4305 2.5047 6.36423 2.51787 6.30251 2.54369C6.24079 2.5695 6.18488 2.60744 6.13808 2.65525C6.09129 2.70306 6.05457 2.75977 6.03009 2.82203C6.00561 2.88429 5.99387 2.95083 5.99557 3.01771C5.99727 3.08459 6.01237 3.15045 6.03998 3.21138C6.06759 3.27232 6.10714 3.3271 6.15631 3.37247C6.20547 3.41784 6.26323 3.45289 6.32618 3.47554C6.38913 3.49818 6.45599 3.50797 6.52279 3.50431C6.5726 3.50304 6.6207 3.50236 6.66667 3.50236C8.24098 3.50236 9.61273 4.33819 10.373 5.58895C10.4072 5.64509 10.452 5.69397 10.505 5.73278C10.558 5.7716 10.6181 5.79959 10.6819 5.81517C10.7457 5.83075 10.812 5.8336 10.8769 5.82356C10.9418 5.81353 11.0041 5.7908 11.0603 5.75669C11.1164 5.72257 11.1653 5.67773 11.2041 5.62472C11.2429 5.57172 11.2709 5.51159 11.2864 5.44777C11.302 5.38394 11.3048 5.31768 11.2948 5.25277C11.2847 5.18785 11.262 5.12555 11.2279 5.06942C10.2922 3.53018 8.59569 2.50236 6.66667 2.50236ZM1.16667 5.16903C0.528348 5.16903 0 5.69738 0 6.33569V6.83569C0 7.82491 0.995533 8.83569 2.83333 8.83569C4.67113 8.83569 5.66667 7.82491 5.66667 6.83569V6.33569C5.66667 5.69738 5.13832 5.16903 4.5 5.16903H1.16667ZM1.16667 6.16903H4.5C4.59835 6.16903 4.66667 6.23735 4.66667 6.33569V6.83569C4.66667 7.13514 4.32887 7.83569 2.83333 7.83569C1.3378 7.83569 1 7.13514 1 6.83569V6.33569C1 6.23735 1.06832 6.16903 1.16667 6.16903ZM11.1667 6.83569C10.1601 6.83569 9.33333 7.66244 9.33333 8.66903C9.33333 9.67562 10.1601 10.5024 11.1667 10.5024C12.1733 10.5024 13 9.67562 13 8.66903C13 7.66244 12.1733 6.83569 11.1667 6.83569ZM11.1667 7.83569C11.6327 7.83569 12 8.20295 12 8.66903C12 9.1351 11.6327 9.50236 11.1667 9.50236C10.7006 9.50236 10.3333 9.1351 10.3333 8.66903C10.3333 8.20295 10.7006 7.83569 11.1667 7.83569ZM2.21549 9.83634C2.12452 9.83272 2.03428 9.854 1.95452 9.89789C1.87475 9.94178 1.80848 10.0066 1.76285 10.0854C1.71723 10.1642 1.69398 10.254 1.69562 10.345C1.69725 10.436 1.72371 10.5249 1.77214 10.602C2.70782 12.1412 4.40431 13.169 6.33333 13.169C6.39204 13.169 6.44842 13.1678 6.5026 13.1664C6.5695 13.1667 6.63577 13.1535 6.69749 13.1277C6.75921 13.1019 6.81512 13.064 6.86192 13.0161C6.90871 12.9683 6.94543 12.9116 6.96991 12.8494C6.99439 12.7871 7.00613 12.7206 7.00443 12.6537C7.00273 12.5868 6.98763 12.5209 6.96002 12.46C6.93241 12.3991 6.89285 12.3443 6.84369 12.2989C6.79453 12.2535 6.73677 12.2185 6.67382 12.1958C6.61087 12.1732 6.54401 12.1634 6.47721 12.1671C6.4274 12.1683 6.3793 12.169 6.33333 12.169C4.75902 12.169 3.38727 11.3332 2.62695 10.0824C2.58447 10.0102 2.52453 9.94986 2.45264 9.90686C2.38075 9.86386 2.2992 9.83962 2.21549 9.83634ZM9.5 11.169C8.86168 11.169 8.33333 11.6974 8.33333 12.3357V12.8357C8.33333 13.8249 9.32887 14.8357 11.1667 14.8357C13.0045 14.8357 14 13.8249 14 12.8357V12.3357C14 11.6974 13.4717 11.169 12.8333 11.169H9.5ZM9.5 12.169H12.8333C12.9317 12.169 13 12.2373 13 12.3357V12.8357C13 13.1351 12.6622 13.8357 11.1667 13.8357C9.67113 13.8357 9.33333 13.1351 9.33333 12.8357V12.3357C9.33333 12.2373 9.40165 12.169 9.5 12.169Z" fill="black"/>
</svg>
