<svg width="14" height="15" viewBox="0 0 14 15" fill="none" xmlns="http://www.w3.org/2000/svg">
<g clip-path="url(#clip0_725_8518)">
<path d="M7 0.965088C6.34375 0.965088 5.78509 1.23008 5.42637 1.63364C5.06765 2.0372 4.9 2.55467 4.9 3.06509C4.9 3.5755 5.06765 4.09298 5.42637 4.49653C5.78509 4.90009 6.34375 5.16509 7 5.16509C7.65625 5.16509 8.21491 4.90009 8.57363 4.49653C8.93235 4.09298 9.1 3.5755 9.1 3.06509C9.1 2.55467 8.93235 2.0372 8.57363 1.63364C8.21491 1.23008 7.65625 0.965088 7 0.965088ZM2.45 1.66509C1.91042 1.66509 1.43925 1.88633 1.13887 2.22427C0.838482 2.5622 0.7 2.99217 0.7 3.41509C0.7 3.838 0.838482 4.26798 1.13887 4.60591C1.43925 4.94384 1.91042 5.16509 2.45 5.16509C2.98958 5.16509 3.46075 4.94384 3.76113 4.60591C4.06152 4.26798 4.2 3.838 4.2 3.41509C4.2 2.99217 4.06152 2.5622 3.76113 2.22427C3.46075 1.88633 2.98958 1.66509 2.45 1.66509ZM11.55 1.66509C11.0104 1.66509 10.5393 1.88633 10.2389 2.22427C9.93848 2.5622 9.8 2.99217 9.8 3.41509C9.8 3.838 9.93848 4.26798 10.2389 4.60591C10.5393 4.94384 11.0104 5.16509 11.55 5.16509C12.0896 5.16509 12.5607 4.94384 12.8611 4.60591C13.1615 4.26798 13.3 3.838 13.3 3.41509C13.3 2.99217 13.1615 2.5622 12.8611 2.22427C12.5607 1.88633 12.0896 1.66509 11.55 1.66509ZM7 2.01509C7.39375 2.01509 7.62259 2.14384 7.78887 2.33091C7.95515 2.51798 8.05 2.788 8.05 3.06509C8.05 3.34217 7.95515 3.6122 7.78887 3.79927C7.62259 3.98633 7.39375 4.11509 7 4.11509C6.60625 4.11509 6.37741 3.98633 6.21113 3.79927C6.04485 3.6122 5.95 3.34217 5.95 3.06509C5.95 2.788 6.04485 2.51798 6.21113 2.33091C6.37741 2.14384 6.60625 2.01509 7 2.01509ZM2.45 2.71509C2.72708 2.71509 2.86842 2.80009 2.97637 2.92153C3.08432 3.04298 3.15 3.2255 3.15 3.41509C3.15 3.60467 3.08432 3.7872 2.97637 3.90864C2.86842 4.03008 2.72708 4.11509 2.45 4.11509C2.17292 4.11509 2.03158 4.03008 1.92363 3.90864C1.81568 3.7872 1.75 3.60467 1.75 3.41509C1.75 3.2255 1.81568 3.04298 1.92363 2.92153C2.03158 2.80009 2.17292 2.71509 2.45 2.71509ZM11.55 2.71509C11.8271 2.71509 11.9684 2.80009 12.0764 2.92153C12.1843 3.04298 12.25 3.2255 12.25 3.41509C12.25 3.60467 12.1843 3.7872 12.0764 3.90864C11.9684 4.03008 11.8271 4.11509 11.55 4.11509C11.2729 4.11509 11.1316 4.03008 11.0236 3.90864C10.9157 3.7872 10.85 3.60467 10.85 3.41509C10.85 3.2255 10.9157 3.04298 11.0236 2.92153C11.1316 2.80009 11.2729 2.71509 11.55 2.71509ZM1.225 5.86509C0.5495 5.86509 0 6.41459 0 7.09009V9.36509C0 10.9086 1.2565 12.1651 2.8 12.1651C3.0485 12.1651 3.29019 12.1338 3.52119 12.0708C3.37419 11.7558 3.26555 11.4194 3.20605 11.0659C3.07655 11.0974 2.94 11.1151 2.8 11.1151C1.834 11.1151 1.05 10.3311 1.05 9.36509V7.09009C1.05 6.99209 1.127 6.91509 1.225 6.91509H3.16025C3.19525 6.51609 3.34942 6.15559 3.59092 5.86509H1.225ZM5.075 5.86509C4.40477 5.86509 3.85 6.41985 3.85 7.09009V10.4151C3.85 12.1485 5.26655 13.5651 7 13.5651C8.73345 13.5651 10.15 12.1485 10.15 10.4151V7.09009C10.15 6.41985 9.59523 5.86509 8.925 5.86509H5.075ZM10.4091 5.86509C10.6506 6.15559 10.8047 6.51609 10.8397 6.91509H12.775C12.873 6.91509 12.95 6.99209 12.95 7.09009V9.36509C12.95 10.3311 12.166 11.1151 11.2 11.1151C11.06 11.1151 10.9234 11.0974 10.7939 11.0659C10.7344 11.4194 10.6258 11.7558 10.4788 12.0708C10.7098 12.1338 10.9515 12.1651 11.2 12.1651C12.7435 12.1651 14 10.9086 14 9.36509V7.09009C14 6.41459 13.4505 5.86509 12.775 5.86509H10.4091ZM5.075 6.91509H8.925C9.02827 6.91509 9.1 6.98682 9.1 7.09009V10.4151C9.1 11.581 8.16595 12.5151 7 12.5151C5.83405 12.5151 4.9 11.581 4.9 10.4151V7.09009C4.9 6.98682 4.97173 6.91509 5.075 6.91509Z" fill="black"/>
</g>
<defs>
<clipPath id="clip0_725_8518">
<rect width="14" height="14" fill="white" transform="translate(0 0.23584)"/>
</clipPath>
</defs>
</svg>
