<svg width="14" height="16" viewBox="0 0 14 16" fill="none" xmlns="http://www.w3.org/2000/svg">
<path d="M6.6 0.773529C4.67322 0.773529 3.1 2.34675 3.1 4.27353C3.1 6.20031 4.67322 7.77353 6.6 7.77353C8.52678 7.77353 10.1 6.20031 10.1 4.27353C10.1 2.34675 8.52678 0.773529 6.6 0.773529ZM6.6 1.82353C7.95932 1.82353 9.05 2.91421 9.05 4.27353C9.05 5.63285 7.95932 6.72353 6.6 6.72353C5.24068 6.72353 4.15 5.63285 4.15 4.27353C4.15 2.91421 5.24068 1.82353 6.6 1.82353ZM2.39248 9.17353C1.62955 9.17353 1 9.80308 1 10.566V11.0985C1 12.36 1.79774 13.3358 2.85732 13.9204C3.9169 14.505 5.25884 14.7735 6.6 14.7735C7.94116 14.7735 9.2831 14.505 10.3427 13.9204C11.4021 13.3359 12.1997 12.3603 12.2 11.0992L12.2007 10.5667V10.566C12.2007 9.80309 11.5705 9.17353 10.8075 9.17353H2.39248ZM2.39248 10.2235H10.8075C11.0029 10.2235 11.1507 10.3706 11.1507 10.566L11.15 11.0985C11.15 11.9371 10.679 12.5362 9.83545 13.0017C8.9919 13.4671 7.79634 13.7235 6.6 13.7235C5.40366 13.7235 4.2081 13.4671 3.36455 13.0017C2.52101 12.5362 2.05 11.9371 2.05 11.0985V10.566C2.05 10.3706 2.19711 10.2235 2.39248 10.2235ZM7.825 10.9235C7.75543 10.9225 7.68636 10.9354 7.6218 10.9613C7.55724 10.9873 7.49849 11.0258 7.44894 11.0746C7.3994 11.1235 7.36006 11.1817 7.3332 11.2459C7.30635 11.3101 7.29252 11.379 7.29252 11.4485C7.29252 11.5181 7.30635 11.587 7.3332 11.6512C7.36006 11.7154 7.3994 11.7736 7.44894 11.8224C7.49849 11.8713 7.55724 11.9098 7.6218 11.9357C7.68636 11.9617 7.75543 11.9745 7.825 11.9735H9.225C9.29457 11.9745 9.36364 11.9617 9.4282 11.9357C9.49276 11.9098 9.55151 11.8713 9.60106 11.8224C9.6506 11.7736 9.68994 11.7154 9.7168 11.6512C9.74365 11.587 9.75748 11.5181 9.75748 11.4485C9.75748 11.379 9.74365 11.3101 9.7168 11.2459C9.68994 11.1817 9.6506 11.1235 9.60106 11.0746C9.55151 11.0258 9.49276 10.9873 9.4282 10.9613C9.36364 10.9354 9.29457 10.9225 9.225 10.9235H7.825Z" fill="black"/>
</svg>
