<svg width="14" height="15" viewBox="0 0 14 15" fill="none" xmlns="http://www.w3.org/2000/svg">
<g clip-path="url(#clip0_1616_9906)">
<path d="M4.69323 0.173553C2.94161 0.173553 1.51141 1.60376 1.51141 3.35537C1.51141 5.10699 2.94161 6.53719 4.69323 6.53719C6.44484 6.53719 7.87504 5.10699 7.87504 3.35537C7.87504 1.60376 6.44484 0.173553 4.69323 0.173553ZM4.69323 1.1281C5.92897 1.1281 6.9205 2.11963 6.9205 3.35537C6.9205 4.59111 5.92897 5.58264 4.69323 5.58264C3.45748 5.58264 2.46595 4.59111 2.46595 3.35537C2.46595 2.11963 3.45748 1.1281 4.69323 1.1281ZM10.4205 7.17355C8.48754 7.17355 6.9205 8.7406 6.9205 10.6736C6.9205 12.6065 8.48754 14.1736 10.4205 14.1736C12.3535 14.1736 13.9205 12.6065 13.9205 10.6736C13.9205 8.7406 12.3535 7.17355 10.4205 7.17355ZM1.26407 7.80992C0.610844 7.80992 0.0795898 8.37772 0.0795898 9.07581V9.55992C0.0795898 10.6039 0.619032 11.5111 1.59903 12.1141C2.42344 12.6216 3.52232 12.9008 4.69323 12.9008C5.39004 12.9008 6.10325 12.7977 6.75457 12.5858C6.60821 12.3054 6.49543 12.0055 6.41588 11.6921C5.87593 11.862 5.27773 11.9463 4.69323 11.9463C2.93082 11.9463 1.03414 11.1995 1.03414 9.55992V9.07581C1.03414 8.90685 1.13934 8.76446 1.26407 8.76446H6.75333C6.93628 8.41351 7.1683 8.09278 7.44003 7.80992H1.26407ZM8.82959 8.76446C8.91096 8.76446 8.99235 8.79548 9.05455 8.85768L10.4205 10.2236L11.7864 8.85768C11.9109 8.73327 12.112 8.73327 12.2364 8.85768C12.3608 8.98209 12.3608 9.1832 12.2364 9.30761L10.8704 10.6736L12.2364 12.0395C12.3608 12.1639 12.3608 12.365 12.2364 12.4894C12.1743 12.5515 12.0929 12.5826 12.0114 12.5826C11.93 12.5826 11.8485 12.5515 11.7864 12.4894L10.4205 11.1235L9.05455 12.4894C8.99251 12.5515 8.91104 12.5826 8.82959 12.5826C8.74814 12.5826 8.66667 12.5515 8.60462 12.4894C8.48022 12.365 8.48022 12.1639 8.60462 12.0395L9.97057 10.6736L8.60462 9.30761C8.48022 9.1832 8.48022 8.98209 8.60462 8.85768C8.66683 8.79548 8.74821 8.76446 8.82959 8.76446Z" fill="black"/>
</g>
<defs>
<clipPath id="clip0_1616_9906">
<rect width="14" height="14" fill="white" transform="translate(0 0.173553)"/>
</clipPath>
</defs>
</svg>
