<svg width="14" height="15" viewBox="0 0 14 15" fill="none" xmlns="http://www.w3.org/2000/svg">
<g clip-path="url(#clip0_725_8518)">
<path d="M7 0.902718C6.34375 0.902718 5.78509 1.16771 5.42637 1.57127C5.06765 1.97483 4.9 2.4923 4.9 3.00272C4.9 3.51313 5.06765 4.03061 5.42637 4.43416C5.78509 4.83772 6.34375 5.10272 7 5.10272C7.65625 5.10272 8.21491 4.83772 8.57363 4.43416C8.93235 4.03061 9.1 3.51313 9.1 3.00272C9.1 2.4923 8.93235 1.97483 8.57363 1.57127C8.21491 1.16771 7.65625 0.902718 7 0.902718ZM2.45 1.60272C1.91042 1.60272 1.43925 1.82396 1.13887 2.1619C0.838482 2.49983 0.7 2.9298 0.7 3.35272C0.7 3.77563 0.838482 4.20561 1.13887 4.54354C1.43925 4.88147 1.91042 5.10272 2.45 5.10272C2.98958 5.10272 3.46075 4.88147 3.76113 4.54354C4.06152 4.20561 4.2 3.77563 4.2 3.35272C4.2 2.9298 4.06152 2.49983 3.76113 2.1619C3.46075 1.82396 2.98958 1.60272 2.45 1.60272ZM11.55 1.60272C11.0104 1.60272 10.5393 1.82396 10.2389 2.1619C9.93848 2.49983 9.8 2.9298 9.8 3.35272C9.8 3.77563 9.93848 4.20561 10.2389 4.54354C10.5393 4.88147 11.0104 5.10272 11.55 5.10272C12.0896 5.10272 12.5607 4.88147 12.8611 4.54354C13.1615 4.20561 13.3 3.77563 13.3 3.35272C13.3 2.9298 13.1615 2.49983 12.8611 2.1619C12.5607 1.82396 12.0896 1.60272 11.55 1.60272ZM7 1.95272C7.39375 1.95272 7.62259 2.08147 7.78887 2.26854C7.95515 2.45561 8.05 2.72563 8.05 3.00272C8.05 3.2798 7.95515 3.54983 7.78887 3.7369C7.62259 3.92396 7.39375 4.05272 7 4.05272C6.60625 4.05272 6.37741 3.92396 6.21113 3.7369C6.04485 3.54983 5.95 3.2798 5.95 3.00272C5.95 2.72563 6.04485 2.45561 6.21113 2.26854C6.37741 2.08147 6.60625 1.95272 7 1.95272ZM2.45 2.65272C2.72708 2.65272 2.86842 2.73772 2.97637 2.85916C3.08432 2.9806 3.15 3.16313 3.15 3.35272C3.15 3.5423 3.08432 3.72483 2.97637 3.84627C2.86842 3.96771 2.72708 4.05272 2.45 4.05272C2.17292 4.05272 2.03158 3.96771 1.92363 3.84627C1.81568 3.72483 1.75 3.5423 1.75 3.35272C1.75 3.16313 1.81568 2.9806 1.92363 2.85916C2.03158 2.73772 2.17292 2.65272 2.45 2.65272ZM11.55 2.65272C11.8271 2.65272 11.9684 2.73772 12.0764 2.85916C12.1843 2.9806 12.25 3.16313 12.25 3.35272C12.25 3.5423 12.1843 3.72483 12.0764 3.84627C11.9684 3.96771 11.8271 4.05272 11.55 4.05272C11.2729 4.05272 11.1316 3.96771 11.0236 3.84627C10.9157 3.72483 10.85 3.5423 10.85 3.35272C10.85 3.16313 10.9157 2.9806 11.0236 2.85916C11.1316 2.73772 11.2729 2.65272 11.55 2.65272ZM1.225 5.80272C0.5495 5.80272 0 6.35222 0 7.02772V9.30272C0 10.8462 1.2565 12.1027 2.8 12.1027C3.0485 12.1027 3.29019 12.0714 3.52119 12.0084C3.37419 11.6934 3.26555 11.357 3.20605 11.0035C3.07655 11.035 2.94 11.0527 2.8 11.0527C1.834 11.0527 1.05 10.2687 1.05 9.30272V7.02772C1.05 6.92972 1.127 6.85272 1.225 6.85272H3.16025C3.19525 6.45372 3.34942 6.09322 3.59092 5.80272H1.225ZM5.075 5.80272C4.40477 5.80272 3.85 6.35748 3.85 7.02772V10.3527C3.85 12.0862 5.26655 13.5027 7 13.5027C8.73345 13.5027 10.15 12.0862 10.15 10.3527V7.02772C10.15 6.35748 9.59523 5.80272 8.925 5.80272H5.075ZM10.4091 5.80272C10.6506 6.09322 10.8047 6.45372 10.8397 6.85272H12.775C12.873 6.85272 12.95 6.92972 12.95 7.02772V9.30272C12.95 10.2687 12.166 11.0527 11.2 11.0527C11.06 11.0527 10.9234 11.035 10.7939 11.0035C10.7344 11.357 10.6258 11.6934 10.4788 12.0084C10.7098 12.0714 10.9515 12.1027 11.2 12.1027C12.7435 12.1027 14 10.8462 14 9.30272V7.02772C14 6.35222 13.4505 5.80272 12.775 5.80272H10.4091ZM5.075 6.85272H8.925C9.02827 6.85272 9.1 6.92445 9.1 7.02772V10.3527C9.1 11.5187 8.16595 12.4527 7 12.4527C5.83405 12.4527 4.9 11.5187 4.9 10.3527V7.02772C4.9 6.92445 4.97173 6.85272 5.075 6.85272Z" fill="black"/>
</g>
<defs>
<clipPath id="clip0_725_8518">
<rect width="14" height="14" fill="white" transform="translate(0 0.173553)"/>
</clipPath>
</defs>
</svg>
