<svg width="14" height="15" viewBox="0 0 14 15" fill="none" xmlns="http://www.w3.org/2000/svg">
<path d="M4.61364 -0.313246C2.86202 -0.313246 1.43182 1.11696 1.43182 2.86857C1.43182 4.62019 2.86202 6.05039 4.61364 6.05039C6.36525 6.05039 7.79545 4.62019 7.79545 2.86857C7.79545 1.11696 6.36525 -0.313246 4.61364 -0.313246ZM4.61364 0.6413C5.84938 0.6413 6.84091 1.63283 6.84091 2.86857C6.84091 4.10431 5.84938 5.09585 4.61364 5.09585C3.37789 5.09585 2.38636 4.10431 2.38636 2.86857C2.38636 1.63283 3.37789 0.6413 4.61364 0.6413ZM10.3409 6.68675C8.40795 6.68675 6.84091 8.2538 6.84091 10.1868C6.84091 12.1197 8.40795 13.6868 10.3409 13.6868C12.2739 13.6868 13.8409 12.1197 13.8409 10.1868C13.8409 8.2538 12.2739 6.68675 10.3409 6.68675ZM1.18448 7.32312C0.531572 7.32312 0 7.89092 0 8.58901V9.07312C0 10.1171 0.539442 11.0243 1.51944 11.6273C2.34385 12.1348 3.44273 12.414 4.61364 12.414C5.31045 12.414 6.02366 12.3109 6.67498 12.099C6.52862 11.8186 6.41584 11.5187 6.33629 11.2053C5.79634 11.3752 5.19814 11.4595 4.61364 11.4595C2.85123 11.4595 0.954545 10.7127 0.954545 9.07312V8.58901C0.954545 8.42005 1.06007 8.27766 1.18448 8.27766H6.67374C6.85669 7.92671 7.08871 7.60598 7.36044 7.32312H1.18448ZM10.3409 7.6413C10.5165 7.6413 10.6591 7.78384 10.6591 7.95948V9.86857H12.5682C12.7438 9.86857 12.8864 10.0111 12.8864 10.1868C12.8864 10.3624 12.7438 10.5049 12.5682 10.5049H10.6591V12.414C10.6591 12.5897 10.5165 12.7322 10.3409 12.7322C10.1653 12.7322 10.0227 12.5897 10.0227 12.414V10.5049H8.11364C7.938 10.5049 7.79545 10.3624 7.79545 10.1868C7.79545 10.0111 7.938 9.86857 8.11364 9.86857H10.0227V7.95948C10.0227 7.78384 10.1653 7.6413 10.3409 7.6413Z" fill="black"/>
</svg>
