<svg width="14" height="16" viewBox="0 0 14 16" fill="none" xmlns="http://www.w3.org/2000/svg">
<path d="M6.6 0.835693C4.67322 0.835693 3.1 2.40892 3.1 4.33569C3.1 6.26247 4.67322 7.83569 6.6 7.83569C8.52678 7.83569 10.1 6.26247 10.1 4.33569C10.1 2.40892 8.52678 0.835693 6.6 0.835693ZM6.6 1.88569C7.95932 1.88569 9.05 2.97638 9.05 4.33569C9.05 5.69501 7.95932 6.78569 6.6 6.78569C5.24068 6.78569 4.15 5.69501 4.15 4.33569C4.15 2.97638 5.24068 1.88569 6.6 1.88569ZM2.39248 9.23569C1.62955 9.23569 1 9.86524 1 10.6282V11.1607C1 12.4222 1.79774 13.398 2.85732 13.9826C3.9169 14.5672 5.25884 14.8357 6.6 14.8357C7.94116 14.8357 9.2831 14.5672 10.3427 13.9826C11.2461 13.4841 11.9261 12.6876 12.1166 11.6857H12.2007V10.6282C12.2007 9.86524 11.5705 9.23569 10.8075 9.23569H2.39248ZM2.39248 10.2857H10.8075C11.0029 10.2857 11.1507 10.4328 11.1507 10.6282V10.6357H11.15V11.1607C11.15 11.9992 10.679 12.5984 9.83545 13.0638C8.9919 13.5292 7.79634 13.7857 6.6 13.7857C5.40366 13.7857 4.2081 13.5292 3.36455 13.0638C2.52101 12.5984 2.05 11.9992 2.05 11.1607V10.6282C2.05 10.4328 2.19711 10.2857 2.39248 10.2857Z" fill="black"/>
</svg>
