<svg width="14" height="16" viewBox="0 0 14 16" fill="none" xmlns="http://www.w3.org/2000/svg">
<path d="M4.61364 0.77356C2.86202 0.77356 1.43182 2.20376 1.43182 3.95538C1.43182 5.70699 2.86202 7.1372 4.61364 7.1372C6.36525 7.1372 7.79545 5.70699 7.79545 3.95538C7.79545 2.20376 6.36525 0.77356 4.61364 0.77356ZM4.61364 1.72811C5.84938 1.72811 6.84091 2.71964 6.84091 3.95538C6.84091 5.19112 5.84938 6.18265 4.61364 6.18265C3.37789 6.18265 2.38636 5.19112 2.38636 3.95538C2.38636 2.71964 3.37789 1.72811 4.61364 1.72811ZM10.3409 7.77356C8.40795 7.77356 6.84091 9.3406 6.84091 11.2736C6.84091 13.2065 8.40795 14.7736 10.3409 14.7736C12.2739 14.7736 13.8409 13.2065 13.8409 11.2736C13.8409 9.3406 12.2739 7.77356 10.3409 7.77356ZM1.18448 8.40992C0.531572 8.40992 0 8.97772 0 9.67581V10.1599C0 11.2039 0.539442 12.1111 1.51944 12.7141C2.34385 13.2216 3.44273 13.5008 4.61364 13.5008C5.31045 13.5008 6.02366 13.3977 6.67498 13.1858C6.52862 12.9054 6.41584 12.6055 6.33629 12.2921C5.79634 12.462 5.19814 12.5463 4.61364 12.5463C2.85123 12.5463 0.954545 11.7995 0.954545 10.1599V9.67581C0.954545 9.50686 1.06007 9.36447 1.18448 9.36447H6.67374C6.85669 9.01351 7.08871 8.69279 7.36044 8.40992H1.18448ZM10.3409 8.72811C10.5165 8.72811 10.6591 8.87065 10.6591 9.04629V10.9554H12.5682C12.7438 10.9554 12.8864 11.0979 12.8864 11.2736C12.8864 11.4492 12.7438 11.5917 12.5682 11.5917H10.6591V13.5008C10.6591 13.6765 10.5165 13.819 10.3409 13.819C10.1653 13.819 10.0227 13.6765 10.0227 13.5008V11.5917H8.11364C7.938 11.5917 7.79545 11.4492 7.79545 11.2736C7.79545 11.0979 7.938 10.9554 8.11364 10.9554H10.0227V9.04629C10.0227 8.87065 10.1653 8.72811 10.3409 8.72811Z" fill="black"/>
</svg>
