<svg width="14" height="15" viewBox="0 0 14 15" fill="none" xmlns="http://www.w3.org/2000/svg">
<path d="M6.99988 0.773533C6.34363 0.773533 5.78496 1.03853 5.42625 1.44209C5.06753 1.84565 4.89988 2.36312 4.89988 2.87353C4.89988 3.38395 5.06753 3.90142 5.42625 4.30498C5.78496 4.70854 6.34363 4.97353 6.99988 4.97353C7.65613 4.97353 8.21479 4.70854 8.57351 4.30498C8.93223 3.90142 9.09988 3.38395 9.09988 2.87353C9.09988 2.36312 8.93223 1.84565 8.57351 1.44209C8.21479 1.03853 7.65613 0.773533 6.99988 0.773533ZM2.44988 1.47353C1.91029 1.47353 1.43913 1.69478 1.13875 2.03271C0.83836 2.37065 0.699878 2.80062 0.699878 3.22353C0.699878 3.64645 0.83836 4.07642 1.13875 4.41435C1.43913 4.75229 1.91029 4.97353 2.44988 4.97353C2.98946 4.97353 3.46063 4.75229 3.76101 4.41435C4.0614 4.07642 4.19988 3.64645 4.19988 3.22353C4.19988 2.80062 4.0614 2.37065 3.76101 2.03271C3.46063 1.69478 2.98946 1.47353 2.44988 1.47353ZM11.5499 1.47353C11.0103 1.47353 10.5391 1.69478 10.2387 2.03271C9.93836 2.37065 9.79988 2.80062 9.79988 3.22353C9.79988 3.64645 9.93836 4.07642 10.2387 4.41435C10.5391 4.75229 11.0103 4.97353 11.5499 4.97353C12.0895 4.97353 12.5606 4.75229 12.861 4.41435C13.1614 4.07642 13.2999 3.64645 13.2999 3.22353C13.2999 2.80062 13.1614 2.37065 12.861 2.03271C12.5606 1.69478 12.0895 1.47353 11.5499 1.47353ZM6.99988 1.82353C7.39363 1.82353 7.62246 1.95229 7.78874 2.13935C7.95503 2.32642 8.04988 2.59645 8.04988 2.87353C8.04988 3.15062 7.95503 3.42065 7.78874 3.60771C7.62246 3.79478 7.39363 3.92353 6.99988 3.92353C6.60613 3.92353 6.37729 3.79478 6.21101 3.60771C6.04473 3.42065 5.94988 3.15062 5.94988 2.87353C5.94988 2.59645 6.04473 2.32642 6.21101 2.13935C6.37729 1.95229 6.60613 1.82353 6.99988 1.82353ZM2.44988 2.52353C2.72696 2.52353 2.8683 2.60854 2.97625 2.72998C3.08419 2.85142 3.14988 3.03395 3.14988 3.22353C3.14988 3.41312 3.08419 3.59565 2.97625 3.71709C2.8683 3.83853 2.72696 3.92353 2.44988 3.92353C2.17279 3.92353 2.03146 3.83853 1.92351 3.71709C1.81556 3.59565 1.74988 3.41312 1.74988 3.22353C1.74988 3.03395 1.81556 2.85142 1.92351 2.72998C2.03146 2.60854 2.17279 2.52353 2.44988 2.52353ZM11.5499 2.52353C11.827 2.52353 11.9683 2.60854 12.0762 2.72998C12.1842 2.85142 12.2499 3.03395 12.2499 3.22353C12.2499 3.41312 12.1842 3.59565 12.0762 3.71709C11.9683 3.83853 11.827 3.92353 11.5499 3.92353C11.2728 3.92353 11.1315 3.83853 11.0235 3.71709C10.9156 3.59565 10.8499 3.41312 10.8499 3.22353C10.8499 3.03395 10.9156 2.85142 11.0235 2.72998C11.1315 2.60854 11.2728 2.52353 11.5499 2.52353ZM1.22488 5.67353C0.549378 5.67353 -0.00012207 6.22303 -0.00012207 6.89853V9.17353C-0.00012207 10.717 1.25638 11.9735 2.79988 11.9735C3.04838 11.9735 3.29007 11.9422 3.52107 11.8792C3.37407 11.5642 3.26543 11.2278 3.20593 10.8743C3.07643 10.9058 2.93988 10.9235 2.79988 10.9235C1.83388 10.9235 1.04988 10.1395 1.04988 9.17353V6.89853C1.04988 6.80053 1.12688 6.72353 1.22488 6.72353H3.16013C3.19513 6.32453 3.3493 5.96403 3.5908 5.67353H1.22488ZM5.07488 5.67353C4.40464 5.67353 3.84988 6.2283 3.84988 6.89853V10.2235C3.84988 11.957 5.26643 13.3735 6.99988 13.3735C8.73333 13.3735 10.1499 11.957 10.1499 10.2235V6.89853C10.1499 6.2283 9.59511 5.67353 8.92488 5.67353H5.07488ZM10.409 5.67353C10.6505 5.96403 10.8046 6.32453 10.8396 6.72353H12.7749C12.8729 6.72353 12.9499 6.80053 12.9499 6.89853V9.17353C12.9499 10.1395 12.1659 10.9235 11.1999 10.9235C11.0599 10.9235 10.9233 10.9058 10.7938 10.8743C10.7343 11.2278 10.6257 11.5642 10.4787 11.8792C10.7097 11.9422 10.9514 11.9735 11.1999 11.9735C12.7434 11.9735 13.9999 10.717 13.9999 9.17353V6.89853C13.9999 6.22303 13.4504 5.67353 12.7749 5.67353H10.409ZM5.07488 6.72353H6.32107L6.64236 7.36611C6.64376 7.36856 6.64574 7.3705 6.64714 7.37295C6.64679 7.37505 6.64544 7.37632 6.64509 7.37842L6.30398 9.34717C6.29138 9.41962 6.30977 9.49414 6.35457 9.55224L6.79207 10.121C6.84142 10.1857 6.91833 10.2235 6.99988 10.2235C7.08143 10.2235 7.15834 10.1857 7.20769 10.121L7.64519 9.55224C7.68999 9.49414 7.70838 9.41962 7.69578 9.34717L7.35466 7.37842C7.35431 7.37632 7.35331 7.37505 7.35261 7.37295C7.35401 7.3705 7.356 7.36891 7.3574 7.36611L7.678 6.72353H8.92488C9.02814 6.72353 9.09988 6.79527 9.09988 6.89853V10.2235C9.09988 11.3895 8.16583 12.3235 6.99988 12.3235C5.83393 12.3235 4.89988 11.3895 4.89988 10.2235V6.89853C4.89988 6.79527 4.97161 6.72353 5.07488 6.72353Z" fill="black"/>
</svg>
