<svg width="14" height="15" viewBox="0 0 14 15" fill="none" xmlns="http://www.w3.org/2000/svg">
<g clip-path="url(#clip0_1830_10117)">
<path d="M10.6654 0.173553C10.0756 0.173553 9.59749 0.655741 9.59749 1.24923C9.59749 1.84395 10.0756 2.32611 10.6654 2.32611C11.2568 2.32611 11.7346 1.84395 11.7346 1.24923C11.7346 0.655741 11.2568 0.173553 10.6654 0.173553ZM6.54391 2.0186C5.86981 2.0186 5.32331 2.56967 5.32331 3.24803C5.32331 3.92763 5.86981 4.47867 6.54391 4.47867C7.21953 4.47867 7.7657 3.92763 7.7657 3.24803C7.7657 2.56967 7.21953 2.0186 6.54391 2.0186ZM3.64894 3.24203C3.53548 3.24106 3.4257 3.28254 3.34088 3.35843C3.25605 3.43433 3.20221 3.53924 3.1898 3.65284L2.8845 6.1129C2.87635 6.17959 2.88277 6.24727 2.9033 6.3112C2.92383 6.37514 2.95797 6.43378 3.00335 6.48303C3.04873 6.53229 3.10424 6.57096 3.16601 6.59635C3.22777 6.62174 3.2943 6.63323 3.36093 6.63002L3.34543 6.63783L5.59939 6.32372L5.35789 8.35015C5.34775 8.39663 5.34358 8.44318 5.33822 8.49009L5.32331 8.48288L4.40741 11.0997L2.27032 12.3297L2.31206 12.3405L2.26198 12.3592C2.205 12.3799 2.15269 12.4119 2.10807 12.4532C2.06345 12.4945 2.02741 12.5443 2.00204 12.5997C1.97667 12.6552 1.96247 12.7151 1.96026 12.7761C1.95806 12.8371 1.96789 12.8979 1.9892 12.9551C2.0105 13.0122 2.04285 13.0645 2.08436 13.109C2.12588 13.1534 2.17575 13.1891 2.23107 13.2141C2.28639 13.239 2.34607 13.2526 2.40665 13.2541C2.46722 13.2556 2.5275 13.245 2.58397 13.2228L5.02636 12.3003C5.08803 12.2779 5.14421 12.2425 5.19112 12.1964C5.23803 12.1503 5.27457 12.0946 5.29826 12.033L5.32331 12.0222L6.46937 9.91231L7.49021 11.1658C7.49143 11.1673 7.49258 11.1693 7.49319 11.1712L6.5445 13.5598H6.57074C6.5324 13.6703 6.53722 13.7914 6.5842 13.8985C6.63119 14.0056 6.71683 14.0907 6.82379 14.1366C6.93075 14.1825 7.05103 14.1858 7.16026 14.1457C7.2695 14.1056 7.35952 14.0252 7.4121 13.9207L8.63448 11.4649C8.66146 11.4106 8.67756 11.3516 8.68186 11.2911C8.68616 11.2306 8.67857 11.1699 8.65953 11.1123C8.65395 11.0955 8.64707 11.0762 8.63627 11.0535L7.74781 8.81441C7.75602 8.75684 7.76567 8.69889 7.7657 8.63904L8.04476 5.93092L9.52653 5.39278C9.57761 5.38379 9.62681 5.36612 9.67202 5.34053L11.8091 4.1105C11.8613 4.08045 11.9072 4.04033 11.944 3.99243C11.9809 3.94454 12.008 3.88981 12.0238 3.83136C12.0396 3.77291 12.0439 3.71189 12.0363 3.65179C12.0287 3.59169 12.0095 3.53368 11.9796 3.48107C11.9498 3.42846 11.91 3.38229 11.8624 3.34518C11.8149 3.30808 11.7605 3.28077 11.7025 3.26482C11.6445 3.24887 11.5839 3.24459 11.5242 3.25222C11.4646 3.25985 11.407 3.27925 11.3547 3.3093L9.29517 4.49488L7.19982 4.77717C7.19663 4.77773 7.19345 4.77833 7.19028 4.77897C6.80778 4.83889 6.34393 4.92187 5.66081 5.1099L3.87612 5.55915L4.09854 3.76695C4.10752 3.70197 4.10264 3.63579 4.08422 3.57286C4.0658 3.50992 4.03426 3.45167 3.9917 3.40199C3.94915 3.3523 3.89656 3.31234 3.83746 3.28475C3.77835 3.25717 3.71408 3.2426 3.64894 3.24203Z" fill="black"/>
</g>
<defs>
<clipPath id="clip0_1830_10117">
<rect width="14" height="14" fill="white" transform="translate(0 0.173553)"/>
</clipPath>
</defs>
</svg>
