<svg width="14" height="15" viewBox="0 0 14 15" fill="none" xmlns="http://www.w3.org/2000/svg">
<path d="M2.76792 -0.313215C1.85986 -0.313215 1.11188 0.434759 1.11188 1.34282V12.567H0.559873C0.486725 12.566 0.414101 12.5795 0.346221 12.6068C0.278341 12.6341 0.21656 12.6746 0.164466 12.7259C0.112373 12.7773 0.0710078 12.8385 0.0427737 12.906C0.0145396 12.9735 0 13.0459 0 13.1191C0 13.1922 0.0145396 13.2646 0.0427737 13.3321C0.0710078 13.3996 0.112373 13.4608 0.164466 13.5122C0.21656 13.5635 0.278341 13.604 0.346221 13.6313C0.414101 13.6586 0.486725 13.6721 0.559873 13.6711H13.4401C13.5133 13.6721 13.5859 13.6586 13.6538 13.6313C13.7217 13.604 13.7834 13.5635 13.8355 13.5122C13.8876 13.4608 13.929 13.3996 13.9572 13.3321C13.9855 13.2646 14 13.1922 14 13.1191C14 13.0459 13.9855 12.9735 13.9572 12.906C13.929 12.8385 13.8876 12.7773 13.8355 12.7259C13.7834 12.6746 13.7217 12.6341 13.6538 12.6068C13.5859 12.5795 13.5133 12.566 13.4401 12.567H12.8881V1.34282C12.8881 0.434759 12.1401 -0.313215 11.2321 -0.313215H2.76792ZM2.76792 0.790807H11.2321C11.5436 0.790807 11.7841 1.0313 11.7841 1.34282V12.567H2.21591V1.34282C2.21591 1.0313 2.4564 0.790807 2.76792 0.790807ZM10.123 2.99094C9.97725 2.99439 9.83875 3.05537 9.73777 3.16057L9.20805 3.6903L8.67832 3.16057C8.62686 3.10758 8.5653 3.06546 8.49727 3.03669C8.42924 3.00793 8.35614 2.9931 8.28228 2.9931C8.17242 2.99313 8.06507 3.02593 7.97396 3.08731C7.88284 3.14869 7.81212 3.23586 7.77083 3.33766C7.72953 3.43947 7.71955 3.55127 7.74216 3.65878C7.76477 3.76629 7.81894 3.8646 7.89774 3.94115L8.42747 4.47088L7.89774 5.00061C7.84476 5.05147 7.80246 5.1124 7.77333 5.17981C7.74419 5.24723 7.7288 5.31978 7.72805 5.39322C7.72731 5.46666 7.74122 5.53951 7.76898 5.60751C7.79674 5.6755 7.83779 5.73727 7.88972 5.7892C7.94165 5.84114 8.00342 5.88218 8.07142 5.90994C8.13941 5.9377 8.21226 5.95162 8.2857 5.95087C8.35914 5.95013 8.43169 5.93473 8.49911 5.9056C8.56653 5.87646 8.62745 5.83416 8.67832 5.78119L9.20805 5.25146L9.73777 5.78119C9.78864 5.83416 9.84956 5.87646 9.91698 5.9056C9.9844 5.93473 10.0569 5.95013 10.1304 5.95087C10.2038 5.95162 10.2767 5.9377 10.3447 5.90994C10.4127 5.88218 10.4744 5.84114 10.5264 5.7892C10.5783 5.73727 10.6193 5.6755 10.6471 5.60751C10.6749 5.53951 10.6888 5.46666 10.688 5.39322C10.6873 5.31978 10.6719 5.24723 10.6428 5.17981C10.6136 5.1124 10.5713 5.05147 10.5184 5.00061L9.98862 4.47088L10.5184 3.94115C10.5986 3.8641 10.6537 3.7646 10.6765 3.65569C10.6992 3.54677 10.6885 3.43353 10.6458 3.3308C10.603 3.22807 10.5303 3.14065 10.437 3.08001C10.3437 3.01936 10.2343 2.98832 10.123 2.99094ZM3.87194 3.91887C3.79879 3.91783 3.72617 3.93135 3.65829 3.95863C3.59041 3.9859 3.52863 4.0264 3.47653 4.07776C3.42444 4.12912 3.38307 4.19032 3.35484 4.25781C3.32661 4.3253 3.31207 4.39772 3.31207 4.47088C3.31207 4.54403 3.32661 4.61646 3.35484 4.68395C3.38307 4.75144 3.42444 4.81264 3.47653 4.864C3.52863 4.91536 3.59041 4.95586 3.65829 4.98313C3.72617 5.01041 3.79879 5.02393 3.87194 5.02289H6.44799C6.52114 5.02393 6.59376 5.01041 6.66164 4.98313C6.72952 4.95586 6.7913 4.91536 6.8434 4.864C6.89549 4.81264 6.93686 4.75144 6.96509 4.68395C6.99332 4.61646 7.00786 4.54403 7.00786 4.47088C7.00786 4.39772 6.99332 4.3253 6.96509 4.25781C6.93686 4.19032 6.89549 4.12912 6.8434 4.07776C6.7913 4.0264 6.72952 3.9859 6.66164 3.95863C6.59376 3.93135 6.52114 3.91783 6.44799 3.91887H3.87194ZM8.28803 7.78295C8.14163 7.78296 8.00123 7.84112 7.89771 7.94464C7.79419 8.04816 7.73603 8.18856 7.73602 8.33496V10.175C7.73603 10.3214 7.79419 10.4618 7.89771 10.5653C8.00123 10.6688 8.14163 10.727 8.28803 10.727H10.1281C10.2745 10.727 10.4149 10.6688 10.5184 10.5653C10.6219 10.4618 10.6801 10.3214 10.6801 10.175V8.33496C10.6801 8.18856 10.6219 8.04816 10.5184 7.94464C10.4149 7.84112 10.2745 7.78296 10.1281 7.78295H8.28803ZM3.87194 8.70296C3.79879 8.70193 3.72617 8.71544 3.65829 8.74272C3.59041 8.77 3.52863 8.81049 3.47653 8.86185C3.42444 8.91322 3.38307 8.97442 3.35484 9.04191C3.32661 9.10939 3.31207 9.18182 3.31207 9.25497C3.31207 9.32813 3.32661 9.40056 3.35484 9.46804C3.38307 9.53553 3.42444 9.59673 3.47653 9.6481C3.52863 9.69946 3.59041 9.73995 3.65829 9.76723C3.72617 9.79451 3.79879 9.80802 3.87194 9.80699H6.44799C6.52114 9.80802 6.59376 9.79451 6.66164 9.76723C6.72952 9.73995 6.7913 9.69946 6.8434 9.6481C6.89549 9.59673 6.93686 9.53553 6.96509 9.46804C6.99332 9.40056 7.00786 9.32813 7.00786 9.25497C7.00786 9.18182 6.99332 9.10939 6.96509 9.04191C6.93686 8.97442 6.89549 8.91322 6.8434 8.86185C6.7913 8.81049 6.72952 8.77 6.66164 8.74272C6.59376 8.71544 6.52114 8.70193 6.44799 8.70296H3.87194ZM8.84004 8.88697H9.57605V9.62298H8.84004V8.88697Z" fill="black"/>
</svg>
