<svg width="14" height="15" viewBox="0 0 14 15" fill="none" xmlns="http://www.w3.org/2000/svg">
<path d="M2.76792 0.600006C1.85986 0.600006 1.11188 1.34798 1.11188 2.25604V13.4803H0.559873C0.486725 13.4792 0.414101 13.4927 0.346221 13.52C0.278341 13.5473 0.21656 13.5878 0.164466 13.6392C0.112373 13.6905 0.0710078 13.7517 0.0427737 13.8192C0.0145396 13.8867 0 13.9591 0 14.0323C0 14.1054 0.0145396 14.1779 0.0427737 14.2453C0.0710078 14.3128 0.112373 14.374 0.164466 14.4254C0.21656 14.4768 0.278341 14.5173 0.346221 14.5445C0.414101 14.5718 0.486725 14.5853 0.559873 14.5843H13.4401C13.5133 14.5853 13.5859 14.5718 13.6538 14.5445C13.7217 14.5173 13.7834 14.4768 13.8355 14.4254C13.8876 14.374 13.929 14.3128 13.9572 14.2453C13.9855 14.1779 14 14.1054 14 14.0323C14 13.9591 13.9855 13.8867 13.9572 13.8192C13.929 13.7517 13.8876 13.6905 13.8355 13.6392C13.7834 13.5878 13.7217 13.5473 13.6538 13.52C13.5859 13.4927 13.5133 13.4792 13.4401 13.4803H12.8881V2.25604C12.8881 1.34798 12.1401 0.600006 11.2321 0.600006H2.76792ZM2.76792 1.70403H11.2321C11.5436 1.70403 11.7841 1.94452 11.7841 2.25604V13.4803H2.21591V2.25604C2.21591 1.94452 2.4564 1.70403 2.76792 1.70403ZM10.123 3.90417C9.97725 3.90761 9.83875 3.96859 9.73777 4.07379L9.20805 4.60352L8.67832 4.07379C8.62686 4.02081 8.5653 3.97868 8.49727 3.94991C8.42924 3.92115 8.35614 3.90632 8.28228 3.90632C8.17242 3.90635 8.06507 3.93915 7.97396 4.00053C7.88284 4.06191 7.81212 4.14908 7.77083 4.25088C7.72953 4.35269 7.71955 4.46449 7.74216 4.572C7.76477 4.67951 7.81894 4.77782 7.89774 4.85437L8.42747 5.3841L7.89774 5.91383C7.84476 5.9647 7.80246 6.02562 7.77333 6.09304C7.74419 6.16045 7.7288 6.233 7.72805 6.30644C7.72731 6.37988 7.74122 6.45273 7.76898 6.52073C7.79674 6.58872 7.83779 6.65049 7.88972 6.70243C7.94165 6.75436 8.00342 6.79541 8.07142 6.82317C8.13941 6.85093 8.21226 6.86484 8.2857 6.86409C8.35914 6.86335 8.43169 6.84795 8.49911 6.81882C8.56653 6.78968 8.62745 6.74739 8.67832 6.69441L9.20805 6.16468L9.73777 6.69441C9.78864 6.74739 9.84956 6.78968 9.91698 6.81882C9.9844 6.84795 10.0569 6.86335 10.1304 6.86409C10.2038 6.86484 10.2767 6.85093 10.3447 6.82317C10.4127 6.79541 10.4744 6.75436 10.5264 6.70243C10.5783 6.65049 10.6193 6.58872 10.6471 6.52073C10.6749 6.45273 10.6888 6.37988 10.688 6.30644C10.6873 6.233 10.6719 6.16045 10.6428 6.09304C10.6136 6.02562 10.5713 5.9647 10.5184 5.91383L9.98862 5.3841L10.5184 4.85437C10.5986 4.77733 10.6537 4.67782 10.6765 4.56891C10.6992 4.45999 10.6885 4.34675 10.6458 4.24402C10.603 4.14129 10.5303 4.05387 10.437 3.99323C10.3437 3.93258 10.2343 3.90154 10.123 3.90417ZM3.87194 4.83209C3.79879 4.83106 3.72617 4.84457 3.65829 4.87185C3.59041 4.89912 3.52863 4.93962 3.47653 4.99098C3.42444 5.04234 3.38307 5.10355 3.35484 5.17103C3.32661 5.23852 3.31207 5.31095 3.31207 5.3841C3.31207 5.45726 3.32661 5.52968 3.35484 5.59717C3.38307 5.66466 3.42444 5.72586 3.47653 5.77722C3.52863 5.82858 3.59041 5.86908 3.65829 5.89636C3.72617 5.92363 3.79879 5.93715 3.87194 5.93611H6.44799C6.52114 5.93715 6.59376 5.92363 6.66164 5.89636C6.72952 5.86908 6.7913 5.82858 6.8434 5.77722C6.89549 5.72586 6.93686 5.66466 6.96509 5.59717C6.99332 5.52968 7.00786 5.45726 7.00786 5.3841C7.00786 5.31095 6.99332 5.23852 6.96509 5.17103C6.93686 5.10355 6.89549 5.04234 6.8434 4.99098C6.7913 4.93962 6.72952 4.89912 6.66164 4.87185C6.59376 4.84457 6.52114 4.83106 6.44799 4.83209H3.87194ZM8.28803 8.69617C8.14163 8.69618 8.00123 8.75434 7.89771 8.85786C7.79419 8.96138 7.73603 9.10178 7.73602 9.24818V11.0882C7.73603 11.2346 7.79419 11.375 7.89771 11.4785C8.00123 11.582 8.14163 11.6402 8.28803 11.6402H10.1281C10.2745 11.6402 10.4149 11.582 10.5184 11.4785C10.6219 11.375 10.6801 11.2346 10.6801 11.0882V9.24818C10.6801 9.10178 10.6219 8.96138 10.5184 8.85786C10.4149 8.75434 10.2745 8.69618 10.1281 8.69617H8.28803ZM3.87194 9.61619C3.79879 9.61515 3.72617 9.62866 3.65829 9.65594C3.59041 9.68322 3.52863 9.72371 3.47653 9.77508C3.42444 9.82644 3.38307 9.88764 3.35484 9.95513C3.32661 10.0226 3.31207 10.095 3.31207 10.1682C3.31207 10.2414 3.32661 10.3138 3.35484 10.3813C3.38307 10.4488 3.42444 10.51 3.47653 10.5613C3.52863 10.6127 3.59041 10.6532 3.65829 10.6805C3.72617 10.7077 3.79879 10.7212 3.87194 10.7202H6.44799C6.52114 10.7212 6.59376 10.7077 6.66164 10.6805C6.72952 10.6532 6.7913 10.6127 6.8434 10.5613C6.89549 10.51 6.93686 10.4488 6.96509 10.3813C6.99332 10.3138 7.00786 10.2414 7.00786 10.1682C7.00786 10.095 6.99332 10.0226 6.96509 9.95513C6.93686 9.88764 6.89549 9.82644 6.8434 9.77508C6.7913 9.72371 6.72952 9.68322 6.66164 9.65594C6.59376 9.62866 6.52114 9.61515 6.44799 9.61619H3.87194ZM8.84004 9.80019H9.57605V10.5362H8.84004V9.80019Z" fill="black"/>
</svg>
