<svg width="14" height="16" viewBox="0 0 14 16" fill="none" xmlns="http://www.w3.org/2000/svg">
<path d="M1.65875 0.836005C1.51217 0.838295 1.37249 0.898674 1.27039 1.00388C1.16829 1.10908 1.11212 1.25051 1.11422 1.3971V1.95027H0.561051C0.487749 1.94924 0.414972 1.96278 0.34695 1.99011C0.278927 2.01745 0.217015 2.05803 0.164813 2.1095C0.11261 2.16097 0.0711572 2.2223 0.0428637 2.28993C0.0145702 2.35756 0 2.43014 0 2.50345C0 2.57676 0.0145702 2.64933 0.0428637 2.71696C0.0711572 2.78459 0.11261 2.84592 0.164813 2.89739C0.217015 2.94886 0.278927 2.98944 0.34695 3.01678C0.414972 3.04411 0.487749 3.05766 0.561051 3.05662H1.11422V3.60979C1.11319 3.68309 1.12673 3.75587 1.15406 3.82389C1.1814 3.89192 1.22198 3.95383 1.27345 4.00603C1.32492 4.05823 1.38625 4.09969 1.45388 4.12798C1.52151 4.15627 1.59409 4.17084 1.6674 4.17084C1.74071 4.17084 1.81328 4.15627 1.88091 4.12798C1.94854 4.09969 2.00987 4.05823 2.06134 4.00603C2.11281 3.95383 2.1534 3.89192 2.18073 3.82389C2.20806 3.75587 2.22161 3.68309 2.22057 3.60979V3.05662H2.77374C2.84704 3.05766 2.91982 3.04411 2.98784 3.01678C3.05587 2.98944 3.11778 2.94886 3.16998 2.89739C3.22218 2.84592 3.26364 2.78459 3.29193 2.71696C3.32022 2.64933 3.33479 2.57676 3.33479 2.50345C3.33479 2.43014 3.32022 2.35756 3.29193 2.28993C3.26364 2.2223 3.22218 2.16097 3.16998 2.1095C3.11778 2.05803 3.05587 2.01745 2.98784 1.99011C2.91982 1.96278 2.84704 1.94924 2.77374 1.95027H2.22057V1.3971C2.22163 1.32306 2.20782 1.24956 2.17995 1.18096C2.15209 1.11236 2.11073 1.05005 2.05834 0.997723C2.00595 0.945398 1.94358 0.904123 1.87495 0.876344C1.80631 0.848565 1.73279 0.834848 1.65875 0.836005ZM10.5095 2.31113C10.3629 2.31342 10.2232 2.3738 10.1212 2.47901C10.0191 2.58421 9.96289 2.72564 9.96499 2.87223V3.4254H9.41182C9.33851 3.42436 9.26574 3.43791 9.19771 3.46524C9.12969 3.49257 9.06778 3.53316 9.01558 3.58463C8.96337 3.6361 8.92192 3.69743 8.89363 3.76506C8.86533 3.83269 8.85076 3.90526 8.85076 3.97857C8.85076 4.05188 8.86533 4.12446 8.89363 4.19209C8.92192 4.25972 8.96337 4.32105 9.01558 4.37252C9.06778 4.42399 9.12969 4.46457 9.19771 4.49191C9.26574 4.51924 9.33851 4.53278 9.41182 4.53175H9.96499V5.08492C9.96395 5.15822 9.97749 5.231 10.0048 5.29902C10.0322 5.36704 10.0727 5.42896 10.1242 5.48116C10.1757 5.53336 10.237 5.57481 10.3046 5.60311C10.3723 5.6314 10.4449 5.64597 10.5182 5.64597C10.5915 5.64597 10.664 5.6314 10.7317 5.60311C10.7993 5.57481 10.8606 5.53336 10.9121 5.48116C10.9636 5.42896 11.0042 5.36704 11.0315 5.29902C11.0588 5.231 11.0724 5.15822 11.0713 5.08492V4.53175H11.6245C11.6978 4.53278 11.7706 4.51924 11.8386 4.49191C11.9066 4.46457 11.9685 4.42399 12.0207 4.37252C12.0729 4.32105 12.1144 4.25972 12.1427 4.19209C12.171 4.12446 12.1856 4.05188 12.1856 3.97857C12.1856 3.90526 12.171 3.83269 12.1427 3.76506C12.1144 3.69743 12.0729 3.6361 12.0207 3.58463C11.9685 3.53316 11.9066 3.49257 11.8386 3.46524C11.7706 3.43791 11.6978 3.42436 11.6245 3.4254H11.0713V2.87223C11.0724 2.79819 11.0586 2.72469 11.0307 2.65609C11.0028 2.58749 10.9615 2.52518 10.9091 2.47285C10.8567 2.42053 10.7943 2.37925 10.7257 2.35147C10.6571 2.32369 10.5836 2.30998 10.5095 2.31113ZM4.63278 4.18097C4.20688 4.18097 3.78046 4.34182 3.45873 4.66356C2.81525 5.30703 2.81525 6.36747 3.45873 7.01094L4.31802 7.86951L4.32018 7.87239C4.3551 7.92094 4.39767 7.96351 4.44623 7.99844L11.1707 14.7222C11.8143 15.3652 12.8738 15.3652 13.5174 14.7222C14.1609 14.0788 14.1609 13.0183 13.5174 12.3748L6.77704 5.63521C6.77609 5.63401 6.77513 5.63281 6.77416 5.63161C6.73939 5.58337 6.69707 5.54105 6.64883 5.50628L5.80611 4.66356C5.48437 4.34182 5.05867 4.18097 4.63278 4.18097ZM4.63278 5.28083C4.77315 5.28083 4.91341 5.33602 5.02389 5.4465L5.54249 5.9651L4.77035 6.7574L4.24167 6.22872C4.02072 6.00777 4.02072 5.66745 4.24167 5.4465C4.35214 5.33602 4.49241 5.28083 4.63278 5.28083ZM6.32471 6.74732L12.7352 13.1578C12.9561 13.3787 12.9561 13.7191 12.7352 13.94C12.5145 14.1605 12.1738 14.1602 11.953 13.94H11.9522L5.55257 7.53962L6.32471 6.74732ZM3.13388 10.0556C2.9873 10.0578 2.84761 10.1182 2.74551 10.2234C2.64342 10.3286 2.58725 10.4701 2.58935 10.6166V11.1698H2.03618C1.96288 11.1688 1.8901 11.1823 1.82208 11.2097C1.75405 11.237 1.69214 11.2776 1.63994 11.329C1.58774 11.3805 1.54628 11.4418 1.51799 11.5095C1.4897 11.5771 1.47513 11.6497 1.47513 11.723C1.47513 11.7963 1.4897 11.8689 1.51799 11.9365C1.54628 12.0041 1.58774 12.0655 1.63994 12.1169C1.69214 12.1684 1.75405 12.209 1.82208 12.2363C1.8901 12.2637 1.96288 12.2772 2.03618 12.2762H2.58935V12.8293C2.58831 12.9026 2.60186 12.9754 2.62919 13.0434C2.65653 13.1115 2.69711 13.1734 2.74858 13.2256C2.80005 13.2778 2.86138 13.3192 2.92901 13.3475C2.99664 13.3758 3.06922 13.3904 3.14252 13.3904C3.21583 13.3904 3.28841 13.3758 3.35604 13.3475C3.42367 13.3192 3.485 13.2778 3.53647 13.2256C3.58794 13.1734 3.62852 13.1115 3.65586 13.0434C3.68319 12.9754 3.69673 12.9026 3.6957 12.8293V12.2762H4.24887C4.32217 12.2772 4.39495 12.2637 4.46297 12.2363C4.53099 12.209 4.59291 12.1684 4.64511 12.1169C4.69731 12.0655 4.73876 12.0041 4.76706 11.9365C4.79535 11.8689 4.80992 11.7963 4.80992 11.723C4.80992 11.6497 4.79535 11.5771 4.76706 11.5095C4.73876 11.4418 4.69731 11.3805 4.64511 11.329C4.59291 11.2776 4.53099 11.237 4.46297 11.2097C4.39495 11.1823 4.32217 11.1688 4.24887 11.1698H3.6957V10.6166C3.69676 10.5426 3.68295 10.4691 3.65508 10.4005C3.62721 10.3319 3.58586 10.2696 3.53347 10.2173C3.48107 10.1649 3.41871 10.1237 3.35007 10.0959C3.28143 10.0681 3.20792 10.0544 3.13388 10.0556Z" fill="black"/>
</svg>
