<svg width="14" height="16" viewBox="0 0 14 16" fill="none" xmlns="http://www.w3.org/2000/svg">
<path d="M1.65875 0.773719C1.51217 0.776009 1.37249 0.836387 1.27039 0.941593C1.16829 1.0468 1.11212 1.18823 1.11422 1.33481V1.88799H0.561051C0.487749 1.88695 0.414972 1.90049 0.34695 1.92783C0.278927 1.95516 0.217015 1.99574 0.164813 2.04721C0.11261 2.09868 0.0711572 2.16001 0.0428637 2.22764C0.0145702 2.29527 0 2.36785 0 2.44116C0 2.51447 0.0145702 2.58705 0.0428637 2.65468C0.0711572 2.72231 0.11261 2.78364 0.164813 2.83511C0.217015 2.88658 0.278927 2.92716 0.34695 2.95449C0.414972 2.98183 0.487749 2.99537 0.561051 2.99433H1.11422V3.54751C1.11319 3.62081 1.12673 3.69358 1.15406 3.76161C1.1814 3.82963 1.22198 3.89154 1.27345 3.94374C1.32492 3.99595 1.38625 4.0374 1.45388 4.06569C1.52151 4.09399 1.59409 4.10856 1.6674 4.10856C1.74071 4.10856 1.81328 4.09399 1.88091 4.06569C1.94854 4.0374 2.00987 3.99595 2.06134 3.94374C2.11281 3.89154 2.1534 3.82963 2.18073 3.76161C2.20806 3.69358 2.22161 3.62081 2.22057 3.54751V2.99433H2.77374C2.84704 2.99537 2.91982 2.98183 2.98784 2.95449C3.05587 2.92716 3.11778 2.88658 3.16998 2.83511C3.22218 2.78364 3.26364 2.72231 3.29193 2.65468C3.32022 2.58705 3.33479 2.51447 3.33479 2.44116C3.33479 2.36785 3.32022 2.29527 3.29193 2.22764C3.26364 2.16001 3.22218 2.09868 3.16998 2.04721C3.11778 1.99574 3.05587 1.95516 2.98784 1.92783C2.91982 1.90049 2.84704 1.88695 2.77374 1.88799H2.22057V1.33481C2.22163 1.26078 2.20782 1.18728 2.17995 1.11867C2.15209 1.05007 2.11073 0.987762 2.05834 0.935437C2.00595 0.883112 1.94358 0.841837 1.87495 0.814058C1.80631 0.786279 1.73279 0.772562 1.65875 0.773719ZM10.5095 2.24885C10.3629 2.25114 10.2232 2.31151 10.1212 2.41672C10.0191 2.52193 9.96289 2.66335 9.96499 2.80994V3.36311H9.41182C9.33851 3.36208 9.26574 3.37562 9.19771 3.40295C9.12969 3.43029 9.06778 3.47087 9.01558 3.52234C8.96337 3.57381 8.92192 3.63514 8.89363 3.70277C8.86533 3.7704 8.85076 3.84298 8.85076 3.91629C8.85076 3.9896 8.86533 4.06217 8.89363 4.1298C8.92192 4.19743 8.96337 4.25876 9.01558 4.31023C9.06778 4.3617 9.12969 4.40229 9.19771 4.42962C9.26574 4.45695 9.33851 4.4705 9.41182 4.46946H9.96499V5.02263C9.96395 5.09593 9.97749 5.16871 10.0048 5.23673C10.0322 5.30476 10.0727 5.36667 10.1242 5.41887C10.1757 5.47107 10.237 5.51253 10.3046 5.54082C10.3723 5.56911 10.4449 5.58368 10.5182 5.58368C10.5915 5.58368 10.664 5.56911 10.7317 5.54082C10.7993 5.51253 10.8606 5.47107 10.9121 5.41887C10.9636 5.36667 11.0042 5.30476 11.0315 5.23673C11.0588 5.16871 11.0724 5.09593 11.0713 5.02263V4.46946H11.6245C11.6978 4.4705 11.7706 4.45695 11.8386 4.42962C11.9066 4.40229 11.9685 4.3617 12.0207 4.31023C12.0729 4.25876 12.1144 4.19743 12.1427 4.1298C12.171 4.06217 12.1856 3.9896 12.1856 3.91629C12.1856 3.84298 12.171 3.7704 12.1427 3.70277C12.1144 3.63514 12.0729 3.57381 12.0207 3.52234C11.9685 3.47087 11.9066 3.43029 11.8386 3.40295C11.7706 3.37562 11.6978 3.36208 11.6245 3.36311H11.0713V2.80994C11.0724 2.7359 11.0586 2.6624 11.0307 2.5938C11.0028 2.5252 10.9615 2.46289 10.9091 2.41056C10.8567 2.35824 10.7943 2.31696 10.7257 2.28918C10.6571 2.26141 10.5836 2.24769 10.5095 2.24885ZM4.63278 4.11868C4.20688 4.11868 3.78046 4.27953 3.45873 4.60127C2.81525 5.24474 2.81525 6.30518 3.45873 6.94865L4.31802 7.80722L4.32018 7.8101C4.3551 7.85866 4.39767 7.90123 4.44623 7.93615L11.1707 14.6599C11.8143 15.303 12.8738 15.303 13.5174 14.6599C14.1609 14.0165 14.1609 12.956 13.5174 12.3126L6.77704 5.57292C6.77609 5.57172 6.77513 5.57052 6.77416 5.56932C6.73939 5.52108 6.69707 5.47876 6.64883 5.44399L5.80611 4.60127C5.48437 4.27953 5.05867 4.11868 4.63278 4.11868ZM4.63278 5.21855C4.77315 5.21855 4.91341 5.27374 5.02389 5.38421L5.54249 5.90281L4.77035 6.69512L4.24167 6.16643C4.02072 5.94548 4.02072 5.60516 4.24167 5.38421C4.35214 5.27374 4.49241 5.21855 4.63278 5.21855ZM6.32471 6.68503L12.7352 13.0955C12.9561 13.3164 12.9561 13.6568 12.7352 13.8777C12.5145 14.0982 12.1738 14.0979 11.953 13.8777H11.9522L5.55257 7.47734L6.32471 6.68503ZM3.13388 9.99326C2.9873 9.99555 2.84761 10.0559 2.74551 10.1611C2.64342 10.2663 2.58725 10.4078 2.58935 10.5544V11.1075H2.03618C1.96288 11.1065 1.8901 11.12 1.82208 11.1474C1.75405 11.1747 1.69214 11.2153 1.63994 11.2668C1.58774 11.3182 1.54628 11.3796 1.51799 11.4472C1.4897 11.5148 1.47513 11.5874 1.47513 11.6607C1.47513 11.734 1.4897 11.8066 1.51799 11.8742C1.54628 11.9419 1.58774 12.0032 1.63994 12.0547C1.69214 12.1061 1.75405 12.1467 1.82208 12.174C1.8901 12.2014 1.96288 12.2149 2.03618 12.2139H2.58935V12.7671C2.58831 12.8404 2.60186 12.9131 2.62919 12.9812C2.65653 13.0492 2.69711 13.1111 2.74858 13.1633C2.80005 13.2155 2.86138 13.2569 2.92901 13.2852C2.99664 13.3135 3.06922 13.3281 3.14252 13.3281C3.21583 13.3281 3.28841 13.3135 3.35604 13.2852C3.42367 13.2569 3.485 13.2155 3.53647 13.1633C3.58794 13.1111 3.62852 13.0492 3.65586 12.9812C3.68319 12.9131 3.69673 12.8404 3.6957 12.7671V12.2139H4.24887C4.32217 12.2149 4.39495 12.2014 4.46297 12.174C4.53099 12.1467 4.59291 12.1061 4.64511 12.0547C4.69731 12.0032 4.73876 11.9419 4.76706 11.8742C4.79535 11.8066 4.80992 11.734 4.80992 11.6607C4.80992 11.5874 4.79535 11.5148 4.76706 11.4472C4.73876 11.3796 4.69731 11.3182 4.64511 11.2668C4.59291 11.2153 4.53099 11.1747 4.46297 11.1474C4.39495 11.12 4.32217 11.1065 4.24887 11.1075H3.6957V10.5544C3.69676 10.4803 3.68295 10.4068 3.65508 10.3382C3.62721 10.2696 3.58586 10.2073 3.53347 10.155C3.48107 10.1027 3.41871 10.0614 3.35007 10.0336C3.28143 10.0058 3.20792 9.99211 3.13388 9.99326Z" fill="black"/>
</svg>
