<svg width="14" height="15" viewBox="0 0 14 15" fill="none" xmlns="http://www.w3.org/2000/svg">
<g clip-path="url(#clip0_48_5002)">
<path d="M6.92802 0.173553C6.50451 0.173553 6.08116 0.311313 5.73123 0.586885H5.73051L1.34588 4.04188C0.680804 4.56602 0.291664 5.36693 0.291664 6.21367V12.8832C0.291664 13.5892 0.876049 14.1736 1.58207 14.1736H12.274C12.98 14.1736 13.5644 13.5892 13.5644 12.8832V6.21367C13.5644 5.36693 13.1752 4.56602 12.5102 4.04188L8.12481 0.586885C7.77488 0.311313 7.35153 0.173553 6.92802 0.173553ZM6.92802 1.27673C7.1086 1.27673 7.28924 1.33674 7.44072 1.45603L11.8261 4.91103C12.2255 5.22603 12.4583 5.70532 12.4583 6.21367V12.8832C12.4583 12.9919 12.3827 13.0675 12.274 13.0675H11.3523V10.3067C11.3523 9.60065 10.7679 9.01626 10.0619 9.01626H9.50882V6.6198C9.50882 5.91379 8.92444 5.3294 8.21842 5.3294H5.63762C4.9316 5.3294 4.34721 5.91379 4.34721 6.6198V9.01626H3.79418C3.08817 9.01626 2.50378 9.60065 2.50378 10.3067V13.0675H1.58207C1.47329 13.0675 1.39772 12.9919 1.39772 12.8832V6.21367C1.39772 5.70513 1.63027 5.2253 2.02996 4.91031L6.41531 1.45603C6.56679 1.33674 6.74744 1.27673 6.92802 1.27673ZM5.63762 6.43546H8.21842C8.3272 6.43546 8.40276 6.51102 8.40276 6.6198V9.01626H5.45327V6.6198C5.45327 6.51102 5.52884 6.43546 5.63762 6.43546ZM3.79418 10.1223H6.37499V13.0675H3.60984V10.3067C3.60984 10.1979 3.68541 10.1223 3.79418 10.1223ZM7.48105 10.1223H10.0619C10.1706 10.1223 10.2462 10.1979 10.2462 10.3067V13.0675H7.48105V10.1223Z" fill="black"/>
</g>
<defs>
<clipPath id="clip0_48_5002">
<rect width="14" height="14" fill="white" transform="translate(0 0.173553)"/>
</clipPath>
</defs>
</svg>
