<svg width="14" height="15" viewBox="0 0 14 15" fill="none" xmlns="http://www.w3.org/2000/svg">
<path d="M6.99966 0.773655C6.45505 0.773655 5.91045 1.03922 5.61604 1.57084L0.192435 11.3691C-0.379555 12.4025 0.394859 13.7182 1.57605 13.7182H12.4239C13.6051 13.7182 14.3796 12.4025 13.8076 11.3691L8.38327 1.57084C8.08887 1.03922 7.54426 0.773655 6.99966 0.773655ZM6.99966 1.78844C7.17783 1.78844 7.3558 1.88529 7.4636 2.07995L12.8879 11.8782C13.0958 12.2538 12.8523 12.6671 12.4239 12.6671H1.57605C1.14773 12.6671 0.904216 12.2538 1.11211 11.8782L6.53572 2.07995C6.64352 1.88529 6.82149 1.78844 6.99966 1.78844ZM6.99145 4.60152C6.85219 4.6037 6.71949 4.66106 6.62249 4.761C6.52549 4.86095 6.47213 4.99531 6.47413 5.13457V8.63809C6.47315 8.70773 6.48601 8.77687 6.51198 8.84149C6.53795 8.90612 6.5765 8.96493 6.6254 9.01453C6.6743 9.06412 6.73256 9.1035 6.79681 9.13038C6.86106 9.15726 6.93001 9.1711 6.99966 9.1711C7.0693 9.1711 7.13825 9.15726 7.2025 9.13038C7.26675 9.1035 7.32502 9.06412 7.37392 9.01453C7.42281 8.96493 7.46137 8.90612 7.48734 8.84149C7.5133 8.77687 7.52617 8.70773 7.52519 8.63809V5.13457C7.52619 5.06424 7.51307 4.99441 7.4866 4.92924C7.46012 4.86406 7.42084 4.80487 7.37106 4.75516C7.32129 4.70545 7.26204 4.66623 7.19683 4.63984C7.13163 4.61345 7.06178 4.60042 6.99145 4.60152ZM6.99966 10.2147C6.81382 10.2147 6.63559 10.2885 6.50419 10.4199C6.37278 10.5513 6.29895 10.7295 6.29895 10.9154C6.29895 11.1012 6.37278 11.2794 6.50419 11.4108C6.63559 11.5423 6.81382 11.6161 6.99966 11.6161C7.1855 11.6161 7.36372 11.5423 7.49513 11.4108C7.62654 11.2794 7.70036 11.1012 7.70036 10.9154C7.70036 10.7295 7.62654 10.5513 7.49513 10.4199C7.36372 10.2885 7.1855 10.2147 6.99966 10.2147Z" fill="black"/>
</svg>
