<svg width="14" height="15" viewBox="0 0 14 15" fill="none" xmlns="http://www.w3.org/2000/svg">
<path d="M6.99969 2.17355C4.5178 2.17355 2.03629 3.03259 0.145463 4.75052C0.100056 4.79013 0.0638041 4.83757 0.0388307 4.89007C0.0138574 4.94257 0.00066444 4.99907 2.44574e-05 5.05625C-0.000615525 5.11344 0.0113104 5.17017 0.0351037 5.22312C0.058897 5.27607 0.0940794 5.32418 0.138591 5.36462C0.183102 5.40506 0.236047 5.43702 0.294325 5.45864C0.352603 5.48026 0.415043 5.49109 0.477988 5.49051C0.540933 5.48993 0.603118 5.47794 0.6609 5.45525C0.718683 5.43257 0.770902 5.39963 0.814499 5.35837C4.23452 2.25108 9.76548 2.25108 13.1855 5.35837C13.2291 5.39963 13.2813 5.43257 13.3391 5.45525C13.3969 5.47794 13.4591 5.48993 13.522 5.49051C13.585 5.49109 13.6474 5.48026 13.7057 5.45864C13.764 5.43702 13.8169 5.40506 13.8614 5.36462C13.9059 5.32418 13.9411 5.27607 13.9649 5.22312C13.9887 5.17017 14.0006 5.11344 14 5.05625C13.9993 4.99907 13.9861 4.94257 13.9612 4.89007C13.9362 4.83757 13.8999 4.79013 13.8545 4.75052C11.9637 3.03259 9.48158 2.17355 6.99969 2.17355ZM6.99969 4.72981C5.23775 4.72981 3.47623 5.339 2.1347 6.55786C2.0893 6.59747 2.05305 6.64491 2.02807 6.69741C2.0031 6.74991 1.9899 6.80641 1.98926 6.8636C1.98862 6.92079 2.00055 6.97752 2.02434 7.03047C2.04814 7.08342 2.08332 7.13152 2.12783 7.17196C2.17234 7.2124 2.22529 7.24437 2.28357 7.26599C2.34184 7.2876 2.40428 7.29844 2.46723 7.29786C2.53017 7.29728 2.59236 7.28529 2.65014 7.2626C2.70792 7.23991 2.76014 7.20697 2.80374 7.16572C5.12515 5.05658 8.87485 5.05658 11.1963 7.16572C11.2399 7.20697 11.2921 7.23991 11.3499 7.2626C11.4076 7.28529 11.4698 7.29727 11.5328 7.29786C11.5957 7.29844 11.6582 7.2876 11.7164 7.26598C11.7747 7.24437 11.8277 7.2124 11.8722 7.17196C11.9167 7.13152 11.9519 7.08342 11.9757 7.03047C11.9994 6.97752 12.0114 6.92079 12.0107 6.8636C12.0101 6.80641 11.9969 6.74991 11.9719 6.69741C11.947 6.64491 11.9107 6.59747 11.8653 6.55786C10.5238 5.339 8.76163 4.72981 6.99969 4.72981ZM6.99969 7.2855C5.9577 7.2855 4.91556 7.64542 4.12333 8.3652C4.03461 8.44588 3.9848 8.55528 3.98486 8.66933C3.98492 8.78338 4.03484 8.89273 4.12364 8.97334C4.21244 9.05395 4.33285 9.0992 4.45837 9.09915C4.5839 9.0991 4.70426 9.05374 4.79298 8.97306C6.01577 7.86209 7.98423 7.86209 9.20702 8.97306C9.25061 9.01432 9.30283 9.04725 9.36062 9.06994C9.4184 9.09263 9.48058 9.10462 9.54353 9.1052C9.60647 9.10578 9.66891 9.09495 9.72719 9.07333C9.78547 9.05171 9.83842 9.01975 9.88293 8.97931C9.92744 8.93887 9.96262 8.89076 9.98642 8.83781C10.0102 8.78486 10.0221 8.72813 10.0215 8.67094C10.0209 8.61375 10.0077 8.55725 9.98269 8.50476C9.95771 8.45226 9.92146 8.40481 9.87605 8.3652C9.08383 7.64542 8.04168 7.2855 6.99969 7.2855ZM7.05945 9.88093C6.72483 9.88093 6.40392 10.0017 6.16731 10.2167C5.9307 10.4317 5.79777 10.7232 5.79777 11.0272C5.79777 11.3313 5.9307 11.6228 6.16731 11.8378C6.40392 12.0528 6.72483 12.1736 7.05945 12.1736C7.39407 12.1736 7.71498 12.0528 7.95159 11.8378C8.1882 11.6228 8.32113 11.3313 8.32113 11.0272C8.32113 10.7232 8.1882 10.4317 7.95159 10.2167C7.71498 10.0017 7.39407 9.88093 7.05945 9.88093Z" fill="black"/>
</svg>
