<svg width="14" height="15" viewBox="0 0 14 15" fill="none" xmlns="http://www.w3.org/2000/svg">
<path d="M13.3685 0.173729C13.2056 0.177577 13.0508 0.245721 12.938 0.363284L6.99996 6.30132L1.06192 0.363284C1.00442 0.304072 0.93563 0.256999 0.859611 0.224853C0.783593 0.192707 0.701897 0.176142 0.619361 0.176139C0.496598 0.176169 0.376635 0.212825 0.274822 0.281416C0.173008 0.350008 0.0939737 0.447415 0.047831 0.561177C0.00168819 0.674938 -0.0094645 0.799879 0.0157995 0.920015C0.0410636 1.04015 0.101595 1.15002 0.189651 1.23556L6.12769 7.1736L0.189651 13.1116C0.13045 13.1685 0.0831861 13.2366 0.0506265 13.3119C0.0180669 13.3872 0.00086628 13.4683 3.1887e-05 13.5504C-0.000802506 13.6324 0.0147462 13.7138 0.0457673 13.7898C0.0767884 13.8658 0.122658 13.9348 0.180691 13.9929C0.238723 14.0509 0.307752 14.0968 0.383734 14.1278C0.459715 14.1588 0.541123 14.1744 0.623189 14.1735C0.705255 14.1727 0.78633 14.1555 0.861666 14.1229C0.937001 14.0904 1.00508 14.0431 1.06192 13.9839L6.99996 8.04587L12.938 13.9839C12.9948 14.0431 13.0629 14.0904 13.1383 14.1229C13.2136 14.1555 13.2947 14.1727 13.3767 14.1735C13.4588 14.1744 13.5402 14.1588 13.6162 14.1278C13.6922 14.0968 13.7612 14.0509 13.8192 13.9929C13.8773 13.9348 13.9231 13.8658 13.9542 13.7898C13.9852 13.7138 14.0007 13.6324 13.9999 13.5504C13.9991 13.4683 13.9819 13.3872 13.9493 13.3119C13.9167 13.2366 13.8695 13.1685 13.8103 13.1116L7.87223 7.1736L13.8103 1.23556C13.9 1.14946 13.9616 1.03827 13.987 0.916559C14.0124 0.794849 14.0004 0.668301 13.9527 0.553505C13.9049 0.438709 13.8236 0.341023 13.7193 0.273253C13.6151 0.205483 13.4928 0.170793 13.3685 0.173729V0.173729Z" fill="black"/>
</svg>
