<svg width="14" height="15" viewBox="0 0 14 15" fill="none" xmlns="http://www.w3.org/2000/svg">
<path d="M13.3685 0.236256C13.2056 0.240103 13.0508 0.308248 12.938 0.425811L6.99996 6.36385L1.06192 0.425811C1.00442 0.366598 0.93563 0.319526 0.859611 0.28738C0.783593 0.255234 0.701897 0.238669 0.619361 0.238666C0.496598 0.238696 0.376635 0.275351 0.274822 0.343943C0.173008 0.412534 0.0939737 0.509942 0.047831 0.623703C0.00168819 0.737465 -0.0094645 0.862406 0.0157995 0.982542C0.0410636 1.10268 0.101595 1.21254 0.189651 1.29808L6.12769 7.23612L0.189651 13.1742C0.13045 13.231 0.0831861 13.2991 0.0506265 13.3744C0.0180669 13.4498 0.00086628 13.5308 3.1887e-05 13.6129C-0.000802506 13.695 0.0147462 13.7764 0.0457673 13.8524C0.0767884 13.9283 0.122658 13.9974 0.180691 14.0554C0.238723 14.1134 0.307752 14.1593 0.383734 14.1903C0.459715 14.2213 0.541123 14.2369 0.623189 14.2361C0.705255 14.2352 0.78633 14.218 0.861666 14.1855C0.937001 14.1529 1.00508 14.1056 1.06192 14.0464L6.99996 8.10839L12.938 14.0464C12.9948 14.1056 13.0629 14.1529 13.1383 14.1855C13.2136 14.218 13.2947 14.2352 13.3767 14.2361C13.4588 14.2369 13.5402 14.2213 13.6162 14.1903C13.6922 14.1593 13.7612 14.1134 13.8192 14.0554C13.8773 13.9974 13.9231 13.9283 13.9542 13.8524C13.9852 13.7764 14.0007 13.695 13.9999 13.6129C13.9991 13.5308 13.9819 13.4498 13.9493 13.3744C13.9167 13.2991 13.8695 13.231 13.8103 13.1742L7.87223 7.23612L13.8103 1.29808C13.9 1.21199 13.9616 1.1008 13.987 0.979086C14.0124 0.857376 14.0004 0.730827 13.9527 0.616031C13.9049 0.501236 13.8236 0.403549 13.7193 0.33578C13.6151 0.26801 13.4928 0.233319 13.3685 0.236256Z" fill="black"/>
</svg>
