<svg width="14" height="14" viewBox="0 0 14 14" fill="none" xmlns="http://www.w3.org/2000/svg">
<g clip-path="url(#clip0_776_8938)">
<path d="M12.7339 2.79437L6.69284 6.37905C6.34911 6.57895 6.23406 7.01976 6.43468 7.36204C6.56771 7.59072 6.80861 7.71871 7.05598 7.71871C7.17894 7.71871 7.30406 7.68707 7.41768 7.6202L13.453 4.03912C13.3387 3.56236 13.0906 3.12947 12.7339 2.79437Z" fill="black"/>
<path d="M7.05515 13.9993C7.2982 13.9993 7.53838 13.9525 7.77424 13.8821V6.99964C7.77424 6.60198 7.45281 6.28055 7.05515 6.28055C6.65749 6.28055 6.33606 6.60198 6.33606 6.99964V13.8813C6.57192 13.9525 6.8121 13.9993 7.05515 13.9993Z" fill="black"/>
<path d="M6.69353 7.6202C6.80714 7.68707 6.93227 7.71871 7.05523 7.71871C7.3026 7.71871 7.5435 7.59072 7.67653 7.36204C7.87643 7.01904 7.76138 6.57895 7.41837 6.37905L1.37656 2.79437C1.01989 3.12947 0.771806 3.56236 0.657471 4.03912L6.69353 7.6202Z" fill="black"/>
<g opacity="0.35">
<path d="M12.1946 2.4068L8.23883 0.296266C7.49744 -0.0985156 6.61296 -0.0992347 5.87014 0.296985L1.91513 2.4068C1.09393 2.84473 0.583374 3.69613 0.583374 4.62736V9.37336C0.583374 10.3046 1.09393 11.156 1.91585 11.5939L5.87158 13.7045C6.24263 13.9015 6.64891 14 7.0552 14C7.46149 14 7.86849 13.9015 8.23955 13.7037L12.1946 11.5939C13.0165 11.1553 13.527 10.3039 13.527 9.37264V4.62664C13.527 3.69613 13.0165 2.84473 12.1946 2.4068Z" fill="black"/>
</g>
</g>
<defs>
<clipPath id="clip0_776_8938">
<rect width="14" height="14" fill="white"/>
</clipPath>
</defs>
</svg>
