<svg width="14" height="14" viewBox="0 0 14 14" fill="none" xmlns="http://www.w3.org/2000/svg">
<path opacity="0.35" d="M1.45837 11.9V2.1C1.45837 0.9401 2.39847 0 3.55837 0H10.5584C11.7183 0 12.6584 0.9401 12.6584 2.1V11.9C12.6584 13.0599 11.7183 14 10.5584 14H3.55837C2.39847 14 1.45837 13.0599 1.45837 11.9Z" fill="black"/>
<path d="M7.75833 7.7H6.35833C5.97193 7.7 5.65833 7.3864 5.65833 7V6.3C5.65833 5.9136 5.97193 5.6 6.35833 5.6H7.75833C8.14473 5.6 8.45833 5.9136 8.45833 6.3V7C8.45833 7.3864 8.14473 7.7 7.75833 7.7Z" fill="black"/>
<path d="M7.75837 6.3H6.35837C6.35837 6.3 4.95837 8.8872 4.95837 9.8C4.95837 10.9599 5.89847 11.9 7.05837 11.9C8.21827 11.9 9.15837 10.9599 9.15837 9.8C9.15837 8.8872 7.75837 6.3 7.75837 6.3ZM7.05837 10.5C6.67197 10.5 6.35837 10.1864 6.35837 9.8C6.35837 9.4136 6.67197 9.1 7.05837 9.1C7.44477 9.1 7.75837 9.4136 7.75837 9.8C7.75837 10.1864 7.44477 10.5 7.05837 10.5Z" fill="black"/>
<path d="M7.0584 2.8C7.4448 2.8 7.7584 3.1136 7.7584 3.5C7.7584 3.8864 7.4448 4.2 7.0584 4.2C6.672 4.2 6.3584 3.8864 6.3584 3.5C6.3584 3.1136 6.672 2.8 7.0584 2.8Z" fill="black"/>
<path d="M6.3584 0.7C6.3584 1.0864 6.672 1.4 7.0584 1.4C7.4448 1.4 7.7584 1.0864 7.7584 0.7V0H6.3584V0.7Z" fill="black"/>
</svg>
