<svg width="14" height="14" viewBox="0 0 14 14" fill="none" xmlns="http://www.w3.org/2000/svg">
<path opacity="0.35" d="M12.95 11.515C12.9381 11.515 12.8121 11.515 12.6 11.515V5.21501H12.7477C13.4393 5.21501 14 4.65431 14 3.96271C14 3.45031 13.6885 2.99041 13.2125 2.80001L7.9275 0.686007C7.3318 0.448007 6.6668 0.448007 6.0711 0.686007L0.7861 2.80001C0.3115 2.99041 0 3.45101 0 3.96271C0 4.65431 0.5607 5.21501 1.2523 5.21501H1.4V11.515C1.1879 11.515 1.0619 11.515 1.05 11.515C0.4704 11.515 0 11.9854 0 12.565C0 13.1446 0.4704 13.615 1.05 13.615C1.1732 13.615 12.8268 13.615 12.95 13.615C13.5296 13.615 14 13.1446 14 12.565C14 11.9854 13.5296 11.515 12.95 11.515Z" fill="black"/>
<path d="M12.95 11.515C13.0732 11.515 13.1901 11.5402 13.3 11.5794V5.0813C13.1327 5.1639 12.9472 5.215 12.7477 5.215H11.2V11.515C12.2297 11.515 12.9206 11.515 12.95 11.515Z" fill="black"/>
<path d="M9.79995 11.515V5.215H7.69995V11.515C8.42935 11.515 9.14335 11.515 9.79995 11.515Z" fill="black"/>
<path d="M1.04995 11.515C1.07935 11.515 1.77025 11.515 2.79995 11.515V5.215H1.25225C1.05275 5.215 0.867251 5.1639 0.699951 5.0813V11.5794C0.809851 11.5402 0.926751 11.515 1.04995 11.515Z" fill="black"/>
<path d="M6.29995 11.515V5.215H4.19995V11.515C4.85655 11.515 5.57055 11.515 6.29995 11.515Z" fill="black"/>
<path d="M7.00005 3.81501C7.38665 3.81501 7.70005 3.50161 7.70005 3.11501C7.70005 2.72841 7.38665 2.41501 7.00005 2.41501C6.61345 2.41501 6.30005 2.72841 6.30005 3.11501C6.30005 3.50161 6.61345 3.81501 7.00005 3.81501Z" fill="black"/>
</svg>
