<svg width="14" height="14" viewBox="0 0 14 14" fill="none" xmlns="http://www.w3.org/2000/svg">
<g clip-path="url(#clip0_659_7961)">
<path opacity="0.35" d="M9.27957 9.57895H4.85852V14H9.27957V9.57895Z" fill="black"/>
<path opacity="0.35" d="M7.0691 7.36842C9.10383 7.36842 10.7533 5.71894 10.7533 3.68421C10.7533 1.64948 9.10383 0 7.0691 0C5.03436 0 3.38489 1.64948 3.38489 3.68421C3.38489 5.71894 5.03436 7.36842 7.0691 7.36842Z" fill="black"/>
<path d="M11.4902 9.57895C11.3826 9.57895 9.89786 9.57895 8.17438 9.57895L7.55249 10.6149L8.47575 14C10.0673 14 11.3892 14 11.4902 14C12.7111 14 13.7007 13.0104 13.7007 11.7895C13.7007 10.5685 12.7111 9.57895 11.4902 9.57895Z" fill="black"/>
<path d="M6.58571 10.6149L5.96382 9.57895C4.24034 9.57895 2.75561 9.57895 2.64803 9.57895C1.42708 9.57895 0.4375 10.5685 0.4375 11.7895C0.4375 13.0104 1.42708 14 2.64803 14C2.74897 14 4.07087 14 5.66245 14L6.58571 10.6149Z" fill="black"/>
</g>
<defs>
<clipPath id="clip0_659_7961">
<rect width="14" height="14" fill="white"/>
</clipPath>
</defs>
</svg>
