<svg width="14" height="14" viewBox="0 0 14 14" fill="none" xmlns="http://www.w3.org/2000/svg">
<path opacity="0.35" d="M9.79999 13.6H4.19999C3.42649 13.6 2.79999 12.9735 2.79999 12.2V2.4C2.79999 1.6265 3.42649 1 4.19999 1H9.79999C10.5735 1 11.2 1.6265 11.2 2.4V12.2C11.2 12.9735 10.5735 13.6 9.79999 13.6Z" fill="black"/>
<path d="M12.6 1.70001H11.0061C11.1258 1.90651 11.2 2.14381 11.2 2.40001V12.2C11.2 12.4562 11.1258 12.6935 11.0061 12.9H12.6C13.3735 12.9 14 12.2735 14 11.5V3.10001C14 2.32651 13.3735 1.70001 12.6 1.70001Z" fill="black"/>
<path d="M1.4 12.9H2.9939C2.8742 12.6935 2.8 12.4562 2.8 12.2V2.40001C2.8 2.14381 2.8742 1.90651 2.9939 1.70001H1.4C0.6265 1.70001 0 2.32651 0 3.10001V11.5C0 12.2735 0.6265 12.9 1.4 12.9Z" fill="black"/>
<path d="M9.10001 3.79999H4.90001C4.51361 3.79999 4.20001 3.48639 4.20001 3.09999C4.20001 2.71359 4.51361 2.39999 4.90001 2.39999H9.10001C9.48641 2.39999 9.80001 2.71359 9.80001 3.09999C9.80001 3.48639 9.48641 3.79999 9.10001 3.79999Z" fill="black"/>
<path d="M9.09999 6.60001H6.99999C6.61359 6.60001 6.29999 6.28641 6.29999 5.90001C6.29999 5.51361 6.61359 5.20001 6.99999 5.20001H9.09999C9.48639 5.20001 9.79999 5.51361 9.79999 5.90001C9.79999 6.28641 9.48639 6.60001 9.09999 6.60001Z" fill="black"/>
<path d="M4.90001 6.60001C5.28661 6.60001 5.60001 6.28661 5.60001 5.90001C5.60001 5.51341 5.28661 5.20001 4.90001 5.20001C4.51341 5.20001 4.20001 5.51341 4.20001 5.90001C4.20001 6.28661 4.51341 6.60001 4.90001 6.60001Z" fill="black"/>
<path d="M9.09999 9.4H6.99999C6.61359 9.4 6.29999 9.0864 6.29999 8.7C6.29999 8.3136 6.61359 8 6.99999 8H9.09999C9.48639 8 9.79999 8.3136 9.79999 8.7C9.79999 9.0864 9.48639 9.4 9.09999 9.4Z" fill="black"/>
<path d="M9.09999 12.2H6.99999C6.61359 12.2 6.29999 11.8864 6.29999 11.5C6.29999 11.1136 6.61359 10.8 6.99999 10.8H9.09999C9.48639 10.8 9.79999 11.1136 9.79999 11.5C9.79999 11.8864 9.48639 12.2 9.09999 12.2Z" fill="black"/>
<path d="M4.90001 9.4C5.28661 9.4 5.60001 9.0866 5.60001 8.7C5.60001 8.3134 5.28661 8 4.90001 8C4.51341 8 4.20001 8.3134 4.20001 8.7C4.20001 9.0866 4.51341 9.4 4.90001 9.4Z" fill="black"/>
<path d="M4.90001 12.2C5.28661 12.2 5.60001 11.8866 5.60001 11.5C5.60001 11.1134 5.28661 10.8 4.90001 10.8C4.51341 10.8 4.20001 11.1134 4.20001 11.5C4.20001 11.8866 4.51341 12.2 4.90001 12.2Z" fill="black"/>
</svg>
