<svg width="14" height="14" viewBox="0 0 14 14" fill="none" xmlns="http://www.w3.org/2000/svg">
<path opacity="0.35" d="M5.85615 0.420386C5.85064 0.401081 5.84748 0.366804 5.84748 0.341588C5.84748 0.152868 6.00035 0 6.18907 0C6.26945 0 6.32539 0.0299431 6.34746 0.0386108C6.76508 0.201722 9.63254 1.55389 8.96945 5.46344C9.93236 4.8831 9.58801 3.75629 9.90321 3.75629C10.0214 3.75629 10.0699 3.80042 10.1424 3.90404C11.1959 5.4075 11.9937 7.20054 11.9937 8.87815C11.9937 11.707 9.7007 14 6.87186 14C3.76131 14 1.75 11.38 1.75 8.87815C1.75 4.71683 6.65437 3.94856 5.85615 0.420386Z" fill="black"/>
<path d="M6.74022 5.01233C6.74022 5.01233 6.65315 4.93826 6.52707 4.93826C6.33678 4.93826 6.18233 5.09271 6.18233 5.283C6.52707 7.35144 4.11389 8.04093 4.11389 10.4541C4.11389 11.9773 5.34865 13.212 6.87181 13.212C8.39497 13.212 9.62974 11.9773 9.62974 10.4541C9.62974 8.48889 7.89894 5.86611 6.74022 5.01233Z" fill="black"/>
</svg>
