<svg width="14" height="14" viewBox="0 0 14 14" fill="none" xmlns="http://www.w3.org/2000/svg">
<g clip-path="url(#clip0_659_7915)">
<path opacity="0.35" d="M7.0691 7.36842C9.10383 7.36842 10.7533 5.71894 10.7533 3.68421C10.7533 1.64948 9.10383 0 7.0691 0C5.03436 0 3.38489 1.64948 3.38489 3.68421C3.38489 5.71894 5.03436 7.36842 7.0691 7.36842Z" fill="black"/>
<path opacity="0.35" d="M11.4901 9.57895H2.64803C1.42708 9.57895 0.4375 10.5685 0.4375 11.7895C0.4375 13.0104 1.42708 14 2.64803 14H11.4901C12.7111 14 13.7007 13.0104 13.7007 11.7895C13.7007 10.5685 12.7111 9.57895 11.4901 9.57895Z" fill="black"/>
<path d="M10.7533 11.7895H9.27957C8.87283 11.7895 8.54272 12.1196 8.54272 12.5263V14H11.4901V12.5263C11.4901 12.1196 11.16 11.7895 10.7533 11.7895Z" fill="black"/>
</g>
<defs>
<clipPath id="clip0_659_7915">
<rect width="14" height="14" fill="white"/>
</clipPath>
</defs>
</svg>
