<svg width="14" height="14" viewBox="0 0 14 14" fill="none" xmlns="http://www.w3.org/2000/svg">
<path opacity="0.35" d="M1 11.9V2.1C1 0.9401 1.9401 0 3.1 0H8L12.2 4.2V11.9C12.2 13.0599 11.2599 14 10.1 14H3.1C1.9401 14 1 13.0599 1 11.9Z" fill="black"/>
<path d="M7.99998 6.29999H3.79998C3.41288 6.29999 3.09998 5.98639 3.09998 5.59999C3.09998 5.21359 3.41288 4.89999 3.79998 4.89999H7.99998C8.38708 4.89999 8.69998 5.21359 8.69998 5.59999C8.69998 5.98639 8.38708 6.29999 7.99998 6.29999Z" fill="black"/>
<path d="M8 2.8V0L12.2 4.2H9.4C8.6265 4.2 8 3.5735 8 2.8Z" fill="black"/>
<path d="M7.55481 12.6C7.04521 12.6 6.66231 12.3172 6.38511 11.8972C6.17231 12.0155 6.01341 12.089 5.95531 12.1149C5.73061 12.2157 5.46811 12.1149 5.36731 11.8916C5.26651 11.6676 5.36661 11.4037 5.59061 11.3029C5.70121 11.2525 5.84821 11.1783 6.01201 11.0838C5.84611 10.5553 5.77331 9.97221 5.77331 9.48221C5.77331 8.48331 6.35991 7.70071 7.10961 7.70071C7.75711 7.70071 8.44591 8.26701 8.44591 9.31841C8.44591 10.2123 7.77671 10.9312 7.12851 11.4184C7.25031 11.599 7.39381 11.7103 7.55551 11.7103C7.87471 11.7103 8.05461 11.5479 8.31291 11.2805C8.52221 11.0642 8.75881 10.8192 9.12351 10.8192C9.51341 10.8192 9.75491 10.9963 9.93131 11.1258C10.0741 11.2308 10.1287 11.2644 10.2281 11.2644C10.4745 11.2644 10.6733 11.4639 10.6733 11.7096C10.6733 11.9553 10.4745 12.1548 10.2281 12.1548C9.82911 12.1548 9.58411 11.9749 9.40491 11.8433C9.26911 11.7439 9.21661 11.7089 9.12351 11.7089C9.12491 11.7208 9.02551 11.8237 8.95271 11.8979C8.68251 12.1779 8.27441 12.6 7.55481 12.6ZM7.10891 8.59111C6.95771 8.59111 6.66371 8.90541 6.66371 9.48221C6.66371 9.81541 6.70711 10.1955 6.78831 10.5469C7.20621 10.1955 7.55481 9.76501 7.55481 9.31841C7.55481 8.81651 7.29371 8.59111 7.10891 8.59111Z" fill="black"/>
<path d="M4.49998 9.10001H3.79998C3.41498 9.10001 3.09998 8.78501 3.09998 8.40001C3.09998 8.01501 3.41498 7.70001 3.79998 7.70001H4.49998C4.88498 7.70001 5.19998 8.01501 5.19998 8.40001C5.19998 8.78501 4.88498 9.10001 4.49998 9.10001Z" fill="black"/>
</svg>
