<svg width="14" height="14" viewBox="0 0 14 14" fill="none" xmlns="http://www.w3.org/2000/svg">
<g clip-path="url(#clip0_1940_10133)">
<path opacity="0.35" d="M10.9941 0.515771C10.8206 0.688355 8.58936 2.9205 7 4.50986C5.41064 2.9205 3.17938 0.689236 3.00591 0.515771C2.31822 -0.171924 1.20347 -0.171924 0.515771 0.515771C-0.171924 1.20347 -0.171924 2.31822 0.515771 3.00591C0.688355 3.17938 2.9205 5.41064 4.50986 7C2.9205 8.58936 0.689236 10.8206 0.515771 10.9941C-0.171924 11.6818 -0.171924 12.7965 0.515771 13.4842C1.20347 14.1719 2.31822 14.1719 3.00591 13.4842C3.13095 13.3592 13.3592 3.13095 13.4842 3.00591C14.1719 2.31822 14.1719 1.20347 13.4842 0.515771C12.7965 -0.171924 11.6818 -0.171924 10.9941 0.515771Z" fill="black"/>
<path d="M13.4842 13.4842C14.1719 12.7965 14.1719 11.6818 13.4842 10.9941C13.3116 10.8215 11.0795 8.58936 9.49014 7L7 9.49014C8.58936 11.0795 10.8206 13.3108 10.9941 13.4842C11.6818 14.1719 12.7965 14.1719 13.4842 13.4842Z" fill="black"/>
</g>
<defs>
<clipPath id="clip0_1940_10133">
<rect width="14" height="14" fill="white"/>
</clipPath>
</defs>
</svg>
