<svg width="14" height="14" viewBox="0 0 14 14" fill="none" xmlns="http://www.w3.org/2000/svg">
<path opacity="0.35" d="M12.2 4.2L8 0H3.1C1.9401 0 1 0.9401 1 2.1V11.9C1 13.0599 1.9401 14 3.1 14H10.1C11.2599 14 12.2 13.0599 12.2 11.9V4.2Z" fill="black"/>
<path d="M8 2.8V0L12.2 4.2H9.4C8.6265 4.2 8 3.5735 8 2.8Z" fill="black"/>
<path d="M6.60001 7.69999C7.37321 7.69999 8.00001 7.07319 8.00001 6.29999C8.00001 5.5268 7.37321 4.89999 6.60001 4.89999C5.82681 4.89999 5.20001 5.5268 5.20001 6.29999C5.20001 7.07319 5.82681 7.69999 6.60001 7.69999Z" fill="black"/>
<path d="M8.34999 9.10001H4.84999C4.27039 9.10001 3.79999 9.57041 3.79999 10.15C3.79999 10.7296 4.27039 11.2 4.84999 11.2H8.34999C8.92959 11.2 9.39999 10.7296 9.39999 10.15C9.39999 9.57041 8.92959 9.10001 8.34999 9.10001Z" fill="black"/>
</svg>
