<svg width="14" height="14" viewBox="0 0 14 14" fill="none" xmlns="http://www.w3.org/2000/svg">
<g clip-path="url(#clip0_306_3824)">
<path opacity="0.35" d="M14 7C14 7.434 13.832 7.868 13.503 8.197L8.197 13.503C7.868 13.832 7.434 14 7 14C6.566 14 6.132 13.832 5.803 13.503L0.497 8.197C0.168 7.868 0 7.434 0 7C0 6.566 0.168 6.132 0.497 5.803L5.803 0.497C6.132 0.168 6.566 0 7 0C7.434 0 7.868 0.168 8.197 0.497L13.503 5.803C13.832 6.132 14 6.566 14 7Z" fill="black"/>
<path d="M4.193 7H0C0 7.434 0.168 7.868 0.497 8.197L5.803 13.503C6.132 13.832 6.566 14 7 14L4.375 7.952C4.256 7.644 4.193 7.322 4.193 7Z" fill="black"/>
<path d="M13.503 5.803L8.19699 0.497C7.86799 0.168 7.43399 0 6.99999 0L4.37499 6.048C4.25599 6.356 4.19299 6.678 4.19299 7H14C14 6.566 13.832 6.132 13.503 5.803Z" fill="black"/>
</g>
<defs>
<clipPath id="clip0_306_3824">
<rect width="14" height="14" fill="white"/>
</clipPath>
</defs>
</svg>
