<svg width="14" height="14" viewBox="0 0 14 14" fill="none" xmlns="http://www.w3.org/2000/svg">
<path opacity="0.35" d="M1 11.9V2.1C1 0.9401 1.9401 0 3.1 0H8L12.2 4.2V11.9C12.2 13.0599 11.2599 14 10.1 14H3.1C1.9401 14 1 13.0599 1 11.9Z" fill="black"/>
<path d="M8 2.8V0L12.2 4.2H9.4C8.6265 4.2 8 3.5735 8 2.8Z" fill="black"/>
<path d="M8.69999 7.69999H4.49999C4.11289 7.69999 3.79999 7.38639 3.79999 6.99999C3.79999 6.61359 4.11289 6.29999 4.49999 6.29999H8.69999C9.08709 6.29999 9.39999 6.61359 9.39999 6.99999C9.39999 7.38639 9.08709 7.69999 8.69999 7.69999Z" fill="black"/>
<path d="M7.29999 10.5H4.49999C4.11289 10.5 3.79999 10.1864 3.79999 9.80001C3.79999 9.41361 4.11289 9.10001 4.49999 9.10001H7.29999C7.68709 9.10001 7.99999 9.41361 7.99999 9.80001C7.99999 10.1864 7.68709 10.5 7.29999 10.5Z" fill="black"/>
</svg>
