<svg width="14" height="14" viewBox="0 0 14 14" fill="none" xmlns="http://www.w3.org/2000/svg">
<g clip-path="url(#clip0_306_3808)">
<path opacity="0.35" d="M14 9.33333H0V3.88967L1.20944 1.33467C1.59522 0.519556 2.41656 0 3.318 0H10.6812C11.5834 0 12.4048 0.519556 12.7906 1.33544L14 3.88967V9.33333Z" fill="black"/>
<path d="M0 3.88889V11.6667C0 12.9554 1.04456 14 2.33333 14H11.6667C12.9554 14 14 12.9554 14 11.6667V3.88889H0ZM7.77778 7C7.63311 7 6.36689 7 6.22222 7C5.79289 7 5.44444 6.65155 5.44444 6.22222C5.44444 5.79289 5.79289 5.44444 6.22222 5.44444C6.36689 5.44444 7.63311 5.44444 7.77778 5.44444C8.20711 5.44444 8.55556 5.79289 8.55556 6.22222C8.55556 6.65155 8.20711 7 7.77778 7Z" fill="black"/>
</g>
<defs>
<clipPath id="clip0_306_3808">
<rect width="14" height="14" fill="white"/>
</clipPath>
</defs>
</svg>
