<svg width="14" height="14" viewBox="0 0 14 14" fill="none" xmlns="http://www.w3.org/2000/svg">
<g clip-path="url(#clip0_290_4134)">
<path opacity="0.35" d="M13.3 2.82063H7.69995V11.2206H13.3V2.82063Z" fill="black"/>
<path opacity="0.35" d="M6.3231 0.875333C6.2706 0.873933 6.2174 0.876733 6.1628 0.887933L0.5628 2.00933C0.2359 2.07443 0 2.36073 0 2.69463V11.3466C0 11.6805 0.2359 11.9668 0.5635 12.0326L6.1635 13.154C6.5968 13.2408 7 12.9076 7 12.4659V1.57533C7 1.18893 6.6906 0.886533 6.3231 0.875333Z" fill="black"/>
<path d="M2.40661 4.42854C2.62501 4.42854 2.82311 4.56084 2.90711 4.76244L3.41461 5.97904C3.46711 6.10574 3.50631 6.25274 3.54691 6.41934H3.56441C3.58751 6.31924 3.63441 6.16664 3.70511 5.96714L4.29311 4.71344C4.37431 4.53984 4.54861 4.42924 4.74041 4.42924C5.11281 4.42924 5.35151 4.82474 5.17791 5.15374L4.20561 6.99824L5.18981 8.84064C5.37461 9.19064 5.12261 9.61344 4.72641 9.61344C4.52201 9.61344 4.33441 9.49444 4.24901 9.30824L3.61061 7.92224C3.58121 7.86274 3.54621 7.74444 3.51751 7.57784H3.50701C3.48951 7.65764 3.45451 7.77734 3.40201 7.93764L2.74961 9.32924C2.66841 9.50284 2.49271 9.61344 2.30091 9.61344H2.24071C1.86341 9.61344 1.62471 9.20744 1.80741 8.87774L2.84271 7.01714L1.92361 5.21604C1.74021 4.85554 2.00131 4.42854 2.40661 4.42854Z" fill="black"/>
<path d="M13.3 2.12063H7V11.9206H13.3C13.6864 11.9206 14 11.607 14 11.2206V2.82063C14 2.43423 13.6864 2.12063 13.3 2.12063ZM9.8 10.5206H8.4V9.12063H9.8V10.5206ZM9.8 7.72063H8.4V6.32063H9.8V7.72063ZM9.8 4.92063H8.4V3.52063H9.8V4.92063ZM12.6 10.5206H11.2V9.12063H12.6V10.5206ZM12.6 7.72063H11.2V6.32063H12.6V7.72063ZM12.6 4.92063H11.2V3.52063H12.6V4.92063Z" fill="black"/>
</g>
<defs>
<clipPath id="clip0_290_4134">
<rect width="14" height="14" fill="white"/>
</clipPath>
</defs>
</svg>
