<svg width="14" height="14" viewBox="0 0 14 14" fill="none" xmlns="http://www.w3.org/2000/svg">
<path opacity="0.35" d="M7 14C10.866 14 14 10.866 14 7C14 3.13401 10.866 0 7 0C3.13401 0 0 3.13401 0 7C0 10.866 3.13401 14 7 14Z" fill="black"/>
<path d="M8.47764 9.6285L7.88964 9.2561L6.77804 10.3677L7.15044 10.9557C7.34154 11.2574 7.29744 11.6515 7.04544 11.9042C6.69544 12.2542 6.11024 12.1842 5.85334 11.7614L3.12824 7.2863C2.82514 6.7886 2.90214 6.1481 3.31374 5.7365C3.72604 5.3242 4.36724 5.2479 4.86494 5.5517L9.33374 8.2817C9.75584 8.5393 9.82514 9.1238 9.47584 9.4731L9.42614 9.5228C9.17344 9.7762 8.78004 9.8196 8.47764 9.6285ZM4.37984 6.8236L4.35184 6.8516L6.03674 9.3751L6.88234 8.5295L4.37984 6.8236Z" fill="black"/>
<path d="M8.4 6.29999C8.2208 6.29999 8.0416 6.23139 7.9051 6.09489C7.6314 5.82119 7.6314 5.37879 7.9051 5.10509L9.3051 3.70509C9.5788 3.43139 10.0212 3.43139 10.2949 3.70509C10.5686 3.97879 10.5686 4.42119 10.2949 4.69489L8.8949 6.09489C8.7584 6.23139 8.5792 6.29999 8.4 6.29999Z" fill="black"/>
<path d="M9.8 6.29999C9.6208 6.29999 9.4416 6.23139 9.3051 6.09489L7.9051 4.69489C7.6314 4.42119 7.6314 3.97879 7.9051 3.70509C8.1788 3.43139 8.6212 3.43139 8.8949 3.70509L10.2949 5.10509C10.5686 5.37879 10.5686 5.82119 10.2949 6.09489C10.1584 6.23139 9.9792 6.29999 9.8 6.29999Z" fill="black"/>
</svg>
