<svg width="14" height="14" viewBox="0 0 14 14" fill="none" xmlns="http://www.w3.org/2000/svg">
<path opacity="0.35" d="M0.327362 8.95803L1.41982 4.30336C1.58096 3.61757 2.12084 3.20393 2.69054 2.83851C3.9822 2.0087 5.05562 1.05011 5.9863 1.05011C7.53489 1.05011 8.5455 2.34938 9.25731 3.31939C10.1664 4.55713 12.6964 8.21767 13.0181 8.5482C13.4216 8.96247 13.4209 9.70853 12.9914 10.2338C12.43 10.9203 11.6218 10.6646 11.6218 10.6646C11.6218 10.6646 11.6294 11.2806 11.1161 11.7145C10.5902 12.1593 9.96214 12.0108 9.96214 12.0108C9.96214 12.0108 9.92408 12.5158 9.37912 12.8596C8.82211 13.2111 8.10269 12.7975 8.10269 12.7975C8.10269 12.7975 8.07858 13.3196 7.74805 13.534C7.37565 13.7757 6.91888 13.7155 6.5782 13.4769C6.14046 13.1699 0.327362 8.95803 0.327362 8.95803Z" fill="black"/>
<path d="M13.8694 7.18423C13.4476 6.00549 12.9457 3.95191 12.6913 3.16968C12.437 2.38745 12.1255 2.11529 11.2259 1.8444C10.9886 1.77335 8.75547 1 8.04366 1C7.81084 1 7.42258 1.08057 6.80212 1.27914C6.40498 1.40602 5.68493 1.60142 5.43688 1.89452C5.20658 2.16668 4.55885 3.56175 4.17123 4.4201C3.98344 4.83501 4.20993 5.33238 4.63435 5.42564C5.15837 5.54047 5.77502 5.46815 6.33774 4.95491C6.76787 4.56221 7.32488 4.08133 7.68586 3.77237C7.89838 3.58903 8.20163 3.60108 8.40337 3.79775C8.70535 4.09211 9.11518 4.49433 9.2611 4.64976C9.62208 5.03294 12.7884 8.28556 13.0066 8.54376C13.2458 8.82735 13.3131 9.14963 13.3131 9.14963C13.3131 9.14963 14.3592 8.55201 13.8694 7.18423Z" fill="black"/>
<path d="M6.35996 13.3665C6.5598 13.1667 6.50016 13.2263 6.7 13.0265C7.12886 12.5976 7.12886 11.9017 6.7 11.4722C6.27114 11.0433 5.57519 11.0433 5.1457 11.4722C4.94586 11.672 5.00549 11.6124 4.80565 11.8122C4.37679 12.2411 4.37679 12.937 4.80565 13.3665C5.23515 13.7954 5.93046 13.7954 6.35996 13.3665Z" fill="black"/>
<path d="M3.42075 11.2064C3.62059 11.0065 3.56095 11.0662 3.76079 10.8663C4.18965 10.4375 4.18965 9.74152 3.76079 9.31203C3.33193 8.88253 2.63598 8.88317 2.20649 9.31203C2.00665 9.51187 2.06628 9.45223 1.86645 9.65207C1.43758 10.0809 1.43758 10.7769 1.86645 11.2064C2.29594 11.6359 2.99125 11.6359 3.42075 11.2064Z" fill="black"/>
<path d="M1.87595 10.0188C2.07579 9.81894 2.01615 9.87858 2.21599 9.67874C2.64485 9.24988 2.64485 8.55393 2.21599 8.12443C1.78713 7.69494 1.09118 7.69557 0.661689 8.12443C0.46185 8.32427 0.521485 8.26464 0.321646 8.46448C-0.107215 8.89334 -0.107215 9.58929 0.321646 10.0188C0.751141 10.4483 1.44645 10.4483 1.87595 10.0188Z" fill="black"/>
<path d="M4.83103 12.472C5.03087 12.2722 5.16853 12.1345 5.36837 11.9347C5.79723 11.5058 5.79723 10.8099 5.36837 10.3804C4.93951 9.95153 4.24356 9.95153 3.81407 10.3804C3.61423 10.5802 3.47656 10.7179 3.27672 10.9177C2.84786 11.3466 2.84786 12.0425 3.27672 12.472C3.70622 12.9015 4.40217 12.9015 4.83103 12.472Z" fill="black"/>
</svg>
