<svg width="14" height="14" viewBox="0 0 14 14" fill="none" xmlns="http://www.w3.org/2000/svg">
<path opacity="0.35" d="M11.9 12.6H2.1C0.9401 12.6 0 11.6599 0 10.5V3.49999C0 2.34009 0.9401 1.39999 2.1 1.39999H11.9C13.0599 1.39999 14 2.34009 14 3.49999V10.5C14 11.6599 13.0599 12.6 11.9 12.6Z" fill="black"/>
<path d="M4.19999 6.99998C4.97319 6.99998 5.59999 6.37318 5.59999 5.59998C5.59999 4.82678 4.97319 4.19998 4.19999 4.19998C3.42679 4.19998 2.79999 4.82678 2.79999 5.59998C2.79999 6.37318 3.42679 6.99998 4.19999 6.99998Z" fill="black"/>
<path d="M5.95002 9.79998H2.45002C1.87042 9.79998 1.40002 9.32958 1.40002 8.74998C1.40002 8.17038 1.87042 7.69998 2.45002 7.69998H5.95002C6.52962 7.69998 7.00002 8.17038 7.00002 8.74998C7.00002 9.32958 6.52962 9.79998 5.95002 9.79998Z" fill="black"/>
<path d="M11.9 4.9H9.10002C8.71362 4.9 8.40002 4.5864 8.40002 4.2C8.40002 3.8136 8.71362 3.5 9.10002 3.5H11.9C12.2864 3.5 12.6 3.8136 12.6 4.2C12.6 4.5864 12.2864 4.9 11.9 4.9Z" fill="black"/>
<path d="M11.9 7.69999H9.10002C8.71362 7.69999 8.40002 7.38639 8.40002 6.99999C8.40002 6.61359 8.71362 6.29999 9.10002 6.29999H11.9C12.2864 6.29999 12.6 6.61359 12.6 6.99999C12.6 7.38639 12.2864 7.69999 11.9 7.69999Z" fill="black"/>
<path d="M11.9 10.5H9.10002C8.71362 10.5 8.40002 10.1864 8.40002 9.80001C8.40002 9.41361 8.71362 9.10001 9.10002 9.10001H11.9C12.2864 9.10001 12.6 9.41361 12.6 9.80001C12.6 10.1864 12.2864 10.5 11.9 10.5Z" fill="black"/>
</svg>
