<svg width="14" height="14" viewBox="0 0 14 14" fill="none" xmlns="http://www.w3.org/2000/svg">
<g clip-path="url(#clip0_659_7967)">
<path opacity="0.35" d="M3.87609 7.46043C1.81904 7.46043 0.145874 5.78726 0.145874 3.73021C0.145874 1.67317 1.81904 0 3.87609 0C5.93313 0 7.6063 1.67317 7.6063 3.73021C7.6063 4.39012 7.43403 5.01002 7.13223 5.54852L6.8528 6.70557L5.69372 6.98703C5.15589 7.28816 4.536 7.46043 3.87609 7.46043ZM3.87609 2.03466C2.9415 2.03466 2.18054 2.79563 2.18054 3.73021C2.18054 4.6648 2.9415 5.42577 3.87609 5.42577C4.81068 5.42577 5.57164 4.6648 5.57164 3.73021C5.57164 2.79563 4.81068 2.03466 3.87609 2.03466Z" fill="black"/>
<path d="M13.4119 13.266C13.2152 13.4627 12.9507 13.5644 12.693 13.5644C12.4352 13.5644 12.1707 13.4627 11.974 13.266L5.69373 6.98568C6.29734 6.64657 6.79244 6.15147 7.13155 5.54785L13.4119 11.8282C13.812 12.2215 13.812 12.8726 13.4119 13.266Z" fill="black"/>
<path opacity="0.35" d="M5.31464 12.3626L5.79414 12.8421C6.05932 13.1073 6.48864 13.1073 6.75314 12.8421L7.23265 12.3626C7.49783 12.0974 7.92714 12.0974 8.19165 12.3626L9.63016 13.8011C9.89534 14.0663 10.3247 14.0663 10.5892 13.8011L12.0277 12.3626L9.62948 9.96441L9.14998 9.48491L8.19097 8.52591L5.31328 11.4036C5.05013 11.6681 5.05013 12.0974 5.31464 12.3626Z" fill="black"/>
</g>
<defs>
<clipPath id="clip0_659_7967">
<rect width="14" height="14" fill="white"/>
</clipPath>
</defs>
</svg>
