<svg width="14" height="14" viewBox="0 0 14 14" fill="none" xmlns="http://www.w3.org/2000/svg">
<g clip-path="url(#clip0_306_3747)">
<path d="M3.90951 11.5823C3.5116 11.9802 2.81631 11.9809 2.4184 11.5816C2.21944 11.3833 2.10977 11.1183 2.10977 10.8364C2.10977 10.5545 2.21944 10.2901 2.4184 10.0905L5.51381 6.99507C5.0941 6.79471 4.63644 6.67871 4.15768 6.67871C3.31335 6.67871 2.51823 7.00773 1.92066 7.6053L0.926584 8.59937C0.328312 9.19694 0 9.99136 0 10.8364C0 11.6814 0.329718 12.4765 0.925881 13.0734C1.52345 13.671 2.31787 14 3.1636 14C4.00793 14 4.80305 13.671 5.40062 13.0734L6.3947 12.0793C6.99297 11.4818 7.32128 10.6873 7.32128 9.84231C7.32128 9.36356 7.20458 8.90589 7.00492 8.48618L3.90951 11.5823Z" fill="black"/>
<path d="M13.0741 0.926584C12.4765 0.329015 11.6821 0 10.8364 0C9.99206 0 9.19694 0.329015 8.59937 0.926584L7.6053 1.92066C7.00702 2.51823 6.67871 3.31264 6.67871 4.15768C6.67871 4.63644 6.79541 5.0941 6.99507 5.51381L8.53891 3.96997C8.63663 3.87225 10.0905 2.4184 10.0905 2.4184C10.2894 2.21944 10.5545 2.10977 10.8364 2.10977C11.1183 2.10977 11.3826 2.21944 11.5823 2.4191C11.7813 2.61735 11.8909 2.88239 11.8909 3.16431C11.8909 3.44622 11.7813 3.71056 11.5823 3.91021C11.5823 3.91021 10.132 5.36055 10.0307 5.46179L8.48689 7.00562C8.90659 7.20599 9.36426 7.32198 9.84302 7.32198C10.6873 7.32198 11.4825 6.99297 12.08 6.3954L13.0741 5.40133C13.6724 4.80376 14.0007 4.00934 14.0007 3.16431C14 2.31857 13.6703 1.52345 13.0741 0.926584Z" fill="black"/>
<g opacity="0.35">
<path d="M4.36366 10.6909C4.0937 10.6909 3.82374 10.5882 3.61776 10.3822C3.20578 9.97026 3.20578 9.30309 3.61776 8.89112L8.53892 3.96996C8.95089 3.55799 9.61806 3.55799 10.03 3.96996C10.442 4.38193 10.442 5.0491 10.03 5.46107L5.10887 10.3822C4.90358 10.5882 4.63362 10.6909 4.36366 10.6909Z" fill="black"/>
</g>
</g>
<defs>
<clipPath id="clip0_306_3747">
<rect width="14" height="14" fill="white"/>
</clipPath>
</defs>
</svg>
