<svg width="14" height="14" viewBox="0 0 14 14" fill="none" xmlns="http://www.w3.org/2000/svg">
<path opacity="0.35" d="M11.5 14H3.1C1.9401 14 1 13.0599 1 11.9V6.30001C1 5.14011 1.9401 4.20001 3.1 4.20001H11.5C12.6599 4.20001 13.6 5.14011 13.6 6.30001V11.9C13.6 13.0599 12.6599 14 11.5 14Z" fill="black"/>
<path d="M4.49998 4.2C4.49998 2.6537 5.75368 1.4 7.29998 1.4C8.84628 1.4 10.1 2.6537 10.1 4.2H11.5C11.5 1.8802 9.61978 0 7.29998 0C4.98018 0 3.09998 1.8802 3.09998 4.2H4.49998Z" fill="black"/>
<path d="M7.30002 7.70001C6.52652 7.70001 5.90002 8.32651 5.90002 9.10001C5.90002 9.87351 6.52652 10.5 7.30002 10.5C8.07352 10.5 8.70002 9.87351 8.70002 9.10001C8.70002 8.32651 8.07352 7.70001 7.30002 7.70001Z" fill="black"/>
</svg>
