<svg width="14" height="14" viewBox="0 0 14 14" fill="none" xmlns="http://www.w3.org/2000/svg">
<path opacity="0.35" d="M6.99974 8.10528C8.62752 8.10528 9.9471 6.7857 9.9471 5.15791C9.9471 3.53012 8.62752 2.21054 6.99974 2.21054C5.37195 2.21054 4.05237 3.53012 4.05237 5.15791C4.05237 6.7857 5.37195 8.10528 6.99974 8.10528Z" fill="black"/>
<path opacity="0.35" d="M13.5569 12.586L13.2047 11.7047C12.8687 10.8662 12.0559 10.3158 11.1518 10.3158H2.8476C1.9435 10.3158 1.13076 10.8662 0.795496 11.7055L0.443286 12.5867C0.172128 13.2632 0.67097 14 1.39971 14H12.5997C13.3284 14 13.8273 13.2632 13.5569 12.586Z" fill="black"/>
<path d="M6.99969 0C4.15106 0 1.8418 2.30926 1.8418 5.15789C1.8418 7.19674 3.90569 10.01 5.42211 11.802C6.24664 12.7761 7.75201 12.7761 8.57653 11.802C10.0937 10.01 12.1576 7.19674 12.1576 5.15789C12.1576 2.30926 9.84832 0 6.99969 0ZM6.99969 7C5.98211 7 5.15759 6.17547 5.15759 5.15789C5.15759 4.14032 5.98211 3.31579 6.99969 3.31579C8.01727 3.31579 8.8418 4.14032 8.8418 5.15789C8.8418 6.17547 8.01727 7 6.99969 7Z" fill="black"/>
</svg>
