<svg width="14" height="14" viewBox="0 0 14 14" fill="none" xmlns="http://www.w3.org/2000/svg">
<path d="M7.00007 9.10007C5.45379 9.10007 4.2001 7.84639 4.2001 6.3001V2.80015C4.2001 1.25387 5.45379 0.000183105 7.00007 0.000183105C8.54635 0.000183105 9.80003 1.25387 9.80003 2.80015V6.3001C9.80003 7.84639 8.54635 9.10007 7.00007 9.10007Z" fill="black"/>
<path opacity="0.35" d="M11.9399 7.71128C11.4723 7.57758 10.9599 7.77568 10.7387 8.20897C10.0436 9.56835 8.63175 10.5 7.00007 10.5C5.36839 10.5 3.9565 9.56835 3.26211 8.20897C3.04092 7.77568 2.52852 7.57758 2.06093 7.71128C1.42324 7.89327 1.10894 8.61777 1.41554 9.20576C2.25622 10.8213 3.78011 12.0127 5.60078 12.4285V12.6C5.60078 13.3735 6.22728 14 7.00077 14C7.77426 14 8.40075 13.3735 8.40075 12.6V12.4285C10.2214 12.0127 11.7453 10.8213 12.586 9.20576C12.8919 8.61777 12.5776 7.89327 11.9399 7.71128Z" fill="black"/>
</svg>
