<svg width="14" height="14" viewBox="0 0 14 14" fill="none" xmlns="http://www.w3.org/2000/svg">
<g clip-path="url(#clip0_1543_9920)">
<path opacity="0.35" d="M7.11927 0.519392C6.52907 0.315289 5.87182 0.500234 5.48056 0.990228L2.97607 4.12103H2.2105C0.991776 4.12103 0 5.1128 0 6.33152V7.80519C0 9.02391 0.991776 10.0157 2.2105 10.0157H2.97607L5.48056 13.1465C5.76571 13.5031 6.19234 13.6998 6.63149 13.6998C6.79507 13.6998 6.95938 13.6726 7.11927 13.6173C7.71021 13.4095 8.10515 12.8525 8.10515 12.2262V1.91053C8.10515 1.28422 7.71021 0.727178 7.11927 0.519392Z" fill="black"/>
<path d="M13.263 9.27887C13.0744 9.27887 12.8857 9.20666 12.742 9.06298L9.79472 6.11565C9.50662 5.82755 9.50662 5.36187 9.79472 5.07377C10.0828 4.78567 10.5485 4.78567 10.8366 5.07377L13.7839 8.0211C14.072 8.3092 14.072 8.77488 13.7839 9.06298C13.6402 9.20666 13.4516 9.27887 13.263 9.27887Z" fill="black"/>
<path d="M10.3157 9.27887C10.127 9.27887 9.9384 9.20666 9.79472 9.06298C9.50662 8.77488 9.50662 8.3092 9.79472 8.0211L12.742 5.07377C13.0301 4.78567 13.4958 4.78567 13.7839 5.07377C14.072 5.36187 14.072 5.82755 13.7839 6.11565L10.8366 9.06298C10.6929 9.20666 10.5043 9.27887 10.3157 9.27887Z" fill="black"/>
</g>
<defs>
<clipPath id="clip0_1543_9920">
<rect width="14" height="14" fill="white"/>
</clipPath>
</defs>
</svg>
