<svg width="14" height="14" viewBox="0 0 14 14" fill="none" xmlns="http://www.w3.org/2000/svg">
<g clip-path="url(#clip0_1940_10166)">
<path d="M7.63637 10.827C7.63637 11.2792 7.73183 11.7123 7.89728 12.1008H1.90909C0.852728 12.1008 0 11.2474 0 10.1902C0 9.13294 0.852728 8.27951 1.90909 8.27951H8.9091C8.1391 8.85908 7.63637 9.78893 7.63637 10.827Z" fill="black"/>
<path d="M9.23556 11.499L11.4857 9.24694C11.7346 8.99792 12.1374 8.99792 12.3856 9.24694C12.6344 9.49596 12.6344 9.89911 12.3856 10.1475L10.1354 12.3995C9.88656 12.6485 9.48374 12.6485 9.23556 12.3995C8.98674 12.1511 8.98674 11.748 9.23556 11.499Z" fill="black"/>
<path d="M10.1354 9.24758L12.3856 11.4996C12.6344 11.7486 12.6344 12.1518 12.3856 12.4002C12.1367 12.6492 11.7339 12.6492 11.4857 12.4002L9.23556 10.1481C8.98674 9.89911 8.98674 9.49596 9.23556 9.24758C9.48374 8.99856 9.88656 8.99856 10.1354 9.24758Z" fill="black"/>
<g opacity="0.35">
<path d="M5.72723 6.36885C7.4845 6.36885 8.90905 4.94313 8.90905 3.18442C8.90905 1.42571 7.4845 0 5.72723 0C3.96996 0 2.54541 1.42571 2.54541 3.18442C2.54541 4.94313 3.96996 6.36885 5.72723 6.36885Z" fill="black"/>
<path d="M10.8181 14C12.5754 14 14 12.5743 14 10.8156C14 9.05687 12.5754 7.63115 10.8181 7.63115C9.06087 7.63115 7.63632 9.05687 7.63632 10.8156C7.63632 12.5743 9.06087 14 10.8181 14Z" fill="black"/>
</g>
</g>
<defs>
<clipPath id="clip0_1940_10166">
<rect width="14" height="14" fill="white"/>
</clipPath>
</defs>
</svg>
