<svg width="14" height="14" viewBox="0 0 14 14" fill="none" xmlns="http://www.w3.org/2000/svg">
<path opacity="0.35" d="M8.27271 4.81818H5.72726C5.02407 4.81818 4.45453 4.24864 4.45453 3.54545V2.27273C4.45453 1.56955 5.02407 1 5.72726 1H8.27271C8.97589 1 9.54544 1.56955 9.54544 2.27273V3.54545C9.54544 4.24864 8.97589 4.81818 8.27271 4.81818Z" fill="black"/>
<path opacity="0.35" d="M5.09088 11.8182V10.5455C5.09088 9.84228 5.66043 9.27274 6.36361 9.27274H7.63634C8.33952 9.27274 8.90906 9.84228 8.90906 10.5455V11.8182C8.90906 12.5214 8.33952 13.0909 7.63634 13.0909H6.36361C5.66043 13.0909 5.09088 12.5214 5.09088 11.8182Z" fill="black"/>
<path opacity="0.35" d="M10.1818 11.8182V10.5455C10.1818 9.84228 10.7514 9.27274 11.4546 9.27274H12.7273C13.4305 9.27274 14 9.84228 14 10.5455V11.8182C14 12.5214 13.4305 13.0909 12.7273 13.0909H11.4546C10.7514 13.0909 10.1818 12.5214 10.1818 11.8182Z" fill="black"/>
<path opacity="0.35" d="M0 11.8182V10.5455C0 9.84228 0.569545 9.27274 1.27273 9.27274H2.54545C3.24864 9.27274 3.81818 9.84228 3.81818 10.5455V11.8182C3.81818 12.5214 3.24864 13.0909 2.54545 13.0909H1.27273C0.569545 13.0909 0 12.5214 0 11.8182Z" fill="black"/>
<path d="M7.63634 6.0909V4.81818H6.36361V6.0909H3.1818C2.12734 6.0909 1.27271 6.94554 1.27271 7.99999V9.27272H2.54543V7.99999C2.54543 7.64872 2.83052 7.36363 3.1818 7.36363H6.36361V9.27272H7.63634V7.36363H10.8182C11.1694 7.36363 11.4545 7.64872 11.4545 7.99999V9.27272H12.7273V7.99999C12.7273 6.94554 11.8726 6.0909 10.8182 6.0909H7.63634Z" fill="black"/>
</svg>
