<svg width="14" height="14" viewBox="0 0 14 14" fill="none" xmlns="http://www.w3.org/2000/svg">
<path opacity="0.35" d="M1.40002 11.9V2.1C1.40002 0.9401 2.34012 0 3.50002 0H10.5C11.6599 0 12.6 0.9401 12.6 2.1V11.9C12.6 13.0599 11.6599 14 10.5 14H3.50002C2.34012 14 1.40002 13.0599 1.40002 11.9Z" fill="black"/>
<path d="M9.10001 7.69999H4.90001C4.51291 7.69999 4.20001 7.38639 4.20001 6.99999C4.20001 6.61359 4.51291 6.29999 4.90001 6.29999H9.10001C9.48711 6.29999 9.80001 6.61359 9.80001 6.99999C9.80001 7.38639 9.48711 7.69999 9.10001 7.69999Z" fill="black"/>
<path d="M7.70001 10.5H4.90001C4.51291 10.5 4.20001 10.1864 4.20001 9.80001C4.20001 9.41361 4.51291 9.10001 4.90001 9.10001H7.70001C8.08711 9.10001 8.40001 9.41361 8.40001 9.80001C8.40001 10.1864 8.08711 10.5 7.70001 10.5Z" fill="black"/>
<path d="M7.70001 4.9H4.90001C4.51291 4.9 4.20001 4.5864 4.20001 4.2C4.20001 3.8136 4.51291 3.5 4.90001 3.5H7.70001C8.08711 3.5 8.40001 3.8136 8.40001 4.2C8.40001 4.5864 8.08711 4.9 7.70001 4.9Z" fill="black"/>
</svg>
