<svg width="14" height="14" viewBox="0 0 14 14" fill="none" xmlns="http://www.w3.org/2000/svg">
<path opacity="0.35" d="M3.5 0C2.53312 0 1.75 0.783125 1.75 1.75V12.25C1.75 13.2169 2.53312 14 3.5 14C4.46688 14 5.25 13.2169 5.25 12.25V1.75C5.25 0.783125 4.46688 0 3.5 0Z" fill="black"/>
<path d="M8.75 1.75V12.25H12.25V1.75H8.75Z" fill="black"/>
<path d="M10.5 3.5C11.4665 3.5 12.25 2.7165 12.25 1.75C12.25 0.783502 11.4665 0 10.5 0C9.5335 0 8.75 0.783502 8.75 1.75C8.75 2.7165 9.5335 3.5 10.5 3.5Z" fill="black"/>
<path d="M10.5 14C11.4665 14 12.25 13.2165 12.25 12.25C12.25 11.2835 11.4665 10.5 10.5 10.5C9.5335 10.5 8.75 11.2835 8.75 12.25C8.75 13.2165 9.5335 14 10.5 14Z" fill="black"/>
</svg>
