<svg width="14" height="14" viewBox="0 0 14 14" fill="none" xmlns="http://www.w3.org/2000/svg">
<path opacity="0.35" d="M1.45837 11.9V2.1C1.45837 0.9401 2.39847 0 3.55837 0H8.45837L12.6584 4.2V11.9C12.6584 13.0599 11.7183 14 10.5584 14H3.55837C2.39847 14 1.45837 13.0599 1.45837 11.9Z" fill="black"/>
<path d="M8.45837 2.8V0L12.6584 4.2H9.85837C9.08487 4.2 8.45837 3.5735 8.45837 2.8Z" fill="black"/>
<path d="M9.39075 11.2728C8.79785 11.2728 8.13775 10.6708 7.56725 9.8476C7.15145 9.8609 6.75665 9.9022 6.39405 9.9631C5.72975 11.0495 4.97655 11.9 4.40255 11.9C3.77115 11.9 3.55835 11.2763 3.55835 10.9914C3.55835 10.0968 4.69025 9.5683 5.94045 9.3093C6.17635 8.9068 6.40525 8.4707 6.60265 8.0388C6.31145 7.3171 6.13225 6.6129 6.13225 6.0886C6.13225 5.7561 6.20085 5.4866 6.33525 5.2864C6.50325 5.0365 6.77485 4.9 7.09755 4.9C7.38105 4.9 7.61905 5.0197 7.76745 5.2374C7.88645 5.4117 7.94385 5.6364 7.94385 5.9241C7.94385 6.4176 7.72265 7.1932 7.37825 8.0227C7.54415 8.3993 7.73875 8.7717 7.94525 9.1105C8.42475 9.1133 9.08415 9.1574 9.62175 9.338C10.3959 9.5984 10.5583 10.0247 10.5583 10.3369C10.5576 10.787 10.1929 11.2728 9.39075 11.2728Z" fill="black"/>
</svg>
