<svg width="14" height="14" viewBox="0 0 14 14" fill="none" xmlns="http://www.w3.org/2000/svg">
<g clip-path="url(#clip0_972_10137)">
<path d="M5.14819 0.000300646C4.70214 -0.00816634 4.27309 0.162426 3.95157 0.484272L0.484662 3.95118C0.117206 4.31863 -0.0541475 4.82471 0.0150727 5.33981C0.0842929 5.85454 0.383121 6.2974 0.834157 6.55513L4.55276 8.68087L5.9493 12.1715C6.01852 12.3438 6.16869 12.4702 6.35057 12.5073C6.38776 12.5151 6.42485 12.5188 6.46204 12.5188C6.60674 12.5188 6.74796 12.4616 6.85252 12.357L9.21413 9.99471L13.0492 13.8298C13.1001 13.8828 13.1611 13.9251 13.2285 13.9543C13.296 13.9834 13.3686 13.9988 13.442 13.9996C13.5155 14.0003 13.5884 13.9864 13.6564 13.9586C13.7245 13.9309 13.7863 13.8898 13.8382 13.8378C13.8902 13.7859 13.9312 13.7241 13.959 13.656C13.9868 13.588 14.0007 13.5151 14 13.4417C13.9992 13.3682 13.9838 13.2956 13.9547 13.2281C13.9255 13.1607 13.8832 13.0997 13.8302 13.0488L9.9951 9.21374L12.3574 6.85213C12.4885 6.72106 12.5449 6.53207 12.5077 6.35018C12.4705 6.1683 12.3446 6.01776 12.1719 5.94891L8.68054 4.55237L6.55624 0.833768C6.29851 0.382732 5.8553 0.0839033 5.3402 0.0146832C5.27604 0.00607666 5.21192 0.00151023 5.14819 0.000300646Z" fill="black"/>
</g>
<defs>
<clipPath id="clip0_972_10137">
<rect width="14" height="14" fill="white"/>
</clipPath>
</defs>
</svg>
