<svg width="14" height="14" viewBox="0 0 14 14" fill="none" xmlns="http://www.w3.org/2000/svg">
<g clip-path="url(#clip0_290_4141)">
<path opacity="0.35" d="M13.3 2.82063H7V11.2206H13.3V2.82063Z" fill="black"/>
<path opacity="0.35" d="M6.3231 0.875333C6.2706 0.873933 6.2174 0.876733 6.1628 0.887933L0.5628 2.00933C0.2359 2.07443 0 2.36073 0 2.69463V11.3466C0 11.6805 0.2359 11.9668 0.5635 12.0326L6.1635 13.154C6.5968 13.2408 7 12.9076 7 12.4659V1.57533C7 1.18893 6.6906 0.886533 6.3231 0.875333Z" fill="black"/>
<path d="M5.03863 4.70923C4.66903 4.38373 4.17063 4.22063 3.54273 4.22063H2.09233C1.70593 4.22063 1.39233 4.53423 1.39233 4.92063V9.29213C1.39233 9.58403 1.62893 9.82063 1.92153 9.82063C2.21343 9.82063 2.45003 9.58403 2.45003 9.29213V7.74373H3.53083C4.18183 7.74373 4.68863 7.59113 5.04983 7.28523C5.41173 6.97933 5.59233 6.55233 5.59233 6.00283C5.59233 5.46663 5.40823 5.03543 5.03863 4.70923ZM4.22663 6.61323C4.05443 6.76163 3.80523 6.83583 3.47833 6.83583H2.80003C2.60683 6.83583 2.45003 6.67903 2.45003 6.48583V5.40223C2.45003 5.20903 2.60683 5.05223 2.80003 5.05223H3.50353C3.80873 5.05643 4.04883 5.14113 4.22243 5.30703C4.39743 5.47223 4.48423 5.69273 4.48423 5.96923C4.48423 6.24993 4.39883 6.46483 4.22663 6.61323Z" fill="black"/>
<path d="M13.3 2.12063H7V11.9206H13.3C13.6864 11.9206 14 11.607 14 11.2206V2.82063C14 2.43423 13.6864 2.12063 13.3 2.12063ZM11.9 9.82063H8.4V8.42063H11.9V9.82063ZM10.15 7.02063C9.1833 7.02063 8.4 6.23733 8.4 5.27063C8.4 4.30393 9.1833 3.52063 10.15 3.52063V5.27063H11.9C11.9 6.23733 11.1167 7.02063 10.15 7.02063Z" fill="black"/>
</g>
<defs>
<clipPath id="clip0_290_4141">
<rect width="14" height="14" fill="white"/>
</clipPath>
</defs>
</svg>
