<svg width="14" height="14" viewBox="0 0 14 14" fill="none" xmlns="http://www.w3.org/2000/svg">
<path d="M12.6 10.85V12.25H1.4V10.85C0.6265 10.85 0 11.4765 0 12.25C0 13.0228 0.6265 13.65 1.4 13.65C1.8207 13.65 12.1793 13.65 12.6 13.65C13.3735 13.65 14 13.0228 14 12.25C14 11.4765 13.3735 10.85 12.6 10.85Z" fill="black"/>
<path opacity="0.35" d="M10.5 0.639806C10.1136 1.02621 9.48642 1.02621 9.10002 0.639806C8.71362 0.253406 8.08642 0.253406 7.70002 0.639806C7.31362 1.02621 6.68642 1.02621 6.30002 0.639806C5.91362 0.253406 5.28642 0.253406 4.90002 0.639806C4.51362 1.02621 3.88642 1.02621 3.50002 0.639806C3.11362 0.253406 2.48642 0.253406 2.10002 0.639806L1.68982 1.05001C1.50432 1.23551 1.40002 1.48751 1.40002 1.75001V12.25H12.6V1.75001C12.6 1.48751 12.4957 1.23551 12.3102 1.05001L11.9 0.639806C11.5136 0.253406 10.8864 0.253406 10.5 0.639806Z" fill="black"/>
<path d="M9.8 5.25001H4.2C3.8129 5.25001 3.5 4.93641 3.5 4.55001C3.5 4.16361 3.8129 3.85001 4.2 3.85001H9.8C10.1871 3.85001 10.5 4.16361 10.5 4.55001C10.5 4.93641 10.1871 5.25001 9.8 5.25001Z" fill="black"/>
<path d="M7 8.04999H4.2C3.8129 8.04999 3.5 7.73639 3.5 7.34999C3.5 6.96359 3.8129 6.64999 4.2 6.64999H7C7.3871 6.64999 7.7 6.96359 7.7 7.34999C7.7 7.73639 7.3871 8.04999 7 8.04999Z" fill="black"/>
<path d="M9.79998 8.04999C10.1866 8.04999 10.5 7.73659 10.5 7.34999C10.5 6.96339 10.1866 6.64999 9.79998 6.64999C9.41338 6.64999 9.09998 6.96339 9.09998 7.34999C9.09998 7.73659 9.41338 8.04999 9.79998 8.04999Z" fill="black"/>
<path d="M7 10.85H4.2C3.8129 10.85 3.5 10.5364 3.5 10.15C3.5 9.76361 3.8129 9.45001 4.2 9.45001H7C7.3871 9.45001 7.7 9.76361 7.7 10.15C7.7 10.5364 7.3871 10.85 7 10.85Z" fill="black"/>
<path d="M9.79998 10.85C10.1866 10.85 10.5 10.5366 10.5 10.15C10.5 9.76341 10.1866 9.45001 9.79998 9.45001C9.41338 9.45001 9.09998 9.76341 9.09998 10.15C9.09998 10.5366 9.41338 10.85 9.79998 10.85Z" fill="black"/>
</svg>
