<svg width="14" height="14" viewBox="0 0 14 14" fill="none" xmlns="http://www.w3.org/2000/svg">
<g clip-path="url(#clip0_306_3813)">
<path d="M7.00342 1.0237e-05C6.9053 -0.000602385 6.80897 0.0262926 6.72535 0.0776448C6.64174 0.128997 6.57419 0.202752 6.53036 0.290544L4.727 3.89726L0.444881 4.55626C0.349032 4.57107 0.259158 4.61214 0.185226 4.67491C0.111293 4.73768 0.056192 4.81971 0.0260323 4.91189C-0.00412739 5.00407 -0.00816682 5.1028 0.0143619 5.19713C0.0368906 5.29146 0.0851072 5.37771 0.153664 5.44632L3.11574 8.40839L2.45606 12.6953C2.4413 12.7912 2.45341 12.8893 2.49104 12.9788C2.52867 13.0682 2.59036 13.1455 2.66925 13.202C2.74813 13.2585 2.84114 13.2921 2.93793 13.2989C3.03473 13.3058 3.13153 13.2857 3.2176 13.2408L7 11.2672L10.7824 13.2408C10.8685 13.2857 10.9653 13.3058 11.0621 13.2989C11.1589 13.2921 11.2519 13.2585 11.3308 13.202C11.4096 13.1455 11.4713 13.0682 11.509 12.9788C11.5466 12.8893 11.5587 12.7912 11.5439 12.6953L10.8843 8.40839L13.8463 5.44632C13.9149 5.37771 13.9631 5.29146 13.9856 5.19713C14.0082 5.1028 14.0041 5.00407 13.974 4.91189C13.9438 4.81971 13.8887 4.73768 13.8148 4.67491C13.7408 4.61214 13.651 4.57107 13.5551 4.55626L9.273 3.89726L7.46964 0.290544C7.42633 0.20379 7.35985 0.130724 7.27755 0.0794421C7.19526 0.0281606 7.10038 0.000667488 7.00342 1.0237e-05Z" fill="black"/>
</g>
<defs>
<clipPath id="clip0_306_3813">
<rect width="14" height="14" fill="white"/>
</clipPath>
</defs>
</svg>
