<svg width="14" height="14" viewBox="0 0 14 14" fill="none" xmlns="http://www.w3.org/2000/svg">
<path d="M11.7238 11.7813C11.5937 11.7813 2.23953 11.7813 2.10936 11.7813C1.49699 11.7813 1 12.2783 1 12.8906C1 13.503 1.49699 14 2.10936 14C2.23953 14 11.5937 14 11.7238 14C12.3362 14 12.8332 13.503 12.8332 12.8906C12.8332 12.2783 12.3362 11.7813 11.7238 11.7813Z" fill="black"/>
<path opacity="0.35" d="M11.354 11.7813V11.7628C11.354 10.9115 10.9014 10.1365 10.184 9.67793C9.10053 8.98495 7.65614 7.71362 7.65614 5.86469H9.87486C10.6921 5.86469 11.354 5.20277 11.354 4.38554C11.354 3.91961 11.1351 3.48178 10.7624 3.20222L8.39572 1.42724V0.746097C8.39572 0.297916 7.99857 -0.0556007 7.55482 0.00726306C4.68527 0.415508 2.47913 2.88273 2.47913 5.86469V11.7813H11.354Z" fill="black"/>
</svg>
