<svg width="14" height="14" viewBox="0 0 14 14" fill="none" xmlns="http://www.w3.org/2000/svg">
<path opacity="0.35" d="M11.3651 5.02867C10.7012 3.26058 9.00025 2 7 2C4.60133 2 2.62733 3.81067 2.36542 6.13875C1.0185 6.39717 0 7.57783 0 9C0 10.6106 1.30608 11.9167 2.91667 11.9167H10.5C12.4332 11.9167 14 10.3498 14 8.41667C14 6.78275 12.8788 5.41483 11.3651 5.02867Z" fill="black"/>
<path d="M5.5545 6.08332C5.285 6.08332 5.14908 5.75782 5.33866 5.56591L6.6885 4.20324C6.86 4.02999 7.14058 4.02999 7.31208 4.20324L8.66191 5.56591C8.8515 5.75782 8.71558 6.08332 8.4455 6.08332H5.5545Z" fill="black"/>
<path d="M6.41669 5.49999V9.58332C6.41669 9.90532 6.67802 10.1667 7.00002 10.1667C7.32202 10.1667 7.58335 9.90532 7.58335 9.58332V5.49999C7.58335 5.17799 7.32202 4.91666 7.00002 4.91666C6.67802 4.91666 6.41669 5.17799 6.41669 5.49999Z" fill="black"/>
</svg>
