<svg width="14" height="14" viewBox="0 0 14 14" fill="none" xmlns="http://www.w3.org/2000/svg">
<path opacity="0.35" d="M12.7272 1.27274H3.81815C2.76369 1.27274 1.90906 2.12737 1.90906 3.18183V10.8182C1.90906 11.8726 2.76369 12.7273 3.81815 12.7273H9.54542C10.5999 12.7273 11.4545 11.8726 11.4545 10.8182V2.54546C11.4545 1.84228 12.0241 1.27274 12.7272 1.27274Z" fill="black"/>
<path d="M9.54545 12.7273H1.90909C0.854636 12.7273 0 11.8727 0 10.8182C0 10.115 0.569546 9.54547 1.27273 9.54547H6.36364C7.06682 9.54547 7.63636 10.115 7.63636 10.8182C7.63636 11.8727 8.491 12.7273 9.54545 12.7273Z" fill="black"/>
<path d="M14 3.18183V2.54546C14 1.84228 13.4305 1.27274 12.7273 1.27274C12.0241 1.27274 11.4546 1.84228 11.4546 2.54546V4.45455H12.7273C13.4305 4.45455 14 3.88501 14 3.18183Z" fill="black"/>
<path d="M6.01813 8.21291C5.77377 8.21291 5.5294 8.12 5.34295 7.93354L3.43386 6.02445C3.06095 5.65218 3.06095 5.047 3.43386 4.67472C3.80677 4.30181 4.41068 4.30181 4.78358 4.67472L6.01749 5.90863L8.52413 3.402C8.89704 3.02909 9.50095 3.02909 9.87386 3.402C10.2468 3.77427 10.2468 4.37945 9.87386 4.75172L6.69204 7.93354C6.50686 8.11936 6.26249 8.21291 6.01813 8.21291Z" fill="black"/>
</svg>
