<svg width="14" height="14" viewBox="0 0 14 14" fill="none" xmlns="http://www.w3.org/2000/svg">
<path opacity="0.35" fill-rule="evenodd" clip-rule="evenodd" d="M4.6543 1.3363C5.054 0.5719 5.9689 0 7 0C8.0311 0 8.9467 0.5712 9.3457 1.3363C10.1689 1.078 11.2196 1.3209 11.9497 2.0503C12.6791 2.7797 12.922 3.8304 12.6637 4.6543C13.4281 5.054 14 5.9689 14 7C14 8.0311 13.4288 8.946 12.6637 9.3457C12.922 10.1689 12.6791 11.2196 11.9497 11.9497C11.2203 12.6791 10.1696 12.922 9.3457 12.6637C8.946 13.4281 8.0311 14 7 14C5.9689 14 5.054 13.4288 4.6543 12.6637C3.8311 12.922 2.7797 12.6791 2.0503 11.9497C1.3209 11.2203 1.078 10.1689 1.3363 9.3457C0.5719 8.946 0 8.0311 0 7C0 5.9689 0.5712 5.0533 1.3363 4.6543C1.078 3.8311 1.3209 2.7804 2.0503 2.0503C2.7797 1.3209 3.8311 1.0787 4.6543 1.3363Z" fill="black"/>
<path fill-rule="evenodd" clip-rule="evenodd" d="M6.06055 9.80841C5.88135 9.80841 5.70215 9.73981 5.56565 9.60331L3.46565 7.50331C3.19195 7.22961 3.19195 6.78721 3.46565 6.51351C3.73935 6.23981 4.18175 6.23981 4.45545 6.51351L6.06055 8.11861L9.06565 5.11351C9.33935 4.83981 9.78175 4.83981 10.0555 5.11351C10.3292 5.38721 10.3292 5.82961 10.0555 6.10331L6.55545 9.60331C6.41895 9.73981 6.23975 9.80841 6.06055 9.80841Z" fill="black"/>
</svg>
