<svg width="14" height="14" viewBox="0 0 14 14" fill="none" xmlns="http://www.w3.org/2000/svg">
<path d="M9.46052 6.00011L5.96052 3.90011C5.85432 3.8363 5.73308 3.80182 5.6092 3.8002C5.48531 3.79858 5.36321 3.82986 5.25537 3.89087C5.14753 3.95187 5.05782 4.0404 4.99539 4.14742C4.93296 4.25444 4.90005 4.37611 4.90002 4.50001V8.70001C4.89992 8.82396 4.93274 8.94572 4.99512 9.05284C5.0575 9.15996 5.14721 9.24859 5.25507 9.30968C5.36293 9.37076 5.48508 9.40211 5.60902 9.40052C5.73297 9.39892 5.85427 9.36445 5.96052 9.30061L9.46052 7.20061C9.56418 7.13842 9.64996 7.05044 9.70952 6.94525C9.76908 6.84006 9.80039 6.72124 9.80039 6.60036C9.80039 6.47948 9.76908 6.36065 9.70952 6.25546C9.64996 6.15027 9.56418 6.0623 9.46052 6.00011Z" fill="black"/>
<path opacity="0.35" d="M11.9 1H2.1C0.940202 1 0 1.9402 0 3.1V10.1C0 11.2598 0.940202 12.2 2.1 12.2H11.9C13.0598 12.2 14 11.2598 14 10.1V3.1C14 1.9402 13.0598 1 11.9 1Z" fill="black"/>
</svg>
