<svg width="14" height="14" viewBox="0 0 14 14" fill="none" xmlns="http://www.w3.org/2000/svg">
<g clip-path="url(#clip0_1543_9918)">
<path d="M10.549 11.0638C10.2294 11.0638 9.92912 10.8654 9.81634 10.5465C9.67245 10.1413 9.88401 9.69713 10.2885 9.55324C11.3751 9.16666 12.1047 8.14073 12.1047 6.99967C12.1047 5.85862 11.3751 4.83268 10.2885 4.44688C9.88323 4.30221 9.67245 3.85808 9.81634 3.45361C9.96024 3.04915 10.4059 2.83758 10.8096 2.98148C12.5146 3.58662 13.6603 5.20136 13.6603 6.99967C13.6603 8.79798 12.5146 10.4127 10.8096 11.0186C10.7241 11.049 10.6354 11.0638 10.549 11.0638Z" fill="black"/>
<path d="M8.99341 5.44403V8.55529C9.85289 8.55529 10.549 7.85837 10.549 6.99966C10.549 6.14018 9.85289 5.44403 8.99341 5.44403Z" fill="black"/>
<path opacity="0.35" d="M7.95275 0.0864466C7.32972 -0.129008 6.63591 0.0662233 6.22289 0.58347L3.57909 3.88841H2.77094C1.48444 3.88841 0.4375 4.93534 0.4375 6.22185V7.77748C0.4375 9.06399 1.48444 10.1109 2.77094 10.1109H3.57909L6.22289 13.4159C6.5239 13.7923 6.97426 14 7.43783 14C7.61051 14 7.78396 13.9712 7.95275 13.9129C8.57656 13.6935 8.99346 13.1055 8.99346 12.4444V1.55496C8.99346 0.893818 8.57656 0.30579 7.95275 0.0864466Z" fill="black"/>
</g>
<defs>
<clipPath id="clip0_1543_9918">
<rect width="14" height="14" fill="white"/>
</clipPath>
</defs>
</svg>
