<svg width="14" height="14" viewBox="0 0 14 14" fill="none" xmlns="http://www.w3.org/2000/svg">
<g clip-path="url(#clip0_290_4121)">
<path opacity="0.35" d="M13.3 2.82063H7V11.2206H13.3V2.82063Z" fill="black"/>
<path opacity="0.35" d="M6.3231 0.875333C6.2706 0.873933 6.2174 0.876733 6.1628 0.887933L0.5628 2.00933C0.2359 2.07443 0 2.36073 0 2.69463V11.3466C0 11.6805 0.2359 11.9668 0.5635 12.0326L6.1635 13.154C6.5968 13.2408 7 12.9076 7 12.4659V1.57533C7 1.18893 6.6906 0.886533 6.3231 0.875333Z" fill="black"/>
<path d="M4.65708 9.61483C4.39318 9.61483 4.16428 9.43143 4.10688 9.17383L3.58958 6.84213C3.55878 6.66923 3.54128 6.47533 3.53428 6.26183H3.52238C3.50978 6.49493 3.48598 6.68813 3.45588 6.84213L2.93158 9.15703C2.87068 9.42443 2.63338 9.61483 2.35898 9.61483C2.07618 9.61483 1.83328 9.41323 1.78148 9.13463L1.01428 5.00463C0.958284 4.70503 1.18858 4.42783 1.49378 4.42783H1.55888C1.80178 4.42783 2.00758 4.60703 2.04188 4.84713L2.32678 6.86243C2.35128 7.00873 2.36948 7.20893 2.37508 7.45533H2.39328C2.39888 7.27543 2.42408 7.06893 2.46678 6.84843L2.79158 5.06623C2.85948 4.69593 3.18148 4.42713 3.55808 4.42713C3.93818 4.42713 4.26298 4.70153 4.32668 5.07603L4.62558 6.84073C4.65008 6.96743 4.66828 7.15363 4.68648 7.39443H4.69908C4.70468 7.20753 4.72358 7.01433 4.74738 6.81413L5.02318 4.84713C5.05678 4.60633 5.26328 4.42713 5.50618 4.42713C5.81138 4.42713 6.04168 4.70433 5.98568 5.00463L5.21078 9.15493C5.16038 9.42093 4.92798 9.61483 4.65708 9.61483Z" fill="black"/>
<path d="M13.3 2.12063H7V11.9206H13.3C13.6864 11.9206 14 11.607 14 11.2206V2.82063C14 2.43423 13.6864 2.12063 13.3 2.12063ZM12.6 10.5206H8.4V9.12063H12.6V10.5206ZM12.6 7.72063H8.4V6.32063H12.6V7.72063ZM12.6 4.92063H8.4V3.52063H12.6V4.92063Z" fill="black"/>
</g>
<defs>
<clipPath id="clip0_290_4121">
<rect width="14" height="14" fill="white"/>
</clipPath>
</defs>
</svg>
