<svg width="14" height="14" viewBox="0 0 14 14" fill="none" xmlns="http://www.w3.org/2000/svg">
<path d="M6.64604 0C6.12649 3.49792e-08 5.60729 0.121519 5.1321 0.364822C5.13164 0.365049 5.13119 0.365277 5.13073 0.365505L1.04323 2.46972C0.403682 2.7991 0 3.46077 0 4.18042V9.81945C0 10.5389 0.403222 11.2003 1.04323 11.5295L5.13073 13.6344C5.13096 13.6346 5.13119 13.6348 5.13142 13.635C6.08179 14.1217 7.20961 14.1217 8.15999 13.635C8.16044 13.6348 8.1609 13.6346 8.16135 13.6344L12.2489 11.5295C12.8884 11.2001 13.2914 10.5389 13.2914 9.81945V4.18042C13.2914 3.46116 12.8886 2.79962 12.2489 2.4704H12.2482L8.16135 0.365505C8.16112 0.365277 8.1609 0.365049 8.16067 0.364822C7.6855 0.121518 7.1656 0 6.64604 0ZM6.64604 1.04938C7.00132 1.04938 7.35695 1.13277 7.68244 1.29942L11.7679 3.40295C11.7681 3.40318 11.7684 3.40341 11.7686 3.40364C12.0604 3.55372 12.242 3.85188 12.242 4.18042V9.81945C12.242 10.148 12.0602 10.4464 11.7679 10.5969L7.68175 12.7004C7.03124 13.0335 6.2617 13.0337 5.61101 12.7011L5.60965 12.7004L1.52351 10.5969C1.52351 10.5967 1.52351 10.5965 1.52351 10.5962C1.23165 10.4461 1.04938 10.148 1.04938 9.81945V4.18042C1.04938 3.8514 1.23121 3.55349 1.52351 3.40295L5.61033 1.29942C5.93582 1.13277 6.29077 1.04938 6.64604 1.04938ZM2.2634 3.6735C2.14571 3.6745 2.03178 3.71504 1.93991 3.78859C1.84804 3.86215 1.78357 3.96446 1.75685 4.07907C1.73012 4.19368 1.74271 4.31395 1.79257 4.42056C1.84244 4.52716 1.92669 4.6139 2.0318 4.66685L5.12117 6.27234C5.43818 6.43698 5.77753 6.52641 6.12136 6.58182V11.7221C6.12037 11.7916 6.13322 11.8607 6.15914 11.9252C6.18507 11.9897 6.22356 12.0484 6.27238 12.098C6.3212 12.1475 6.37937 12.1868 6.44352 12.2136C6.50767 12.2405 6.57651 12.2543 6.64604 12.2543C6.71558 12.2543 6.78442 12.2405 6.84857 12.2136C6.91271 12.1868 6.97088 12.1475 7.0197 12.098C7.06852 12.0484 7.10702 11.9897 7.13294 11.9252C7.15887 11.8607 7.17171 11.7916 7.17073 11.7221V6.58182C7.51456 6.52641 7.85322 6.43698 8.17023 6.27234C8.17046 6.27234 8.17069 6.27234 8.17092 6.27234L11.2603 4.66753C11.3839 4.60339 11.4769 4.49279 11.5189 4.36005C11.5609 4.22732 11.5485 4.08332 11.4844 3.95975C11.4202 3.83618 11.3096 3.74315 11.1769 3.70112C11.0442 3.6591 10.9002 3.67152 10.7766 3.73567L7.68654 5.34116C7.36225 5.50945 7.00821 5.59261 6.65424 5.59394C6.6481 5.5936 6.64195 5.59337 6.6358 5.59325C6.28233 5.59157 5.92866 5.50932 5.60487 5.34116L2.51549 3.73635C2.43806 3.6946 2.35137 3.67298 2.2634 3.6735ZM11.0102 6.64263C10.8712 6.6448 10.7387 6.70207 10.6419 6.80186C10.545 6.90164 10.4918 7.03579 10.4938 7.17483V9.07204C10.4938 9.07943 10.492 9.08308 10.4856 9.08639C10.4853 9.08639 10.4851 9.08639 10.4849 9.08639L9.029 9.83584C8.96771 9.86741 8.91323 9.91075 8.86869 9.96338C8.82414 10.016 8.7904 10.0769 8.76939 10.1426C8.74839 10.2082 8.74052 10.2774 8.74624 10.3461C8.75196 10.4148 8.77117 10.4817 8.80275 10.543C8.83434 10.6043 8.87769 10.6587 8.93032 10.7033C8.98296 10.7478 9.04385 10.7815 9.10953 10.8025C9.1752 10.8235 9.24437 10.8314 9.31307 10.8256C9.38178 10.8199 9.44868 10.8007 9.50996 10.7691L10.9652 10.0189C11.319 9.83685 11.5431 9.4697 11.5431 9.07204V7.17483C11.5441 7.1046 11.531 7.03489 11.5046 6.96982C11.4782 6.90475 11.4389 6.84565 11.3892 6.79602C11.3396 6.74639 11.2804 6.70724 11.2153 6.68089C11.1502 6.65454 11.0805 6.64153 11.0102 6.64263Z" fill="black"/>
</svg>
