<svg width="14" height="15" viewBox="0 0 14 15" fill="none" xmlns="http://www.w3.org/2000/svg">
<path d="M6.0137 0.600098C5.61134 0.600098 5.20948 0.730969 4.877 0.99292L0.191191 4.68493C0.109482 4.74941 0.0498787 4.83774 0.0206558 4.93764C-0.00856708 5.03755 -0.00595931 5.14407 0.0281169 5.24243C0.0621931 5.34078 0.126047 5.42609 0.210813 5.4865C0.295579 5.54691 0.397052 5.57943 0.501142 5.57954H11.5263C11.6304 5.57943 11.7318 5.54691 11.8166 5.4865C11.9014 5.42609 11.9652 5.34078 11.9993 5.24243C12.0334 5.14407 12.036 5.03755 12.0067 4.93764C11.9775 4.83774 11.9179 4.74941 11.8362 4.68493L7.15106 0.99292C6.81858 0.730969 6.41606 0.600098 6.0137 0.600098ZM6.0137 1.59977C6.19584 1.59977 6.37788 1.66027 6.53051 1.78052L10.0809 4.57726H1.94649L5.4969 1.78052C5.64953 1.66027 5.83156 1.59977 6.0137 1.59977ZM6.0137 2.57269C5.83649 2.57269 5.66653 2.64309 5.54122 2.7684C5.41591 2.89371 5.34551 3.06367 5.34551 3.24088C5.34551 3.4181 5.41591 3.58805 5.54122 3.71336C5.66653 3.83867 5.83649 3.90907 6.0137 3.90907C6.19092 3.90907 6.36087 3.83867 6.48618 3.71336C6.61149 3.58805 6.68189 3.4181 6.68189 3.24088C6.68189 3.06367 6.61149 2.89371 6.48618 2.7684C6.36087 2.64309 6.19092 2.57269 6.0137 2.57269ZM1.16933 6.24773V10.6314C0.501282 10.7842 0 11.3809 0 12.0944C0 12.9229 0.674871 13.5978 1.50343 13.5978H5.01142V12.5955H1.50343C1.22613 12.5955 1.00228 12.3717 1.00228 12.0944C1.00228 11.8171 1.22613 11.5932 1.50343 11.5932H5.01142V10.591H4.34323V6.24773H3.34095V10.591H2.17161V6.24773H1.16933ZM5.51256 6.24773V8.80042C5.69965 8.66345 5.93352 8.58639 6.18075 8.58639H6.51484V6.24773H5.51256ZM7.68418 6.24773V8.58639H8.68646V6.24773H7.68418ZM9.85579 6.24773V8.58639H10.8581V6.24773H9.85579ZM6.51484 9.25458C6.05928 9.25458 5.67961 9.63425 5.67961 10.0898V13.7649C5.67961 14.2204 6.05928 14.6001 6.51484 14.6001H12.5285C12.9841 14.6001 13.3638 14.2204 13.3638 13.7649V10.0898C13.3638 9.63425 12.9841 9.25458 12.5285 9.25458H6.51484ZM6.68189 10.2569H12.3615V10.9251H6.68189V10.2569ZM6.68189 11.9273H12.3615V13.5978H6.68189V11.9273Z" fill="black"/>
</svg>
