<svg width="14" height="15" viewBox="0 0 14 15" fill="none" xmlns="http://www.w3.org/2000/svg">
<path d="M10.6809 0.600047C10.5265 0.602459 10.3793 0.666053 10.2718 0.776862C10.1643 0.887671 10.1051 1.03663 10.1073 1.19103V9.49511L8.38293 7.77072C8.32925 7.7148 8.26494 7.67016 8.19379 7.63941C8.12263 7.60865 8.04605 7.59241 7.96854 7.59162C7.89103 7.59083 7.81413 7.60552 7.74237 7.63482C7.6706 7.66412 7.6054 7.70744 7.55059 7.76226C7.49577 7.81707 7.45245 7.88227 7.42315 7.95404C7.39385 8.0258 7.37916 8.10269 7.37995 8.18021C7.38074 8.25772 7.39699 8.3343 7.42774 8.40546C7.45849 8.47661 7.50313 8.54092 7.55905 8.5946L10.278 11.3136C10.3873 11.4228 10.5355 11.4842 10.69 11.4842C10.8445 11.4842 10.9926 11.4228 11.1019 11.3136L13.8209 8.5946C13.8768 8.54092 13.9214 8.47661 13.9522 8.40546C13.9829 8.3343 13.9992 8.25772 14 8.18021C14.0008 8.10269 13.9861 8.0258 13.9568 7.95404C13.9275 7.88227 13.8841 7.81707 13.8293 7.76226C13.7745 7.70744 13.7093 7.66412 13.6376 7.63482C13.5658 7.60552 13.4889 7.59083 13.4114 7.59162C13.3339 7.59241 13.2573 7.60865 13.1861 7.63941C13.115 7.67016 13.0507 7.7148 12.997 7.77072L11.2726 9.49511V1.19103C11.2737 1.11305 11.2592 1.03563 11.2298 0.963376C11.2005 0.89112 11.1569 0.825491 11.1017 0.770379C11.0465 0.715267 10.9809 0.671793 10.9086 0.642535C10.8363 0.613276 10.7588 0.598828 10.6809 0.600047ZM0.590934 0.996816C0.513728 0.995724 0.437075 1.00999 0.365429 1.03878C0.293783 1.06757 0.228574 1.11031 0.173591 1.16452C0.118608 1.21873 0.0749472 1.28333 0.0451467 1.35456C0.0153462 1.42579 0 1.50224 0 1.57945C0 1.65667 0.0153462 1.73311 0.0451467 1.80434C0.0749472 1.87557 0.118608 1.94017 0.173591 1.99438C0.228574 2.04859 0.293783 2.09134 0.365429 2.12013C0.437075 2.14892 0.513728 2.16318 0.590934 2.16209H1.75621C1.83341 2.16318 1.91007 2.14892 1.98171 2.12013C2.05336 2.09134 2.11857 2.04859 2.17355 1.99438C2.22853 1.94017 2.27219 1.87557 2.30199 1.80434C2.33179 1.73311 2.34714 1.65667 2.34714 1.57945C2.34714 1.50224 2.33179 1.42579 2.30199 1.35456C2.27219 1.28333 2.22853 1.21873 2.17355 1.16452C2.11857 1.11031 2.05336 1.06757 1.98171 1.03878C1.91007 1.00999 1.83341 0.995724 1.75621 0.996816H0.590934ZM0.590934 4.10421C0.513728 4.10312 0.437075 4.11738 0.365429 4.14617C0.293783 4.17496 0.228574 4.2177 0.173591 4.27191C0.118608 4.32613 0.0749472 4.39072 0.0451467 4.46196C0.0153462 4.53319 0 4.60963 0 4.68684C0 4.76406 0.0153462 4.8405 0.0451467 4.91173C0.0749472 4.98297 0.118608 5.04756 0.173591 5.10177C0.228574 5.15599 0.293783 5.19873 0.365429 5.22752C0.437075 5.25631 0.513728 5.27057 0.590934 5.26948H3.3099C3.38711 5.27057 3.46376 5.25631 3.53541 5.22752C3.60705 5.19873 3.67226 5.15599 3.72725 5.10177C3.78223 5.04756 3.82589 4.98297 3.85569 4.91173C3.88549 4.8405 3.90084 4.76406 3.90084 4.68684C3.90084 4.60963 3.88549 4.53319 3.85569 4.46196C3.82589 4.39072 3.78223 4.32613 3.72725 4.27191C3.67226 4.2177 3.60705 4.17496 3.53541 4.14617C3.46376 4.11738 3.38711 4.10312 3.3099 4.10421H0.590934ZM0.590934 7.2116C0.513728 7.21051 0.437075 7.22477 0.365429 7.25356C0.293783 7.28235 0.228574 7.3251 0.173591 7.37931C0.118608 7.43352 0.0749472 7.49812 0.0451467 7.56935C0.0153462 7.64058 0 7.71702 0 7.79424C0 7.87145 0.0153462 7.9479 0.0451467 8.01913C0.0749472 8.09036 0.118608 8.15496 0.173591 8.20917C0.228574 8.26338 0.293783 8.30612 0.365429 8.33491C0.437075 8.3637 0.513728 8.37797 0.590934 8.37687H4.8636C4.94081 8.37797 5.01746 8.3637 5.0891 8.33491C5.16075 8.30612 5.22596 8.26338 5.28094 8.20917C5.33593 8.15496 5.37959 8.09036 5.40939 8.01913C5.43919 7.9479 5.45453 7.87145 5.45453 7.79424C5.45453 7.71702 5.43919 7.64058 5.40939 7.56935C5.37959 7.49812 5.33593 7.43352 5.28094 7.37931C5.22596 7.3251 5.16075 7.28235 5.0891 7.25356C5.01746 7.22477 4.94081 7.21051 4.8636 7.2116H0.590934ZM0.590934 10.319C0.513728 10.3179 0.437075 10.3322 0.365429 10.361C0.293783 10.3897 0.228574 10.4325 0.173591 10.4867C0.118608 10.5409 0.0749472 10.6055 0.0451467 10.6767C0.0153462 10.748 0 10.8244 0 10.9016C0 10.9788 0.0153462 11.0553 0.0451467 11.1265C0.0749472 11.1978 0.118608 11.2624 0.173591 11.3166C0.228574 11.3708 0.293783 11.4135 0.365429 11.4423C0.437075 11.4711 0.513728 11.4854 0.590934 11.4843H6.4173C6.4945 11.4854 6.57116 11.4711 6.6428 11.4423C6.71445 11.4135 6.77966 11.3708 6.83464 11.3166C6.88962 11.2624 6.93328 11.1978 6.96308 11.1265C6.99288 11.0553 7.00823 10.9788 7.00823 10.9016C7.00823 10.8244 6.99288 10.748 6.96308 10.6767C6.93328 10.6055 6.88962 10.5409 6.83464 10.4867C6.77966 10.4325 6.71445 10.3897 6.6428 10.361C6.57116 10.3322 6.4945 10.3179 6.4173 10.319H0.590934ZM0.590934 13.4264C0.513728 13.4253 0.437075 13.4396 0.365429 13.4683C0.293783 13.4971 0.228574 13.5399 0.173591 13.5941C0.118608 13.6483 0.0749472 13.7129 0.0451467 13.7841C0.0153462 13.8554 0 13.9318 0 14.009C0 14.0862 0.0153462 14.1627 0.0451467 14.2339C0.0749472 14.3051 0.118608 14.3697 0.173591 14.424C0.228574 14.4782 0.293783 14.5209 0.365429 14.5497C0.437075 14.5785 0.513728 14.5928 0.590934 14.5917H7.97099C8.0482 14.5928 8.12485 14.5785 8.1965 14.5497C8.26814 14.5209 8.33335 14.4782 8.38834 14.424C8.44332 14.3697 8.48698 14.3051 8.51678 14.2339C8.54658 14.1627 8.56193 14.0862 8.56193 14.009C8.56193 13.9318 8.54658 13.8554 8.51678 13.7841C8.48698 13.7129 8.44332 13.6483 8.38834 13.5941C8.33335 13.5399 8.26814 13.4971 8.1965 13.4683C8.12485 13.4396 8.0482 13.4253 7.97099 13.4264H0.590934Z" fill="black"/>
</svg>
