<svg width="14" height="15" viewBox="0 0 14 15" fill="none" xmlns="http://www.w3.org/2000/svg">
<path d="M7.19688 0.606058C4.29507 0.742736 2.0716 3.23588 2.0716 6.12117V8.73009L1.12016 10.6442C1.11849 10.6477 1.11685 10.6512 1.11525 10.6547C0.732488 11.4687 1.3521 12.4461 2.25179 12.4461H5.30242C5.30242 13.6292 6.27315 14.6 7.4563 14.6C8.63945 14.6 9.61018 13.6292 9.61018 12.4461H12.6601C13.5598 12.4461 14.1802 11.4689 13.7974 10.6547C13.7958 10.6512 13.7941 10.6477 13.7924 10.6442L12.841 8.73009V5.98445C12.841 2.93089 10.2791 0.460954 7.19688 0.606058ZM7.24736 1.6816C9.73153 1.56465 11.7641 3.52982 11.7641 5.98445V8.85629C11.764 8.93948 11.7832 9.02156 11.8202 9.09608L12.8228 11.1139C12.8873 11.2521 12.8127 11.3692 12.6601 11.3692H2.25179C2.09925 11.3692 2.02526 11.2523 2.08983 11.1139V11.1132L3.09245 9.09608C3.12942 9.02156 3.14861 8.93948 3.14854 8.85629V6.12117C3.14854 3.78761 4.93606 1.79046 7.24736 1.6816ZM6.37936 12.4461H8.53324C8.53324 13.0471 8.05728 13.523 7.4563 13.523C6.85532 13.523 6.37936 13.0471 6.37936 12.4461Z" fill="black"/>
</svg>
