<svg width="14" height="14" viewBox="0 0 14 14" fill="none" xmlns="http://www.w3.org/2000/svg">
<path d="M2.275 0.599976C2.13577 0.59999 2.00224 0.655306 1.90378 0.75376C1.80533 0.852214 1.75001 0.985741 1.75 1.12498V1.64998H0.525C0.385766 1.64999 0.252238 1.70531 0.153784 1.80376C0.0553308 1.90221 1.39214e-05 2.03574 0 2.17498V13.025C1.39214e-05 13.1642 0.0553308 13.2977 0.153784 13.3962C0.252238 13.4946 0.385766 13.55 0.525 13.55H13.475C13.6142 13.55 13.7478 13.4946 13.8462 13.3962C13.9447 13.2977 14 13.1642 14 13.025V2.17498C14 2.03574 13.9447 1.90221 13.8462 1.80376C13.7478 1.70531 13.6142 1.64999 13.475 1.64998H12.25V1.12498C12.25 0.985741 12.1947 0.852214 12.0962 0.75376C11.9978 0.655306 11.8642 0.59999 11.725 0.599976H9.1C8.22069 0.599976 7.47702 1.0665 7 1.73542C6.52297 1.0665 5.77931 0.599976 4.9 0.599976H2.275ZM2.8 1.64998H4.9C5.77622 1.64998 6.475 2.34875 6.475 3.22498V11.2852C6.03469 10.953 5.49119 10.75 4.9 10.75H2.8V2.26111C2.80926 2.20475 2.80926 2.14725 2.8 2.09089V1.64998ZM9.1 1.64998H11.2V2.08884C11.1907 2.1452 11.1907 2.2027 11.2 2.25906V10.75H9.1C8.50881 10.75 7.96531 10.953 7.525 11.2852V3.22498C7.525 2.34875 8.22377 1.64998 9.1 1.64998ZM1.05 2.69998H1.75V11.275C1.75001 11.4142 1.80533 11.5477 1.90378 11.6462C2.00224 11.7446 2.13577 11.8 2.275 11.8H4.9C5.44968 11.8 5.92786 12.0788 6.20908 12.5H1.05V2.69998ZM12.25 2.69998H12.95V12.5H7.79092C8.07214 12.0788 8.55032 11.8 9.1 11.8H11.725C11.8642 11.8 11.9978 11.7446 12.0962 11.6462C12.1947 11.5477 12.25 11.4142 12.25 11.275V2.69998ZM4.025 3.04998C3.95543 3.04899 3.88636 3.06184 3.8218 3.08779C3.75724 3.11373 3.69849 3.15224 3.64894 3.20109C3.5994 3.24994 3.56006 3.30815 3.5332 3.37233C3.50635 3.43652 3.49252 3.5054 3.49252 3.57498C3.49252 3.64455 3.50635 3.71343 3.5332 3.77762C3.56006 3.8418 3.5994 3.90001 3.64894 3.94886C3.69849 3.99771 3.75724 4.03622 3.8218 4.06216C3.88636 4.08811 3.95543 4.10096 4.025 4.09998H5.075C5.14457 4.10096 5.21364 4.08811 5.2782 4.06216C5.34276 4.03622 5.40151 3.99771 5.45106 3.94886C5.5006 3.90001 5.53994 3.8418 5.5668 3.77762C5.59365 3.71343 5.60748 3.64455 5.60748 3.57498C5.60748 3.5054 5.59365 3.43652 5.5668 3.37233C5.53994 3.30815 5.5006 3.24994 5.45106 3.20109C5.40151 3.15224 5.34276 3.11373 5.2782 3.08779C5.21364 3.06184 5.14457 3.04899 5.075 3.04998H4.025ZM8.925 3.04998C8.85543 3.04899 8.78636 3.06184 8.7218 3.08779C8.65724 3.11373 8.59848 3.15224 8.54894 3.20109C8.4994 3.24994 8.46006 3.30815 8.4332 3.37233C8.40635 3.43652 8.39252 3.5054 8.39252 3.57498C8.39252 3.64455 8.40635 3.71343 8.4332 3.77762C8.46006 3.8418 8.4994 3.90001 8.54894 3.94886C8.59848 3.99771 8.65724 4.03622 8.7218 4.06216C8.78636 4.08811 8.85543 4.10096 8.925 4.09998H9.975C10.0446 4.10096 10.1136 4.08811 10.1782 4.06216C10.2428 4.03622 10.3015 3.99771 10.3511 3.94886C10.4006 3.90001 10.4399 3.8418 10.4668 3.77762C10.4936 3.71343 10.5075 3.64455 10.5075 3.57498C10.5075 3.5054 10.4936 3.43652 10.4668 3.37233C10.4399 3.30815 10.4006 3.24994 10.3511 3.20109C10.3015 3.15224 10.2428 3.11373 10.1782 3.08779C10.1136 3.06184 10.0446 3.04899 9.975 3.04998H8.925ZM4.025 4.79998C3.95543 4.79899 3.88636 4.81184 3.8218 4.83779C3.75724 4.86373 3.69849 4.90224 3.64894 4.95109C3.5994 4.99994 3.56006 5.05815 3.5332 5.12233C3.50635 5.18652 3.49252 5.2554 3.49252 5.32498C3.49252 5.39455 3.50635 5.46343 3.5332 5.52762C3.56006 5.5918 3.5994 5.65001 3.64894 5.69886C3.69849 5.74771 3.75724 5.78622 3.8218 5.81216C3.88636 5.83811 3.95543 5.85096 4.025 5.84998H5.075C5.14457 5.85096 5.21364 5.83811 5.2782 5.81216C5.34276 5.78622 5.40151 5.74771 5.45106 5.69886C5.5006 5.65001 5.53994 5.5918 5.5668 5.52762C5.59365 5.46343 5.60748 5.39455 5.60748 5.32498C5.60748 5.2554 5.59365 5.18652 5.5668 5.12233C5.53994 5.05815 5.5006 4.99994 5.45106 4.95109C5.40151 4.90224 5.34276 4.86373 5.2782 4.83779C5.21364 4.81184 5.14457 4.79899 5.075 4.79998H4.025ZM8.925 4.79998C8.85543 4.79899 8.78636 4.81184 8.7218 4.83779C8.65724 4.86373 8.59848 4.90224 8.54894 4.95109C8.4994 4.99994 8.46006 5.05815 8.4332 5.12233C8.40635 5.18652 8.39252 5.2554 8.39252 5.32498C8.39252 5.39455 8.40635 5.46343 8.4332 5.52762C8.46006 5.5918 8.4994 5.65001 8.54894 5.69886C8.59848 5.74771 8.65724 5.78622 8.7218 5.81216C8.78636 5.83811 8.85543 5.85096 8.925 5.84998H9.975C10.0446 5.85096 10.1136 5.83811 10.1782 5.81216C10.2428 5.78622 10.3015 5.74771 10.3511 5.69886C10.4006 5.65001 10.4399 5.5918 10.4668 5.52762C10.4936 5.46343 10.5075 5.39455 10.5075 5.32498C10.5075 5.2554 10.4936 5.18652 10.4668 5.12233C10.4399 5.05815 10.4006 4.99994 10.3511 4.95109C10.3015 4.90224 10.2428 4.86373 10.1782 4.83779C10.1136 4.81184 10.0446 4.79899 9.975 4.79998H8.925ZM4.025 6.54998C3.95543 6.54899 3.88636 6.56184 3.8218 6.58779C3.75724 6.61373 3.69849 6.65224 3.64894 6.70109C3.5994 6.74994 3.56006 6.80815 3.5332 6.87233C3.50635 6.93652 3.49252 7.0054 3.49252 7.07498C3.49252 7.14455 3.50635 7.21343 3.5332 7.27762C3.56006 7.3418 3.5994 7.40001 3.64894 7.44886C3.69849 7.49771 3.75724 7.53622 3.8218 7.56216C3.88636 7.58811 3.95543 7.60096 4.025 7.59998H5.075C5.14457 7.60096 5.21364 7.58811 5.2782 7.56216C5.34276 7.53622 5.40151 7.49771 5.45106 7.44886C5.5006 7.40001 5.53994 7.3418 5.5668 7.27762C5.59365 7.21343 5.60748 7.14455 5.60748 7.07498C5.60748 7.0054 5.59365 6.93652 5.5668 6.87233C5.53994 6.80815 5.5006 6.74994 5.45106 6.70109C5.40151 6.65224 5.34276 6.61373 5.2782 6.58779C5.21364 6.56184 5.14457 6.54899 5.075 6.54998H4.025ZM8.925 6.54998C8.85543 6.54899 8.78636 6.56184 8.7218 6.58779C8.65724 6.61373 8.59848 6.65224 8.54894 6.70109C8.4994 6.74994 8.46006 6.80815 8.4332 6.87233C8.40635 6.93652 8.39252 7.0054 8.39252 7.07498C8.39252 7.14455 8.40635 7.21343 8.4332 7.27762C8.46006 7.3418 8.4994 7.40001 8.54894 7.44886C8.59848 7.49771 8.65724 7.53622 8.7218 7.56216C8.78636 7.58811 8.85543 7.60096 8.925 7.59998H9.975C10.0446 7.60096 10.1136 7.58811 10.1782 7.56216C10.2428 7.53622 10.3015 7.49771 10.3511 7.44886C10.4006 7.40001 10.4399 7.3418 10.4668 7.27762C10.4936 7.21343 10.5075 7.14455 10.5075 7.07498C10.5075 7.0054 10.4936 6.93652 10.4668 6.87233C10.4399 6.80815 10.4006 6.74994 10.3511 6.70109C10.3015 6.65224 10.2428 6.61373 10.1782 6.58779C10.1136 6.56184 10.0446 6.54899 9.975 6.54998H8.925ZM4.025 8.29998C3.95543 8.29899 3.88636 8.31184 3.8218 8.33779C3.75724 8.36373 3.69849 8.40224 3.64894 8.45109C3.5994 8.49994 3.56006 8.55815 3.5332 8.62233C3.50635 8.68652 3.49252 8.7554 3.49252 8.82498C3.49252 8.89455 3.50635 8.96343 3.5332 9.02762C3.56006 9.0918 3.5994 9.15001 3.64894 9.19886C3.69849 9.24771 3.75724 9.28622 3.8218 9.31216C3.88636 9.33811 3.95543 9.35096 4.025 9.34998H5.075C5.14457 9.35096 5.21364 9.33811 5.2782 9.31216C5.34276 9.28622 5.40151 9.24771 5.45106 9.19886C5.5006 9.15001 5.53994 9.0918 5.5668 9.02762C5.59365 8.96343 5.60748 8.89455 5.60748 8.82498C5.60748 8.7554 5.59365 8.68652 5.5668 8.62233C5.53994 8.55815 5.5006 8.49994 5.45106 8.45109C5.40151 8.40224 5.34276 8.36373 5.2782 8.33779C5.21364 8.31184 5.14457 8.29899 5.075 8.29998H4.025ZM8.925 8.29998C8.85543 8.29899 8.78636 8.31184 8.7218 8.33779C8.65724 8.36373 8.59848 8.40224 8.54894 8.45109C8.4994 8.49994 8.46006 8.55815 8.4332 8.62233C8.40635 8.68652 8.39252 8.7554 8.39252 8.82498C8.39252 8.89455 8.40635 8.96343 8.4332 9.02762C8.46006 9.0918 8.4994 9.15001 8.54894 9.19886C8.59848 9.24771 8.65724 9.28622 8.7218 9.31216C8.78636 9.33811 8.85543 9.35096 8.925 9.34998H9.975C10.0446 9.35096 10.1136 9.33811 10.1782 9.31216C10.2428 9.28622 10.3015 9.24771 10.3511 9.19886C10.4006 9.15001 10.4399 9.0918 10.4668 9.02762C10.4936 8.96343 10.5075 8.89455 10.5075 8.82498C10.5075 8.7554 10.4936 8.68652 10.4668 8.62233C10.4399 8.55815 10.4006 8.49994 10.3511 8.45109C10.3015 8.40224 10.2428 8.36373 10.1782 8.33779C10.1136 8.31184 10.0446 8.29899 9.975 8.29998H8.925Z" fill="black"/>
</svg>
