<svg width="14" height="14" viewBox="0 0 14 14" fill="none" xmlns="http://www.w3.org/2000/svg">
<path d="M5.075 0.599976C4.40477 0.599976 3.85 1.15474 3.85 1.82498V2.69998H1.225C0.554766 2.69998 0 3.25474 0 3.92498V12.325C0 12.9952 0.554766 13.55 1.225 13.55H12.775C13.4452 13.55 14 12.9952 14 12.325V3.92498C14 3.25474 13.4452 2.69998 12.775 2.69998H10.15V1.82498C10.15 1.15474 9.59523 0.599976 8.925 0.599976H5.075ZM5.075 1.64998H8.925C9.02827 1.64998 9.1 1.72171 9.1 1.82498V2.69998H4.9V1.82498C4.9 1.72171 4.97173 1.64998 5.075 1.64998ZM1.225 3.74998H12.775C12.8783 3.74998 12.95 3.82171 12.95 3.92498V8.64998H8.05V8.47498C8.05 8.18518 7.8148 7.94998 7.525 7.94998H6.475C6.1852 7.94998 5.95 8.18518 5.95 8.47498V8.64998H1.05V3.92498C1.05 3.82171 1.12173 3.74998 1.225 3.74998ZM1.05 9.69998H5.95V9.87498C5.95 10.1648 6.1852 10.4 6.475 10.4H7.525C7.8148 10.4 8.05 10.1648 8.05 9.87498V9.69998H12.95V12.325C12.95 12.4282 12.8783 12.5 12.775 12.5H1.225C1.12173 12.5 1.05 12.4282 1.05 12.325V9.69998Z" fill="black"/>
</svg>
