<svg width="14" height="14" viewBox="0 0 14 14" fill="none" xmlns="http://www.w3.org/2000/svg">
<path d="M4.61426 0.600128C4.52327 0.5991 4.43389 0.624101 4.35663 0.672185C4.27938 0.720269 4.21749 0.789432 4.17824 0.871524C4.13899 0.953616 4.12402 1.04522 4.1351 1.13553C4.14618 1.22585 4.18284 1.31112 4.24077 1.38129L5.51349 2.9722C5.55267 3.02116 5.6011 3.06194 5.65603 3.09218C5.71096 3.12243 5.77131 3.14156 5.83363 3.14849C5.89596 3.15541 5.95903 3.14999 6.01926 3.13254C6.07949 3.11509 6.13569 3.08594 6.18466 3.04677C6.23362 3.0076 6.2744 2.95917 6.30464 2.90424C6.33489 2.84931 6.35402 2.78896 6.36095 2.72663C6.36787 2.66431 6.36245 2.60123 6.345 2.541C6.32755 2.48078 6.29841 2.42457 6.25923 2.37561L4.98651 0.784698C4.94238 0.727867 4.88598 0.681746 4.82152 0.649785C4.75706 0.617823 4.6862 0.600848 4.61426 0.600128ZM9.37145 0.60075C9.30199 0.603496 9.23396 0.621381 9.17214 0.653154C9.11031 0.684927 9.05617 0.729821 9.01349 0.784698L7.74077 2.37561C7.66165 2.4745 7.62507 2.60077 7.63905 2.72663C7.65304 2.8525 7.71645 2.96766 7.81534 3.04677C7.91423 3.12589 8.0405 3.16247 8.16637 3.14849C8.29224 3.1345 8.40739 3.07109 8.48651 2.9722L9.75923 1.38129C9.81786 1.31017 9.85464 1.22361 9.86514 1.13204C9.87564 1.04048 9.8594 0.947836 9.8184 0.865298C9.77739 0.78276 9.71336 0.713858 9.63405 0.666914C9.55474 0.619969 9.46354 0.596989 9.37145 0.60075ZM3.18182 3.78754C1.43028 3.78754 0 5.21782 0 6.96936C0 8.72089 1.43028 10.1512 3.18182 10.1512H4.93182C4.99506 10.1521 5.05785 10.1404 5.11654 10.1168C5.17523 10.0932 5.22865 10.0582 5.27369 10.0138C5.31873 9.96939 5.3545 9.91647 5.37891 9.85812C5.40332 9.79977 5.41589 9.73715 5.41589 9.6739C5.41589 9.61065 5.40332 9.54803 5.37891 9.48968C5.3545 9.43133 5.31873 9.37842 5.27369 9.33401C5.22865 9.2896 5.17523 9.25459 5.11654 9.231C5.05785 9.20742 4.99506 9.19574 4.93182 9.19663H3.18182C1.94626 9.19663 0.954545 8.20491 0.954545 6.96936C0.954545 5.7338 1.94626 4.74208 3.18182 4.74208H4.93182C4.99506 4.74298 5.05785 4.73129 5.11654 4.70771C5.17523 4.68413 5.22865 4.64911 5.27369 4.60471C5.31873 4.5603 5.3545 4.50738 5.37891 4.44903C5.40332 4.39068 5.41589 4.32806 5.41589 4.26481C5.41589 4.20156 5.40332 4.13894 5.37891 4.08059C5.3545 4.02224 5.31873 3.96932 5.27369 3.92492C5.22865 3.88051 5.17523 3.8455 5.11654 3.82191C5.05785 3.79833 4.99506 3.78664 4.93182 3.78754H3.18182ZM9.06818 3.78754C9.00494 3.78664 8.94215 3.79833 8.88346 3.82191C8.82477 3.8455 8.77135 3.88051 8.72631 3.92492C8.68127 3.96932 8.6455 4.02224 8.62109 4.08059C8.59668 4.13894 8.58411 4.20156 8.58411 4.26481C8.58411 4.32806 8.59668 4.39068 8.62109 4.44903C8.6455 4.50738 8.68127 4.5603 8.72631 4.60471C8.77135 4.64911 8.82477 4.68413 8.88346 4.70771C8.94215 4.73129 9.00494 4.74298 9.06818 4.74208H10.8182C12.0537 4.74208 13.0455 5.7338 13.0455 6.96936C13.0455 8.20491 12.0537 9.19663 10.8182 9.19663H9.06818C9.00494 9.19574 8.94215 9.20742 8.88346 9.231C8.82477 9.25459 8.77135 9.2896 8.72631 9.33401C8.68127 9.37842 8.6455 9.43133 8.62109 9.48968C8.59668 9.54803 8.58411 9.61065 8.58411 9.6739C8.58411 9.73715 8.59668 9.79977 8.62109 9.85812C8.6455 9.91647 8.68127 9.96939 8.72631 10.0138C8.77135 10.0582 8.82477 10.0932 8.88346 10.1168C8.94215 10.1404 9.00494 10.1521 9.06818 10.1512H10.8182C12.5697 10.1512 14 8.72089 14 6.96936C14 5.21782 12.5697 3.78754 10.8182 3.78754H9.06818ZM8.11426 10.7819C8.02327 10.7809 7.93389 10.8059 7.85663 10.854C7.77938 10.9021 7.71749 10.9712 7.67824 11.0533C7.63899 11.1354 7.62402 11.227 7.6351 11.3174C7.64618 11.4077 7.68284 11.4929 7.74077 11.5631L9.01349 13.154C9.05267 13.203 9.1011 13.2438 9.15603 13.274C9.21096 13.3042 9.27131 13.3234 9.33363 13.3303C9.39596 13.3372 9.45903 13.3318 9.51926 13.3144C9.57949 13.2969 9.63569 13.2678 9.68466 13.2286C9.73362 13.1894 9.7744 13.141 9.80464 13.0861C9.83489 13.0311 9.85402 12.9708 9.86095 12.9085C9.86787 12.8461 9.86245 12.7831 9.845 12.7228C9.82755 12.6626 9.79841 12.6064 9.75923 12.5574L8.48651 10.9665C8.44238 10.9097 8.38598 10.8636 8.32152 10.8316C8.25706 10.7996 8.1862 10.7827 8.11426 10.7819ZM5.87145 10.7826C5.80199 10.7853 5.73397 10.8032 5.67214 10.835C5.61031 10.8667 5.55617 10.9116 5.51349 10.9665L4.24077 12.5574C4.16165 12.6563 4.12507 12.7826 4.13905 12.9085C4.15304 13.0343 4.21645 13.1495 4.31534 13.2286C4.41423 13.3077 4.5405 13.3443 4.66637 13.3303C4.79224 13.3163 4.90739 13.2529 4.98651 13.154L6.25923 11.5631C6.31786 11.492 6.35464 11.4054 6.36514 11.3139C6.37564 11.2223 6.3594 11.1297 6.3184 11.0471C6.27739 10.9646 6.21336 10.8957 6.13405 10.8487C6.05474 10.8018 5.96354 10.7788 5.87145 10.7826Z" fill="black"/>
</svg>
