<svg width="14" height="14" viewBox="0 0 14 14" fill="none" xmlns="http://www.w3.org/2000/svg">
<path d="M5.41849 0.60004C5.27952 0.602211 5.14709 0.659453 5.05029 0.759194C4.9535 0.858935 4.90025 0.993017 4.90224 1.13199V1.65643C4.90224 2.09851 5.0419 2.50992 5.2785 2.8494C4.3024 3.18583 3.58423 4.0835 3.51261 5.1527H3.32892C2.45363 5.1527 1.7556 4.45467 1.7556 3.57938V2.5305C1.75661 2.4603 1.74351 2.39062 1.7171 2.32558C1.69068 2.26055 1.65147 2.20147 1.6018 2.15186C1.55213 2.10226 1.493 2.06313 1.42793 2.03679C1.36286 2.01045 1.29316 1.99745 1.22297 1.99855C1.084 2.00072 0.95157 2.05796 0.854774 2.1577C0.757978 2.25744 0.704729 2.39152 0.706722 2.5305V3.57938C0.706722 5.02141 1.88689 6.20158 3.32892 6.20158H3.50374V7.42527H0.531909C0.462415 7.42429 0.393418 7.43713 0.328928 7.46304C0.264439 7.48895 0.205743 7.52743 0.156252 7.57622C0.106761 7.62502 0.0674612 7.68317 0.0406373 7.74728C0.0138134 7.8114 0 7.88021 0 7.94971C0 8.01921 0.0138134 8.08802 0.0406373 8.15214C0.0674612 8.21625 0.106761 8.2744 0.156252 8.32319C0.205743 8.37199 0.264439 8.41046 0.328928 8.43638C0.393418 8.46229 0.462415 8.47513 0.531909 8.47415H3.50374V9.5961C3.50374 9.63028 3.50756 9.66382 3.50852 9.69784H3.32892C1.88689 9.69784 0.706722 10.878 0.706722 12.32V13.3689C0.70574 13.4384 0.718579 13.5074 0.744493 13.5719C0.770408 13.6364 0.808881 13.6951 0.857677 13.7446C0.906473 13.7941 0.964619 13.8334 1.02874 13.8602C1.09285 13.887 1.16166 13.9008 1.23116 13.9008C1.30066 13.9008 1.36947 13.887 1.43359 13.8602C1.49771 13.8334 1.55585 13.7941 1.60465 13.7446C1.65344 13.6951 1.69192 13.6364 1.71783 13.5719C1.74375 13.5074 1.75659 13.4384 1.7556 13.3689V12.32C1.7556 11.4448 2.45363 10.7467 3.32892 10.7467H3.69357C4.13309 12.072 5.30509 13.0917 6.76851 13.1866C8.42362 13.2936 9.8624 12.2312 10.3331 10.7467H10.6711C11.5464 10.7467 12.2444 11.4448 12.2444 12.32V13.3689C12.2434 13.4384 12.2563 13.5074 12.2822 13.5719C12.3081 13.6364 12.3466 13.6951 12.3954 13.7446C12.4441 13.7941 12.5023 13.8334 12.5664 13.8602C12.6305 13.887 12.6993 13.9008 12.7688 13.9008C12.8383 13.9008 12.9071 13.887 12.9713 13.8602C13.0354 13.8334 13.0935 13.7941 13.1423 13.7446C13.1911 13.6951 13.2296 13.6364 13.2555 13.5719C13.2814 13.5074 13.2943 13.4384 13.2933 13.3689V12.32C13.2933 10.878 12.1131 9.69784 10.6711 9.69784H10.4963V8.47415H13.4681C13.5376 8.47513 13.6066 8.46229 13.6711 8.43638C13.7356 8.41046 13.7943 8.37199 13.8437 8.32319C13.8932 8.2744 13.9325 8.21625 13.9594 8.15214C13.9862 8.08802 14 8.01921 14 7.94971C14 7.88021 13.9862 7.8114 13.9594 7.74728C13.9325 7.68317 13.8932 7.62502 13.8437 7.57622C13.7943 7.52743 13.7356 7.48895 13.6711 7.46304C13.6066 7.43713 13.5376 7.42429 13.4681 7.42527H10.4963V6.20158H10.6711C12.1131 6.20158 13.2933 5.02141 13.2933 3.57938V2.5305C13.2943 2.4603 13.2812 2.39062 13.2548 2.32558C13.2284 2.26055 13.1891 2.20147 13.1395 2.15186C13.0898 2.10226 13.0307 2.06313 12.9656 2.03679C12.9005 2.01045 12.8308 1.99745 12.7606 1.99855C12.6217 2.00072 12.4892 2.05796 12.3924 2.1577C12.2957 2.25744 12.2424 2.39152 12.2444 2.5305V3.57938C12.2444 4.45467 11.5464 5.1527 10.6711 5.1527H10.4874C10.4158 4.0835 9.6976 3.18583 8.7215 2.8494C8.9581 2.50992 9.09776 2.09851 9.09776 1.65643V1.13199C9.09874 1.0625 9.0859 0.9935 9.05999 0.92901C9.03407 0.864521 8.9956 0.805825 8.94681 0.756334C8.89801 0.706843 8.83986 0.667543 8.77575 0.640719C8.71163 0.613895 8.64282 0.600082 8.57332 0.600082C8.50382 0.600082 8.43501 0.613895 8.37089 0.640719C8.30678 0.667543 8.24863 0.706843 8.19984 0.756334C8.15104 0.805825 8.11257 0.864521 8.08665 0.92901C8.06074 0.9935 8.0479 1.0625 8.04888 1.13199V1.65643C8.04888 2.24175 7.58532 2.70531 7 2.70531C6.41468 2.70531 5.95112 2.24175 5.95112 1.65643V1.13199C5.95213 1.0618 5.93903 0.992117 5.91261 0.927078C5.88619 0.862039 5.84699 0.802965 5.79732 0.753358C5.74765 0.703751 5.68852 0.66462 5.62345 0.638284C5.55838 0.611948 5.48868 0.598943 5.41849 0.60004ZM6.12593 3.75419H7H7.87407C8.74936 3.75419 9.44739 4.45222 9.44739 5.32751V5.5911C9.43814 5.6474 9.43814 5.70483 9.44739 5.76113V7.86367C9.43814 7.91997 9.43814 7.9774 9.44739 8.0337V9.69784C9.44739 11.11 8.27336 12.2327 6.83611 12.1398C5.54345 12.0559 4.55261 10.915 4.55261 9.5961V8.03575C4.56186 7.97945 4.56186 7.92202 4.55261 7.86572V5.76318C4.56186 5.70688 4.56186 5.64944 4.55261 5.59314V5.32751C4.55261 4.45222 5.25064 3.75419 6.12593 3.75419Z" fill="black"/>
</svg>
