<svg width="14" height="14" viewBox="0 0 14 14" fill="none" xmlns="http://www.w3.org/2000/svg">
<path d="M1.42436 0.600003C1.40123 0.600607 1.37818 0.602891 1.35538 0.606839H0.795455C0.73221 0.605944 0.669419 0.617629 0.610729 0.641212C0.55204 0.664796 0.498623 0.699809 0.453583 0.744217C0.408543 0.788625 0.372778 0.841541 0.348367 0.899891C0.323955 0.958241 0.311384 1.02086 0.311384 1.08411C0.311384 1.14736 0.323955 1.20998 0.348367 1.26833C0.372778 1.32668 0.408543 1.3796 0.453583 1.42401C0.498623 1.46841 0.55204 1.50343 0.610729 1.52701C0.669419 1.55059 0.73221 1.56228 0.795455 1.56138H0.954545V7.63915C0.422067 7.72049 0 8.16734 0 8.72048V12.2205C1.26558e-05 12.3471 0.0503007 12.4684 0.139804 12.5579C0.229307 12.6474 0.350696 12.6977 0.477273 12.6977H9.38636C9.51294 12.6977 9.63433 12.6474 9.72383 12.5579C9.81334 12.4684 9.86362 12.3471 9.86364 12.2205V8.72048C9.86364 8.16734 9.44157 7.72049 8.90909 7.63915V1.56138H9.06818C9.13143 1.56228 9.19422 1.55059 9.25291 1.52701C9.3116 1.50343 9.36501 1.46841 9.41005 1.42401C9.45509 1.3796 9.49086 1.32668 9.51527 1.26833C9.53968 1.20998 9.55225 1.14736 9.55225 1.08411C9.55225 1.02086 9.53968 0.958241 9.51527 0.899891C9.49086 0.841541 9.45509 0.788625 9.41005 0.744217C9.36501 0.699809 9.3116 0.664796 9.25291 0.641212C9.19422 0.617629 9.13143 0.605944 9.06818 0.606839H8.51012C8.45888 0.598422 8.40662 0.598422 8.35538 0.606839H1.51012C1.4818 0.601983 1.45309 0.599695 1.42436 0.600003ZM1.90909 1.56138H7.95455V8.08411C7.95456 8.21069 8.00485 8.33208 8.09435 8.42158C8.18385 8.51108 8.30524 8.56137 8.43182 8.56138H8.75C8.84388 8.56138 8.90909 8.6266 8.90909 8.72048V11.7432H5.72727V9.83411C5.72727 9.65847 5.58473 9.51593 5.40909 9.51593H4.45455C4.27891 9.51593 4.13636 9.65847 4.13636 9.83411V11.7432H0.954545V8.72048C0.954545 8.6266 1.01976 8.56138 1.11364 8.56138H1.43182C1.55839 8.56137 1.67978 8.51108 1.76929 8.42158C1.85879 8.33208 1.90908 8.21069 1.90909 8.08411V1.56138ZM3.5 2.83411C3.32436 2.83411 3.18182 2.97666 3.18182 3.15229V3.78866C3.18182 3.96429 3.32436 4.10684 3.5 4.10684H4.13636C4.312 4.10684 4.45455 3.96429 4.45455 3.78866V3.15229C4.45455 2.97666 4.312 2.83411 4.13636 2.83411H3.5ZM5.72727 2.83411C5.55164 2.83411 5.40909 2.97666 5.40909 3.15229V3.78866C5.40909 3.96429 5.55164 4.10684 5.72727 4.10684H6.36364C6.53927 4.10684 6.68182 3.96429 6.68182 3.78866V3.15229C6.68182 2.97666 6.53927 2.83411 6.36364 2.83411H5.72727ZM9.54545 2.83411V3.78866H12.25C12.6891 3.78866 13.0455 4.14502 13.0455 4.58411V11.7432H10.5V12.3796C10.5 12.4919 10.4772 12.5978 10.4416 12.6977H13.5227C13.7868 12.6977 14 12.4846 14 12.2205V4.58411C14 3.62002 13.2141 2.83411 12.25 2.83411H9.54545ZM3.5 5.06138C3.32436 5.06138 3.18182 5.20393 3.18182 5.37957V6.01593C3.18182 6.19157 3.32436 6.33411 3.5 6.33411H4.13636C4.312 6.33411 4.45455 6.19157 4.45455 6.01593V5.37957C4.45455 5.20393 4.312 5.06138 4.13636 5.06138H3.5ZM5.72727 5.06138C5.55164 5.06138 5.40909 5.20393 5.40909 5.37957V6.01593C5.40909 6.19157 5.55164 6.33411 5.72727 6.33411H6.36364C6.53927 6.33411 6.68182 6.19157 6.68182 6.01593V5.37957C6.68182 5.20393 6.53927 5.06138 6.36364 5.06138H5.72727ZM11.1364 5.06138C10.9607 5.06138 10.8182 5.20393 10.8182 5.37957V6.01593C10.8182 6.19157 10.9607 6.33411 11.1364 6.33411H11.7727C11.9484 6.33411 12.0909 6.19157 12.0909 6.01593V5.37957C12.0909 5.20393 11.9484 5.06138 11.7727 5.06138H11.1364ZM3.5 7.28866C3.32436 7.28866 3.18182 7.4312 3.18182 7.60684V8.2432C3.18182 8.41884 3.32436 8.56138 3.5 8.56138H4.13636C4.312 8.56138 4.45455 8.41884 4.45455 8.2432V7.60684C4.45455 7.4312 4.312 7.28866 4.13636 7.28866H3.5ZM5.72727 7.28866C5.55164 7.28866 5.40909 7.4312 5.40909 7.60684V8.2432C5.40909 8.41884 5.55164 8.56138 5.72727 8.56138H6.36364C6.53927 8.56138 6.68182 8.41884 6.68182 8.2432V7.60684C6.68182 7.4312 6.53927 7.28866 6.36364 7.28866H5.72727ZM11.1364 7.28866C10.9607 7.28866 10.8182 7.4312 10.8182 7.60684V8.2432C10.8182 8.41884 10.9607 8.56138 11.1364 8.56138H11.7727C11.9484 8.56138 12.0909 8.41884 12.0909 8.2432V7.60684C12.0909 7.4312 11.9484 7.28866 11.7727 7.28866H11.1364ZM2.22727 9.51593C2.05164 9.51593 1.90909 9.65847 1.90909 9.83411V10.4705C1.90909 10.6461 2.05164 10.7887 2.22727 10.7887H2.86364C3.03927 10.7887 3.18182 10.6461 3.18182 10.4705V9.83411C3.18182 9.65847 3.03927 9.51593 2.86364 9.51593H2.22727ZM7 9.51593C6.82436 9.51593 6.68182 9.65847 6.68182 9.83411V10.4705C6.68182 10.6461 6.82436 10.7887 7 10.7887H7.63636C7.812 10.7887 7.95455 10.6461 7.95455 10.4705V9.83411C7.95455 9.65847 7.812 9.51593 7.63636 9.51593H7ZM11.1364 9.51593C10.9607 9.51593 10.8182 9.65847 10.8182 9.83411V10.4705C10.8182 10.6461 10.9607 10.7887 11.1364 10.7887H11.7727C11.9484 10.7887 12.0909 10.6461 12.0909 10.4705V9.83411C12.0909 9.65847 11.9484 9.51593 11.7727 9.51593H11.1364Z" fill="black"/>
</svg>
