<svg width="14" height="14" viewBox="0 0 14 14" fill="none" xmlns="http://www.w3.org/2000/svg">
<path d="M0.531909 1.60003C0.462415 1.59905 0.393418 1.61188 0.328928 1.6378C0.264439 1.66371 0.205743 1.70219 0.156252 1.75098C0.106761 1.79978 0.0674612 1.85793 0.0406373 1.92204C0.0138134 1.98616 0 2.05497 0 2.12447C0 2.19397 0.0138134 2.26278 0.0406373 2.32689C0.0674612 2.39101 0.106761 2.44916 0.156252 2.49795C0.205743 2.54675 0.264439 2.58522 0.328928 2.61114C0.393418 2.63705 0.462415 2.64989 0.531909 2.64891H13.4681C13.5376 2.64989 13.6066 2.63705 13.6711 2.61114C13.7356 2.58522 13.7943 2.54675 13.8437 2.49795C13.8932 2.44916 13.9325 2.39101 13.9594 2.32689C13.9862 2.26278 14 2.19397 14 2.12447C14 2.05497 13.9862 1.98616 13.9594 1.92204C13.9325 1.85793 13.8932 1.79978 13.8437 1.75098C13.7943 1.70219 13.7356 1.66371 13.6711 1.6378C13.6066 1.61188 13.5376 1.59905 13.4681 1.60003H0.531909ZM0.531909 6.31999C0.462415 6.319 0.393418 6.33184 0.328928 6.35776C0.264439 6.38367 0.205743 6.42214 0.156252 6.47094C0.106761 6.51974 0.0674612 6.57788 0.0406373 6.642C0.0138134 6.70612 0 6.77492 0 6.84443C0 6.91393 0.0138134 6.98274 0.0406373 7.04685C0.0674612 7.11097 0.106761 7.16912 0.156252 7.21791C0.205743 7.26671 0.264439 7.30518 0.328928 7.3311C0.393418 7.35701 0.462415 7.36985 0.531909 7.36887H13.4681C13.5376 7.36985 13.6066 7.35701 13.6711 7.3311C13.7356 7.30518 13.7943 7.26671 13.8437 7.21791C13.8932 7.16912 13.9325 7.11097 13.9594 7.04685C13.9862 6.98274 14 6.91393 14 6.84443C14 6.77492 13.9862 6.70612 13.9594 6.642C13.9325 6.57788 13.8932 6.51974 13.8437 6.47094C13.7943 6.42214 13.7356 6.38367 13.6711 6.35776C13.6066 6.33184 13.5376 6.319 13.4681 6.31999H0.531909ZM0.531909 11.0399C0.462415 11.039 0.393418 11.0518 0.328928 11.0777C0.264439 11.1036 0.205743 11.1421 0.156252 11.1909C0.106761 11.2397 0.0674612 11.2978 0.0406373 11.362C0.0138134 11.4261 0 11.4949 0 11.5644C0 11.6339 0.0138134 11.7027 0.0406373 11.7668C0.0674612 11.8309 0.106761 11.8891 0.156252 11.9379C0.205743 11.9867 0.264439 12.0251 0.328928 12.0511C0.393418 12.077 0.462415 12.0898 0.531909 12.0888H13.4681C13.5376 12.0898 13.6066 12.077 13.6711 12.0511C13.7356 12.0251 13.7943 11.9867 13.8437 11.9379C13.8932 11.8891 13.9325 11.8309 13.9594 11.7668C13.9862 11.7027 14 11.6339 14 11.5644C14 11.4949 13.9862 11.4261 13.9594 11.362C13.9325 11.2978 13.8932 11.2397 13.8437 11.1909C13.7943 11.1421 13.7356 11.1036 13.6711 11.0777C13.6066 11.0518 13.5376 11.039 13.4681 11.0399H0.531909Z" fill="black"/>
</svg>
