<svg width="14" height="15" viewBox="0 0 14 15" fill="none" xmlns="http://www.w3.org/2000/svg">
<path d="M2.52778 0.599976C1.13869 0.599976 0 1.73867 0 3.12775V12.0722C0 13.4613 1.13869 14.6 2.52778 14.6H11.4722C12.8613 14.6 14 13.4613 14 12.0722V3.12775C14 1.73867 12.8613 0.599976 11.4722 0.599976H2.52778ZM2.52778 1.76664H11.4722C12.2306 1.76664 12.8333 2.3694 12.8333 3.12775V3.71109H1.16667V3.12775C1.16667 2.3694 1.76942 1.76664 2.52778 1.76664ZM1.16667 4.87775H12.8333V12.0722C12.8333 12.8306 12.2306 13.4333 11.4722 13.4333H2.52778C1.76942 13.4333 1.16667 12.8306 1.16667 12.0722V4.87775ZM3.69444 6.43331C3.4366 6.43331 3.18931 6.53574 3.00698 6.71807C2.82465 6.90039 2.72222 7.14768 2.72222 7.40553C2.72222 7.66338 2.82465 7.91067 3.00698 8.093C3.18931 8.27532 3.4366 8.37775 3.69444 8.37775C3.95229 8.37775 4.19958 8.27532 4.38191 8.093C4.56424 7.91067 4.66667 7.66338 4.66667 7.40553C4.66667 7.14768 4.56424 6.90039 4.38191 6.71807C4.19958 6.53574 3.95229 6.43331 3.69444 6.43331ZM7 6.43331C6.74215 6.43331 6.49486 6.53574 6.31254 6.71807C6.13021 6.90039 6.02778 7.14768 6.02778 7.40553C6.02778 7.66338 6.13021 7.91067 6.31254 8.093C6.49486 8.27532 6.74215 8.37775 7 8.37775C7.25785 8.37775 7.50514 8.27532 7.68747 8.093C7.86979 7.91067 7.97222 7.66338 7.97222 7.40553C7.97222 7.14768 7.86979 6.90039 7.68747 6.71807C7.50514 6.53574 7.25785 6.43331 7 6.43331ZM10.3056 6.43331C10.0477 6.43331 9.80042 6.53574 9.61809 6.71807C9.43576 6.90039 9.33333 7.14768 9.33333 7.40553C9.33333 7.66338 9.43576 7.91067 9.61809 8.093C9.80042 8.27532 10.0477 8.37775 10.3056 8.37775C10.5634 8.37775 10.8107 8.27532 10.993 8.093C11.1753 7.91067 11.2778 7.66338 11.2778 7.40553C11.2778 7.14768 11.1753 6.90039 10.993 6.71807C10.8107 6.53574 10.5634 6.43331 10.3056 6.43331ZM3.69444 9.93331C3.4366 9.93331 3.18931 10.0357 3.00698 10.2181C2.82465 10.4004 2.72222 10.6477 2.72222 10.9055C2.72222 11.1634 2.82465 11.4107 3.00698 11.593C3.18931 11.7753 3.4366 11.8778 3.69444 11.8778C3.95229 11.8778 4.19958 11.7753 4.38191 11.593C4.56424 11.4107 4.66667 11.1634 4.66667 10.9055C4.66667 10.6477 4.56424 10.4004 4.38191 10.2181C4.19958 10.0357 3.95229 9.93331 3.69444 9.93331ZM7 9.93331C6.74215 9.93331 6.49486 10.0357 6.31254 10.2181C6.13021 10.4004 6.02778 10.6477 6.02778 10.9055C6.02778 11.1634 6.13021 11.4107 6.31254 11.593C6.49486 11.7753 6.74215 11.8778 7 11.8778C7.25785 11.8778 7.50514 11.7753 7.68747 11.593C7.86979 11.4107 7.97222 11.1634 7.97222 10.9055C7.97222 10.6477 7.86979 10.4004 7.68747 10.2181C7.50514 10.0357 7.25785 9.93331 7 9.93331Z" fill="black"/>
</svg>
