<svg width="14" height="14" viewBox="0 0 14 14" fill="none" xmlns="http://www.w3.org/2000/svg">
<path d="M0.483844 1.60015C0.420629 1.59925 0.357867 1.61093 0.299205 1.6345C0.240543 1.65808 0.187151 1.69307 0.142132 1.73746C0.0971133 1.78185 0.0613651 1.83474 0.0369651 1.89306C0.0125651 1.95138 0 2.01397 0 2.07719C0 2.14042 0.0125651 2.20301 0.0369651 2.26133C0.0613651 2.31965 0.0971133 2.37254 0.142132 2.41693C0.187151 2.46132 0.240543 2.49631 0.299205 2.51989C0.357867 2.54346 0.420629 2.55514 0.483844 2.55424H1.3603C1.5918 2.55424 1.78479 2.71419 1.82865 2.94185L1.92369 3.43877L2.94922 8.82484C3.13467 9.79659 3.99084 10.5051 4.98041 10.5051H10.9348C11.9244 10.5051 12.7809 9.79687 12.966 8.82484L13.9915 3.43877C14.0047 3.36981 14.0025 3.2988 13.985 3.2308C13.9676 3.16279 13.9353 3.09948 13.8906 3.04537C13.8459 2.99127 13.7897 2.9477 13.7262 2.91778C13.6627 2.88786 13.5934 2.87232 13.5232 2.87228H2.78648L2.76598 2.76357C2.63777 2.09168 2.04442 1.60015 1.3603 1.60015H0.483844ZM2.96848 3.82638H12.9468L12.0287 8.64656C11.9282 9.17438 11.4725 9.55097 10.9348 9.55097H4.98041C4.44298 9.55097 3.98754 9.17436 3.88655 8.64656V8.64594L2.96848 3.82638ZM5.73139 11.1411C5.47835 11.1411 5.23567 11.2417 5.05674 11.4206C4.87781 11.5995 4.77729 11.8422 4.77729 12.0952C4.77729 12.3483 4.87781 12.591 5.05674 12.7699C5.23567 12.9488 5.47835 13.0493 5.73139 13.0493C5.98443 13.0493 6.22711 12.9488 6.40604 12.7699C6.58497 12.591 6.68549 12.3483 6.68549 12.0952C6.68549 11.8422 6.58497 11.5995 6.40604 11.4206C6.22711 11.2417 5.98443 11.1411 5.73139 11.1411ZM10.1838 11.1411C9.93081 11.1411 9.68813 11.2417 9.5092 11.4206C9.33027 11.5995 9.22975 11.8422 9.22975 12.0952C9.22975 12.3483 9.33027 12.591 9.5092 12.7699C9.68813 12.9488 9.93081 13.0493 10.1838 13.0493C10.4369 13.0493 10.6796 12.9488 10.8585 12.7699C11.0374 12.591 11.1379 12.3483 11.1379 12.0952C11.1379 11.8422 11.0374 11.5995 10.8585 11.4206C10.6796 11.2417 10.4369 11.1411 10.1838 11.1411Z" fill="black"/>
</svg>
