<svg width="14" height="14" viewBox="0 0 14 14" fill="none" xmlns="http://www.w3.org/2000/svg">
<g clip-path="url(#clip0_6_12)">
<path d="M2.98454 0.000251677C2.9148 -0.00101279 2.8455 0.0116323 2.7807 0.0374484C2.7159 0.0632646 2.6569 0.101734 2.60713 0.15061C2.55736 0.199486 2.51783 0.257789 2.49085 0.322113C2.46387 0.386437 2.44997 0.455493 2.44998 0.525247V2.16449C1.45074 2.40379 0.699993 3.3059 0.699993 4.37521V11.7251C0.699993 12.9753 1.72481 14.0001 2.97497 14.0001H11.0249C12.2751 14.0001 13.2999 12.9753 13.2999 11.7251V4.37521C13.2999 3.3059 12.5491 2.40379 11.5499 2.16449V0.525247C11.5499 0.437763 11.5281 0.351663 11.4863 0.274769C11.4446 0.197875 11.3843 0.132625 11.311 0.084947C11.2376 0.0372694 11.1535 0.00867554 11.0663 0.00176355C10.9791 -0.00514845 10.8916 0.00984048 10.8116 0.0453684L9.5005 0.628469L8.69113 0.0884345C8.61416 0.0371496 8.52501 0.00710624 8.4327 0.0013444C8.34039 -0.00441744 8.2482 0.0143068 8.16545 0.0556223L6.99993 0.638039L5.83442 0.0556223C5.75167 0.0143068 5.65948 -0.00441744 5.56717 0.0013444C5.47486 0.00710624 5.38571 0.0371496 5.30874 0.0884345L4.49937 0.628469L3.18825 0.0453684C3.12405 0.0168533 3.05478 0.00151154 2.98454 0.000251677ZM5.63755 1.13091L6.76546 1.69486C6.83828 1.73121 6.91855 1.75013 6.99993 1.75013C7.08132 1.75013 7.16159 1.73121 7.23441 1.69486L8.36232 1.13091L9.1587 1.66205C9.23234 1.71118 9.31721 1.74089 9.40541 1.74841C9.49362 1.75594 9.58229 1.74105 9.66319 1.70512L10.4999 1.33325V2.5391C10.4906 2.59546 10.4906 2.65295 10.4999 2.70931V4.55021H3.49997V2.71136C3.50923 2.655 3.50923 2.59751 3.49997 2.54115V1.33325L4.33668 1.70512C4.41758 1.74105 4.50625 1.75594 4.59446 1.74841C4.68266 1.74089 4.76752 1.71118 4.84117 1.66205L5.63755 1.13091ZM2.44998 3.27053V5.0752C2.44999 5.21444 2.50531 5.34796 2.60376 5.44642C2.70221 5.54487 2.83574 5.60019 2.97497 5.6002H11.0249C11.1641 5.60019 11.2977 5.54487 11.3961 5.44642C11.4946 5.34796 11.5499 5.21444 11.5499 5.0752V3.27053C11.9645 3.46565 12.2499 3.88206 12.2499 4.37521V10.5002H1.74998V4.37521C1.74998 3.88206 2.03536 3.46565 2.44998 3.27053ZM4.54996 6.30019C4.36431 6.30019 4.18626 6.37394 4.05499 6.50522C3.92371 6.63649 3.84996 6.81454 3.84996 7.00019C3.84996 7.18584 3.92371 7.36388 4.05499 7.49516C4.18626 7.62643 4.36431 7.70018 4.54996 7.70018C4.73561 7.70018 4.91365 7.62643 5.04493 7.49516C5.1762 7.36388 5.24995 7.18584 5.24995 7.00019C5.24995 6.81454 5.1762 6.63649 5.04493 6.50522C4.91365 6.37394 4.73561 6.30019 4.54996 6.30019ZM6.99993 6.30019C6.81428 6.30019 6.63624 6.37394 6.50496 6.50522C6.37369 6.63649 6.29994 6.81454 6.29994 7.00019C6.29994 7.18584 6.37369 7.36388 6.50496 7.49516C6.63624 7.62643 6.81428 7.70018 6.99993 7.70018C7.18558 7.70018 7.36363 7.62643 7.4949 7.49516C7.62618 7.36388 7.69993 7.18584 7.69993 7.00019C7.69993 6.81454 7.62618 6.63649 7.4949 6.50522C7.36363 6.37394 7.18558 6.30019 6.99993 6.30019ZM9.44991 6.30019C9.26426 6.30019 9.08622 6.37394 8.95494 6.50522C8.82367 6.63649 8.74992 6.81454 8.74992 7.00019C8.74992 7.18584 8.82367 7.36388 8.95494 7.49516C9.08622 7.62643 9.26426 7.70018 9.44991 7.70018C9.63556 7.70018 9.81361 7.62643 9.94488 7.49516C10.0762 7.36388 10.1499 7.18584 10.1499 7.00019C10.1499 6.81454 10.0762 6.63649 9.94488 6.50522C9.81361 6.37394 9.63556 6.30019 9.44991 6.30019ZM4.54996 8.40017C4.36431 8.40017 4.18626 8.47392 4.05499 8.6052C3.92371 8.73647 3.84996 8.91452 3.84996 9.10017C3.84996 9.28582 3.92371 9.46386 4.05499 9.59514C4.18626 9.72641 4.36431 9.80016 4.54996 9.80016C4.73561 9.80016 4.91365 9.72641 5.04493 9.59514C5.1762 9.46386 5.24995 9.28582 5.24995 9.10017C5.24995 8.91452 5.1762 8.73647 5.04493 8.6052C4.91365 8.47392 4.73561 8.40017 4.54996 8.40017ZM6.99993 8.40017C6.81428 8.40017 6.63624 8.47392 6.50496 8.6052C6.37369 8.73647 6.29994 8.91452 6.29994 9.10017C6.29994 9.28582 6.37369 9.46386 6.50496 9.59514C6.63624 9.72641 6.81428 9.80016 6.99993 9.80016C7.18558 9.80016 7.36363 9.72641 7.4949 9.59514C7.62618 9.46386 7.69993 9.28582 7.69993 9.10017C7.69993 8.91452 7.62618 8.73647 7.4949 8.6052C7.36363 8.47392 7.18558 8.40017 6.99993 8.40017ZM9.44991 8.40017C9.26426 8.40017 9.08622 8.47392 8.95494 8.6052C8.82367 8.73647 8.74992 8.91452 8.74992 9.10017C8.74992 9.28582 8.82367 9.46386 8.95494 9.59514C9.08622 9.72641 9.26426 9.80016 9.44991 9.80016C9.63556 9.80016 9.81361 9.72641 9.94488 9.59514C10.0762 9.46386 10.1499 9.28582 10.1499 9.10017C10.1499 8.91452 10.0762 8.73647 9.94488 8.6052C9.81361 8.47392 9.63556 8.40017 9.44991 8.40017ZM1.74998 11.5501H12.2499V11.7251C12.2499 12.4077 11.7074 12.9501 11.0249 12.9501H7.69924C7.69924 12.7646 7.62559 12.5867 7.49446 12.4554C7.36334 12.3241 7.18547 12.2503 6.99993 12.2501C6.8144 12.2503 6.63653 12.3241 6.50541 12.4554C6.37428 12.5867 6.30062 12.7646 6.30062 12.9501H2.97497C2.29246 12.9501 1.74998 12.4077 1.74998 11.7251V11.5501Z" fill="black"/>
</g>
<defs>
<clipPath id="clip0_6_12">
<rect width="13.9999" height="14" fill="white"/>
</clipPath>
</defs>
</svg>
