<svg width="14" height="15" viewBox="0 0 14 15" fill="none" xmlns="http://www.w3.org/2000/svg">
<path d="M2.43181 0.599915C1.6467 0.599915 1 1.24662 1 2.03173V11.5772C1 13.2408 2.35902 14.5999 4.02272 14.5999H8.95452C9.01776 14.6008 9.08055 14.5891 9.13924 14.5655C9.19793 14.5419 9.25135 14.5069 9.29639 14.4625C9.34143 14.4181 9.37719 14.3652 9.4016 14.3068C9.42602 14.2485 9.43859 14.1858 9.43859 14.1226C9.43859 14.0593 9.42602 13.9967 9.4016 13.9384C9.37719 13.88 9.34143 13.8271 9.29639 13.7827C9.25135 13.7383 9.19793 13.7033 9.13924 13.6797C9.08055 13.6561 9.01776 13.6444 8.95452 13.6453H4.02272C2.87497 13.6453 1.95454 12.7249 1.95454 11.5772V11.259C1.95454 10.9896 2.16247 10.7817 2.43181 10.7817C2.70115 10.7817 2.90908 10.9896 2.90908 11.259C2.90862 11.2947 2.91216 11.3303 2.91965 11.3652C2.97567 12.1008 3.5921 12.6908 4.3409 12.6908H10.7045C11.4896 12.6908 12.1363 12.0441 12.1363 11.259V3.30445C12.1363 2.51934 11.4896 1.87264 10.7045 1.87264H3.84747C3.76636 1.16202 3.16255 0.599915 2.43181 0.599915ZM2.43181 1.55446C2.70115 1.55446 2.90908 1.76239 2.90908 2.03173V2.34991V9.91602C2.75887 9.86189 2.59964 9.82716 2.43181 9.82716C2.26399 9.82716 2.10475 9.86189 1.95454 9.91602V2.03173C1.95454 1.76239 2.16247 1.55446 2.43181 1.55446ZM3.86363 2.82718H10.7045C10.9739 2.82718 11.1818 3.03511 11.1818 3.30445V11.259C11.1818 11.5283 10.9739 11.7362 10.7045 11.7362H4.3409C4.07156 11.7362 3.86363 11.5283 3.86363 11.259V2.82718ZM5.59995 4.74186C5.53671 4.74096 5.47391 4.75265 5.41522 4.77623C5.35654 4.79981 5.30312 4.83483 5.25808 4.87923C5.21304 4.92364 5.17727 4.97656 5.15286 5.03491C5.12845 5.09326 5.11588 5.15588 5.11588 5.21913C5.11588 5.28238 5.12845 5.345 5.15286 5.40335C5.17727 5.4617 5.21304 5.51461 5.25808 5.55902C5.30312 5.60343 5.35654 5.63844 5.41522 5.66203C5.47391 5.68561 5.53671 5.69729 5.59995 5.6964H9.41812C9.48136 5.69729 9.54415 5.68561 9.60284 5.66203C9.66153 5.63844 9.71495 5.60343 9.75999 5.55902C9.80503 5.51461 9.84079 5.4617 9.8652 5.40335C9.88962 5.345 9.90219 5.28238 9.90219 5.21913C9.90219 5.15588 9.88962 5.09326 9.8652 5.03491C9.84079 4.97656 9.80503 4.92364 9.75999 4.87923C9.71495 4.83483 9.66153 4.79981 9.60284 4.77623C9.54415 4.75265 9.48136 4.74096 9.41812 4.74186H5.59995ZM5.61362 6.96353C5.55038 6.96264 5.48759 6.97432 5.4289 6.9979C5.37021 7.02149 5.31679 7.0565 5.27175 7.10091C5.22671 7.14531 5.19095 7.19823 5.16653 7.25658C5.14212 7.31493 5.12955 7.37755 5.12955 7.4408C5.12955 7.50405 5.14212 7.56667 5.16653 7.62502C5.19095 7.68337 5.22671 7.73629 5.27175 7.78069C5.31679 7.8251 5.37021 7.86011 5.4289 7.8837C5.48759 7.90728 5.55038 7.91897 5.61362 7.91807H6.58556C6.64881 7.91897 6.7116 7.90728 6.77029 7.8837C6.82898 7.86011 6.88239 7.8251 6.92743 7.78069C6.97247 7.73629 7.00824 7.68337 7.03265 7.62502C7.05706 7.56667 7.06963 7.50405 7.06963 7.4408C7.06963 7.37755 7.05706 7.31493 7.03265 7.25658C7.00824 7.19823 6.97247 7.14531 6.92743 7.10091C6.88239 7.0565 6.82898 7.02149 6.77029 6.9979C6.7116 6.97432 6.64881 6.96264 6.58556 6.96353H5.61362ZM8.49465 6.96353C8.4314 6.96264 8.36861 6.97432 8.30992 6.9979C8.25123 7.02149 8.19782 7.0565 8.15278 7.10091C8.10774 7.14531 8.07197 7.19823 8.04756 7.25658C8.02315 7.31493 8.01058 7.37755 8.01058 7.4408C8.01058 7.50405 8.02315 7.56667 8.04756 7.62502C8.07197 7.68337 8.10774 7.73629 8.15278 7.78069C8.19782 7.8251 8.25123 7.86011 8.30992 7.8837C8.36861 7.90728 8.4314 7.91897 8.49465 7.91807H9.43179C9.49503 7.91897 9.55783 7.90728 9.61651 7.8837C9.6752 7.86011 9.72862 7.8251 9.77366 7.78069C9.8187 7.73629 9.85446 7.68337 9.87888 7.62502C9.90329 7.56667 9.91586 7.50405 9.91586 7.4408C9.91586 7.37755 9.90329 7.31493 9.87888 7.25658C9.85446 7.19823 9.8187 7.14531 9.77366 7.10091C9.72862 7.0565 9.6752 7.02149 9.61651 6.9979C9.55783 6.97432 9.49503 6.96264 9.43179 6.96353H8.49465ZM5.63102 8.55443C5.56778 8.55354 5.50499 8.56522 5.4463 8.58881C5.38761 8.61239 5.33419 8.6474 5.28915 8.69181C5.24411 8.73622 5.20835 8.78913 5.18394 8.84748C5.15952 8.90583 5.14695 8.96845 5.14695 9.0317C5.14695 9.09495 5.15952 9.15757 5.18394 9.21592C5.20835 9.27427 5.24411 9.32719 5.28915 9.3716C5.33419 9.41601 5.38761 9.45102 5.4463 9.4746C5.50499 9.49819 5.56778 9.50987 5.63102 9.50898H6.60234C6.66559 9.50987 6.72838 9.49819 6.78707 9.4746C6.84576 9.45102 6.89917 9.41601 6.94421 9.3716C6.98925 9.32719 7.02502 9.27427 7.04943 9.21592C7.07384 9.15757 7.08641 9.09495 7.08641 9.0317C7.08641 8.96845 7.07384 8.90583 7.04943 8.84748C7.02502 8.78913 6.98925 8.73622 6.94421 8.69181C6.89917 8.6474 6.84576 8.61239 6.78707 8.58881C6.72838 8.56522 6.66559 8.55354 6.60234 8.55443H5.63102ZM8.51143 8.55443C8.44818 8.55354 8.38539 8.56522 8.3267 8.58881C8.26801 8.61239 8.2146 8.6474 8.16956 8.69181C8.12452 8.73622 8.08875 8.78913 8.06434 8.84748C8.03993 8.90583 8.02736 8.96845 8.02736 9.0317C8.02736 9.09495 8.03993 9.15757 8.06434 9.21592C8.08875 9.27427 8.12452 9.32719 8.16956 9.3716C8.2146 9.41601 8.26801 9.45102 8.3267 9.4746C8.38539 9.49819 8.44818 9.50987 8.51143 9.50898H9.44919C9.51243 9.50987 9.57523 9.49819 9.63391 9.4746C9.6926 9.45102 9.74602 9.41601 9.79106 9.3716C9.8361 9.32719 9.87187 9.27427 9.89628 9.21592C9.92069 9.15757 9.93326 9.09495 9.93326 9.0317C9.93326 8.96845 9.92069 8.90583 9.89628 8.84748C9.87187 8.78913 9.8361 8.73622 9.79106 8.69181C9.74602 8.6474 9.6926 8.61239 9.63391 8.58881C9.57523 8.56522 9.51243 8.55354 9.44919 8.55443H8.51143Z" fill="black"/>
</svg>
