<svg width="14" height="15" viewBox="0 0 14 15" fill="none" xmlns="http://www.w3.org/2000/svg">
<path d="M11.8479 0.600098C11.2945 0.600098 10.8114 0.826983 10.5033 1.17353C10.1953 1.52008 10.0533 1.961 10.0533 2.3947C10.0533 2.61013 10.0889 2.82744 10.1619 3.03403L7.82194 4.87349C7.53892 4.68692 7.21155 4.54822 6.82299 4.54822C6.33152 4.54822 5.91535 4.7456 5.60813 5.02842L3.52962 3.8416C3.55368 3.71807 3.59271 3.59619 3.59271 3.47146C3.59271 3.03777 3.4507 2.59684 3.14266 2.25029C2.83462 1.90374 2.35144 1.67686 1.79811 1.67686C1.24477 1.67686 0.761598 1.90374 0.453558 2.25029C0.145517 2.59684 0.00350508 3.03777 0.00350508 3.47146C0.00350508 3.90516 0.145517 4.34609 0.453558 4.69263C0.761598 5.03918 1.24477 5.26606 1.79811 5.26606C2.28958 5.26606 2.70575 5.06869 3.01297 4.78587L5.09148 5.97269C5.06742 6.09622 5.02839 6.21809 5.02839 6.34282C5.02839 6.77652 5.1704 7.21745 5.47844 7.564C5.78648 7.91054 6.26966 8.13743 6.82299 8.13743C7.37633 8.13743 7.8595 7.91054 8.16754 7.564C8.47558 7.21745 8.6176 6.77652 8.6176 6.34282C8.6176 6.12739 8.58196 5.91008 8.50894 5.7035L10.8489 3.86403C11.1319 4.05061 11.4593 4.1893 11.8479 4.1893C12.4012 4.1893 12.8844 3.96242 13.1924 3.61587C13.5005 3.26932 13.6425 2.8284 13.6425 2.3947C13.6425 1.961 13.5005 1.52008 13.1924 1.17353C12.8844 0.826983 12.4012 0.600098 11.8479 0.600098ZM11.8479 1.67686C12.132 1.67686 12.277 1.76403 12.3877 1.88857C12.4984 2.0131 12.5657 2.20028 12.5657 2.3947C12.5657 2.58912 12.4984 2.7763 12.3877 2.90083C12.277 3.02537 12.132 3.11254 11.8479 3.11254C11.5811 3.11254 11.4493 3.0266 11.341 2.91415C11.3241 2.88181 11.3039 2.85128 11.2808 2.82302C11.1988 2.70247 11.13 2.55923 11.13 2.3947C11.13 2.20028 11.1974 2.0131 11.3081 1.88857C11.4188 1.76403 11.5637 1.67686 11.8479 1.67686ZM1.79811 2.75362C2.08225 2.75362 2.22719 2.84079 2.33789 2.96533C2.44859 3.08986 2.51595 3.27705 2.51595 3.47146C2.51595 3.66588 2.44859 3.85306 2.33789 3.97759C2.22719 4.10213 2.08225 4.1893 1.79811 4.1893C1.51396 4.1893 1.36902 4.10213 1.25832 3.97759C1.14762 3.85306 1.08027 3.66588 1.08027 3.47146C1.08027 3.27705 1.14762 3.08986 1.25832 2.96533C1.36902 2.84079 1.51396 2.75362 1.79811 2.75362ZM6.82299 5.62498C7.08972 5.62498 7.2216 5.71092 7.32983 5.82337C7.34678 5.85571 7.36698 5.88625 7.39012 5.9145C7.47204 6.03505 7.54083 6.17829 7.54083 6.34282C7.54083 6.53724 7.47348 6.72442 7.36278 6.84896C7.25208 6.9735 7.10714 7.06067 6.82299 7.06067C6.53885 7.06067 6.39391 6.9735 6.28321 6.84896C6.17251 6.72442 6.10515 6.53724 6.10515 6.34282C6.10515 6.14841 6.17251 5.96123 6.28321 5.83669C6.39391 5.71215 6.53885 5.62498 6.82299 5.62498ZM11.8458 5.62498C10.86 5.62498 10.0498 6.43594 10.0498 7.42169V12.8034C10.0498 13.7891 10.86 14.6001 11.8458 14.6001C12.8315 14.6001 13.6425 13.7891 13.6425 12.8034V7.42169C13.6425 6.43594 12.8315 5.62498 11.8458 5.62498ZM11.8458 6.70175C12.2498 6.70175 12.5657 7.0177 12.5657 7.42169V12.8034C12.5657 13.2074 12.2498 13.5233 11.8458 13.5233C11.4418 13.5233 11.1265 13.2074 11.1265 12.8034V7.42169C11.1265 7.0177 11.4418 6.70175 11.8458 6.70175ZM1.796 6.70385C0.810253 6.70385 0 7.5141 0 8.49985V12.8034C0 13.7891 0.810253 14.6001 1.796 14.6001C2.78176 14.6001 3.59271 13.7891 3.59271 12.8034V8.49985C3.59271 7.5141 2.78176 6.70385 1.796 6.70385ZM1.796 7.78061C2.19999 7.78059 2.51595 8.09586 2.51595 8.49985V12.8034C2.51595 13.2074 2.19999 13.5233 1.796 13.5233C1.39202 13.5233 1.07676 13.2074 1.07676 12.8034V8.49985C1.07676 8.09586 1.39202 7.78061 1.796 7.78061ZM6.82299 9.57311C5.83724 9.57311 5.02629 10.3841 5.02629 11.3698V12.8034C5.02629 13.7891 5.83724 14.6001 6.82299 14.6001C7.80874 14.6001 8.6197 13.7891 8.6197 12.8034V11.3698C8.6197 10.3841 7.80874 9.57311 6.82299 9.57311ZM6.82299 10.6499C7.22698 10.6499 7.54294 10.9658 7.54294 11.3698V12.8034C7.54294 13.2074 7.22698 13.5233 6.82299 13.5233C6.419 13.5233 6.10305 13.2074 6.10305 12.8034V11.3698C6.10305 10.9658 6.419 10.6499 6.82299 10.6499Z" fill="black"/>
</svg>
