<svg width="14" height="15" viewBox="0 0 14 15" fill="none" xmlns="http://www.w3.org/2000/svg">
<path d="M7 0.599976C3.1403 0.599976 0 3.74028 0 7.59998C0 8.74634 0.301948 9.81786 0.791602 10.7732L0.0328125 13.4898C-0.143921 14.121 0.480174 14.7451 1.11152 14.5685L3.83018 13.8097C4.78476 14.2984 5.85471 14.6 7 14.6C10.8597 14.6 14 11.4597 14 7.59998C14 3.74028 10.8597 0.599976 7 0.599976ZM7 1.64998C10.2922 1.64998 12.95 4.30777 12.95 7.59998C12.95 10.8922 10.2922 13.55 7 13.55C5.94945 13.55 4.96671 13.2768 4.10977 12.7994C3.98897 12.7321 3.8465 12.7151 3.71328 12.7522L1.12793 13.4734L1.8498 10.8894C1.8871 10.756 1.87014 10.6132 1.80264 10.4923C1.32428 9.63469 1.05 8.65156 1.05 7.59998C1.05 4.30777 3.7078 1.64998 7 1.64998ZM4.55 6.90066C4.16325 6.90066 3.85 7.21391 3.85 7.60066C3.85 7.98741 4.16325 8.30066 4.55 8.30066C4.93675 8.30066 5.25 7.98741 5.25 7.60066C5.25 7.21391 4.93675 6.90066 4.55 6.90066ZM7 6.90066C6.61325 6.90066 6.3 7.21391 6.3 7.60066C6.3 7.98741 6.61325 8.30066 7 8.30066C7.38675 8.30066 7.7 7.98741 7.7 7.60066C7.7 7.21391 7.38675 6.90066 7 6.90066ZM9.45 6.90066C9.06325 6.90066 8.75 7.21391 8.75 7.60066C8.75 7.98741 9.06325 8.30066 9.45 8.30066C9.83675 8.30066 10.15 7.98741 10.15 7.60066C10.15 7.21391 9.83675 6.90066 9.45 6.90066Z" fill="black"/>
</svg>
