<svg width="14" height="15" viewBox="0 0 14 15" fill="none" xmlns="http://www.w3.org/2000/svg">
<path d="M7 0.599976C3.1402 0.599976 0 3.74018 0 7.59998C0 11.4598 3.1402 14.6 7 14.6C10.8598 14.6 14 11.4598 14 7.59998C14 6.47683 13.7277 5.41849 13.2556 4.47664L12.4701 5.26208C12.7781 5.97993 12.95 6.77013 12.95 7.59998C12.95 10.8809 10.2809 13.55 7 13.55C3.7191 13.55 1.05 10.8809 1.05 7.59998C1.05 4.31908 3.7191 1.64998 7 1.64998C8.5561 1.64998 9.96995 2.2552 11.0312 3.2366L11.7735 2.49421C10.5216 1.32276 8.84555 0.599976 7 0.599976ZM12.4147 3.04519C12.2784 3.04916 12.149 3.10604 12.0538 3.20378L6.125 9.13259L4.74619 7.75378C4.69781 7.7034 4.63987 7.66317 4.57575 7.63546C4.51164 7.60775 4.44264 7.59311 4.37279 7.5924C4.30294 7.59169 4.23366 7.60493 4.16899 7.63133C4.10432 7.65773 4.04557 7.69677 3.99618 7.74616C3.94679 7.79555 3.90775 7.8543 3.88135 7.91897C3.85495 7.98363 3.84172 8.05292 3.84243 8.12277C3.84314 8.19261 3.85778 8.26161 3.88549 8.32573C3.9132 8.38985 3.95342 8.44779 4.00381 8.49617L5.75381 10.2462C5.85227 10.3446 5.98579 10.3999 6.125 10.3999C6.26421 10.3999 6.39773 10.3446 6.49619 10.2462L12.7962 3.94617C12.8719 3.8724 12.9236 3.77749 12.9445 3.67385C12.9655 3.57022 12.9546 3.46268 12.9134 3.36532C12.8721 3.26797 12.8025 3.18532 12.7135 3.1282C12.6246 3.07108 12.5204 3.04215 12.4147 3.04519Z" fill="black"/>
</svg>
