<svg width="14" height="14" viewBox="0 0 14 14" fill="none" xmlns="http://www.w3.org/2000/svg">
<path d="M13.486 2.0021C13.3562 2.00588 13.2331 2.06 13.1425 2.15301L4.50341 10.7921L0.860023 7.14876C0.813989 7.10081 0.758852 7.06254 0.69784 7.03617C0.636828 7.0098 0.571167 6.99587 0.504704 6.99519C0.438241 6.99452 0.372311 7.00711 0.310776 7.03223C0.24924 7.05735 0.193336 7.0945 0.146337 7.1415C0.0993377 7.1885 0.0621888 7.24441 0.0370657 7.30594C0.0119425 7.36748 -0.000649928 7.43341 2.58244e-05 7.49987C0.000701577 7.56633 0.0146319 7.63199 0.0410011 7.69301C0.0673702 7.75402 0.105648 7.80915 0.153593 7.85519L4.15019 11.8518C4.24388 11.9454 4.37093 11.998 4.50341 11.998C4.63588 11.998 4.76293 11.9454 4.85662 11.8518L13.849 2.85944C13.921 2.78925 13.9702 2.69894 13.9901 2.60032C14.01 2.5017 13.9997 2.39937 13.9605 2.30673C13.9212 2.21409 13.855 2.13544 13.7703 2.08109C13.6856 2.02673 13.5866 1.9992 13.486 2.0021Z" fill="black"/>
</svg>
