<svg width="15" height="14" viewBox="0 0 15 14" fill="none" xmlns="http://www.w3.org/2000/svg">
<path d="M14.7502 3.35132C14.7502 3.2519 14.7205 3.15475 14.665 3.07229C14.6094 2.98984 14.5305 2.92584 14.4384 2.88847C14.3463 2.8511 14.2451 2.84207 14.1478 2.86253C14.0505 2.88299 13.9615 2.93201 13.8923 3.00332L7.75125 9.14434L1.61023 3.00332C1.56419 2.95538 1.50906 2.9171 1.44805 2.89073C1.38704 2.86436 1.32138 2.85043 1.25492 2.84976C1.18846 2.84908 1.12253 2.86167 1.061 2.8868C0.999466 2.91192 0.943563 2.94907 0.896566 2.99606C0.849569 3.04306 0.812423 3.09896 0.7873 3.1605C0.762178 3.22203 0.749586 3.28796 0.750262 3.35442C0.750937 3.42088 0.764867 3.48653 0.791235 3.54754C0.817603 3.60855 0.85588 3.66369 0.903822 3.70972L7.39805 10.2039C7.49174 10.2976 7.61878 10.3502 7.75125 10.3502C7.88372 10.3502 8.01076 10.2976 8.10445 10.2039L14.5987 3.70972C14.6466 3.66316 14.6848 3.60744 14.7108 3.54588C14.7368 3.48432 14.7502 3.41816 14.7502 3.35132Z" fill="black"/>
</svg>
