<svg width="14" height="14" viewBox="0 0 14 14" fill="none" xmlns="http://www.w3.org/2000/svg">
<path d="M3.75158 0C3.65217 2.42492e-05 3.55501 0.0297095 3.47256 0.0852578C3.39011 0.140806 3.3261 0.219691 3.28874 0.31182C3.25137 0.403949 3.24233 0.505131 3.26279 0.602422C3.28325 0.699713 3.33228 0.788687 3.40359 0.857961L9.54461 6.99899L3.40359 13.14C3.35564 13.186 3.31737 13.2412 3.291 13.3022C3.26463 13.3632 3.2507 13.4289 3.25003 13.4953C3.24935 13.5618 3.26194 13.6277 3.28706 13.6892C3.31219 13.7508 3.34933 13.8067 3.39633 13.8537C3.44333 13.9007 3.49923 13.9378 3.56076 13.9629C3.6223 13.9881 3.68822 14.0007 3.75469 14C3.82115 13.9993 3.8868 13.9854 3.94781 13.959C4.00882 13.9326 4.06396 13.8944 4.10999 13.8464L10.6042 7.35219C10.6979 7.2585 10.7505 7.13145 10.7505 6.99899C10.7505 6.86652 10.6979 6.73947 10.6042 6.64578L4.10999 0.151558C4.06343 0.103605 4.00771 0.0654836 3.94615 0.0394506C3.88459 0.0134177 3.81843 2.66159e-06 3.75158 0Z" fill="black"/>
</svg>
