<svg width="14" height="15" viewBox="0 0 14 15" fill="none" xmlns="http://www.w3.org/2000/svg">
<path d="M7 0.599976C3.14022 0.599976 0 3.7402 0 7.59998C0 11.4597 3.14022 14.6 7 14.6C10.8598 14.6 14 11.4597 14 7.59998C14 3.7402 10.8598 0.599976 7 0.599976ZM7 1.64998C10.2923 1.64998 12.95 4.30766 12.95 7.59998C12.95 10.8923 10.2923 13.55 7 13.55C3.70768 13.55 1.05 10.8923 1.05 7.59998C1.05 4.30766 3.70768 1.64998 7 1.64998ZM7 4.44998C5.26652 4.44998 3.85 5.8665 3.85 7.59998C3.85 9.33345 5.26652 10.75 7 10.75C8.73348 10.75 10.15 9.33345 10.15 7.59998C10.15 5.8665 8.73348 4.44998 7 4.44998ZM7 5.49998C8.16602 5.49998 9.1 6.43396 9.1 7.59998C9.1 8.76599 8.16602 9.69998 7 9.69998C5.83398 9.69998 4.9 8.76599 4.9 7.59998C4.9 6.43396 5.83398 5.49998 7 5.49998Z" fill="black"/>
</svg>
