<svg width="15" height="15" viewBox="0 0 15 15" fill="none" xmlns="http://www.w3.org/2000/svg">
<path d="M6.99261 0.599976C4.30425 0.599976 1.82718 1.8074 0.142536 3.67226C0.0938984 3.72609 0.0563398 3.78898 0.0320049 3.85733C0.00767006 3.92567 -0.00296448 3.99814 0.000708464 4.0706C0.00438141 4.14306 0.02229 4.21408 0.0534116 4.27962C0.0845332 4.34516 0.128258 4.40392 0.182091 4.45256C0.29081 4.55079 0.434097 4.6018 0.580431 4.59439C0.652888 4.59071 0.723913 4.57281 0.789449 4.54168C0.854985 4.51056 0.91375 4.46684 0.962388 4.413C2.44438 2.77247 4.63645 1.70462 6.99261 1.70462C9.34878 1.70462 11.5451 2.77295 13.0307 4.41372C13.0788 4.46976 13.1376 4.51559 13.2036 4.54853C13.2697 4.58146 13.3417 4.60082 13.4153 4.60546C13.489 4.61011 13.5628 4.59994 13.6325 4.57557C13.7022 4.55119 13.7663 4.5131 13.821 4.46354C13.8757 4.41399 13.9199 4.35397 13.951 4.28704C13.9821 4.22011 13.9995 4.14762 14.0021 4.07385C14.0047 4.00009 13.9926 3.92655 13.9663 3.85757C13.94 3.7886 13.9002 3.72559 13.8492 3.67226C12.1608 1.80764 9.68098 0.599976 6.99261 0.599976ZM13.0272 7.2192C12.9088 7.22528 12.7956 7.26926 12.7042 7.34462C12.6127 7.41999 12.548 7.52276 12.5194 7.63775C11.9283 9.8548 9.60268 11.6464 6.99261 11.6464C4.38255 11.6464 2.06434 9.85568 1.473 7.63775C1.44348 7.52074 1.37646 7.41661 1.28217 7.34128C1.18789 7.26596 1.07153 7.22358 0.950881 7.22064C0.864456 7.21854 0.778744 7.23675 0.700641 7.27381C0.622538 7.31088 0.554225 7.36576 0.501198 7.43403C0.44817 7.50231 0.411909 7.58208 0.395332 7.66693C0.378754 7.75178 0.382323 7.83933 0.405752 7.92254C0.582364 8.58496 0.879996 9.20455 1.26588 9.76865L0.21733 10.6424C0.159586 10.6882 0.11159 10.7451 0.07617 10.8098C0.0407499 10.8744 0.0186215 10.9454 0.0110881 11.0188C0.00355473 11.0921 0.0107686 11.1662 0.0323052 11.2366C0.0538417 11.3071 0.0892653 11.3726 0.136489 11.4292C0.183713 11.4858 0.241783 11.5323 0.307278 11.5661C0.372772 11.5999 0.444368 11.6202 0.517847 11.6259C0.591326 11.6316 0.665203 11.6226 0.735127 11.5993C0.80505 11.576 0.869606 11.539 0.924991 11.4903L2.02604 10.572C2.42599 10.985 2.8551 11.3486 3.35434 11.6543L2.67904 12.8244C2.64276 12.8872 2.61921 12.9566 2.60974 13.0286C2.60028 13.1005 2.60508 13.1737 2.62387 13.2438C2.64267 13.3138 2.67509 13.3796 2.71928 13.4371C2.76347 13.4947 2.81857 13.543 2.88143 13.5793C2.94429 13.6155 3.01368 13.6391 3.08563 13.6485C3.15759 13.658 3.2307 13.6532 3.3008 13.6343C3.37089 13.6155 3.43659 13.5831 3.49415 13.5389C3.55171 13.4947 3.6 13.4396 3.63626 13.3767L4.33529 12.1649C5.00292 12.4412 5.6973 12.6463 6.44389 12.7057V14.0398C6.44285 14.113 6.45637 14.1856 6.48367 14.2536C6.51096 14.3215 6.55148 14.3833 6.60287 14.4354C6.65426 14.4875 6.7155 14.5289 6.78302 14.5572C6.85055 14.5854 6.92301 14.6 6.99621 14.6C7.06941 14.6 7.14187 14.5854 7.2094 14.5572C7.27692 14.5289 7.33816 14.4875 7.38955 14.4354C7.44094 14.3833 7.48146 14.3215 7.50875 14.2536C7.53604 14.1856 7.54956 14.113 7.54853 14.0398V12.705C8.29428 12.645 8.98835 12.4397 9.65569 12.1635L10.3562 13.3767C10.3924 13.4396 10.4407 13.4947 10.4983 13.5389C10.5558 13.5831 10.6215 13.6155 10.6916 13.6343C10.7617 13.6532 10.8348 13.658 10.9068 13.6485C10.9787 13.6391 11.0481 13.6155 11.111 13.5793C11.1738 13.543 11.2289 13.4947 11.2731 13.4371C11.3173 13.3796 11.3497 13.3138 11.3685 13.2438C11.3873 13.1737 11.3921 13.1005 11.3827 13.0286C11.3732 12.9566 11.3497 12.8872 11.3134 12.8244L10.6374 11.6529C11.1364 11.3473 11.565 10.9838 11.9649 10.5712L13.0674 11.4903C13.1228 11.539 13.1874 11.576 13.2573 11.5993C13.3272 11.6226 13.4011 11.6316 13.4746 11.6259C13.548 11.6202 13.6196 11.5999 13.6851 11.5661C13.7506 11.5323 13.8087 11.4858 13.8559 11.4292C13.9032 11.3726 13.9386 11.3071 13.9601 11.2366C13.9816 11.1662 13.9889 11.0921 13.9813 11.0188C13.9738 10.9454 13.9517 10.8744 13.9162 10.8098C13.8808 10.7451 13.8328 10.6882 13.7751 10.6424L12.7258 9.76793C13.1119 9.20412 13.4101 8.58468 13.5867 7.92254C13.6108 7.83803 13.6144 7.74898 13.5972 7.66279C13.58 7.57659 13.5425 7.49575 13.4878 7.42697C13.4331 7.35818 13.3628 7.30345 13.2826 7.26731C13.2025 7.23118 13.1149 7.21468 13.0272 7.2192Z" fill="black"/>
</svg>
