<svg width="15" height="15" viewBox="0 0 15 15" fill="none" xmlns="http://www.w3.org/2000/svg">
<path d="M2.1466 0.600098C0.972247 0.600098 0.00771508 1.56463 0.00771508 2.73899V9.64328C-0.00257169 9.70591 -0.00257169 9.76979 0.00771508 9.83241V12.4612C0.00771508 13.6356 0.972247 14.6001 2.1466 14.6001H11.8688C13.0432 14.6001 14.0077 13.6356 14.0077 12.4612V9.83469C14.018 9.77207 14.018 9.70819 14.0077 9.64556V2.73899C14.0077 1.56463 13.0432 0.600098 11.8688 0.600098H2.1466ZM2.1466 1.76676H6.42438V4.87788H1.17438V2.73899C1.17438 2.19523 1.60285 1.76676 2.1466 1.76676ZM7.59105 1.76676H11.8688C12.4126 1.76676 12.841 2.19523 12.841 2.73899V4.87788H7.59105V1.76676ZM1.17438 6.04454H6.42438V9.15565H1.17438V6.04454ZM7.59105 6.04454H12.841V9.15565H7.59105V6.04454ZM1.17438 10.3223H6.42438V13.4334H2.1466C1.60285 13.4334 1.17438 13.005 1.17438 12.4612V10.3223ZM7.59105 10.3223H12.841V12.4612C12.841 13.005 12.4126 13.4334 11.8688 13.4334H7.59105V10.3223Z" fill="black"/>
</svg>
