<svg width="14" height="15" viewBox="0 0 14 15" fill="none" xmlns="http://www.w3.org/2000/svg">
<path d="M2.14743 0.599976C0.973917 0.599976 0.0100796 1.56381 0.0100796 2.73732V11.5934C-0.0925858 13.0133 0.588737 14.5309 2.06697 14.5853C2.09366 14.5887 2.12054 14.5902 2.14743 14.5899H11.8627C12.5084 14.5899 13.0688 14.2247 13.433 13.7239C13.7973 13.223 14 12.5745 14 11.8696C14 11.1648 13.7973 10.5162 13.433 10.0154C13.0688 9.51456 12.5084 9.14937 11.8627 9.14937H11.6683V2.73732C11.6683 1.56381 10.7045 0.599976 9.531 0.599976H2.14743ZM2.14743 1.7658H9.531C10.0744 1.7658 10.5025 2.19396 10.5025 2.73732V9.14937H2.14743C2.1218 9.1492 2.09619 9.15072 2.07077 9.15393C1.7309 9.16584 1.43236 9.25347 1.17591 9.40136V2.73732C1.17591 2.19396 1.60407 1.7658 2.14743 1.7658ZM3.31326 2.93163C3.23601 2.93054 3.15932 2.94481 3.08764 2.97361C3.01596 3.00241 2.95072 3.04518 2.89571 3.09941C2.8407 3.15365 2.79702 3.21828 2.76721 3.28955C2.73739 3.36081 2.72204 3.43729 2.72204 3.51454C2.72204 3.59179 2.73739 3.66827 2.76721 3.73954C2.79702 3.8108 2.8407 3.87543 2.89571 3.92967C2.95072 3.98391 3.01596 4.02667 3.08764 4.05547C3.15932 4.08428 3.23601 4.09855 3.31326 4.09746H4.09047C4.16772 4.09855 4.24441 4.08428 4.31609 4.05547C4.38777 4.02667 4.45301 3.98391 4.50802 3.92967C4.56302 3.87543 4.60671 3.8108 4.63652 3.73954C4.66634 3.66827 4.68169 3.59179 4.68169 3.51454C4.68169 3.43729 4.66634 3.36081 4.63652 3.28955C4.60671 3.21828 4.56302 3.15365 4.50802 3.09941C4.45301 3.04518 4.38777 3.00241 4.31609 2.97361C4.24441 2.94481 4.16772 2.93054 4.09047 2.93163H3.31326ZM6.03352 2.93163C5.95627 2.93054 5.87959 2.94481 5.80791 2.97361C5.73623 3.00241 5.67098 3.04518 5.61598 3.09941C5.56097 3.15365 5.51728 3.21828 5.48747 3.28955C5.45766 3.36081 5.4423 3.43729 5.4423 3.51454C5.4423 3.59179 5.45766 3.66827 5.48747 3.73954C5.51728 3.8108 5.56097 3.87543 5.61598 3.92967C5.67098 3.98391 5.73623 4.02667 5.80791 4.05547C5.87959 4.08428 5.95627 4.09855 6.03352 4.09746H8.36517C8.44241 4.09855 8.5191 4.08428 8.59078 4.05547C8.66246 4.02667 8.7277 3.98391 8.78271 3.92967C8.83772 3.87543 8.8814 3.8108 8.91122 3.73954C8.94103 3.66827 8.95639 3.59179 8.95639 3.51454C8.95639 3.43729 8.94103 3.36081 8.91122 3.28955C8.8814 3.21828 8.83772 3.15365 8.78271 3.09941C8.7277 3.04518 8.66246 3.00241 8.59078 2.97361C8.5191 2.94481 8.44241 2.93054 8.36517 2.93163H6.03352ZM3.31326 4.87467C3.23601 4.87358 3.15932 4.88785 3.08764 4.91666C3.01596 4.94546 2.95072 4.98822 2.89571 5.04246C2.8407 5.0967 2.79702 5.16133 2.76721 5.23259C2.73739 5.30386 2.72204 5.38034 2.72204 5.45759C2.72204 5.53484 2.73739 5.61132 2.76721 5.68258C2.79702 5.75385 2.8407 5.81848 2.89571 5.87271C2.95072 5.92695 3.01596 5.96971 3.08764 5.99852C3.15932 6.02732 3.23601 6.04159 3.31326 6.0405H5.64491C5.72215 6.04159 5.79884 6.02732 5.87052 5.99852C5.9422 5.96971 6.00744 5.92695 6.06245 5.87271C6.11746 5.81848 6.16114 5.75385 6.19096 5.68258C6.22077 5.61132 6.23612 5.53484 6.23612 5.45759C6.23612 5.38034 6.22077 5.30386 6.19096 5.23259C6.16114 5.16133 6.11746 5.0967 6.06245 5.04246C6.00744 4.98822 5.9422 4.94546 5.87052 4.91666C5.79884 4.88785 5.72215 4.87358 5.64491 4.87467H3.31326ZM7.58795 4.87467C7.51071 4.87358 7.43402 4.88785 7.36234 4.91666C7.29066 4.94546 7.22542 4.98822 7.17041 5.04246C7.1154 5.0967 7.07172 5.16133 7.04191 5.23259C7.01209 5.30386 6.99674 5.38034 6.99674 5.45759C6.99674 5.53484 7.01209 5.61132 7.04191 5.68258C7.07172 5.75385 7.1154 5.81848 7.17041 5.87271C7.22542 5.92695 7.29066 5.96971 7.36234 5.99852C7.43402 6.02732 7.51071 6.04159 7.58795 6.0405H8.36517C8.44241 6.04159 8.5191 6.02732 8.59078 5.99852C8.66246 5.96971 8.7277 5.92695 8.78271 5.87271C8.83772 5.81848 8.8814 5.75385 8.91122 5.68258C8.94103 5.61132 8.95639 5.53484 8.95639 5.45759C8.95639 5.38034 8.94103 5.30386 8.91122 5.23259C8.8814 5.16133 8.83772 5.0967 8.78271 5.04246C8.7277 4.98822 8.66246 4.94546 8.59078 4.91666C8.5191 4.88785 8.44241 4.87358 8.36517 4.87467H7.58795ZM3.31326 6.81772C3.23601 6.81663 3.15932 6.8309 3.08764 6.8597C3.01596 6.8885 2.95072 6.93127 2.89571 6.9855C2.8407 7.03974 2.79702 7.10437 2.76721 7.17564C2.73739 7.2469 2.72204 7.32338 2.72204 7.40063C2.72204 7.47788 2.73739 7.55436 2.76721 7.62563C2.79702 7.69689 2.8407 7.76152 2.89571 7.81576C2.95072 7.87 3.01596 7.91276 3.08764 7.94156C3.15932 7.97037 3.23601 7.98464 3.31326 7.98355H5.64491C5.72215 7.98464 5.79884 7.97037 5.87052 7.94156C5.9422 7.91276 6.00744 7.87 6.06245 7.81576C6.11746 7.76152 6.16114 7.69689 6.19096 7.62563C6.22077 7.55436 6.23612 7.47788 6.23612 7.40063C6.23612 7.32338 6.22077 7.2469 6.19096 7.17564C6.16114 7.10437 6.11746 7.03974 6.06245 6.9855C6.00744 6.93127 5.9422 6.8885 5.87052 6.8597C5.79884 6.8309 5.72215 6.81663 5.64491 6.81772H3.31326ZM2.14743 10.3152C3.4185 10.3152 3.4185 13.4241 2.14743 13.4241C0.876355 13.4241 0.876355 10.3152 2.14743 10.3152ZM3.95082 10.3152H11.8627C12.0753 10.3152 12.292 10.4281 12.4903 10.7008C12.6887 10.9735 12.8342 11.3939 12.8342 11.8696C12.8342 12.3454 12.6887 12.7658 12.4903 13.0385C12.292 13.3112 12.0753 13.4241 11.8627 13.4241H3.95082C4.41783 12.5057 4.41783 11.2336 3.95082 10.3152Z" fill="black"/>
</svg>
