<svg width="14" height="14" viewBox="0 0 14 14" fill="none" xmlns="http://www.w3.org/2000/svg">
<path d="M0.920535 0.600098C0.418441 0.600098 0 1.01854 0 1.52063V3.3617C0 3.8638 0.418441 4.28224 0.920535 4.28224H2.76161C3.2637 4.28224 3.68214 3.8638 3.68214 3.3617V1.52063C3.68214 1.01854 3.2637 0.600098 2.76161 0.600098H0.920535ZM1.10464 1.70474H2.5775V3.1776H1.10464V1.70474ZM5.3391 2.07295C5.26591 2.07192 5.19325 2.08544 5.12533 2.11273C5.05741 2.14002 4.9956 2.18054 4.94347 2.23193C4.89135 2.28332 4.84996 2.34456 4.82171 2.41209C4.79346 2.47961 4.77892 2.55208 4.77892 2.62527C4.77892 2.69847 4.79346 2.77094 4.82171 2.83846C4.84996 2.90599 4.89135 2.96723 4.94347 3.01862C4.9956 3.07001 5.05741 3.11053 5.12533 3.13782C5.19325 3.16511 5.26591 3.17863 5.3391 3.1776H13.4398C13.513 3.17863 13.5857 3.16511 13.6536 3.13782C13.7215 3.11053 13.7833 3.07001 13.8354 3.01862C13.8876 2.96723 13.929 2.90599 13.9572 2.83846C13.9855 2.77094 14 2.69847 14 2.62527C14 2.55208 13.9855 2.47961 13.9572 2.41209C13.929 2.34456 13.8876 2.28332 13.8354 2.23193C13.7833 2.18054 13.7215 2.14002 13.6536 2.11273C13.5857 2.08544 13.513 2.07192 13.4398 2.07295H5.3391ZM0.920535 5.01867C0.418441 5.01867 0 5.43711 0 5.9392V7.78027C0 8.28237 0.418441 8.70081 0.920535 8.70081H2.76161C3.2637 8.70081 3.68214 8.28237 3.68214 7.78027V5.9392C3.68214 5.43711 3.2637 5.01867 2.76161 5.01867H0.920535ZM1.10464 6.12331H2.5775V7.59616H1.10464V6.12331ZM5.3391 6.49152C5.26591 6.49049 5.19325 6.50401 5.12533 6.5313C5.05741 6.55859 4.9956 6.59911 4.94347 6.6505C4.89135 6.70189 4.84996 6.76313 4.82171 6.83066C4.79346 6.89818 4.77892 6.97065 4.77892 7.04384C4.77892 7.11704 4.79346 7.18951 4.82171 7.25703C4.84996 7.32456 4.89135 7.38579 4.94347 7.43718C4.9956 7.48857 5.05741 7.52909 5.12533 7.55639C5.19325 7.58368 5.26591 7.5972 5.3391 7.59616H13.4398C13.513 7.5972 13.5857 7.58368 13.6536 7.55639C13.7215 7.52909 13.7833 7.48857 13.8354 7.43718C13.8876 7.38579 13.929 7.32456 13.9572 7.25703C13.9855 7.18951 14 7.11704 14 7.04384C14 6.97065 13.9855 6.89818 13.9572 6.83066C13.929 6.76313 13.8876 6.70189 13.8354 6.6505C13.7833 6.59911 13.7215 6.55859 13.6536 6.5313C13.5857 6.50401 13.513 6.49049 13.4398 6.49152H5.3391ZM0.920535 9.43723C0.418441 9.43723 0 9.85568 0 10.3578V12.1988C0 12.7009 0.418441 13.1194 0.920535 13.1194H2.76161C3.2637 13.1194 3.68214 12.7009 3.68214 12.1988V10.3578C3.68214 9.85568 3.2637 9.43723 2.76161 9.43723H0.920535ZM1.10464 10.5419H2.5775V12.0147H1.10464V10.5419ZM5.3391 10.9101C5.26591 10.9091 5.19325 10.9226 5.12533 10.9499C5.05741 10.9772 4.9956 11.0177 4.94347 11.0691C4.89135 11.1205 4.84996 11.1817 4.82171 11.2492C4.79346 11.3167 4.77892 11.3892 4.77892 11.4624C4.77892 11.5356 4.79346 11.6081 4.82171 11.6756C4.84996 11.7431 4.89135 11.8044 4.94347 11.8558C4.9956 11.9071 5.05741 11.9477 5.12533 11.975C5.19325 12.0022 5.26591 12.0158 5.3391 12.0147H13.4398C13.513 12.0158 13.5857 12.0022 13.6536 11.975C13.7215 11.9477 13.7833 11.9071 13.8354 11.8558C13.8876 11.8044 13.929 11.7431 13.9572 11.6756C13.9855 11.6081 14 11.5356 14 11.4624C14 11.3892 13.9855 11.3167 13.9572 11.2492C13.929 11.1817 13.8876 11.1205 13.8354 11.0691C13.7833 11.0177 13.7215 10.9772 13.6536 10.9499C13.5857 10.9226 13.513 10.9091 13.4398 10.9101H5.3391Z" fill="black"/>
</svg>
