<svg width="14" height="15" viewBox="0 0 14 15" fill="none" xmlns="http://www.w3.org/2000/svg">
<path d="M0.590934 0.600034C0.513728 0.598942 0.437075 0.613206 0.365429 0.641996C0.293783 0.670786 0.228574 0.713529 0.173591 0.76774C0.118608 0.821951 0.0749472 0.886549 0.0451467 0.957781C0.0153462 1.02901 0 1.10546 0 1.18267C0 1.25988 0.0153462 1.33633 0.0451467 1.40756C0.0749472 1.47879 0.118608 1.54339 0.173591 1.5976C0.228574 1.65181 0.293783 1.69455 0.365429 1.72334C0.437075 1.75213 0.513728 1.7664 0.590934 1.76531H7.97099C8.0482 1.7664 8.12485 1.75213 8.1965 1.72334C8.26814 1.69455 8.33335 1.65181 8.38834 1.5976C8.44332 1.54339 8.48698 1.47879 8.51678 1.40756C8.54658 1.33633 8.56193 1.25988 8.56193 1.18267C8.56193 1.10546 8.54658 1.02901 8.51678 0.957781C8.48698 0.886549 8.44332 0.821951 8.38834 0.76774C8.33335 0.713529 8.26814 0.670786 8.1965 0.641996C8.12485 0.613206 8.0482 0.598942 7.97099 0.600034H0.590934ZM10.6809 3.50487C10.5265 3.50728 10.3793 3.57088 10.2718 3.68169C10.1643 3.79249 10.1051 3.94146 10.1073 4.09585V12.5941L8.38293 10.8698C8.32925 10.8138 8.26494 10.7692 8.19379 10.7384C8.12263 10.7077 8.04605 10.6914 7.96854 10.6907C7.89103 10.6899 7.81413 10.7046 7.74237 10.7339C7.6706 10.7632 7.6054 10.8065 7.55059 10.8613C7.49577 10.9161 7.45245 10.9813 7.42315 11.0531C7.39385 11.1248 7.37916 11.2017 7.37995 11.2792C7.38074 11.3568 7.39699 11.4333 7.42774 11.5045C7.45849 11.5756 7.50313 11.64 7.55905 11.6936L10.278 14.4126C10.3873 14.5218 10.5355 14.5832 10.69 14.5832C10.8445 14.5832 10.9926 14.5218 11.1019 14.4126L13.8209 11.6936C13.8768 11.64 13.9214 11.5756 13.9522 11.5045C13.9829 11.4333 13.9992 11.3568 14 11.2792C14.0008 11.2017 13.9861 11.1248 13.9568 11.0531C13.9275 10.9813 13.8841 10.9161 13.8293 10.8613C13.7745 10.8065 13.7093 10.7632 13.6376 10.7339C13.5658 10.7046 13.4889 10.6899 13.4114 10.6907C13.3339 10.6914 13.2573 10.7077 13.1861 10.7384C13.115 10.7692 13.0507 10.8138 12.997 10.8698L11.2726 12.5941V4.09585C11.2737 4.01787 11.2592 3.94046 11.2298 3.8682C11.2005 3.79594 11.1569 3.73031 11.1017 3.6752C11.0465 3.62009 10.9809 3.57662 10.9086 3.54736C10.8363 3.5181 10.7588 3.50365 10.6809 3.50487ZM0.590934 3.70743C0.513728 3.70633 0.437075 3.7206 0.365429 3.74939C0.293783 3.77818 0.228574 3.82092 0.173591 3.87513C0.118608 3.92934 0.0749472 3.99394 0.0451467 4.06517C0.0153462 4.1364 0 4.21285 0 4.29006C0 4.36728 0.0153462 4.44372 0.0451467 4.51495C0.0749472 4.58618 0.118608 4.65078 0.173591 4.70499C0.228574 4.7592 0.293783 4.80195 0.365429 4.83074C0.437075 4.85953 0.513728 4.87379 0.590934 4.8727H6.4173C6.4945 4.87379 6.57116 4.85953 6.6428 4.83074C6.71445 4.80195 6.77966 4.7592 6.83464 4.70499C6.88962 4.65078 6.93328 4.58618 6.96308 4.51495C6.99288 4.44372 7.00823 4.36728 7.00823 4.29006C7.00823 4.21285 6.99288 4.1364 6.96308 4.06517C6.93328 3.99394 6.88962 3.92934 6.83464 3.87513C6.77966 3.82092 6.71445 3.77818 6.6428 3.74939C6.57116 3.7206 6.4945 3.70633 6.4173 3.70743H0.590934ZM0.590934 6.81482C0.513728 6.81373 0.437075 6.82799 0.365429 6.85678C0.293783 6.88557 0.228574 6.92831 0.173591 6.98253C0.118608 7.03674 0.0749472 7.10133 0.0451467 7.17257C0.0153462 7.2438 0 7.32024 0 7.39746C0 7.47467 0.0153462 7.55111 0.0451467 7.62235C0.0749472 7.69358 0.118608 7.75817 0.173591 7.81239C0.228574 7.8666 0.293783 7.90934 0.365429 7.93813C0.437075 7.96692 0.513728 7.98118 0.590934 7.98009H4.8636C4.94081 7.98118 5.01746 7.96692 5.0891 7.93813C5.16075 7.90934 5.22596 7.8666 5.28094 7.81239C5.33593 7.75817 5.37959 7.69358 5.40939 7.62235C5.43919 7.55111 5.45453 7.47467 5.45453 7.39746C5.45453 7.32024 5.43919 7.2438 5.40939 7.17257C5.37959 7.10133 5.33593 7.03674 5.28094 6.98253C5.22596 6.92831 5.16075 6.88557 5.0891 6.85678C5.01746 6.82799 4.94081 6.81373 4.8636 6.81482H0.590934ZM0.590934 9.92221C0.513728 9.92112 0.437075 9.93538 0.365429 9.96418C0.293783 9.99296 0.228574 10.0357 0.173591 10.0899C0.118608 10.1441 0.0749472 10.2087 0.0451467 10.28C0.0153462 10.3512 0 10.4276 0 10.5048C0 10.5821 0.0153462 10.6585 0.0451467 10.7297C0.0749472 10.801 0.118608 10.8656 0.173591 10.9198C0.228574 10.974 0.293783 11.0167 0.365429 11.0455C0.437075 11.0743 0.513728 11.0886 0.590934 11.0875H3.3099C3.38711 11.0886 3.46376 11.0743 3.53541 11.0455C3.60705 11.0167 3.67226 10.974 3.72725 10.9198C3.78223 10.8656 3.82589 10.801 3.85569 10.7297C3.88549 10.6585 3.90084 10.5821 3.90084 10.5048C3.90084 10.4276 3.88549 10.3512 3.85569 10.28C3.82589 10.2087 3.78223 10.1441 3.72725 10.0899C3.67226 10.0357 3.60705 9.99296 3.53541 9.96418C3.46376 9.93538 3.38711 9.92112 3.3099 9.92221H0.590934ZM0.590934 13.0296C0.513728 13.0285 0.437075 13.0428 0.365429 13.0716C0.293783 13.1004 0.228574 13.1431 0.173591 13.1973C0.118608 13.2515 0.0749472 13.3161 0.0451467 13.3874C0.0153462 13.4586 0 13.535 0 13.6122C0 13.6895 0.0153462 13.7659 0.0451467 13.8371C0.0749472 13.9084 0.118608 13.973 0.173591 14.0272C0.228574 14.0814 0.293783 14.1241 0.365429 14.1529C0.437075 14.1817 0.513728 14.196 0.590934 14.1949H1.75621C1.83341 14.196 1.91007 14.1817 1.98171 14.1529C2.05336 14.1241 2.11857 14.0814 2.17355 14.0272C2.22853 13.973 2.27219 13.9084 2.30199 13.8371C2.33179 13.7659 2.34714 13.6895 2.34714 13.6122C2.34714 13.535 2.33179 13.4586 2.30199 13.3874C2.27219 13.3161 2.22853 13.2515 2.17355 13.1973C2.11857 13.1431 2.05336 13.1004 1.98171 13.0716C1.91007 13.0428 1.83341 13.0285 1.75621 13.0296H0.590934Z" fill="black"/>
</svg>
