<svg width="14" height="14" viewBox="0 0 14 14" fill="none" xmlns="http://www.w3.org/2000/svg">
<path d="M2.975 0.599976C2.10665 0.599976 1.4 1.30663 1.4 2.17498V6.72498C1.4 7.59333 2.10665 8.29998 2.975 8.29998H3.85V7.24998H2.975C2.68555 7.24998 2.45 7.01443 2.45 6.72498V2.17498C2.45 1.88553 2.68555 1.64998 2.975 1.64998H12.5036C12.2863 1.04028 11.7085 0.599976 11.025 0.599976H2.975ZM6.125 2.34998C5.25525 2.34998 4.55 3.05523 4.55 3.92498V9.17498C4.55 10.0447 5.25525 10.75 6.125 10.75H7V8.99998H5.95C5.7568 8.99998 5.6 8.84318 5.6 8.64998V3.92498C5.6 3.63518 5.8352 3.39998 6.125 3.39998H11.725C12.0148 3.39998 12.25 3.63518 12.25 3.92498V4.09998H13.3V3.92498C13.3 3.05523 12.5947 2.34998 11.725 2.34998H6.125ZM9.275 4.79998C8.41137 4.79998 7.7 5.51135 7.7 6.37498V11.625C7.7 12.4886 8.41137 13.2 9.275 13.2H12.425C13.2886 13.2 14 12.4886 14 11.625V6.37498C14 5.51135 13.2886 4.79998 12.425 4.79998H9.275ZM9.275 5.84998H12.425C12.7213 5.84998 12.95 6.0787 12.95 6.37498V11.625C12.95 11.9213 12.7213 12.15 12.425 12.15H9.275C8.97873 12.15 8.75 11.9213 8.75 11.625V6.37498C8.75 6.0787 8.97873 5.84998 9.275 5.84998ZM0.525 8.64998C0.23485 8.64998 0 8.88483 0 9.17498C0 9.46513 0.23485 9.69998 0.525 9.69998H3.85V8.64998H0.525ZM10.325 10.4C10.2554 10.399 10.1864 10.4118 10.1218 10.4378C10.0572 10.4637 9.99849 10.5022 9.94894 10.5511C9.8994 10.5999 9.86006 10.6581 9.8332 10.7223C9.80635 10.7865 9.79252 10.8554 9.79252 10.925C9.79252 10.9946 9.80635 11.0634 9.8332 11.1276C9.86006 11.1918 9.8994 11.25 9.94894 11.2989C9.99849 11.3477 10.0572 11.3862 10.1218 11.4122C10.1864 11.4381 10.2554 11.451 10.325 11.45H11.375C11.4446 11.451 11.5136 11.4381 11.5782 11.4122C11.6428 11.3862 11.7015 11.3477 11.7511 11.2989C11.8006 11.25 11.8399 11.1918 11.8668 11.1276C11.8936 11.0634 11.9075 10.9946 11.9075 10.925C11.9075 10.8554 11.8936 10.7865 11.8668 10.7223C11.8399 10.6581 11.8006 10.5999 11.7511 10.5511C11.7015 10.5022 11.6428 10.4637 11.5782 10.4378C11.5136 10.4118 11.4446 10.399 11.375 10.4H10.325Z" fill="black"/>
</svg>
