<svg width="14" height="15" viewBox="0 0 14 15" fill="none" xmlns="http://www.w3.org/2000/svg">
<path d="M5.6 0.599976C4.73637 0.599976 4.025 1.31135 4.025 2.17498V4.27498C4.025 5.1386 4.73637 5.84998 5.6 5.84998H6.125V7.24998H3.675C2.81137 7.24998 2.1 7.96135 2.1 8.82498V9.34998H1.575C0.711375 9.34998 0 10.0613 0 10.925V13.025C0 13.8886 0.711375 14.6 1.575 14.6H3.675C4.53863 14.6 5.25 13.8886 5.25 13.025V10.925C5.25 10.0613 4.53863 9.34998 3.675 9.34998H3.15V8.82498C3.15 8.5287 3.37873 8.29998 3.675 8.29998H9.625C9.92127 8.29998 10.15 8.5287 10.15 8.82498V9.34998H9.625C8.76137 9.34998 8.05 10.0613 8.05 10.925V13.025C8.05 13.8886 8.76137 14.6 9.625 14.6H11.725C12.5886 14.6 13.3 13.8886 13.3 13.025V10.925C13.3 10.0613 12.5886 9.34998 11.725 9.34998H11.2V8.82498C11.2 7.96135 10.4886 7.24998 9.625 7.24998H7.175V5.84998H7.7C8.56363 5.84998 9.275 5.1386 9.275 4.27498V2.17498C9.275 1.31135 8.56363 0.599976 7.7 0.599976H5.6ZM5.6 1.64998H7.7C7.99627 1.64998 8.225 1.8787 8.225 2.17498V4.27498C8.225 4.57125 7.99627 4.79998 7.7 4.79998H5.6C5.30373 4.79998 5.075 4.57125 5.075 4.27498V2.17498C5.075 1.8787 5.30373 1.64998 5.6 1.64998ZM1.575 10.4H3.675C3.97127 10.4 4.2 10.6287 4.2 10.925V13.025C4.2 13.3212 3.97127 13.55 3.675 13.55H1.575C1.27873 13.55 1.05 13.3212 1.05 13.025V10.925C1.05 10.6287 1.27873 10.4 1.575 10.4ZM9.625 10.4H11.725C12.0213 10.4 12.25 10.6287 12.25 10.925V13.025C12.25 13.3212 12.0213 13.55 11.725 13.55H9.625C9.32872 13.55 9.1 13.3212 9.1 13.025V10.925C9.1 10.6287 9.32872 10.4 9.625 10.4Z" fill="black"/>
</svg>
