<svg width="14" height="14" viewBox="0 0 14 14" fill="none" xmlns="http://www.w3.org/2000/svg">
<path d="M7.15909 0.599976C6.5495 0.599976 6.04545 1.10439 6.04545 1.71361V3.30452C6.04545 3.91374 6.5495 4.41816 7.15909 4.41816H8.2342L9.04892 5.23288C9.13843 5.32235 9.2598 5.37261 9.38636 5.37261C9.51292 5.37261 9.6343 5.32235 9.72381 5.23288L10.5385 4.41816H11.6136C12.2232 4.41816 12.7273 3.91374 12.7273 3.30452V1.71361C12.7273 1.10439 12.2232 0.599976 11.6136 0.599976H7.15909ZM7.15909 1.55452H11.6136C11.7072 1.55452 11.7727 1.62029 11.7727 1.71361V3.30452C11.7727 3.39785 11.7072 3.46361 11.6136 3.46361H10.3409C10.2143 3.46364 10.093 3.51393 10.0035 3.60344L9.38636 4.22054L8.76927 3.60344C8.67977 3.51393 8.55839 3.46364 8.43182 3.46361H7.15909C7.0655 3.46361 7 3.39785 7 3.30452V1.71361C7 1.62029 7.0655 1.55452 7.15909 1.55452ZM2.54545 5.3727C2.05492 5.3727 1.62659 5.57384 1.35352 5.88105C1.08044 6.18826 0.954545 6.57914 0.954545 6.96361C0.954545 7.34808 1.08044 7.73896 1.35352 8.04618C1.62659 8.35339 2.05492 8.55452 2.54545 8.55452C3.03598 8.55452 3.46432 8.35339 3.73739 8.04618C4.01047 7.73896 4.13636 7.34808 4.13636 6.96361C4.13636 6.57914 4.01047 6.18826 3.73739 5.88105C3.46432 5.57384 3.03598 5.3727 2.54545 5.3727ZM7 5.3727C6.40341 5.3727 5.89553 5.61361 5.56942 5.98048C5.24332 6.34735 5.09091 6.81778 5.09091 7.28179C5.09091 7.74581 5.24332 8.21624 5.56942 8.58311C5.89553 8.94998 6.40341 9.19088 7 9.19088C7.59659 9.19088 8.10447 8.94998 8.43058 8.58311C8.75668 8.21624 8.90909 7.74581 8.90909 7.28179C8.90909 6.81778 8.75668 6.34735 8.43058 5.98048C8.10447 5.61361 7.59659 5.3727 7 5.3727ZM11.4545 5.3727C10.964 5.3727 10.5357 5.57384 10.2626 5.88105C9.98953 6.18826 9.86364 6.57914 9.86364 6.96361C9.86364 7.34808 9.98953 7.73896 10.2626 8.04618C10.5357 8.35339 10.964 8.55452 11.4545 8.55452C11.9451 8.55452 12.3734 8.35339 12.6465 8.04618C12.9196 7.73896 13.0455 7.34808 13.0455 6.96361C13.0455 6.57914 12.9196 6.18826 12.6465 5.88105C12.3734 5.57384 11.9451 5.3727 11.4545 5.3727ZM2.54545 6.32725C2.79735 6.32725 2.92584 6.40452 3.02397 6.51493C3.12211 6.62533 3.18182 6.79126 3.18182 6.96361C3.18182 7.13596 3.12211 7.3019 3.02397 7.4123C2.92584 7.5227 2.79735 7.59998 2.54545 7.59998C2.29356 7.59998 2.16507 7.5227 2.06694 7.4123C1.9688 7.3019 1.90909 7.13596 1.90909 6.96361C1.90909 6.79126 1.9688 6.62533 2.06694 6.51493C2.16507 6.40452 2.29356 6.32725 2.54545 6.32725ZM7 6.32725C7.35795 6.32725 7.56599 6.4443 7.71715 6.61436C7.86832 6.78442 7.95455 7.0299 7.95455 7.28179C7.95455 7.53369 7.86832 7.77917 7.71715 7.94923C7.56599 8.11929 7.35795 8.23634 7 8.23634C6.64205 8.23634 6.43401 8.11929 6.28285 7.94923C6.13168 7.77917 6.04545 7.53369 6.04545 7.28179C6.04545 7.0299 6.13168 6.78442 6.28285 6.61436C6.43401 6.4443 6.64205 6.32725 7 6.32725ZM11.4545 6.32725C11.7064 6.32725 11.8349 6.40452 11.9331 6.51493C12.0312 6.62533 12.0909 6.79126 12.0909 6.96361C12.0909 7.13596 12.0312 7.3019 11.9331 7.4123C11.8349 7.5227 11.7064 7.59998 11.4545 7.59998C11.2027 7.59998 11.0742 7.5227 10.976 7.4123C10.8779 7.3019 10.8182 7.13596 10.8182 6.96361C10.8182 6.79126 10.8779 6.62533 10.976 6.51493C11.0742 6.40452 11.2027 6.32725 11.4545 6.32725ZM0.954545 9.19088C0.429545 9.19088 0 9.62043 0 10.1454V10.6544C0 11.6185 1.11682 12.3727 2.54545 12.3727C2.94636 12.3727 3.325 12.3125 3.65909 12.2043C3.55409 11.9593 3.5 11.695 3.5 11.4182V11.2497C3.23591 11.3516 2.90818 11.4182 2.54545 11.4182C1.64818 11.4182 0.954545 11.0076 0.954545 10.6544V10.1454H3.69389C3.8848 9.76998 4.21288 9.47108 4.60742 9.31517C4.46742 9.23563 4.305 9.19088 4.13636 9.19088H0.954545ZM9.86364 9.19088C9.695 9.19088 9.53258 9.23563 9.39258 9.31517C9.78712 9.47108 10.1152 9.76998 10.3061 10.1454H13.0455V10.6544C13.0455 11.0076 12.3518 11.4182 11.4545 11.4182C11.0918 11.4182 10.7641 11.3516 10.5 11.2497V11.4182C10.5 11.695 10.4459 11.9593 10.3409 12.2043C10.675 12.3125 11.0536 12.3727 11.4545 12.3727C12.8832 12.3727 14 11.6185 14 10.6544V10.1454C14 9.62043 13.5705 9.19088 13.0455 9.19088H9.86364ZM5.25 9.82725C4.6407 9.82725 4.13636 10.3316 4.13636 10.9409V11.4182C4.13636 12.0285 4.54361 12.5258 5.06729 12.84C5.59098 13.1543 6.26365 13.3272 7 13.3272C7.73635 13.3272 8.40902 13.1543 8.93271 12.84C9.45639 12.5258 9.86364 12.0285 9.86364 11.4182V10.9409C9.86364 10.3316 9.3593 9.82725 8.75 9.82725H5.25ZM5.25 10.7818H8.75C8.84388 10.7818 8.90909 10.847 8.90909 10.9409V11.4182C8.90909 11.5985 8.78178 11.8176 8.44176 12.0216C8.10174 12.2256 7.58156 12.3727 7 12.3727C6.41844 12.3727 5.89826 12.2256 5.55824 12.0216C5.21822 11.8176 5.09091 11.5985 5.09091 11.4182V10.9409C5.09091 10.847 5.15612 10.7818 5.25 10.7818Z" fill="black"/>
</svg>
