<svg width="14" height="14" viewBox="0 0 14 14" fill="none" xmlns="http://www.w3.org/2000/svg">
<path d="M13.4921 1.60016C13.3596 1.60223 13.2334 1.6568 13.1411 1.7519C13.0488 1.84699 12.998 1.97482 12.9999 2.10732V7.10734C12.9999 7.57341 12.6327 7.94067 12.1666 7.94067H1.70694L4.18677 5.46085C4.2589 5.3906 4.30814 5.3002 4.32806 5.2015C4.34797 5.1028 4.33762 5.00039 4.29836 4.90766C4.25911 4.81494 4.19277 4.73623 4.10804 4.68183C4.02331 4.62743 3.92413 4.59987 3.82348 4.60277C3.69363 4.60656 3.57035 4.66073 3.47973 4.75381L0.146389 8.08716C0.0526555 8.18093 0 8.30809 0 8.44068C0 8.57326 0.0526555 8.70042 0.146389 8.79419L3.47973 12.1275C3.52581 12.1755 3.58099 12.2138 3.64205 12.2402C3.70312 12.2666 3.76883 12.2806 3.83535 12.2812C3.90187 12.2819 3.96786 12.2693 4.02945 12.2442C4.09104 12.219 4.14699 12.1818 4.19403 12.1348C4.24107 12.0878 4.27825 12.0318 4.30339 11.9702C4.32854 11.9086 4.34114 11.8426 4.34046 11.7761C4.33979 11.7096 4.32584 11.6439 4.29945 11.5828C4.27306 11.5218 4.23475 11.4666 4.18677 11.4205L1.70694 8.94068H12.1666C13.1732 8.94068 13.9999 8.11393 13.9999 7.10734V2.10732C14.0009 2.0404 13.9884 1.97397 13.9632 1.91196C13.938 1.84995 13.9007 1.79363 13.8533 1.74633C13.806 1.69904 13.7496 1.66173 13.6875 1.63662C13.6255 1.61151 13.5591 1.59911 13.4921 1.60016Z" fill="black"/>
</svg>
