<svg width="14" height="15" viewBox="0 0 14 15" fill="none" xmlns="http://www.w3.org/2000/svg">
<path d="M2.13889 0.599976C0.964532 0.599976 0 1.56451 0 2.73886V12.4611C0 13.6354 0.964532 14.6 2.13889 14.6H9.13889C10.3132 14.6 11.2778 13.6354 11.2778 12.4611C11.2789 12.3838 11.2646 12.307 11.2358 12.2353C11.2069 12.1636 11.1641 12.0983 11.1099 12.0432C11.0556 11.9882 10.9909 11.9445 10.9196 11.9146C10.8483 11.8848 10.7718 11.8694 10.6944 11.8694C10.6171 11.8694 10.5406 11.8848 10.4693 11.9146C10.398 11.9445 10.3333 11.9882 10.279 12.0432C10.2247 12.0983 10.1819 12.1636 10.1531 12.2353C10.1243 12.307 10.11 12.3838 10.1111 12.4611C10.1111 13.0048 9.68264 13.4333 9.13889 13.4333H2.13889C1.59513 13.4333 1.16667 13.0048 1.16667 12.4611V2.73886C1.16667 2.19511 1.59513 1.76664 2.13889 1.76664H9.13889C9.68264 1.76664 10.1111 2.19511 10.1111 2.73886C10.11 2.81616 10.1243 2.89291 10.1531 2.96464C10.1819 3.03637 10.2247 3.10166 10.279 3.15671C10.3333 3.21176 10.398 3.25547 10.4693 3.28531C10.5406 3.31514 10.6171 3.33051 10.6944 3.33051C10.7718 3.33051 10.8483 3.31514 10.9196 3.28531C10.9909 3.25547 11.0556 3.21176 11.1099 3.15671C11.1641 3.10166 11.2069 3.03637 11.2358 2.96464C11.2646 2.89291 11.2789 2.81616 11.2778 2.73886C11.2778 1.56451 10.3132 0.599976 9.13889 0.599976H2.13889ZM10.6884 4.28834C10.5723 4.28837 10.4588 4.32304 10.3626 4.3879C10.2663 4.45276 10.1915 4.54488 10.1479 4.65246C10.1043 4.76004 10.0937 4.87819 10.1176 4.99179C10.1415 5.1054 10.1987 5.2093 10.282 5.29019L12.0085 7.01664H3.69444C3.61715 7.01555 3.5404 7.02983 3.46867 7.05865C3.39694 7.08748 3.33165 7.13027 3.2766 7.18455C3.22155 7.23883 3.17784 7.3035 3.148 7.37482C3.11817 7.44613 3.1028 7.52267 3.1028 7.59998C3.1028 7.67728 3.11817 7.75382 3.148 7.82513C3.17784 7.89645 3.22155 7.96113 3.2766 8.0154C3.33165 8.06968 3.39694 8.11247 3.46867 8.1413C3.5404 8.17012 3.61715 8.1844 3.69444 8.18331H12.0085L10.282 9.90976C10.226 9.96351 10.1813 10.0279 10.1505 10.0991C10.1198 10.1704 10.1035 10.247 10.1027 10.3247C10.1019 10.4023 10.1166 10.4792 10.1459 10.5511C10.1753 10.6229 10.2187 10.6882 10.2735 10.7431C10.3284 10.798 10.3937 10.8414 10.4655 10.8707C10.5374 10.9 10.6144 10.9147 10.692 10.9139C10.7696 10.9132 10.8463 10.8969 10.9175 10.8661C10.9887 10.8353 11.0531 10.7906 11.1069 10.7346L13.8291 8.01241C13.9385 7.90301 13.9999 7.75466 13.9999 7.59998C13.9999 7.44529 13.9385 7.29694 13.8291 7.18754L11.1069 4.46532C11.0525 4.40932 10.9874 4.36481 10.9156 4.33441C10.8437 4.30401 10.7664 4.28835 10.6884 4.28834Z" fill="black"/>
</svg>
