<svg width="14" height="15" viewBox="0 0 14 15" fill="none" xmlns="http://www.w3.org/2000/svg">
<path d="M5.33408 0.60013C5.18821 0.603574 5.04963 0.66459 4.9486 0.769854L3.86625 1.8522L2.7839 0.769854C2.73242 0.716836 2.67082 0.674688 2.60276 0.645905C2.53469 0.617122 2.46154 0.60229 2.38764 0.602287C2.27772 0.602314 2.17031 0.635135 2.07915 0.696551C1.98798 0.757966 1.91722 0.845183 1.8759 0.947043C1.83459 1.0489 1.8246 1.16077 1.84722 1.26834C1.86984 1.37591 1.92404 1.47428 2.00289 1.55087L3.47574 3.02373C3.57933 3.12727 3.71979 3.18544 3.86625 3.18544C4.01271 3.18544 4.15318 3.12727 4.25676 3.02373L5.72962 1.55087C5.80994 1.47378 5.86509 1.37422 5.88784 1.26525C5.91059 1.15627 5.89989 1.04296 5.85712 0.940174C5.81436 0.837388 5.74154 0.749921 5.6482 0.689241C5.55486 0.628562 5.44537 0.5975 5.33408 0.60013ZM9.38156 0.608041C9.23783 0.610142 9.10058 0.668189 8.99896 0.769854L7.5261 2.24271C7.4731 2.29361 7.43078 2.35456 7.40162 2.42202C7.37247 2.48947 7.35707 2.56207 7.35632 2.63555C7.35558 2.70903 7.3695 2.78192 7.39727 2.84995C7.42505 2.91798 7.46612 2.97979 7.51808 3.03175C7.57004 3.08371 7.63185 3.12478 7.69988 3.15256C7.76791 3.18033 7.84081 3.19426 7.91429 3.19351C7.98777 3.19276 8.06036 3.17736 8.12781 3.14821C8.19527 3.11906 8.25623 3.07674 8.30712 3.02373L9.38947 1.94138L10.4718 3.02373C10.5227 3.07674 10.5837 3.11906 10.6511 3.14821C10.7186 3.17736 10.7912 3.19276 10.8647 3.19351C10.9381 3.19426 11.011 3.18033 11.0791 3.15256C11.1471 3.12478 11.2089 3.08371 11.2609 3.03175C11.3128 2.97979 11.3539 2.91798 11.3817 2.84995C11.4094 2.78192 11.4234 2.70903 11.4226 2.63555C11.4219 2.56207 11.4065 2.48947 11.3773 2.42202C11.3482 2.35456 11.3058 2.29361 11.2528 2.24271L9.77998 0.769854C9.72776 0.717614 9.6656 0.676378 9.59716 0.648584C9.52873 0.620791 9.45541 0.607004 9.38156 0.608041ZM0.920536 3.92197C0.418441 3.92197 0 4.34041 0 4.84251V5.2438C0 6.08946 0.388642 6.88935 1.05286 7.41282L4.78679 10.3549V14.0479C4.78684 14.1493 4.81482 14.2488 4.86765 14.3353C4.92049 14.4219 4.99615 14.4923 5.08633 14.5387C5.17651 14.5851 5.27773 14.6058 5.3789 14.5985C5.48007 14.5912 5.57727 14.5562 5.65986 14.4973L8.23736 12.6563C8.30895 12.6052 8.36732 12.5378 8.4076 12.4596C8.44787 12.3814 8.4689 12.2947 8.46893 12.2068V10.3542L12.2029 7.41282C12.8671 6.88935 13.2557 6.08946 13.2557 5.2438V4.84251C13.2557 4.34041 12.8373 3.92197 12.3352 3.92197H0.920536ZM1.10464 5.02661H12.1511V5.2438C12.1511 5.7517 11.9188 6.23019 11.5196 6.54478L7.83822 9.44519H5.4175L1.73607 6.54478C1.33689 6.23019 1.10464 5.7517 1.10464 5.2438V5.02661ZM5.89143 10.5498H7.36429V11.9227L5.89143 12.9749V10.5498Z" fill="black"/>
</svg>
