<svg width="14" height="14" viewBox="0 0 14 14" fill="none" xmlns="http://www.w3.org/2000/svg">
<path d="M1.575 1.59998C0.711375 1.59998 0 2.31135 0 3.17498V11.225C0 12.0886 0.711375 12.8 1.575 12.8H12.425C13.2886 12.8 14 12.0886 14 11.225V4.92498C14 4.06135 13.2886 3.34998 12.425 3.34998H7.01504L5.45029 2.04636C5.10442 1.75821 4.66871 1.59998 4.21846 1.59998H1.575ZM1.575 2.64998H4.21846C4.42341 2.64998 4.62089 2.72185 4.77832 2.853L6.00469 3.87498L4.77832 4.89695C4.62089 5.0281 4.42341 5.09998 4.21846 5.09998H1.05V3.17498C1.05 2.8787 1.27873 2.64998 1.575 2.64998ZM7.01504 4.39998H12.425C12.7213 4.39998 12.95 4.6287 12.95 4.92498V11.225C12.95 11.5212 12.7213 11.75 12.425 11.75H1.575C1.27873 11.75 1.05 11.5212 1.05 11.225V6.14998H4.21846C4.66871 6.14998 5.10442 5.99174 5.45029 5.70359L7.01504 4.39998Z" fill="black"/>
</svg>
