<svg width="14" height="15" viewBox="0 0 14 15" fill="none" xmlns="http://www.w3.org/2000/svg">
<path d="M10.3851 0.600098C10.0943 0.600098 9.80368 0.635365 9.50859 0.706582C9.29664 0.757354 9.13972 0.937766 9.11859 1.15448L9.10461 1.29824C9.0886 1.46214 8.99449 1.60911 8.85171 1.69157C8.70894 1.77369 8.53442 1.78303 8.38518 1.7142L8.25274 1.6543C8.05544 1.56468 7.82033 1.60933 7.6704 1.76744C7.26218 2.19678 6.95752 2.72191 6.79123 3.28551C6.72921 3.49439 6.80737 3.71913 6.9849 3.84589L7.10403 3.93108C7.23795 4.02751 7.31833 4.18312 7.31833 4.3477C7.31833 4.43493 7.29466 4.51899 7.25377 4.59328L7.31767 4.98727L7.80949 4.80092C7.94443 4.75015 8.08564 4.72439 8.22944 4.72439C8.24818 4.72439 8.2666 4.72936 8.28535 4.73038C8.31806 4.606 8.34058 4.47889 8.34058 4.3477C8.34058 3.93675 8.17461 3.54511 7.88736 3.25956C7.96914 3.07248 8.07284 2.89439 8.19483 2.72913C8.58533 2.8351 9.0071 2.78286 9.36284 2.57739C9.71858 2.37191 9.97536 2.03184 10.0789 1.64032C10.2865 1.61579 10.484 1.61579 10.6919 1.64032C10.7952 2.03184 11.0513 2.37191 11.4073 2.57739C11.7628 2.7832 12.1842 2.8351 12.5754 2.72913C12.6973 2.89405 12.801 3.07248 12.8828 3.25956C12.5956 3.54545 12.4296 3.93675 12.4296 4.3477C12.4296 4.75864 12.5956 5.15029 12.8828 5.43584C12.801 5.62291 12.6973 5.801 12.5754 5.96627C12.1849 5.86029 11.7631 5.91254 11.4073 6.11801C11.0513 6.32348 10.7948 6.66355 10.6912 7.05507C10.574 7.06905 10.4603 7.07275 10.3458 7.07105C10.4041 7.22439 10.4576 7.37883 10.5022 7.53625C10.554 7.71924 10.5586 7.90774 10.5242 8.08731C10.7671 8.07777 11.0142 8.04844 11.2623 7.98881C11.4739 7.93804 11.6305 7.75763 11.6516 7.54091L11.6656 7.39649C11.6816 7.23259 11.7757 7.08629 11.9185 7.00383C12.0616 6.92205 12.2361 6.91305 12.385 6.9812L12.5175 7.0411C12.7147 7.1314 12.9502 7.08641 13.0998 6.92796C13.508 6.49861 13.8127 5.97349 13.979 5.40988C14.041 5.20066 13.9628 4.97593 13.7853 4.84951L13.6662 4.76432C13.5322 4.66789 13.4519 4.51228 13.4519 4.3477C13.4519 4.18312 13.5319 4.02783 13.6655 3.93174L13.7853 3.84589C13.9628 3.71947 14.041 3.49473 13.979 3.28551C13.8127 2.72191 13.508 2.19678 13.0998 1.76744C12.9499 1.60899 12.7144 1.564 12.5175 1.6543L12.3857 1.7142C12.2351 1.78235 12.0609 1.77301 11.9185 1.69157C11.7757 1.60911 11.6816 1.46246 11.6656 1.2989L11.6516 1.15448C11.6305 0.937426 11.4735 0.757354 11.2616 0.706582C10.9665 0.635365 10.6759 0.600098 10.3851 0.600098ZM10.3851 2.98469C9.97335 2.98469 9.59983 3.1575 9.36417 3.42261C9.12852 3.68772 9.02209 4.02114 9.02209 4.3477C9.02209 4.67425 9.12852 5.00767 9.36417 5.27278C9.59983 5.5379 9.97335 5.7107 10.3851 5.7107C10.7968 5.7107 11.1704 5.5379 11.406 5.27278C11.6417 5.00767 11.7481 4.67425 11.7481 4.3477C11.7481 4.02114 11.6417 3.68772 11.406 3.42261C11.1704 3.1575 10.7968 2.98469 10.3851 2.98469ZM4.93307 4.00695C4.49769 4.00695 4.08032 4.06695 3.6852 4.16601C3.58844 4.1903 3.5009 4.24237 3.43337 4.31581C3.36585 4.38925 3.32129 4.48085 3.30518 4.5793L3.22066 5.09642C3.18745 5.29884 3.06588 5.47452 2.88856 5.57693C2.71124 5.67935 2.49916 5.69675 2.30689 5.62418L1.81506 5.43784C1.72177 5.40259 1.62021 5.39541 1.52289 5.41717C1.42556 5.43893 1.33673 5.48868 1.26733 5.56029C0.687024 6.15839 0.253075 6.89795 0.0194615 7.7226C-0.00769076 7.8185 -0.00621844 7.92024 0.0236974 8.0153C0.0536132 8.11037 0.110667 8.19462 0.187841 8.25769L0.59448 8.59045C0.752632 8.72069 0.844053 8.91359 0.844053 9.11822C0.844053 9.32316 0.752302 9.51619 0.593814 9.64598L0.187175 9.97875C0.110119 10.0419 0.0531946 10.1262 0.0233986 10.2212C-0.00639745 10.3163 -0.00776585 10.418 0.0194615 10.5138C0.25337 11.3382 0.686946 12.078 1.26733 12.6761C1.33675 12.7475 1.4255 12.7971 1.52268 12.8187C1.61987 12.8403 1.72126 12.8331 1.8144 12.7979L2.30689 12.6123C2.49861 12.5398 2.71069 12.5569 2.88856 12.6595C3.06616 12.762 3.18703 12.9373 3.22 13.1394L3.30452 13.6565C3.32062 13.7549 3.36518 13.8465 3.43271 13.92C3.50023 13.9934 3.58777 14.0455 3.68454 14.0698C4.08017 14.1692 4.49769 14.2295 4.93307 14.2295C5.36846 14.2295 5.78582 14.1695 6.18094 14.0704C6.2777 14.0461 6.36524 13.9941 6.43277 13.9206C6.5003 13.8472 6.54486 13.7556 6.56096 13.6571L6.64548 13.14C6.67869 12.9376 6.80026 12.7619 6.97758 12.6595C7.1549 12.5571 7.36698 12.5397 7.55925 12.6123L8.05108 12.7986C8.14437 12.8338 8.24593 12.841 8.34325 12.8193C8.44058 12.7975 8.52941 12.7478 8.59881 12.6761C9.17912 12.078 9.61307 11.3385 9.84668 10.5138C9.87383 10.4179 9.87236 10.3162 9.84244 10.2211C9.81253 10.1261 9.75547 10.0418 9.6783 9.97875L9.27166 9.64598C9.11351 9.51575 9.02209 9.32285 9.02209 9.11822C9.02209 8.91328 9.11384 8.72025 9.27233 8.59045L9.67897 8.25769C9.75602 8.19454 9.81295 8.11026 9.84274 8.01519C9.87254 7.92013 9.87391 7.81843 9.84668 7.7226C9.61273 6.89714 9.17625 6.15892 8.59748 5.56163C8.52808 5.49001 8.43925 5.44026 8.34192 5.4185C8.2446 5.39674 8.14304 5.40393 8.04975 5.43917L7.55925 5.62418C7.36754 5.69662 7.15478 5.67955 6.97691 5.57693C6.79931 5.47447 6.67844 5.29916 6.64548 5.09708L6.55963 4.57464C6.54357 4.47627 6.49911 4.38474 6.43171 4.31131C6.36431 4.23788 6.27691 4.18575 6.18027 4.16135C5.78151 4.06109 5.36336 4.00695 4.93307 4.00695ZM10.3851 4.00695C10.5413 4.00695 10.5937 4.04711 10.642 4.10145C10.6903 4.15579 10.7258 4.24831 10.7258 4.3477C10.7258 4.44708 10.6903 4.5396 10.642 4.59394C10.5937 4.64829 10.5413 4.68845 10.3851 4.68845C10.2289 4.68845 10.1765 4.64829 10.1282 4.59394C10.0799 4.5396 10.0443 4.44708 10.0443 4.3477C10.0443 4.24831 10.0799 4.15579 10.1282 4.10145C10.1765 4.04711 10.2289 4.00695 10.3851 4.00695ZM4.93307 5.0292C5.16778 5.0292 5.389 5.07553 5.61258 5.11372L5.63654 5.26214C5.7189 5.76584 6.02407 6.20753 6.46645 6.46275C6.90875 6.71792 7.44312 6.76096 7.92064 6.58055L8.05707 6.52931C8.34756 6.87968 8.5766 7.27399 8.73791 7.70729L8.62477 7.7998C8.62455 7.7998 8.62432 7.7998 8.6241 7.7998C8.22923 8.12321 7.99983 8.60758 7.99983 9.11822C7.99983 9.62886 8.22933 10.113 8.62344 10.4366C8.62366 10.4369 8.62388 10.4371 8.6241 10.4373L8.73791 10.5305C8.57687 10.9642 8.34824 11.3587 8.0584 11.7085L7.92064 11.6559C7.44299 11.4756 6.90795 11.519 6.46579 11.7743C6.02362 12.0297 5.71918 12.4707 5.63654 12.9743C5.63654 12.9745 5.63654 12.9747 5.63654 12.975L5.61258 13.1201C5.38809 13.1596 5.16537 13.2072 4.93307 13.2072C4.70054 13.2072 4.47759 13.1597 4.2529 13.1201L4.22894 12.975V12.9743C4.14658 12.4706 3.84208 12.0289 3.39969 11.7737C2.95739 11.5185 2.42303 11.4755 1.94551 11.6559L1.80708 11.7078C1.51732 11.358 1.28868 10.9638 1.12757 10.5298L1.24137 10.4366C1.2416 10.4366 1.24182 10.4366 1.24204 10.4366C1.63693 10.1132 1.86631 9.62886 1.86631 9.11822C1.86631 8.60758 1.63681 8.12344 1.24271 7.7998C1.24248 7.79958 1.24226 7.79936 1.24204 7.79914L1.12823 7.70596C1.28927 7.27227 1.5179 6.87774 1.80774 6.52797L1.94551 6.58055C2.42316 6.76082 2.95819 6.71746 3.40035 6.46209C3.84252 6.20671 4.14697 5.76576 4.22961 5.26214C4.22961 5.26191 4.22961 5.26169 4.22961 5.26147L4.25356 5.11639C4.47804 5.07686 4.70077 5.0292 4.93307 5.0292ZM4.93307 7.07371C4.29416 7.07371 3.75026 7.3317 3.40102 7.7246C3.05178 8.11749 2.88856 8.62129 2.88856 9.11822C2.88856 9.61515 3.05178 10.1189 3.40102 10.5118C3.75026 10.9047 4.29416 11.1627 4.93307 11.1627C5.57198 11.1627 6.11588 10.9047 6.46512 10.5118C6.81436 10.1189 6.97758 9.61515 6.97758 9.11822C6.97758 8.62129 6.81436 8.11749 6.46512 7.7246C6.11588 7.3317 5.57198 7.07371 4.93307 7.07371ZM4.93307 8.09596C5.31642 8.09596 5.53921 8.22131 5.70109 8.40344C5.86298 8.58556 5.95533 8.84846 5.95533 9.11822C5.95533 9.38798 5.86298 9.65087 5.70109 9.833C5.53921 10.0151 5.31642 10.1405 4.93307 10.1405C4.54973 10.1405 4.32694 10.0151 4.16505 9.833C4.00316 9.65087 3.91082 9.38798 3.91082 9.11822C3.91082 8.84846 4.00316 8.58556 4.16505 8.40344C4.32694 8.22131 4.54973 8.09596 4.93307 8.09596Z" fill="black"/>
</svg>
