<svg width="14" height="15" viewBox="0 0 14 15" fill="none" xmlns="http://www.w3.org/2000/svg">
<path d="M1.75 0.599976C0.790416 0.599976 0 1.39039 0 2.34998V5.46109C0 6.42067 0.790416 7.21109 1.75 7.21109H4.86111C5.82069 7.21109 6.61111 6.42067 6.61111 5.46109V2.34998C6.61111 1.39039 5.82069 0.599976 4.86111 0.599976H1.75ZM9.13889 0.599976C8.17931 0.599976 7.38889 1.39039 7.38889 2.34998V5.46109C7.38889 6.42067 8.17931 7.21109 9.13889 7.21109H12.25C13.2096 7.21109 14 6.42067 14 5.46109V2.34998C14 1.39039 13.2096 0.599976 12.25 0.599976H9.13889ZM1.75 1.76664H4.86111C5.19031 1.76664 5.44444 2.02078 5.44444 2.34998V5.46109C5.44444 5.79028 5.19031 6.04442 4.86111 6.04442H1.75C1.42081 6.04442 1.16667 5.79028 1.16667 5.46109V2.34998C1.16667 2.02078 1.42081 1.76664 1.75 1.76664ZM9.13889 1.76664H12.25C12.5792 1.76664 12.8333 2.02078 12.8333 2.34998V5.46109C12.8333 5.79028 12.5792 6.04442 12.25 6.04442H9.13889C8.8097 6.04442 8.55556 5.79028 8.55556 5.46109V2.34998C8.55556 2.02078 8.8097 1.76664 9.13889 1.76664ZM1.75 7.98886C0.790416 7.98886 0 8.77928 0 9.73886V12.85C0 13.8096 0.790416 14.6 1.75 14.6H4.86111C5.82069 14.6 6.61111 13.8096 6.61111 12.85V9.73886C6.61111 8.77928 5.82069 7.98886 4.86111 7.98886H1.75ZM9.13889 7.98886C8.17931 7.98886 7.38889 8.77928 7.38889 9.73886V12.85C7.38889 13.8096 8.17931 14.6 9.13889 14.6H12.25C13.2096 14.6 14 13.8096 14 12.85V9.73886C14 8.77928 13.2096 7.98886 12.25 7.98886H9.13889ZM1.75 9.15553H4.86111C5.19031 9.15553 5.44444 9.40967 5.44444 9.73886V12.85C5.44444 13.1792 5.19031 13.4333 4.86111 13.4333H1.75C1.42081 13.4333 1.16667 13.1792 1.16667 12.85V9.73886C1.16667 9.40967 1.42081 9.15553 1.75 9.15553ZM9.13889 9.15553H12.25C12.5792 9.15553 12.8333 9.40967 12.8333 9.73886V12.85C12.8333 13.1792 12.5792 13.4333 12.25 13.4333H9.13889C8.8097 13.4333 8.55556 13.1792 8.55556 12.85V9.73886C8.55556 9.40967 8.8097 9.15553 9.13889 9.15553Z" fill="black"/>
</svg>
