<svg width="14" height="15" viewBox="0 0 14 15" fill="none" xmlns="http://www.w3.org/2000/svg">
<path d="M7 0.600098C3.14022 0.600098 0 3.74032 0 7.6001C0 11.4599 3.14022 14.6001 7 14.6001C10.8598 14.6001 14 11.4599 14 7.6001C14 3.74032 10.8598 0.600098 7 0.600098ZM7 1.6501C10.2923 1.6501 12.95 4.30778 12.95 7.6001C12.95 10.8924 10.2923 13.5501 7 13.5501C3.70768 13.5501 1.05 10.8924 1.05 7.6001C1.05 4.30778 3.70768 1.6501 7 1.6501ZM7 4.1001C6.81435 4.1001 6.6363 4.17385 6.50503 4.30512C6.37375 4.4364 6.3 4.61445 6.3 4.8001C6.3 4.98575 6.37375 5.1638 6.50503 5.29507C6.6363 5.42635 6.81435 5.5001 7 5.5001C7.18565 5.5001 7.3637 5.42635 7.49497 5.29507C7.62625 5.1638 7.7 4.98575 7.7 4.8001C7.7 4.61445 7.62625 4.4364 7.49497 4.30512C7.3637 4.17385 7.18565 4.1001 7 4.1001ZM6.9918 6.54258C6.85268 6.54475 6.72011 6.60206 6.62321 6.7019C6.52631 6.80175 6.473 6.93598 6.475 7.0751V10.9251C6.47402 10.9947 6.48687 11.0637 6.51281 11.1283C6.53875 11.1929 6.57727 11.2516 6.62612 11.3012C6.67496 11.3507 6.73317 11.39 6.79736 11.4169C6.86154 11.4437 6.93042 11.4576 7 11.4576C7.06958 11.4576 7.13846 11.4437 7.20264 11.4169C7.26683 11.39 7.32504 11.3507 7.37388 11.3012C7.42273 11.2516 7.46125 11.1929 7.48719 11.1283C7.51313 11.0637 7.52598 10.9947 7.525 10.9251V7.0751C7.52601 7.00483 7.5129 6.93507 7.48645 6.86997C7.46 6.80486 7.42075 6.74572 7.37103 6.69606C7.32131 6.6464 7.26212 6.60723 7.19698 6.58086C7.13184 6.5545 7.06206 6.54148 6.9918 6.54258Z" fill="black"/>
</svg>
