<svg width="14" height="15" viewBox="0 0 14 15" fill="none" xmlns="http://www.w3.org/2000/svg">
<path d="M3.75581 0.600376C3.69094 0.600376 3.62588 0.612779 3.56442 0.638387L2.05863 1.23924L0.720219 0.645723C0.563158 0.574021 0.378889 0.590879 0.232071 0.683068C0.088667 0.77867 0 0.939066 0 1.1132V11.6978C0 12.7323 0.84335 13.5757 1.87791 13.5757H9.04809C9.09931 13.5757 9.15026 13.5724 9.20147 13.569C9.10928 13.4188 9.0347 13.2549 8.98007 13.0842C8.92203 12.9066 8.91141 12.7255 8.93872 12.5514H1.87791C1.40672 12.5514 1.02431 12.1689 1.02431 11.6978V1.90211L1.84056 2.26355C1.96689 2.32159 2.11027 2.3221 2.24002 2.27088L3.75581 1.66603L5.27161 2.27088C5.39452 2.3221 5.53147 2.3221 5.65439 2.27088L7.17019 1.66603L8.68598 2.27088C8.81573 2.3221 8.9591 2.32159 9.08544 2.26355L9.90168 1.90211V8.16068C9.96314 8.11629 10.0281 8.0782 10.0964 8.04064C10.1852 7.61043 10.506 7.26262 10.926 7.1397V1.1132C10.926 0.939066 10.8373 0.77867 10.6939 0.683068C10.5471 0.590879 10.3628 0.574021 10.2058 0.645723L8.86737 1.23924L7.36158 0.638387C7.23866 0.587172 7.10171 0.587172 6.97879 0.638387L5.463 1.24324L3.9472 0.638387C3.88574 0.612779 3.82068 0.600376 3.75581 0.600376ZM2.56078 4.69829C2.49291 4.69733 2.42553 4.70987 2.36255 4.73518C2.29958 4.76049 2.24225 4.79806 2.19392 4.84571C2.14559 4.89336 2.10721 4.95015 2.08102 5.01276C2.05482 5.07538 2.04133 5.14257 2.04133 5.21045C2.04133 5.27832 2.05482 5.34552 2.08102 5.40813C2.10721 5.47075 2.14559 5.52753 2.19392 5.57518C2.24225 5.62284 2.29958 5.66041 2.36255 5.68572C2.42553 5.71102 2.49291 5.72356 2.56078 5.7226H8.36522C8.43308 5.72356 8.50046 5.71102 8.56344 5.68572C8.62642 5.66041 8.68374 5.62284 8.73207 5.57518C8.78041 5.52753 8.81879 5.47075 8.84498 5.40813C8.87118 5.34552 8.88467 5.27832 8.88467 5.21045C8.88467 5.14257 8.87118 5.07538 8.84498 5.01276C8.81879 4.95015 8.78041 4.89336 8.73207 4.84571C8.68374 4.79806 8.62642 4.76049 8.56344 4.73518C8.50046 4.70987 8.43308 4.69733 8.36522 4.69829H2.56078ZM2.56078 7.77123C2.49291 7.77027 2.42553 7.78281 2.36255 7.80811C2.29958 7.83342 2.24225 7.87099 2.19392 7.91865C2.14559 7.9663 2.10721 8.02308 2.08102 8.0857C2.05482 8.14831 2.04133 8.21551 2.04133 8.28338C2.04133 8.35126 2.05482 8.41845 2.08102 8.48107C2.10721 8.54368 2.14559 8.60047 2.19392 8.64812C2.24225 8.69577 2.29958 8.73335 2.36255 8.75865C2.42553 8.78396 2.49291 8.7965 2.56078 8.79554H5.63372C5.70158 8.7965 5.76896 8.78396 5.83194 8.75865C5.89492 8.73335 5.95224 8.69577 6.00058 8.64812C6.04891 8.60047 6.08729 8.54368 6.11348 8.48107C6.13968 8.41845 6.15317 8.35126 6.15317 8.28338C6.15317 8.21551 6.13968 8.14831 6.11348 8.0857C6.08729 8.02308 6.04891 7.9663 6.00058 7.91865C5.95224 7.87099 5.89492 7.83342 5.83194 7.80811C5.76896 7.78281 5.70158 7.77027 5.63372 7.77123H2.56078ZM7.68234 7.77123C7.61447 7.77027 7.54709 7.78281 7.48412 7.80811C7.42114 7.83342 7.36381 7.87099 7.31548 7.91865C7.26715 7.9663 7.22877 8.02308 7.20258 8.0857C7.17638 8.14831 7.16289 8.21551 7.16289 8.28338C7.16289 8.35126 7.17638 8.41845 7.20258 8.48107C7.22877 8.54368 7.26715 8.60047 7.31548 8.64812C7.36381 8.69577 7.42114 8.73335 7.48412 8.75865C7.54709 8.78396 7.61447 8.7965 7.68234 8.79554H8.36522C8.43308 8.7965 8.50046 8.78396 8.56344 8.75865C8.62642 8.73335 8.68374 8.69577 8.73207 8.64812C8.78041 8.60047 8.81879 8.54368 8.84498 8.48107C8.87118 8.41845 8.88467 8.35126 8.88467 8.28338C8.88467 8.21551 8.87118 8.14831 8.84498 8.0857C8.81879 8.02308 8.78041 7.9663 8.73207 7.91865C8.68374 7.87099 8.62642 7.83342 8.56344 7.80811C8.50046 7.78281 8.43308 7.77027 8.36522 7.77123H7.68234ZM11.2674 7.77123C10.9847 7.77123 10.7553 8.00067 10.7553 8.28338V8.50812C10.0697 8.70001 9.56025 9.32763 9.56025 10.0706C9.56025 10.9679 10.2901 11.6984 11.1874 11.6984H11.6889C12.0215 11.6984 12.2924 11.9687 12.2924 12.3013C12.2924 12.6308 12.0241 12.9007 11.6942 12.9035L11.066 12.9095C10.8547 12.9095 10.6701 12.7741 10.6066 12.5734C10.5219 12.304 10.2344 12.1536 9.96437 12.2386C9.69463 12.3236 9.54458 12.611 9.6296 12.8808C9.79588 13.4083 10.2294 13.7868 10.7559 13.8971V14.0878C10.7559 14.3705 10.9854 14.6 11.2681 14.6C11.5508 14.6 11.7803 14.3705 11.7803 14.0878V13.9191C12.6332 13.8706 13.3161 13.1638 13.3161 12.3006C13.3161 11.4033 12.5862 10.6734 11.6889 10.6734H11.1874C10.8552 10.6734 10.5846 10.4028 10.5846 10.0693C10.5846 9.74182 10.851 9.47186 11.1787 9.46708L11.4595 9.46241C11.6725 9.46241 11.8575 9.59869 11.9196 9.80185C12.0026 10.0726 12.2901 10.2246 12.5592 10.142C12.8299 10.0593 12.9819 9.77284 12.8993 9.50242C12.7367 8.97217 12.3075 8.59082 11.7796 8.47678V8.28338C11.7796 8.00067 11.5501 7.77123 11.2674 7.77123ZM2.56078 9.81985C2.49291 9.81889 2.42553 9.83143 2.36255 9.85674C2.29958 9.88205 2.24225 9.91962 2.19392 9.96727C2.14559 10.0149 2.10721 10.0717 2.08102 10.1343C2.05482 10.1969 2.04133 10.2641 2.04133 10.332C2.04133 10.3999 2.05482 10.4671 2.08102 10.5297C2.10721 10.5923 2.14559 10.6491 2.19392 10.6967C2.24225 10.7444 2.29958 10.782 2.36255 10.8073C2.42553 10.8326 2.49291 10.8451 2.56078 10.8442H5.63372C5.70158 10.8451 5.76896 10.8326 5.83194 10.8073C5.89492 10.782 5.95224 10.7444 6.00058 10.6967C6.04891 10.6491 6.08729 10.5923 6.11348 10.5297C6.13968 10.4671 6.15317 10.3999 6.15317 10.332C6.15317 10.2641 6.13968 10.1969 6.11348 10.1343C6.08729 10.0717 6.04891 10.0149 6.00058 9.96727C5.95224 9.91962 5.89492 9.88205 5.83194 9.85674C5.76896 9.83143 5.70158 9.81889 5.63372 9.81985H2.56078ZM7.68234 9.81985C7.61447 9.81889 7.54709 9.83143 7.48412 9.85674C7.42114 9.88205 7.36381 9.91962 7.31548 9.96727C7.26715 10.0149 7.22877 10.0717 7.20258 10.1343C7.17638 10.1969 7.16289 10.2641 7.16289 10.332C7.16289 10.3999 7.17638 10.4671 7.20258 10.5297C7.22877 10.5923 7.26715 10.6491 7.31548 10.6967C7.36381 10.7444 7.42114 10.782 7.48412 10.8073C7.54709 10.8326 7.61447 10.8451 7.68234 10.8442H8.36522C8.43308 10.8451 8.50046 10.8326 8.56344 10.8073C8.62642 10.782 8.68374 10.7444 8.73207 10.6967C8.78041 10.6491 8.81879 10.5923 8.84498 10.5297C8.87118 10.4671 8.88467 10.3999 8.88467 10.332C8.88467 10.2641 8.87118 10.1969 8.84498 10.1343C8.81879 10.0717 8.78041 10.0149 8.73207 9.96727C8.68374 9.91962 8.62642 9.88205 8.56344 9.85674C8.50046 9.83143 8.43308 9.81889 8.36522 9.81985H7.68234Z" fill="black"/>
</svg>
