<svg width="14" height="15" viewBox="0 0 14 15" fill="none" xmlns="http://www.w3.org/2000/svg">
<path d="M9.21053 0.599976C6.57199 0.599976 4.42105 2.75091 4.42105 5.38945C4.42105 5.71452 4.48838 6.01699 4.55058 6.32058L0.161904 10.7092C0.0582653 10.8129 2.81947e-05 10.9534 0 11.1V14.0473C1.46541e-05 14.1939 0.058243 14.3345 0.161878 14.4381C0.265514 14.5417 0.406069 14.6 0.552632 14.6H3.5C3.64656 14.6 3.78712 14.5417 3.89075 14.4381C3.99439 14.3345 4.05262 14.1939 4.05263 14.0473V13.1263H5.34211C5.48867 13.1263 5.62922 13.068 5.73286 12.9644C5.83649 12.8608 5.89472 12.7202 5.89474 12.5737V11.2842H7.18421C7.33077 11.2842 7.47133 11.2259 7.57496 11.1223C7.6786 11.0187 7.73683 10.8781 7.73684 10.7316V9.91916C8.20516 10.0719 8.69315 10.1789 9.21053 10.1789C11.8491 10.1789 14 8.02798 14 5.38945C14 2.75091 11.8491 0.599976 9.21053 0.599976ZM9.21053 1.70524C11.2517 1.70524 12.8947 3.3483 12.8947 5.38945C12.8947 7.4306 11.2517 9.07366 9.21053 9.07366C8.5704 9.07366 7.97234 8.91177 7.44901 8.62609C7.36485 8.58016 7.27019 8.55692 7.17433 8.55864C7.07847 8.56036 6.98471 8.58699 6.90225 8.63591C6.8198 8.68484 6.75149 8.75437 6.70403 8.83767C6.65657 8.92098 6.63161 9.0152 6.63158 9.11108V10.1789H5.34211C5.19554 10.1789 5.05499 10.2372 4.95135 10.3408C4.84772 10.4444 4.78949 10.585 4.78947 10.7316V12.021H3.5C3.35344 12.021 3.21288 12.0793 3.10925 12.1829C3.00561 12.2865 2.94738 12.4271 2.94737 12.5737V13.4947H1.10526V11.3288L5.522 6.91206C5.59125 6.84284 5.64087 6.75646 5.66578 6.66176C5.69069 6.56706 5.68999 6.46744 5.66375 6.3731C5.57564 6.05596 5.52632 5.72827 5.52632 5.38945C5.52632 3.3483 7.16938 1.70524 9.21053 1.70524ZM9.94737 3.54734C9.65423 3.54734 9.37311 3.66379 9.16583 3.87107C8.95855 4.07835 8.8421 4.35947 8.8421 4.65261C8.8421 4.94574 8.95855 5.22687 9.16583 5.43415C9.37311 5.64142 9.65423 5.75787 9.94737 5.75787C10.2405 5.75787 10.5216 5.64142 10.7289 5.43415C10.9362 5.22687 11.0526 4.94574 11.0526 4.65261C11.0526 4.35947 10.9362 4.07835 10.7289 3.87107C10.5216 3.66379 10.2405 3.54734 9.94737 3.54734Z" fill="black"/>
</svg>
