<svg width="14" height="13" viewBox="0 0 14 13" fill="none" xmlns="http://www.w3.org/2000/svg">
<path d="M6.01275 0.000241752C5.86135 0.00465435 5.7176 0.0678157 5.61195 0.176354L0.170686 5.61761C0.0613953 5.72695 0 5.87521 0 6.02981C0 6.1844 0.0613953 6.33266 0.170686 6.442L5.61195 11.8833C5.66567 11.9392 5.73001 11.9839 5.80121 12.0147C5.87241 12.0454 5.94903 12.0617 6.02659 12.0625C6.10416 12.0633 6.18109 12.0486 6.2529 12.0192C6.32472 11.9899 6.38995 11.9466 6.4448 11.8917C6.49965 11.8369 6.543 11.7716 6.57232 11.6998C6.60163 11.628 6.61633 11.5511 6.61554 11.4735C6.61475 11.396 6.5985 11.3193 6.56772 11.2481C6.53695 11.1769 6.49228 11.1126 6.43633 11.0589L1.99026 6.6128H13.4087C13.486 6.61389 13.5627 6.59962 13.6343 6.57081C13.706 6.542 13.7713 6.49923 13.8263 6.44499C13.8813 6.39075 13.925 6.32611 13.9548 6.25483C13.9846 6.18356 14 6.10707 14 6.02981C14 5.95255 13.9846 5.87605 13.9548 5.80478C13.925 5.73351 13.8813 5.66887 13.8263 5.61462C13.7713 5.56038 13.706 5.51761 13.6343 5.4888C13.5627 5.46 13.486 5.44572 13.4087 5.44682H1.99026L6.43633 1.00074C6.52044 0.918829 6.57786 0.813433 6.60108 0.698349C6.62429 0.583264 6.61222 0.463851 6.56645 0.355738C6.52068 0.247625 6.44334 0.155848 6.34454 0.0924184C6.24575 0.028989 6.13011 -0.00313814 6.01275 0.000241752Z" fill="black"/>
</svg>
