<svg width="14" height="15" viewBox="0 0 14 15" fill="none" xmlns="http://www.w3.org/2000/svg">
<path d="M11.2299 0.599976C10.5187 0.599976 9.80762 0.869419 9.2684 1.40864L7.29478 3.38226C6.36177 4.31526 6.28587 5.73946 6.96723 6.81133L6.21152 7.56704C5.13964 6.8856 3.71549 6.9608 2.78245 7.89383L0.808829 9.86745C-0.26961 10.9459 -0.26961 12.7128 0.808829 13.7912C1.88754 14.8695 3.65425 14.8696 4.73262 13.7912L6.70625 11.8176C7.63928 10.8846 7.71447 9.46044 7.03304 8.38856L7.78875 7.63285C8.86073 8.31408 10.2849 8.23825 11.2178 7.3053L13.1914 5.33168C14.2699 4.25324 14.2699 2.48708 13.1914 1.40864C12.6522 0.869419 11.9411 0.599976 11.2299 0.599976ZM11.2299 1.75434C11.6413 1.75434 12.0528 1.91304 12.3699 2.23016C13.0042 2.86441 13.0042 3.8759 12.3699 4.51015L10.3963 6.48378C9.90804 6.97203 9.2 7.0763 8.60876 6.81284L9.87811 5.54349C9.93387 5.48995 9.97838 5.42583 10.009 5.35488C10.0397 5.28393 10.0559 5.20757 10.0567 5.13028C10.0575 5.05299 10.0428 4.97632 10.0136 4.90476C9.98441 4.8332 9.94121 4.76818 9.88655 4.71353C9.83189 4.65887 9.76688 4.61567 9.69532 4.58645C9.62376 4.55724 9.54709 4.54259 9.4698 4.54338C9.39251 4.54416 9.31615 4.56036 9.2452 4.59103C9.17424 4.62169 9.11012 4.66621 9.05659 4.72196L7.78724 5.99132C7.52386 5.40018 7.62809 4.69199 8.1163 4.20378L10.0899 2.23016C10.407 1.91304 10.8185 1.75434 11.2299 1.75434ZM4.74473 8.24029C4.96649 8.24029 5.18451 8.29491 5.39151 8.38705L4.12291 9.65564C4.06716 9.70918 4.02264 9.7733 3.99198 9.84425C3.96131 9.9152 3.94511 9.99156 3.94433 10.0689C3.94354 10.1461 3.95818 10.2228 3.9874 10.2944C4.01662 10.3659 4.05982 10.4309 4.11447 10.4856C4.16913 10.5403 4.23414 10.5835 4.3057 10.6127C4.37726 10.6419 4.45394 10.6565 4.53123 10.6558C4.60852 10.655 4.68488 10.6388 4.75583 10.6081C4.82678 10.5774 4.8909 10.5329 4.94443 10.4772L6.21303 9.20857C6.4761 9.7996 6.37278 10.5073 5.88472 10.9953L3.91034 12.9697C3.27603 13.604 2.2651 13.6035 1.63035 12.969C0.996567 12.3347 0.996256 11.3238 1.63035 10.6897L3.60473 8.71535C3.92186 8.39823 4.3333 8.24029 4.74473 8.24029Z" fill="black"/>
</svg>
