<svg width="14" height="14" viewBox="0 0 14 14" fill="none" xmlns="http://www.w3.org/2000/svg">
<path d="M7 0C5.4598 0 4.2 1.2598 4.2 2.8V4.2H2.975C2.11138 4.2 1.4 4.91137 1.4 5.775V12.425C1.4 13.2886 2.11138 14 2.975 14H11.025C11.8886 14 12.6 13.2886 12.6 12.425V5.775C12.6 4.91137 11.8886 4.2 11.025 4.2H9.8V2.8C9.8 1.2598 8.54021 0 7 0ZM7 1.05C7.9728 1.05 8.75 1.8272 8.75 2.8V4.2H5.25V2.8C5.25 1.8272 6.02721 1.05 7 1.05ZM2.975 5.25H11.025C11.3213 5.25 11.55 5.47873 11.55 5.775V12.425C11.55 12.7213 11.3213 12.95 11.025 12.95H2.975C2.67873 12.95 2.45 12.7213 2.45 12.425V5.775C2.45 5.47873 2.67873 5.25 2.975 5.25ZM7 8.05C6.72152 8.05 6.45445 8.16062 6.25754 8.35754C6.06063 8.55445 5.95 8.82152 5.95 9.1C5.95 9.37848 6.06063 9.64555 6.25754 9.84246C6.45445 10.0394 6.72152 10.15 7 10.15C7.27848 10.15 7.54555 10.0394 7.74246 9.84246C7.93938 9.64555 8.05 9.37848 8.05 9.1C8.05 8.82152 7.93938 8.55445 7.74246 8.35754C7.54555 8.16062 7.27848 8.05 7 8.05Z" fill="black"/>
</svg>
