<svg width="14" height="14" viewBox="0 0 14 14" fill="none" xmlns="http://www.w3.org/2000/svg">
<path d="M2.275 1.40002C1.02482 1.40002 0 2.42485 0 3.67502V10.325C0 11.5752 1.02482 12.6 2.275 12.6H11.725C12.9752 12.6 14 11.5752 14 10.325V3.67502C14 2.42485 12.9752 1.40002 11.725 1.40002H2.275ZM2.275 2.45002H11.725C12.4075 2.45002 12.95 2.9925 12.95 3.67502V4.06194L7 7.27825L1.05 4.06194V3.67502C1.05 2.9925 1.59248 2.45002 2.275 2.45002ZM1.05 5.25549L6.75049 8.33713C6.82714 8.37853 6.91288 8.40021 7 8.40021C7.08712 8.40021 7.17286 8.37853 7.24951 8.33713L12.95 5.25549V10.325C12.95 11.0075 12.4075 11.55 11.725 11.55H2.275C1.59248 11.55 1.05 11.0075 1.05 10.325V5.25549Z" fill="black"/>
</svg>
