<svg width="14" height="15" viewBox="0 0 14 15" fill="none" xmlns="http://www.w3.org/2000/svg">
<path d="M1.75 0.599976C0.790416 0.599976 0 1.39039 0 2.34998V3.51664C0 4.47623 0.790416 5.26664 1.75 5.26664H4.86111C5.82069 5.26664 6.61111 4.47623 6.61111 3.51664V2.34998C6.61111 1.39039 5.82069 0.599976 4.86111 0.599976H1.75ZM9.13889 0.599976C8.17931 0.599976 7.38889 1.39039 7.38889 2.34998V7.40553C7.38889 8.36512 8.17931 9.15553 9.13889 9.15553H12.25C13.2096 9.15553 14 8.36512 14 7.40553V2.34998C14 1.39039 13.2096 0.599976 12.25 0.599976H9.13889ZM1.75 1.76664H4.86111C5.19031 1.76664 5.44444 2.02078 5.44444 2.34998V3.51664C5.44444 3.84584 5.19031 4.09998 4.86111 4.09998H1.75C1.42081 4.09998 1.16667 3.84584 1.16667 3.51664V2.34998C1.16667 2.02078 1.42081 1.76664 1.75 1.76664ZM9.13889 1.76664H12.25C12.5792 1.76664 12.8333 2.02078 12.8333 2.34998V7.40553C12.8333 7.73473 12.5792 7.98886 12.25 7.98886H9.13889C8.8097 7.98886 8.55556 7.73473 8.55556 7.40553V2.34998C8.55556 2.02078 8.8097 1.76664 9.13889 1.76664ZM1.75 6.04442C0.790416 6.04442 0 6.83484 0 7.79442V12.85C0 13.8096 0.790416 14.6 1.75 14.6H4.86111C5.82069 14.6 6.61111 13.8096 6.61111 12.85V7.79442C6.61111 6.83484 5.82069 6.04442 4.86111 6.04442H1.75ZM1.75 7.21109H4.86111C5.19031 7.21109 5.44444 7.46523 5.44444 7.79442V12.85C5.44444 13.1792 5.19031 13.4333 4.86111 13.4333H1.75C1.42081 13.4333 1.16667 13.1792 1.16667 12.85V7.79442C1.16667 7.46523 1.42081 7.21109 1.75 7.21109ZM9.13889 9.93331C8.17931 9.93331 7.38889 10.7237 7.38889 11.6833V12.85C7.38889 13.8096 8.17931 14.6 9.13889 14.6H12.25C13.2096 14.6 14 13.8096 14 12.85V11.6833C14 10.7237 13.2096 9.93331 12.25 9.93331H9.13889ZM9.13889 11.1H12.25C12.5792 11.1 12.8333 11.3541 12.8333 11.6833V12.85C12.8333 13.1792 12.5792 13.4333 12.25 13.4333H9.13889C8.8097 13.4333 8.55556 13.1792 8.55556 12.85V11.6833C8.55556 11.3541 8.8097 11.1 9.13889 11.1Z" fill="black"/>
</svg>
