<svg width="14" height="15" viewBox="0 0 14 15" fill="none" xmlns="http://www.w3.org/2000/svg">
<path d="M7 0.599976C3.1403 0.599976 0 3.74028 0 7.59998C0 11.4597 3.1403 14.6 7 14.6C9.7181 14.6 12.076 13.0431 13.2337 10.7746C13.2724 10.6987 13.2921 10.6146 13.2911 10.5294C13.29 10.4443 13.2683 10.3606 13.2277 10.2857C13.1871 10.2109 13.1289 10.147 13.0582 10.0996C12.9874 10.0522 12.9062 10.0227 12.8215 10.0137C9.7451 9.6874 7.35 7.09287 7.35 3.92498C7.35 3.01086 7.55496 2.14848 7.91533 1.36697C7.95096 1.28973 7.96729 1.20498 7.96291 1.12003C7.95854 1.03508 7.93359 0.952464 7.89021 0.879292C7.84683 0.80612 7.78632 0.744583 7.71389 0.699976C7.64146 0.655368 7.55928 0.629027 7.47441 0.623218C7.33472 0.613815 7.17701 0.599976 7 0.599976ZM6.70674 1.67937C6.46844 2.39001 6.3 3.13338 6.3 3.92498C6.3 7.33237 8.69454 10.1638 11.8863 10.8915C10.8185 12.4748 9.05735 13.55 7 13.55C3.7078 13.55 1.05 10.8922 1.05 7.59998C1.05 4.40825 3.55439 1.83483 6.70674 1.67937Z" fill="black"/>
</svg>
