<svg width="14" height="15" viewBox="0 0 14 15" fill="none" xmlns="http://www.w3.org/2000/svg">
<path d="M1.75 0.600098C0.790416 0.600098 0 1.39051 0 2.3501V12.8501C0 13.8097 0.790416 14.6001 1.75 14.6001H9.13889C9.29359 14.6001 9.44194 14.5386 9.55132 14.4292C9.55336 14.4272 9.55539 14.4252 9.5574 14.4231L13.8291 10.1514C13.9385 10.042 14 9.89369 14 9.73899V2.3501C14 1.39051 13.2096 0.600098 12.25 0.600098H1.75ZM1.75 1.76676H12.25C12.5792 1.76676 12.8333 2.0209 12.8333 2.3501V9.15565H10.3056C9.34597 9.15565 8.55556 9.94607 8.55556 10.9057V13.4334H1.75C1.42081 13.4334 1.16667 13.1793 1.16667 12.8501V2.3501C1.16667 2.0209 1.42081 1.76676 1.75 1.76676ZM3.69444 3.71045C3.61715 3.70936 3.5404 3.72364 3.46867 3.75246C3.39694 3.78129 3.33165 3.82408 3.2766 3.87836C3.22155 3.93263 3.17784 3.99731 3.148 4.06862C3.11817 4.13994 3.1028 4.21648 3.1028 4.29378C3.1028 4.37109 3.11817 4.44762 3.148 4.51894C3.17784 4.59026 3.22155 4.65493 3.2766 4.70921C3.33165 4.76349 3.39694 4.80628 3.46867 4.8351C3.5404 4.86393 3.61715 4.87821 3.69444 4.87712H10.3056C10.3829 4.87821 10.4596 4.86393 10.5313 4.8351C10.6031 4.80628 10.6683 4.76349 10.7234 4.70921C10.7784 4.65493 10.8222 4.59026 10.852 4.51894C10.8818 4.44762 10.8972 4.37109 10.8972 4.29378C10.8972 4.21648 10.8818 4.13994 10.852 4.06862C10.8222 3.99731 10.7784 3.93263 10.7234 3.87836C10.6683 3.82408 10.6031 3.78129 10.5313 3.75246C10.4596 3.72364 10.3829 3.70936 10.3056 3.71045H3.69444ZM3.69444 6.43267C3.61715 6.43158 3.5404 6.44586 3.46867 6.47468C3.39694 6.50351 3.33165 6.5463 3.2766 6.60058C3.22155 6.65485 3.17784 6.71953 3.148 6.79085C3.11817 6.86216 3.1028 6.9387 3.1028 7.01601C3.1028 7.09331 3.11817 7.16985 3.148 7.24116C3.17784 7.31248 3.22155 7.37716 3.2766 7.43143C3.33165 7.48571 3.39694 7.5285 3.46867 7.55733C3.5404 7.58615 3.61715 7.60043 3.69444 7.59934H8.75C8.8273 7.60043 8.90404 7.58615 8.97577 7.55733C9.04751 7.5285 9.11279 7.48571 9.16784 7.43143C9.22289 7.37716 9.26661 7.31248 9.29644 7.24116C9.32628 7.16985 9.34164 7.09331 9.34164 7.01601C9.34164 6.9387 9.32628 6.86216 9.29644 6.79085C9.26661 6.71953 9.22289 6.65485 9.16784 6.60058C9.11279 6.5463 9.04751 6.50351 8.97577 6.47468C8.90404 6.44586 8.8273 6.43158 8.75 6.43267H3.69444ZM10.3056 10.3223H12.0085L9.72222 12.6086V10.9057C9.72222 10.5765 9.97636 10.3223 10.3056 10.3223Z" fill="black"/>
</svg>
