<svg width="12" height="12" viewBox="0 0 12 12" fill="none" xmlns="http://www.w3.org/2000/svg">
<path opacity="0.35" d="M12 6C12 6.372 11.856 6.744 11.574 7.026L7.026 11.574C6.744 11.856 6.372 12 6 12C5.628 12 5.256 11.856 4.974 11.574L0.426 7.026C0.144 6.744 0 6.372 0 6C0 5.628 0.144 5.256 0.426 4.974L4.974 0.426C5.256 0.144 5.628 0 6 0C6.372 0 6.744 0.144 7.026 0.426L11.574 4.974C11.856 5.256 12 5.628 12 6Z" fill="#DEE2E6"/>
<path d="M3.594 6H0C0 6.372 0.144 6.744 0.426 7.026L4.974 11.574C5.256 11.856 5.628 12 6 12L3.75 6.816C3.648 6.552 3.594 6.276 3.594 6Z" fill="#DEE2E6"/>
<path d="M11.574 4.974L7.02599 0.426C6.74399 0.144 6.37199 0 5.99999 0L3.74999 5.184C3.64799 5.448 3.59399 5.724 3.59399 6H12C12 5.628 11.856 5.256 11.574 4.974Z" fill="#DEE2E6"/>
</svg>
