<svg width="14" height="14" viewBox="0 0 14 14" fill="none" xmlns="http://www.w3.org/2000/svg">
<path d="M6.99601 2.59998C3.69449 2.59998 0.785486 4.88834 0.0137446 7.88695C-0.0151121 7.99935 0.00186582 8.11862 0.0609434 8.21851C0.120021 8.31839 0.216359 8.39072 0.328764 8.41958C0.441169 8.44843 0.560434 8.43146 0.660321 8.37238C0.760208 8.3133 0.832535 8.21696 0.861392 8.10456C1.52639 5.52072 4.1026 3.47497 6.99601 3.47497C9.88943 3.47497 12.4738 5.52144 13.1386 8.10456C13.1675 8.21696 13.2398 8.3133 13.3397 8.37238C13.4396 8.43146 13.5588 8.44843 13.6712 8.41958C13.7836 8.39072 13.88 8.31839 13.9391 8.21851C13.9981 8.11862 14.0151 7.99935 13.9863 7.88695C13.2143 4.88762 10.2975 2.59998 6.99601 2.59998ZM7.00057 4.93328C5.4489 4.93328 4.18191 6.20027 4.18191 7.75194C4.18191 9.30361 5.4489 10.5712 7.00057 10.5712C8.55224 10.5712 9.81979 9.30361 9.81979 7.75194C9.81979 6.20027 8.55224 4.93328 7.00057 4.93328ZM7.00057 5.80828C8.07936 5.80828 8.9448 6.67315 8.9448 7.75194C8.9448 8.83073 8.07936 9.69618 7.00057 9.69618C5.92178 9.69618 5.0569 8.83073 5.0569 7.75194C5.0569 6.67315 5.92178 5.80828 7.00057 5.80828Z" fill="black"/>
</svg>
