<svg width="14" height="14" viewBox="0 0 14 14" fill="none" xmlns="http://www.w3.org/2000/svg">
<path d="M4.26811 0.833435C4.196 0.833433 4.12474 0.849026 4.05922 0.879145C3.9937 0.909264 3.93547 0.953197 3.88852 1.00793L2.50102 2.62852C2.44806 2.67557 2.40569 2.73333 2.37673 2.79799C2.34777 2.86264 2.33288 2.93271 2.33304 3.00356C2.33304 3.00442 2.33304 3.00529 2.33304 3.00616C2.33304 3.00703 2.33304 3.0079 2.33304 3.00876V5.16651L1.11353 3.67093C0.959178 3.48225 0.960767 3.20914 1.11678 3.02179L1.777 2.2294C1.82334 2.17372 1.88474 2.16422 1.91308 2.16689C1.93175 2.16722 1.96025 2.17501 1.98926 2.18968L2.59283 1.39208C2.40114 1.25373 2.17303 1.1708 1.93001 1.1668C1.57164 1.16013 1.23739 1.31501 1.0087 1.58936L0.349133 2.3811C-0.11291 2.93515 -0.116993 3.74345 0.338715 4.3025L1.66631 5.93026V11.3513C1.66631 12.358 2.49313 13.1848 3.49981 13.1848C3.50025 13.1848 3.50068 13.1848 3.50111 13.1848L10.5005 13.1679C11.5071 13.1679 12.334 12.3411 12.334 11.3344V5.92961L13.6609 4.3025C14.1166 3.74345 14.1122 2.93515 13.6505 2.3811L12.9909 1.58936C12.7622 1.31501 12.428 1.16013 12.0696 1.1668C11.8266 1.1708 11.5985 1.25373 11.4068 1.39208L12.0104 2.18968C12.0397 2.17501 12.0682 2.16722 12.0865 2.16689C12.1149 2.16422 12.1763 2.17372 12.2226 2.2294L12.8828 3.02179C13.0388 3.20914 13.0404 3.48225 12.8861 3.67093L11.6672 5.16521V3.00876C11.6672 3.00681 11.6672 3.00486 11.6672 3.0029C11.667 2.99508 11.6665 2.98727 11.6659 2.97947C11.6655 2.96772 11.6646 2.95599 11.6633 2.94431C11.6506 2.83262 11.6006 2.72849 11.5214 2.64871C11.5212 2.64849 11.5209 2.64827 11.5207 2.64805L10.2973 1.03137C10.2507 0.969863 10.1904 0.919987 10.1213 0.885648C10.0522 0.851308 9.97603 0.833438 9.89884 0.833435H4.26811ZM4.4986 1.83353H9.65012L10.1612 2.50872H3.91977L4.4986 1.83353ZM3.33313 3.50881H10.6671V5.16717H3.33313V3.50881ZM2.6664 6.16726H11.3339V11.3344C11.3339 11.8005 10.9666 12.1678 10.5005 12.1678C10.5 12.1678 10.4996 12.1678 10.4992 12.1678L3.49981 12.1847C3.03369 12.1847 2.6664 11.8174 2.6664 11.3513V6.16726ZM5.5 7.50071C5.43373 7.49978 5.36795 7.51202 5.30646 7.53673C5.24497 7.56144 5.189 7.59812 5.14181 7.64465C5.09462 7.69117 5.05715 7.74661 5.03157 7.80775C5.006 7.86888 4.99283 7.93449 4.99283 8.00076C4.99283 8.06703 5.006 8.13264 5.03157 8.19377C5.05715 8.2549 5.09462 8.31035 5.14181 8.35687C5.189 8.4034 5.24497 8.44008 5.30646 8.46479C5.36795 8.4895 5.43373 8.50174 5.5 8.50081H8.50027C8.56653 8.50174 8.63232 8.4895 8.69381 8.46479C8.7553 8.44008 8.81127 8.4034 8.85846 8.35687C8.90564 8.31035 8.94312 8.2549 8.96869 8.19377C8.99427 8.13264 9.00744 8.06703 9.00744 8.00076C9.00744 7.93449 8.99427 7.86888 8.96869 7.80775C8.94312 7.74661 8.90564 7.69117 8.85846 7.64465C8.81127 7.59812 8.7553 7.56144 8.69381 7.53673C8.63232 7.51202 8.56653 7.49978 8.50027 7.50071H5.5Z" fill="black"/>
</svg>
