<svg width="14" height="15" viewBox="0 0 14 15" fill="none" xmlns="http://www.w3.org/2000/svg">
<path d="M2.575 0.599976C1.71137 0.599976 1 1.31135 1 2.17498V13.025C1 13.8886 1.71137 14.6 2.575 14.6H10.625C11.4886 14.6 12.2 13.8886 12.2 13.025V2.17498C12.2 1.31135 11.4886 0.599976 10.625 0.599976H2.575ZM2.575 1.64998H10.625C10.9213 1.64998 11.15 1.8787 11.15 2.17498V13.025C11.15 13.3212 10.9213 13.55 10.625 13.55H2.575C2.27873 13.55 2.05 13.3212 2.05 13.025V2.17498C2.05 1.8787 2.27873 1.64998 2.575 1.64998ZM4.325 3.39998C4.25543 3.39899 4.18636 3.41184 4.1218 3.43779C4.05724 3.46373 3.99849 3.50224 3.94894 3.55109C3.8994 3.59994 3.86006 3.65815 3.8332 3.72233C3.80635 3.78652 3.79252 3.8554 3.79252 3.92498C3.79252 3.99455 3.80635 4.06343 3.8332 4.12762C3.86006 4.1918 3.8994 4.25001 3.94894 4.29886C3.99849 4.34771 4.05724 4.38622 4.1218 4.41216C4.18636 4.43811 4.25543 4.45096 4.325 4.44998H6.075C6.14457 4.45096 6.21364 4.43811 6.2782 4.41216C6.34276 4.38622 6.40151 4.34771 6.45106 4.29886C6.5006 4.25001 6.53994 4.1918 6.5668 4.12762C6.59365 4.06343 6.60748 3.99455 6.60748 3.92498C6.60748 3.8554 6.59365 3.78652 6.5668 3.72233C6.53994 3.65815 6.5006 3.59994 6.45106 3.55109C6.40151 3.50224 6.34276 3.46373 6.2782 3.43779C6.21364 3.41184 6.14457 3.39899 6.075 3.39998H4.325ZM4.325 6.54998C4.25543 6.54899 4.18636 6.56184 4.1218 6.58779C4.05724 6.61373 3.99849 6.65224 3.94894 6.70109C3.8994 6.74994 3.86006 6.80815 3.8332 6.87233C3.80635 6.93652 3.79252 7.0054 3.79252 7.07498C3.79252 7.14455 3.80635 7.21343 3.8332 7.27762C3.86006 7.3418 3.8994 7.40001 3.94894 7.44886C3.99849 7.49771 4.05724 7.53622 4.1218 7.56216C4.18636 7.58811 4.25543 7.60096 4.325 7.59998H8.875C8.94457 7.60096 9.01364 7.58811 9.0782 7.56216C9.14276 7.53622 9.20151 7.49771 9.25106 7.44886C9.3006 7.40001 9.33994 7.3418 9.3668 7.27762C9.39365 7.21343 9.40748 7.14455 9.40748 7.07498C9.40748 7.0054 9.39365 6.93652 9.3668 6.87233C9.33994 6.80815 9.3006 6.74994 9.25106 6.70109C9.20151 6.65224 9.14276 6.61373 9.0782 6.58779C9.01364 6.56184 8.94457 6.54899 8.875 6.54998H4.325ZM4.325 8.64998C4.25543 8.64899 4.18636 8.66184 4.1218 8.68779C4.05724 8.71373 3.99849 8.75224 3.94894 8.80109C3.8994 8.84994 3.86006 8.90815 3.8332 8.97233C3.80635 9.03652 3.79252 9.1054 3.79252 9.17498C3.79252 9.24455 3.80635 9.31343 3.8332 9.37762C3.86006 9.4418 3.8994 9.50001 3.94894 9.54886C3.99849 9.59771 4.05724 9.63622 4.1218 9.66216C4.18636 9.68811 4.25543 9.70096 4.325 9.69998H8.875C8.94457 9.70096 9.01364 9.68811 9.0782 9.66216C9.14276 9.63622 9.20151 9.59771 9.25106 9.54886C9.3006 9.50001 9.33994 9.4418 9.3668 9.37762C9.39365 9.31343 9.40748 9.24455 9.40748 9.17498C9.40748 9.1054 9.39365 9.03652 9.3668 8.97233C9.33994 8.90815 9.3006 8.84994 9.25106 8.80109C9.20151 8.75224 9.14276 8.71373 9.0782 8.68779C9.01364 8.66184 8.94457 8.64899 8.875 8.64998H4.325ZM4.325 10.75C4.25543 10.749 4.18636 10.7618 4.1218 10.7878C4.05724 10.8137 3.99849 10.8522 3.94894 10.9011C3.8994 10.9499 3.86006 11.0081 3.8332 11.0723C3.80635 11.1365 3.79252 11.2054 3.79252 11.275C3.79252 11.3446 3.80635 11.4134 3.8332 11.4776C3.86006 11.5418 3.8994 11.6 3.94894 11.6489C3.99849 11.6977 4.05724 11.7362 4.1218 11.7622C4.18636 11.7881 4.25543 11.801 4.325 11.8H7.475C7.54457 11.801 7.61364 11.7881 7.6782 11.7622C7.74276 11.7362 7.80151 11.6977 7.85106 11.6489C7.9006 11.6 7.93994 11.5418 7.9668 11.4776C7.99365 11.4134 8.00748 11.3446 8.00748 11.275C8.00748 11.2054 7.99365 11.1365 7.9668 11.0723C7.93994 11.0081 7.9006 10.9499 7.85106 10.9011C7.80151 10.8522 7.74276 10.8137 7.6782 10.7878C7.61364 10.7618 7.54457 10.749 7.475 10.75H4.325Z" fill="black"/>
</svg>
