<svg width="14" height="15" viewBox="0 0 14 15" fill="none" xmlns="http://www.w3.org/2000/svg">
<path d="M2.575 0.600098C1.71137 0.600098 1 1.31147 1 2.1751V13.0251C1 13.8887 1.71137 14.6001 2.575 14.6001H10.625C11.4886 14.6001 12.2 13.8887 12.2 13.0251V5.6751C12.2 5.53587 12.1446 5.40235 12.0462 5.30391L12.0407 5.29844L7.49619 0.753906C7.39775 0.65545 7.26423 0.600124 7.125 0.600098H2.575ZM2.575 1.6501H6.6V4.6251C6.6 5.48872 7.31137 6.2001 8.175 6.2001H11.15V13.0251C11.15 13.3214 10.9213 13.5501 10.625 13.5501H2.575C2.27873 13.5501 2.05 13.3214 2.05 13.0251V2.1751C2.05 1.87882 2.27873 1.6501 2.575 1.6501ZM7.65 2.39248L10.4076 5.1501H8.175C7.87873 5.1501 7.65 4.92137 7.65 4.6251V2.39248ZM6.075 6.5501C5.59583 6.5501 5.2 6.94593 5.2 7.4251C5.2 8.03495 5.51113 8.69442 5.91846 9.32617C5.81262 9.66974 5.69773 10.006 5.56299 10.3092C5.55973 10.3104 5.55529 10.3113 5.55205 10.3126C4.6663 10.6519 4.04241 11.042 3.71455 11.3482C3.52912 11.522 3.45 11.7575 3.45 11.9751C3.45 12.1982 3.53679 12.4242 3.70635 12.5938C3.87591 12.7633 4.10188 12.8501 4.325 12.8501C4.56756 12.8501 4.76701 12.7399 4.91699 12.6184C5.10104 12.4688 5.28074 12.2413 5.49326 11.9225C5.67798 11.6453 5.87499 11.2805 6.06475 10.8909C6.36745 10.7855 6.68854 10.6871 7.04434 10.6093C7.59723 11.0769 8.2024 11.4501 8.875 11.4501C9.35417 11.4501 9.75 11.0543 9.75 10.5751C9.75 10.0959 9.35417 9.7001 8.875 9.7001C8.29362 9.7001 7.75788 9.76928 7.24941 9.86006C7.13074 9.74681 6.9978 9.67194 6.88916 9.54355C6.80793 9.44756 6.76624 9.33754 6.69297 9.23594C6.84746 8.65975 6.95 8.04978 6.95 7.4251C6.95 6.94593 6.55417 6.5501 6.075 6.5501ZM6.075 7.2501C6.17543 7.2501 6.25 7.32467 6.25 7.4251C6.25 7.7116 6.17638 7.99247 6.13311 8.27754C6.00301 7.96103 5.9 7.65073 5.9 7.4251C5.9 7.32467 5.97457 7.2501 6.075 7.2501ZM6.40312 10.0392C6.4103 10.0475 6.41983 10.0528 6.42705 10.061C6.41496 10.0644 6.40353 10.0679 6.3915 10.0713C6.39554 10.0607 6.39911 10.0498 6.40312 10.0392ZM8.875 10.4001C8.97543 10.4001 9.05 10.4747 9.05 10.5751C9.05 10.6755 8.97543 10.7501 8.875 10.7501C8.62945 10.7501 8.35148 10.6197 8.07656 10.4787C8.34416 10.4527 8.58968 10.4001 8.875 10.4001ZM5.01816 11.3394C4.98285 11.3959 4.94416 11.4832 4.91016 11.5342C4.71954 11.8202 4.53774 12.0242 4.47539 12.0749C4.40067 12.1352 4.3511 12.1501 4.325 12.1501C4.27932 12.1501 4.23681 12.1344 4.20127 12.0988C4.16573 12.0633 4.15 12.0208 4.15 11.9751C4.15 11.9243 4.16673 11.884 4.19238 11.8596L4.19307 11.8589C4.32207 11.7385 4.63383 11.5442 5.01816 11.3394Z" fill="black"/>
</svg>
