<svg width="14" height="15" viewBox="0 0 14 15" fill="none" xmlns="http://www.w3.org/2000/svg">
<path d="M11.4239 0.599976C10.7625 0.599976 10.1012 0.850712 9.59997 1.35215L8.19208 2.76004C8.14173 2.79566 8.0977 2.83945 8.0618 2.8896L1.44269 9.50871C1.28791 9.66349 1.17456 9.85596 1.11447 10.0673L0.0211188 13.8958C-0.00584526 13.9905 -0.00700993 14.0907 0.0177454 14.1861C0.0425007 14.2814 0.092277 14.3684 0.161925 14.438C0.231574 14.5077 0.318565 14.5575 0.413902 14.5822C0.509238 14.607 0.609456 14.6058 0.704192 14.5789L4.53343 13.4855C4.53367 13.4853 4.53391 13.485 4.53415 13.4848C4.74404 13.4245 4.93604 13.3125 5.09126 13.1573L11.6967 6.55113C11.7584 6.51024 11.8113 6.45737 11.8522 6.39566L13.2478 5C14.2506 3.99719 14.2506 2.35496 13.2478 1.35215C12.7466 0.850712 12.0853 0.599976 11.4239 0.599976ZM11.4239 1.69908C11.8001 1.69908 12.1758 1.84404 12.4654 2.13383C12.4657 2.13383 12.4659 2.13383 12.4661 2.13383C13.0465 2.71422 13.0465 3.63793 12.4661 4.21832L11.3829 5.30159L9.29838 3.2171L10.3817 2.13383C10.6713 1.84404 11.0477 1.69908 11.4239 1.69908ZM8.5167 3.99878L10.6012 6.08327L4.30886 12.3756C4.28725 12.3971 4.25989 12.4135 4.22896 12.4224L3.86619 12.526L2.07394 10.7338L2.17758 10.3703C2.17758 10.3701 2.17758 10.3698 2.17758 10.3696C2.18604 10.3399 2.20151 10.3133 2.22437 10.2904L8.5167 3.99878ZM1.72628 11.9495L2.65048 12.8737L1.35703 13.2429L1.72628 11.9495Z" fill="black"/>
</svg>
