<svg width="14" height="14" viewBox="0 0 14 14" fill="none" xmlns="http://www.w3.org/2000/svg">
<path d="M1.83333 1.6001C0.826742 1.6001 0 2.42684 0 3.43343V11.1001C0 12.1067 0.826742 12.9334 1.83333 12.9334H12.1667C13.1733 12.9334 14 12.1067 14 11.1001V3.43343C14 2.42684 13.1733 1.6001 12.1667 1.6001H1.83333ZM1.83333 2.6001H12.1667C12.6327 2.6001 13 2.96736 13 3.43343V11.1001C13 11.5662 12.6327 11.9334 12.1667 11.9334H1.83333C1.36726 11.9334 1 11.5662 1 11.1001V3.43343C1 2.96736 1.36726 2.6001 1.83333 2.6001ZM9.1569 4.59554C9.02705 4.59932 8.90376 4.65349 8.81315 4.74658L4.47982 9.07992C4.43183 9.12599 4.39352 9.18117 4.36713 9.24224C4.34074 9.3033 4.3268 9.36902 4.32612 9.43554C4.32544 9.50206 4.33805 9.56804 4.36319 9.62963C4.38834 9.69122 4.42552 9.74717 4.47256 9.79421C4.51959 9.84125 4.57555 9.87843 4.63713 9.90357C4.69872 9.92872 4.76471 9.94132 4.83123 9.94064C4.89775 9.93997 4.96346 9.92603 5.02453 9.89963C5.08559 9.87324 5.14078 9.83493 5.18685 9.78695L9.52018 5.45361C9.59232 5.38336 9.64156 5.29297 9.66147 5.19427C9.68138 5.09557 9.67103 4.99315 9.63178 4.90043C9.59252 4.80771 9.52619 4.72899 9.44146 4.67459C9.35673 4.62019 9.25755 4.59264 9.1569 4.59554ZM5.16667 4.6001C4.94565 4.6001 4.73369 4.68789 4.57741 4.84418C4.42113 5.00046 4.33333 5.21242 4.33333 5.43343C4.33333 5.65444 4.42113 5.86641 4.57741 6.02269C4.73369 6.17897 4.94565 6.26676 5.16667 6.26676C5.38768 6.26676 5.59964 6.17897 5.75592 6.02269C5.9122 5.86641 6 5.65444 6 5.43343C6 5.21242 5.9122 5.00046 5.75592 4.84418C5.59964 4.68789 5.38768 4.6001 5.16667 4.6001ZM8.83333 8.26676C8.61232 8.26676 8.40036 8.35456 8.24408 8.51084C8.0878 8.66712 8 8.87908 8 9.1001C8 9.32111 8.0878 9.53307 8.24408 9.68935C8.40036 9.84563 8.61232 9.93343 8.83333 9.93343C9.05435 9.93343 9.26631 9.84563 9.42259 9.68935C9.57887 9.53307 9.66667 9.32111 9.66667 9.1001C9.66667 8.87908 9.57887 8.66712 9.42259 8.51084C9.26631 8.35456 9.05435 8.26676 8.83333 8.26676Z" fill="black"/>
</svg>
