<svg width="14" height="14" viewBox="0 0 14 14" fill="none" xmlns="http://www.w3.org/2000/svg">
<path d="M10.9284 1.74542C10.8648 1.74736 10.8024 1.76315 10.7455 1.79168C10.6887 1.82021 10.6387 1.8608 10.5991 1.91062L2.72412 11.5356C2.68506 11.5797 2.6553 11.6312 2.63663 11.6871C2.61796 11.743 2.61076 11.802 2.61547 11.8608C2.62018 11.9195 2.6367 11.9766 2.66403 12.0288C2.69137 12.081 2.72896 12.1271 2.77455 12.1644C2.82014 12.2017 2.87279 12.2294 2.92935 12.2459C2.98591 12.2624 3.04521 12.2672 3.1037 12.2602C3.16218 12.2532 3.21865 12.2344 3.26972 12.2051C3.32078 12.1757 3.36539 12.1364 3.40088 12.0893L11.2759 2.46433C11.3302 2.39973 11.3646 2.32081 11.3751 2.23707C11.3856 2.15333 11.3716 2.06835 11.3349 1.99237C11.2982 1.91639 11.2402 1.85265 11.1681 1.80883C11.096 1.76502 11.0127 1.743 10.9284 1.74542ZM3.9375 2.04164C2.89608 2.04164 2.04166 2.89606 2.04166 3.93748V5.10414C2.04166 6.14556 2.89608 6.99998 3.9375 6.99998C4.97891 6.99998 5.83333 6.14556 5.83333 5.10414V3.93748C5.83333 2.89606 4.97891 2.04164 3.9375 2.04164ZM3.9375 2.91664C4.50433 2.91664 4.95833 3.37064 4.95833 3.93748V5.10414C4.95833 5.67098 4.50433 6.12498 3.9375 6.12498C3.37066 6.12498 2.91666 5.67098 2.91666 5.10414V3.93748C2.91666 3.37064 3.37066 2.91664 3.9375 2.91664ZM10.0625 6.99998C9.02108 6.99998 8.16666 7.8544 8.16666 8.89581V10.0625C8.16666 11.1039 9.02108 11.9583 10.0625 11.9583C11.1039 11.9583 11.9583 11.1039 11.9583 10.0625V8.89581C11.9583 7.8544 11.1039 6.99998 10.0625 6.99998ZM10.0625 7.87498C10.6293 7.87498 11.0833 8.32898 11.0833 8.89581V10.0625C11.0833 10.6293 10.6293 11.0833 10.0625 11.0833C9.49566 11.0833 9.04166 10.6293 9.04166 10.0625V8.89581C9.04166 8.32898 9.49566 7.87498 10.0625 7.87498Z" fill="black"/>
</svg>
