<svg width="14" height="15" viewBox="0 0 14 15" fill="none" xmlns="http://www.w3.org/2000/svg">
<path d="M6.99138 0.600043C6.8451 0.602328 6.70571 0.66258 6.60383 0.767565C6.50194 0.872549 6.44589 1.01368 6.44799 1.15996V7.04808H0.559873C0.486725 7.04704 0.414101 7.06056 0.346221 7.08783C0.278341 7.11511 0.21656 7.15561 0.164466 7.20697C0.112373 7.25833 0.0710078 7.31953 0.0427737 7.38702C0.0145396 7.45451 0 7.52693 0 7.60009C0 7.67324 0.0145396 7.74567 0.0427737 7.81316C0.0710078 7.88064 0.112373 7.94185 0.164466 7.99321C0.21656 8.04457 0.278341 8.08507 0.346221 8.11234C0.414101 8.13962 0.486725 8.15313 0.559873 8.1521H6.44799V14.0402C6.44696 14.1134 6.46047 14.186 6.48775 14.2539C6.51502 14.3217 6.55552 14.3835 6.60688 14.4356C6.65824 14.4877 6.71944 14.5291 6.78693 14.5573C6.85442 14.5855 6.92685 14.6001 7 14.6001C7.07316 14.6001 7.14558 14.5855 7.21307 14.5573C7.28056 14.5291 7.34176 14.4877 7.39312 14.4356C7.44448 14.3835 7.48498 14.3217 7.51226 14.2539C7.53953 14.186 7.55305 14.1134 7.55201 14.0402V8.1521H13.4401C13.5133 8.15313 13.5859 8.13962 13.6538 8.11234C13.7217 8.08507 13.7834 8.04457 13.8355 7.99321C13.8876 7.94185 13.929 7.88064 13.9572 7.81316C13.9855 7.74567 14 7.67324 14 7.60009C14 7.52693 13.9855 7.45451 13.9572 7.38702C13.929 7.31953 13.8876 7.25833 13.8355 7.20697C13.7834 7.15561 13.7217 7.11511 13.6538 7.08783C13.5859 7.06056 13.5133 7.04704 13.4401 7.04808H7.55201V1.15996C7.55307 1.08608 7.53929 1.01273 7.51148 0.944275C7.48367 0.875816 7.4424 0.813637 7.39012 0.761422C7.33784 0.709207 7.27561 0.668018 7.20711 0.640297C7.13862 0.612577 7.06526 0.598888 6.99138 0.600043Z" fill="black"/>
</svg>
