<svg width="14" height="15" viewBox="0 0 14 15" fill="none" xmlns="http://www.w3.org/2000/svg">
<path d="M2.91474 0.60004C2.77577 0.602211 2.64334 0.659453 2.54655 0.759193C2.44975 0.858933 2.3965 0.993014 2.3985 1.13199V8.05686C2.03517 8.1544 1.70613 8.31082 1.4821 8.56286C1.1529 8.93321 1 9.40642 1 9.87258C1 10.3387 1.1529 10.812 1.4821 11.1823C1.70613 11.4343 2.03517 11.5908 2.3985 11.6883V14.0681C2.39751 14.1376 2.41035 14.2066 2.43627 14.2711C2.46218 14.3355 2.50065 14.3942 2.54945 14.4437C2.59825 14.4932 2.65639 14.5325 2.72051 14.5593C2.78462 14.5862 2.85343 14.6 2.92293 14.6C2.99243 14.6 3.06124 14.5862 3.12536 14.5593C3.18947 14.5325 3.24762 14.4932 3.29641 14.4437C3.34521 14.3942 3.38368 14.3355 3.4096 14.2711C3.43551 14.2066 3.44835 14.1376 3.44737 14.0681V11.6883C3.81069 11.5908 4.13973 11.4343 4.36376 11.1823C4.69296 10.812 4.84586 10.3387 4.84586 9.87258C4.84586 9.40642 4.69296 8.93321 4.36376 8.56286C4.13973 8.31082 3.81069 8.1544 3.44737 8.05686V1.13199C3.44837 1.06179 3.43528 0.992114 3.40886 0.927075C3.38244 0.862037 3.34323 0.802964 3.29356 0.753357C3.24389 0.70375 3.18477 0.664619 3.1197 0.638283C3.05463 0.611947 2.98493 0.598943 2.91474 0.60004ZM7.28504 0.60004C7.14607 0.602211 7.01364 0.659453 6.91684 0.759193C6.82005 0.858933 6.7668 0.993014 6.76879 1.13199V2.8125C6.40547 2.91004 6.07643 3.06646 5.8524 3.3185C5.5232 3.68885 5.3703 4.16206 5.3703 4.62823C5.3703 5.09439 5.5232 5.5676 5.8524 5.93795C6.07643 6.18999 6.40547 6.34641 6.76879 6.44395V14.0681C6.76781 14.1376 6.78065 14.2066 6.80656 14.2711C6.83248 14.3355 6.87095 14.3942 6.91975 14.4437C6.96854 14.4932 7.02669 14.5325 7.09081 14.5593C7.15492 14.5862 7.22373 14.6 7.29323 14.6C7.36273 14.6 7.43154 14.5862 7.49566 14.5593C7.55977 14.5325 7.61792 14.4932 7.66671 14.4437C7.71551 14.3942 7.75398 14.3355 7.7799 14.2711C7.80581 14.2066 7.81865 14.1376 7.81767 14.0681V6.44395C8.18099 6.34641 8.51003 6.18999 8.73406 5.93795C9.06326 5.5676 9.21616 5.09439 9.21616 4.62823C9.21616 4.16206 9.06326 3.68885 8.73406 3.3185C8.51003 3.06646 8.18099 2.91004 7.81767 2.8125V1.13199C7.81867 1.06179 7.80558 0.992114 7.77916 0.927075C7.75274 0.862037 7.71353 0.802964 7.66386 0.753357C7.61419 0.70375 7.55507 0.664619 7.49 0.638283C7.42492 0.611947 7.35523 0.598943 7.28504 0.60004ZM11.6553 0.60004C11.5164 0.602211 11.3839 0.659453 11.2871 0.759193C11.1903 0.858933 11.1371 0.993014 11.1391 1.13199V8.75611C10.7758 8.85365 10.4467 9.01007 10.2227 9.26211C9.8935 9.63245 9.7406 10.1057 9.7406 10.5718C9.7406 11.038 9.8935 11.5112 10.2227 11.8816C10.4467 12.1336 10.7758 12.29 11.1391 12.3876V14.0681C11.1381 14.1376 11.1509 14.2066 11.1769 14.2711C11.2028 14.3355 11.2413 14.3942 11.29 14.4437C11.3388 14.4932 11.397 14.5325 11.4611 14.5593C11.5252 14.5862 11.594 14.6 11.6635 14.6C11.733 14.6 11.8018 14.5862 11.866 14.5593C11.9301 14.5325 11.9882 14.4932 12.037 14.4437C12.0858 14.3942 12.1243 14.3355 12.1502 14.2711C12.1761 14.2066 12.1889 14.1376 12.188 14.0681V12.3876C12.5513 12.29 12.8803 12.1336 13.1044 11.8816C13.4336 11.5112 13.5865 11.038 13.5865 10.5718C13.5865 10.1057 13.4336 9.63245 13.1044 9.26211C12.8803 9.01007 12.5513 8.85365 12.188 8.75611V1.13199C12.189 1.06179 12.1759 0.992114 12.1495 0.927075C12.123 0.862037 12.0838 0.802964 12.0342 0.753357C11.9845 0.70375 11.9254 0.664619 11.8603 0.638283C11.7952 0.611947 11.7255 0.598943 11.6553 0.60004ZM7.26045 3.76031C7.28228 3.76168 7.30418 3.76168 7.32601 3.76031C7.63584 3.76857 7.81875 3.86721 7.95014 4.01502C8.08711 4.16911 8.16729 4.39514 8.16729 4.62823C8.16729 4.86131 8.08711 5.08734 7.95014 5.24143C7.81317 5.39552 7.62829 5.50229 7.29323 5.50229C6.95817 5.50229 6.77329 5.39552 6.63632 5.24143C6.49935 5.08734 6.41917 4.86131 6.41917 4.62823C6.41917 4.39514 6.49935 4.16911 6.63632 4.01502C6.76771 3.86721 6.95062 3.76857 7.26045 3.76031ZM2.89015 9.00467C2.91198 9.00604 2.93388 9.00604 2.95571 9.00467C3.26554 9.01293 3.44845 9.11156 3.57984 9.25938C3.71681 9.41347 3.79699 9.6395 3.79699 9.87258C3.79699 10.1057 3.71681 10.3317 3.57984 10.4858C3.44845 10.6336 3.26554 10.7322 2.95571 10.7405C2.93388 10.7391 2.91198 10.7391 2.89015 10.7405C2.58032 10.7322 2.39741 10.6336 2.26602 10.4858C2.12905 10.3317 2.04887 10.1057 2.04887 9.87258C2.04887 9.6395 2.12905 9.41347 2.26602 9.25938C2.39741 9.11156 2.58032 9.01293 2.89015 9.00467ZM11.6308 9.70392C11.6526 9.70529 11.6745 9.70529 11.6963 9.70392C12.0061 9.71218 12.1891 9.81081 12.3204 9.95862C12.4574 10.1127 12.5376 10.3387 12.5376 10.5718C12.5376 10.8049 12.4574 11.031 12.3204 11.185C12.1891 11.3329 12.0061 11.4315 11.6963 11.4397C11.6745 11.4384 11.6526 11.4384 11.6308 11.4397C11.3209 11.4315 11.138 11.3329 11.0066 11.185C10.8696 11.031 10.7895 10.8049 10.7895 10.5718C10.7895 10.3387 10.8696 10.1127 11.0066 9.95862C11.138 9.81081 11.3209 9.71218 11.6308 9.70392Z" fill="black"/>
</svg>
