<svg width="14" height="15" viewBox="0 0 14 15" fill="none" xmlns="http://www.w3.org/2000/svg">
<path d="M1.65789 0.599976C0.748815 0.599976 0 1.34879 0 2.25787V12.9421C0.000722259 12.9703 0.00360901 12.9985 0.00863487 13.0263C0.0539754 13.8962 0.777596 14.6 1.65789 14.6H12.3421C13.2512 14.6 14 13.8512 14 12.9421V4.4684C14 3.55932 13.2512 2.8105 12.3421 2.8105H3.31579V1.52103C3.31579 1.01865 2.89711 0.599976 2.39474 0.599976H1.65789ZM1.65789 1.70524H2.21053V3.27247C2.20078 3.33179 2.20078 3.39231 2.21053 3.45164V11.2842H1.65789C1.46241 11.2842 1.28007 11.3338 1.10526 11.3972V2.25787C1.10526 1.946 1.34603 1.70524 1.65789 1.70524ZM3.31579 3.91577H12.3421C12.654 3.91577 12.8947 4.15653 12.8947 4.4684V12.9421C12.8947 13.2539 12.654 13.4947 12.3421 13.4947H1.65789C1.34603 13.4947 1.10526 13.2539 1.10526 12.9421C1.10526 12.6302 1.34603 12.3894 1.65789 12.3894H2.39474C2.89711 12.3894 3.31579 11.9708 3.31579 11.4684V3.91577ZM11.226 5.75283C11.2063 5.75346 11.1866 5.75514 11.167 5.75787H9.76316C9.68993 5.75683 9.61722 5.77036 9.54927 5.79767C9.48131 5.82498 9.41946 5.86552 9.36731 5.91694C9.31516 5.96836 9.27374 6.02963 9.24548 6.09719C9.21721 6.16476 9.20265 6.23726 9.20265 6.3105C9.20265 6.38374 9.21721 6.45625 9.24548 6.52381C9.27374 6.59137 9.31516 6.65264 9.36731 6.70406C9.41946 6.75548 9.48131 6.79602 9.54927 6.82333C9.61722 6.85064 9.68993 6.86417 9.76316 6.86313H9.90275L8.6579 8.10799L7.20652 6.65662C7.10287 6.55302 6.96233 6.49482 6.81579 6.49482C6.66925 6.49482 6.5287 6.55302 6.42506 6.65662L4.58296 8.49872C4.52992 8.54964 4.48758 8.61064 4.45841 8.67813C4.42924 8.74562 4.41383 8.81825 4.41308 8.89178C4.41233 8.9653 4.42626 9.03823 4.45405 9.1063C4.48185 9.17437 4.52294 9.23621 4.57493 9.2882C4.62692 9.34019 4.68876 9.38129 4.75683 9.40908C4.8249 9.43687 4.89784 9.4508 4.97136 9.45005C5.04488 9.44931 5.11751 9.4339 5.185 9.40473C5.2525 9.37556 5.31349 9.33321 5.36441 9.28018L6.81579 7.8288L8.26717 9.28018C8.37081 9.38378 8.51135 9.44197 8.6579 9.44197C8.80444 9.44197 8.94498 9.38378 9.04862 9.28018L10.6842 7.64459V7.78419C10.6832 7.85742 10.6967 7.93012 10.724 7.99808C10.7513 8.06603 10.7919 8.12789 10.8433 8.18004C10.8947 8.23219 10.956 8.2736 11.0235 8.30187C11.0911 8.33013 11.1636 8.34469 11.2368 8.34469C11.3101 8.34469 11.3826 8.33013 11.4502 8.30187C11.5177 8.2736 11.579 8.23219 11.6304 8.18004C11.6818 8.12789 11.7224 8.06603 11.7497 7.99808C11.777 7.93012 11.7905 7.85742 11.7895 7.78419V6.37454C11.7995 6.29547 11.7922 6.21518 11.7683 6.13917C11.7443 6.06316 11.7042 5.99323 11.6507 5.93417C11.5972 5.87512 11.5315 5.82834 11.4582 5.79704C11.3849 5.76574 11.3057 5.75066 11.226 5.75283ZM4.97368 10.5473C4.90045 10.5463 4.82775 10.5598 4.75979 10.5871C4.69184 10.6145 4.62998 10.655 4.57783 10.7064C4.52568 10.7578 4.48427 10.8191 4.456 10.8867C4.42774 10.9542 4.41318 11.0267 4.41318 11.1C4.41318 11.1732 4.42774 11.2457 4.456 11.3133C4.48427 11.3808 4.52568 11.4421 4.57783 11.4935C4.62998 11.545 4.69184 11.5855 4.75979 11.6128C4.82775 11.6401 4.90045 11.6536 4.97368 11.6526H11.2368C11.3101 11.6536 11.3828 11.6401 11.4507 11.6128C11.5187 11.5855 11.5805 11.545 11.6327 11.4935C11.6848 11.4421 11.7263 11.3808 11.7545 11.3133C11.7828 11.2457 11.7973 11.1732 11.7973 11.1C11.7973 11.0267 11.7828 10.9542 11.7545 10.8867C11.7263 10.8191 11.6848 10.7578 11.6327 10.7064C11.5805 10.655 11.5187 10.6145 11.4507 10.5871C11.3828 10.5598 11.3101 10.5463 11.2368 10.5473H4.97368Z" fill="black"/>
</svg>
