<svg width="14" height="15" viewBox="0 0 14 15" fill="none" xmlns="http://www.w3.org/2000/svg">
<path d="M10.6596 0.600098C10.5552 0.600123 10.4532 0.631291 10.3666 0.689614C10.28 0.747938 10.2128 0.830763 10.1736 0.927494C10.1344 1.02422 10.1249 1.13046 10.1464 1.23261C10.1679 1.33476 10.2193 1.42818 10.2942 1.50092L11.4969 2.7036H1.9232C0.863694 2.7036 0 3.5673 0 4.62681V10.2708L1.04902 9.22174V4.62681C1.04902 4.14426 1.44066 3.75262 1.9232 3.75262H11.4969L10.2942 4.95531C10.2439 5.00364 10.2037 5.06153 10.176 5.12559C10.1483 5.18965 10.1337 5.25858 10.133 5.32836C10.1323 5.39814 10.1455 5.46736 10.1719 5.53197C10.1982 5.59658 10.2372 5.65527 10.2866 5.70462C10.3359 5.75396 10.3946 5.79297 10.4592 5.81934C10.5238 5.84572 10.5931 5.85894 10.6628 5.85823C10.7326 5.85752 10.8016 5.8429 10.8656 5.81521C10.9297 5.78753 10.9876 5.74734 11.0359 5.697L13.1339 3.59896C13.2323 3.50059 13.2875 3.3672 13.2875 3.22811C13.2875 3.08903 13.2323 2.95564 13.1339 2.85727L11.0359 0.759226C10.987 0.708878 10.9285 0.668852 10.8639 0.641519C10.7992 0.614186 10.7298 0.6001 10.6596 0.600098ZM13.2876 4.92731L12.2386 5.97633V10.5713C12.2386 11.0538 11.8469 11.4454 11.3644 11.4454H1.79071L2.9934 10.2428C3.06907 10.1691 3.12073 10.0742 3.14161 9.9707C3.1625 9.86716 3.15164 9.75972 3.11046 9.66246C3.06928 9.56519 2.9997 9.48262 2.91081 9.42555C2.82193 9.36848 2.71789 9.33958 2.61231 9.34262C2.47609 9.34659 2.34676 9.40342 2.25171 9.50107L0.153665 11.5991C0.0553374 11.6975 0.000100876 11.8309 0.000100876 11.97C0.000100876 12.109 0.0553374 12.2424 0.153665 12.3408L2.25171 14.4388C2.30004 14.4892 2.35793 14.5294 2.42198 14.5571C2.48604 14.5847 2.55498 14.5994 2.62476 14.6001C2.69454 14.6008 2.76376 14.5876 2.82837 14.5612C2.89298 14.5348 2.95167 14.4958 3.00101 14.4465C3.05036 14.3971 3.08936 14.3384 3.11574 14.2738C3.14212 14.2092 3.15534 14.14 3.15463 14.0702C3.15392 14.0004 3.13929 13.9315 3.11161 13.8674C3.08392 13.8034 3.04374 13.7455 2.9934 13.6971L1.79071 12.4945H11.3644C12.4239 12.4945 13.2876 11.6308 13.2876 10.5713V4.92731Z" fill="black"/>
</svg>
