<svg width="14" height="15" viewBox="0 0 14 15" fill="none" xmlns="http://www.w3.org/2000/svg">
<path d="M1.28883 0.599976C0.583674 0.599976 0 1.18365 0 1.88881V8.14886C0 8.85402 0.583674 9.43769 1.28883 9.43769H12.7042C13.4094 9.43769 13.9931 8.85402 13.9931 8.14886V1.88881C13.9931 1.18365 13.4094 0.599976 12.7042 0.599976H1.28883ZM2.20943 1.70469H11.7836C11.7836 2.31597 12.2771 2.80941 12.8883 2.80941V7.22826C12.2771 7.22826 11.7836 7.7217 11.7836 8.33298H2.20943C2.20943 7.7217 1.71599 7.22826 1.10471 7.22826V2.80941C1.71599 2.80941 2.20943 2.31597 2.20943 1.70469ZM6.99653 2.44117C6.27539 2.44117 5.66912 2.80355 5.30709 3.30135C4.94506 3.79914 4.7871 4.41208 4.7871 5.01883C4.7871 5.62559 4.94506 6.23853 5.30709 6.73632C5.66912 7.23412 6.27539 7.5965 6.99653 7.5965C7.71766 7.5965 8.32393 7.23412 8.68596 6.73632C9.048 6.23853 9.20596 5.62559 9.20596 5.01883C9.20596 4.41208 9.048 3.79914 8.68596 3.30135C8.32393 2.80355 7.71766 2.44117 6.99653 2.44117ZM6.99653 3.54588C7.38011 3.54588 7.60237 3.68982 7.7927 3.95152C7.98302 4.21321 8.10124 4.61294 8.10124 5.01883C8.10124 5.42473 7.98302 5.82445 7.7927 6.08615C7.60237 6.34785 7.38011 6.49179 6.99653 6.49179C6.61295 6.49179 6.39068 6.34785 6.20036 6.08615C6.01003 5.82445 5.89181 5.42473 5.89181 5.01883C5.89181 4.61294 6.01003 4.21321 6.20036 3.95152C6.39068 3.68982 6.61295 3.54588 6.99653 3.54588ZM2.57767 4.28236C2.38234 4.28236 2.19502 4.35995 2.0569 4.49807C1.91878 4.63618 1.84119 4.82351 1.84119 5.01883C1.84119 5.21416 1.91878 5.40149 2.0569 5.5396C2.19502 5.67772 2.38234 5.75531 2.57767 5.75531C2.77299 5.75531 2.96032 5.67772 3.09844 5.5396C3.23655 5.40149 3.31414 5.21416 3.31414 5.01883C3.31414 4.82351 3.23655 4.63618 3.09844 4.49807C2.96032 4.35995 2.77299 4.28236 2.57767 4.28236ZM11.4154 4.28236C11.2201 4.28236 11.0327 4.35995 10.8946 4.49807C10.7565 4.63618 10.6789 4.82351 10.6789 5.01883C10.6789 5.21416 10.7565 5.40149 10.8946 5.5396C11.0327 5.67772 11.2201 5.75531 11.4154 5.75531C11.6107 5.75531 11.798 5.67772 11.9362 5.5396C12.0743 5.40149 12.1519 5.21416 12.1519 5.01883C12.1519 4.82351 12.0743 4.63618 11.9362 4.49807C11.798 4.35995 11.6107 4.28236 11.4154 4.28236ZM6.9879 10.1663C6.84153 10.1685 6.70205 10.2288 6.6001 10.3339C6.49815 10.4389 6.44207 10.5802 6.44417 10.7265V12.7072L5.91411 12.1772C5.86321 12.1242 5.80225 12.0819 5.73479 12.0527C5.66733 12.0235 5.59473 12.0081 5.52125 12.0074C5.44776 12.0066 5.37487 12.0206 5.30683 12.0483C5.23879 12.0761 5.17698 12.1172 5.12502 12.1692C5.07305 12.2211 5.03198 12.2829 5.0042 12.351C4.97642 12.419 4.9625 12.4919 4.96325 12.5654C4.96399 12.6389 4.9794 12.7115 5.00855 12.7789C5.03771 12.8464 5.08003 12.9074 5.13304 12.9583L6.55852 14.3837C6.61029 14.4512 6.67694 14.5059 6.75329 14.5434C6.82964 14.5809 6.91362 14.6003 6.99868 14.6C7.08374 14.5997 7.16759 14.5798 7.24369 14.5418C7.31979 14.5038 7.38608 14.4487 7.43741 14.3809L8.86001 12.9583C8.91302 12.9074 8.95535 12.8464 8.9845 12.7789C9.01366 12.7115 9.02906 12.6389 9.02981 12.5654C9.03055 12.4919 9.01663 12.419 8.98885 12.351C8.96107 12.2829 8.92 12.2211 8.86804 12.1692C8.81607 12.1172 8.75426 12.0761 8.68622 12.0483C8.61819 12.0206 8.54529 12.0066 8.4718 12.0074C8.39832 12.0081 8.32572 12.0235 8.25826 12.0527C8.19081 12.0819 8.12984 12.1242 8.07895 12.1772L7.54888 12.7072V10.7265C7.54994 10.6526 7.53615 10.5792 7.50833 10.5107C7.4805 10.4422 7.43921 10.38 7.38689 10.3277C7.33458 10.2755 7.27231 10.2343 7.20377 10.2065C7.13523 10.1788 7.06182 10.1651 6.9879 10.1663Z" fill="black"/>
</svg>
