<svg width="14" height="14" viewBox="0 0 14 14" fill="none" xmlns="http://www.w3.org/2000/svg">
<path d="M0 11.9421C0 12.8512 0.748815 13.6 1.65789 13.6H12.3421C13.2512 13.6 14 12.8512 14 11.9421V10.1C14 9.1909 13.2512 8.44208 12.3421 8.44208H1.65789C0.748815 8.44208 0 9.1909 0 10.1L0 11.9421ZM0 3.83682C0 4.7459 0.748815 5.49471 1.65789 5.49471H12.3421C13.2512 5.49471 14 4.7459 14 3.83682V1.99471C14 1.08563 13.2512 0.336818 12.3421 0.336818H1.65789C0.748815 0.336818 0 1.08563 0 1.99471L0 3.83682ZM1.10526 11.9421L1.10526 10.1C1.10526 9.78811 1.34603 9.54734 1.65789 9.54734H12.3421C12.654 9.54734 12.8947 9.78811 12.8947 10.1V11.9421C12.8947 12.2539 12.654 12.4947 12.3421 12.4947H1.65789C1.34603 12.4947 1.10526 12.2539 1.10526 11.9421ZM1.10526 3.83682V1.99471C1.10526 1.68285 1.34603 1.44208 1.65789 1.44208H12.3421C12.654 1.44208 12.8947 1.68285 12.8947 1.99471V3.83682C12.8947 4.14869 12.654 4.38945 12.3421 4.38945H1.65789C1.34603 4.38945 1.10526 4.14869 1.10526 3.83682Z" fill="black"/>
</svg>
