<svg width="14" height="15" viewBox="0 0 14 15" fill="none" xmlns="http://www.w3.org/2000/svg">
<path d="M5.63549 0.599976C2.53 0.599976 0 3.12998 0 6.23547C0 9.34095 2.53 11.871 5.63549 11.871C6.97882 11.871 8.21371 11.3964 9.18348 10.6078L12.9964 14.4207C13.0501 14.4767 13.1145 14.5214 13.1857 14.5521C13.2569 14.5829 13.3335 14.5992 13.411 14.5999C13.4886 14.6007 13.5655 14.586 13.6373 14.5567C13.7091 14.5274 13.7744 14.4841 13.8292 14.4292C13.8841 14.3744 13.9274 14.3091 13.9567 14.2373C13.9861 14.1655 14.0008 14.0886 14 14.011C13.9992 13.9335 13.9829 13.8568 13.9522 13.7856C13.9214 13.7144 13.8767 13.6501 13.8208 13.5964L10.0079 9.78346C10.7964 8.81369 11.271 7.57879 11.271 6.23547C11.271 3.12998 8.74098 0.599976 5.63549 0.599976ZM5.63549 1.76594C8.11085 1.76594 10.105 3.76011 10.105 6.23547C10.105 7.44131 9.62938 8.53075 8.85783 9.33331C8.81027 9.36827 8.7683 9.41025 8.73334 9.45781C7.93077 10.2294 6.84133 10.705 5.63549 10.705C3.16013 10.705 1.16596 8.71082 1.16596 6.23547C1.16596 3.76011 3.16013 1.76594 5.63549 1.76594Z" fill="black"/>
</svg>
