<svg width="14" height="15" viewBox="0 0 14 15" fill="none" xmlns="http://www.w3.org/2000/svg">
<path d="M6.98739 0.600027C6.90335 0.601407 6.82074 0.621947 6.74584 0.660083C6.67094 0.698218 6.60573 0.752943 6.55517 0.820091L5.13267 2.2426C5.07966 2.29349 5.03734 2.35445 5.00819 2.4219C4.97904 2.48935 4.96363 2.56195 4.96289 2.63543C4.96214 2.70891 4.97606 2.7818 5.00384 2.84983C5.03161 2.91786 5.07268 2.97967 5.12465 3.03163C5.17661 3.08359 5.23841 3.12466 5.30645 3.15244C5.37448 3.18021 5.44737 3.19413 5.52085 3.19339C5.59433 3.19264 5.66692 3.17724 5.73437 3.14808C5.80183 3.11893 5.86278 3.07661 5.91368 3.02361L6.4437 2.49358V4.47416C6.44267 4.54735 6.45619 4.62001 6.48348 4.68793C6.51077 4.75585 6.55129 4.81766 6.60268 4.86978C6.65407 4.92191 6.71531 4.96329 6.78283 4.99154C6.85036 5.01979 6.92282 5.03434 6.99602 5.03434C7.06922 5.03434 7.14168 5.01979 7.20921 4.99154C7.27673 4.96329 7.33797 4.92191 7.38936 4.86978C7.44075 4.81766 7.48127 4.75585 7.50856 4.68793C7.53585 4.62001 7.54937 4.54735 7.54834 4.47416V2.49358L8.07836 3.02361C8.12925 3.07661 8.19021 3.11893 8.25767 3.14808C8.32512 3.17724 8.39771 3.19264 8.47119 3.19339C8.54467 3.19413 8.61756 3.18021 8.68559 3.15244C8.75363 3.12466 8.81543 3.08359 8.86739 3.03163C8.91935 2.97967 8.96042 2.91786 8.9882 2.84983C9.01598 2.7818 9.0299 2.70891 9.02915 2.63543C9.0284 2.56195 9.013 2.48935 8.98385 2.4219C8.9547 2.35445 8.91238 2.29349 8.85937 2.2426L7.43399 0.817214C7.38167 0.748664 7.31402 0.693316 7.23647 0.655601C7.15892 0.617887 7.07362 0.598854 6.98739 0.600027ZM1.28874 5.7629C0.583632 5.7629 0 6.34653 0 7.05164V13.3112C0 14.0163 0.583632 14.6 1.28874 14.6H12.7033C13.4084 14.6 13.992 14.0163 13.992 13.3112V7.05164C13.992 6.34653 13.4084 5.7629 12.7033 5.7629H1.28874ZM2.20927 6.86753H11.7828C11.7828 7.47877 12.2762 7.97217 12.8874 7.97217V12.3907C12.2762 12.3907 11.7828 12.8841 11.7828 13.4953H2.20927C2.20927 12.8841 1.71587 12.3907 1.10463 12.3907V7.97217C1.71587 7.97217 2.20927 7.47877 2.20927 6.86753ZM6.99602 7.60396C6.27494 7.60396 5.66871 7.96632 5.3067 8.46408C4.9447 8.96183 4.78675 9.57473 4.78675 10.1814C4.78675 10.7881 4.9447 11.401 5.3067 11.8988C5.66871 12.3966 6.27494 12.7589 6.99602 12.7589C7.7171 12.7589 8.32333 12.3966 8.68533 11.8988C9.04734 11.401 9.20529 10.7881 9.20529 10.1814C9.20529 9.57473 9.04734 8.96184 8.68533 8.46408C8.32333 7.96632 7.7171 7.60396 6.99602 7.60396ZM6.99602 8.70859C7.37957 8.70859 7.60182 8.85252 7.79213 9.1142C7.98244 9.37588 8.10065 9.77557 8.10065 10.1814C8.10065 10.5873 7.98244 10.987 7.79213 11.2487C7.60182 11.5104 7.37957 11.6543 6.99602 11.6543C6.61247 11.6543 6.39022 11.5104 6.19991 11.2487C6.00959 10.987 5.89138 10.5873 5.89138 10.1814C5.89138 9.77557 6.00959 9.37588 6.19991 9.1142C6.39022 8.85252 6.61247 8.70859 6.99602 8.70859ZM2.57748 9.44501C2.38217 9.44501 2.19486 9.5226 2.05675 9.66071C1.91865 9.79881 1.84106 9.98613 1.84106 10.1814C1.84106 10.3767 1.91865 10.5641 2.05675 10.7022C2.19486 10.8403 2.38217 10.9179 2.57748 10.9179C2.77279 10.9179 2.9601 10.8403 3.09821 10.7022C3.23632 10.5641 3.3139 10.3767 3.3139 10.1814C3.3139 9.98613 3.23632 9.79881 3.09821 9.66071C2.9601 9.5226 2.77279 9.44501 2.57748 9.44501ZM11.4146 9.44501C11.2192 9.44501 11.0319 9.5226 10.8938 9.66071C10.7557 9.79881 10.6781 9.98613 10.6781 10.1814C10.6781 10.3767 10.7557 10.5641 10.8938 10.7022C11.0319 10.8403 11.2192 10.9179 11.4146 10.9179C11.6099 10.9179 11.7972 10.8403 11.9353 10.7022C12.0734 10.5641 12.151 10.3767 12.151 10.1814C12.151 9.98613 12.0734 9.79881 11.9353 9.66071C11.7972 9.5226 11.6099 9.44501 11.4146 9.44501Z" fill="black"/>
</svg>
