<svg width="14" height="15" viewBox="0 0 14 15" fill="none" xmlns="http://www.w3.org/2000/svg">
<path d="M0.506156 0.600462C0.42182 0.603524 0.339463 0.626869 0.266065 0.66852C0.192667 0.710171 0.13039 0.7689 0.0845107 0.839731C0.0386311 0.910563 0.0105009 0.99141 0.00250335 1.07542C-0.00549419 1.15943 0.00687667 1.24414 0.0385677 1.32235L2.58364 7.59993L0.0385677 13.8775C-0.00156979 13.9764 -0.0106362 14.0851 0.0125759 14.1893C0.035788 14.2934 0.0901769 14.388 0.168499 14.4605C0.246821 14.5329 0.34536 14.5798 0.45099 14.5948C0.556621 14.6099 0.664331 14.5924 0.759775 14.5447L13.7101 8.06957C13.7973 8.02597 13.8706 7.95893 13.9219 7.87598C13.9732 7.79303 14.0003 7.69745 14.0003 7.59993C14.0003 7.50242 13.9732 7.40683 13.9219 7.32388C13.8706 7.24093 13.7973 7.1739 13.7101 7.13029L0.759775 0.655151C0.681141 0.615993 0.59394 0.597189 0.506156 0.600462ZM1.5343 2.21651L12.3018 7.59993L1.5343 12.9834L3.50447 8.12495H8.22547C8.29504 8.12593 8.36411 8.11308 8.42867 8.08713C8.49323 8.06119 8.55199 8.02268 8.60154 7.97383C8.65108 7.92498 8.69042 7.86677 8.71728 7.80258C8.74413 7.73839 8.75796 7.66951 8.75796 7.59993C8.75796 7.53036 8.74413 7.46147 8.71728 7.39729C8.69042 7.3331 8.65108 7.27489 8.60154 7.22604C8.55199 7.17719 8.49323 7.13868 8.42867 7.11273C8.36411 7.08679 8.29504 7.07394 8.22547 7.07492H3.50447L1.5343 2.21651Z" fill="black"/>
</svg>
