<svg width="14" height="15" viewBox="0 0 14 15" fill="none" xmlns="http://www.w3.org/2000/svg">
<path d="M6.92616 0.600203C6.80584 0.596448 6.68871 0.639335 6.59926 0.719905C6.59926 0.719905 4.26353 2.77793 1.46666 2.77793C1.34289 2.77794 1.22421 2.82711 1.13669 2.91462C1.04918 3.00214 1.00001 3.12082 1 3.24459V7.05865C1 9.13621 1.96113 12.5548 6.7299 14.5634C6.78722 14.5875 6.84878 14.6 6.91097 14.6C6.97316 14.6 7.03473 14.5875 7.09204 14.5634C11.8608 12.5548 12.8219 9.13621 12.8219 7.05865V3.24459C12.8219 3.12082 12.7728 3.00214 12.6853 2.91462C12.5977 2.82711 12.479 2.77794 12.3553 2.77793C9.55841 2.77793 7.22268 0.719905 7.22268 0.719905C7.14102 0.646332 7.03602 0.603941 6.92616 0.600203ZM6.91097 1.66658C7.55277 2.18259 9.43441 3.50504 11.8886 3.67235V7.05865C11.8886 8.84508 11.2022 11.727 6.91097 13.6125C2.61978 11.727 1.93331 8.84508 1.93331 7.05865V3.67235C4.38753 3.50504 6.26918 2.18259 6.91097 1.66658ZM9.23514 5.57361C9.11394 5.57714 8.99888 5.6277 8.91431 5.71458L6.13321 8.49568L4.90763 7.2701C4.86463 7.22531 4.81313 7.18956 4.75614 7.16493C4.69915 7.14029 4.63781 7.12728 4.57573 7.12665C4.51365 7.12602 4.45206 7.13778 4.39458 7.16125C4.3371 7.18472 4.28488 7.21942 4.24098 7.26332C4.19707 7.30722 4.16237 7.35944 4.13891 7.41692C4.11544 7.4744 4.10368 7.53599 4.10431 7.59807C4.10494 7.66016 4.11795 7.72149 4.14258 7.77848C4.16721 7.83547 4.20297 7.88698 4.24775 7.92998L5.80327 9.4855C5.89079 9.57298 6.00947 9.62212 6.13321 9.62212C6.25696 9.62212 6.37563 9.57298 6.46315 9.4855L9.57419 6.37446C9.64151 6.30889 9.68747 6.22453 9.70606 6.13241C9.72464 6.04029 9.71498 5.94471 9.67834 5.85817C9.64171 5.77163 9.5798 5.69816 9.50072 5.64739C9.42164 5.59662 9.32907 5.57091 9.23514 5.57361Z" fill="black"/>
</svg>
