<svg width="14" height="15" viewBox="0 0 14 15" fill="none" xmlns="http://www.w3.org/2000/svg">
<path d="M6.92616 0.600203C6.80584 0.596448 6.68871 0.639335 6.59926 0.719905C6.59926 0.719905 4.26353 2.77793 1.46666 2.77793C1.34289 2.77794 1.22421 2.82711 1.13669 2.91462C1.04918 3.00214 1.00001 3.12082 1 3.24459V7.05865C1 9.13621 1.96113 12.5548 6.7299 14.5634C6.78722 14.5875 6.84878 14.6 6.91097 14.6C6.97316 14.6 7.03473 14.5875 7.09204 14.5634C11.8608 12.5548 12.8219 9.13621 12.8219 7.05865V3.24459C12.8219 3.12082 12.7728 3.00214 12.6853 2.91462C12.5977 2.82711 12.479 2.77794 12.3553 2.77793C9.55841 2.77793 7.22268 0.719905 7.22268 0.719905C7.14102 0.646332 7.03602 0.603941 6.92616 0.600203ZM6.91097 1.66658C7.55277 2.18259 9.43441 3.50504 11.8886 3.67235V7.05865C11.8886 8.84508 11.2022 11.727 6.91097 13.6125C2.61978 11.727 1.93331 8.84508 1.93331 7.05865V3.67235C4.38753 3.50504 6.26918 2.18259 6.91097 1.66658ZM8.92889 4.94897C8.80565 4.95188 8.68857 5.00343 8.60321 5.09237L6.91097 6.78461L5.21874 5.09237C5.17524 5.04758 5.1232 5.01197 5.06569 4.98765C5.00818 4.96333 4.94638 4.9508 4.88394 4.9508C4.79107 4.95082 4.70031 4.97855 4.62329 5.03044C4.54627 5.08233 4.48648 5.15602 4.45157 5.24208C4.41666 5.32814 4.40822 5.42266 4.42734 5.51354C4.44645 5.60443 4.49224 5.68754 4.55886 5.75225L6.25109 7.44449L4.55886 9.13672C4.51407 9.17972 4.47832 9.23123 4.45368 9.28822C4.42905 9.34521 4.41604 9.40654 4.41541 9.46863C4.41478 9.53071 4.42654 9.5923 4.45001 9.64978C4.47348 9.70726 4.50818 9.75948 4.55208 9.80338C4.59598 9.84728 4.6482 9.88198 4.70568 9.90545C4.76316 9.92892 4.82475 9.94068 4.88683 9.94005C4.94892 9.93942 5.01025 9.92641 5.06724 9.90177C5.12423 9.87714 5.17574 9.84139 5.21874 9.7966L6.91097 8.10437L8.60321 9.7966C8.64621 9.84139 8.69771 9.87714 8.7547 9.90177C8.81169 9.92641 8.87303 9.93942 8.93511 9.94005C8.99719 9.94068 9.05878 9.92892 9.11626 9.90545C9.17374 9.88198 9.22596 9.84728 9.26986 9.80338C9.31377 9.75948 9.34847 9.70726 9.37193 9.64978C9.3954 9.5923 9.40716 9.53071 9.40653 9.46863C9.4059 9.40654 9.39289 9.34521 9.36826 9.28822C9.34363 9.23123 9.30787 9.17972 9.26309 9.13672L7.57085 7.44449L9.26309 5.75225C9.33095 5.68712 9.37754 5.603 9.39677 5.51093C9.41599 5.41885 9.40695 5.32312 9.37082 5.23628C9.33468 5.14943 9.27316 5.07553 9.1943 5.02426C9.11544 4.97299 9.02293 4.94675 8.92889 4.94897Z" fill="black"/>
</svg>
