<svg width="14" height="15" viewBox="0 0 14 15" fill="none" xmlns="http://www.w3.org/2000/svg">
<path d="M4.575 0.599976C3.71137 0.599976 3 1.31135 3 2.17498V13.025C3 13.8886 3.71137 14.6 4.575 14.6H9.825C10.6886 14.6 11.4 13.8886 11.4 13.025V2.17498C11.4 1.31135 10.6886 0.599976 9.825 0.599976H4.575ZM4.575 1.64998H9.825C10.1213 1.64998 10.35 1.8787 10.35 2.17498V13.025C10.35 13.3212 10.1213 13.55 9.825 13.55H4.575C4.27873 13.55 4.05 13.3212 4.05 13.025V2.17498C4.05 1.8787 4.27873 1.64998 4.575 1.64998ZM7.2 11.45C7.06076 11.45 6.92723 11.5053 6.82877 11.6037C6.73031 11.7022 6.675 11.8357 6.675 11.975C6.675 12.1142 6.73031 12.2478 6.82877 12.3462C6.92723 12.4447 7.06076 12.5 7.2 12.5C7.33924 12.5 7.47277 12.4447 7.57123 12.3462C7.66969 12.2478 7.725 12.1142 7.725 11.975C7.725 11.8357 7.66969 11.7022 7.57123 11.6037C7.47277 11.5053 7.33924 11.45 7.2 11.45Z" fill="black"/>
</svg>
