<svg width="14" height="15" viewBox="0 0 14 15" fill="none" xmlns="http://www.w3.org/2000/svg">
<path d="M6.99175 0.60004C6.85278 0.602211 6.72036 0.659453 6.62356 0.759193C6.52677 0.858933 6.47352 0.993014 6.47551 1.13199V2.18086C6.47453 2.25035 6.48737 2.31935 6.51328 2.38384C6.5392 2.44833 6.57767 2.50702 6.62647 2.55651C6.67526 2.606 6.73341 2.6453 6.79752 2.67213C6.86164 2.69895 6.93045 2.71276 6.99995 2.71276C7.06945 2.71276 7.13826 2.69895 7.20237 2.67213C7.26649 2.6453 7.32463 2.606 7.37343 2.55651C7.42222 2.50702 7.4607 2.44833 7.48661 2.38384C7.51253 2.31935 7.52537 2.25035 7.52438 2.18086V1.13199C7.52539 1.06179 7.5123 0.992114 7.48588 0.927075C7.45946 0.862037 7.42025 0.802964 7.37058 0.753357C7.32091 0.70375 7.26179 0.664619 7.19671 0.638283C7.13164 0.611947 7.06194 0.598943 6.99175 0.60004ZM2.42069 2.49702C2.31632 2.49705 2.21433 2.52821 2.12777 2.58653C2.04121 2.64484 1.97402 2.72766 1.93479 2.82437C1.89556 2.92109 1.88608 3.02731 1.90756 3.12945C1.92904 3.23158 1.9805 3.32499 2.05536 3.39771L2.79695 4.1393C2.89538 4.23773 3.02888 4.29303 3.16808 4.29303C3.30729 4.29303 3.44079 4.23773 3.53922 4.1393C3.63765 4.04087 3.69295 3.90737 3.69295 3.76816C3.69295 3.62896 3.63765 3.49546 3.53922 3.39703L2.79763 2.65545C2.74861 2.60515 2.68999 2.5652 2.62524 2.53799C2.56049 2.51078 2.49093 2.49685 2.42069 2.49702ZM11.5628 2.49702C11.4266 2.50099 11.2973 2.55781 11.2023 2.65545L10.4607 3.39703C10.3622 3.49546 10.3069 3.62896 10.3069 3.76816C10.3069 3.90737 10.3622 4.04087 10.4607 4.1393C10.5591 4.23773 10.6926 4.29303 10.8318 4.29303C10.971 4.29303 11.1045 4.23773 11.2029 4.1393L11.9445 3.39771C12.0205 3.32403 12.0724 3.2291 12.0934 3.12538C12.1144 3.02167 12.1035 2.91402 12.0623 2.81659C12.021 2.71916 11.9512 2.63649 11.862 2.57946C11.7729 2.52242 11.6686 2.49369 11.5628 2.49702ZM6.99995 3.75417C4.88215 3.75417 3.15408 5.48223 3.15408 7.60003C3.15408 9.71783 4.88215 11.4459 6.99995 11.4459C9.11775 11.4459 10.8458 9.71783 10.8458 7.60003C10.8458 5.48223 9.11775 3.75417 6.99995 3.75417ZM6.99995 4.80304C8.5509 4.80304 9.79694 6.04908 9.79694 7.60003C9.79694 9.15098 8.5509 10.397 6.99995 10.397C5.449 10.397 4.20296 9.15098 4.20296 7.60003C4.20296 6.04908 5.449 4.80304 6.99995 4.80304ZM0.531905 7.07559C0.462411 7.07461 0.393415 7.08745 0.328926 7.11336C0.264437 7.13928 0.205742 7.17775 0.156251 7.22655C0.10676 7.27534 0.0674606 7.33349 0.040637 7.3976C0.0138133 7.46172 0 7.53053 0 7.60003C0 7.66953 0.0138133 7.73834 0.040637 7.80245C0.0674606 7.86657 0.10676 7.92472 0.156251 7.97351C0.205742 8.02231 0.264437 8.06078 0.328926 8.08669C0.393415 8.11261 0.462411 8.12545 0.531905 8.12446H1.58078C1.65027 8.12545 1.71927 8.11261 1.78376 8.08669C1.84824 8.06078 1.90694 8.02231 1.95643 7.97351C2.00592 7.92472 2.04522 7.86657 2.07204 7.80245C2.09887 7.73834 2.11268 7.66953 2.11268 7.60003C2.11268 7.53053 2.09887 7.46172 2.07204 7.3976C2.04522 7.33349 2.00592 7.27534 1.95643 7.22655C1.90694 7.17775 1.84824 7.13928 1.78376 7.11336C1.71927 7.08745 1.65027 7.07461 1.58078 7.07559H0.531905ZM12.4191 7.07559C12.3496 7.07461 12.2806 7.08745 12.2161 7.11336C12.1516 7.13928 12.093 7.17775 12.0435 7.22655C11.994 7.27534 11.9547 7.33349 11.9278 7.3976C11.901 7.46172 11.8872 7.53053 11.8872 7.60003C11.8872 7.66953 11.901 7.73834 11.9278 7.80245C11.9547 7.86657 11.994 7.92472 12.0435 7.97351C12.093 8.02231 12.1516 8.06078 12.2161 8.08669C12.2806 8.11261 12.3496 8.12545 12.4191 8.12446H13.468C13.5375 8.12545 13.6065 8.11261 13.671 8.08669C13.7355 8.06078 13.7942 8.02231 13.8436 7.97351C13.8931 7.92472 13.9324 7.86657 13.9593 7.80245C13.9861 7.73834 13.9999 7.66953 13.9999 7.60003C13.9999 7.53053 13.9861 7.46172 13.9593 7.3976C13.9324 7.33349 13.8931 7.27534 13.8436 7.22655C13.7942 7.17775 13.7355 7.13928 13.671 7.11336C13.6065 7.08745 13.5375 7.07461 13.468 7.07559H12.4191ZM3.1575 10.9023C3.0213 10.9063 2.89199 10.9631 2.79695 11.0608L2.05536 11.8023C2.00661 11.8511 1.96793 11.9089 1.94154 11.9726C1.91515 12.0363 1.90156 12.1046 1.90156 12.1735C1.90155 12.2424 1.91512 12.3107 1.9415 12.3744C1.96788 12.4381 2.00654 12.4959 2.05528 12.5447C2.10403 12.5934 2.1619 12.6321 2.22559 12.6585C2.28928 12.6849 2.35754 12.6984 2.42647 12.6984C2.49541 12.6984 2.56367 12.6848 2.62735 12.6584C2.69104 12.632 2.7489 12.5934 2.79763 12.5446L3.53922 11.803C3.61517 11.7293 3.66706 11.6344 3.68807 11.5307C3.70908 11.427 3.69823 11.3193 3.65694 11.2219C3.61564 11.1245 3.54585 11.0418 3.45671 10.9848C3.36757 10.9277 3.26327 10.899 3.1575 10.9023ZM10.826 10.9023C10.7216 10.9024 10.6196 10.9335 10.5331 10.9918C10.4465 11.0502 10.3793 11.133 10.3401 11.2297C10.3009 11.3264 10.2914 11.4326 10.3129 11.5348C10.3344 11.6369 10.3858 11.7303 10.4607 11.803L11.2023 12.5446C11.251 12.5934 11.3089 12.632 11.3725 12.6584C11.4362 12.6848 11.5045 12.6983 11.5734 12.6983C11.6423 12.6983 11.7106 12.6848 11.7743 12.6584C11.8379 12.632 11.8958 12.5934 11.9445 12.5446C11.9933 12.4959 12.0319 12.438 12.0583 12.3743C12.0847 12.3107 12.0983 12.2424 12.0983 12.1735C12.0983 12.1046 12.0847 12.0363 12.0583 11.9726C12.0319 11.9089 11.9933 11.8511 11.9445 11.8023L11.2029 11.0608C11.1539 11.0105 11.0953 10.9705 11.0306 10.9433C10.9658 10.9161 10.8962 10.9022 10.826 10.9023ZM6.99175 12.4873C6.85278 12.4894 6.72036 12.5467 6.62356 12.6464C6.52677 12.7461 6.47352 12.8802 6.47551 13.0192V14.0681C6.47453 14.1376 6.48737 14.2066 6.51328 14.2711C6.5392 14.3355 6.57767 14.3942 6.62647 14.4437C6.67526 14.4932 6.73341 14.5325 6.79752 14.5593C6.86164 14.5862 6.93045 14.6 6.99995 14.6C7.06945 14.6 7.13826 14.5862 7.20237 14.5593C7.26649 14.5325 7.32463 14.4932 7.37343 14.4437C7.42222 14.3942 7.4607 14.3355 7.48661 14.2711C7.51253 14.2066 7.52537 14.1376 7.52438 14.0681V13.0192C7.52539 12.949 7.5123 12.8793 7.48588 12.8143C7.45946 12.7492 7.42025 12.6902 7.37058 12.6406C7.32091 12.591 7.26179 12.5518 7.19671 12.5255C7.13164 12.4992 7.06194 12.4862 6.99175 12.4873Z" fill="black"/>
</svg>
