<svg width="14" height="15" viewBox="0 0 14 15" fill="none" xmlns="http://www.w3.org/2000/svg">
<path d="M6.94015 0.606381C3.69551 0.453645 1 3.05217 1 6.26658V7.76659V10.0999C1 11.0575 1.75528 11.8301 2.69467 11.9053C2.77108 13.2128 3.84094 14.2666 5.1667 14.2666H5.50459C5.6569 14.4677 5.89571 14.6 6.16671 14.6H7.16671C7.62605 14.6 8.00005 14.2263 8.00005 13.7666C8.00005 13.307 7.62605 12.9333 7.16671 12.9333H6.16671C5.89571 12.9333 5.6569 13.0656 5.50459 13.2666H5.1667C4.39146 13.2666 3.78538 12.6839 3.69989 11.9333H4.50003C4.63263 11.9333 4.7598 11.8806 4.85357 11.7868C4.94733 11.6931 5.00002 11.5659 5.00003 11.4333V7.76659C5.00002 7.63399 4.94733 7.50682 4.85357 7.41305C4.7598 7.31928 4.63263 7.2666 4.50003 7.26659H2.00001V6.26658C2.00001 3.60828 4.20322 1.47849 6.89262 1.60509C9.39746 1.72286 11.3334 3.88657 11.3334 6.41241V7.26659H8.83339C8.70079 7.2666 8.57362 7.31928 8.47985 7.41305C8.38608 7.50682 8.3334 7.63399 8.33339 7.76659V11.4333C8.3334 11.5659 8.38608 11.6931 8.47985 11.7868C8.57362 11.8806 8.70079 11.9333 8.83339 11.9333H10.5001C11.5067 11.9333 12.3334 11.1065 12.3334 10.0999V7.76659V6.41241C12.3334 3.37422 9.99336 0.749941 6.94015 0.606381ZM2.00001 8.26659H4.00002V10.9333H2.83335C2.36727 10.9333 2.00001 10.566 2.00001 10.0999V8.26659ZM9.3334 8.26659H11.3334V10.0999C11.3334 10.566 10.9661 10.9333 10.5001 10.9333H9.3334V8.26659Z" fill="black"/>
</svg>
