<svg width="14" height="15" viewBox="0 0 14 15" fill="none" xmlns="http://www.w3.org/2000/svg">
<path d="M1.65139 0.599009C1.50595 0.600728 1.36706 0.659706 1.26482 0.763156C1.16258 0.866605 1.10525 1.00619 1.10524 1.15163V12.3883C0.49478 12.3883 0 12.883 0 13.4935C0 14.104 0.49478 14.5988 1.10524 14.5988H1.65786H2.21049H11.7893H12.3419H12.8945C13.505 14.5988 13.9997 14.104 13.9997 13.4935C13.9997 12.883 13.505 12.3883 12.8945 12.3883V1.15163C12.8945 1.05162 12.8673 0.953481 12.8159 0.867688C12.7645 0.781895 12.6908 0.711659 12.6026 0.664466C12.5144 0.617274 12.4151 0.594895 12.3152 0.599714C12.2153 0.604533 12.1186 0.636371 12.0353 0.691832L10.6682 1.60279L9.12617 0.677441C9.0403 0.625952 8.94206 0.598755 8.84194 0.598755C8.74182 0.598755 8.64358 0.625952 8.55772 0.677441L6.99987 1.61215L5.44203 0.677441C5.35616 0.625952 5.25792 0.598755 5.1578 0.598755C5.05768 0.598755 4.95944 0.625952 4.87357 0.677441L3.33156 1.60279L1.9644 0.691832C1.87179 0.630077 1.76269 0.597724 1.65139 0.599009ZM5.1578 1.79636L6.71565 2.73034C6.80151 2.78183 6.89975 2.80903 6.99987 2.80903C7.09999 2.80903 7.19823 2.78183 7.2841 2.73034L8.84194 1.79636L10.3998 2.73106C10.4895 2.78482 10.5927 2.812 10.6973 2.80945C10.8018 2.8069 10.9035 2.77473 10.9905 2.71667L11.7893 2.1842V12.3883V13.4935H2.21049V12.3883V2.1842L3.0092 2.71667C3.09621 2.77473 3.19792 2.8069 3.30249 2.80945C3.40707 2.812 3.51022 2.78482 3.59996 2.73106L5.1578 1.79636ZM3.86835 4.65157C3.79512 4.65053 3.72242 4.66406 3.65446 4.69137C3.58651 4.71867 3.52466 4.75922 3.47251 4.81063C3.42036 4.86205 3.37894 4.92332 3.35068 4.99088C3.32241 5.05845 3.30786 5.13095 3.30786 5.20419C3.30786 5.27742 3.32241 5.34993 3.35068 5.41749C3.37894 5.48505 3.42036 5.54632 3.47251 5.59774C3.52466 5.64916 3.58651 5.6897 3.65446 5.71701C3.72242 5.74432 3.79512 5.75785 3.86835 5.75681H10.1314C10.2046 5.75785 10.2773 5.74432 10.3453 5.71701C10.4132 5.6897 10.4751 5.64916 10.5272 5.59774C10.5794 5.54632 10.6208 5.48505 10.6491 5.41749C10.6773 5.34993 10.6919 5.27742 10.6919 5.20419C10.6919 5.13095 10.6773 5.05845 10.6491 4.99088C10.6208 4.92332 10.5794 4.86205 10.5272 4.81063C10.4751 4.75922 10.4132 4.71867 10.3453 4.69137C10.2773 4.66406 10.2046 4.65053 10.1314 4.65157H3.86835ZM3.86835 7.59888C3.79512 7.59785 3.72242 7.61138 3.65446 7.63868C3.58651 7.66599 3.52466 7.70653 3.47251 7.75795C3.42036 7.80937 3.37894 7.87064 3.35068 7.9382C3.32241 8.00576 3.30786 8.07827 3.30786 8.1515C3.30786 8.22474 3.32241 8.29725 3.35068 8.36481C3.37894 8.43237 3.42036 8.49364 3.47251 8.54506C3.52466 8.59648 3.58651 8.63702 3.65446 8.66432C3.72242 8.69163 3.79512 8.70516 3.86835 8.70413H7.18408C7.25731 8.70516 7.33001 8.69163 7.39797 8.66432C7.46592 8.63702 7.52777 8.59648 7.57992 8.54506C7.63207 8.49364 7.67349 8.43237 7.70175 8.36481C7.73002 8.29725 7.74457 8.22474 7.74457 8.1515C7.74457 8.07827 7.73002 8.00576 7.70175 7.9382C7.67349 7.87064 7.63207 7.80937 7.57992 7.75795C7.52777 7.70653 7.46592 7.66599 7.39797 7.63868C7.33001 7.61138 7.25731 7.59785 7.18408 7.59888H3.86835ZM9.39457 7.59888C9.32134 7.59785 9.24863 7.61138 9.18068 7.63868C9.11272 7.66599 9.05087 7.70653 8.99872 7.75795C8.94657 7.80937 8.90516 7.87064 8.87689 7.9382C8.84863 8.00576 8.83407 8.07827 8.83407 8.1515C8.83407 8.22474 8.84863 8.29725 8.87689 8.36481C8.90516 8.43237 8.94657 8.49364 8.99872 8.54506C9.05087 8.59648 9.11272 8.63702 9.18068 8.66432C9.24863 8.69163 9.32134 8.70516 9.39457 8.70413H10.1314C10.2046 8.70516 10.2773 8.69163 10.3453 8.66432C10.4132 8.63702 10.4751 8.59648 10.5272 8.54506C10.5794 8.49364 10.6208 8.43237 10.6491 8.36481C10.6773 8.29725 10.6919 8.22474 10.6919 8.1515C10.6919 8.07827 10.6773 8.00576 10.6491 7.9382C10.6208 7.87064 10.5794 7.80937 10.5272 7.75795C10.4751 7.70653 10.4132 7.66599 10.3453 7.63868C10.2773 7.61138 10.2046 7.59785 10.1314 7.59888H9.39457ZM3.86835 9.80937C3.79512 9.80833 3.72242 9.82186 3.65446 9.84917C3.58651 9.87648 3.52466 9.91702 3.47251 9.96843C3.42036 10.0199 3.37894 10.0811 3.35068 10.1487C3.32241 10.2162 3.30786 10.2888 3.30786 10.362C3.30786 10.4352 3.32241 10.5077 3.35068 10.5753C3.37894 10.6429 3.42036 10.7041 3.47251 10.7555C3.52466 10.807 3.58651 10.8475 3.65446 10.8748C3.72242 10.9021 3.79512 10.9156 3.86835 10.9146H6.44725C6.52048 10.9156 6.59318 10.9021 6.66114 10.8748C6.72909 10.8475 6.79094 10.807 6.84309 10.7555C6.89525 10.7041 6.93666 10.6429 6.96492 10.5753C6.99319 10.5077 7.00774 10.4352 7.00774 10.362C7.00774 10.2888 6.99319 10.2162 6.96492 10.1487C6.93666 10.0811 6.89525 10.0199 6.84309 9.96843C6.79094 9.91702 6.72909 9.87648 6.66114 9.84917C6.59318 9.82186 6.52048 9.80833 6.44725 9.80937H3.86835ZM9.39457 9.80937C9.32134 9.80833 9.24863 9.82186 9.18068 9.84917C9.11272 9.87648 9.05087 9.91702 8.99872 9.96843C8.94657 10.0199 8.90516 10.0811 8.87689 10.1487C8.84863 10.2162 8.83407 10.2888 8.83407 10.362C8.83407 10.4352 8.84863 10.5077 8.87689 10.5753C8.90516 10.6429 8.94657 10.7041 8.99872 10.7555C9.05087 10.807 9.11272 10.8475 9.18068 10.8748C9.24863 10.9021 9.32134 10.9156 9.39457 10.9146H10.1314C10.2046 10.9156 10.2773 10.9021 10.3453 10.8748C10.4132 10.8475 10.4751 10.807 10.5272 10.7555C10.5794 10.7041 10.6208 10.6429 10.6491 10.5753C10.6773 10.5077 10.6919 10.4352 10.6919 10.362C10.6919 10.2888 10.6773 10.2162 10.6491 10.1487C10.6208 10.0811 10.5794 10.0199 10.5272 9.96843C10.4751 9.91702 10.4132 9.87648 10.3453 9.84917C10.2773 9.82186 10.2046 9.80833 10.1314 9.80937H9.39457Z" fill="black"/>
</svg>
