<svg width="15" height="15" viewBox="0 0 15 15" fill="none" xmlns="http://www.w3.org/2000/svg">
<path d="M3.18167 0.599976C2.85186 0.599976 2.52206 0.724214 2.27362 0.97266L0.375795 2.87048C-0.121096 3.36737 -0.121096 4.18971 0.375795 4.6866L3.2985 7.6093L1.43651 9.47057C1.2824 9.62468 1.16953 9.81633 1.1097 10.0267L0.0210284 13.8389C-0.00582023 13.9332 -0.00697991 14.033 0.0176694 14.1279C0.0423187 14.2228 0.0918819 14.3095 0.161232 14.3788C0.230582 14.4482 0.317201 14.4977 0.412129 14.5224C0.507057 14.547 0.606847 14.5459 0.701177 14.519L4.51402 13.4303C4.51426 13.4301 4.5145 13.4299 4.51474 13.4296C4.72372 13.3695 4.9149 13.2581 5.06946 13.1035L13.1911 4.98116C14.1896 3.98264 14.1896 2.34744 13.1911 1.34893C12.692 0.849638 12.0336 0.599976 11.375 0.599976C10.7164 0.599976 10.0579 0.849638 9.55887 1.34893L7.01244 3.89536L6.32082 3.20375C6.2867 3.15668 6.24533 3.11531 6.19826 3.08119L4.85302 1.73594C4.81889 1.68888 4.77753 1.64751 4.73046 1.61339L4.08973 0.97266C3.84129 0.724214 3.51149 0.599976 3.18167 0.599976ZM3.18167 1.69366C3.22746 1.69366 3.27325 1.71285 3.3114 1.751L3.6246 2.06419L3.46334 2.22545C3.41051 2.27617 3.36834 2.33692 3.33929 2.40414C3.31023 2.47136 3.29488 2.54371 3.29414 2.61694C3.2934 2.69016 3.30727 2.76281 3.33495 2.8306C3.36263 2.8984 3.40356 2.96 3.45534 3.01178C3.50713 3.06356 3.56872 3.10449 3.63652 3.13217C3.70432 3.15986 3.77696 3.17373 3.85019 3.17298C3.92342 3.17224 3.99576 3.15689 4.06298 3.12784C4.13021 3.09879 4.19095 3.05661 4.24167 3.00379L4.40293 2.84253L5.0924 3.53199L4.93114 3.69325C4.87831 3.74397 4.83614 3.80472 4.80709 3.87194C4.77803 3.93917 4.76269 4.01151 4.76194 4.08474C4.7612 4.15797 4.77507 4.23061 4.80275 4.29841C4.83043 4.3662 4.87136 4.4278 4.92315 4.47958C4.97493 4.53137 5.03652 4.5723 5.10432 4.59998C5.17212 4.62766 5.24476 4.64153 5.31799 4.64079C5.39122 4.64004 5.46356 4.62469 5.53078 4.59564C5.59801 4.56659 5.65876 4.52441 5.70948 4.47159L5.87073 4.31033L6.2341 4.6737L4.07683 6.83096L1.15413 3.90826C1.07785 3.83198 1.07785 3.7251 1.15413 3.64882L3.05195 1.751C3.0901 1.71285 3.13589 1.69366 3.18167 1.69366ZM11.375 1.69438C11.7496 1.69438 12.1236 1.83871 12.4121 2.12726C12.4123 2.12726 12.4125 2.12726 12.4128 2.12726C12.9907 2.70516 12.9907 3.62492 12.4128 4.20283L11.7011 4.91451L9.62552 2.83895L10.3372 2.12726C10.6256 1.83871 11.0004 1.69438 11.375 1.69438ZM8.84719 3.61728L10.9228 5.69284L4.29041 12.3252C4.2689 12.3466 4.24165 12.3629 4.21086 12.3718L1.35122 13.1888L2.16826 10.3285C2.16826 10.3282 2.16826 10.328 2.16826 10.3277C2.17668 10.2982 2.19209 10.2717 2.21485 10.2489L8.84719 3.61728ZM11.3972 8.28013L10.6189 9.05847L11.6975 10.1371L11.5362 10.2984C11.4834 10.3491 11.4412 10.4098 11.4122 10.477C11.3831 10.5443 11.3678 10.6166 11.367 10.6898C11.3663 10.7631 11.3802 10.8357 11.4079 10.9035C11.4355 10.9713 11.4765 11.0329 11.5283 11.0847C11.58 11.1365 11.6416 11.1774 11.7094 11.2051C11.7772 11.2328 11.8499 11.2466 11.9231 11.2459C11.9963 11.2451 12.0687 11.2298 12.1359 11.2007C12.2031 11.1717 12.2639 11.1295 12.3146 11.0767L12.4758 10.9154L12.8521 11.2917C12.9284 11.368 12.9284 11.4749 12.8521 11.5511L10.9543 13.449C10.878 13.5253 10.7711 13.5253 10.6948 13.449L8.4616 11.2157L7.68327 11.9941L9.9165 14.2273C10.4134 14.7242 11.2357 14.7242 11.7326 14.2273L13.6304 12.3295C14.1273 11.8326 14.1273 11.0103 13.6304 10.5134L12.9259 9.80885C12.8918 9.76179 12.8504 9.72042 12.8034 9.6863L11.3972 8.28013Z" fill="black"/>
</svg>
