<svg width="14" height="15" viewBox="0 0 14 15" fill="none" xmlns="http://www.w3.org/2000/svg">
<path d="M6.65748 0.599976C5.42957 0.599976 4.40712 1.51748 4.2355 2.69998H1.84088C1.81107 2.69488 1.78088 2.69236 1.75064 2.69246C1.72451 2.69302 1.69846 2.69553 1.67271 2.69998H0.532477C0.462909 2.69899 0.393838 2.71184 0.32928 2.73779C0.264721 2.76373 0.205963 2.80224 0.156419 2.85109C0.106875 2.89994 0.0675332 2.95815 0.0406807 3.02233C0.0138281 3.08652 0 3.1554 0 3.22498C0 3.29455 0.0138281 3.36343 0.0406807 3.42762C0.0675332 3.4918 0.106875 3.55001 0.156419 3.59886C0.205963 3.64771 0.264721 3.68622 0.32928 3.71216C0.393838 3.73811 0.462909 3.75096 0.532477 3.74998H1.28101L2.16216 12.8602C2.25704 13.8425 3.0916 14.6 4.07828 14.6H9.23599C10.2227 14.6 11.0573 13.8426 11.1521 12.8602L12.0339 3.74998H12.7825C12.852 3.75096 12.9211 3.73811 12.9857 3.71216C13.0502 3.68622 13.109 3.64771 13.1585 3.59886C13.2081 3.55001 13.2474 3.4918 13.2743 3.42762C13.3011 3.36343 13.315 3.29455 13.315 3.22498C13.315 3.1554 13.3011 3.08652 13.2743 3.02233C13.2474 2.95815 13.2081 2.89994 13.1585 2.85109C13.109 2.80224 13.0502 2.76373 12.9857 2.73779C12.9211 2.71184 12.852 2.69899 12.7825 2.69998H11.6429C11.5872 2.69094 11.5305 2.69094 11.4748 2.69998H9.07945C8.90784 1.51748 7.88539 0.599976 6.65748 0.599976ZM6.65748 1.64998C7.31518 1.64998 7.85475 2.09383 8.00894 2.69998H5.30601C5.46021 2.09383 5.99977 1.64998 6.65748 1.64998ZM2.33511 3.74998H10.9792L10.1069 12.7591C10.0631 13.2124 9.69126 13.55 9.23599 13.55H4.07828C3.62366 13.55 3.2511 13.2117 3.20738 12.7591L2.33511 3.74998ZM5.42427 5.49246C5.28515 5.49463 5.15259 5.55193 5.05569 5.65178C4.95879 5.75163 4.90548 5.88585 4.90748 6.02498V11.275C4.90649 11.3445 4.91935 11.4136 4.94529 11.4782C4.97123 11.5427 5.00975 11.6015 5.05859 11.651C5.10744 11.7006 5.16565 11.7399 5.22983 11.7668C5.29402 11.7936 5.3629 11.8075 5.43248 11.8075C5.50205 11.8075 5.57094 11.7936 5.63512 11.7668C5.69931 11.7399 5.75751 11.7006 5.80636 11.651C5.85521 11.6015 5.89372 11.5427 5.91967 11.4782C5.94561 11.4136 5.95846 11.3445 5.95748 11.275V6.02498C5.95849 5.95471 5.94538 5.88495 5.91893 5.81984C5.89248 5.75473 5.85323 5.6956 5.80351 5.64594C5.75378 5.59628 5.6946 5.5571 5.62946 5.53074C5.56431 5.50438 5.49454 5.49136 5.42427 5.49246ZM7.87427 5.49246C7.73515 5.49463 7.60259 5.55193 7.50569 5.65178C7.40879 5.75163 7.35548 5.88585 7.35748 6.02498V11.275C7.35649 11.3445 7.36935 11.4136 7.39529 11.4782C7.42123 11.5427 7.45975 11.6015 7.50859 11.651C7.55744 11.7006 7.61565 11.7399 7.67983 11.7668C7.74402 11.7936 7.8129 11.8075 7.88248 11.8075C7.95205 11.8075 8.02094 11.7936 8.08512 11.7668C8.14931 11.7399 8.20751 11.7006 8.25636 11.651C8.30521 11.6015 8.34372 11.5427 8.36967 11.4782C8.39561 11.4136 8.40846 11.3445 8.40748 11.275V6.02498C8.40849 5.95471 8.39538 5.88495 8.36893 5.81984C8.34248 5.75473 8.30323 5.6956 8.25351 5.64594C8.20378 5.59628 8.1446 5.5571 8.07946 5.53074C8.01431 5.50438 7.94454 5.49136 7.87427 5.49246Z" fill="black"/>
</svg>
