<svg width="14" height="15" viewBox="0 0 14 15" fill="none" xmlns="http://www.w3.org/2000/svg">
<path d="M6.6 0.599976C4.67322 0.599976 3.1 2.1732 3.1 4.09998C3.1 6.02675 4.67322 7.59998 6.6 7.59998C8.52678 7.59998 10.1 6.02675 10.1 4.09998C10.1 2.1732 8.52678 0.599976 6.6 0.599976ZM6.6 1.64998C7.95932 1.64998 9.05 2.74066 9.05 4.09998C9.05 5.45929 7.95932 6.54998 6.6 6.54998C5.24068 6.54998 4.15 5.45929 4.15 4.09998C4.15 2.74066 5.24068 1.64998 6.6 1.64998ZM2.39248 8.99998C1.62955 8.99998 1 9.62952 1 10.3925V10.925C1 12.1864 1.79774 13.1623 2.85732 13.7469C3.9169 14.3314 5.25884 14.6 6.6 14.6C7.94116 14.6 9.2831 14.3314 10.3427 13.7469C11.2461 13.2484 11.9261 12.4519 12.1166 11.45H12.2007V10.3925C12.2007 9.62952 11.5705 8.99998 10.8075 8.99998H2.39248ZM2.39248 10.05H10.8075C11.0029 10.05 11.1507 10.1971 11.1507 10.3925V10.4H11.15V10.925C11.15 11.7635 10.679 12.3627 9.83545 12.8281C8.9919 13.2935 7.79634 13.55 6.6 13.55C5.40366 13.55 4.2081 13.2935 3.36455 12.8281C2.52101 12.3627 2.05 11.7635 2.05 10.925V10.3925C2.05 10.1971 2.19711 10.05 2.39248 10.05Z" fill="black"/>
</svg>
