<svg width="14" height="15" viewBox="0 0 14 15" fill="none" xmlns="http://www.w3.org/2000/svg">
<path d="M4.61364 0.599976C2.86202 0.599976 1.43182 2.03018 1.43182 3.78179C1.43182 5.53341 2.86202 6.96361 4.61364 6.96361C6.36525 6.96361 7.79545 5.53341 7.79545 3.78179C7.79545 2.03018 6.36525 0.599976 4.61364 0.599976ZM4.61364 1.55452C5.84938 1.55452 6.84091 2.54605 6.84091 3.78179C6.84091 5.01754 5.84938 6.00907 4.61364 6.00907C3.37789 6.00907 2.38636 5.01754 2.38636 3.78179C2.38636 2.54605 3.37789 1.55452 4.61364 1.55452ZM10.3409 7.59998C8.40795 7.59998 6.84091 9.16702 6.84091 11.1C6.84091 13.0329 8.40795 14.6 10.3409 14.6C12.2739 14.6 13.8409 13.0329 13.8409 11.1C13.8409 9.16702 12.2739 7.59998 10.3409 7.59998ZM1.18448 8.23634C0.531572 8.23634 0 8.80414 0 9.50223V9.98634C0 11.0303 0.539442 11.9375 1.51944 12.5405C2.34385 13.048 3.44273 13.3272 4.61364 13.3272C5.31045 13.3272 6.02366 13.2241 6.67498 13.0122C6.52862 12.7319 6.41584 12.4319 6.33629 12.1185C5.79634 12.2884 5.19814 12.3727 4.61364 12.3727C2.85123 12.3727 0.954545 11.6259 0.954545 9.98634V9.50223C0.954545 9.33328 1.06007 9.19088 1.18448 9.19088H6.67374C6.85669 8.83993 7.08871 8.5192 7.36044 8.23634H1.18448ZM10.3409 8.55452C10.5165 8.55452 10.6591 8.69707 10.6591 8.8727V10.7818H12.5682C12.7438 10.7818 12.8864 10.9243 12.8864 11.1C12.8864 11.2756 12.7438 11.4182 12.5682 11.4182H10.6591V13.3272C10.6591 13.5029 10.5165 13.6454 10.3409 13.6454C10.1653 13.6454 10.0227 13.5029 10.0227 13.3272V11.4182H8.11364C7.938 11.4182 7.79545 11.2756 7.79545 11.1C7.79545 10.9243 7.938 10.7818 8.11364 10.7818H10.0227V8.8727C10.0227 8.69707 10.1653 8.55452 10.3409 8.55452Z" fill="black"/>
</svg>
