<svg width="14" height="15" viewBox="0 0 14 15" fill="none" xmlns="http://www.w3.org/2000/svg">
<path d="M6.6 0.599976C4.67322 0.599976 3.1 2.1732 3.1 4.09998C3.1 6.02675 4.67322 7.59998 6.6 7.59998C8.52678 7.59998 10.1 6.02675 10.1 4.09998C10.1 2.1732 8.52678 0.599976 6.6 0.599976ZM6.6 1.64998C7.95932 1.64998 9.05 2.74066 9.05 4.09998C9.05 5.45929 7.95932 6.54998 6.6 6.54998C5.24068 6.54998 4.15 5.45929 4.15 4.09998C4.15 2.74066 5.24068 1.64998 6.6 1.64998ZM2.39248 8.99998C1.62955 8.99998 1 9.62952 1 10.3925V10.925C1 12.1864 1.79774 13.1623 2.85732 13.7469C3.9169 14.3314 5.25884 14.6 6.6 14.6C7.94116 14.6 9.2831 14.3314 10.3427 13.7469C11.4021 13.1624 12.1997 12.1868 12.2 10.9257L12.2007 10.3931V10.3925C12.2007 9.62954 11.5705 8.99998 10.8075 8.99998H2.39248ZM2.39248 10.05H10.8075C11.0029 10.05 11.1507 10.1971 11.1507 10.3925L11.15 10.925C11.15 11.7635 10.679 12.3627 9.83545 12.8281C8.9919 13.2935 7.79634 13.55 6.6 13.55C5.40366 13.55 4.2081 13.2935 3.36455 12.8281C2.52101 12.3627 2.05 11.7635 2.05 10.925V10.3925C2.05 10.1971 2.19711 10.05 2.39248 10.05ZM7.825 10.75C7.75543 10.749 7.68636 10.7618 7.6218 10.7878C7.55724 10.8137 7.49849 10.8522 7.44894 10.9011C7.3994 10.9499 7.36006 11.0081 7.3332 11.0723C7.30635 11.1365 7.29252 11.2054 7.29252 11.275C7.29252 11.3446 7.30635 11.4134 7.3332 11.4776C7.36006 11.5418 7.3994 11.6 7.44894 11.6489C7.49849 11.6977 7.55724 11.7362 7.6218 11.7622C7.68636 11.7881 7.75543 11.801 7.825 11.8H9.225C9.29457 11.801 9.36364 11.7881 9.4282 11.7622C9.49276 11.7362 9.55151 11.6977 9.60106 11.6489C9.6506 11.6 9.68994 11.5418 9.7168 11.4776C9.74365 11.4134 9.75748 11.3446 9.75748 11.275C9.75748 11.2054 9.74365 11.1365 9.7168 11.0723C9.68994 11.0081 9.6506 10.9499 9.60106 10.9011C9.55151 10.8522 9.49276 10.8137 9.4282 10.7878C9.36364 10.7618 9.29457 10.749 9.225 10.75H7.825Z" fill="black"/>
</svg>
