<svg width="14" height="15" viewBox="0 0 14 15" fill="none" xmlns="http://www.w3.org/2000/svg">
<path d="M2.83333 0.599976C1.82674 0.599976 1 1.42672 1 2.43331C1 3.4399 1.82674 4.26664 2.83333 4.26664C3.83992 4.26664 4.66667 3.4399 4.66667 2.43331C4.66667 1.42672 3.83992 0.599976 2.83333 0.599976ZM2.83333 1.59998C3.29941 1.59998 3.66667 1.96723 3.66667 2.43331C3.66667 2.89938 3.29941 3.26664 2.83333 3.26664C2.36726 3.26664 2 2.89938 2 2.43331C2 1.96723 2.36726 1.59998 2.83333 1.59998ZM6.66667 2.26664C6.60796 2.26664 6.55159 2.26786 6.4974 2.26925C6.4305 2.26899 6.36423 2.28215 6.30251 2.30797C6.24079 2.33378 6.18488 2.37172 6.13808 2.41953C6.09129 2.46734 6.05457 2.52406 6.03009 2.58632C6.00561 2.64858 5.99387 2.71512 5.99557 2.78199C5.99727 2.84887 6.01237 2.91473 6.03998 2.97567C6.06759 3.0366 6.10714 3.09138 6.15631 3.13675C6.20547 3.18213 6.26323 3.21717 6.32618 3.23982C6.38913 3.26247 6.45599 3.27225 6.52279 3.2686C6.5726 3.26732 6.6207 3.26664 6.66667 3.26664C8.24098 3.26664 9.61273 4.10247 10.373 5.35323C10.4072 5.40937 10.452 5.45825 10.505 5.49707C10.558 5.53588 10.6181 5.56388 10.6819 5.57945C10.7457 5.59503 10.812 5.59788 10.8769 5.58785C10.9418 5.57781 11.0041 5.55509 11.0603 5.52097C11.1164 5.48685 11.1653 5.44201 11.2041 5.389C11.2429 5.336 11.2709 5.27587 11.2864 5.21205C11.302 5.14823 11.3048 5.08197 11.2948 5.01705C11.2847 4.95213 11.262 4.88983 11.2279 4.8337C10.2922 3.29446 8.59569 2.26664 6.66667 2.26664ZM1.16667 4.93331C0.528348 4.93331 0 5.46166 0 6.09998V6.59998C0 7.5892 0.995533 8.59998 2.83333 8.59998C4.67113 8.59998 5.66667 7.5892 5.66667 6.59998V6.09998C5.66667 5.46166 5.13832 4.93331 4.5 4.93331H1.16667ZM1.16667 5.93331H4.5C4.59835 5.93331 4.66667 6.00163 4.66667 6.09998V6.59998C4.66667 6.89942 4.32887 7.59998 2.83333 7.59998C1.3378 7.59998 1 6.89942 1 6.59998V6.09998C1 6.00163 1.06832 5.93331 1.16667 5.93331ZM11.1667 6.59998C10.1601 6.59998 9.33333 7.42672 9.33333 8.43331C9.33333 9.4399 10.1601 10.2666 11.1667 10.2666C12.1733 10.2666 13 9.4399 13 8.43331C13 7.42672 12.1733 6.59998 11.1667 6.59998ZM11.1667 7.59998C11.6327 7.59998 12 7.96723 12 8.43331C12 8.89938 11.6327 9.26664 11.1667 9.26664C10.7006 9.26664 10.3333 8.89938 10.3333 8.43331C10.3333 7.96723 10.7006 7.59998 11.1667 7.59998ZM2.21549 9.60063C2.12452 9.597 2.03428 9.61828 1.95452 9.66218C1.87475 9.70607 1.80848 9.7709 1.76285 9.84969C1.71723 9.92848 1.69398 10.0182 1.69562 10.1093C1.69725 10.2003 1.72371 10.2892 1.77214 10.3663C2.70782 11.9055 4.40431 12.9333 6.33333 12.9333C6.39204 12.9333 6.44842 12.9321 6.5026 12.9307C6.5695 12.931 6.63577 12.9178 6.69749 12.892C6.75921 12.8662 6.81512 12.8282 6.86192 12.7804C6.90871 12.7326 6.94543 12.6759 6.96991 12.6136C6.99439 12.5514 7.00613 12.4848 7.00443 12.418C7.00273 12.3511 6.98763 12.2852 6.96002 12.2243C6.93241 12.1634 6.89285 12.1086 6.84369 12.0632C6.79453 12.0178 6.73677 11.9828 6.67382 11.9601C6.61087 11.9375 6.54401 11.9277 6.47721 11.9314C6.4274 11.9326 6.3793 11.9333 6.33333 11.9333C4.75902 11.9333 3.38727 11.0975 2.62695 9.84672C2.58447 9.77452 2.52453 9.71415 2.45264 9.67115C2.38075 9.62815 2.2992 9.6039 2.21549 9.60063ZM9.5 10.9333C8.86168 10.9333 8.33333 11.4617 8.33333 12.1V12.6C8.33333 13.5892 9.32887 14.6 11.1667 14.6C13.0045 14.6 14 13.5892 14 12.6V12.1C14 11.4617 13.4717 10.9333 12.8333 10.9333H9.5ZM9.5 11.9333H12.8333C12.9317 11.9333 13 12.0016 13 12.1V12.6C13 12.8994 12.6622 13.6 11.1667 13.6C9.67113 13.6 9.33333 12.8994 9.33333 12.6V12.1C9.33333 12.0016 9.40165 11.9333 9.5 11.9333Z" fill="black"/>
</svg>
