<svg width="14" height="14" viewBox="0 0 14 14" fill="none" xmlns="http://www.w3.org/2000/svg">
<path d="M7 0.599976C6.34375 0.599976 5.78509 0.864972 5.42637 1.26853C5.06765 1.67209 4.9 2.18956 4.9 2.69998C4.9 3.21039 5.06765 3.72786 5.42637 4.13142C5.78509 4.53498 6.34375 4.79998 7 4.79998C7.65625 4.79998 8.21491 4.53498 8.57363 4.13142C8.93235 3.72786 9.1 3.21039 9.1 2.69998C9.1 2.18956 8.93235 1.67209 8.57363 1.26853C8.21491 0.864972 7.65625 0.599976 7 0.599976ZM2.45 1.29998C1.91042 1.29998 1.43925 1.52122 1.13887 1.85916C0.838482 2.19709 0.7 2.62706 0.7 3.04998C0.7 3.47289 0.838482 3.90286 1.13887 4.2408C1.43925 4.57873 1.91042 4.79998 2.45 4.79998C2.98958 4.79998 3.46075 4.57873 3.76113 4.2408C4.06152 3.90286 4.2 3.47289 4.2 3.04998C4.2 2.62706 4.06152 2.19709 3.76113 1.85916C3.46075 1.52122 2.98958 1.29998 2.45 1.29998ZM11.55 1.29998C11.0104 1.29998 10.5393 1.52122 10.2389 1.85916C9.93848 2.19709 9.8 2.62706 9.8 3.04998C9.8 3.47289 9.93848 3.90286 10.2389 4.2408C10.5393 4.57873 11.0104 4.79998 11.55 4.79998C12.0896 4.79998 12.5607 4.57873 12.8611 4.2408C13.1615 3.90286 13.3 3.47289 13.3 3.04998C13.3 2.62706 13.1615 2.19709 12.8611 1.85916C12.5607 1.52122 12.0896 1.29998 11.55 1.29998ZM7 1.64998C7.39375 1.64998 7.62259 1.77873 7.78887 1.9658C7.95515 2.15286 8.05 2.42289 8.05 2.69998C8.05 2.97706 7.95515 3.24709 7.78887 3.43416C7.62259 3.62122 7.39375 3.74998 7 3.74998C6.60625 3.74998 6.37741 3.62122 6.21113 3.43416C6.04485 3.24709 5.95 2.97706 5.95 2.69998C5.95 2.42289 6.04485 2.15286 6.21113 1.9658C6.37741 1.77873 6.60625 1.64998 7 1.64998ZM2.45 2.34998C2.72708 2.34998 2.86842 2.43498 2.97637 2.55642C3.08432 2.67786 3.15 2.86039 3.15 3.04998C3.15 3.23956 3.08432 3.42209 2.97637 3.54353C2.86842 3.66497 2.72708 3.74998 2.45 3.74998C2.17292 3.74998 2.03158 3.66497 1.92363 3.54353C1.81568 3.42209 1.75 3.23956 1.75 3.04998C1.75 2.86039 1.81568 2.67786 1.92363 2.55642C2.03158 2.43498 2.17292 2.34998 2.45 2.34998ZM11.55 2.34998C11.8271 2.34998 11.9684 2.43498 12.0764 2.55642C12.1843 2.67786 12.25 2.86039 12.25 3.04998C12.25 3.23956 12.1843 3.42209 12.0764 3.54353C11.9684 3.66497 11.8271 3.74998 11.55 3.74998C11.2729 3.74998 11.1316 3.66497 11.0236 3.54353C10.9157 3.42209 10.85 3.23956 10.85 3.04998C10.85 2.86039 10.9157 2.67786 11.0236 2.55642C11.1316 2.43498 11.2729 2.34998 11.55 2.34998ZM1.225 5.49998C0.5495 5.49998 0 6.04948 0 6.72498V8.99998C0 10.5435 1.2565 11.8 2.8 11.8C3.0485 11.8 3.29019 11.7686 3.52119 11.7056C3.37419 11.3906 3.26555 11.0543 3.20605 10.7008C3.07655 10.7323 2.94 10.75 2.8 10.75C1.834 10.75 1.05 9.96598 1.05 8.99998V6.72498C1.05 6.62698 1.127 6.54998 1.225 6.54998H3.16025C3.19525 6.15098 3.34942 5.79048 3.59092 5.49998H1.225ZM5.075 5.49998C4.40477 5.49998 3.85 6.05474 3.85 6.72498V10.05C3.85 11.7834 5.26655 13.2 7 13.2C8.73345 13.2 10.15 11.7834 10.15 10.05V6.72498C10.15 6.05474 9.59523 5.49998 8.925 5.49998H5.075ZM10.4091 5.49998C10.6506 5.79048 10.8047 6.15098 10.8397 6.54998H12.775C12.873 6.54998 12.95 6.62698 12.95 6.72498V8.99998C12.95 9.96598 12.166 10.75 11.2 10.75C11.06 10.75 10.9234 10.7323 10.7939 10.7008C10.7344 11.0543 10.6258 11.3906 10.4788 11.7056C10.7098 11.7686 10.9515 11.8 11.2 11.8C12.7435 11.8 14 10.5435 14 8.99998V6.72498C14 6.04948 13.4505 5.49998 12.775 5.49998H10.4091ZM5.075 6.54998H6.32119L6.64248 7.19255C6.64388 7.195 6.64586 7.19694 6.64727 7.19939C6.64691 7.20149 6.64556 7.20276 6.64521 7.20486L6.3041 9.17361C6.2915 9.24606 6.30989 9.32059 6.35469 9.37869L6.79219 9.94744C6.84154 10.0122 6.91845 10.05 7 10.05C7.08155 10.05 7.15846 10.0122 7.20781 9.94744L7.64531 9.37869C7.69011 9.32059 7.7085 9.24606 7.6959 9.17361L7.35478 7.20486C7.35443 7.20276 7.35343 7.20149 7.35273 7.19939C7.35413 7.19694 7.35612 7.19535 7.35752 7.19255L7.67812 6.54998H8.925C9.02827 6.54998 9.1 6.62171 9.1 6.72498V10.05C9.1 11.2159 8.16595 12.15 7 12.15C5.83405 12.15 4.9 11.2159 4.9 10.05V6.72498C4.9 6.62171 4.97173 6.54998 5.075 6.54998Z" fill="black"/>
</svg>
