<svg width="14" height="15" viewBox="0 0 14 15" fill="none" xmlns="http://www.w3.org/2000/svg">
<path d="M2.76792 0.599976C1.85986 0.599976 1.11188 1.34795 1.11188 2.25601V13.4802H0.559873C0.486725 13.4792 0.414101 13.4927 0.346221 13.52C0.278341 13.5473 0.21656 13.5878 0.164466 13.6391C0.112373 13.6905 0.0710078 13.7517 0.0427737 13.8192C0.0145396 13.8867 0 13.9591 0 14.0322C0 14.1054 0.0145396 14.1778 0.0427737 14.2453C0.0710078 14.3128 0.112373 14.374 0.164466 14.4254C0.21656 14.4767 0.278341 14.5172 0.346221 14.5445C0.414101 14.5718 0.486725 14.5853 0.559873 14.5843H13.4401C13.5133 14.5853 13.5859 14.5718 13.6538 14.5445C13.7217 14.5172 13.7834 14.4767 13.8355 14.4254C13.8876 14.374 13.929 14.3128 13.9572 14.2453C13.9855 14.1778 14 14.1054 14 14.0322C14 13.9591 13.9855 13.8867 13.9572 13.8192C13.929 13.7517 13.8876 13.6905 13.8355 13.6391C13.7834 13.5878 13.7217 13.5473 13.6538 13.52C13.5859 13.4927 13.5133 13.4792 13.4401 13.4802H12.8881V2.25601C12.8881 1.34795 12.1401 0.599976 11.2321 0.599976H2.76792ZM2.76792 1.704H11.2321C11.5436 1.704 11.7841 1.94449 11.7841 2.25601V13.4802H2.21591V2.25601C2.21591 1.94449 2.4564 1.704 2.76792 1.704ZM10.123 3.90413C9.97725 3.90758 9.83875 3.96856 9.73777 4.07376L9.20805 4.60349L8.67832 4.07376C8.62686 4.02078 8.5653 3.97865 8.49727 3.94988C8.42924 3.92112 8.35614 3.90629 8.28228 3.90629C8.17242 3.90632 8.06507 3.93912 7.97396 4.0005C7.88284 4.06188 7.81212 4.14905 7.77083 4.25085C7.72953 4.35266 7.71955 4.46446 7.74216 4.57197C7.76477 4.67948 7.81894 4.77779 7.89774 4.85434L8.42747 5.38407L7.89774 5.9138C7.84476 5.96467 7.80246 6.02559 7.77333 6.09301C7.74419 6.16042 7.7288 6.23297 7.72805 6.30641C7.72731 6.37985 7.74122 6.4527 7.76898 6.5207C7.79674 6.58869 7.83779 6.65046 7.88972 6.70239C7.94165 6.75433 8.00342 6.79537 8.07142 6.82313C8.13941 6.85089 8.21226 6.86481 8.2857 6.86406C8.35914 6.86332 8.43169 6.84792 8.49911 6.81879C8.56653 6.78965 8.62745 6.74735 8.67832 6.69438L9.20805 6.16465L9.73777 6.69438C9.78864 6.74735 9.84956 6.78965 9.91698 6.81879C9.9844 6.84792 10.0569 6.86332 10.1304 6.86406C10.2038 6.86481 10.2767 6.85089 10.3447 6.82313C10.4127 6.79537 10.4744 6.75433 10.5264 6.70239C10.5783 6.65046 10.6193 6.58869 10.6471 6.5207C10.6749 6.4527 10.6888 6.37985 10.688 6.30641C10.6873 6.23297 10.6719 6.16042 10.6428 6.09301C10.6136 6.02559 10.5713 5.96467 10.5184 5.9138L9.98862 5.38407L10.5184 4.85434C10.5986 4.7773 10.6537 4.67779 10.6765 4.56888C10.6992 4.45996 10.6885 4.34672 10.6458 4.24399C10.603 4.14126 10.5303 4.05384 10.437 3.9932C10.3437 3.93255 10.2343 3.90151 10.123 3.90413ZM3.87194 4.83206C3.79879 4.83103 3.72617 4.84454 3.65829 4.87182C3.59041 4.89909 3.52863 4.93959 3.47653 4.99095C3.42444 5.04231 3.38307 5.10351 3.35484 5.171C3.32661 5.23849 3.31207 5.31091 3.31207 5.38407C3.31207 5.45723 3.32661 5.52965 3.35484 5.59714C3.38307 5.66463 3.42444 5.72583 3.47653 5.77719C3.52863 5.82855 3.59041 5.86905 3.65829 5.89632C3.72617 5.9236 3.79879 5.93712 3.87194 5.93608H6.44799C6.52114 5.93712 6.59376 5.9236 6.66164 5.89632C6.72952 5.86905 6.7913 5.82855 6.8434 5.77719C6.89549 5.72583 6.93686 5.66463 6.96509 5.59714C6.99332 5.52965 7.00786 5.45723 7.00786 5.38407C7.00786 5.31091 6.99332 5.23849 6.96509 5.171C6.93686 5.10351 6.89549 5.04231 6.8434 4.99095C6.7913 4.93959 6.72952 4.89909 6.66164 4.87182C6.59376 4.84454 6.52114 4.83103 6.44799 4.83206H3.87194ZM8.28803 8.69614C8.14163 8.69615 8.00123 8.75431 7.89771 8.85783C7.79419 8.96135 7.73603 9.10175 7.73602 9.24815V11.0882C7.73603 11.2346 7.79419 11.375 7.89771 11.4785C8.00123 11.582 8.14163 11.6402 8.28803 11.6402H10.1281C10.2745 11.6402 10.4149 11.582 10.5184 11.4785C10.6219 11.375 10.6801 11.2346 10.6801 11.0882V9.24815C10.6801 9.10175 10.6219 8.96135 10.5184 8.85783C10.4149 8.75431 10.2745 8.69615 10.1281 8.69614H8.28803ZM3.87194 9.61615C3.79879 9.61512 3.72617 9.62863 3.65829 9.65591C3.59041 9.68319 3.52863 9.72368 3.47653 9.77505C3.42444 9.82641 3.38307 9.88761 3.35484 9.9551C3.32661 10.0226 3.31207 10.095 3.31207 10.1682C3.31207 10.2413 3.32661 10.3137 3.35484 10.3812C3.38307 10.4487 3.42444 10.5099 3.47653 10.5613C3.52863 10.6126 3.59041 10.6531 3.65829 10.6804C3.72617 10.7077 3.79879 10.7212 3.87194 10.7202H6.44799C6.52114 10.7212 6.59376 10.7077 6.66164 10.6804C6.72952 10.6531 6.7913 10.6126 6.8434 10.5613C6.89549 10.5099 6.93686 10.4487 6.96509 10.3812C6.99332 10.3137 7.00786 10.2413 7.00786 10.1682C7.00786 10.095 6.99332 10.0226 6.96509 9.9551C6.93686 9.88761 6.89549 9.82641 6.8434 9.77505C6.7913 9.72368 6.72952 9.68319 6.66164 9.65591C6.59376 9.62863 6.52114 9.61512 6.44799 9.61615H3.87194ZM8.84004 9.80016H9.57605V10.5362H8.84004V9.80016Z" fill="black"/>
</svg>
