<svg width="14" height="14" viewBox="0 0 14 14" fill="none" xmlns="http://www.w3.org/2000/svg">
<path d="M14 10.6667C14 11.403 13.403 12 12.6667 12H1.33333C0.597 12 0 11.403 0 10.6667V3.33333C0 2.597 0.597 2 1.33333 2H12.6667C13.403 2 14 2.597 14 3.33333V10.6667Z" fill="#1976D2"/>
<path d="M5.93544 6L5.25182 7.338L4.57144 6H3.69953V7.92171L2.72797 6H1.99226L1 7.99457H1.58721L1.80429 7.54943H2.91465L3.13529 7.99457H4.25632V6.51314L5.00012 7.99457H5.50579L6.26641 6.53886V7.99457H6.82353V6H5.93544ZM2.01426 7.11857L2.34621 6.42143L2.69109 7.11857H2.01426ZM10.9916 6.97514L12 6.00514H11.2827L10.6376 6.62343L10.0135 6H7.79412V7.99486H9.94073L10.6176 7.33457L11.2776 8H11.9926L10.9916 6.97514ZM9.64729 7.576H8.34962V7.18143H9.59132V6.80343H8.34962V6.42971L9.71944 6.43314L10.2672 6.97514L9.64729 7.576Z" fill="white"/>
</svg>
