<svg width="14" height="14" viewBox="0 0 14 14" fill="none" xmlns="http://www.w3.org/2000/svg">
<path d="M5.85615 0.420386C5.85064 0.401081 5.84748 0.366804 5.84748 0.341588C5.84748 0.152868 6.00035 0 6.18907 0C6.26945 0 6.32539 0.0299431 6.34746 0.0386108C6.76508 0.201722 9.63254 1.55389 8.96945 5.46344C9.93236 4.8831 9.58801 3.75629 9.90321 3.75629C10.0214 3.75629 10.0699 3.80042 10.1424 3.90404C11.1959 5.4075 11.9937 7.20054 11.9937 8.87815C11.9937 11.707 9.7007 14 6.87186 14C3.76131 14 1.75 11.38 1.75 8.87815C1.75 4.71683 6.65437 3.94856 5.85615 0.420386Z" fill="url(#paint0_linear_1490_9967)"/>
<path d="M6.74028 5.0123C6.74028 5.0123 6.65321 4.93823 6.52713 4.93823C6.33684 4.93823 6.18239 5.09268 6.18239 5.28297C6.52713 7.35141 4.11395 8.04089 4.11395 10.4541C4.11395 11.9772 5.34871 13.212 6.87187 13.212C8.39504 13.212 9.6298 11.9772 9.6298 10.4541C9.6298 8.48886 7.899 5.86608 6.74028 5.0123Z" fill="url(#paint1_linear_1490_9967)"/>
<defs>
<linearGradient id="paint0_linear_1490_9967" x1="5.27817" y1="0.0862835" x2="7.77567" y2="13.7979" gradientUnits="userSpaceOnUse">
<stop stop-color="#F44F5A"/>
<stop offset="0.443" stop-color="#EE3D4A"/>
<stop offset="1" stop-color="#E52030"/>
</linearGradient>
<linearGradient id="paint1_linear_1490_9967" x1="5.74546" y1="4.25663" x2="7.8596" y2="15.8021" gradientUnits="userSpaceOnUse">
<stop stop-color="#FED100"/>
<stop offset="1" stop-color="#E36001"/>
</linearGradient>
</defs>
</svg>
