<svg width="14" height="14" viewBox="0 0 14 14" fill="none" xmlns="http://www.w3.org/2000/svg">
<g clip-path="url(#clip0_210_5303)">
<path d="M1.87085 6.34146L13.0954 1.88031V10.083C13.0954 10.4275 12.8164 10.7066 12.4719 10.7066H1.87085V6.34146Z" fill="url(#paint0_linear_210_5303)"/>
<path d="M0 1.88031V10.083C0 10.4275 0.279056 10.7066 0.623589 10.7066H12.4718C12.6249 10.7066 12.7633 10.6492 12.8718 10.5575L0 1.88031Z" fill="url(#paint1_linear_210_5303)"/>
<path opacity="0.05" d="M0 1.66455H13.0954V2.19211L7.69509 6.38574C7.02005 6.90987 6.07531 6.90987 5.40028 6.38574L0 2.19211V1.66455Z" fill="black"/>
<path opacity="0.07" d="M0 1.50865H13.0954V2.03621L7.47246 6.12446C6.92308 6.53104 6.17228 6.53104 5.6229 6.12446L0 2.03621V1.50865Z" fill="black"/>
<path d="M0.623589 0.729168H12.4718C12.8163 0.729168 13.0954 1.00822 13.0954 1.35276V1.88031L7.24984 5.86317C6.82612 6.1519 6.26894 6.1519 5.84552 5.86317L0 1.88031V1.35276C0 1.00822 0.279056 0.729168 0.623589 0.729168Z" fill="#50E6FF"/>
<path opacity="0.05" d="M12.4715 10.7066C12.5114 10.7066 12.5504 10.7022 12.5881 10.6947C12.6131 10.6901 12.6365 10.682 12.6602 10.6742C12.6708 10.6707 12.682 10.6682 12.6926 10.6642C12.7241 10.6523 12.7534 10.6371 12.7824 10.6205C12.7836 10.6199 12.7849 10.6193 12.7858 10.6187C12.9242 10.5373 13.029 10.4057 13.073 10.2479H12.6489V7.75358C12.6489 7.3523 12.3225 7.02616 11.9215 7.02616H11.09C10.689 7.02616 10.3625 7.35261 10.3625 7.75358V10.2479H9.26378C9.03492 10.2479 8.83007 10.3845 8.74277 10.5965C8.72812 10.6324 8.7225 10.6695 8.71533 10.7066H12.4715Z" fill="black"/>
<path opacity="0.07" d="M12.4717 10.7066C12.5116 10.7066 12.5506 10.7022 12.5883 10.6947C12.6132 10.6901 12.6366 10.682 12.6603 10.6742C12.6709 10.6707 12.6821 10.6682 12.6927 10.6642C12.7242 10.6523 12.7535 10.6371 12.7825 10.6205C12.7838 10.6199 12.785 10.6193 12.786 10.6187C12.8755 10.5663 12.9497 10.4918 13.0039 10.4038H12.4932V7.75358C12.4932 7.43836 12.2369 7.18206 11.9217 7.18206H11.0901C10.7749 7.18206 10.5186 7.43836 10.5186 7.75358V10.4038H9.26394C9.09838 10.4038 8.95028 10.5027 8.88698 10.6558C8.88012 10.6723 8.87888 10.6894 8.87451 10.7063L12.4717 10.7066Z" fill="black"/>
<path d="M9.26359 10.56H10.6742V7.75389C10.6742 7.52441 10.8603 7.33827 11.0898 7.33827H11.9213C12.1508 7.33827 12.337 7.52441 12.337 7.75389V10.56H13.7475C13.972 10.56 14.0842 10.8316 13.9255 10.99L11.8618 13.0538C11.665 13.2505 11.3458 13.2505 11.1493 13.0538L9.08556 10.99C8.92686 10.8313 9.0391 10.56 9.26359 10.56Z" fill="url(#paint2_linear_210_5303)"/>
</g>
<defs>
<linearGradient id="paint0_linear_210_5303" x1="5.77327" y1="3.73424" x2="13.28" y2="14.9697" gradientUnits="userSpaceOnUse">
<stop stop-color="#28AFEA"/>
<stop offset="1" stop-color="#0B88DA"/>
</linearGradient>
<linearGradient id="paint1_linear_210_5303" x1="-0.496377" y1="5.84571" x2="10.3924" y2="12.6285" gradientUnits="userSpaceOnUse">
<stop stop-color="#28AFEA"/>
<stop offset="1" stop-color="#0B88DA"/>
</linearGradient>
<linearGradient id="paint2_linear_210_5303" x1="11.5057" y1="13.1894" x2="11.5057" y2="7.29712" gradientUnits="userSpaceOnUse">
<stop stop-color="#C965EB"/>
<stop offset="1" stop-color="#C767E5"/>
</linearGradient>
<clipPath id="clip0_210_5303">
<rect width="14" height="14" fill="white"/>
</clipPath>
</defs>
</svg>
