<svg width="14" height="14" viewBox="0 0 14 14" fill="none" xmlns="http://www.w3.org/2000/svg">
<path d="M14 3.55005H8.39999V6.70005H14V3.55005Z" fill="#21A366"/>
<path d="M14 6.70001H2.79999V12.3C2.79999 12.6868 3.11324 13 3.49999 13H13.3C13.6867 13 14 12.6868 14 12.3V6.70001Z" fill="#185C37"/>
<path d="M14 6.70001H8.39999V9.85001H14V6.70001Z" fill="#107C42"/>
<path d="M8.39999 3.55005H2.79999V6.70005H8.39999V3.55005Z" fill="#3FA071"/>
<path d="M13.3 0.400024H8.39999V3.55002H14V1.10002C14 0.713274 13.6867 0.400024 13.3 0.400024Z" fill="#33C481"/>
<path d="M3.49999 0.400024H8.39999V3.55002H2.79999V1.10002C2.79999 0.713274 3.11324 0.400024 3.49999 0.400024Z" fill="#21A366"/>
<path opacity="0.05" d="M6.41164 2.85004H2.79999V11.25H6.41164C7.12319 11.25 7.69999 10.6732 7.69999 9.96169V4.13839C7.69999 3.42684 7.12319 2.85004 6.41164 2.85004Z" fill="black"/>
<path opacity="0.07" d="M6.37454 10.9H2.79999V2.96655H6.37454C6.97794 2.96655 7.46689 3.4555 7.46689 4.0589V9.80765C7.46654 10.4111 6.97759 10.9 6.37454 10.9Z" fill="black"/>
<path opacity="0.09" d="M6.33709 10.55H2.79999V3.0835H6.33709C6.83199 3.0835 7.23309 3.4846 7.23309 3.9795V9.65405C7.23344 10.1489 6.83199 10.55 6.33709 10.55Z" fill="black"/>
<path d="M6.3 10.2H0.7C0.31325 10.2 0 9.88676 0 9.50001V3.90001C0 3.51326 0.31325 3.20001 0.7 3.20001H6.3C6.68675 3.20001 7 3.51326 7 3.90001V9.50001C7 9.88676 6.68675 10.2 6.3 10.2Z" fill="url(#paint0_linear_310_4138)"/>
<path d="M2.03246 4.95001H2.86756L3.54516 6.26391L4.26126 4.95001H5.04141L3.96656 6.70001L5.06591 8.45001H4.24306L3.50456 7.07451L2.76921 8.45001H1.93411L3.05166 6.69371L2.03246 4.95001Z" fill="white"/>
<defs>
<linearGradient id="paint0_linear_310_4138" x1="0.25375" y1="3.45376" x2="6.66925" y2="9.86926" gradientUnits="userSpaceOnUse">
<stop stop-color="#18884F"/>
<stop offset="1" stop-color="#0B6731"/>
</linearGradient>
</defs>
</svg>
