<svg width="14" height="14" viewBox="0 0 14 14" fill="none" xmlns="http://www.w3.org/2000/svg">
<path d="M13.2222 0H0.777778C0.348056 0 0 0.348056 0 0.777778V12.4444C0 12.8742 0.348056 13.2222 0.777778 13.2222H13.2222C13.6519 13.2222 14 12.8742 14 12.4444V0.777778C14 0.348056 13.6519 0 13.2222 0Z" fill="#50E6FF"/>
<path d="M10.1364 6.63639C9.68958 6.18956 8.9678 6.17983 8.50891 6.61422L4.66669 10.2542V14H13.2222C13.652 14 14 13.6519 14 13.2222V10.5L10.1364 6.63639Z" fill="url(#paint0_linear_310_4140)"/>
<path d="M9.5278 4.66668C10.2795 4.66668 10.8889 4.05729 10.8889 3.30557C10.8889 2.55385 10.2795 1.94446 9.5278 1.94446C8.77608 1.94446 8.16669 2.55385 8.16669 3.30557C8.16669 4.05729 8.77608 4.66668 9.5278 4.66668Z" fill="#FFF8DE"/>
<path d="M0.777778 14H13.2222C13.5376 14 13.8083 13.8114 13.93 13.5411L5.46972 5.08085C5.02289 4.63401 4.30111 4.62429 3.84222 5.05868L0 8.69868V13.2222C0 13.652 0.348056 14 0.777778 14Z" fill="url(#paint1_linear_310_4140)"/>
<defs>
<linearGradient id="paint0_linear_310_4140" x1="4.66669" y1="10.1473" x2="14" y2="10.1473" gradientUnits="userSpaceOnUse">
<stop stop-color="#3CCBF4"/>
<stop offset="1" stop-color="#1FA0E5"/>
</linearGradient>
<linearGradient id="paint1_linear_310_4140" x1="6.965" y1="4.73901" x2="6.965" y2="14" gradientUnits="userSpaceOnUse">
<stop stop-color="#28AFEA"/>
<stop offset="1" stop-color="#0B88DA"/>
</linearGradient>
</defs>
</svg>
