<svg width="14" height="14" viewBox="0 0 14 14" fill="none" xmlns="http://www.w3.org/2000/svg">
<g clip-path="url(#clip0_205_5204)">
<path d="M10.8936 13.9926L3.11997 14C1.40976 14.0016 0.00932973 12.6038 0.00738631 10.8936L1.2958e-06 3.11997C-0.00155344 1.40976 1.39615 0.00932973 3.10636 0.00738631L10.88 1.2958e-06C12.5902 -0.00155344 13.9907 1.39615 13.9926 3.10636L14 10.88C14.0019 12.5906 12.6038 13.9911 10.8936 13.9926Z" fill="url(#paint0_radial_205_5204)"/>
<path d="M10.8936 13.9926L3.11997 14C1.40976 14.0016 0.00932973 12.6038 0.00738631 10.8936L1.2958e-06 3.11997C-0.00155344 1.40976 1.39615 0.00932973 3.10636 0.00738631L10.88 1.2958e-06C12.5902 -0.00155344 13.9907 1.39615 13.9926 3.10636L14 10.88C14.0019 12.5906 12.6038 13.9911 10.8936 13.9926Z" fill="url(#paint1_radial_205_5204)"/>
<path d="M7.00008 9.72098C5.50015 9.72098 4.2793 8.50051 4.2793 7.00019C4.2793 5.49987 5.50015 4.27941 7.00008 4.27941C8.50001 4.27941 9.72087 5.49987 9.72087 7.00019C9.72087 8.50051 8.50001 9.72098 7.00008 9.72098ZM7.00008 5.05677C5.92848 5.05677 5.05666 5.92859 5.05666 7.00019C5.05666 8.07179 5.92848 8.94361 7.00008 8.94361C8.07168 8.94361 8.9435 8.07179 8.9435 7.00019C8.9435 5.92859 8.07168 5.05677 7.00008 5.05677Z" fill="white"/>
<path d="M9.9153 4.66809C10.2373 4.66809 10.4983 4.40706 10.4983 4.08507C10.4983 3.76307 10.2373 3.50204 9.9153 3.50204C9.5933 3.50204 9.33228 3.76307 9.33228 4.08507C9.33228 4.40706 9.5933 4.66809 9.9153 4.66809Z" fill="white"/>
<path d="M9.33226 12.0531H4.66805C3.16812 12.0531 1.94727 10.8326 1.94727 9.3323V4.66809C1.94727 3.16777 3.16812 1.94731 4.66805 1.94731H9.33226C10.8322 1.94731 12.053 3.16777 12.053 4.66809V9.3323C12.053 10.8326 10.8322 12.0531 9.33226 12.0531ZM4.66805 2.72468C3.59645 2.72468 2.72463 3.59649 2.72463 4.66809V9.3323C2.72463 10.4039 3.59645 11.2757 4.66805 11.2757H9.33226C10.4039 11.2757 11.2757 10.4039 11.2757 9.3323V4.66809C11.2757 3.59649 10.4039 2.72468 9.33226 2.72468H4.66805Z" fill="white"/>
</g>
<defs>
<radialGradient id="paint0_radial_205_5204" cx="0" cy="0" r="1" gradientUnits="userSpaceOnUse" gradientTransform="translate(5.20448 14.0101) scale(17.4515)">
<stop stop-color="#FFDD55"/>
<stop offset="0.328" stop-color="#FF543F"/>
<stop offset="0.348" stop-color="#FC5245"/>
<stop offset="0.504" stop-color="#E64771"/>
<stop offset="0.643" stop-color="#D53E91"/>
<stop offset="0.761" stop-color="#CC39A4"/>
<stop offset="0.841" stop-color="#C837AB"/>
</radialGradient>
<radialGradient id="paint1_radial_205_5204" cx="0" cy="0" r="1" gradientUnits="userSpaceOnUse" gradientTransform="translate(2.25281 -0.174789) scale(11.5878 7.72097)">
<stop stop-color="#4168C9"/>
<stop offset="0.999" stop-color="#4168C9" stop-opacity="0"/>
</radialGradient>
<clipPath id="clip0_205_5204">
<rect width="14" height="14" fill="white"/>
</clipPath>
</defs>
</svg>
