<svg width="14" height="14" viewBox="0 0 14 14" fill="none" xmlns="http://www.w3.org/2000/svg">
<path d="M14 10.6667C14 11.403 13.403 12 12.6667 12H1.33333C0.597 12 0 11.403 0 10.6667V3.33333C0 2.597 0.597 2 1.33333 2H12.6667C13.403 2 14 2.597 14 3.33333V10.6667Z" fill="#3F51B5"/>
<path d="M9.00002 3.82666C8.11597 3.82666 7.26812 4.17785 6.643 4.80297C6.01788 5.42809 5.66669 6.27594 5.66669 7.15999C5.66669 8.04405 6.01788 8.89189 6.643 9.51702C7.26812 10.1421 8.11597 10.4933 9.00002 10.4933C9.88408 10.4933 10.7319 10.1421 11.357 9.51702C11.9822 8.89189 12.3334 8.04405 12.3334 7.15999C12.3334 6.27594 11.9822 5.42809 11.357 4.80297C10.7319 4.17785 9.88408 3.82666 9.00002 3.82666Z" fill="#FFC107"/>
<path d="M6.33798 9.15999C6.18331 8.95433 6.05031 8.73199 5.94598 8.49333H7.72098C7.81365 8.28133 7.88631 8.05866 7.93331 7.82666H5.73398C5.68998 7.61133 5.66665 7.38866 5.66665 7.15999H7.99998C7.99998 6.93133 7.97665 6.70866 7.93298 6.49333H5.73365C5.78098 6.26133 5.85331 6.03866 5.94598 5.82666H7.72098C7.61665 5.58799 7.48398 5.36566 7.32898 5.15999H6.33798C6.48365 4.96666 6.64798 4.78599 6.83165 4.62833C6.24898 4.12966 5.49365 3.82666 4.66665 3.82666C2.82565 3.82666 1.33331 5.31899 1.33331 7.15999C1.33331 9.00099 2.82565 10.4933 4.66665 10.4933C5.75631 10.4933 6.72065 9.96833 7.32865 9.15999H6.33798Z" fill="#FF3D00"/>
</svg>
