<svg width="14" height="14" viewBox="0 0 14 14" fill="none" xmlns="http://www.w3.org/2000/svg">
<g clip-path="url(#clip0_209_5267)">
<path d="M0.930262 0.690213C0.930262 0.690213 0.813103 2.06554 1.34953 3.14318C1.88595 4.22082 3.36296 6.43725 3.94507 6.06551C3.67096 5.70225 3.85481 5.2933 4.06112 5.09398C4.19486 4.96466 4.82266 4.3715 5.24708 3.97066C5.48287 3.74813 5.5385 3.39481 5.38266 3.11039L3.8806 0.370053C3.71775 0.0727355 3.36812 -0.0683708 3.04464 0.0322088L0.930262 0.690213Z" fill="#1A9BA1"/>
<path d="M13.1644 12.9245C13.1644 12.9245 11.7891 13.0416 10.7114 12.5052C9.6338 11.9688 7.41736 10.4918 7.7891 9.90964C8.15237 10.1837 8.56132 9.99991 8.76064 9.79359C8.88995 9.65985 9.48311 9.03206 9.88396 8.60763C10.1065 8.37184 10.4598 8.31621 10.7442 8.47205L13.4846 9.97412C13.7819 10.137 13.923 10.4866 13.8224 10.8101L13.1644 12.9245Z" fill="#1A9BA1"/>
<path d="M5.74399 8.11063C7.92358 10.2902 10.4609 11.8877 13.1648 12.9241L12.7706 13.6049C12.5775 13.9384 12.1689 14.0887 11.8108 13.9465C9.19795 12.9079 6.74831 11.3347 4.63393 9.22069C2.51954 7.10668 0.946375 4.65666 -0.0922107 2.0438C-0.234422 1.68606 -0.0841054 1.27748 0.249318 1.08443L0.930164 0.690216C1.96691 3.39371 3.56439 5.93141 5.74399 8.11063Z" fill="#37C6D0"/>
<path d="M11.644 0.782319V1.84227H7.95201H7.5648C7.37616 1.84227 7.2229 1.99554 7.2229 2.18454V3.34249C7.2229 3.53113 7.37616 3.68439 7.5648 3.68439H10.9068H11.644V4.74471C11.644 4.90424 11.8326 4.98824 11.9512 4.88177L14.0572 2.98881C14.1913 2.86833 14.1913 2.65833 14.0572 2.53823L11.9512 0.645266C11.8326 0.538791 11.644 0.622792 11.644 0.782319Z" fill="url(#paint0_linear_209_5267)"/>
</g>
<defs>
<linearGradient id="paint0_linear_209_5267" x1="8.73381" y1="1.04501" x2="11.7505" y2="4.15376" gradientUnits="userSpaceOnUse">
<stop stop-color="#1FA3E5"/>
<stop offset="1" stop-color="#007AD9"/>
</linearGradient>
<clipPath id="clip0_209_5267">
<rect width="14" height="14" fill="white"/>
</clipPath>
</defs>
</svg>
