<svg width="14" height="14" viewBox="0 0 14 14" fill="none" xmlns="http://www.w3.org/2000/svg">
<path d="M12.4444 14H1.55556C0.6965 14 0 13.3035 0 12.4444V1.55556C0 0.6965 0.6965 0 1.55556 0H12.4444C13.3035 0 14 0.6965 14 1.55556V12.4444C14 13.3035 13.3035 14 12.4444 14Z" fill="#B30B00"/>
<path d="M11.3715 8.08851C10.7135 7.40523 8.91605 7.68367 8.48593 7.73423C7.85321 7.12678 7.42271 6.39256 7.27105 6.1394C7.49894 5.45612 7.6506 4.77245 7.67588 4.03862C7.67588 3.4059 7.42271 2.72223 6.71416 2.72223C6.46099 2.72223 6.2331 2.87428 6.10671 3.07651C5.80299 3.60812 5.92938 4.67134 6.41043 5.75945C6.13199 6.54423 5.87882 7.30334 5.17027 8.64501C4.43605 8.94873 2.89216 9.65767 2.76577 10.4168C2.71521 10.6447 2.79105 10.8726 2.96838 11.0495C3.14532 11.202 3.37282 11.2778 3.60071 11.2778C4.53716 11.2778 5.44832 9.98667 6.08144 8.89856C6.61305 8.72123 7.44838 8.46806 8.28371 8.3164C9.27071 9.17701 10.1313 9.3034 10.5871 9.3034C11.1945 9.3034 11.4224 9.05023 11.4983 8.82234C11.6247 8.56956 11.5488 8.29112 11.3715 8.08851ZM10.7388 8.51862C10.7135 8.69595 10.4856 8.8729 10.0808 8.77178C9.59971 8.6454 9.1696 8.41751 8.78966 8.11378C9.11866 8.06323 9.85288 7.9874 10.3845 8.08851C10.5871 8.13906 10.7893 8.26545 10.7388 8.51862ZM6.51155 3.3044C6.5621 3.22856 6.63793 3.17801 6.71416 3.17801C6.94205 3.17801 6.9926 3.45645 6.9926 3.68434C6.96732 4.21595 6.86621 4.74756 6.68888 5.2539C6.30932 4.24084 6.38516 3.53228 6.51155 3.3044ZM6.46099 8.2149C6.6636 7.81006 6.94205 7.10112 7.04316 6.7974C7.27105 7.17695 7.6506 7.63273 7.85321 7.83534C7.85321 7.86062 7.06844 8.01267 6.46099 8.2149ZM4.96766 9.22756C4.38549 10.1893 3.77805 10.7971 3.44905 10.7971C3.39849 10.7971 3.34794 10.7718 3.29699 10.7466C3.22116 10.696 3.19588 10.6202 3.22116 10.5187C3.29699 10.164 3.95499 9.68295 4.96766 9.22756Z" fill="white"/>
</svg>
