<svg width="14" height="14" viewBox="0 0 14 14" fill="none" xmlns="http://www.w3.org/2000/svg">
<path d="M0.181152 10.8572C0.181152 10.8572 0.882425 10.0255 1.78192 9.72352C2.68142 9.42189 4.74006 9.00952 4.85747 9.54121C4.50206 9.59084 4.37669 9.92143 4.38051 10.1473C4.38306 10.294 4.40215 10.9746 4.41551 11.4347C4.42283 11.6899 4.25674 11.918 4.01174 11.9896L1.64701 12.6797C1.39056 12.7545 1.11692 12.6384 0.992833 12.402L0.181152 10.8572Z" fill="#1A9BA1"/>
<path d="M13.8191 10.8572C13.8191 10.8572 13.1179 10.0255 12.2184 9.72352C11.3189 9.42189 9.26023 9.00952 9.14282 9.54121C9.49823 9.59084 9.6236 9.92143 9.61978 10.1473C9.61723 10.294 9.59814 10.9746 9.58478 11.4347C9.57746 11.6899 9.74355 11.918 9.98855 11.9896L12.3533 12.6797C12.6097 12.7545 12.8834 12.6384 13.0075 12.402L13.8191 10.8572Z" fill="#1A9BA1"/>
<path d="M7.00016 9.40407C9.42979 9.40407 11.7347 9.92811 13.8191 10.8572L13.9788 10.2581C14.0571 9.9647 13.913 9.6532 13.6342 9.53293C11.5992 8.65507 9.35725 8.16666 7.00016 8.16666C4.64307 8.16666 2.40116 8.65507 0.365756 9.53261C0.0870288 9.65289 -0.0571074 9.96439 0.0211653 10.2577L0.180892 10.8569C2.26562 9.9278 4.57052 9.40407 7.00016 9.40407Z" fill="#37C6D0"/>
<path d="M7.31831 4.98485H6.68195C6.50631 4.98485 6.36377 4.8423 6.36377 4.66666V1.48485C6.36377 1.30921 6.50631 1.16667 6.68195 1.16667H7.31831C7.49395 1.16667 7.6365 1.30921 7.6365 1.48485V4.66666C7.6365 4.8423 7.49395 4.98485 7.31831 4.98485Z" fill="#007AD9"/>
<path d="M11.103 6.08162L10.5338 5.79684C10.3766 5.71825 10.313 5.52703 10.3916 5.36984L11.6977 2.75757C11.7763 2.60039 11.9675 2.53676 12.1247 2.61535L12.6939 2.90012C12.8511 2.97871 12.9148 3.16994 12.8362 3.32712L11.5297 5.93939C11.4511 6.09657 11.2602 6.16021 11.103 6.08162Z" fill="#007AD9"/>
<path d="M2.47585 6.02753L0.919625 3.69335C0.822261 3.54698 0.861716 3.34971 1.00776 3.25203L1.53722 2.89917C1.68358 2.8018 1.88085 2.84126 1.97853 2.9873L3.53476 5.32148C3.63212 5.46785 3.59267 5.66512 3.44662 5.7628L2.91717 6.11566C2.77081 6.21335 2.57353 6.17389 2.47585 6.02753Z" fill="#007AD9"/>
</svg>
