<svg width="14" height="14" viewBox="0 0 14 14" fill="none" xmlns="http://www.w3.org/2000/svg">
<g clip-path="url(#clip0_209_5260)">
<path d="M1.07601 0.690213C1.07601 0.690213 0.958855 2.06554 1.49528 3.14318C2.0317 4.22082 3.50871 6.43725 4.09082 6.06551C3.81672 5.70225 4.00056 5.2933 4.20688 5.09398C4.34061 4.96466 4.96841 4.3715 5.39283 3.97066C5.62862 3.74813 5.68425 3.39481 5.52841 3.11039L4.02635 0.370053C3.86351 0.0727355 3.51387 -0.0683708 3.1904 0.0322088L1.07601 0.690213Z" fill="#1A9BA1"/>
<path d="M13.3102 12.9245C13.3102 12.9245 11.9348 13.0416 10.8572 12.5052C9.77955 11.9688 7.56312 10.4918 7.93486 9.90964C8.29812 10.1837 8.70707 9.99991 8.90639 9.79359C9.0357 9.65985 9.62887 9.03206 10.0297 8.60763C10.2522 8.37184 10.6056 8.31621 10.89 8.47205L13.6303 9.97412C13.9276 10.137 14.0687 10.4866 13.9682 10.8101L13.3102 12.9245Z" fill="#1A9BA1"/>
<path d="M5.88974 8.11063C8.06933 10.2902 10.6067 11.8877 13.3105 12.9241L12.9163 13.6049C12.7233 13.9384 12.3147 14.0887 11.9566 13.9465C9.34371 12.9079 6.89406 11.3347 4.77968 9.22069C2.6653 7.10668 1.09213 4.65666 0.0535412 2.0438C-0.0886702 1.68606 0.0616466 1.27748 0.39507 1.08443L1.07592 0.690212C2.11266 3.3937 3.71014 5.9314 5.88974 8.11063Z" fill="#37C6D0"/>
</g>
<defs>
<clipPath id="clip0_209_5260">
<rect width="14" height="14" fill="white"/>
</clipPath>
</defs>
</svg>
