<svg width="14" height="14" viewBox="0 0 14 14" fill="none" xmlns="http://www.w3.org/2000/svg">
<path d="M1.40002 7.29999C1.40002 10.7793 4.22067 13.6 7.70002 13.6C11.1794 13.6 14 10.7793 14 7.29999H7.70002H1.40002Z" fill="#D35230"/>
<path d="M7.70001 1V7.3H14C14 3.82065 11.1794 1 7.70001 1Z" fill="#FF8F6B"/>
<path d="M7.70002 1C4.22067 1 1.40002 3.82065 1.40002 7.3H7.70002V1Z" fill="#ED6C47"/>
<path opacity="0.05" d="M7.70002 4.73836C7.70002 4.02681 7.12322 3.45001 6.41167 3.45001H2.72092C1.89597 4.51541 1.40002 5.84821 1.40002 7.30001C1.40002 9.09061 2.15077 10.7031 3.34987 11.85H6.41132C7.12323 11.85 7.70002 11.2732 7.70002 10.5617V4.73836Z" fill="black"/>
<path opacity="0.07" d="M6.37457 3.56653H2.63377C1.86202 4.61233 1.40002 5.90068 1.40002 7.29998C1.40002 8.91593 2.01357 10.3849 3.01387 11.5H6.37457C6.97797 11.5 7.46692 11.011 7.46692 10.4076V4.65888C7.46657 4.05583 6.97762 3.56653 6.37457 3.56653Z" fill="black"/>
<path opacity="0.09" d="M6.33713 3.68347H2.54662C1.82632 4.70757 1.40002 5.95287 1.40002 7.30002C1.40002 8.75182 1.89597 10.0846 2.72092 11.15H6.33713C6.83203 11.15 7.23312 10.7489 7.23312 10.254V4.57947C7.23347 4.08457 6.83203 3.68347 6.33713 3.68347Z" fill="black"/>
<path d="M6.3 10.8H0.7C0.31325 10.8 0 10.4867 0 10.1V4.49999C0 4.11324 0.31325 3.79999 0.7 3.79999H6.3C6.68675 3.79999 7 4.11324 7 4.49999V10.1C7 10.4867 6.68675 10.8 6.3 10.8Z" fill="url(#paint0_linear_310_4141)"/>
<path d="M3.73553 5.5542H2.09998V9.0542H2.80838V7.82185H3.60498C4.26158 7.82185 4.79393 7.2895 4.79393 6.6329V6.6126C4.79393 6.0281 4.32003 5.5542 3.73553 5.5542ZM4.04948 6.7253C4.04948 7.02595 3.80553 7.2699 3.50488 7.2699H2.80838V6.10615H3.50488C3.80553 6.10615 4.04948 6.3501 4.04948 6.65075V6.7253Z" fill="white"/>
<defs>
<linearGradient id="paint0_linear_310_4141" x1="0.2051" y1="4.00509" x2="6.5695" y2="10.3695" gradientUnits="userSpaceOnUse">
<stop stop-color="#CA4E2A"/>
<stop offset="1" stop-color="#B63016"/>
</linearGradient>
</defs>
</svg>
