<svg width="14" height="14" viewBox="0 0 14 14" fill="none" xmlns="http://www.w3.org/2000/svg">
<path d="M1.87085 6.63313L13.0954 2.17198V10.3747C13.0954 10.7192 12.8164 10.9983 12.4719 10.9983H1.87085V6.63313Z" fill="url(#paint0_linear_210_5301)"/>
<path d="M0 2.17198V10.3747C0 10.7192 0.279056 10.9983 0.623589 10.9983H12.4718C12.6249 10.9983 12.7633 10.9409 12.8718 10.8492L0 2.17198Z" fill="url(#paint1_linear_210_5301)"/>
<path opacity="0.05" d="M0 1.95621H13.0954V2.48377L7.69509 6.67741C7.02005 7.20153 6.07531 7.20153 5.40028 6.67741L0 2.48377V1.95621Z" fill="black"/>
<path opacity="0.07" d="M0 1.80032H13.0954V2.32788L7.47246 6.41612C6.92308 6.8227 6.17228 6.8227 5.6229 6.41612L0 2.32788V1.80032Z" fill="black"/>
<path d="M0.623589 1.02083H12.4718C12.8163 1.02083 13.0954 1.29989 13.0954 1.64442V2.17198L7.24984 6.15484C6.82612 6.44356 6.26894 6.44356 5.84552 6.15484L0 2.17198V1.64442C0 1.29989 0.279056 1.02083 0.623589 1.02083Z" fill="#50E6FF"/>
<path opacity="0.05" d="M13.0953 7.9461L12.0826 6.93339C11.9286 6.77936 11.7237 6.69455 11.5055 6.69455C11.2872 6.69455 11.083 6.77936 10.9287 6.93339L8.86583 8.99684C8.70338 9.15835 8.65505 9.39937 8.74236 9.61108C8.82966 9.82247 9.03451 9.95935 9.26336 9.95935H10.3621V10.9983H12.4717C12.5116 10.9983 12.5506 10.9939 12.5883 10.9864C12.6092 10.9823 12.6292 10.9758 12.6488 10.9693V9.95873H13.0953V7.9461Z" fill="black"/>
<path opacity="0.07" d="M13.0955 8.16654L11.9724 7.04345C11.848 6.91905 11.6821 6.85014 11.5056 6.85014C11.3295 6.85014 11.1636 6.91873 11.0392 7.04345L8.97606 9.10691C8.85882 9.22383 8.8239 9.39812 8.88688 9.5509C8.95018 9.70399 9.09828 9.80283 9.26384 9.80283H10.5185V10.9983H12.4719C12.4791 10.9983 12.4859 10.9964 12.4931 10.9961V9.80283H13.0955V8.16654Z" fill="black"/>
<path d="M9.26384 9.64725H10.6744V12.4534C10.6744 12.6829 10.8605 12.869 11.09 12.869H11.9216C12.1511 12.869 12.3372 12.6829 12.3372 12.4534V9.64725H13.7478C13.9722 9.64725 14.0845 9.37568 13.9258 9.21729L11.862 7.15352C11.6653 6.95678 11.346 6.95678 11.1496 7.15352L9.0858 9.21729C8.9271 9.37568 9.03935 9.64725 9.26384 9.64725Z" fill="url(#paint2_linear_210_5301)"/>
<defs>
<linearGradient id="paint0_linear_210_5301" x1="5.77327" y1="4.02591" x2="13.28" y2="15.2614" gradientUnits="userSpaceOnUse">
<stop stop-color="#28AFEA"/>
<stop offset="1" stop-color="#0B88DA"/>
</linearGradient>
<linearGradient id="paint1_linear_210_5301" x1="-0.496377" y1="6.13738" x2="10.3924" y2="12.9202" gradientUnits="userSpaceOnUse">
<stop stop-color="#28AFEA"/>
<stop offset="1" stop-color="#0B88DA"/>
</linearGradient>
<linearGradient id="paint2_linear_210_5301" x1="11.506" y1="7.01758" x2="11.506" y2="12.9099" gradientUnits="userSpaceOnUse">
<stop stop-color="#C965EB"/>
<stop offset="1" stop-color="#C767E5"/>
</linearGradient>
</defs>
</svg>
