<svg width="14" height="14" viewBox="0 0 14 14" fill="none" xmlns="http://www.w3.org/2000/svg">
<g clip-path="url(#clip0_210_5331)">
<path d="M13.5495 3.46267L10.1819 5.3428V6.93371H14.0001V3.75189L13.5495 3.46267Z" fill="#0E6F38"/>
<path d="M9.54545 11.3883H0.636364C0.284773 11.3883 0 11.1035 0 10.7519V3.11553C0 2.76394 0.284773 2.47917 0.636364 2.47917H9.54545C9.89705 2.47917 10.1818 2.76394 10.1818 3.11553V10.7519C10.1818 11.1035 9.89705 11.3883 9.54545 11.3883Z" fill="url(#paint0_linear_210_5331)"/>
<path d="M13.6817 4.07008C13.8574 4.07008 13.9999 3.92762 13.9999 3.75189C13.9999 3.57617 13.8574 3.43371 13.6817 3.43371C13.506 3.43371 13.3635 3.57617 13.3635 3.75189C13.3635 3.92762 13.506 4.07008 13.6817 4.07008Z" fill="#0E6F38"/>
<path d="M13.5495 10.4048L10.1819 8.52462V6.93371H14.0001V10.1155L13.5495 10.4048Z" fill="#0E6F38"/>
<path d="M13.6817 10.4337C13.8574 10.4337 13.9999 10.2913 13.9999 10.1155C13.9999 9.9398 13.8574 9.79735 13.6817 9.79735C13.506 9.79735 13.3635 9.9398 13.3635 10.1155C13.3635 10.2913 13.506 10.4337 13.6817 10.4337Z" fill="#0E6F38"/>
</g>
<defs>
<linearGradient id="paint0_linear_210_5331" x1="4.53186" y1="2.78398" x2="5.71645" y2="11.5766" gradientUnits="userSpaceOnUse">
<stop stop-color="#21AD64"/>
<stop offset="1" stop-color="#149753"/>
</linearGradient>
<clipPath id="clip0_210_5331">
<rect width="14" height="14" fill="white"/>
</clipPath>
</defs>
</svg>
