<svg width="14" height="14" viewBox="0 0 14 14" fill="none" xmlns="http://www.w3.org/2000/svg">
<path d="M14 10.6667C14 11.403 13.403 12 12.6667 12H1.33333C0.597 12 0 11.403 0 10.6667V3.33333C0 2.597 0.597 2 1.33333 2H12.6667C13.403 2 14 2.597 14 3.33333V10.6667Z" fill="#1565C0"/>
<path d="M4.06201 5.58334L3.18668 8.19401C3.18668 8.19401 2.96435 7.08967 2.94235 6.95101C2.44401 5.81401 1.70868 5.87734 1.70868 5.87734L2.57535 9.25001V9.24934H3.62901L5.08601 5.58334H4.06201ZM4.89635 9.25001H5.85335L6.43201 5.58334H5.46301L4.89635 9.25001ZM11.6693 5.58334H10.6623L9.09235 9.25001H10.043L10.239 8.72634H11.4377L11.5397 9.25001H12.4107L11.6693 5.58334ZM10.5043 8.02601L11.0253 6.64034L11.298 8.02601H10.5043ZM7.78968 6.65201C7.78968 6.45001 7.95568 6.29967 8.43168 6.29967C8.74101 6.29967 9.09535 6.52434 9.09535 6.52434L9.25068 5.75467C9.25068 5.75467 8.79801 5.58301 8.35368 5.58301C7.34735 5.58301 6.82835 6.06434 6.82835 6.67367C6.82835 7.77567 8.15468 7.62467 8.15468 8.19067C8.15468 8.28767 8.07768 8.51201 7.52535 8.51201C6.97135 8.51201 6.60568 8.30901 6.60568 8.30901L6.44068 9.04767C6.44068 9.04767 6.79501 9.24967 7.47968 9.24967C8.16601 9.24967 9.11801 8.73634 9.11801 7.99901C9.11801 7.11201 7.78968 7.04801 7.78968 6.65201Z" fill="white"/>
<path d="M3.07072 7.56501L2.74872 5.98234C2.74872 5.98234 2.60305 5.63934 2.22438 5.63934C1.84572 5.63934 0.744385 5.63934 0.744385 5.63934C0.744385 5.63934 2.63138 6.19668 3.07072 7.56501Z" fill="#FFC107"/>
</svg>
