<svg width="14" height="14" viewBox="0 0 14 14" fill="none" xmlns="http://www.w3.org/2000/svg">
<path d="M11.1677 10.0318C13.4439 7.69192 13.3924 3.95023 11.0525 1.67402C8.71256 -0.602187 4.97087 -0.550634 2.69466 1.78895C0.462782 4.08321 0.462782 7.73756 2.69466 10.0318C2.70057 10.0381 2.70451 10.045 2.71042 10.0512L2.7298 10.0706C2.74523 10.0863 2.76066 10.1018 2.77642 10.1172L6.46689 13.8077C6.72334 14.0641 7.13904 14.0641 7.3955 13.8077L11.086 10.1172C11.1017 10.1018 11.1172 10.0863 11.1326 10.0706L11.152 10.0512C11.1582 10.045 11.1621 10.0377 11.1677 10.0318Z" fill="url(#paint0_linear_210_5311)"/>
<path d="M6.93121 9.03492C8.65403 9.03492 10.0507 7.6383 10.0507 5.91548C10.0507 4.19266 8.65403 2.79604 6.93121 2.79604C5.20839 2.79604 3.81177 4.19266 3.81177 5.91548C3.81177 7.6383 5.20839 9.03492 6.93121 9.03492Z" fill="url(#paint1_radial_210_5311)"/>
<path d="M6.9311 8.54237C8.38189 8.54237 9.558 7.36627 9.558 5.91548C9.558 4.46468 8.38189 3.28858 6.9311 3.28858C5.4803 3.28858 4.3042 4.46468 4.3042 5.91548C4.3042 7.36627 5.4803 8.54237 6.9311 8.54237Z" fill="url(#paint2_linear_210_5311)"/>
<path d="M6.93129 7.61508C7.86996 7.61508 8.6309 6.85414 8.6309 5.91548C8.6309 4.97681 7.86996 4.21587 6.93129 4.21587C5.99263 4.21587 5.23169 4.97681 5.23169 5.91548C5.23169 6.85414 5.99263 7.61508 6.93129 7.61508Z" fill="url(#paint3_radial_210_5311)"/>
<path d="M5.84952 5.68365C6.23362 5.68365 6.545 5.37228 6.545 4.98818C6.545 4.60408 6.23362 4.29271 5.84952 4.29271C5.46543 4.29271 5.15405 4.60408 5.15405 4.98818C5.15405 5.37228 5.46543 5.68365 5.84952 5.68365Z" fill="white"/>
<defs>
<linearGradient id="paint0_linear_210_5311" x1="2.75114" y1="1.73181" x2="11.1112" y2="10.0922" gradientUnits="userSpaceOnUse">
<stop stop-color="#D43A02"/>
<stop offset="1" stop-color="#B9360C"/>
</linearGradient>
<radialGradient id="paint1_radial_210_5311" cx="0" cy="0" r="1" gradientUnits="userSpaceOnUse" gradientTransform="translate(6.93121 5.91548) scale(3.11944)">
<stop offset="0.177"/>
<stop offset="1" stop-opacity="0"/>
</radialGradient>
<linearGradient id="paint2_linear_210_5311" x1="6.20673" y1="4.5531" x2="8.34108" y2="8.567" gradientUnits="userSpaceOnUse">
<stop stop-color="#32BDEF"/>
<stop offset="1" stop-color="#1EA2E4"/>
</linearGradient>
<radialGradient id="paint3_radial_210_5311" cx="0" cy="0" r="1" gradientUnits="userSpaceOnUse" gradientTransform="translate(5.4619 3.9351) scale(4.34951)">
<stop stop-color="#4B4B4B"/>
<stop offset="0.531" stop-color="#393939"/>
<stop offset="1" stop-color="#252525"/>
</radialGradient>
</defs>
</svg>
