<svg width="14" height="14" viewBox="0 0 14 14" fill="none" xmlns="http://www.w3.org/2000/svg">
<g clip-path="url(#clip0_207_5254)">
<path d="M0 7C0 3.13425 3.13425 0 7 0C10.8658 0 14 3.13425 14 7C14 10.8658 10.8658 14 7 14C3.13425 14 0 10.8658 0 7Z" fill="url(#paint0_radial_207_5254)"/>
<path d="M12.9499 7C12.9499 5.86635 12.7144 4.79815 12.3063 3.85H13.245C13.1232 3.60885 12.9912 3.374 12.8432 3.15H11.964C10.8982 1.2544 9.07228 0 6.99993 0C4.92758 0 3.10163 1.2544 2.03588 3.15H1.15668C1.00863 3.374 0.876683 3.60885 0.754883 3.85H1.69358C1.28548 4.79815 1.04993 5.86635 1.04993 7C1.04993 8.13365 1.28548 9.20185 1.69358 10.15H0.754883C0.876683 10.3911 1.00863 10.626 1.15668 10.85H2.03588C3.10163 12.7456 4.92758 14 6.99993 14C9.07228 14 10.8982 12.7456 11.964 10.85H12.8432C12.9912 10.626 13.1232 10.3911 13.245 10.15H12.3063C12.7144 9.20185 12.9499 8.13365 12.9499 7ZM12.2499 7C12.2499 8.148 11.9885 9.22215 11.5398 10.15H9.51223C9.70228 9.15845 9.79993 8.06855 9.79993 7C9.79993 5.93145 9.70228 4.84155 9.51223 3.85H11.5398C11.9885 4.77785 12.2499 5.852 12.2499 7ZM6.99993 13.3C6.40843 13.3 5.77808 12.377 5.36403 10.85H8.63618C8.22178 12.377 7.59143 13.3 6.99993 13.3ZM5.19673 10.15C5.01228 9.24455 4.89993 8.17985 4.89993 7C4.89993 5.82015 5.01228 4.75545 5.19673 3.85H8.80313C8.98758 4.75545 9.09993 5.82015 9.09993 7C9.09993 8.17985 8.98758 9.24455 8.80313 10.15H5.19673ZM6.99993 0.7C7.59143 0.7 8.22178 1.62295 8.63583 3.15H5.36368C5.77808 1.62295 6.40843 0.7 6.99993 0.7ZM11.1464 3.15H9.35753C9.13843 2.27535 8.83988 1.5106 8.46433 0.95445C9.54198 1.33105 10.4751 2.1112 11.1464 3.15ZM5.53553 0.95445C5.15998 1.51095 4.86143 2.27535 4.64233 3.15H2.85348C3.52478 2.1112 4.45788 1.33105 5.53553 0.95445ZM1.74993 7C1.74993 5.852 2.01138 4.77785 2.46008 3.85H4.48763C4.29758 4.84155 4.19993 5.93145 4.19993 7C4.19993 8.06855 4.29758 9.15845 4.48763 10.15H2.46008C2.01138 9.22215 1.74993 8.148 1.74993 7ZM2.85348 10.85H4.64233C4.86143 11.7246 5.15998 12.4894 5.53553 13.0455C4.45788 12.6689 3.52478 11.8888 2.85348 10.85ZM8.46433 13.0455C8.83988 12.489 9.13843 11.7246 9.35753 10.85H11.1464C10.4751 11.8888 9.54198 12.6689 8.46433 13.0455Z" fill="url(#paint1_radial_207_5254)"/>
<path opacity="0.05" d="M13.4169 5.25H12.4929C12.3704 5.25 12.2647 5.33575 12.2395 5.45545L12.0746 6.24015L11.8713 5.4446C11.8422 5.33015 11.739 5.25 11.6207 5.25H10.7793C10.661 5.25 10.5577 5.33015 10.5283 5.44495L10.325 6.2405L10.1601 5.4558C10.1353 5.33575 10.0296 5.25 9.90706 5.25H8.29286C8.17036 5.25 8.06466 5.33575 8.03946 5.45545L7.87461 6.24015L7.67126 5.4446C7.64221 5.33015 7.53896 5.25 7.42066 5.25H6.57926C6.46096 5.25 6.35771 5.33015 6.32831 5.44495L6.12496 6.2405L5.96011 5.4558C5.93526 5.33575 5.82956 5.25 5.70706 5.25H4.09286C3.97036 5.25 3.86466 5.33575 3.83946 5.45545L3.67461 6.24015L3.47126 5.4446C3.44221 5.33015 3.33896 5.25 3.22066 5.25H2.37926C2.26096 5.25 2.15771 5.33015 2.12831 5.44495L1.92531 6.2405L1.76046 5.45545C1.73526 5.33575 1.62956 5.25 1.50706 5.25H0.583062C0.414712 5.25 0.291162 5.4082 0.332112 5.57165L1.07761 8.554C1.10631 8.66915 1.20991 8.75 1.32856 8.75H2.32746C2.44471 8.75 2.54691 8.67265 2.57701 8.5596C2.64421 8.30935 2.75831 7.88305 2.79961 7.7266C2.84091 7.88305 2.95501 8.30935 3.02221 8.5596C3.05301 8.67265 3.15521 8.75 3.27246 8.75H4.27136C4.39001 8.75 4.49361 8.66915 4.52231 8.554L4.89996 7.04375L5.27761 8.554C5.30631 8.66915 5.40991 8.75 5.52856 8.75H6.52746C6.64471 8.75 6.74691 8.67265 6.77701 8.5596C6.84421 8.30935 6.95831 7.88305 6.99961 7.7266C7.04091 7.88305 7.15501 8.30935 7.22221 8.5596C7.25301 8.67265 7.35521 8.75 7.47246 8.75H8.47136C8.59001 8.75 8.69361 8.66915 8.72231 8.554L9.09996 7.04375L9.47761 8.554C9.50631 8.66915 9.60991 8.75 9.72856 8.75H10.7275C10.8447 8.75 10.9469 8.67265 10.977 8.5596C11.0442 8.30935 11.1583 7.88305 11.1996 7.7266C11.2409 7.88305 11.355 8.30935 11.4222 8.5596C11.453 8.67265 11.5552 8.75 11.6725 8.75H12.6714C12.79 8.75 12.8936 8.66915 12.9223 8.554L13.6678 5.57165C13.7088 5.4082 13.5852 5.25 13.4169 5.25Z" fill="black"/>
<path opacity="0.07" d="M13.2835 5.425H12.5775C12.4886 5.425 12.4116 5.4873 12.3934 5.57445L12.0914 7.0126L11.7221 5.5664C11.7008 5.4831 11.6259 5.425 11.5398 5.425H10.8601C10.7743 5.425 10.6991 5.4831 10.6777 5.5664L10.3085 7.0126L10.0061 5.57445C9.9879 5.4873 9.9109 5.425 9.822 5.425H8.37685C8.28795 5.425 8.21095 5.4873 8.19275 5.57445L7.8907 7.0126L7.52145 5.5664C7.5001 5.4831 7.4252 5.425 7.3391 5.425H6.6594C6.57365 5.425 6.4984 5.4831 6.47705 5.5664L6.1078 7.0126L5.8054 5.57445C5.7872 5.4873 5.7102 5.425 5.6213 5.425H4.17615C4.08725 5.425 4.01025 5.4873 3.99205 5.57445L3.69 7.0126L3.32075 5.5664C3.2994 5.4831 3.2245 5.425 3.1384 5.425H2.4587C2.37295 5.425 2.2977 5.4831 2.27635 5.5664L1.9071 7.0126L1.60645 5.57445C1.58825 5.4873 1.5116 5.425 1.4227 5.425H0.716396C0.594246 5.425 0.504296 5.5398 0.534046 5.6588L1.2274 8.43255C1.2484 8.5162 1.32365 8.575 1.40975 8.575H2.2473C2.33235 8.575 2.40655 8.51865 2.4286 8.4364C2.5133 8.12 2.77335 7.14735 2.79925 7.0133C2.8255 7.14735 3.0852 8.12035 3.1699 8.4364C3.19195 8.51865 3.26615 8.575 3.3512 8.575H4.18875C4.2752 8.575 4.3501 8.5162 4.3711 8.43255L4.89995 6.32205L5.42775 8.43255C5.44875 8.5162 5.524 8.575 5.6101 8.575H6.44765C6.5327 8.575 6.6069 8.51865 6.62895 8.4364C6.71365 8.12 6.9737 7.14735 6.9996 7.0133C7.02585 7.14735 7.28555 8.12035 7.37025 8.4364C7.3923 8.51865 7.4665 8.575 7.55155 8.575H8.3891C8.47555 8.575 8.55045 8.5162 8.57145 8.43255L9.09995 6.32205L9.62775 8.43255C9.64875 8.5162 9.724 8.575 9.8101 8.575H10.6476C10.7327 8.575 10.8069 8.51865 10.8289 8.4364C10.9136 8.12 11.1737 7.14735 11.1996 7.0133C11.2258 7.14735 11.4855 8.12035 11.5702 8.4364C11.5923 8.51865 11.6665 8.575 11.7515 8.575H12.5891C12.6755 8.575 12.7504 8.5162 12.7714 8.43255L13.4648 5.6588C13.4956 5.5398 13.4056 5.425 13.2835 5.425Z" fill="black"/>
<path d="M8.36665 5.6L7.90745 7.78505L7.3499 5.6H6.6499L6.09235 7.78505L5.63315 5.6H4.8999L5.5999 8.4H6.45775C6.45775 8.4 6.9873 6.4274 6.9999 6.3C7.0125 6.4274 7.54205 8.4 7.54205 8.4H8.3999L9.0999 5.6H8.36665Z" fill="white"/>
<path d="M4.1667 5.6L3.7075 7.78505L3.14995 5.6H2.44995L1.8924 7.78505L1.4332 5.6H0.699951L1.39995 8.4H2.2578C2.2578 8.4 2.78735 6.4274 2.79995 6.3C2.81255 6.4274 3.3421 8.4 3.3421 8.4H4.19995L4.89995 5.6H4.1667Z" fill="white"/>
<path d="M12.5668 5.6L12.1076 7.78505L11.5501 5.6H10.8501L10.2925 7.78505L9.83335 5.6H9.1001L9.8001 8.4H10.6579C10.6579 8.4 11.1875 6.4274 11.2001 6.3C11.2127 6.4274 11.7422 8.4 11.7422 8.4H12.6001L13.3001 5.6H12.5668Z" fill="white"/>
</g>
<defs>
<radialGradient id="paint0_radial_207_5254" cx="0" cy="0" r="1" gradientUnits="userSpaceOnUse" gradientTransform="translate(2.2162 1.81335) scale(14.0143)">
<stop stop-color="#6FCEFC"/>
<stop offset="1" stop-color="#167CF7"/>
</radialGradient>
<radialGradient id="paint1_radial_207_5254" cx="0" cy="0" r="1" gradientUnits="userSpaceOnUse" gradientTransform="translate(2.54268 1.568) scale(14.0542 14.0543)">
<stop offset="0.001" stop-color="#54C0F5"/>
<stop offset="0.998" stop-color="#0B69DB"/>
</radialGradient>
<clipPath id="clip0_207_5254">
<rect width="14" height="14" fill="white"/>
</clipPath>
</defs>
</svg>
