<svg width="14" height="14" viewBox="0 0 14 14" fill="none" xmlns="http://www.w3.org/2000/svg">
<g clip-path="url(#clip0_205_5244)">
<path fill-rule="evenodd" clip-rule="evenodd" d="M0.613525 13.3862L1.51188 10.1066C0.957662 9.14685 0.666213 8.05775 0.666546 6.94231C0.668214 3.45259 3.50801 0.613464 6.99806 0.613464C8.69173 0.614131 10.281 1.27339 11.4765 2.46953C12.6716 3.66601 13.3299 5.25597 13.3292 6.94731C13.3279 10.437 10.4874 13.2765 6.99806 13.2765H6.99539C5.93597 13.2762 4.89456 13.0104 3.96986 12.5058L0.613525 13.3862Z" fill="white"/>
<path fill-rule="evenodd" clip-rule="evenodd" d="M0.613609 13.5529C0.569591 13.5529 0.526907 13.5356 0.495228 13.5036C0.453545 13.4612 0.437205 13.3995 0.452878 13.3425L1.33289 10.1292C0.787344 9.16019 0.499563 8.05975 0.50023 6.94264C0.501564 3.36055 3.41639 0.446732 6.99814 0.446732C8.7355 0.447398 10.3678 1.124 11.5946 2.35182C12.8215 3.57997 13.4967 5.21196 13.4961 6.94731C13.4947 10.5291 10.5796 13.4432 6.99814 13.4432C5.93472 13.4429 4.88264 13.1804 3.94893 12.6839L0.655959 13.5473C0.641953 13.5513 0.627948 13.5529 0.613609 13.5529Z" fill="white"/>
<path fill-rule="evenodd" clip-rule="evenodd" d="M6.99816 0.613464C8.69184 0.614131 10.2811 1.27339 11.4766 2.46953C12.6717 3.66601 13.33 5.25597 13.3293 6.94731C13.328 10.437 10.4875 13.2765 6.99816 13.2765H6.9955C5.93608 13.2762 4.89466 13.0104 3.96996 12.5058L0.613632 13.3862L1.51199 10.1066C0.957769 9.14685 0.66632 8.05775 0.666653 6.94231C0.66832 3.45259 3.50811 0.613464 6.99816 0.613464ZM6.99816 0.279999C3.32471 0.279999 0.334855 3.26852 0.333187 6.94231C0.332854 8.06509 0.6163 9.17153 1.15385 10.1509L0.291838 13.2985C0.260492 13.4135 0.292505 13.5363 0.376538 13.621C0.439897 13.685 0.525597 13.72 0.613632 13.72C0.641977 13.72 0.670321 13.7163 0.698332 13.709L3.92861 12.862C4.87165 13.3515 5.92874 13.61 6.9955 13.6103C10.6716 13.6103 13.6615 10.6214 13.6631 6.94764C13.6638 5.16727 12.9712 3.49327 11.713 2.23411C10.4542 0.974608 8.77987 0.280666 6.99816 0.279999Z" fill="#CFD8DC"/>
<path fill-rule="evenodd" clip-rule="evenodd" d="M10.7203 3.22517C9.72652 2.23077 8.40567 1.68289 6.99977 1.68256C4.09729 1.68256 1.73669 4.04216 1.73535 6.94264C1.73502 7.9367 2.01313 8.90442 2.54 9.74242L2.66539 9.9415L2.13351 11.8826L4.1253 11.3604L4.31771 11.4744C5.12536 11.954 6.05173 12.2074 6.99611 12.2077H6.99811C9.89859 12.2077 12.2592 9.8478 12.2602 6.94698C12.2605 5.54142 11.714 4.21956 10.7203 3.22517Z" fill="#40C351"/>
<path fill-rule="evenodd" clip-rule="evenodd" d="M5.4155 4.29659C5.29712 4.03316 5.1724 4.02782 5.05936 4.02315C4.96699 4.01915 4.86161 4.01948 4.75624 4.01948C4.65086 4.01948 4.47946 4.05917 4.3344 4.21756C4.18935 4.37596 3.78052 4.75844 3.78052 5.53675C3.78052 6.31506 4.34741 7.06736 4.42644 7.17274C4.50547 7.27811 5.52087 8.92643 7.12885 9.56068C8.46504 10.0876 8.73715 9.98285 9.02727 9.95651C9.31738 9.93016 9.9633 9.57402 10.095 9.20454C10.2267 8.83506 10.2267 8.5186 10.1874 8.45258C10.1477 8.38655 10.0423 8.3472 9.88427 8.26784C9.72621 8.18847 8.94823 7.80599 8.80318 7.7533C8.65812 7.70061 8.55274 7.67427 8.44704 7.83266C8.34166 7.99073 8.03854 8.3472 7.94617 8.45258C7.8538 8.55829 7.76143 8.57162 7.60337 8.49226C7.44531 8.4129 6.93577 8.24616 6.3312 7.70728C5.86101 7.28812 5.54355 6.77024 5.45118 6.61185C5.35881 6.45378 5.44118 6.36808 5.52054 6.28905C5.59157 6.21802 5.6786 6.10431 5.75797 6.01194C5.837 5.91957 5.86334 5.85355 5.91603 5.74817C5.96872 5.64246 5.94238 5.55009 5.90269 5.47106C5.86368 5.3917 5.55622 4.60939 5.4155 4.29659Z" fill="white"/>
</g>
<defs>
<clipPath id="clip0_205_5244">
<rect width="14" height="14" fill="white"/>
</clipPath>
</defs>
</svg>
